%TF.GenerationSoftware,KiCad,Pcbnew,(5.1.6)-1*%
%TF.CreationDate,2020-12-14T06:54:32-07:00*%
%TF.ProjectId,DDS,4444532e-6b69-4636-9164-5f7063625858,rev?*%
%TF.SameCoordinates,Original*%
%TF.FileFunction,Soldermask,Bot*%
%TF.FilePolarity,Negative*%
%FSLAX46Y46*%
G04 Gerber Fmt 4.6, Leading zero omitted, Abs format (unit mm)*
G04 Created by KiCad (PCBNEW (5.1.6)-1) date 2020-12-14 06:54:32*
%MOMM*%
%LPD*%
G01*
G04 APERTURE LIST*
%ADD10C,0.100000*%
%ADD11C,0.150000*%
%ADD12C,0.300000*%
%ADD13C,0.400000*%
%ADD14C,3.300000*%
%ADD15C,1.100000*%
%ADD16O,1.800000X1.800000*%
%ADD17R,1.800000X1.800000*%
%ADD18C,1.000000*%
%ADD19R,1.450000X4.300000*%
%ADD20C,1.500000*%
G04 APERTURE END LIST*
D10*
D11*
X177002200Y-166007200D02*
X177002200Y-198007200D01*
X285002200Y-198007200D01*
X285002200Y-166007200D01*
X177002200Y-166007200D01*
D10*
D11*
X10000000Y-10000000D02*
X10000000Y-200007200D01*
X287002200Y-200007200D01*
X287002200Y-10000000D01*
X10000000Y-10000000D01*
D10*
D11*
X12000000Y-12000000D02*
X12000000Y-198007200D01*
X285002200Y-198007200D01*
X285002200Y-12000000D01*
X12000000Y-12000000D01*
D10*
D11*
X60000000Y-12000000D02*
X60000000Y-10000000D01*
D10*
D11*
X110000000Y-12000000D02*
X110000000Y-10000000D01*
D10*
D11*
X160000000Y-12000000D02*
X160000000Y-10000000D01*
D10*
D11*
X210000000Y-12000000D02*
X210000000Y-10000000D01*
D10*
D11*
X260000000Y-12000000D02*
X260000000Y-10000000D01*
D10*
D11*
X36065476Y-11588095D02*
X35322619Y-11588095D01*
X35694047Y-11588095D02*
X35694047Y-10288095D01*
X35570238Y-10473809D01*
X35446428Y-10597619D01*
X35322619Y-10659523D01*
D10*
D11*
X85322619Y-10411904D02*
X85384523Y-10350000D01*
X85508333Y-10288095D01*
X85817857Y-10288095D01*
X85941666Y-10350000D01*
X86003571Y-10411904D01*
X86065476Y-10535714D01*
X86065476Y-10659523D01*
X86003571Y-10845238D01*
X85260714Y-11588095D01*
X86065476Y-11588095D01*
D10*
D11*
X135260714Y-10288095D02*
X136065476Y-10288095D01*
X135632142Y-10783333D01*
X135817857Y-10783333D01*
X135941666Y-10845238D01*
X136003571Y-10907142D01*
X136065476Y-11030952D01*
X136065476Y-11340476D01*
X136003571Y-11464285D01*
X135941666Y-11526190D01*
X135817857Y-11588095D01*
X135446428Y-11588095D01*
X135322619Y-11526190D01*
X135260714Y-11464285D01*
D10*
D11*
X185941666Y-10721428D02*
X185941666Y-11588095D01*
X185632142Y-10226190D02*
X185322619Y-11154761D01*
X186127380Y-11154761D01*
D10*
D11*
X236003571Y-10288095D02*
X235384523Y-10288095D01*
X235322619Y-10907142D01*
X235384523Y-10845238D01*
X235508333Y-10783333D01*
X235817857Y-10783333D01*
X235941666Y-10845238D01*
X236003571Y-10907142D01*
X236065476Y-11030952D01*
X236065476Y-11340476D01*
X236003571Y-11464285D01*
X235941666Y-11526190D01*
X235817857Y-11588095D01*
X235508333Y-11588095D01*
X235384523Y-11526190D01*
X235322619Y-11464285D01*
D10*
D11*
X285941666Y-10288095D02*
X285694047Y-10288095D01*
X285570238Y-10350000D01*
X285508333Y-10411904D01*
X285384523Y-10597619D01*
X285322619Y-10845238D01*
X285322619Y-11340476D01*
X285384523Y-11464285D01*
X285446428Y-11526190D01*
X285570238Y-11588095D01*
X285817857Y-11588095D01*
X285941666Y-11526190D01*
X286003571Y-11464285D01*
X286065476Y-11340476D01*
X286065476Y-11030952D01*
X286003571Y-10907142D01*
X285941666Y-10845238D01*
X285817857Y-10783333D01*
X285570238Y-10783333D01*
X285446428Y-10845238D01*
X285384523Y-10907142D01*
X285322619Y-11030952D01*
D10*
D11*
X60000000Y-198007200D02*
X60000000Y-200007200D01*
D10*
D11*
X110000000Y-198007200D02*
X110000000Y-200007200D01*
D10*
D11*
X160000000Y-198007200D02*
X160000000Y-200007200D01*
D10*
D11*
X210000000Y-198007200D02*
X210000000Y-200007200D01*
D10*
D11*
X260000000Y-198007200D02*
X260000000Y-200007200D01*
D10*
D11*
X36065476Y-199595295D02*
X35322619Y-199595295D01*
X35694047Y-199595295D02*
X35694047Y-198295295D01*
X35570238Y-198481009D01*
X35446428Y-198604819D01*
X35322619Y-198666723D01*
D10*
D11*
X85322619Y-198419104D02*
X85384523Y-198357200D01*
X85508333Y-198295295D01*
X85817857Y-198295295D01*
X85941666Y-198357200D01*
X86003571Y-198419104D01*
X86065476Y-198542914D01*
X86065476Y-198666723D01*
X86003571Y-198852438D01*
X85260714Y-199595295D01*
X86065476Y-199595295D01*
D10*
D11*
X135260714Y-198295295D02*
X136065476Y-198295295D01*
X135632142Y-198790533D01*
X135817857Y-198790533D01*
X135941666Y-198852438D01*
X136003571Y-198914342D01*
X136065476Y-199038152D01*
X136065476Y-199347676D01*
X136003571Y-199471485D01*
X135941666Y-199533390D01*
X135817857Y-199595295D01*
X135446428Y-199595295D01*
X135322619Y-199533390D01*
X135260714Y-199471485D01*
D10*
D11*
X185941666Y-198728628D02*
X185941666Y-199595295D01*
X185632142Y-198233390D02*
X185322619Y-199161961D01*
X186127380Y-199161961D01*
D10*
D11*
X236003571Y-198295295D02*
X235384523Y-198295295D01*
X235322619Y-198914342D01*
X235384523Y-198852438D01*
X235508333Y-198790533D01*
X235817857Y-198790533D01*
X235941666Y-198852438D01*
X236003571Y-198914342D01*
X236065476Y-199038152D01*
X236065476Y-199347676D01*
X236003571Y-199471485D01*
X235941666Y-199533390D01*
X235817857Y-199595295D01*
X235508333Y-199595295D01*
X235384523Y-199533390D01*
X235322619Y-199471485D01*
D10*
D11*
X285941666Y-198295295D02*
X285694047Y-198295295D01*
X285570238Y-198357200D01*
X285508333Y-198419104D01*
X285384523Y-198604819D01*
X285322619Y-198852438D01*
X285322619Y-199347676D01*
X285384523Y-199471485D01*
X285446428Y-199533390D01*
X285570238Y-199595295D01*
X285817857Y-199595295D01*
X285941666Y-199533390D01*
X286003571Y-199471485D01*
X286065476Y-199347676D01*
X286065476Y-199038152D01*
X286003571Y-198914342D01*
X285941666Y-198852438D01*
X285817857Y-198790533D01*
X285570238Y-198790533D01*
X285446428Y-198852438D01*
X285384523Y-198914342D01*
X285322619Y-199038152D01*
D10*
D11*
X10000000Y-60000000D02*
X12000000Y-60000000D01*
D10*
D11*
X10000000Y-110000000D02*
X12000000Y-110000000D01*
D10*
D11*
X10000000Y-160000000D02*
X12000000Y-160000000D01*
D10*
D11*
X10690476Y-35216666D02*
X11309523Y-35216666D01*
X10566666Y-35588095D02*
X11000000Y-34288095D01*
X11433333Y-35588095D01*
D10*
D11*
X11092857Y-84907142D02*
X11278571Y-84969047D01*
X11340476Y-85030952D01*
X11402380Y-85154761D01*
X11402380Y-85340476D01*
X11340476Y-85464285D01*
X11278571Y-85526190D01*
X11154761Y-85588095D01*
X10659523Y-85588095D01*
X10659523Y-84288095D01*
X11092857Y-84288095D01*
X11216666Y-84350000D01*
X11278571Y-84411904D01*
X11340476Y-84535714D01*
X11340476Y-84659523D01*
X11278571Y-84783333D01*
X11216666Y-84845238D01*
X11092857Y-84907142D01*
X10659523Y-84907142D01*
D10*
D11*
X11402380Y-135464285D02*
X11340476Y-135526190D01*
X11154761Y-135588095D01*
X11030952Y-135588095D01*
X10845238Y-135526190D01*
X10721428Y-135402380D01*
X10659523Y-135278571D01*
X10597619Y-135030952D01*
X10597619Y-134845238D01*
X10659523Y-134597619D01*
X10721428Y-134473809D01*
X10845238Y-134350000D01*
X11030952Y-134288095D01*
X11154761Y-134288095D01*
X11340476Y-134350000D01*
X11402380Y-134411904D01*
D10*
D11*
X10659523Y-185588095D02*
X10659523Y-184288095D01*
X10969047Y-184288095D01*
X11154761Y-184350000D01*
X11278571Y-184473809D01*
X11340476Y-184597619D01*
X11402380Y-184845238D01*
X11402380Y-185030952D01*
X11340476Y-185278571D01*
X11278571Y-185402380D01*
X11154761Y-185526190D01*
X10969047Y-185588095D01*
X10659523Y-185588095D01*
D10*
D11*
X287002200Y-60000000D02*
X285002200Y-60000000D01*
D10*
D11*
X287002200Y-110000000D02*
X285002200Y-110000000D01*
D10*
D11*
X287002200Y-160000000D02*
X285002200Y-160000000D01*
D10*
D11*
X285692676Y-35216666D02*
X286311723Y-35216666D01*
X285568866Y-35588095D02*
X286002200Y-34288095D01*
X286435533Y-35588095D01*
D10*
D11*
X286095057Y-84907142D02*
X286280771Y-84969047D01*
X286342676Y-85030952D01*
X286404580Y-85154761D01*
X286404580Y-85340476D01*
X286342676Y-85464285D01*
X286280771Y-85526190D01*
X286156961Y-85588095D01*
X285661723Y-85588095D01*
X285661723Y-84288095D01*
X286095057Y-84288095D01*
X286218866Y-84350000D01*
X286280771Y-84411904D01*
X286342676Y-84535714D01*
X286342676Y-84659523D01*
X286280771Y-84783333D01*
X286218866Y-84845238D01*
X286095057Y-84907142D01*
X285661723Y-84907142D01*
D10*
D11*
X286404580Y-135464285D02*
X286342676Y-135526190D01*
X286156961Y-135588095D01*
X286033152Y-135588095D01*
X285847438Y-135526190D01*
X285723628Y-135402380D01*
X285661723Y-135278571D01*
X285599819Y-135030952D01*
X285599819Y-134845238D01*
X285661723Y-134597619D01*
X285723628Y-134473809D01*
X285847438Y-134350000D01*
X286033152Y-134288095D01*
X286156961Y-134288095D01*
X286342676Y-134350000D01*
X286404580Y-134411904D01*
D10*
D11*
X285661723Y-185588095D02*
X285661723Y-184288095D01*
X285971247Y-184288095D01*
X286156961Y-184350000D01*
X286280771Y-184473809D01*
X286342676Y-184597619D01*
X286404580Y-184845238D01*
X286404580Y-185030952D01*
X286342676Y-185278571D01*
X286280771Y-185402380D01*
X286156961Y-185526190D01*
X285971247Y-185588095D01*
X285661723Y-185588095D01*
D10*
D11*
X200434342Y-193785771D02*
X200434342Y-192285771D01*
X200791485Y-192285771D01*
X201005771Y-192357200D01*
X201148628Y-192500057D01*
X201220057Y-192642914D01*
X201291485Y-192928628D01*
X201291485Y-193142914D01*
X201220057Y-193428628D01*
X201148628Y-193571485D01*
X201005771Y-193714342D01*
X200791485Y-193785771D01*
X200434342Y-193785771D01*
X202577200Y-193785771D02*
X202577200Y-193000057D01*
X202505771Y-192857200D01*
X202362914Y-192785771D01*
X202077200Y-192785771D01*
X201934342Y-192857200D01*
X202577200Y-193714342D02*
X202434342Y-193785771D01*
X202077200Y-193785771D01*
X201934342Y-193714342D01*
X201862914Y-193571485D01*
X201862914Y-193428628D01*
X201934342Y-193285771D01*
X202077200Y-193214342D01*
X202434342Y-193214342D01*
X202577200Y-193142914D01*
X203077200Y-192785771D02*
X203648628Y-192785771D01*
X203291485Y-192285771D02*
X203291485Y-193571485D01*
X203362914Y-193714342D01*
X203505771Y-193785771D01*
X203648628Y-193785771D01*
X204720057Y-193714342D02*
X204577200Y-193785771D01*
X204291485Y-193785771D01*
X204148628Y-193714342D01*
X204077200Y-193571485D01*
X204077200Y-193000057D01*
X204148628Y-192857200D01*
X204291485Y-192785771D01*
X204577200Y-192785771D01*
X204720057Y-192857200D01*
X204791485Y-193000057D01*
X204791485Y-193142914D01*
X204077200Y-193285771D01*
X205434342Y-193642914D02*
X205505771Y-193714342D01*
X205434342Y-193785771D01*
X205362914Y-193714342D01*
X205434342Y-193642914D01*
X205434342Y-193785771D01*
X205434342Y-192857200D02*
X205505771Y-192928628D01*
X205434342Y-193000057D01*
X205362914Y-192928628D01*
X205434342Y-192857200D01*
X205434342Y-193000057D01*
D10*
D11*
X177002200Y-194507200D02*
X285002200Y-194507200D01*
D10*
D11*
X178434342Y-196585771D02*
X178434342Y-195085771D01*
X179291485Y-196585771D02*
X178648628Y-195728628D01*
X179291485Y-195085771D02*
X178434342Y-195942914D01*
X179934342Y-196585771D02*
X179934342Y-195585771D01*
X179934342Y-195085771D02*
X179862914Y-195157200D01*
X179934342Y-195228628D01*
X180005771Y-195157200D01*
X179934342Y-195085771D01*
X179934342Y-195228628D01*
X181505771Y-196442914D02*
X181434342Y-196514342D01*
X181220057Y-196585771D01*
X181077200Y-196585771D01*
X180862914Y-196514342D01*
X180720057Y-196371485D01*
X180648628Y-196228628D01*
X180577200Y-195942914D01*
X180577200Y-195728628D01*
X180648628Y-195442914D01*
X180720057Y-195300057D01*
X180862914Y-195157200D01*
X181077200Y-195085771D01*
X181220057Y-195085771D01*
X181434342Y-195157200D01*
X181505771Y-195228628D01*
X182791485Y-196585771D02*
X182791485Y-195800057D01*
X182720057Y-195657200D01*
X182577200Y-195585771D01*
X182291485Y-195585771D01*
X182148628Y-195657200D01*
X182791485Y-196514342D02*
X182648628Y-196585771D01*
X182291485Y-196585771D01*
X182148628Y-196514342D01*
X182077200Y-196371485D01*
X182077200Y-196228628D01*
X182148628Y-196085771D01*
X182291485Y-196014342D01*
X182648628Y-196014342D01*
X182791485Y-195942914D01*
X184148628Y-196585771D02*
X184148628Y-195085771D01*
X184148628Y-196514342D02*
X184005771Y-196585771D01*
X183720057Y-196585771D01*
X183577200Y-196514342D01*
X183505771Y-196442914D01*
X183434342Y-196300057D01*
X183434342Y-195871485D01*
X183505771Y-195728628D01*
X183577200Y-195657200D01*
X183720057Y-195585771D01*
X184005771Y-195585771D01*
X184148628Y-195657200D01*
X186005771Y-195800057D02*
X186505771Y-195800057D01*
X186720057Y-196585771D02*
X186005771Y-196585771D01*
X186005771Y-195085771D01*
X186720057Y-195085771D01*
X187362914Y-196442914D02*
X187434342Y-196514342D01*
X187362914Y-196585771D01*
X187291485Y-196514342D01*
X187362914Y-196442914D01*
X187362914Y-196585771D01*
X188077200Y-196585771D02*
X188077200Y-195085771D01*
X188434342Y-195085771D01*
X188648628Y-195157200D01*
X188791485Y-195300057D01*
X188862914Y-195442914D01*
X188934342Y-195728628D01*
X188934342Y-195942914D01*
X188862914Y-196228628D01*
X188791485Y-196371485D01*
X188648628Y-196514342D01*
X188434342Y-196585771D01*
X188077200Y-196585771D01*
X189577200Y-196442914D02*
X189648628Y-196514342D01*
X189577200Y-196585771D01*
X189505771Y-196514342D01*
X189577200Y-196442914D01*
X189577200Y-196585771D01*
X190220057Y-196157200D02*
X190934342Y-196157200D01*
X190077200Y-196585771D02*
X190577200Y-195085771D01*
X191077200Y-196585771D01*
X191577200Y-196442914D02*
X191648628Y-196514342D01*
X191577200Y-196585771D01*
X191505771Y-196514342D01*
X191577200Y-196442914D01*
X191577200Y-196585771D01*
X194577200Y-196585771D02*
X194577200Y-195085771D01*
X194720057Y-196014342D02*
X195148628Y-196585771D01*
X195148628Y-195585771D02*
X194577200Y-196157200D01*
X195791485Y-196585771D02*
X195791485Y-195585771D01*
X195791485Y-195085771D02*
X195720057Y-195157200D01*
X195791485Y-195228628D01*
X195862914Y-195157200D01*
X195791485Y-195085771D01*
X195791485Y-195228628D01*
X197148628Y-196514342D02*
X197005771Y-196585771D01*
X196720057Y-196585771D01*
X196577200Y-196514342D01*
X196505771Y-196442914D01*
X196434342Y-196300057D01*
X196434342Y-195871485D01*
X196505771Y-195728628D01*
X196577200Y-195657200D01*
X196720057Y-195585771D01*
X197005771Y-195585771D01*
X197148628Y-195657200D01*
X198434342Y-196585771D02*
X198434342Y-195800057D01*
X198362914Y-195657200D01*
X198220057Y-195585771D01*
X197934342Y-195585771D01*
X197791485Y-195657200D01*
X198434342Y-196514342D02*
X198291485Y-196585771D01*
X197934342Y-196585771D01*
X197791485Y-196514342D01*
X197720057Y-196371485D01*
X197720057Y-196228628D01*
X197791485Y-196085771D01*
X197934342Y-196014342D01*
X198291485Y-196014342D01*
X198434342Y-195942914D01*
X199791485Y-196585771D02*
X199791485Y-195085771D01*
X199791485Y-196514342D02*
X199648628Y-196585771D01*
X199362914Y-196585771D01*
X199220057Y-196514342D01*
X199148628Y-196442914D01*
X199077200Y-196300057D01*
X199077200Y-195871485D01*
X199148628Y-195728628D01*
X199220057Y-195657200D01*
X199362914Y-195585771D01*
X199648628Y-195585771D01*
X199791485Y-195657200D01*
X202077200Y-197157200D02*
X202005771Y-197085771D01*
X201862914Y-196871485D01*
X201791485Y-196728628D01*
X201720057Y-196514342D01*
X201648628Y-196157200D01*
X201648628Y-195871485D01*
X201720057Y-195514342D01*
X201791485Y-195300057D01*
X201862914Y-195157200D01*
X202005771Y-194942914D01*
X202077200Y-194871485D01*
X203362914Y-195085771D02*
X202648628Y-195085771D01*
X202577200Y-195800057D01*
X202648628Y-195728628D01*
X202791485Y-195657200D01*
X203148628Y-195657200D01*
X203291485Y-195728628D01*
X203362914Y-195800057D01*
X203434342Y-195942914D01*
X203434342Y-196300057D01*
X203362914Y-196442914D01*
X203291485Y-196514342D01*
X203148628Y-196585771D01*
X202791485Y-196585771D01*
X202648628Y-196514342D01*
X202577200Y-196442914D01*
X204077200Y-196442914D02*
X204148628Y-196514342D01*
X204077200Y-196585771D01*
X204005771Y-196514342D01*
X204077200Y-196442914D01*
X204077200Y-196585771D01*
X205577200Y-196585771D02*
X204720057Y-196585771D01*
X205148628Y-196585771D02*
X205148628Y-195085771D01*
X205005771Y-195300057D01*
X204862914Y-195442914D01*
X204720057Y-195514342D01*
X206220057Y-196442914D02*
X206291485Y-196514342D01*
X206220057Y-196585771D01*
X206148628Y-196514342D01*
X206220057Y-196442914D01*
X206220057Y-196585771D01*
X207577200Y-195085771D02*
X207291485Y-195085771D01*
X207148628Y-195157200D01*
X207077200Y-195228628D01*
X206934342Y-195442914D01*
X206862914Y-195728628D01*
X206862914Y-196300057D01*
X206934342Y-196442914D01*
X207005771Y-196514342D01*
X207148628Y-196585771D01*
X207434342Y-196585771D01*
X207577200Y-196514342D01*
X207648628Y-196442914D01*
X207720057Y-196300057D01*
X207720057Y-195942914D01*
X207648628Y-195800057D01*
X207577200Y-195728628D01*
X207434342Y-195657200D01*
X207148628Y-195657200D01*
X207005771Y-195728628D01*
X206934342Y-195800057D01*
X206862914Y-195942914D01*
X208220057Y-197157200D02*
X208291485Y-197085771D01*
X208434342Y-196871485D01*
X208505771Y-196728628D01*
X208577200Y-196514342D01*
X208648628Y-196157200D01*
X208648628Y-195871485D01*
X208577200Y-195514342D01*
X208505771Y-195300057D01*
X208434342Y-195157200D01*
X208291485Y-194942914D01*
X208220057Y-194871485D01*
X209362914Y-196014342D02*
X210505771Y-196014342D01*
X212005771Y-196585771D02*
X211148628Y-196585771D01*
X211577200Y-196585771D02*
X211577200Y-195085771D01*
X211434342Y-195300057D01*
X211291485Y-195442914D01*
X211148628Y-195514342D01*
D10*
D11*
X177002200Y-191507200D02*
X285002200Y-191507200D01*
D10*
D12*
X264411485Y-193785771D02*
X263911485Y-193071485D01*
X263554342Y-193785771D02*
X263554342Y-192285771D01*
X264125771Y-192285771D01*
X264268628Y-192357200D01*
X264340057Y-192428628D01*
X264411485Y-192571485D01*
X264411485Y-192785771D01*
X264340057Y-192928628D01*
X264268628Y-193000057D01*
X264125771Y-193071485D01*
X263554342Y-193071485D01*
X265625771Y-193714342D02*
X265482914Y-193785771D01*
X265197200Y-193785771D01*
X265054342Y-193714342D01*
X264982914Y-193571485D01*
X264982914Y-193000057D01*
X265054342Y-192857200D01*
X265197200Y-192785771D01*
X265482914Y-192785771D01*
X265625771Y-192857200D01*
X265697200Y-193000057D01*
X265697200Y-193142914D01*
X264982914Y-193285771D01*
X266197200Y-192785771D02*
X266554342Y-193785771D01*
X266911485Y-192785771D01*
X267482914Y-193642914D02*
X267554342Y-193714342D01*
X267482914Y-193785771D01*
X267411485Y-193714342D01*
X267482914Y-193642914D01*
X267482914Y-193785771D01*
X267482914Y-192857200D02*
X267554342Y-192928628D01*
X267482914Y-193000057D01*
X267411485Y-192928628D01*
X267482914Y-192857200D01*
X267482914Y-193000057D01*
D10*
D11*
X178362914Y-193714342D02*
X178577200Y-193785771D01*
X178934342Y-193785771D01*
X179077200Y-193714342D01*
X179148628Y-193642914D01*
X179220057Y-193500057D01*
X179220057Y-193357200D01*
X179148628Y-193214342D01*
X179077200Y-193142914D01*
X178934342Y-193071485D01*
X178648628Y-193000057D01*
X178505771Y-192928628D01*
X178434342Y-192857200D01*
X178362914Y-192714342D01*
X178362914Y-192571485D01*
X178434342Y-192428628D01*
X178505771Y-192357200D01*
X178648628Y-192285771D01*
X179005771Y-192285771D01*
X179220057Y-192357200D01*
X179862914Y-193785771D02*
X179862914Y-192785771D01*
X179862914Y-192285771D02*
X179791485Y-192357200D01*
X179862914Y-192428628D01*
X179934342Y-192357200D01*
X179862914Y-192285771D01*
X179862914Y-192428628D01*
X180434342Y-192785771D02*
X181220057Y-192785771D01*
X180434342Y-193785771D01*
X181220057Y-193785771D01*
X182362914Y-193714342D02*
X182220057Y-193785771D01*
X181934342Y-193785771D01*
X181791485Y-193714342D01*
X181720057Y-193571485D01*
X181720057Y-193000057D01*
X181791485Y-192857200D01*
X181934342Y-192785771D01*
X182220057Y-192785771D01*
X182362914Y-192857200D01*
X182434342Y-193000057D01*
X182434342Y-193142914D01*
X181720057Y-193285771D01*
X183077200Y-193642914D02*
X183148628Y-193714342D01*
X183077200Y-193785771D01*
X183005771Y-193714342D01*
X183077200Y-193642914D01*
X183077200Y-193785771D01*
X183077200Y-192857200D02*
X183148628Y-192928628D01*
X183077200Y-193000057D01*
X183005771Y-192928628D01*
X183077200Y-192857200D01*
X183077200Y-193000057D01*
X184862914Y-193357200D02*
X185577200Y-193357200D01*
X184720057Y-193785771D02*
X185220057Y-192285771D01*
X185720057Y-193785771D01*
X186862914Y-192785771D02*
X186862914Y-193785771D01*
X186505771Y-192214342D02*
X186148628Y-193285771D01*
X187077200Y-193285771D01*
D10*
D11*
X263434342Y-196585771D02*
X263434342Y-195085771D01*
X264791485Y-196585771D02*
X264791485Y-195085771D01*
X264791485Y-196514342D02*
X264648628Y-196585771D01*
X264362914Y-196585771D01*
X264220057Y-196514342D01*
X264148628Y-196442914D01*
X264077200Y-196300057D01*
X264077200Y-195871485D01*
X264148628Y-195728628D01*
X264220057Y-195657200D01*
X264362914Y-195585771D01*
X264648628Y-195585771D01*
X264791485Y-195657200D01*
X265505771Y-196442914D02*
X265577200Y-196514342D01*
X265505771Y-196585771D01*
X265434342Y-196514342D01*
X265505771Y-196442914D01*
X265505771Y-196585771D01*
X265505771Y-195657200D02*
X265577200Y-195728628D01*
X265505771Y-195800057D01*
X265434342Y-195728628D01*
X265505771Y-195657200D01*
X265505771Y-195800057D01*
X268148628Y-196585771D02*
X267291485Y-196585771D01*
X267720057Y-196585771D02*
X267720057Y-195085771D01*
X267577200Y-195300057D01*
X267434342Y-195442914D01*
X267291485Y-195514342D01*
X269862914Y-195014342D02*
X268577200Y-196942914D01*
X271148628Y-196585771D02*
X270291485Y-196585771D01*
X270720057Y-196585771D02*
X270720057Y-195085771D01*
X270577200Y-195300057D01*
X270434342Y-195442914D01*
X270291485Y-195514342D01*
D10*
D11*
X177002200Y-187507200D02*
X285002200Y-187507200D01*
D10*
D13*
X178714580Y-188211961D02*
X179857438Y-188211961D01*
X179036009Y-190211961D02*
X179286009Y-188211961D01*
X180274104Y-190211961D02*
X180440771Y-188878628D01*
X180524104Y-188211961D02*
X180416961Y-188307200D01*
X180500295Y-188402438D01*
X180607438Y-188307200D01*
X180524104Y-188211961D01*
X180500295Y-188402438D01*
X181107438Y-188878628D02*
X181869342Y-188878628D01*
X181476485Y-188211961D02*
X181262200Y-189926247D01*
X181333628Y-190116723D01*
X181512200Y-190211961D01*
X181702676Y-190211961D01*
X182655057Y-190211961D02*
X182476485Y-190116723D01*
X182405057Y-189926247D01*
X182619342Y-188211961D01*
X184190771Y-190116723D02*
X183988390Y-190211961D01*
X183607438Y-190211961D01*
X183428866Y-190116723D01*
X183357438Y-189926247D01*
X183452676Y-189164342D01*
X183571723Y-188973866D01*
X183774104Y-188878628D01*
X184155057Y-188878628D01*
X184333628Y-188973866D01*
X184405057Y-189164342D01*
X184381247Y-189354819D01*
X183405057Y-189545295D01*
X185155057Y-190021485D02*
X185238390Y-190116723D01*
X185131247Y-190211961D01*
X185047914Y-190116723D01*
X185155057Y-190021485D01*
X185131247Y-190211961D01*
X185286009Y-188973866D02*
X185369342Y-189069104D01*
X185262200Y-189164342D01*
X185178866Y-189069104D01*
X185286009Y-188973866D01*
X185262200Y-189164342D01*
D10*
D11*
X178934342Y-185600057D02*
X178434342Y-185600057D01*
X178434342Y-186385771D02*
X178434342Y-184885771D01*
X179148628Y-184885771D01*
X179720057Y-186385771D02*
X179720057Y-185385771D01*
X179720057Y-184885771D02*
X179648628Y-184957200D01*
X179720057Y-185028628D01*
X179791485Y-184957200D01*
X179720057Y-184885771D01*
X179720057Y-185028628D01*
X180648628Y-186385771D02*
X180505771Y-186314342D01*
X180434342Y-186171485D01*
X180434342Y-184885771D01*
X181791485Y-186314342D02*
X181648628Y-186385771D01*
X181362914Y-186385771D01*
X181220057Y-186314342D01*
X181148628Y-186171485D01*
X181148628Y-185600057D01*
X181220057Y-185457200D01*
X181362914Y-185385771D01*
X181648628Y-185385771D01*
X181791485Y-185457200D01*
X181862914Y-185600057D01*
X181862914Y-185742914D01*
X181148628Y-185885771D01*
X182505771Y-186242914D02*
X182577200Y-186314342D01*
X182505771Y-186385771D01*
X182434342Y-186314342D01*
X182505771Y-186242914D01*
X182505771Y-186385771D01*
X182505771Y-185457200D02*
X182577200Y-185528628D01*
X182505771Y-185600057D01*
X182434342Y-185528628D01*
X182505771Y-185457200D01*
X182505771Y-185600057D01*
X184362914Y-186385771D02*
X184362914Y-184885771D01*
X184720057Y-184885771D01*
X184934342Y-184957200D01*
X185077200Y-185100057D01*
X185148628Y-185242914D01*
X185220057Y-185528628D01*
X185220057Y-185742914D01*
X185148628Y-186028628D01*
X185077200Y-186171485D01*
X184934342Y-186314342D01*
X184720057Y-186385771D01*
X184362914Y-186385771D01*
X185862914Y-186385771D02*
X185862914Y-184885771D01*
X186220057Y-184885771D01*
X186434342Y-184957200D01*
X186577200Y-185100057D01*
X186648628Y-185242914D01*
X186720057Y-185528628D01*
X186720057Y-185742914D01*
X186648628Y-186028628D01*
X186577200Y-186171485D01*
X186434342Y-186314342D01*
X186220057Y-186385771D01*
X185862914Y-186385771D01*
X187291485Y-186314342D02*
X187505771Y-186385771D01*
X187862914Y-186385771D01*
X188005771Y-186314342D01*
X188077200Y-186242914D01*
X188148628Y-186100057D01*
X188148628Y-185957200D01*
X188077200Y-185814342D01*
X188005771Y-185742914D01*
X187862914Y-185671485D01*
X187577200Y-185600057D01*
X187434342Y-185528628D01*
X187362914Y-185457200D01*
X187291485Y-185314342D01*
X187291485Y-185171485D01*
X187362914Y-185028628D01*
X187434342Y-184957200D01*
X187577200Y-184885771D01*
X187934342Y-184885771D01*
X188148628Y-184957200D01*
X188791485Y-186242914D02*
X188862914Y-186314342D01*
X188791485Y-186385771D01*
X188720057Y-186314342D01*
X188791485Y-186242914D01*
X188791485Y-186385771D01*
X189505771Y-186385771D02*
X189505771Y-184885771D01*
X189648628Y-185814342D02*
X190077200Y-186385771D01*
X190077200Y-185385771D02*
X189505771Y-185957200D01*
X190720057Y-186385771D02*
X190720057Y-185385771D01*
X190720057Y-184885771D02*
X190648628Y-184957200D01*
X190720057Y-185028628D01*
X190791485Y-184957200D01*
X190720057Y-184885771D01*
X190720057Y-185028628D01*
X192077200Y-186314342D02*
X191934342Y-186385771D01*
X191648628Y-186385771D01*
X191505771Y-186314342D01*
X191434342Y-186242914D01*
X191362914Y-186100057D01*
X191362914Y-185671485D01*
X191434342Y-185528628D01*
X191505771Y-185457200D01*
X191648628Y-185385771D01*
X191934342Y-185385771D01*
X192077200Y-185457200D01*
X193362914Y-186385771D02*
X193362914Y-185600057D01*
X193291485Y-185457200D01*
X193148628Y-185385771D01*
X192862914Y-185385771D01*
X192720057Y-185457200D01*
X193362914Y-186314342D02*
X193220057Y-186385771D01*
X192862914Y-186385771D01*
X192720057Y-186314342D01*
X192648628Y-186171485D01*
X192648628Y-186028628D01*
X192720057Y-185885771D01*
X192862914Y-185814342D01*
X193220057Y-185814342D01*
X193362914Y-185742914D01*
X194720057Y-186385771D02*
X194720057Y-184885771D01*
X194720057Y-186314342D02*
X194577200Y-186385771D01*
X194291485Y-186385771D01*
X194148628Y-186314342D01*
X194077200Y-186242914D01*
X194005771Y-186100057D01*
X194005771Y-185671485D01*
X194077200Y-185528628D01*
X194148628Y-185457200D01*
X194291485Y-185385771D01*
X194577200Y-185385771D01*
X194720057Y-185457200D01*
X195077200Y-186528628D02*
X196220057Y-186528628D01*
X196577200Y-185385771D02*
X196577200Y-186885771D01*
X196577200Y-185457200D02*
X196720057Y-185385771D01*
X197005771Y-185385771D01*
X197148628Y-185457200D01*
X197220057Y-185528628D01*
X197291485Y-185671485D01*
X197291485Y-186100057D01*
X197220057Y-186242914D01*
X197148628Y-186314342D01*
X197005771Y-186385771D01*
X196720057Y-186385771D01*
X196577200Y-186314342D01*
X198577200Y-186314342D02*
X198434342Y-186385771D01*
X198148628Y-186385771D01*
X198005771Y-186314342D01*
X197934342Y-186242914D01*
X197862914Y-186100057D01*
X197862914Y-185671485D01*
X197934342Y-185528628D01*
X198005771Y-185457200D01*
X198148628Y-185385771D01*
X198434342Y-185385771D01*
X198577200Y-185457200D01*
X199220057Y-186385771D02*
X199220057Y-184885771D01*
X199220057Y-185457200D02*
X199362914Y-185385771D01*
X199648628Y-185385771D01*
X199791485Y-185457200D01*
X199862914Y-185528628D01*
X199934342Y-185671485D01*
X199934342Y-186100057D01*
X199862914Y-186242914D01*
X199791485Y-186314342D01*
X199648628Y-186385771D01*
X199362914Y-186385771D01*
X199220057Y-186314342D01*
D10*
D11*
X177002200Y-181507200D02*
X285002200Y-181507200D01*
D10*
D11*
X178362914Y-183614342D02*
X178577200Y-183685771D01*
X178934342Y-183685771D01*
X179077200Y-183614342D01*
X179148628Y-183542914D01*
X179220057Y-183400057D01*
X179220057Y-183257200D01*
X179148628Y-183114342D01*
X179077200Y-183042914D01*
X178934342Y-182971485D01*
X178648628Y-182900057D01*
X178505771Y-182828628D01*
X178434342Y-182757200D01*
X178362914Y-182614342D01*
X178362914Y-182471485D01*
X178434342Y-182328628D01*
X178505771Y-182257200D01*
X178648628Y-182185771D01*
X179005771Y-182185771D01*
X179220057Y-182257200D01*
X179862914Y-183685771D02*
X179862914Y-182185771D01*
X180505771Y-183685771D02*
X180505771Y-182900057D01*
X180434342Y-182757200D01*
X180291485Y-182685771D01*
X180077200Y-182685771D01*
X179934342Y-182757200D01*
X179862914Y-182828628D01*
X181791485Y-183614342D02*
X181648628Y-183685771D01*
X181362914Y-183685771D01*
X181220057Y-183614342D01*
X181148628Y-183471485D01*
X181148628Y-182900057D01*
X181220057Y-182757200D01*
X181362914Y-182685771D01*
X181648628Y-182685771D01*
X181791485Y-182757200D01*
X181862914Y-182900057D01*
X181862914Y-183042914D01*
X181148628Y-183185771D01*
X183077200Y-183614342D02*
X182934342Y-183685771D01*
X182648628Y-183685771D01*
X182505771Y-183614342D01*
X182434342Y-183471485D01*
X182434342Y-182900057D01*
X182505771Y-182757200D01*
X182648628Y-182685771D01*
X182934342Y-182685771D01*
X183077200Y-182757200D01*
X183148628Y-182900057D01*
X183148628Y-183042914D01*
X182434342Y-183185771D01*
X183577200Y-182685771D02*
X184148628Y-182685771D01*
X183791485Y-182185771D02*
X183791485Y-183471485D01*
X183862914Y-183614342D01*
X184005771Y-183685771D01*
X184148628Y-183685771D01*
X184648628Y-183542914D02*
X184720057Y-183614342D01*
X184648628Y-183685771D01*
X184577200Y-183614342D01*
X184648628Y-183542914D01*
X184648628Y-183685771D01*
X184648628Y-182757200D02*
X184720057Y-182828628D01*
X184648628Y-182900057D01*
X184577200Y-182828628D01*
X184648628Y-182757200D01*
X184648628Y-182900057D01*
D10*
D11*
X197002200Y-191507200D02*
X197002200Y-194507200D01*
D10*
D11*
X261002200Y-191507200D02*
X261002200Y-198007200D01*
D14*
%TO.C,H4*%
X197500000Y-133500000D03*
%TD*%
%TO.C,H3*%
X197500000Y-65000000D03*
%TD*%
%TO.C,H2*%
X138500000Y-133500000D03*
%TD*%
%TO.C,H1*%
X138500000Y-65000000D03*
%TD*%
D15*
%TO.C,TP35*%
X168500000Y-72500000D03*
%TD*%
D16*
%TO.C,J1*%
X163750000Y-119840000D03*
X163750000Y-122380000D03*
X163750000Y-124920000D03*
X163750000Y-127460000D03*
D17*
X163750000Y-130000000D03*
%TD*%
D15*
%TO.C,TP5*%
X145000000Y-111750000D03*
%TD*%
D18*
%TO.C,J2*%
X152600000Y-130850000D03*
X148200000Y-130850000D03*
%TD*%
D15*
%TO.C,TP9*%
X191250000Y-72750000D03*
%TD*%
%TO.C,TP1*%
X142500000Y-116000000D03*
%TD*%
%TO.C,TP45*%
X191250000Y-70400000D03*
%TD*%
%TO.C,TP44*%
X182600000Y-84900000D03*
%TD*%
%TO.C,C38*%
G36*
G01*
X188781250Y-74987500D02*
X188218750Y-74987500D01*
G75*
G02*
X187975000Y-74743750I0J243750D01*
G01*
X187975000Y-74256250D01*
G75*
G02*
X188218750Y-74012500I243750J0D01*
G01*
X188781250Y-74012500D01*
G75*
G02*
X189025000Y-74256250I0J-243750D01*
G01*
X189025000Y-74743750D01*
G75*
G02*
X188781250Y-74987500I-243750J0D01*
G01*
G37*
G36*
G01*
X188781250Y-76562500D02*
X188218750Y-76562500D01*
G75*
G02*
X187975000Y-76318750I0J243750D01*
G01*
X187975000Y-75831250D01*
G75*
G02*
X188218750Y-75587500I243750J0D01*
G01*
X188781250Y-75587500D01*
G75*
G02*
X189025000Y-75831250I0J-243750D01*
G01*
X189025000Y-76318750D01*
G75*
G02*
X188781250Y-76562500I-243750J0D01*
G01*
G37*
%TD*%
%TO.C,R2*%
G36*
G01*
X142781250Y-112950000D02*
X142218750Y-112950000D01*
G75*
G02*
X141975000Y-112706250I0J243750D01*
G01*
X141975000Y-112218750D01*
G75*
G02*
X142218750Y-111975000I243750J0D01*
G01*
X142781250Y-111975000D01*
G75*
G02*
X143025000Y-112218750I0J-243750D01*
G01*
X143025000Y-112706250D01*
G75*
G02*
X142781250Y-112950000I-243750J0D01*
G01*
G37*
G36*
G01*
X142781250Y-114525000D02*
X142218750Y-114525000D01*
G75*
G02*
X141975000Y-114281250I0J243750D01*
G01*
X141975000Y-113793750D01*
G75*
G02*
X142218750Y-113550000I243750J0D01*
G01*
X142781250Y-113550000D01*
G75*
G02*
X143025000Y-113793750I0J-243750D01*
G01*
X143025000Y-114281250D01*
G75*
G02*
X142781250Y-114525000I-243750J0D01*
G01*
G37*
%TD*%
D16*
%TO.C,J7*%
X169430000Y-134800000D03*
X171970000Y-134800000D03*
X174510000Y-134800000D03*
X177050000Y-134800000D03*
X179590000Y-134800000D03*
X182130000Y-134800000D03*
X184670000Y-134800000D03*
X187210000Y-134800000D03*
D17*
X189750000Y-134800000D03*
%TD*%
%TO.C,R21*%
G36*
G01*
X146762500Y-116481250D02*
X146762500Y-115918750D01*
G75*
G02*
X147006250Y-115675000I243750J0D01*
G01*
X147493750Y-115675000D01*
G75*
G02*
X147737500Y-115918750I0J-243750D01*
G01*
X147737500Y-116481250D01*
G75*
G02*
X147493750Y-116725000I-243750J0D01*
G01*
X147006250Y-116725000D01*
G75*
G02*
X146762500Y-116481250I0J243750D01*
G01*
G37*
G36*
G01*
X145187500Y-116481250D02*
X145187500Y-115918750D01*
G75*
G02*
X145431250Y-115675000I243750J0D01*
G01*
X145918750Y-115675000D01*
G75*
G02*
X146162500Y-115918750I0J-243750D01*
G01*
X146162500Y-116481250D01*
G75*
G02*
X145918750Y-116725000I-243750J0D01*
G01*
X145431250Y-116725000D01*
G75*
G02*
X145187500Y-116481250I0J243750D01*
G01*
G37*
%TD*%
D19*
%TO.C,J6*%
X141175000Y-45400000D03*
X146825000Y-45400000D03*
%TD*%
%TO.C,J5*%
X189175000Y-45400000D03*
X194825000Y-45400000D03*
%TD*%
%TO.C,J4*%
X165175000Y-45400000D03*
X170825000Y-45400000D03*
%TD*%
D15*
%TO.C,TP36*%
X189000000Y-72600000D03*
%TD*%
%TO.C,TP2*%
X184100000Y-72400000D03*
%TD*%
%TO.C,RBIAS1*%
G36*
G01*
X178200000Y-70781250D02*
X178200000Y-70218750D01*
G75*
G02*
X178443750Y-69975000I243750J0D01*
G01*
X178931250Y-69975000D01*
G75*
G02*
X179175000Y-70218750I0J-243750D01*
G01*
X179175000Y-70781250D01*
G75*
G02*
X178931250Y-71025000I-243750J0D01*
G01*
X178443750Y-71025000D01*
G75*
G02*
X178200000Y-70781250I0J243750D01*
G01*
G37*
G36*
G01*
X176625000Y-70781250D02*
X176625000Y-70218750D01*
G75*
G02*
X176868750Y-69975000I243750J0D01*
G01*
X177356250Y-69975000D01*
G75*
G02*
X177600000Y-70218750I0J-243750D01*
G01*
X177600000Y-70781250D01*
G75*
G02*
X177356250Y-71025000I-243750J0D01*
G01*
X176868750Y-71025000D01*
G75*
G02*
X176625000Y-70781250I0J243750D01*
G01*
G37*
%TD*%
%TO.C,R20*%
G36*
G01*
X178218750Y-91512500D02*
X178781250Y-91512500D01*
G75*
G02*
X179025000Y-91756250I0J-243750D01*
G01*
X179025000Y-92243750D01*
G75*
G02*
X178781250Y-92487500I-243750J0D01*
G01*
X178218750Y-92487500D01*
G75*
G02*
X177975000Y-92243750I0J243750D01*
G01*
X177975000Y-91756250D01*
G75*
G02*
X178218750Y-91512500I243750J0D01*
G01*
G37*
G36*
G01*
X178218750Y-89937500D02*
X178781250Y-89937500D01*
G75*
G02*
X179025000Y-90181250I0J-243750D01*
G01*
X179025000Y-90668750D01*
G75*
G02*
X178781250Y-90912500I-243750J0D01*
G01*
X178218750Y-90912500D01*
G75*
G02*
X177975000Y-90668750I0J243750D01*
G01*
X177975000Y-90181250D01*
G75*
G02*
X178218750Y-89937500I243750J0D01*
G01*
G37*
%TD*%
%TO.C,R19*%
G36*
G01*
X184212500Y-70781250D02*
X184212500Y-70218750D01*
G75*
G02*
X184456250Y-69975000I243750J0D01*
G01*
X184943750Y-69975000D01*
G75*
G02*
X185187500Y-70218750I0J-243750D01*
G01*
X185187500Y-70781250D01*
G75*
G02*
X184943750Y-71025000I-243750J0D01*
G01*
X184456250Y-71025000D01*
G75*
G02*
X184212500Y-70781250I0J243750D01*
G01*
G37*
G36*
G01*
X182637500Y-70781250D02*
X182637500Y-70218750D01*
G75*
G02*
X182881250Y-69975000I243750J0D01*
G01*
X183368750Y-69975000D01*
G75*
G02*
X183612500Y-70218750I0J-243750D01*
G01*
X183612500Y-70781250D01*
G75*
G02*
X183368750Y-71025000I-243750J0D01*
G01*
X182881250Y-71025000D01*
G75*
G02*
X182637500Y-70781250I0J243750D01*
G01*
G37*
%TD*%
%TO.C,R18*%
G36*
G01*
X176718750Y-91512500D02*
X177281250Y-91512500D01*
G75*
G02*
X177525000Y-91756250I0J-243750D01*
G01*
X177525000Y-92243750D01*
G75*
G02*
X177281250Y-92487500I-243750J0D01*
G01*
X176718750Y-92487500D01*
G75*
G02*
X176475000Y-92243750I0J243750D01*
G01*
X176475000Y-91756250D01*
G75*
G02*
X176718750Y-91512500I243750J0D01*
G01*
G37*
G36*
G01*
X176718750Y-89937500D02*
X177281250Y-89937500D01*
G75*
G02*
X177525000Y-90181250I0J-243750D01*
G01*
X177525000Y-90668750D01*
G75*
G02*
X177281250Y-90912500I-243750J0D01*
G01*
X176718750Y-90912500D01*
G75*
G02*
X176475000Y-90668750I0J243750D01*
G01*
X176475000Y-90181250D01*
G75*
G02*
X176718750Y-89937500I243750J0D01*
G01*
G37*
%TD*%
%TO.C,R15*%
G36*
G01*
X175218750Y-91512500D02*
X175781250Y-91512500D01*
G75*
G02*
X176025000Y-91756250I0J-243750D01*
G01*
X176025000Y-92243750D01*
G75*
G02*
X175781250Y-92487500I-243750J0D01*
G01*
X175218750Y-92487500D01*
G75*
G02*
X174975000Y-92243750I0J243750D01*
G01*
X174975000Y-91756250D01*
G75*
G02*
X175218750Y-91512500I243750J0D01*
G01*
G37*
G36*
G01*
X175218750Y-89937500D02*
X175781250Y-89937500D01*
G75*
G02*
X176025000Y-90181250I0J-243750D01*
G01*
X176025000Y-90668750D01*
G75*
G02*
X175781250Y-90912500I-243750J0D01*
G01*
X175218750Y-90912500D01*
G75*
G02*
X174975000Y-90668750I0J243750D01*
G01*
X174975000Y-90181250D01*
G75*
G02*
X175218750Y-89937500I243750J0D01*
G01*
G37*
%TD*%
%TO.C,R13*%
G36*
G01*
X182718750Y-78912500D02*
X183281250Y-78912500D01*
G75*
G02*
X183525000Y-79156250I0J-243750D01*
G01*
X183525000Y-79643750D01*
G75*
G02*
X183281250Y-79887500I-243750J0D01*
G01*
X182718750Y-79887500D01*
G75*
G02*
X182475000Y-79643750I0J243750D01*
G01*
X182475000Y-79156250D01*
G75*
G02*
X182718750Y-78912500I243750J0D01*
G01*
G37*
G36*
G01*
X182718750Y-77337500D02*
X183281250Y-77337500D01*
G75*
G02*
X183525000Y-77581250I0J-243750D01*
G01*
X183525000Y-78068750D01*
G75*
G02*
X183281250Y-78312500I-243750J0D01*
G01*
X182718750Y-78312500D01*
G75*
G02*
X182475000Y-78068750I0J243750D01*
G01*
X182475000Y-77581250D01*
G75*
G02*
X182718750Y-77337500I243750J0D01*
G01*
G37*
%TD*%
%TO.C,R12*%
G36*
G01*
X173718750Y-91512500D02*
X174281250Y-91512500D01*
G75*
G02*
X174525000Y-91756250I0J-243750D01*
G01*
X174525000Y-92243750D01*
G75*
G02*
X174281250Y-92487500I-243750J0D01*
G01*
X173718750Y-92487500D01*
G75*
G02*
X173475000Y-92243750I0J243750D01*
G01*
X173475000Y-91756250D01*
G75*
G02*
X173718750Y-91512500I243750J0D01*
G01*
G37*
G36*
G01*
X173718750Y-89937500D02*
X174281250Y-89937500D01*
G75*
G02*
X174525000Y-90181250I0J-243750D01*
G01*
X174525000Y-90668750D01*
G75*
G02*
X174281250Y-90912500I-243750J0D01*
G01*
X173718750Y-90912500D01*
G75*
G02*
X173475000Y-90668750I0J243750D01*
G01*
X173475000Y-90181250D01*
G75*
G02*
X173718750Y-89937500I243750J0D01*
G01*
G37*
%TD*%
D20*
%TO.C,J3*%
X141500000Y-97200000D03*
X137500000Y-97200000D03*
%TD*%
%TO.C,C49*%
G36*
G01*
X180587500Y-70218750D02*
X180587500Y-70781250D01*
G75*
G02*
X180343750Y-71025000I-243750J0D01*
G01*
X179856250Y-71025000D01*
G75*
G02*
X179612500Y-70781250I0J243750D01*
G01*
X179612500Y-70218750D01*
G75*
G02*
X179856250Y-69975000I243750J0D01*
G01*
X180343750Y-69975000D01*
G75*
G02*
X180587500Y-70218750I0J-243750D01*
G01*
G37*
G36*
G01*
X182162500Y-70218750D02*
X182162500Y-70781250D01*
G75*
G02*
X181918750Y-71025000I-243750J0D01*
G01*
X181431250Y-71025000D01*
G75*
G02*
X181187500Y-70781250I0J243750D01*
G01*
X181187500Y-70218750D01*
G75*
G02*
X181431250Y-69975000I243750J0D01*
G01*
X181918750Y-69975000D01*
G75*
G02*
X182162500Y-70218750I0J-243750D01*
G01*
G37*
%TD*%
%TO.C,C48*%
G36*
G01*
X178012500Y-79781250D02*
X178012500Y-79218750D01*
G75*
G02*
X178256250Y-78975000I243750J0D01*
G01*
X178743750Y-78975000D01*
G75*
G02*
X178987500Y-79218750I0J-243750D01*
G01*
X178987500Y-79781250D01*
G75*
G02*
X178743750Y-80025000I-243750J0D01*
G01*
X178256250Y-80025000D01*
G75*
G02*
X178012500Y-79781250I0J243750D01*
G01*
G37*
G36*
G01*
X176437500Y-79781250D02*
X176437500Y-79218750D01*
G75*
G02*
X176681250Y-78975000I243750J0D01*
G01*
X177168750Y-78975000D01*
G75*
G02*
X177412500Y-79218750I0J-243750D01*
G01*
X177412500Y-79781250D01*
G75*
G02*
X177168750Y-80025000I-243750J0D01*
G01*
X176681250Y-80025000D01*
G75*
G02*
X176437500Y-79781250I0J243750D01*
G01*
G37*
%TD*%
%TO.C,C47*%
G36*
G01*
X182718750Y-75912500D02*
X183281250Y-75912500D01*
G75*
G02*
X183525000Y-76156250I0J-243750D01*
G01*
X183525000Y-76643750D01*
G75*
G02*
X183281250Y-76887500I-243750J0D01*
G01*
X182718750Y-76887500D01*
G75*
G02*
X182475000Y-76643750I0J243750D01*
G01*
X182475000Y-76156250D01*
G75*
G02*
X182718750Y-75912500I243750J0D01*
G01*
G37*
G36*
G01*
X182718750Y-74337500D02*
X183281250Y-74337500D01*
G75*
G02*
X183525000Y-74581250I0J-243750D01*
G01*
X183525000Y-75068750D01*
G75*
G02*
X183281250Y-75312500I-243750J0D01*
G01*
X182718750Y-75312500D01*
G75*
G02*
X182475000Y-75068750I0J243750D01*
G01*
X182475000Y-74581250D01*
G75*
G02*
X182718750Y-74337500I243750J0D01*
G01*
G37*
%TD*%
%TO.C,C46*%
G36*
G01*
X181000000Y-79681250D02*
X181000000Y-79118750D01*
G75*
G02*
X181243750Y-78875000I243750J0D01*
G01*
X181731250Y-78875000D01*
G75*
G02*
X181975000Y-79118750I0J-243750D01*
G01*
X181975000Y-79681250D01*
G75*
G02*
X181731250Y-79925000I-243750J0D01*
G01*
X181243750Y-79925000D01*
G75*
G02*
X181000000Y-79681250I0J243750D01*
G01*
G37*
G36*
G01*
X179425000Y-79681250D02*
X179425000Y-79118750D01*
G75*
G02*
X179668750Y-78875000I243750J0D01*
G01*
X180156250Y-78875000D01*
G75*
G02*
X180400000Y-79118750I0J-243750D01*
G01*
X180400000Y-79681250D01*
G75*
G02*
X180156250Y-79925000I-243750J0D01*
G01*
X179668750Y-79925000D01*
G75*
G02*
X179425000Y-79681250I0J243750D01*
G01*
G37*
%TD*%
%TO.C,C45*%
G36*
G01*
X183412500Y-89718750D02*
X183412500Y-90281250D01*
G75*
G02*
X183168750Y-90525000I-243750J0D01*
G01*
X182681250Y-90525000D01*
G75*
G02*
X182437500Y-90281250I0J243750D01*
G01*
X182437500Y-89718750D01*
G75*
G02*
X182681250Y-89475000I243750J0D01*
G01*
X183168750Y-89475000D01*
G75*
G02*
X183412500Y-89718750I0J-243750D01*
G01*
G37*
G36*
G01*
X184987500Y-89718750D02*
X184987500Y-90281250D01*
G75*
G02*
X184743750Y-90525000I-243750J0D01*
G01*
X184256250Y-90525000D01*
G75*
G02*
X184012500Y-90281250I0J243750D01*
G01*
X184012500Y-89718750D01*
G75*
G02*
X184256250Y-89475000I243750J0D01*
G01*
X184743750Y-89475000D01*
G75*
G02*
X184987500Y-89718750I0J-243750D01*
G01*
G37*
%TD*%
%TO.C,C44*%
G36*
G01*
X181912500Y-126968750D02*
X181912500Y-127531250D01*
G75*
G02*
X181668750Y-127775000I-243750J0D01*
G01*
X181181250Y-127775000D01*
G75*
G02*
X180937500Y-127531250I0J243750D01*
G01*
X180937500Y-126968750D01*
G75*
G02*
X181181250Y-126725000I243750J0D01*
G01*
X181668750Y-126725000D01*
G75*
G02*
X181912500Y-126968750I0J-243750D01*
G01*
G37*
G36*
G01*
X183487500Y-126968750D02*
X183487500Y-127531250D01*
G75*
G02*
X183243750Y-127775000I-243750J0D01*
G01*
X182756250Y-127775000D01*
G75*
G02*
X182512500Y-127531250I0J243750D01*
G01*
X182512500Y-126968750D01*
G75*
G02*
X182756250Y-126725000I243750J0D01*
G01*
X183243750Y-126725000D01*
G75*
G02*
X183487500Y-126968750I0J-243750D01*
G01*
G37*
%TD*%
%TO.C,C43*%
G36*
G01*
X175762500Y-128281250D02*
X175762500Y-127718750D01*
G75*
G02*
X176006250Y-127475000I243750J0D01*
G01*
X176493750Y-127475000D01*
G75*
G02*
X176737500Y-127718750I0J-243750D01*
G01*
X176737500Y-128281250D01*
G75*
G02*
X176493750Y-128525000I-243750J0D01*
G01*
X176006250Y-128525000D01*
G75*
G02*
X175762500Y-128281250I0J243750D01*
G01*
G37*
G36*
G01*
X174187500Y-128281250D02*
X174187500Y-127718750D01*
G75*
G02*
X174431250Y-127475000I243750J0D01*
G01*
X174918750Y-127475000D01*
G75*
G02*
X175162500Y-127718750I0J-243750D01*
G01*
X175162500Y-128281250D01*
G75*
G02*
X174918750Y-128525000I-243750J0D01*
G01*
X174431250Y-128525000D01*
G75*
G02*
X174187500Y-128281250I0J243750D01*
G01*
G37*
%TD*%
%TO.C,C42*%
G36*
G01*
X173531250Y-118737500D02*
X172968750Y-118737500D01*
G75*
G02*
X172725000Y-118493750I0J243750D01*
G01*
X172725000Y-118006250D01*
G75*
G02*
X172968750Y-117762500I243750J0D01*
G01*
X173531250Y-117762500D01*
G75*
G02*
X173775000Y-118006250I0J-243750D01*
G01*
X173775000Y-118493750D01*
G75*
G02*
X173531250Y-118737500I-243750J0D01*
G01*
G37*
G36*
G01*
X173531250Y-120312500D02*
X172968750Y-120312500D01*
G75*
G02*
X172725000Y-120068750I0J243750D01*
G01*
X172725000Y-119581250D01*
G75*
G02*
X172968750Y-119337500I243750J0D01*
G01*
X173531250Y-119337500D01*
G75*
G02*
X173775000Y-119581250I0J-243750D01*
G01*
X173775000Y-120068750D01*
G75*
G02*
X173531250Y-120312500I-243750J0D01*
G01*
G37*
%TD*%
%TO.C,C41*%
G36*
G01*
X184781250Y-75237500D02*
X184218750Y-75237500D01*
G75*
G02*
X183975000Y-74993750I0J243750D01*
G01*
X183975000Y-74506250D01*
G75*
G02*
X184218750Y-74262500I243750J0D01*
G01*
X184781250Y-74262500D01*
G75*
G02*
X185025000Y-74506250I0J-243750D01*
G01*
X185025000Y-74993750D01*
G75*
G02*
X184781250Y-75237500I-243750J0D01*
G01*
G37*
G36*
G01*
X184781250Y-76812500D02*
X184218750Y-76812500D01*
G75*
G02*
X183975000Y-76568750I0J243750D01*
G01*
X183975000Y-76081250D01*
G75*
G02*
X184218750Y-75837500I243750J0D01*
G01*
X184781250Y-75837500D01*
G75*
G02*
X185025000Y-76081250I0J-243750D01*
G01*
X185025000Y-76568750D01*
G75*
G02*
X184781250Y-76812500I-243750J0D01*
G01*
G37*
%TD*%
%TO.C,C40*%
G36*
G01*
X176262500Y-115281250D02*
X176262500Y-114718750D01*
G75*
G02*
X176506250Y-114475000I243750J0D01*
G01*
X176993750Y-114475000D01*
G75*
G02*
X177237500Y-114718750I0J-243750D01*
G01*
X177237500Y-115281250D01*
G75*
G02*
X176993750Y-115525000I-243750J0D01*
G01*
X176506250Y-115525000D01*
G75*
G02*
X176262500Y-115281250I0J243750D01*
G01*
G37*
G36*
G01*
X174687500Y-115281250D02*
X174687500Y-114718750D01*
G75*
G02*
X174931250Y-114475000I243750J0D01*
G01*
X175418750Y-114475000D01*
G75*
G02*
X175662500Y-114718750I0J-243750D01*
G01*
X175662500Y-115281250D01*
G75*
G02*
X175418750Y-115525000I-243750J0D01*
G01*
X174931250Y-115525000D01*
G75*
G02*
X174687500Y-115281250I0J243750D01*
G01*
G37*
%TD*%
%TO.C,C37*%
G36*
G01*
X182587500Y-115418750D02*
X182587500Y-115981250D01*
G75*
G02*
X182343750Y-116225000I-243750J0D01*
G01*
X181856250Y-116225000D01*
G75*
G02*
X181612500Y-115981250I0J243750D01*
G01*
X181612500Y-115418750D01*
G75*
G02*
X181856250Y-115175000I243750J0D01*
G01*
X182343750Y-115175000D01*
G75*
G02*
X182587500Y-115418750I0J-243750D01*
G01*
G37*
G36*
G01*
X184162500Y-115418750D02*
X184162500Y-115981250D01*
G75*
G02*
X183918750Y-116225000I-243750J0D01*
G01*
X183431250Y-116225000D01*
G75*
G02*
X183187500Y-115981250I0J243750D01*
G01*
X183187500Y-115418750D01*
G75*
G02*
X183431250Y-115175000I243750J0D01*
G01*
X183918750Y-115175000D01*
G75*
G02*
X184162500Y-115418750I0J-243750D01*
G01*
G37*
%TD*%
%TO.C,C36*%
G36*
G01*
X172718750Y-72012500D02*
X173281250Y-72012500D01*
G75*
G02*
X173525000Y-72256250I0J-243750D01*
G01*
X173525000Y-72743750D01*
G75*
G02*
X173281250Y-72987500I-243750J0D01*
G01*
X172718750Y-72987500D01*
G75*
G02*
X172475000Y-72743750I0J243750D01*
G01*
X172475000Y-72256250D01*
G75*
G02*
X172718750Y-72012500I243750J0D01*
G01*
G37*
G36*
G01*
X172718750Y-70437500D02*
X173281250Y-70437500D01*
G75*
G02*
X173525000Y-70681250I0J-243750D01*
G01*
X173525000Y-71168750D01*
G75*
G02*
X173281250Y-71412500I-243750J0D01*
G01*
X172718750Y-71412500D01*
G75*
G02*
X172475000Y-71168750I0J243750D01*
G01*
X172475000Y-70681250D01*
G75*
G02*
X172718750Y-70437500I243750J0D01*
G01*
G37*
%TD*%
%TO.C,C34*%
G36*
G01*
X173531250Y-121737500D02*
X172968750Y-121737500D01*
G75*
G02*
X172725000Y-121493750I0J243750D01*
G01*
X172725000Y-121006250D01*
G75*
G02*
X172968750Y-120762500I243750J0D01*
G01*
X173531250Y-120762500D01*
G75*
G02*
X173775000Y-121006250I0J-243750D01*
G01*
X173775000Y-121493750D01*
G75*
G02*
X173531250Y-121737500I-243750J0D01*
G01*
G37*
G36*
G01*
X173531250Y-123312500D02*
X172968750Y-123312500D01*
G75*
G02*
X172725000Y-123068750I0J243750D01*
G01*
X172725000Y-122581250D01*
G75*
G02*
X172968750Y-122337500I243750J0D01*
G01*
X173531250Y-122337500D01*
G75*
G02*
X173775000Y-122581250I0J-243750D01*
G01*
X173775000Y-123068750D01*
G75*
G02*
X173531250Y-123312500I-243750J0D01*
G01*
G37*
%TD*%
%TO.C,C33*%
G36*
G01*
X173281250Y-74450000D02*
X172718750Y-74450000D01*
G75*
G02*
X172475000Y-74206250I0J243750D01*
G01*
X172475000Y-73718750D01*
G75*
G02*
X172718750Y-73475000I243750J0D01*
G01*
X173281250Y-73475000D01*
G75*
G02*
X173525000Y-73718750I0J-243750D01*
G01*
X173525000Y-74206250D01*
G75*
G02*
X173281250Y-74450000I-243750J0D01*
G01*
G37*
G36*
G01*
X173281250Y-76025000D02*
X172718750Y-76025000D01*
G75*
G02*
X172475000Y-75781250I0J243750D01*
G01*
X172475000Y-75293750D01*
G75*
G02*
X172718750Y-75050000I243750J0D01*
G01*
X173281250Y-75050000D01*
G75*
G02*
X173525000Y-75293750I0J-243750D01*
G01*
X173525000Y-75781250D01*
G75*
G02*
X173281250Y-76025000I-243750J0D01*
G01*
G37*
%TD*%
%TO.C,C32*%
G36*
G01*
X188781250Y-78412500D02*
X188218750Y-78412500D01*
G75*
G02*
X187975000Y-78168750I0J243750D01*
G01*
X187975000Y-77681250D01*
G75*
G02*
X188218750Y-77437500I243750J0D01*
G01*
X188781250Y-77437500D01*
G75*
G02*
X189025000Y-77681250I0J-243750D01*
G01*
X189025000Y-78168750D01*
G75*
G02*
X188781250Y-78412500I-243750J0D01*
G01*
G37*
G36*
G01*
X188781250Y-79987500D02*
X188218750Y-79987500D01*
G75*
G02*
X187975000Y-79743750I0J243750D01*
G01*
X187975000Y-79256250D01*
G75*
G02*
X188218750Y-79012500I243750J0D01*
G01*
X188781250Y-79012500D01*
G75*
G02*
X189025000Y-79256250I0J-243750D01*
G01*
X189025000Y-79743750D01*
G75*
G02*
X188781250Y-79987500I-243750J0D01*
G01*
G37*
%TD*%
%TO.C,C31*%
G36*
G01*
X186031250Y-121662500D02*
X185468750Y-121662500D01*
G75*
G02*
X185225000Y-121418750I0J243750D01*
G01*
X185225000Y-120931250D01*
G75*
G02*
X185468750Y-120687500I243750J0D01*
G01*
X186031250Y-120687500D01*
G75*
G02*
X186275000Y-120931250I0J-243750D01*
G01*
X186275000Y-121418750D01*
G75*
G02*
X186031250Y-121662500I-243750J0D01*
G01*
G37*
G36*
G01*
X186031250Y-123237500D02*
X185468750Y-123237500D01*
G75*
G02*
X185225000Y-122993750I0J243750D01*
G01*
X185225000Y-122506250D01*
G75*
G02*
X185468750Y-122262500I243750J0D01*
G01*
X186031250Y-122262500D01*
G75*
G02*
X186275000Y-122506250I0J-243750D01*
G01*
X186275000Y-122993750D01*
G75*
G02*
X186031250Y-123237500I-243750J0D01*
G01*
G37*
%TD*%
%TO.C,C30*%
G36*
G01*
X182487500Y-80718750D02*
X182487500Y-81281250D01*
G75*
G02*
X182243750Y-81525000I-243750J0D01*
G01*
X181756250Y-81525000D01*
G75*
G02*
X181512500Y-81281250I0J243750D01*
G01*
X181512500Y-80718750D01*
G75*
G02*
X181756250Y-80475000I243750J0D01*
G01*
X182243750Y-80475000D01*
G75*
G02*
X182487500Y-80718750I0J-243750D01*
G01*
G37*
G36*
G01*
X184062500Y-80718750D02*
X184062500Y-81281250D01*
G75*
G02*
X183818750Y-81525000I-243750J0D01*
G01*
X183331250Y-81525000D01*
G75*
G02*
X183087500Y-81281250I0J243750D01*
G01*
X183087500Y-80718750D01*
G75*
G02*
X183331250Y-80475000I243750J0D01*
G01*
X183818750Y-80475000D01*
G75*
G02*
X184062500Y-80718750I0J-243750D01*
G01*
G37*
%TD*%
%TO.C,C29*%
G36*
G01*
X174218750Y-80512500D02*
X174781250Y-80512500D01*
G75*
G02*
X175025000Y-80756250I0J-243750D01*
G01*
X175025000Y-81243750D01*
G75*
G02*
X174781250Y-81487500I-243750J0D01*
G01*
X174218750Y-81487500D01*
G75*
G02*
X173975000Y-81243750I0J243750D01*
G01*
X173975000Y-80756250D01*
G75*
G02*
X174218750Y-80512500I243750J0D01*
G01*
G37*
G36*
G01*
X174218750Y-78937500D02*
X174781250Y-78937500D01*
G75*
G02*
X175025000Y-79181250I0J-243750D01*
G01*
X175025000Y-79668750D01*
G75*
G02*
X174781250Y-79912500I-243750J0D01*
G01*
X174218750Y-79912500D01*
G75*
G02*
X173975000Y-79668750I0J243750D01*
G01*
X173975000Y-79181250D01*
G75*
G02*
X174218750Y-78937500I243750J0D01*
G01*
G37*
%TD*%
%TO.C,C28*%
G36*
G01*
X172881250Y-99512500D02*
X172318750Y-99512500D01*
G75*
G02*
X172075000Y-99268750I0J243750D01*
G01*
X172075000Y-98781250D01*
G75*
G02*
X172318750Y-98537500I243750J0D01*
G01*
X172881250Y-98537500D01*
G75*
G02*
X173125000Y-98781250I0J-243750D01*
G01*
X173125000Y-99268750D01*
G75*
G02*
X172881250Y-99512500I-243750J0D01*
G01*
G37*
G36*
G01*
X172881250Y-101087500D02*
X172318750Y-101087500D01*
G75*
G02*
X172075000Y-100843750I0J243750D01*
G01*
X172075000Y-100356250D01*
G75*
G02*
X172318750Y-100112500I243750J0D01*
G01*
X172881250Y-100112500D01*
G75*
G02*
X173125000Y-100356250I0J-243750D01*
G01*
X173125000Y-100843750D01*
G75*
G02*
X172881250Y-101087500I-243750J0D01*
G01*
G37*
%TD*%
%TO.C,C27*%
G36*
G01*
X186318750Y-99687500D02*
X186881250Y-99687500D01*
G75*
G02*
X187125000Y-99931250I0J-243750D01*
G01*
X187125000Y-100418750D01*
G75*
G02*
X186881250Y-100662500I-243750J0D01*
G01*
X186318750Y-100662500D01*
G75*
G02*
X186075000Y-100418750I0J243750D01*
G01*
X186075000Y-99931250D01*
G75*
G02*
X186318750Y-99687500I243750J0D01*
G01*
G37*
G36*
G01*
X186318750Y-98112500D02*
X186881250Y-98112500D01*
G75*
G02*
X187125000Y-98356250I0J-243750D01*
G01*
X187125000Y-98843750D01*
G75*
G02*
X186881250Y-99087500I-243750J0D01*
G01*
X186318750Y-99087500D01*
G75*
G02*
X186075000Y-98843750I0J243750D01*
G01*
X186075000Y-98356250D01*
G75*
G02*
X186318750Y-98112500I243750J0D01*
G01*
G37*
%TD*%
%TO.C,C25*%
G36*
G01*
X172081250Y-92087500D02*
X171518750Y-92087500D01*
G75*
G02*
X171275000Y-91843750I0J243750D01*
G01*
X171275000Y-91356250D01*
G75*
G02*
X171518750Y-91112500I243750J0D01*
G01*
X172081250Y-91112500D01*
G75*
G02*
X172325000Y-91356250I0J-243750D01*
G01*
X172325000Y-91843750D01*
G75*
G02*
X172081250Y-92087500I-243750J0D01*
G01*
G37*
G36*
G01*
X172081250Y-93662500D02*
X171518750Y-93662500D01*
G75*
G02*
X171275000Y-93418750I0J243750D01*
G01*
X171275000Y-92931250D01*
G75*
G02*
X171518750Y-92687500I243750J0D01*
G01*
X172081250Y-92687500D01*
G75*
G02*
X172325000Y-92931250I0J-243750D01*
G01*
X172325000Y-93418750D01*
G75*
G02*
X172081250Y-93662500I-243750J0D01*
G01*
G37*
%TD*%
%TO.C,C24*%
G36*
G01*
X175800000Y-67281250D02*
X175800000Y-66718750D01*
G75*
G02*
X176043750Y-66475000I243750J0D01*
G01*
X176531250Y-66475000D01*
G75*
G02*
X176775000Y-66718750I0J-243750D01*
G01*
X176775000Y-67281250D01*
G75*
G02*
X176531250Y-67525000I-243750J0D01*
G01*
X176043750Y-67525000D01*
G75*
G02*
X175800000Y-67281250I0J243750D01*
G01*
G37*
G36*
G01*
X174225000Y-67281250D02*
X174225000Y-66718750D01*
G75*
G02*
X174468750Y-66475000I243750J0D01*
G01*
X174956250Y-66475000D01*
G75*
G02*
X175200000Y-66718750I0J-243750D01*
G01*
X175200000Y-67281250D01*
G75*
G02*
X174956250Y-67525000I-243750J0D01*
G01*
X174468750Y-67525000D01*
G75*
G02*
X174225000Y-67281250I0J243750D01*
G01*
G37*
%TD*%
%TO.C,C23*%
G36*
G01*
X172318750Y-96612500D02*
X172881250Y-96612500D01*
G75*
G02*
X173125000Y-96856250I0J-243750D01*
G01*
X173125000Y-97343750D01*
G75*
G02*
X172881250Y-97587500I-243750J0D01*
G01*
X172318750Y-97587500D01*
G75*
G02*
X172075000Y-97343750I0J243750D01*
G01*
X172075000Y-96856250D01*
G75*
G02*
X172318750Y-96612500I243750J0D01*
G01*
G37*
G36*
G01*
X172318750Y-95037500D02*
X172881250Y-95037500D01*
G75*
G02*
X173125000Y-95281250I0J-243750D01*
G01*
X173125000Y-95768750D01*
G75*
G02*
X172881250Y-96012500I-243750J0D01*
G01*
X172318750Y-96012500D01*
G75*
G02*
X172075000Y-95768750I0J243750D01*
G01*
X172075000Y-95281250D01*
G75*
G02*
X172318750Y-95037500I243750J0D01*
G01*
G37*
%TD*%
%TO.C,C22*%
G36*
G01*
X174512500Y-69281250D02*
X174512500Y-68718750D01*
G75*
G02*
X174756250Y-68475000I243750J0D01*
G01*
X175243750Y-68475000D01*
G75*
G02*
X175487500Y-68718750I0J-243750D01*
G01*
X175487500Y-69281250D01*
G75*
G02*
X175243750Y-69525000I-243750J0D01*
G01*
X174756250Y-69525000D01*
G75*
G02*
X174512500Y-69281250I0J243750D01*
G01*
G37*
G36*
G01*
X172937500Y-69281250D02*
X172937500Y-68718750D01*
G75*
G02*
X173181250Y-68475000I243750J0D01*
G01*
X173668750Y-68475000D01*
G75*
G02*
X173912500Y-68718750I0J-243750D01*
G01*
X173912500Y-69281250D01*
G75*
G02*
X173668750Y-69525000I-243750J0D01*
G01*
X173181250Y-69525000D01*
G75*
G02*
X172937500Y-69281250I0J243750D01*
G01*
G37*
%TD*%
%TO.C,C21*%
G36*
G01*
X172881250Y-102587500D02*
X172318750Y-102587500D01*
G75*
G02*
X172075000Y-102343750I0J243750D01*
G01*
X172075000Y-101856250D01*
G75*
G02*
X172318750Y-101612500I243750J0D01*
G01*
X172881250Y-101612500D01*
G75*
G02*
X173125000Y-101856250I0J-243750D01*
G01*
X173125000Y-102343750D01*
G75*
G02*
X172881250Y-102587500I-243750J0D01*
G01*
G37*
G36*
G01*
X172881250Y-104162500D02*
X172318750Y-104162500D01*
G75*
G02*
X172075000Y-103918750I0J243750D01*
G01*
X172075000Y-103431250D01*
G75*
G02*
X172318750Y-103187500I243750J0D01*
G01*
X172881250Y-103187500D01*
G75*
G02*
X173125000Y-103431250I0J-243750D01*
G01*
X173125000Y-103918750D01*
G75*
G02*
X172881250Y-104162500I-243750J0D01*
G01*
G37*
%TD*%
%TO.C,C20*%
G36*
G01*
X177512500Y-69281250D02*
X177512500Y-68718750D01*
G75*
G02*
X177756250Y-68475000I243750J0D01*
G01*
X178243750Y-68475000D01*
G75*
G02*
X178487500Y-68718750I0J-243750D01*
G01*
X178487500Y-69281250D01*
G75*
G02*
X178243750Y-69525000I-243750J0D01*
G01*
X177756250Y-69525000D01*
G75*
G02*
X177512500Y-69281250I0J243750D01*
G01*
G37*
G36*
G01*
X175937500Y-69281250D02*
X175937500Y-68718750D01*
G75*
G02*
X176181250Y-68475000I243750J0D01*
G01*
X176668750Y-68475000D01*
G75*
G02*
X176912500Y-68718750I0J-243750D01*
G01*
X176912500Y-69281250D01*
G75*
G02*
X176668750Y-69525000I-243750J0D01*
G01*
X176181250Y-69525000D01*
G75*
G02*
X175937500Y-69281250I0J243750D01*
G01*
G37*
%TD*%
%TO.C,C19*%
G36*
G01*
X172318750Y-107187500D02*
X172881250Y-107187500D01*
G75*
G02*
X173125000Y-107431250I0J-243750D01*
G01*
X173125000Y-107918750D01*
G75*
G02*
X172881250Y-108162500I-243750J0D01*
G01*
X172318750Y-108162500D01*
G75*
G02*
X172075000Y-107918750I0J243750D01*
G01*
X172075000Y-107431250D01*
G75*
G02*
X172318750Y-107187500I243750J0D01*
G01*
G37*
G36*
G01*
X172318750Y-105612500D02*
X172881250Y-105612500D01*
G75*
G02*
X173125000Y-105856250I0J-243750D01*
G01*
X173125000Y-106343750D01*
G75*
G02*
X172881250Y-106587500I-243750J0D01*
G01*
X172318750Y-106587500D01*
G75*
G02*
X172075000Y-106343750I0J243750D01*
G01*
X172075000Y-105856250D01*
G75*
G02*
X172318750Y-105612500I243750J0D01*
G01*
G37*
%TD*%
%TO.C,C18*%
G36*
G01*
X180512500Y-69281250D02*
X180512500Y-68718750D01*
G75*
G02*
X180756250Y-68475000I243750J0D01*
G01*
X181243750Y-68475000D01*
G75*
G02*
X181487500Y-68718750I0J-243750D01*
G01*
X181487500Y-69281250D01*
G75*
G02*
X181243750Y-69525000I-243750J0D01*
G01*
X180756250Y-69525000D01*
G75*
G02*
X180512500Y-69281250I0J243750D01*
G01*
G37*
G36*
G01*
X178937500Y-69281250D02*
X178937500Y-68718750D01*
G75*
G02*
X179181250Y-68475000I243750J0D01*
G01*
X179668750Y-68475000D01*
G75*
G02*
X179912500Y-68718750I0J-243750D01*
G01*
X179912500Y-69281250D01*
G75*
G02*
X179668750Y-69525000I-243750J0D01*
G01*
X179181250Y-69525000D01*
G75*
G02*
X178937500Y-69281250I0J243750D01*
G01*
G37*
%TD*%
%TO.C,C17*%
G36*
G01*
X179862500Y-109131250D02*
X179862500Y-108568750D01*
G75*
G02*
X180106250Y-108325000I243750J0D01*
G01*
X180593750Y-108325000D01*
G75*
G02*
X180837500Y-108568750I0J-243750D01*
G01*
X180837500Y-109131250D01*
G75*
G02*
X180593750Y-109375000I-243750J0D01*
G01*
X180106250Y-109375000D01*
G75*
G02*
X179862500Y-109131250I0J243750D01*
G01*
G37*
G36*
G01*
X178287500Y-109131250D02*
X178287500Y-108568750D01*
G75*
G02*
X178531250Y-108325000I243750J0D01*
G01*
X179018750Y-108325000D01*
G75*
G02*
X179262500Y-108568750I0J-243750D01*
G01*
X179262500Y-109131250D01*
G75*
G02*
X179018750Y-109375000I-243750J0D01*
G01*
X178531250Y-109375000D01*
G75*
G02*
X178287500Y-109131250I0J243750D01*
G01*
G37*
%TD*%
%TO.C,C16*%
G36*
G01*
X183587500Y-69281250D02*
X183587500Y-68718750D01*
G75*
G02*
X183831250Y-68475000I243750J0D01*
G01*
X184318750Y-68475000D01*
G75*
G02*
X184562500Y-68718750I0J-243750D01*
G01*
X184562500Y-69281250D01*
G75*
G02*
X184318750Y-69525000I-243750J0D01*
G01*
X183831250Y-69525000D01*
G75*
G02*
X183587500Y-69281250I0J243750D01*
G01*
G37*
G36*
G01*
X182012500Y-69281250D02*
X182012500Y-68718750D01*
G75*
G02*
X182256250Y-68475000I243750J0D01*
G01*
X182743750Y-68475000D01*
G75*
G02*
X182987500Y-68718750I0J-243750D01*
G01*
X182987500Y-69281250D01*
G75*
G02*
X182743750Y-69525000I-243750J0D01*
G01*
X182256250Y-69525000D01*
G75*
G02*
X182012500Y-69281250I0J243750D01*
G01*
G37*
%TD*%
%TO.C,C15*%
G36*
G01*
X186318750Y-106937500D02*
X186881250Y-106937500D01*
G75*
G02*
X187125000Y-107181250I0J-243750D01*
G01*
X187125000Y-107668750D01*
G75*
G02*
X186881250Y-107912500I-243750J0D01*
G01*
X186318750Y-107912500D01*
G75*
G02*
X186075000Y-107668750I0J243750D01*
G01*
X186075000Y-107181250D01*
G75*
G02*
X186318750Y-106937500I243750J0D01*
G01*
G37*
G36*
G01*
X186318750Y-105362500D02*
X186881250Y-105362500D01*
G75*
G02*
X187125000Y-105606250I0J-243750D01*
G01*
X187125000Y-106093750D01*
G75*
G02*
X186881250Y-106337500I-243750J0D01*
G01*
X186318750Y-106337500D01*
G75*
G02*
X186075000Y-106093750I0J243750D01*
G01*
X186075000Y-105606250D01*
G75*
G02*
X186318750Y-105362500I243750J0D01*
G01*
G37*
%TD*%
%TO.C,C14*%
G36*
G01*
X184781250Y-78412500D02*
X184218750Y-78412500D01*
G75*
G02*
X183975000Y-78168750I0J243750D01*
G01*
X183975000Y-77681250D01*
G75*
G02*
X184218750Y-77437500I243750J0D01*
G01*
X184781250Y-77437500D01*
G75*
G02*
X185025000Y-77681250I0J-243750D01*
G01*
X185025000Y-78168750D01*
G75*
G02*
X184781250Y-78412500I-243750J0D01*
G01*
G37*
G36*
G01*
X184781250Y-79987500D02*
X184218750Y-79987500D01*
G75*
G02*
X183975000Y-79743750I0J243750D01*
G01*
X183975000Y-79256250D01*
G75*
G02*
X184218750Y-79012500I243750J0D01*
G01*
X184781250Y-79012500D01*
G75*
G02*
X185025000Y-79256250I0J-243750D01*
G01*
X185025000Y-79743750D01*
G75*
G02*
X184781250Y-79987500I-243750J0D01*
G01*
G37*
%TD*%
%TO.C,C13*%
G36*
G01*
X186881250Y-102512500D02*
X186318750Y-102512500D01*
G75*
G02*
X186075000Y-102268750I0J243750D01*
G01*
X186075000Y-101781250D01*
G75*
G02*
X186318750Y-101537500I243750J0D01*
G01*
X186881250Y-101537500D01*
G75*
G02*
X187125000Y-101781250I0J-243750D01*
G01*
X187125000Y-102268750D01*
G75*
G02*
X186881250Y-102512500I-243750J0D01*
G01*
G37*
G36*
G01*
X186881250Y-104087500D02*
X186318750Y-104087500D01*
G75*
G02*
X186075000Y-103843750I0J243750D01*
G01*
X186075000Y-103356250D01*
G75*
G02*
X186318750Y-103112500I243750J0D01*
G01*
X186881250Y-103112500D01*
G75*
G02*
X187125000Y-103356250I0J-243750D01*
G01*
X187125000Y-103843750D01*
G75*
G02*
X186881250Y-104087500I-243750J0D01*
G01*
G37*
%TD*%
%TO.C,C12*%
G36*
G01*
X180012500Y-81281250D02*
X180012500Y-80718750D01*
G75*
G02*
X180256250Y-80475000I243750J0D01*
G01*
X180743750Y-80475000D01*
G75*
G02*
X180987500Y-80718750I0J-243750D01*
G01*
X180987500Y-81281250D01*
G75*
G02*
X180743750Y-81525000I-243750J0D01*
G01*
X180256250Y-81525000D01*
G75*
G02*
X180012500Y-81281250I0J243750D01*
G01*
G37*
G36*
G01*
X178437500Y-81281250D02*
X178437500Y-80718750D01*
G75*
G02*
X178681250Y-80475000I243750J0D01*
G01*
X179168750Y-80475000D01*
G75*
G02*
X179412500Y-80718750I0J-243750D01*
G01*
X179412500Y-81281250D01*
G75*
G02*
X179168750Y-81525000I-243750J0D01*
G01*
X178681250Y-81525000D01*
G75*
G02*
X178437500Y-81281250I0J243750D01*
G01*
G37*
%TD*%
%TO.C,C11*%
G36*
G01*
X186318750Y-96612500D02*
X186881250Y-96612500D01*
G75*
G02*
X187125000Y-96856250I0J-243750D01*
G01*
X187125000Y-97343750D01*
G75*
G02*
X186881250Y-97587500I-243750J0D01*
G01*
X186318750Y-97587500D01*
G75*
G02*
X186075000Y-97343750I0J243750D01*
G01*
X186075000Y-96856250D01*
G75*
G02*
X186318750Y-96612500I243750J0D01*
G01*
G37*
G36*
G01*
X186318750Y-95037500D02*
X186881250Y-95037500D01*
G75*
G02*
X187125000Y-95281250I0J-243750D01*
G01*
X187125000Y-95768750D01*
G75*
G02*
X186881250Y-96012500I-243750J0D01*
G01*
X186318750Y-96012500D01*
G75*
G02*
X186075000Y-95768750I0J243750D01*
G01*
X186075000Y-95281250D01*
G75*
G02*
X186318750Y-95037500I243750J0D01*
G01*
G37*
%TD*%
%TO.C,C10*%
G36*
G01*
X177012500Y-81281250D02*
X177012500Y-80718750D01*
G75*
G02*
X177256250Y-80475000I243750J0D01*
G01*
X177743750Y-80475000D01*
G75*
G02*
X177987500Y-80718750I0J-243750D01*
G01*
X177987500Y-81281250D01*
G75*
G02*
X177743750Y-81525000I-243750J0D01*
G01*
X177256250Y-81525000D01*
G75*
G02*
X177012500Y-81281250I0J243750D01*
G01*
G37*
G36*
G01*
X175437500Y-81281250D02*
X175437500Y-80718750D01*
G75*
G02*
X175681250Y-80475000I243750J0D01*
G01*
X176168750Y-80475000D01*
G75*
G02*
X176412500Y-80718750I0J-243750D01*
G01*
X176412500Y-81281250D01*
G75*
G02*
X176168750Y-81525000I-243750J0D01*
G01*
X175681250Y-81525000D01*
G75*
G02*
X175437500Y-81281250I0J243750D01*
G01*
G37*
%TD*%
%TO.C,C9*%
G36*
G01*
X186881250Y-92087500D02*
X186318750Y-92087500D01*
G75*
G02*
X186075000Y-91843750I0J243750D01*
G01*
X186075000Y-91356250D01*
G75*
G02*
X186318750Y-91112500I243750J0D01*
G01*
X186881250Y-91112500D01*
G75*
G02*
X187125000Y-91356250I0J-243750D01*
G01*
X187125000Y-91843750D01*
G75*
G02*
X186881250Y-92087500I-243750J0D01*
G01*
G37*
G36*
G01*
X186881250Y-93662500D02*
X186318750Y-93662500D01*
G75*
G02*
X186075000Y-93418750I0J243750D01*
G01*
X186075000Y-92931250D01*
G75*
G02*
X186318750Y-92687500I243750J0D01*
G01*
X186881250Y-92687500D01*
G75*
G02*
X187125000Y-92931250I0J-243750D01*
G01*
X187125000Y-93418750D01*
G75*
G02*
X186881250Y-93662500I-243750J0D01*
G01*
G37*
%TD*%
M02*
