%TF.GenerationSoftware,KiCad,Pcbnew,(5.1.6)-1*%
%TF.CreationDate,2020-12-14T06:54:31-07:00*%
%TF.ProjectId,DDS,4444532e-6b69-4636-9164-5f7063625858,rev?*%
%TF.SameCoordinates,Original*%
%TF.FileFunction,Paste,Bot*%
%TF.FilePolarity,Positive*%
%FSLAX46Y46*%
G04 Gerber Fmt 4.6, Leading zero omitted, Abs format (unit mm)*
G04 Created by KiCad (PCBNEW (5.1.6)-1) date 2020-12-14 06:54:31*
%MOMM*%
%LPD*%
G01*
G04 APERTURE LIST*
%ADD10C,0.100000*%
%ADD11C,0.150000*%
%ADD12C,0.300000*%
%ADD13C,0.400000*%
%ADD14R,1.350000X4.200000*%
G04 APERTURE END LIST*
D10*
D11*
X177002200Y-166007200D02*
X177002200Y-198007200D01*
X285002200Y-198007200D01*
X285002200Y-166007200D01*
X177002200Y-166007200D01*
D10*
D11*
X10000000Y-10000000D02*
X10000000Y-200007200D01*
X287002200Y-200007200D01*
X287002200Y-10000000D01*
X10000000Y-10000000D01*
D10*
D11*
X12000000Y-12000000D02*
X12000000Y-198007200D01*
X285002200Y-198007200D01*
X285002200Y-12000000D01*
X12000000Y-12000000D01*
D10*
D11*
X60000000Y-12000000D02*
X60000000Y-10000000D01*
D10*
D11*
X110000000Y-12000000D02*
X110000000Y-10000000D01*
D10*
D11*
X160000000Y-12000000D02*
X160000000Y-10000000D01*
D10*
D11*
X210000000Y-12000000D02*
X210000000Y-10000000D01*
D10*
D11*
X260000000Y-12000000D02*
X260000000Y-10000000D01*
D10*
D11*
X36065476Y-11588095D02*
X35322619Y-11588095D01*
X35694047Y-11588095D02*
X35694047Y-10288095D01*
X35570238Y-10473809D01*
X35446428Y-10597619D01*
X35322619Y-10659523D01*
D10*
D11*
X85322619Y-10411904D02*
X85384523Y-10350000D01*
X85508333Y-10288095D01*
X85817857Y-10288095D01*
X85941666Y-10350000D01*
X86003571Y-10411904D01*
X86065476Y-10535714D01*
X86065476Y-10659523D01*
X86003571Y-10845238D01*
X85260714Y-11588095D01*
X86065476Y-11588095D01*
D10*
D11*
X135260714Y-10288095D02*
X136065476Y-10288095D01*
X135632142Y-10783333D01*
X135817857Y-10783333D01*
X135941666Y-10845238D01*
X136003571Y-10907142D01*
X136065476Y-11030952D01*
X136065476Y-11340476D01*
X136003571Y-11464285D01*
X135941666Y-11526190D01*
X135817857Y-11588095D01*
X135446428Y-11588095D01*
X135322619Y-11526190D01*
X135260714Y-11464285D01*
D10*
D11*
X185941666Y-10721428D02*
X185941666Y-11588095D01*
X185632142Y-10226190D02*
X185322619Y-11154761D01*
X186127380Y-11154761D01*
D10*
D11*
X236003571Y-10288095D02*
X235384523Y-10288095D01*
X235322619Y-10907142D01*
X235384523Y-10845238D01*
X235508333Y-10783333D01*
X235817857Y-10783333D01*
X235941666Y-10845238D01*
X236003571Y-10907142D01*
X236065476Y-11030952D01*
X236065476Y-11340476D01*
X236003571Y-11464285D01*
X235941666Y-11526190D01*
X235817857Y-11588095D01*
X235508333Y-11588095D01*
X235384523Y-11526190D01*
X235322619Y-11464285D01*
D10*
D11*
X285941666Y-10288095D02*
X285694047Y-10288095D01*
X285570238Y-10350000D01*
X285508333Y-10411904D01*
X285384523Y-10597619D01*
X285322619Y-10845238D01*
X285322619Y-11340476D01*
X285384523Y-11464285D01*
X285446428Y-11526190D01*
X285570238Y-11588095D01*
X285817857Y-11588095D01*
X285941666Y-11526190D01*
X286003571Y-11464285D01*
X286065476Y-11340476D01*
X286065476Y-11030952D01*
X286003571Y-10907142D01*
X285941666Y-10845238D01*
X285817857Y-10783333D01*
X285570238Y-10783333D01*
X285446428Y-10845238D01*
X285384523Y-10907142D01*
X285322619Y-11030952D01*
D10*
D11*
X60000000Y-198007200D02*
X60000000Y-200007200D01*
D10*
D11*
X110000000Y-198007200D02*
X110000000Y-200007200D01*
D10*
D11*
X160000000Y-198007200D02*
X160000000Y-200007200D01*
D10*
D11*
X210000000Y-198007200D02*
X210000000Y-200007200D01*
D10*
D11*
X260000000Y-198007200D02*
X260000000Y-200007200D01*
D10*
D11*
X36065476Y-199595295D02*
X35322619Y-199595295D01*
X35694047Y-199595295D02*
X35694047Y-198295295D01*
X35570238Y-198481009D01*
X35446428Y-198604819D01*
X35322619Y-198666723D01*
D10*
D11*
X85322619Y-198419104D02*
X85384523Y-198357200D01*
X85508333Y-198295295D01*
X85817857Y-198295295D01*
X85941666Y-198357200D01*
X86003571Y-198419104D01*
X86065476Y-198542914D01*
X86065476Y-198666723D01*
X86003571Y-198852438D01*
X85260714Y-199595295D01*
X86065476Y-199595295D01*
D10*
D11*
X135260714Y-198295295D02*
X136065476Y-198295295D01*
X135632142Y-198790533D01*
X135817857Y-198790533D01*
X135941666Y-198852438D01*
X136003571Y-198914342D01*
X136065476Y-199038152D01*
X136065476Y-199347676D01*
X136003571Y-199471485D01*
X135941666Y-199533390D01*
X135817857Y-199595295D01*
X135446428Y-199595295D01*
X135322619Y-199533390D01*
X135260714Y-199471485D01*
D10*
D11*
X185941666Y-198728628D02*
X185941666Y-199595295D01*
X185632142Y-198233390D02*
X185322619Y-199161961D01*
X186127380Y-199161961D01*
D10*
D11*
X236003571Y-198295295D02*
X235384523Y-198295295D01*
X235322619Y-198914342D01*
X235384523Y-198852438D01*
X235508333Y-198790533D01*
X235817857Y-198790533D01*
X235941666Y-198852438D01*
X236003571Y-198914342D01*
X236065476Y-199038152D01*
X236065476Y-199347676D01*
X236003571Y-199471485D01*
X235941666Y-199533390D01*
X235817857Y-199595295D01*
X235508333Y-199595295D01*
X235384523Y-199533390D01*
X235322619Y-199471485D01*
D10*
D11*
X285941666Y-198295295D02*
X285694047Y-198295295D01*
X285570238Y-198357200D01*
X285508333Y-198419104D01*
X285384523Y-198604819D01*
X285322619Y-198852438D01*
X285322619Y-199347676D01*
X285384523Y-199471485D01*
X285446428Y-199533390D01*
X285570238Y-199595295D01*
X285817857Y-199595295D01*
X285941666Y-199533390D01*
X286003571Y-199471485D01*
X286065476Y-199347676D01*
X286065476Y-199038152D01*
X286003571Y-198914342D01*
X285941666Y-198852438D01*
X285817857Y-198790533D01*
X285570238Y-198790533D01*
X285446428Y-198852438D01*
X285384523Y-198914342D01*
X285322619Y-199038152D01*
D10*
D11*
X10000000Y-60000000D02*
X12000000Y-60000000D01*
D10*
D11*
X10000000Y-110000000D02*
X12000000Y-110000000D01*
D10*
D11*
X10000000Y-160000000D02*
X12000000Y-160000000D01*
D10*
D11*
X10690476Y-35216666D02*
X11309523Y-35216666D01*
X10566666Y-35588095D02*
X11000000Y-34288095D01*
X11433333Y-35588095D01*
D10*
D11*
X11092857Y-84907142D02*
X11278571Y-84969047D01*
X11340476Y-85030952D01*
X11402380Y-85154761D01*
X11402380Y-85340476D01*
X11340476Y-85464285D01*
X11278571Y-85526190D01*
X11154761Y-85588095D01*
X10659523Y-85588095D01*
X10659523Y-84288095D01*
X11092857Y-84288095D01*
X11216666Y-84350000D01*
X11278571Y-84411904D01*
X11340476Y-84535714D01*
X11340476Y-84659523D01*
X11278571Y-84783333D01*
X11216666Y-84845238D01*
X11092857Y-84907142D01*
X10659523Y-84907142D01*
D10*
D11*
X11402380Y-135464285D02*
X11340476Y-135526190D01*
X11154761Y-135588095D01*
X11030952Y-135588095D01*
X10845238Y-135526190D01*
X10721428Y-135402380D01*
X10659523Y-135278571D01*
X10597619Y-135030952D01*
X10597619Y-134845238D01*
X10659523Y-134597619D01*
X10721428Y-134473809D01*
X10845238Y-134350000D01*
X11030952Y-134288095D01*
X11154761Y-134288095D01*
X11340476Y-134350000D01*
X11402380Y-134411904D01*
D10*
D11*
X10659523Y-185588095D02*
X10659523Y-184288095D01*
X10969047Y-184288095D01*
X11154761Y-184350000D01*
X11278571Y-184473809D01*
X11340476Y-184597619D01*
X11402380Y-184845238D01*
X11402380Y-185030952D01*
X11340476Y-185278571D01*
X11278571Y-185402380D01*
X11154761Y-185526190D01*
X10969047Y-185588095D01*
X10659523Y-185588095D01*
D10*
D11*
X287002200Y-60000000D02*
X285002200Y-60000000D01*
D10*
D11*
X287002200Y-110000000D02*
X285002200Y-110000000D01*
D10*
D11*
X287002200Y-160000000D02*
X285002200Y-160000000D01*
D10*
D11*
X285692676Y-35216666D02*
X286311723Y-35216666D01*
X285568866Y-35588095D02*
X286002200Y-34288095D01*
X286435533Y-35588095D01*
D10*
D11*
X286095057Y-84907142D02*
X286280771Y-84969047D01*
X286342676Y-85030952D01*
X286404580Y-85154761D01*
X286404580Y-85340476D01*
X286342676Y-85464285D01*
X286280771Y-85526190D01*
X286156961Y-85588095D01*
X285661723Y-85588095D01*
X285661723Y-84288095D01*
X286095057Y-84288095D01*
X286218866Y-84350000D01*
X286280771Y-84411904D01*
X286342676Y-84535714D01*
X286342676Y-84659523D01*
X286280771Y-84783333D01*
X286218866Y-84845238D01*
X286095057Y-84907142D01*
X285661723Y-84907142D01*
D10*
D11*
X286404580Y-135464285D02*
X286342676Y-135526190D01*
X286156961Y-135588095D01*
X286033152Y-135588095D01*
X285847438Y-135526190D01*
X285723628Y-135402380D01*
X285661723Y-135278571D01*
X285599819Y-135030952D01*
X285599819Y-134845238D01*
X285661723Y-134597619D01*
X285723628Y-134473809D01*
X285847438Y-134350000D01*
X286033152Y-134288095D01*
X286156961Y-134288095D01*
X286342676Y-134350000D01*
X286404580Y-134411904D01*
D10*
D11*
X285661723Y-185588095D02*
X285661723Y-184288095D01*
X285971247Y-184288095D01*
X286156961Y-184350000D01*
X286280771Y-184473809D01*
X286342676Y-184597619D01*
X286404580Y-184845238D01*
X286404580Y-185030952D01*
X286342676Y-185278571D01*
X286280771Y-185402380D01*
X286156961Y-185526190D01*
X285971247Y-185588095D01*
X285661723Y-185588095D01*
D10*
D11*
X200434342Y-193785771D02*
X200434342Y-192285771D01*
X200791485Y-192285771D01*
X201005771Y-192357200D01*
X201148628Y-192500057D01*
X201220057Y-192642914D01*
X201291485Y-192928628D01*
X201291485Y-193142914D01*
X201220057Y-193428628D01*
X201148628Y-193571485D01*
X201005771Y-193714342D01*
X200791485Y-193785771D01*
X200434342Y-193785771D01*
X202577200Y-193785771D02*
X202577200Y-193000057D01*
X202505771Y-192857200D01*
X202362914Y-192785771D01*
X202077200Y-192785771D01*
X201934342Y-192857200D01*
X202577200Y-193714342D02*
X202434342Y-193785771D01*
X202077200Y-193785771D01*
X201934342Y-193714342D01*
X201862914Y-193571485D01*
X201862914Y-193428628D01*
X201934342Y-193285771D01*
X202077200Y-193214342D01*
X202434342Y-193214342D01*
X202577200Y-193142914D01*
X203077200Y-192785771D02*
X203648628Y-192785771D01*
X203291485Y-192285771D02*
X203291485Y-193571485D01*
X203362914Y-193714342D01*
X203505771Y-193785771D01*
X203648628Y-193785771D01*
X204720057Y-193714342D02*
X204577200Y-193785771D01*
X204291485Y-193785771D01*
X204148628Y-193714342D01*
X204077200Y-193571485D01*
X204077200Y-193000057D01*
X204148628Y-192857200D01*
X204291485Y-192785771D01*
X204577200Y-192785771D01*
X204720057Y-192857200D01*
X204791485Y-193000057D01*
X204791485Y-193142914D01*
X204077200Y-193285771D01*
X205434342Y-193642914D02*
X205505771Y-193714342D01*
X205434342Y-193785771D01*
X205362914Y-193714342D01*
X205434342Y-193642914D01*
X205434342Y-193785771D01*
X205434342Y-192857200D02*
X205505771Y-192928628D01*
X205434342Y-193000057D01*
X205362914Y-192928628D01*
X205434342Y-192857200D01*
X205434342Y-193000057D01*
D10*
D11*
X177002200Y-194507200D02*
X285002200Y-194507200D01*
D10*
D11*
X178434342Y-196585771D02*
X178434342Y-195085771D01*
X179291485Y-196585771D02*
X178648628Y-195728628D01*
X179291485Y-195085771D02*
X178434342Y-195942914D01*
X179934342Y-196585771D02*
X179934342Y-195585771D01*
X179934342Y-195085771D02*
X179862914Y-195157200D01*
X179934342Y-195228628D01*
X180005771Y-195157200D01*
X179934342Y-195085771D01*
X179934342Y-195228628D01*
X181505771Y-196442914D02*
X181434342Y-196514342D01*
X181220057Y-196585771D01*
X181077200Y-196585771D01*
X180862914Y-196514342D01*
X180720057Y-196371485D01*
X180648628Y-196228628D01*
X180577200Y-195942914D01*
X180577200Y-195728628D01*
X180648628Y-195442914D01*
X180720057Y-195300057D01*
X180862914Y-195157200D01*
X181077200Y-195085771D01*
X181220057Y-195085771D01*
X181434342Y-195157200D01*
X181505771Y-195228628D01*
X182791485Y-196585771D02*
X182791485Y-195800057D01*
X182720057Y-195657200D01*
X182577200Y-195585771D01*
X182291485Y-195585771D01*
X182148628Y-195657200D01*
X182791485Y-196514342D02*
X182648628Y-196585771D01*
X182291485Y-196585771D01*
X182148628Y-196514342D01*
X182077200Y-196371485D01*
X182077200Y-196228628D01*
X182148628Y-196085771D01*
X182291485Y-196014342D01*
X182648628Y-196014342D01*
X182791485Y-195942914D01*
X184148628Y-196585771D02*
X184148628Y-195085771D01*
X184148628Y-196514342D02*
X184005771Y-196585771D01*
X183720057Y-196585771D01*
X183577200Y-196514342D01*
X183505771Y-196442914D01*
X183434342Y-196300057D01*
X183434342Y-195871485D01*
X183505771Y-195728628D01*
X183577200Y-195657200D01*
X183720057Y-195585771D01*
X184005771Y-195585771D01*
X184148628Y-195657200D01*
X186005771Y-195800057D02*
X186505771Y-195800057D01*
X186720057Y-196585771D02*
X186005771Y-196585771D01*
X186005771Y-195085771D01*
X186720057Y-195085771D01*
X187362914Y-196442914D02*
X187434342Y-196514342D01*
X187362914Y-196585771D01*
X187291485Y-196514342D01*
X187362914Y-196442914D01*
X187362914Y-196585771D01*
X188077200Y-196585771D02*
X188077200Y-195085771D01*
X188434342Y-195085771D01*
X188648628Y-195157200D01*
X188791485Y-195300057D01*
X188862914Y-195442914D01*
X188934342Y-195728628D01*
X188934342Y-195942914D01*
X188862914Y-196228628D01*
X188791485Y-196371485D01*
X188648628Y-196514342D01*
X188434342Y-196585771D01*
X188077200Y-196585771D01*
X189577200Y-196442914D02*
X189648628Y-196514342D01*
X189577200Y-196585771D01*
X189505771Y-196514342D01*
X189577200Y-196442914D01*
X189577200Y-196585771D01*
X190220057Y-196157200D02*
X190934342Y-196157200D01*
X190077200Y-196585771D02*
X190577200Y-195085771D01*
X191077200Y-196585771D01*
X191577200Y-196442914D02*
X191648628Y-196514342D01*
X191577200Y-196585771D01*
X191505771Y-196514342D01*
X191577200Y-196442914D01*
X191577200Y-196585771D01*
X194577200Y-196585771D02*
X194577200Y-195085771D01*
X194720057Y-196014342D02*
X195148628Y-196585771D01*
X195148628Y-195585771D02*
X194577200Y-196157200D01*
X195791485Y-196585771D02*
X195791485Y-195585771D01*
X195791485Y-195085771D02*
X195720057Y-195157200D01*
X195791485Y-195228628D01*
X195862914Y-195157200D01*
X195791485Y-195085771D01*
X195791485Y-195228628D01*
X197148628Y-196514342D02*
X197005771Y-196585771D01*
X196720057Y-196585771D01*
X196577200Y-196514342D01*
X196505771Y-196442914D01*
X196434342Y-196300057D01*
X196434342Y-195871485D01*
X196505771Y-195728628D01*
X196577200Y-195657200D01*
X196720057Y-195585771D01*
X197005771Y-195585771D01*
X197148628Y-195657200D01*
X198434342Y-196585771D02*
X198434342Y-195800057D01*
X198362914Y-195657200D01*
X198220057Y-195585771D01*
X197934342Y-195585771D01*
X197791485Y-195657200D01*
X198434342Y-196514342D02*
X198291485Y-196585771D01*
X197934342Y-196585771D01*
X197791485Y-196514342D01*
X197720057Y-196371485D01*
X197720057Y-196228628D01*
X197791485Y-196085771D01*
X197934342Y-196014342D01*
X198291485Y-196014342D01*
X198434342Y-195942914D01*
X199791485Y-196585771D02*
X199791485Y-195085771D01*
X199791485Y-196514342D02*
X199648628Y-196585771D01*
X199362914Y-196585771D01*
X199220057Y-196514342D01*
X199148628Y-196442914D01*
X199077200Y-196300057D01*
X199077200Y-195871485D01*
X199148628Y-195728628D01*
X199220057Y-195657200D01*
X199362914Y-195585771D01*
X199648628Y-195585771D01*
X199791485Y-195657200D01*
X202077200Y-197157200D02*
X202005771Y-197085771D01*
X201862914Y-196871485D01*
X201791485Y-196728628D01*
X201720057Y-196514342D01*
X201648628Y-196157200D01*
X201648628Y-195871485D01*
X201720057Y-195514342D01*
X201791485Y-195300057D01*
X201862914Y-195157200D01*
X202005771Y-194942914D01*
X202077200Y-194871485D01*
X203362914Y-195085771D02*
X202648628Y-195085771D01*
X202577200Y-195800057D01*
X202648628Y-195728628D01*
X202791485Y-195657200D01*
X203148628Y-195657200D01*
X203291485Y-195728628D01*
X203362914Y-195800057D01*
X203434342Y-195942914D01*
X203434342Y-196300057D01*
X203362914Y-196442914D01*
X203291485Y-196514342D01*
X203148628Y-196585771D01*
X202791485Y-196585771D01*
X202648628Y-196514342D01*
X202577200Y-196442914D01*
X204077200Y-196442914D02*
X204148628Y-196514342D01*
X204077200Y-196585771D01*
X204005771Y-196514342D01*
X204077200Y-196442914D01*
X204077200Y-196585771D01*
X205577200Y-196585771D02*
X204720057Y-196585771D01*
X205148628Y-196585771D02*
X205148628Y-195085771D01*
X205005771Y-195300057D01*
X204862914Y-195442914D01*
X204720057Y-195514342D01*
X206220057Y-196442914D02*
X206291485Y-196514342D01*
X206220057Y-196585771D01*
X206148628Y-196514342D01*
X206220057Y-196442914D01*
X206220057Y-196585771D01*
X207577200Y-195085771D02*
X207291485Y-195085771D01*
X207148628Y-195157200D01*
X207077200Y-195228628D01*
X206934342Y-195442914D01*
X206862914Y-195728628D01*
X206862914Y-196300057D01*
X206934342Y-196442914D01*
X207005771Y-196514342D01*
X207148628Y-196585771D01*
X207434342Y-196585771D01*
X207577200Y-196514342D01*
X207648628Y-196442914D01*
X207720057Y-196300057D01*
X207720057Y-195942914D01*
X207648628Y-195800057D01*
X207577200Y-195728628D01*
X207434342Y-195657200D01*
X207148628Y-195657200D01*
X207005771Y-195728628D01*
X206934342Y-195800057D01*
X206862914Y-195942914D01*
X208220057Y-197157200D02*
X208291485Y-197085771D01*
X208434342Y-196871485D01*
X208505771Y-196728628D01*
X208577200Y-196514342D01*
X208648628Y-196157200D01*
X208648628Y-195871485D01*
X208577200Y-195514342D01*
X208505771Y-195300057D01*
X208434342Y-195157200D01*
X208291485Y-194942914D01*
X208220057Y-194871485D01*
X209362914Y-196014342D02*
X210505771Y-196014342D01*
X212005771Y-196585771D02*
X211148628Y-196585771D01*
X211577200Y-196585771D02*
X211577200Y-195085771D01*
X211434342Y-195300057D01*
X211291485Y-195442914D01*
X211148628Y-195514342D01*
D10*
D11*
X177002200Y-191507200D02*
X285002200Y-191507200D01*
D10*
D12*
X264411485Y-193785771D02*
X263911485Y-193071485D01*
X263554342Y-193785771D02*
X263554342Y-192285771D01*
X264125771Y-192285771D01*
X264268628Y-192357200D01*
X264340057Y-192428628D01*
X264411485Y-192571485D01*
X264411485Y-192785771D01*
X264340057Y-192928628D01*
X264268628Y-193000057D01*
X264125771Y-193071485D01*
X263554342Y-193071485D01*
X265625771Y-193714342D02*
X265482914Y-193785771D01*
X265197200Y-193785771D01*
X265054342Y-193714342D01*
X264982914Y-193571485D01*
X264982914Y-193000057D01*
X265054342Y-192857200D01*
X265197200Y-192785771D01*
X265482914Y-192785771D01*
X265625771Y-192857200D01*
X265697200Y-193000057D01*
X265697200Y-193142914D01*
X264982914Y-193285771D01*
X266197200Y-192785771D02*
X266554342Y-193785771D01*
X266911485Y-192785771D01*
X267482914Y-193642914D02*
X267554342Y-193714342D01*
X267482914Y-193785771D01*
X267411485Y-193714342D01*
X267482914Y-193642914D01*
X267482914Y-193785771D01*
X267482914Y-192857200D02*
X267554342Y-192928628D01*
X267482914Y-193000057D01*
X267411485Y-192928628D01*
X267482914Y-192857200D01*
X267482914Y-193000057D01*
D10*
D11*
X178362914Y-193714342D02*
X178577200Y-193785771D01*
X178934342Y-193785771D01*
X179077200Y-193714342D01*
X179148628Y-193642914D01*
X179220057Y-193500057D01*
X179220057Y-193357200D01*
X179148628Y-193214342D01*
X179077200Y-193142914D01*
X178934342Y-193071485D01*
X178648628Y-193000057D01*
X178505771Y-192928628D01*
X178434342Y-192857200D01*
X178362914Y-192714342D01*
X178362914Y-192571485D01*
X178434342Y-192428628D01*
X178505771Y-192357200D01*
X178648628Y-192285771D01*
X179005771Y-192285771D01*
X179220057Y-192357200D01*
X179862914Y-193785771D02*
X179862914Y-192785771D01*
X179862914Y-192285771D02*
X179791485Y-192357200D01*
X179862914Y-192428628D01*
X179934342Y-192357200D01*
X179862914Y-192285771D01*
X179862914Y-192428628D01*
X180434342Y-192785771D02*
X181220057Y-192785771D01*
X180434342Y-193785771D01*
X181220057Y-193785771D01*
X182362914Y-193714342D02*
X182220057Y-193785771D01*
X181934342Y-193785771D01*
X181791485Y-193714342D01*
X181720057Y-193571485D01*
X181720057Y-193000057D01*
X181791485Y-192857200D01*
X181934342Y-192785771D01*
X182220057Y-192785771D01*
X182362914Y-192857200D01*
X182434342Y-193000057D01*
X182434342Y-193142914D01*
X181720057Y-193285771D01*
X183077200Y-193642914D02*
X183148628Y-193714342D01*
X183077200Y-193785771D01*
X183005771Y-193714342D01*
X183077200Y-193642914D01*
X183077200Y-193785771D01*
X183077200Y-192857200D02*
X183148628Y-192928628D01*
X183077200Y-193000057D01*
X183005771Y-192928628D01*
X183077200Y-192857200D01*
X183077200Y-193000057D01*
X184862914Y-193357200D02*
X185577200Y-193357200D01*
X184720057Y-193785771D02*
X185220057Y-192285771D01*
X185720057Y-193785771D01*
X186862914Y-192785771D02*
X186862914Y-193785771D01*
X186505771Y-192214342D02*
X186148628Y-193285771D01*
X187077200Y-193285771D01*
D10*
D11*
X263434342Y-196585771D02*
X263434342Y-195085771D01*
X264791485Y-196585771D02*
X264791485Y-195085771D01*
X264791485Y-196514342D02*
X264648628Y-196585771D01*
X264362914Y-196585771D01*
X264220057Y-196514342D01*
X264148628Y-196442914D01*
X264077200Y-196300057D01*
X264077200Y-195871485D01*
X264148628Y-195728628D01*
X264220057Y-195657200D01*
X264362914Y-195585771D01*
X264648628Y-195585771D01*
X264791485Y-195657200D01*
X265505771Y-196442914D02*
X265577200Y-196514342D01*
X265505771Y-196585771D01*
X265434342Y-196514342D01*
X265505771Y-196442914D01*
X265505771Y-196585771D01*
X265505771Y-195657200D02*
X265577200Y-195728628D01*
X265505771Y-195800057D01*
X265434342Y-195728628D01*
X265505771Y-195657200D01*
X265505771Y-195800057D01*
X268148628Y-196585771D02*
X267291485Y-196585771D01*
X267720057Y-196585771D02*
X267720057Y-195085771D01*
X267577200Y-195300057D01*
X267434342Y-195442914D01*
X267291485Y-195514342D01*
X269862914Y-195014342D02*
X268577200Y-196942914D01*
X271148628Y-196585771D02*
X270291485Y-196585771D01*
X270720057Y-196585771D02*
X270720057Y-195085771D01*
X270577200Y-195300057D01*
X270434342Y-195442914D01*
X270291485Y-195514342D01*
D10*
D11*
X177002200Y-187507200D02*
X285002200Y-187507200D01*
D10*
D13*
X178714580Y-188211961D02*
X179857438Y-188211961D01*
X179036009Y-190211961D02*
X179286009Y-188211961D01*
X180274104Y-190211961D02*
X180440771Y-188878628D01*
X180524104Y-188211961D02*
X180416961Y-188307200D01*
X180500295Y-188402438D01*
X180607438Y-188307200D01*
X180524104Y-188211961D01*
X180500295Y-188402438D01*
X181107438Y-188878628D02*
X181869342Y-188878628D01*
X181476485Y-188211961D02*
X181262200Y-189926247D01*
X181333628Y-190116723D01*
X181512200Y-190211961D01*
X181702676Y-190211961D01*
X182655057Y-190211961D02*
X182476485Y-190116723D01*
X182405057Y-189926247D01*
X182619342Y-188211961D01*
X184190771Y-190116723D02*
X183988390Y-190211961D01*
X183607438Y-190211961D01*
X183428866Y-190116723D01*
X183357438Y-189926247D01*
X183452676Y-189164342D01*
X183571723Y-188973866D01*
X183774104Y-188878628D01*
X184155057Y-188878628D01*
X184333628Y-188973866D01*
X184405057Y-189164342D01*
X184381247Y-189354819D01*
X183405057Y-189545295D01*
X185155057Y-190021485D02*
X185238390Y-190116723D01*
X185131247Y-190211961D01*
X185047914Y-190116723D01*
X185155057Y-190021485D01*
X185131247Y-190211961D01*
X185286009Y-188973866D02*
X185369342Y-189069104D01*
X185262200Y-189164342D01*
X185178866Y-189069104D01*
X185286009Y-188973866D01*
X185262200Y-189164342D01*
D10*
D11*
X178934342Y-185600057D02*
X178434342Y-185600057D01*
X178434342Y-186385771D02*
X178434342Y-184885771D01*
X179148628Y-184885771D01*
X179720057Y-186385771D02*
X179720057Y-185385771D01*
X179720057Y-184885771D02*
X179648628Y-184957200D01*
X179720057Y-185028628D01*
X179791485Y-184957200D01*
X179720057Y-184885771D01*
X179720057Y-185028628D01*
X180648628Y-186385771D02*
X180505771Y-186314342D01*
X180434342Y-186171485D01*
X180434342Y-184885771D01*
X181791485Y-186314342D02*
X181648628Y-186385771D01*
X181362914Y-186385771D01*
X181220057Y-186314342D01*
X181148628Y-186171485D01*
X181148628Y-185600057D01*
X181220057Y-185457200D01*
X181362914Y-185385771D01*
X181648628Y-185385771D01*
X181791485Y-185457200D01*
X181862914Y-185600057D01*
X181862914Y-185742914D01*
X181148628Y-185885771D01*
X182505771Y-186242914D02*
X182577200Y-186314342D01*
X182505771Y-186385771D01*
X182434342Y-186314342D01*
X182505771Y-186242914D01*
X182505771Y-186385771D01*
X182505771Y-185457200D02*
X182577200Y-185528628D01*
X182505771Y-185600057D01*
X182434342Y-185528628D01*
X182505771Y-185457200D01*
X182505771Y-185600057D01*
X184362914Y-186385771D02*
X184362914Y-184885771D01*
X184720057Y-184885771D01*
X184934342Y-184957200D01*
X185077200Y-185100057D01*
X185148628Y-185242914D01*
X185220057Y-185528628D01*
X185220057Y-185742914D01*
X185148628Y-186028628D01*
X185077200Y-186171485D01*
X184934342Y-186314342D01*
X184720057Y-186385771D01*
X184362914Y-186385771D01*
X185862914Y-186385771D02*
X185862914Y-184885771D01*
X186220057Y-184885771D01*
X186434342Y-184957200D01*
X186577200Y-185100057D01*
X186648628Y-185242914D01*
X186720057Y-185528628D01*
X186720057Y-185742914D01*
X186648628Y-186028628D01*
X186577200Y-186171485D01*
X186434342Y-186314342D01*
X186220057Y-186385771D01*
X185862914Y-186385771D01*
X187291485Y-186314342D02*
X187505771Y-186385771D01*
X187862914Y-186385771D01*
X188005771Y-186314342D01*
X188077200Y-186242914D01*
X188148628Y-186100057D01*
X188148628Y-185957200D01*
X188077200Y-185814342D01*
X188005771Y-185742914D01*
X187862914Y-185671485D01*
X187577200Y-185600057D01*
X187434342Y-185528628D01*
X187362914Y-185457200D01*
X187291485Y-185314342D01*
X187291485Y-185171485D01*
X187362914Y-185028628D01*
X187434342Y-184957200D01*
X187577200Y-184885771D01*
X187934342Y-184885771D01*
X188148628Y-184957200D01*
X188791485Y-186242914D02*
X188862914Y-186314342D01*
X188791485Y-186385771D01*
X188720057Y-186314342D01*
X188791485Y-186242914D01*
X188791485Y-186385771D01*
X189505771Y-186385771D02*
X189505771Y-184885771D01*
X189648628Y-185814342D02*
X190077200Y-186385771D01*
X190077200Y-185385771D02*
X189505771Y-185957200D01*
X190720057Y-186385771D02*
X190720057Y-185385771D01*
X190720057Y-184885771D02*
X190648628Y-184957200D01*
X190720057Y-185028628D01*
X190791485Y-184957200D01*
X190720057Y-184885771D01*
X190720057Y-185028628D01*
X192077200Y-186314342D02*
X191934342Y-186385771D01*
X191648628Y-186385771D01*
X191505771Y-186314342D01*
X191434342Y-186242914D01*
X191362914Y-186100057D01*
X191362914Y-185671485D01*
X191434342Y-185528628D01*
X191505771Y-185457200D01*
X191648628Y-185385771D01*
X191934342Y-185385771D01*
X192077200Y-185457200D01*
X193362914Y-186385771D02*
X193362914Y-185600057D01*
X193291485Y-185457200D01*
X193148628Y-185385771D01*
X192862914Y-185385771D01*
X192720057Y-185457200D01*
X193362914Y-186314342D02*
X193220057Y-186385771D01*
X192862914Y-186385771D01*
X192720057Y-186314342D01*
X192648628Y-186171485D01*
X192648628Y-186028628D01*
X192720057Y-185885771D01*
X192862914Y-185814342D01*
X193220057Y-185814342D01*
X193362914Y-185742914D01*
X194720057Y-186385771D02*
X194720057Y-184885771D01*
X194720057Y-186314342D02*
X194577200Y-186385771D01*
X194291485Y-186385771D01*
X194148628Y-186314342D01*
X194077200Y-186242914D01*
X194005771Y-186100057D01*
X194005771Y-185671485D01*
X194077200Y-185528628D01*
X194148628Y-185457200D01*
X194291485Y-185385771D01*
X194577200Y-185385771D01*
X194720057Y-185457200D01*
X195077200Y-186528628D02*
X196220057Y-186528628D01*
X196577200Y-185385771D02*
X196577200Y-186885771D01*
X196577200Y-185457200D02*
X196720057Y-185385771D01*
X197005771Y-185385771D01*
X197148628Y-185457200D01*
X197220057Y-185528628D01*
X197291485Y-185671485D01*
X197291485Y-186100057D01*
X197220057Y-186242914D01*
X197148628Y-186314342D01*
X197005771Y-186385771D01*
X196720057Y-186385771D01*
X196577200Y-186314342D01*
X198577200Y-186314342D02*
X198434342Y-186385771D01*
X198148628Y-186385771D01*
X198005771Y-186314342D01*
X197934342Y-186242914D01*
X197862914Y-186100057D01*
X197862914Y-185671485D01*
X197934342Y-185528628D01*
X198005771Y-185457200D01*
X198148628Y-185385771D01*
X198434342Y-185385771D01*
X198577200Y-185457200D01*
X199220057Y-186385771D02*
X199220057Y-184885771D01*
X199220057Y-185457200D02*
X199362914Y-185385771D01*
X199648628Y-185385771D01*
X199791485Y-185457200D01*
X199862914Y-185528628D01*
X199934342Y-185671485D01*
X199934342Y-186100057D01*
X199862914Y-186242914D01*
X199791485Y-186314342D01*
X199648628Y-186385771D01*
X199362914Y-186385771D01*
X199220057Y-186314342D01*
D10*
D11*
X177002200Y-181507200D02*
X285002200Y-181507200D01*
D10*
D11*
X178362914Y-183614342D02*
X178577200Y-183685771D01*
X178934342Y-183685771D01*
X179077200Y-183614342D01*
X179148628Y-183542914D01*
X179220057Y-183400057D01*
X179220057Y-183257200D01*
X179148628Y-183114342D01*
X179077200Y-183042914D01*
X178934342Y-182971485D01*
X178648628Y-182900057D01*
X178505771Y-182828628D01*
X178434342Y-182757200D01*
X178362914Y-182614342D01*
X178362914Y-182471485D01*
X178434342Y-182328628D01*
X178505771Y-182257200D01*
X178648628Y-182185771D01*
X179005771Y-182185771D01*
X179220057Y-182257200D01*
X179862914Y-183685771D02*
X179862914Y-182185771D01*
X180505771Y-183685771D02*
X180505771Y-182900057D01*
X180434342Y-182757200D01*
X180291485Y-182685771D01*
X180077200Y-182685771D01*
X179934342Y-182757200D01*
X179862914Y-182828628D01*
X181791485Y-183614342D02*
X181648628Y-183685771D01*
X181362914Y-183685771D01*
X181220057Y-183614342D01*
X181148628Y-183471485D01*
X181148628Y-182900057D01*
X181220057Y-182757200D01*
X181362914Y-182685771D01*
X181648628Y-182685771D01*
X181791485Y-182757200D01*
X181862914Y-182900057D01*
X181862914Y-183042914D01*
X181148628Y-183185771D01*
X183077200Y-183614342D02*
X182934342Y-183685771D01*
X182648628Y-183685771D01*
X182505771Y-183614342D01*
X182434342Y-183471485D01*
X182434342Y-182900057D01*
X182505771Y-182757200D01*
X182648628Y-182685771D01*
X182934342Y-182685771D01*
X183077200Y-182757200D01*
X183148628Y-182900057D01*
X183148628Y-183042914D01*
X182434342Y-183185771D01*
X183577200Y-182685771D02*
X184148628Y-182685771D01*
X183791485Y-182185771D02*
X183791485Y-183471485D01*
X183862914Y-183614342D01*
X184005771Y-183685771D01*
X184148628Y-183685771D01*
X184648628Y-183542914D02*
X184720057Y-183614342D01*
X184648628Y-183685771D01*
X184577200Y-183614342D01*
X184648628Y-183542914D01*
X184648628Y-183685771D01*
X184648628Y-182757200D02*
X184720057Y-182828628D01*
X184648628Y-182900057D01*
X184577200Y-182828628D01*
X184648628Y-182757200D01*
X184648628Y-182900057D01*
D10*
D11*
X197002200Y-191507200D02*
X197002200Y-194507200D01*
D10*
D11*
X261002200Y-191507200D02*
X261002200Y-198007200D01*
%TO.C,C38*%
G36*
G01*
X188756250Y-74937500D02*
X188243750Y-74937500D01*
G75*
G02*
X188025000Y-74718750I0J218750D01*
G01*
X188025000Y-74281250D01*
G75*
G02*
X188243750Y-74062500I218750J0D01*
G01*
X188756250Y-74062500D01*
G75*
G02*
X188975000Y-74281250I0J-218750D01*
G01*
X188975000Y-74718750D01*
G75*
G02*
X188756250Y-74937500I-218750J0D01*
G01*
G37*
G36*
G01*
X188756250Y-76512500D02*
X188243750Y-76512500D01*
G75*
G02*
X188025000Y-76293750I0J218750D01*
G01*
X188025000Y-75856250D01*
G75*
G02*
X188243750Y-75637500I218750J0D01*
G01*
X188756250Y-75637500D01*
G75*
G02*
X188975000Y-75856250I0J-218750D01*
G01*
X188975000Y-76293750D01*
G75*
G02*
X188756250Y-76512500I-218750J0D01*
G01*
G37*
%TD*%
%TO.C,R2*%
G36*
G01*
X142756250Y-112900000D02*
X142243750Y-112900000D01*
G75*
G02*
X142025000Y-112681250I0J218750D01*
G01*
X142025000Y-112243750D01*
G75*
G02*
X142243750Y-112025000I218750J0D01*
G01*
X142756250Y-112025000D01*
G75*
G02*
X142975000Y-112243750I0J-218750D01*
G01*
X142975000Y-112681250D01*
G75*
G02*
X142756250Y-112900000I-218750J0D01*
G01*
G37*
G36*
G01*
X142756250Y-114475000D02*
X142243750Y-114475000D01*
G75*
G02*
X142025000Y-114256250I0J218750D01*
G01*
X142025000Y-113818750D01*
G75*
G02*
X142243750Y-113600000I218750J0D01*
G01*
X142756250Y-113600000D01*
G75*
G02*
X142975000Y-113818750I0J-218750D01*
G01*
X142975000Y-114256250D01*
G75*
G02*
X142756250Y-114475000I-218750J0D01*
G01*
G37*
%TD*%
%TO.C,R21*%
G36*
G01*
X146812500Y-116456250D02*
X146812500Y-115943750D01*
G75*
G02*
X147031250Y-115725000I218750J0D01*
G01*
X147468750Y-115725000D01*
G75*
G02*
X147687500Y-115943750I0J-218750D01*
G01*
X147687500Y-116456250D01*
G75*
G02*
X147468750Y-116675000I-218750J0D01*
G01*
X147031250Y-116675000D01*
G75*
G02*
X146812500Y-116456250I0J218750D01*
G01*
G37*
G36*
G01*
X145237500Y-116456250D02*
X145237500Y-115943750D01*
G75*
G02*
X145456250Y-115725000I218750J0D01*
G01*
X145893750Y-115725000D01*
G75*
G02*
X146112500Y-115943750I0J-218750D01*
G01*
X146112500Y-116456250D01*
G75*
G02*
X145893750Y-116675000I-218750J0D01*
G01*
X145456250Y-116675000D01*
G75*
G02*
X145237500Y-116456250I0J218750D01*
G01*
G37*
%TD*%
D14*
%TO.C,J6*%
X141175000Y-45400000D03*
X146825000Y-45400000D03*
%TD*%
%TO.C,J5*%
X189175000Y-45400000D03*
X194825000Y-45400000D03*
%TD*%
%TO.C,J4*%
X165175000Y-45400000D03*
X170825000Y-45400000D03*
%TD*%
%TO.C,RBIAS1*%
G36*
G01*
X178250000Y-70756250D02*
X178250000Y-70243750D01*
G75*
G02*
X178468750Y-70025000I218750J0D01*
G01*
X178906250Y-70025000D01*
G75*
G02*
X179125000Y-70243750I0J-218750D01*
G01*
X179125000Y-70756250D01*
G75*
G02*
X178906250Y-70975000I-218750J0D01*
G01*
X178468750Y-70975000D01*
G75*
G02*
X178250000Y-70756250I0J218750D01*
G01*
G37*
G36*
G01*
X176675000Y-70756250D02*
X176675000Y-70243750D01*
G75*
G02*
X176893750Y-70025000I218750J0D01*
G01*
X177331250Y-70025000D01*
G75*
G02*
X177550000Y-70243750I0J-218750D01*
G01*
X177550000Y-70756250D01*
G75*
G02*
X177331250Y-70975000I-218750J0D01*
G01*
X176893750Y-70975000D01*
G75*
G02*
X176675000Y-70756250I0J218750D01*
G01*
G37*
%TD*%
%TO.C,R20*%
G36*
G01*
X178243750Y-91562500D02*
X178756250Y-91562500D01*
G75*
G02*
X178975000Y-91781250I0J-218750D01*
G01*
X178975000Y-92218750D01*
G75*
G02*
X178756250Y-92437500I-218750J0D01*
G01*
X178243750Y-92437500D01*
G75*
G02*
X178025000Y-92218750I0J218750D01*
G01*
X178025000Y-91781250D01*
G75*
G02*
X178243750Y-91562500I218750J0D01*
G01*
G37*
G36*
G01*
X178243750Y-89987500D02*
X178756250Y-89987500D01*
G75*
G02*
X178975000Y-90206250I0J-218750D01*
G01*
X178975000Y-90643750D01*
G75*
G02*
X178756250Y-90862500I-218750J0D01*
G01*
X178243750Y-90862500D01*
G75*
G02*
X178025000Y-90643750I0J218750D01*
G01*
X178025000Y-90206250D01*
G75*
G02*
X178243750Y-89987500I218750J0D01*
G01*
G37*
%TD*%
%TO.C,R19*%
G36*
G01*
X184262500Y-70756250D02*
X184262500Y-70243750D01*
G75*
G02*
X184481250Y-70025000I218750J0D01*
G01*
X184918750Y-70025000D01*
G75*
G02*
X185137500Y-70243750I0J-218750D01*
G01*
X185137500Y-70756250D01*
G75*
G02*
X184918750Y-70975000I-218750J0D01*
G01*
X184481250Y-70975000D01*
G75*
G02*
X184262500Y-70756250I0J218750D01*
G01*
G37*
G36*
G01*
X182687500Y-70756250D02*
X182687500Y-70243750D01*
G75*
G02*
X182906250Y-70025000I218750J0D01*
G01*
X183343750Y-70025000D01*
G75*
G02*
X183562500Y-70243750I0J-218750D01*
G01*
X183562500Y-70756250D01*
G75*
G02*
X183343750Y-70975000I-218750J0D01*
G01*
X182906250Y-70975000D01*
G75*
G02*
X182687500Y-70756250I0J218750D01*
G01*
G37*
%TD*%
%TO.C,R18*%
G36*
G01*
X176743750Y-91562500D02*
X177256250Y-91562500D01*
G75*
G02*
X177475000Y-91781250I0J-218750D01*
G01*
X177475000Y-92218750D01*
G75*
G02*
X177256250Y-92437500I-218750J0D01*
G01*
X176743750Y-92437500D01*
G75*
G02*
X176525000Y-92218750I0J218750D01*
G01*
X176525000Y-91781250D01*
G75*
G02*
X176743750Y-91562500I218750J0D01*
G01*
G37*
G36*
G01*
X176743750Y-89987500D02*
X177256250Y-89987500D01*
G75*
G02*
X177475000Y-90206250I0J-218750D01*
G01*
X177475000Y-90643750D01*
G75*
G02*
X177256250Y-90862500I-218750J0D01*
G01*
X176743750Y-90862500D01*
G75*
G02*
X176525000Y-90643750I0J218750D01*
G01*
X176525000Y-90206250D01*
G75*
G02*
X176743750Y-89987500I218750J0D01*
G01*
G37*
%TD*%
%TO.C,R15*%
G36*
G01*
X175243750Y-91562500D02*
X175756250Y-91562500D01*
G75*
G02*
X175975000Y-91781250I0J-218750D01*
G01*
X175975000Y-92218750D01*
G75*
G02*
X175756250Y-92437500I-218750J0D01*
G01*
X175243750Y-92437500D01*
G75*
G02*
X175025000Y-92218750I0J218750D01*
G01*
X175025000Y-91781250D01*
G75*
G02*
X175243750Y-91562500I218750J0D01*
G01*
G37*
G36*
G01*
X175243750Y-89987500D02*
X175756250Y-89987500D01*
G75*
G02*
X175975000Y-90206250I0J-218750D01*
G01*
X175975000Y-90643750D01*
G75*
G02*
X175756250Y-90862500I-218750J0D01*
G01*
X175243750Y-90862500D01*
G75*
G02*
X175025000Y-90643750I0J218750D01*
G01*
X175025000Y-90206250D01*
G75*
G02*
X175243750Y-89987500I218750J0D01*
G01*
G37*
%TD*%
%TO.C,R13*%
G36*
G01*
X182743750Y-78962500D02*
X183256250Y-78962500D01*
G75*
G02*
X183475000Y-79181250I0J-218750D01*
G01*
X183475000Y-79618750D01*
G75*
G02*
X183256250Y-79837500I-218750J0D01*
G01*
X182743750Y-79837500D01*
G75*
G02*
X182525000Y-79618750I0J218750D01*
G01*
X182525000Y-79181250D01*
G75*
G02*
X182743750Y-78962500I218750J0D01*
G01*
G37*
G36*
G01*
X182743750Y-77387500D02*
X183256250Y-77387500D01*
G75*
G02*
X183475000Y-77606250I0J-218750D01*
G01*
X183475000Y-78043750D01*
G75*
G02*
X183256250Y-78262500I-218750J0D01*
G01*
X182743750Y-78262500D01*
G75*
G02*
X182525000Y-78043750I0J218750D01*
G01*
X182525000Y-77606250D01*
G75*
G02*
X182743750Y-77387500I218750J0D01*
G01*
G37*
%TD*%
%TO.C,R12*%
G36*
G01*
X173743750Y-91562500D02*
X174256250Y-91562500D01*
G75*
G02*
X174475000Y-91781250I0J-218750D01*
G01*
X174475000Y-92218750D01*
G75*
G02*
X174256250Y-92437500I-218750J0D01*
G01*
X173743750Y-92437500D01*
G75*
G02*
X173525000Y-92218750I0J218750D01*
G01*
X173525000Y-91781250D01*
G75*
G02*
X173743750Y-91562500I218750J0D01*
G01*
G37*
G36*
G01*
X173743750Y-89987500D02*
X174256250Y-89987500D01*
G75*
G02*
X174475000Y-90206250I0J-218750D01*
G01*
X174475000Y-90643750D01*
G75*
G02*
X174256250Y-90862500I-218750J0D01*
G01*
X173743750Y-90862500D01*
G75*
G02*
X173525000Y-90643750I0J218750D01*
G01*
X173525000Y-90206250D01*
G75*
G02*
X173743750Y-89987500I218750J0D01*
G01*
G37*
%TD*%
%TO.C,C49*%
G36*
G01*
X180537500Y-70243750D02*
X180537500Y-70756250D01*
G75*
G02*
X180318750Y-70975000I-218750J0D01*
G01*
X179881250Y-70975000D01*
G75*
G02*
X179662500Y-70756250I0J218750D01*
G01*
X179662500Y-70243750D01*
G75*
G02*
X179881250Y-70025000I218750J0D01*
G01*
X180318750Y-70025000D01*
G75*
G02*
X180537500Y-70243750I0J-218750D01*
G01*
G37*
G36*
G01*
X182112500Y-70243750D02*
X182112500Y-70756250D01*
G75*
G02*
X181893750Y-70975000I-218750J0D01*
G01*
X181456250Y-70975000D01*
G75*
G02*
X181237500Y-70756250I0J218750D01*
G01*
X181237500Y-70243750D01*
G75*
G02*
X181456250Y-70025000I218750J0D01*
G01*
X181893750Y-70025000D01*
G75*
G02*
X182112500Y-70243750I0J-218750D01*
G01*
G37*
%TD*%
%TO.C,C48*%
G36*
G01*
X178062500Y-79756250D02*
X178062500Y-79243750D01*
G75*
G02*
X178281250Y-79025000I218750J0D01*
G01*
X178718750Y-79025000D01*
G75*
G02*
X178937500Y-79243750I0J-218750D01*
G01*
X178937500Y-79756250D01*
G75*
G02*
X178718750Y-79975000I-218750J0D01*
G01*
X178281250Y-79975000D01*
G75*
G02*
X178062500Y-79756250I0J218750D01*
G01*
G37*
G36*
G01*
X176487500Y-79756250D02*
X176487500Y-79243750D01*
G75*
G02*
X176706250Y-79025000I218750J0D01*
G01*
X177143750Y-79025000D01*
G75*
G02*
X177362500Y-79243750I0J-218750D01*
G01*
X177362500Y-79756250D01*
G75*
G02*
X177143750Y-79975000I-218750J0D01*
G01*
X176706250Y-79975000D01*
G75*
G02*
X176487500Y-79756250I0J218750D01*
G01*
G37*
%TD*%
%TO.C,C47*%
G36*
G01*
X182743750Y-75962500D02*
X183256250Y-75962500D01*
G75*
G02*
X183475000Y-76181250I0J-218750D01*
G01*
X183475000Y-76618750D01*
G75*
G02*
X183256250Y-76837500I-218750J0D01*
G01*
X182743750Y-76837500D01*
G75*
G02*
X182525000Y-76618750I0J218750D01*
G01*
X182525000Y-76181250D01*
G75*
G02*
X182743750Y-75962500I218750J0D01*
G01*
G37*
G36*
G01*
X182743750Y-74387500D02*
X183256250Y-74387500D01*
G75*
G02*
X183475000Y-74606250I0J-218750D01*
G01*
X183475000Y-75043750D01*
G75*
G02*
X183256250Y-75262500I-218750J0D01*
G01*
X182743750Y-75262500D01*
G75*
G02*
X182525000Y-75043750I0J218750D01*
G01*
X182525000Y-74606250D01*
G75*
G02*
X182743750Y-74387500I218750J0D01*
G01*
G37*
%TD*%
%TO.C,C46*%
G36*
G01*
X181050000Y-79656250D02*
X181050000Y-79143750D01*
G75*
G02*
X181268750Y-78925000I218750J0D01*
G01*
X181706250Y-78925000D01*
G75*
G02*
X181925000Y-79143750I0J-218750D01*
G01*
X181925000Y-79656250D01*
G75*
G02*
X181706250Y-79875000I-218750J0D01*
G01*
X181268750Y-79875000D01*
G75*
G02*
X181050000Y-79656250I0J218750D01*
G01*
G37*
G36*
G01*
X179475000Y-79656250D02*
X179475000Y-79143750D01*
G75*
G02*
X179693750Y-78925000I218750J0D01*
G01*
X180131250Y-78925000D01*
G75*
G02*
X180350000Y-79143750I0J-218750D01*
G01*
X180350000Y-79656250D01*
G75*
G02*
X180131250Y-79875000I-218750J0D01*
G01*
X179693750Y-79875000D01*
G75*
G02*
X179475000Y-79656250I0J218750D01*
G01*
G37*
%TD*%
%TO.C,C45*%
G36*
G01*
X183362500Y-89743750D02*
X183362500Y-90256250D01*
G75*
G02*
X183143750Y-90475000I-218750J0D01*
G01*
X182706250Y-90475000D01*
G75*
G02*
X182487500Y-90256250I0J218750D01*
G01*
X182487500Y-89743750D01*
G75*
G02*
X182706250Y-89525000I218750J0D01*
G01*
X183143750Y-89525000D01*
G75*
G02*
X183362500Y-89743750I0J-218750D01*
G01*
G37*
G36*
G01*
X184937500Y-89743750D02*
X184937500Y-90256250D01*
G75*
G02*
X184718750Y-90475000I-218750J0D01*
G01*
X184281250Y-90475000D01*
G75*
G02*
X184062500Y-90256250I0J218750D01*
G01*
X184062500Y-89743750D01*
G75*
G02*
X184281250Y-89525000I218750J0D01*
G01*
X184718750Y-89525000D01*
G75*
G02*
X184937500Y-89743750I0J-218750D01*
G01*
G37*
%TD*%
%TO.C,C44*%
G36*
G01*
X181862500Y-126993750D02*
X181862500Y-127506250D01*
G75*
G02*
X181643750Y-127725000I-218750J0D01*
G01*
X181206250Y-127725000D01*
G75*
G02*
X180987500Y-127506250I0J218750D01*
G01*
X180987500Y-126993750D01*
G75*
G02*
X181206250Y-126775000I218750J0D01*
G01*
X181643750Y-126775000D01*
G75*
G02*
X181862500Y-126993750I0J-218750D01*
G01*
G37*
G36*
G01*
X183437500Y-126993750D02*
X183437500Y-127506250D01*
G75*
G02*
X183218750Y-127725000I-218750J0D01*
G01*
X182781250Y-127725000D01*
G75*
G02*
X182562500Y-127506250I0J218750D01*
G01*
X182562500Y-126993750D01*
G75*
G02*
X182781250Y-126775000I218750J0D01*
G01*
X183218750Y-126775000D01*
G75*
G02*
X183437500Y-126993750I0J-218750D01*
G01*
G37*
%TD*%
%TO.C,C43*%
G36*
G01*
X175812500Y-128256250D02*
X175812500Y-127743750D01*
G75*
G02*
X176031250Y-127525000I218750J0D01*
G01*
X176468750Y-127525000D01*
G75*
G02*
X176687500Y-127743750I0J-218750D01*
G01*
X176687500Y-128256250D01*
G75*
G02*
X176468750Y-128475000I-218750J0D01*
G01*
X176031250Y-128475000D01*
G75*
G02*
X175812500Y-128256250I0J218750D01*
G01*
G37*
G36*
G01*
X174237500Y-128256250D02*
X174237500Y-127743750D01*
G75*
G02*
X174456250Y-127525000I218750J0D01*
G01*
X174893750Y-127525000D01*
G75*
G02*
X175112500Y-127743750I0J-218750D01*
G01*
X175112500Y-128256250D01*
G75*
G02*
X174893750Y-128475000I-218750J0D01*
G01*
X174456250Y-128475000D01*
G75*
G02*
X174237500Y-128256250I0J218750D01*
G01*
G37*
%TD*%
%TO.C,C42*%
G36*
G01*
X173506250Y-118687500D02*
X172993750Y-118687500D01*
G75*
G02*
X172775000Y-118468750I0J218750D01*
G01*
X172775000Y-118031250D01*
G75*
G02*
X172993750Y-117812500I218750J0D01*
G01*
X173506250Y-117812500D01*
G75*
G02*
X173725000Y-118031250I0J-218750D01*
G01*
X173725000Y-118468750D01*
G75*
G02*
X173506250Y-118687500I-218750J0D01*
G01*
G37*
G36*
G01*
X173506250Y-120262500D02*
X172993750Y-120262500D01*
G75*
G02*
X172775000Y-120043750I0J218750D01*
G01*
X172775000Y-119606250D01*
G75*
G02*
X172993750Y-119387500I218750J0D01*
G01*
X173506250Y-119387500D01*
G75*
G02*
X173725000Y-119606250I0J-218750D01*
G01*
X173725000Y-120043750D01*
G75*
G02*
X173506250Y-120262500I-218750J0D01*
G01*
G37*
%TD*%
%TO.C,C41*%
G36*
G01*
X184756250Y-75187500D02*
X184243750Y-75187500D01*
G75*
G02*
X184025000Y-74968750I0J218750D01*
G01*
X184025000Y-74531250D01*
G75*
G02*
X184243750Y-74312500I218750J0D01*
G01*
X184756250Y-74312500D01*
G75*
G02*
X184975000Y-74531250I0J-218750D01*
G01*
X184975000Y-74968750D01*
G75*
G02*
X184756250Y-75187500I-218750J0D01*
G01*
G37*
G36*
G01*
X184756250Y-76762500D02*
X184243750Y-76762500D01*
G75*
G02*
X184025000Y-76543750I0J218750D01*
G01*
X184025000Y-76106250D01*
G75*
G02*
X184243750Y-75887500I218750J0D01*
G01*
X184756250Y-75887500D01*
G75*
G02*
X184975000Y-76106250I0J-218750D01*
G01*
X184975000Y-76543750D01*
G75*
G02*
X184756250Y-76762500I-218750J0D01*
G01*
G37*
%TD*%
%TO.C,C40*%
G36*
G01*
X176312500Y-115256250D02*
X176312500Y-114743750D01*
G75*
G02*
X176531250Y-114525000I218750J0D01*
G01*
X176968750Y-114525000D01*
G75*
G02*
X177187500Y-114743750I0J-218750D01*
G01*
X177187500Y-115256250D01*
G75*
G02*
X176968750Y-115475000I-218750J0D01*
G01*
X176531250Y-115475000D01*
G75*
G02*
X176312500Y-115256250I0J218750D01*
G01*
G37*
G36*
G01*
X174737500Y-115256250D02*
X174737500Y-114743750D01*
G75*
G02*
X174956250Y-114525000I218750J0D01*
G01*
X175393750Y-114525000D01*
G75*
G02*
X175612500Y-114743750I0J-218750D01*
G01*
X175612500Y-115256250D01*
G75*
G02*
X175393750Y-115475000I-218750J0D01*
G01*
X174956250Y-115475000D01*
G75*
G02*
X174737500Y-115256250I0J218750D01*
G01*
G37*
%TD*%
%TO.C,C37*%
G36*
G01*
X182537500Y-115443750D02*
X182537500Y-115956250D01*
G75*
G02*
X182318750Y-116175000I-218750J0D01*
G01*
X181881250Y-116175000D01*
G75*
G02*
X181662500Y-115956250I0J218750D01*
G01*
X181662500Y-115443750D01*
G75*
G02*
X181881250Y-115225000I218750J0D01*
G01*
X182318750Y-115225000D01*
G75*
G02*
X182537500Y-115443750I0J-218750D01*
G01*
G37*
G36*
G01*
X184112500Y-115443750D02*
X184112500Y-115956250D01*
G75*
G02*
X183893750Y-116175000I-218750J0D01*
G01*
X183456250Y-116175000D01*
G75*
G02*
X183237500Y-115956250I0J218750D01*
G01*
X183237500Y-115443750D01*
G75*
G02*
X183456250Y-115225000I218750J0D01*
G01*
X183893750Y-115225000D01*
G75*
G02*
X184112500Y-115443750I0J-218750D01*
G01*
G37*
%TD*%
%TO.C,C36*%
G36*
G01*
X172743750Y-72062500D02*
X173256250Y-72062500D01*
G75*
G02*
X173475000Y-72281250I0J-218750D01*
G01*
X173475000Y-72718750D01*
G75*
G02*
X173256250Y-72937500I-218750J0D01*
G01*
X172743750Y-72937500D01*
G75*
G02*
X172525000Y-72718750I0J218750D01*
G01*
X172525000Y-72281250D01*
G75*
G02*
X172743750Y-72062500I218750J0D01*
G01*
G37*
G36*
G01*
X172743750Y-70487500D02*
X173256250Y-70487500D01*
G75*
G02*
X173475000Y-70706250I0J-218750D01*
G01*
X173475000Y-71143750D01*
G75*
G02*
X173256250Y-71362500I-218750J0D01*
G01*
X172743750Y-71362500D01*
G75*
G02*
X172525000Y-71143750I0J218750D01*
G01*
X172525000Y-70706250D01*
G75*
G02*
X172743750Y-70487500I218750J0D01*
G01*
G37*
%TD*%
%TO.C,C34*%
G36*
G01*
X173506250Y-121687500D02*
X172993750Y-121687500D01*
G75*
G02*
X172775000Y-121468750I0J218750D01*
G01*
X172775000Y-121031250D01*
G75*
G02*
X172993750Y-120812500I218750J0D01*
G01*
X173506250Y-120812500D01*
G75*
G02*
X173725000Y-121031250I0J-218750D01*
G01*
X173725000Y-121468750D01*
G75*
G02*
X173506250Y-121687500I-218750J0D01*
G01*
G37*
G36*
G01*
X173506250Y-123262500D02*
X172993750Y-123262500D01*
G75*
G02*
X172775000Y-123043750I0J218750D01*
G01*
X172775000Y-122606250D01*
G75*
G02*
X172993750Y-122387500I218750J0D01*
G01*
X173506250Y-122387500D01*
G75*
G02*
X173725000Y-122606250I0J-218750D01*
G01*
X173725000Y-123043750D01*
G75*
G02*
X173506250Y-123262500I-218750J0D01*
G01*
G37*
%TD*%
%TO.C,C33*%
G36*
G01*
X173256250Y-74400000D02*
X172743750Y-74400000D01*
G75*
G02*
X172525000Y-74181250I0J218750D01*
G01*
X172525000Y-73743750D01*
G75*
G02*
X172743750Y-73525000I218750J0D01*
G01*
X173256250Y-73525000D01*
G75*
G02*
X173475000Y-73743750I0J-218750D01*
G01*
X173475000Y-74181250D01*
G75*
G02*
X173256250Y-74400000I-218750J0D01*
G01*
G37*
G36*
G01*
X173256250Y-75975000D02*
X172743750Y-75975000D01*
G75*
G02*
X172525000Y-75756250I0J218750D01*
G01*
X172525000Y-75318750D01*
G75*
G02*
X172743750Y-75100000I218750J0D01*
G01*
X173256250Y-75100000D01*
G75*
G02*
X173475000Y-75318750I0J-218750D01*
G01*
X173475000Y-75756250D01*
G75*
G02*
X173256250Y-75975000I-218750J0D01*
G01*
G37*
%TD*%
%TO.C,C32*%
G36*
G01*
X188756250Y-78362500D02*
X188243750Y-78362500D01*
G75*
G02*
X188025000Y-78143750I0J218750D01*
G01*
X188025000Y-77706250D01*
G75*
G02*
X188243750Y-77487500I218750J0D01*
G01*
X188756250Y-77487500D01*
G75*
G02*
X188975000Y-77706250I0J-218750D01*
G01*
X188975000Y-78143750D01*
G75*
G02*
X188756250Y-78362500I-218750J0D01*
G01*
G37*
G36*
G01*
X188756250Y-79937500D02*
X188243750Y-79937500D01*
G75*
G02*
X188025000Y-79718750I0J218750D01*
G01*
X188025000Y-79281250D01*
G75*
G02*
X188243750Y-79062500I218750J0D01*
G01*
X188756250Y-79062500D01*
G75*
G02*
X188975000Y-79281250I0J-218750D01*
G01*
X188975000Y-79718750D01*
G75*
G02*
X188756250Y-79937500I-218750J0D01*
G01*
G37*
%TD*%
%TO.C,C31*%
G36*
G01*
X186006250Y-121612500D02*
X185493750Y-121612500D01*
G75*
G02*
X185275000Y-121393750I0J218750D01*
G01*
X185275000Y-120956250D01*
G75*
G02*
X185493750Y-120737500I218750J0D01*
G01*
X186006250Y-120737500D01*
G75*
G02*
X186225000Y-120956250I0J-218750D01*
G01*
X186225000Y-121393750D01*
G75*
G02*
X186006250Y-121612500I-218750J0D01*
G01*
G37*
G36*
G01*
X186006250Y-123187500D02*
X185493750Y-123187500D01*
G75*
G02*
X185275000Y-122968750I0J218750D01*
G01*
X185275000Y-122531250D01*
G75*
G02*
X185493750Y-122312500I218750J0D01*
G01*
X186006250Y-122312500D01*
G75*
G02*
X186225000Y-122531250I0J-218750D01*
G01*
X186225000Y-122968750D01*
G75*
G02*
X186006250Y-123187500I-218750J0D01*
G01*
G37*
%TD*%
%TO.C,C30*%
G36*
G01*
X182437500Y-80743750D02*
X182437500Y-81256250D01*
G75*
G02*
X182218750Y-81475000I-218750J0D01*
G01*
X181781250Y-81475000D01*
G75*
G02*
X181562500Y-81256250I0J218750D01*
G01*
X181562500Y-80743750D01*
G75*
G02*
X181781250Y-80525000I218750J0D01*
G01*
X182218750Y-80525000D01*
G75*
G02*
X182437500Y-80743750I0J-218750D01*
G01*
G37*
G36*
G01*
X184012500Y-80743750D02*
X184012500Y-81256250D01*
G75*
G02*
X183793750Y-81475000I-218750J0D01*
G01*
X183356250Y-81475000D01*
G75*
G02*
X183137500Y-81256250I0J218750D01*
G01*
X183137500Y-80743750D01*
G75*
G02*
X183356250Y-80525000I218750J0D01*
G01*
X183793750Y-80525000D01*
G75*
G02*
X184012500Y-80743750I0J-218750D01*
G01*
G37*
%TD*%
%TO.C,C29*%
G36*
G01*
X174243750Y-80562500D02*
X174756250Y-80562500D01*
G75*
G02*
X174975000Y-80781250I0J-218750D01*
G01*
X174975000Y-81218750D01*
G75*
G02*
X174756250Y-81437500I-218750J0D01*
G01*
X174243750Y-81437500D01*
G75*
G02*
X174025000Y-81218750I0J218750D01*
G01*
X174025000Y-80781250D01*
G75*
G02*
X174243750Y-80562500I218750J0D01*
G01*
G37*
G36*
G01*
X174243750Y-78987500D02*
X174756250Y-78987500D01*
G75*
G02*
X174975000Y-79206250I0J-218750D01*
G01*
X174975000Y-79643750D01*
G75*
G02*
X174756250Y-79862500I-218750J0D01*
G01*
X174243750Y-79862500D01*
G75*
G02*
X174025000Y-79643750I0J218750D01*
G01*
X174025000Y-79206250D01*
G75*
G02*
X174243750Y-78987500I218750J0D01*
G01*
G37*
%TD*%
%TO.C,C28*%
G36*
G01*
X172856250Y-99462500D02*
X172343750Y-99462500D01*
G75*
G02*
X172125000Y-99243750I0J218750D01*
G01*
X172125000Y-98806250D01*
G75*
G02*
X172343750Y-98587500I218750J0D01*
G01*
X172856250Y-98587500D01*
G75*
G02*
X173075000Y-98806250I0J-218750D01*
G01*
X173075000Y-99243750D01*
G75*
G02*
X172856250Y-99462500I-218750J0D01*
G01*
G37*
G36*
G01*
X172856250Y-101037500D02*
X172343750Y-101037500D01*
G75*
G02*
X172125000Y-100818750I0J218750D01*
G01*
X172125000Y-100381250D01*
G75*
G02*
X172343750Y-100162500I218750J0D01*
G01*
X172856250Y-100162500D01*
G75*
G02*
X173075000Y-100381250I0J-218750D01*
G01*
X173075000Y-100818750D01*
G75*
G02*
X172856250Y-101037500I-218750J0D01*
G01*
G37*
%TD*%
%TO.C,C27*%
G36*
G01*
X186343750Y-99737500D02*
X186856250Y-99737500D01*
G75*
G02*
X187075000Y-99956250I0J-218750D01*
G01*
X187075000Y-100393750D01*
G75*
G02*
X186856250Y-100612500I-218750J0D01*
G01*
X186343750Y-100612500D01*
G75*
G02*
X186125000Y-100393750I0J218750D01*
G01*
X186125000Y-99956250D01*
G75*
G02*
X186343750Y-99737500I218750J0D01*
G01*
G37*
G36*
G01*
X186343750Y-98162500D02*
X186856250Y-98162500D01*
G75*
G02*
X187075000Y-98381250I0J-218750D01*
G01*
X187075000Y-98818750D01*
G75*
G02*
X186856250Y-99037500I-218750J0D01*
G01*
X186343750Y-99037500D01*
G75*
G02*
X186125000Y-98818750I0J218750D01*
G01*
X186125000Y-98381250D01*
G75*
G02*
X186343750Y-98162500I218750J0D01*
G01*
G37*
%TD*%
%TO.C,C25*%
G36*
G01*
X172056250Y-92037500D02*
X171543750Y-92037500D01*
G75*
G02*
X171325000Y-91818750I0J218750D01*
G01*
X171325000Y-91381250D01*
G75*
G02*
X171543750Y-91162500I218750J0D01*
G01*
X172056250Y-91162500D01*
G75*
G02*
X172275000Y-91381250I0J-218750D01*
G01*
X172275000Y-91818750D01*
G75*
G02*
X172056250Y-92037500I-218750J0D01*
G01*
G37*
G36*
G01*
X172056250Y-93612500D02*
X171543750Y-93612500D01*
G75*
G02*
X171325000Y-93393750I0J218750D01*
G01*
X171325000Y-92956250D01*
G75*
G02*
X171543750Y-92737500I218750J0D01*
G01*
X172056250Y-92737500D01*
G75*
G02*
X172275000Y-92956250I0J-218750D01*
G01*
X172275000Y-93393750D01*
G75*
G02*
X172056250Y-93612500I-218750J0D01*
G01*
G37*
%TD*%
%TO.C,C24*%
G36*
G01*
X175850000Y-67256250D02*
X175850000Y-66743750D01*
G75*
G02*
X176068750Y-66525000I218750J0D01*
G01*
X176506250Y-66525000D01*
G75*
G02*
X176725000Y-66743750I0J-218750D01*
G01*
X176725000Y-67256250D01*
G75*
G02*
X176506250Y-67475000I-218750J0D01*
G01*
X176068750Y-67475000D01*
G75*
G02*
X175850000Y-67256250I0J218750D01*
G01*
G37*
G36*
G01*
X174275000Y-67256250D02*
X174275000Y-66743750D01*
G75*
G02*
X174493750Y-66525000I218750J0D01*
G01*
X174931250Y-66525000D01*
G75*
G02*
X175150000Y-66743750I0J-218750D01*
G01*
X175150000Y-67256250D01*
G75*
G02*
X174931250Y-67475000I-218750J0D01*
G01*
X174493750Y-67475000D01*
G75*
G02*
X174275000Y-67256250I0J218750D01*
G01*
G37*
%TD*%
%TO.C,C23*%
G36*
G01*
X172343750Y-96662500D02*
X172856250Y-96662500D01*
G75*
G02*
X173075000Y-96881250I0J-218750D01*
G01*
X173075000Y-97318750D01*
G75*
G02*
X172856250Y-97537500I-218750J0D01*
G01*
X172343750Y-97537500D01*
G75*
G02*
X172125000Y-97318750I0J218750D01*
G01*
X172125000Y-96881250D01*
G75*
G02*
X172343750Y-96662500I218750J0D01*
G01*
G37*
G36*
G01*
X172343750Y-95087500D02*
X172856250Y-95087500D01*
G75*
G02*
X173075000Y-95306250I0J-218750D01*
G01*
X173075000Y-95743750D01*
G75*
G02*
X172856250Y-95962500I-218750J0D01*
G01*
X172343750Y-95962500D01*
G75*
G02*
X172125000Y-95743750I0J218750D01*
G01*
X172125000Y-95306250D01*
G75*
G02*
X172343750Y-95087500I218750J0D01*
G01*
G37*
%TD*%
%TO.C,C22*%
G36*
G01*
X174562500Y-69256250D02*
X174562500Y-68743750D01*
G75*
G02*
X174781250Y-68525000I218750J0D01*
G01*
X175218750Y-68525000D01*
G75*
G02*
X175437500Y-68743750I0J-218750D01*
G01*
X175437500Y-69256250D01*
G75*
G02*
X175218750Y-69475000I-218750J0D01*
G01*
X174781250Y-69475000D01*
G75*
G02*
X174562500Y-69256250I0J218750D01*
G01*
G37*
G36*
G01*
X172987500Y-69256250D02*
X172987500Y-68743750D01*
G75*
G02*
X173206250Y-68525000I218750J0D01*
G01*
X173643750Y-68525000D01*
G75*
G02*
X173862500Y-68743750I0J-218750D01*
G01*
X173862500Y-69256250D01*
G75*
G02*
X173643750Y-69475000I-218750J0D01*
G01*
X173206250Y-69475000D01*
G75*
G02*
X172987500Y-69256250I0J218750D01*
G01*
G37*
%TD*%
%TO.C,C21*%
G36*
G01*
X172856250Y-102537500D02*
X172343750Y-102537500D01*
G75*
G02*
X172125000Y-102318750I0J218750D01*
G01*
X172125000Y-101881250D01*
G75*
G02*
X172343750Y-101662500I218750J0D01*
G01*
X172856250Y-101662500D01*
G75*
G02*
X173075000Y-101881250I0J-218750D01*
G01*
X173075000Y-102318750D01*
G75*
G02*
X172856250Y-102537500I-218750J0D01*
G01*
G37*
G36*
G01*
X172856250Y-104112500D02*
X172343750Y-104112500D01*
G75*
G02*
X172125000Y-103893750I0J218750D01*
G01*
X172125000Y-103456250D01*
G75*
G02*
X172343750Y-103237500I218750J0D01*
G01*
X172856250Y-103237500D01*
G75*
G02*
X173075000Y-103456250I0J-218750D01*
G01*
X173075000Y-103893750D01*
G75*
G02*
X172856250Y-104112500I-218750J0D01*
G01*
G37*
%TD*%
%TO.C,C20*%
G36*
G01*
X177562500Y-69256250D02*
X177562500Y-68743750D01*
G75*
G02*
X177781250Y-68525000I218750J0D01*
G01*
X178218750Y-68525000D01*
G75*
G02*
X178437500Y-68743750I0J-218750D01*
G01*
X178437500Y-69256250D01*
G75*
G02*
X178218750Y-69475000I-218750J0D01*
G01*
X177781250Y-69475000D01*
G75*
G02*
X177562500Y-69256250I0J218750D01*
G01*
G37*
G36*
G01*
X175987500Y-69256250D02*
X175987500Y-68743750D01*
G75*
G02*
X176206250Y-68525000I218750J0D01*
G01*
X176643750Y-68525000D01*
G75*
G02*
X176862500Y-68743750I0J-218750D01*
G01*
X176862500Y-69256250D01*
G75*
G02*
X176643750Y-69475000I-218750J0D01*
G01*
X176206250Y-69475000D01*
G75*
G02*
X175987500Y-69256250I0J218750D01*
G01*
G37*
%TD*%
%TO.C,C19*%
G36*
G01*
X172343750Y-107237500D02*
X172856250Y-107237500D01*
G75*
G02*
X173075000Y-107456250I0J-218750D01*
G01*
X173075000Y-107893750D01*
G75*
G02*
X172856250Y-108112500I-218750J0D01*
G01*
X172343750Y-108112500D01*
G75*
G02*
X172125000Y-107893750I0J218750D01*
G01*
X172125000Y-107456250D01*
G75*
G02*
X172343750Y-107237500I218750J0D01*
G01*
G37*
G36*
G01*
X172343750Y-105662500D02*
X172856250Y-105662500D01*
G75*
G02*
X173075000Y-105881250I0J-218750D01*
G01*
X173075000Y-106318750D01*
G75*
G02*
X172856250Y-106537500I-218750J0D01*
G01*
X172343750Y-106537500D01*
G75*
G02*
X172125000Y-106318750I0J218750D01*
G01*
X172125000Y-105881250D01*
G75*
G02*
X172343750Y-105662500I218750J0D01*
G01*
G37*
%TD*%
%TO.C,C18*%
G36*
G01*
X180562500Y-69256250D02*
X180562500Y-68743750D01*
G75*
G02*
X180781250Y-68525000I218750J0D01*
G01*
X181218750Y-68525000D01*
G75*
G02*
X181437500Y-68743750I0J-218750D01*
G01*
X181437500Y-69256250D01*
G75*
G02*
X181218750Y-69475000I-218750J0D01*
G01*
X180781250Y-69475000D01*
G75*
G02*
X180562500Y-69256250I0J218750D01*
G01*
G37*
G36*
G01*
X178987500Y-69256250D02*
X178987500Y-68743750D01*
G75*
G02*
X179206250Y-68525000I218750J0D01*
G01*
X179643750Y-68525000D01*
G75*
G02*
X179862500Y-68743750I0J-218750D01*
G01*
X179862500Y-69256250D01*
G75*
G02*
X179643750Y-69475000I-218750J0D01*
G01*
X179206250Y-69475000D01*
G75*
G02*
X178987500Y-69256250I0J218750D01*
G01*
G37*
%TD*%
%TO.C,C17*%
G36*
G01*
X179912500Y-109106250D02*
X179912500Y-108593750D01*
G75*
G02*
X180131250Y-108375000I218750J0D01*
G01*
X180568750Y-108375000D01*
G75*
G02*
X180787500Y-108593750I0J-218750D01*
G01*
X180787500Y-109106250D01*
G75*
G02*
X180568750Y-109325000I-218750J0D01*
G01*
X180131250Y-109325000D01*
G75*
G02*
X179912500Y-109106250I0J218750D01*
G01*
G37*
G36*
G01*
X178337500Y-109106250D02*
X178337500Y-108593750D01*
G75*
G02*
X178556250Y-108375000I218750J0D01*
G01*
X178993750Y-108375000D01*
G75*
G02*
X179212500Y-108593750I0J-218750D01*
G01*
X179212500Y-109106250D01*
G75*
G02*
X178993750Y-109325000I-218750J0D01*
G01*
X178556250Y-109325000D01*
G75*
G02*
X178337500Y-109106250I0J218750D01*
G01*
G37*
%TD*%
%TO.C,C16*%
G36*
G01*
X183637500Y-69256250D02*
X183637500Y-68743750D01*
G75*
G02*
X183856250Y-68525000I218750J0D01*
G01*
X184293750Y-68525000D01*
G75*
G02*
X184512500Y-68743750I0J-218750D01*
G01*
X184512500Y-69256250D01*
G75*
G02*
X184293750Y-69475000I-218750J0D01*
G01*
X183856250Y-69475000D01*
G75*
G02*
X183637500Y-69256250I0J218750D01*
G01*
G37*
G36*
G01*
X182062500Y-69256250D02*
X182062500Y-68743750D01*
G75*
G02*
X182281250Y-68525000I218750J0D01*
G01*
X182718750Y-68525000D01*
G75*
G02*
X182937500Y-68743750I0J-218750D01*
G01*
X182937500Y-69256250D01*
G75*
G02*
X182718750Y-69475000I-218750J0D01*
G01*
X182281250Y-69475000D01*
G75*
G02*
X182062500Y-69256250I0J218750D01*
G01*
G37*
%TD*%
%TO.C,C15*%
G36*
G01*
X186343750Y-106987500D02*
X186856250Y-106987500D01*
G75*
G02*
X187075000Y-107206250I0J-218750D01*
G01*
X187075000Y-107643750D01*
G75*
G02*
X186856250Y-107862500I-218750J0D01*
G01*
X186343750Y-107862500D01*
G75*
G02*
X186125000Y-107643750I0J218750D01*
G01*
X186125000Y-107206250D01*
G75*
G02*
X186343750Y-106987500I218750J0D01*
G01*
G37*
G36*
G01*
X186343750Y-105412500D02*
X186856250Y-105412500D01*
G75*
G02*
X187075000Y-105631250I0J-218750D01*
G01*
X187075000Y-106068750D01*
G75*
G02*
X186856250Y-106287500I-218750J0D01*
G01*
X186343750Y-106287500D01*
G75*
G02*
X186125000Y-106068750I0J218750D01*
G01*
X186125000Y-105631250D01*
G75*
G02*
X186343750Y-105412500I218750J0D01*
G01*
G37*
%TD*%
%TO.C,C14*%
G36*
G01*
X184756250Y-78362500D02*
X184243750Y-78362500D01*
G75*
G02*
X184025000Y-78143750I0J218750D01*
G01*
X184025000Y-77706250D01*
G75*
G02*
X184243750Y-77487500I218750J0D01*
G01*
X184756250Y-77487500D01*
G75*
G02*
X184975000Y-77706250I0J-218750D01*
G01*
X184975000Y-78143750D01*
G75*
G02*
X184756250Y-78362500I-218750J0D01*
G01*
G37*
G36*
G01*
X184756250Y-79937500D02*
X184243750Y-79937500D01*
G75*
G02*
X184025000Y-79718750I0J218750D01*
G01*
X184025000Y-79281250D01*
G75*
G02*
X184243750Y-79062500I218750J0D01*
G01*
X184756250Y-79062500D01*
G75*
G02*
X184975000Y-79281250I0J-218750D01*
G01*
X184975000Y-79718750D01*
G75*
G02*
X184756250Y-79937500I-218750J0D01*
G01*
G37*
%TD*%
%TO.C,C13*%
G36*
G01*
X186856250Y-102462500D02*
X186343750Y-102462500D01*
G75*
G02*
X186125000Y-102243750I0J218750D01*
G01*
X186125000Y-101806250D01*
G75*
G02*
X186343750Y-101587500I218750J0D01*
G01*
X186856250Y-101587500D01*
G75*
G02*
X187075000Y-101806250I0J-218750D01*
G01*
X187075000Y-102243750D01*
G75*
G02*
X186856250Y-102462500I-218750J0D01*
G01*
G37*
G36*
G01*
X186856250Y-104037500D02*
X186343750Y-104037500D01*
G75*
G02*
X186125000Y-103818750I0J218750D01*
G01*
X186125000Y-103381250D01*
G75*
G02*
X186343750Y-103162500I218750J0D01*
G01*
X186856250Y-103162500D01*
G75*
G02*
X187075000Y-103381250I0J-218750D01*
G01*
X187075000Y-103818750D01*
G75*
G02*
X186856250Y-104037500I-218750J0D01*
G01*
G37*
%TD*%
%TO.C,C12*%
G36*
G01*
X180062500Y-81256250D02*
X180062500Y-80743750D01*
G75*
G02*
X180281250Y-80525000I218750J0D01*
G01*
X180718750Y-80525000D01*
G75*
G02*
X180937500Y-80743750I0J-218750D01*
G01*
X180937500Y-81256250D01*
G75*
G02*
X180718750Y-81475000I-218750J0D01*
G01*
X180281250Y-81475000D01*
G75*
G02*
X180062500Y-81256250I0J218750D01*
G01*
G37*
G36*
G01*
X178487500Y-81256250D02*
X178487500Y-80743750D01*
G75*
G02*
X178706250Y-80525000I218750J0D01*
G01*
X179143750Y-80525000D01*
G75*
G02*
X179362500Y-80743750I0J-218750D01*
G01*
X179362500Y-81256250D01*
G75*
G02*
X179143750Y-81475000I-218750J0D01*
G01*
X178706250Y-81475000D01*
G75*
G02*
X178487500Y-81256250I0J218750D01*
G01*
G37*
%TD*%
%TO.C,C11*%
G36*
G01*
X186343750Y-96662500D02*
X186856250Y-96662500D01*
G75*
G02*
X187075000Y-96881250I0J-218750D01*
G01*
X187075000Y-97318750D01*
G75*
G02*
X186856250Y-97537500I-218750J0D01*
G01*
X186343750Y-97537500D01*
G75*
G02*
X186125000Y-97318750I0J218750D01*
G01*
X186125000Y-96881250D01*
G75*
G02*
X186343750Y-96662500I218750J0D01*
G01*
G37*
G36*
G01*
X186343750Y-95087500D02*
X186856250Y-95087500D01*
G75*
G02*
X187075000Y-95306250I0J-218750D01*
G01*
X187075000Y-95743750D01*
G75*
G02*
X186856250Y-95962500I-218750J0D01*
G01*
X186343750Y-95962500D01*
G75*
G02*
X186125000Y-95743750I0J218750D01*
G01*
X186125000Y-95306250D01*
G75*
G02*
X186343750Y-95087500I218750J0D01*
G01*
G37*
%TD*%
%TO.C,C10*%
G36*
G01*
X177062500Y-81256250D02*
X177062500Y-80743750D01*
G75*
G02*
X177281250Y-80525000I218750J0D01*
G01*
X177718750Y-80525000D01*
G75*
G02*
X177937500Y-80743750I0J-218750D01*
G01*
X177937500Y-81256250D01*
G75*
G02*
X177718750Y-81475000I-218750J0D01*
G01*
X177281250Y-81475000D01*
G75*
G02*
X177062500Y-81256250I0J218750D01*
G01*
G37*
G36*
G01*
X175487500Y-81256250D02*
X175487500Y-80743750D01*
G75*
G02*
X175706250Y-80525000I218750J0D01*
G01*
X176143750Y-80525000D01*
G75*
G02*
X176362500Y-80743750I0J-218750D01*
G01*
X176362500Y-81256250D01*
G75*
G02*
X176143750Y-81475000I-218750J0D01*
G01*
X175706250Y-81475000D01*
G75*
G02*
X175487500Y-81256250I0J218750D01*
G01*
G37*
%TD*%
%TO.C,C9*%
G36*
G01*
X186856250Y-92037500D02*
X186343750Y-92037500D01*
G75*
G02*
X186125000Y-91818750I0J218750D01*
G01*
X186125000Y-91381250D01*
G75*
G02*
X186343750Y-91162500I218750J0D01*
G01*
X186856250Y-91162500D01*
G75*
G02*
X187075000Y-91381250I0J-218750D01*
G01*
X187075000Y-91818750D01*
G75*
G02*
X186856250Y-92037500I-218750J0D01*
G01*
G37*
G36*
G01*
X186856250Y-93612500D02*
X186343750Y-93612500D01*
G75*
G02*
X186125000Y-93393750I0J218750D01*
G01*
X186125000Y-92956250D01*
G75*
G02*
X186343750Y-92737500I218750J0D01*
G01*
X186856250Y-92737500D01*
G75*
G02*
X187075000Y-92956250I0J-218750D01*
G01*
X187075000Y-93393750D01*
G75*
G02*
X186856250Y-93612500I-218750J0D01*
G01*
G37*
%TD*%
M02*
