%TF.GenerationSoftware,KiCad,Pcbnew,(5.1.6)-1*%
%TF.CreationDate,2020-10-26T13:42:29-06:00*%
%TF.ProjectId,DDS,4444532e-6b69-4636-9164-5f7063625858,rev?*%
%TF.SameCoordinates,Original*%
%TF.FileFunction,Paste,Bot*%
%TF.FilePolarity,Positive*%
%FSLAX46Y46*%
G04 Gerber Fmt 4.6, Leading zero omitted, Abs format (unit mm)*
G04 Created by KiCad (PCBNEW (5.1.6)-1) date 2020-10-26 13:42:29*
%MOMM*%
%LPD*%
G01*
G04 APERTURE LIST*
%ADD10C,0.100000*%
%ADD11C,0.150000*%
%ADD12C,0.300000*%
%ADD13C,0.400000*%
%ADD14R,1.350000X4.200000*%
G04 APERTURE END LIST*
D10*
D11*
X177002200Y-166007200D02*
X177002200Y-198007200D01*
X285002200Y-198007200D01*
X285002200Y-166007200D01*
X177002200Y-166007200D01*
D10*
D11*
X10000000Y-10000000D02*
X10000000Y-200007200D01*
X287002200Y-200007200D01*
X287002200Y-10000000D01*
X10000000Y-10000000D01*
D10*
D11*
X12000000Y-12000000D02*
X12000000Y-198007200D01*
X285002200Y-198007200D01*
X285002200Y-12000000D01*
X12000000Y-12000000D01*
D10*
D11*
X60000000Y-12000000D02*
X60000000Y-10000000D01*
D10*
D11*
X110000000Y-12000000D02*
X110000000Y-10000000D01*
D10*
D11*
X160000000Y-12000000D02*
X160000000Y-10000000D01*
D10*
D11*
X210000000Y-12000000D02*
X210000000Y-10000000D01*
D10*
D11*
X260000000Y-12000000D02*
X260000000Y-10000000D01*
D10*
D11*
X36065476Y-11588095D02*
X35322619Y-11588095D01*
X35694047Y-11588095D02*
X35694047Y-10288095D01*
X35570238Y-10473809D01*
X35446428Y-10597619D01*
X35322619Y-10659523D01*
D10*
D11*
X85322619Y-10411904D02*
X85384523Y-10350000D01*
X85508333Y-10288095D01*
X85817857Y-10288095D01*
X85941666Y-10350000D01*
X86003571Y-10411904D01*
X86065476Y-10535714D01*
X86065476Y-10659523D01*
X86003571Y-10845238D01*
X85260714Y-11588095D01*
X86065476Y-11588095D01*
D10*
D11*
X135260714Y-10288095D02*
X136065476Y-10288095D01*
X135632142Y-10783333D01*
X135817857Y-10783333D01*
X135941666Y-10845238D01*
X136003571Y-10907142D01*
X136065476Y-11030952D01*
X136065476Y-11340476D01*
X136003571Y-11464285D01*
X135941666Y-11526190D01*
X135817857Y-11588095D01*
X135446428Y-11588095D01*
X135322619Y-11526190D01*
X135260714Y-11464285D01*
D10*
D11*
X185941666Y-10721428D02*
X185941666Y-11588095D01*
X185632142Y-10226190D02*
X185322619Y-11154761D01*
X186127380Y-11154761D01*
D10*
D11*
X236003571Y-10288095D02*
X235384523Y-10288095D01*
X235322619Y-10907142D01*
X235384523Y-10845238D01*
X235508333Y-10783333D01*
X235817857Y-10783333D01*
X235941666Y-10845238D01*
X236003571Y-10907142D01*
X236065476Y-11030952D01*
X236065476Y-11340476D01*
X236003571Y-11464285D01*
X235941666Y-11526190D01*
X235817857Y-11588095D01*
X235508333Y-11588095D01*
X235384523Y-11526190D01*
X235322619Y-11464285D01*
D10*
D11*
X285941666Y-10288095D02*
X285694047Y-10288095D01*
X285570238Y-10350000D01*
X285508333Y-10411904D01*
X285384523Y-10597619D01*
X285322619Y-10845238D01*
X285322619Y-11340476D01*
X285384523Y-11464285D01*
X285446428Y-11526190D01*
X285570238Y-11588095D01*
X285817857Y-11588095D01*
X285941666Y-11526190D01*
X286003571Y-11464285D01*
X286065476Y-11340476D01*
X286065476Y-11030952D01*
X286003571Y-10907142D01*
X285941666Y-10845238D01*
X285817857Y-10783333D01*
X285570238Y-10783333D01*
X285446428Y-10845238D01*
X285384523Y-10907142D01*
X285322619Y-11030952D01*
D10*
D11*
X60000000Y-198007200D02*
X60000000Y-200007200D01*
D10*
D11*
X110000000Y-198007200D02*
X110000000Y-200007200D01*
D10*
D11*
X160000000Y-198007200D02*
X160000000Y-200007200D01*
D10*
D11*
X210000000Y-198007200D02*
X210000000Y-200007200D01*
D10*
D11*
X260000000Y-198007200D02*
X260000000Y-200007200D01*
D10*
D11*
X36065476Y-199595295D02*
X35322619Y-199595295D01*
X35694047Y-199595295D02*
X35694047Y-198295295D01*
X35570238Y-198481009D01*
X35446428Y-198604819D01*
X35322619Y-198666723D01*
D10*
D11*
X85322619Y-198419104D02*
X85384523Y-198357200D01*
X85508333Y-198295295D01*
X85817857Y-198295295D01*
X85941666Y-198357200D01*
X86003571Y-198419104D01*
X86065476Y-198542914D01*
X86065476Y-198666723D01*
X86003571Y-198852438D01*
X85260714Y-199595295D01*
X86065476Y-199595295D01*
D10*
D11*
X135260714Y-198295295D02*
X136065476Y-198295295D01*
X135632142Y-198790533D01*
X135817857Y-198790533D01*
X135941666Y-198852438D01*
X136003571Y-198914342D01*
X136065476Y-199038152D01*
X136065476Y-199347676D01*
X136003571Y-199471485D01*
X135941666Y-199533390D01*
X135817857Y-199595295D01*
X135446428Y-199595295D01*
X135322619Y-199533390D01*
X135260714Y-199471485D01*
D10*
D11*
X185941666Y-198728628D02*
X185941666Y-199595295D01*
X185632142Y-198233390D02*
X185322619Y-199161961D01*
X186127380Y-199161961D01*
D10*
D11*
X236003571Y-198295295D02*
X235384523Y-198295295D01*
X235322619Y-198914342D01*
X235384523Y-198852438D01*
X235508333Y-198790533D01*
X235817857Y-198790533D01*
X235941666Y-198852438D01*
X236003571Y-198914342D01*
X236065476Y-199038152D01*
X236065476Y-199347676D01*
X236003571Y-199471485D01*
X235941666Y-199533390D01*
X235817857Y-199595295D01*
X235508333Y-199595295D01*
X235384523Y-199533390D01*
X235322619Y-199471485D01*
D10*
D11*
X285941666Y-198295295D02*
X285694047Y-198295295D01*
X285570238Y-198357200D01*
X285508333Y-198419104D01*
X285384523Y-198604819D01*
X285322619Y-198852438D01*
X285322619Y-199347676D01*
X285384523Y-199471485D01*
X285446428Y-199533390D01*
X285570238Y-199595295D01*
X285817857Y-199595295D01*
X285941666Y-199533390D01*
X286003571Y-199471485D01*
X286065476Y-199347676D01*
X286065476Y-199038152D01*
X286003571Y-198914342D01*
X285941666Y-198852438D01*
X285817857Y-198790533D01*
X285570238Y-198790533D01*
X285446428Y-198852438D01*
X285384523Y-198914342D01*
X285322619Y-199038152D01*
D10*
D11*
X10000000Y-60000000D02*
X12000000Y-60000000D01*
D10*
D11*
X10000000Y-110000000D02*
X12000000Y-110000000D01*
D10*
D11*
X10000000Y-160000000D02*
X12000000Y-160000000D01*
D10*
D11*
X10690476Y-35216666D02*
X11309523Y-35216666D01*
X10566666Y-35588095D02*
X11000000Y-34288095D01*
X11433333Y-35588095D01*
D10*
D11*
X11092857Y-84907142D02*
X11278571Y-84969047D01*
X11340476Y-85030952D01*
X11402380Y-85154761D01*
X11402380Y-85340476D01*
X11340476Y-85464285D01*
X11278571Y-85526190D01*
X11154761Y-85588095D01*
X10659523Y-85588095D01*
X10659523Y-84288095D01*
X11092857Y-84288095D01*
X11216666Y-84350000D01*
X11278571Y-84411904D01*
X11340476Y-84535714D01*
X11340476Y-84659523D01*
X11278571Y-84783333D01*
X11216666Y-84845238D01*
X11092857Y-84907142D01*
X10659523Y-84907142D01*
D10*
D11*
X11402380Y-135464285D02*
X11340476Y-135526190D01*
X11154761Y-135588095D01*
X11030952Y-135588095D01*
X10845238Y-135526190D01*
X10721428Y-135402380D01*
X10659523Y-135278571D01*
X10597619Y-135030952D01*
X10597619Y-134845238D01*
X10659523Y-134597619D01*
X10721428Y-134473809D01*
X10845238Y-134350000D01*
X11030952Y-134288095D01*
X11154761Y-134288095D01*
X11340476Y-134350000D01*
X11402380Y-134411904D01*
D10*
D11*
X10659523Y-185588095D02*
X10659523Y-184288095D01*
X10969047Y-184288095D01*
X11154761Y-184350000D01*
X11278571Y-184473809D01*
X11340476Y-184597619D01*
X11402380Y-184845238D01*
X11402380Y-185030952D01*
X11340476Y-185278571D01*
X11278571Y-185402380D01*
X11154761Y-185526190D01*
X10969047Y-185588095D01*
X10659523Y-185588095D01*
D10*
D11*
X287002200Y-60000000D02*
X285002200Y-60000000D01*
D10*
D11*
X287002200Y-110000000D02*
X285002200Y-110000000D01*
D10*
D11*
X287002200Y-160000000D02*
X285002200Y-160000000D01*
D10*
D11*
X285692676Y-35216666D02*
X286311723Y-35216666D01*
X285568866Y-35588095D02*
X286002200Y-34288095D01*
X286435533Y-35588095D01*
D10*
D11*
X286095057Y-84907142D02*
X286280771Y-84969047D01*
X286342676Y-85030952D01*
X286404580Y-85154761D01*
X286404580Y-85340476D01*
X286342676Y-85464285D01*
X286280771Y-85526190D01*
X286156961Y-85588095D01*
X285661723Y-85588095D01*
X285661723Y-84288095D01*
X286095057Y-84288095D01*
X286218866Y-84350000D01*
X286280771Y-84411904D01*
X286342676Y-84535714D01*
X286342676Y-84659523D01*
X286280771Y-84783333D01*
X286218866Y-84845238D01*
X286095057Y-84907142D01*
X285661723Y-84907142D01*
D10*
D11*
X286404580Y-135464285D02*
X286342676Y-135526190D01*
X286156961Y-135588095D01*
X286033152Y-135588095D01*
X285847438Y-135526190D01*
X285723628Y-135402380D01*
X285661723Y-135278571D01*
X285599819Y-135030952D01*
X285599819Y-134845238D01*
X285661723Y-134597619D01*
X285723628Y-134473809D01*
X285847438Y-134350000D01*
X286033152Y-134288095D01*
X286156961Y-134288095D01*
X286342676Y-134350000D01*
X286404580Y-134411904D01*
D10*
D11*
X285661723Y-185588095D02*
X285661723Y-184288095D01*
X285971247Y-184288095D01*
X286156961Y-184350000D01*
X286280771Y-184473809D01*
X286342676Y-184597619D01*
X286404580Y-184845238D01*
X286404580Y-185030952D01*
X286342676Y-185278571D01*
X286280771Y-185402380D01*
X286156961Y-185526190D01*
X285971247Y-185588095D01*
X285661723Y-185588095D01*
D10*
D11*
X200434342Y-193785771D02*
X200434342Y-192285771D01*
X200791485Y-192285771D01*
X201005771Y-192357200D01*
X201148628Y-192500057D01*
X201220057Y-192642914D01*
X201291485Y-192928628D01*
X201291485Y-193142914D01*
X201220057Y-193428628D01*
X201148628Y-193571485D01*
X201005771Y-193714342D01*
X200791485Y-193785771D01*
X200434342Y-193785771D01*
X202577200Y-193785771D02*
X202577200Y-193000057D01*
X202505771Y-192857200D01*
X202362914Y-192785771D01*
X202077200Y-192785771D01*
X201934342Y-192857200D01*
X202577200Y-193714342D02*
X202434342Y-193785771D01*
X202077200Y-193785771D01*
X201934342Y-193714342D01*
X201862914Y-193571485D01*
X201862914Y-193428628D01*
X201934342Y-193285771D01*
X202077200Y-193214342D01*
X202434342Y-193214342D01*
X202577200Y-193142914D01*
X203077200Y-192785771D02*
X203648628Y-192785771D01*
X203291485Y-192285771D02*
X203291485Y-193571485D01*
X203362914Y-193714342D01*
X203505771Y-193785771D01*
X203648628Y-193785771D01*
X204720057Y-193714342D02*
X204577200Y-193785771D01*
X204291485Y-193785771D01*
X204148628Y-193714342D01*
X204077200Y-193571485D01*
X204077200Y-193000057D01*
X204148628Y-192857200D01*
X204291485Y-192785771D01*
X204577200Y-192785771D01*
X204720057Y-192857200D01*
X204791485Y-193000057D01*
X204791485Y-193142914D01*
X204077200Y-193285771D01*
X205434342Y-193642914D02*
X205505771Y-193714342D01*
X205434342Y-193785771D01*
X205362914Y-193714342D01*
X205434342Y-193642914D01*
X205434342Y-193785771D01*
X205434342Y-192857200D02*
X205505771Y-192928628D01*
X205434342Y-193000057D01*
X205362914Y-192928628D01*
X205434342Y-192857200D01*
X205434342Y-193000057D01*
D10*
D11*
X177002200Y-194507200D02*
X285002200Y-194507200D01*
D10*
D11*
X178434342Y-196585771D02*
X178434342Y-195085771D01*
X179291485Y-196585771D02*
X178648628Y-195728628D01*
X179291485Y-195085771D02*
X178434342Y-195942914D01*
X179934342Y-196585771D02*
X179934342Y-195585771D01*
X179934342Y-195085771D02*
X179862914Y-195157200D01*
X179934342Y-195228628D01*
X180005771Y-195157200D01*
X179934342Y-195085771D01*
X179934342Y-195228628D01*
X181505771Y-196442914D02*
X181434342Y-196514342D01*
X181220057Y-196585771D01*
X181077200Y-196585771D01*
X180862914Y-196514342D01*
X180720057Y-196371485D01*
X180648628Y-196228628D01*
X180577200Y-195942914D01*
X180577200Y-195728628D01*
X180648628Y-195442914D01*
X180720057Y-195300057D01*
X180862914Y-195157200D01*
X181077200Y-195085771D01*
X181220057Y-195085771D01*
X181434342Y-195157200D01*
X181505771Y-195228628D01*
X182791485Y-196585771D02*
X182791485Y-195800057D01*
X182720057Y-195657200D01*
X182577200Y-195585771D01*
X182291485Y-195585771D01*
X182148628Y-195657200D01*
X182791485Y-196514342D02*
X182648628Y-196585771D01*
X182291485Y-196585771D01*
X182148628Y-196514342D01*
X182077200Y-196371485D01*
X182077200Y-196228628D01*
X182148628Y-196085771D01*
X182291485Y-196014342D01*
X182648628Y-196014342D01*
X182791485Y-195942914D01*
X184148628Y-196585771D02*
X184148628Y-195085771D01*
X184148628Y-196514342D02*
X184005771Y-196585771D01*
X183720057Y-196585771D01*
X183577200Y-196514342D01*
X183505771Y-196442914D01*
X183434342Y-196300057D01*
X183434342Y-195871485D01*
X183505771Y-195728628D01*
X183577200Y-195657200D01*
X183720057Y-195585771D01*
X184005771Y-195585771D01*
X184148628Y-195657200D01*
X186005771Y-195800057D02*
X186505771Y-195800057D01*
X186720057Y-196585771D02*
X186005771Y-196585771D01*
X186005771Y-195085771D01*
X186720057Y-195085771D01*
X187362914Y-196442914D02*
X187434342Y-196514342D01*
X187362914Y-196585771D01*
X187291485Y-196514342D01*
X187362914Y-196442914D01*
X187362914Y-196585771D01*
X188077200Y-196585771D02*
X188077200Y-195085771D01*
X188434342Y-195085771D01*
X188648628Y-195157200D01*
X188791485Y-195300057D01*
X188862914Y-195442914D01*
X188934342Y-195728628D01*
X188934342Y-195942914D01*
X188862914Y-196228628D01*
X188791485Y-196371485D01*
X188648628Y-196514342D01*
X188434342Y-196585771D01*
X188077200Y-196585771D01*
X189577200Y-196442914D02*
X189648628Y-196514342D01*
X189577200Y-196585771D01*
X189505771Y-196514342D01*
X189577200Y-196442914D01*
X189577200Y-196585771D01*
X190220057Y-196157200D02*
X190934342Y-196157200D01*
X190077200Y-196585771D02*
X190577200Y-195085771D01*
X191077200Y-196585771D01*
X191577200Y-196442914D02*
X191648628Y-196514342D01*
X191577200Y-196585771D01*
X191505771Y-196514342D01*
X191577200Y-196442914D01*
X191577200Y-196585771D01*
X194577200Y-196585771D02*
X194577200Y-195085771D01*
X194720057Y-196014342D02*
X195148628Y-196585771D01*
X195148628Y-195585771D02*
X194577200Y-196157200D01*
X195791485Y-196585771D02*
X195791485Y-195585771D01*
X195791485Y-195085771D02*
X195720057Y-195157200D01*
X195791485Y-195228628D01*
X195862914Y-195157200D01*
X195791485Y-195085771D01*
X195791485Y-195228628D01*
X197148628Y-196514342D02*
X197005771Y-196585771D01*
X196720057Y-196585771D01*
X196577200Y-196514342D01*
X196505771Y-196442914D01*
X196434342Y-196300057D01*
X196434342Y-195871485D01*
X196505771Y-195728628D01*
X196577200Y-195657200D01*
X196720057Y-195585771D01*
X197005771Y-195585771D01*
X197148628Y-195657200D01*
X198434342Y-196585771D02*
X198434342Y-195800057D01*
X198362914Y-195657200D01*
X198220057Y-195585771D01*
X197934342Y-195585771D01*
X197791485Y-195657200D01*
X198434342Y-196514342D02*
X198291485Y-196585771D01*
X197934342Y-196585771D01*
X197791485Y-196514342D01*
X197720057Y-196371485D01*
X197720057Y-196228628D01*
X197791485Y-196085771D01*
X197934342Y-196014342D01*
X198291485Y-196014342D01*
X198434342Y-195942914D01*
X199791485Y-196585771D02*
X199791485Y-195085771D01*
X199791485Y-196514342D02*
X199648628Y-196585771D01*
X199362914Y-196585771D01*
X199220057Y-196514342D01*
X199148628Y-196442914D01*
X199077200Y-196300057D01*
X199077200Y-195871485D01*
X199148628Y-195728628D01*
X199220057Y-195657200D01*
X199362914Y-195585771D01*
X199648628Y-195585771D01*
X199791485Y-195657200D01*
X202077200Y-197157200D02*
X202005771Y-197085771D01*
X201862914Y-196871485D01*
X201791485Y-196728628D01*
X201720057Y-196514342D01*
X201648628Y-196157200D01*
X201648628Y-195871485D01*
X201720057Y-195514342D01*
X201791485Y-195300057D01*
X201862914Y-195157200D01*
X202005771Y-194942914D01*
X202077200Y-194871485D01*
X203362914Y-195085771D02*
X202648628Y-195085771D01*
X202577200Y-195800057D01*
X202648628Y-195728628D01*
X202791485Y-195657200D01*
X203148628Y-195657200D01*
X203291485Y-195728628D01*
X203362914Y-195800057D01*
X203434342Y-195942914D01*
X203434342Y-196300057D01*
X203362914Y-196442914D01*
X203291485Y-196514342D01*
X203148628Y-196585771D01*
X202791485Y-196585771D01*
X202648628Y-196514342D01*
X202577200Y-196442914D01*
X204077200Y-196442914D02*
X204148628Y-196514342D01*
X204077200Y-196585771D01*
X204005771Y-196514342D01*
X204077200Y-196442914D01*
X204077200Y-196585771D01*
X205577200Y-196585771D02*
X204720057Y-196585771D01*
X205148628Y-196585771D02*
X205148628Y-195085771D01*
X205005771Y-195300057D01*
X204862914Y-195442914D01*
X204720057Y-195514342D01*
X206220057Y-196442914D02*
X206291485Y-196514342D01*
X206220057Y-196585771D01*
X206148628Y-196514342D01*
X206220057Y-196442914D01*
X206220057Y-196585771D01*
X207577200Y-195085771D02*
X207291485Y-195085771D01*
X207148628Y-195157200D01*
X207077200Y-195228628D01*
X206934342Y-195442914D01*
X206862914Y-195728628D01*
X206862914Y-196300057D01*
X206934342Y-196442914D01*
X207005771Y-196514342D01*
X207148628Y-196585771D01*
X207434342Y-196585771D01*
X207577200Y-196514342D01*
X207648628Y-196442914D01*
X207720057Y-196300057D01*
X207720057Y-195942914D01*
X207648628Y-195800057D01*
X207577200Y-195728628D01*
X207434342Y-195657200D01*
X207148628Y-195657200D01*
X207005771Y-195728628D01*
X206934342Y-195800057D01*
X206862914Y-195942914D01*
X208220057Y-197157200D02*
X208291485Y-197085771D01*
X208434342Y-196871485D01*
X208505771Y-196728628D01*
X208577200Y-196514342D01*
X208648628Y-196157200D01*
X208648628Y-195871485D01*
X208577200Y-195514342D01*
X208505771Y-195300057D01*
X208434342Y-195157200D01*
X208291485Y-194942914D01*
X208220057Y-194871485D01*
X209362914Y-196014342D02*
X210505771Y-196014342D01*
X212005771Y-196585771D02*
X211148628Y-196585771D01*
X211577200Y-196585771D02*
X211577200Y-195085771D01*
X211434342Y-195300057D01*
X211291485Y-195442914D01*
X211148628Y-195514342D01*
D10*
D11*
X177002200Y-191507200D02*
X285002200Y-191507200D01*
D10*
D12*
X264411485Y-193785771D02*
X263911485Y-193071485D01*
X263554342Y-193785771D02*
X263554342Y-192285771D01*
X264125771Y-192285771D01*
X264268628Y-192357200D01*
X264340057Y-192428628D01*
X264411485Y-192571485D01*
X264411485Y-192785771D01*
X264340057Y-192928628D01*
X264268628Y-193000057D01*
X264125771Y-193071485D01*
X263554342Y-193071485D01*
X265625771Y-193714342D02*
X265482914Y-193785771D01*
X265197200Y-193785771D01*
X265054342Y-193714342D01*
X264982914Y-193571485D01*
X264982914Y-193000057D01*
X265054342Y-192857200D01*
X265197200Y-192785771D01*
X265482914Y-192785771D01*
X265625771Y-192857200D01*
X265697200Y-193000057D01*
X265697200Y-193142914D01*
X264982914Y-193285771D01*
X266197200Y-192785771D02*
X266554342Y-193785771D01*
X266911485Y-192785771D01*
X267482914Y-193642914D02*
X267554342Y-193714342D01*
X267482914Y-193785771D01*
X267411485Y-193714342D01*
X267482914Y-193642914D01*
X267482914Y-193785771D01*
X267482914Y-192857200D02*
X267554342Y-192928628D01*
X267482914Y-193000057D01*
X267411485Y-192928628D01*
X267482914Y-192857200D01*
X267482914Y-193000057D01*
D10*
D11*
X178362914Y-193714342D02*
X178577200Y-193785771D01*
X178934342Y-193785771D01*
X179077200Y-193714342D01*
X179148628Y-193642914D01*
X179220057Y-193500057D01*
X179220057Y-193357200D01*
X179148628Y-193214342D01*
X179077200Y-193142914D01*
X178934342Y-193071485D01*
X178648628Y-193000057D01*
X178505771Y-192928628D01*
X178434342Y-192857200D01*
X178362914Y-192714342D01*
X178362914Y-192571485D01*
X178434342Y-192428628D01*
X178505771Y-192357200D01*
X178648628Y-192285771D01*
X179005771Y-192285771D01*
X179220057Y-192357200D01*
X179862914Y-193785771D02*
X179862914Y-192785771D01*
X179862914Y-192285771D02*
X179791485Y-192357200D01*
X179862914Y-192428628D01*
X179934342Y-192357200D01*
X179862914Y-192285771D01*
X179862914Y-192428628D01*
X180434342Y-192785771D02*
X181220057Y-192785771D01*
X180434342Y-193785771D01*
X181220057Y-193785771D01*
X182362914Y-193714342D02*
X182220057Y-193785771D01*
X181934342Y-193785771D01*
X181791485Y-193714342D01*
X181720057Y-193571485D01*
X181720057Y-193000057D01*
X181791485Y-192857200D01*
X181934342Y-192785771D01*
X182220057Y-192785771D01*
X182362914Y-192857200D01*
X182434342Y-193000057D01*
X182434342Y-193142914D01*
X181720057Y-193285771D01*
X183077200Y-193642914D02*
X183148628Y-193714342D01*
X183077200Y-193785771D01*
X183005771Y-193714342D01*
X183077200Y-193642914D01*
X183077200Y-193785771D01*
X183077200Y-192857200D02*
X183148628Y-192928628D01*
X183077200Y-193000057D01*
X183005771Y-192928628D01*
X183077200Y-192857200D01*
X183077200Y-193000057D01*
X184862914Y-193357200D02*
X185577200Y-193357200D01*
X184720057Y-193785771D02*
X185220057Y-192285771D01*
X185720057Y-193785771D01*
X186862914Y-192785771D02*
X186862914Y-193785771D01*
X186505771Y-192214342D02*
X186148628Y-193285771D01*
X187077200Y-193285771D01*
D10*
D11*
X263434342Y-196585771D02*
X263434342Y-195085771D01*
X264791485Y-196585771D02*
X264791485Y-195085771D01*
X264791485Y-196514342D02*
X264648628Y-196585771D01*
X264362914Y-196585771D01*
X264220057Y-196514342D01*
X264148628Y-196442914D01*
X264077200Y-196300057D01*
X264077200Y-195871485D01*
X264148628Y-195728628D01*
X264220057Y-195657200D01*
X264362914Y-195585771D01*
X264648628Y-195585771D01*
X264791485Y-195657200D01*
X265505771Y-196442914D02*
X265577200Y-196514342D01*
X265505771Y-196585771D01*
X265434342Y-196514342D01*
X265505771Y-196442914D01*
X265505771Y-196585771D01*
X265505771Y-195657200D02*
X265577200Y-195728628D01*
X265505771Y-195800057D01*
X265434342Y-195728628D01*
X265505771Y-195657200D01*
X265505771Y-195800057D01*
X268148628Y-196585771D02*
X267291485Y-196585771D01*
X267720057Y-196585771D02*
X267720057Y-195085771D01*
X267577200Y-195300057D01*
X267434342Y-195442914D01*
X267291485Y-195514342D01*
X269862914Y-195014342D02*
X268577200Y-196942914D01*
X271148628Y-196585771D02*
X270291485Y-196585771D01*
X270720057Y-196585771D02*
X270720057Y-195085771D01*
X270577200Y-195300057D01*
X270434342Y-195442914D01*
X270291485Y-195514342D01*
D10*
D11*
X177002200Y-187507200D02*
X285002200Y-187507200D01*
D10*
D13*
X178714580Y-188211961D02*
X179857438Y-188211961D01*
X179036009Y-190211961D02*
X179286009Y-188211961D01*
X180274104Y-190211961D02*
X180440771Y-188878628D01*
X180524104Y-188211961D02*
X180416961Y-188307200D01*
X180500295Y-188402438D01*
X180607438Y-188307200D01*
X180524104Y-188211961D01*
X180500295Y-188402438D01*
X181107438Y-188878628D02*
X181869342Y-188878628D01*
X181476485Y-188211961D02*
X181262200Y-189926247D01*
X181333628Y-190116723D01*
X181512200Y-190211961D01*
X181702676Y-190211961D01*
X182655057Y-190211961D02*
X182476485Y-190116723D01*
X182405057Y-189926247D01*
X182619342Y-188211961D01*
X184190771Y-190116723D02*
X183988390Y-190211961D01*
X183607438Y-190211961D01*
X183428866Y-190116723D01*
X183357438Y-189926247D01*
X183452676Y-189164342D01*
X183571723Y-188973866D01*
X183774104Y-188878628D01*
X184155057Y-188878628D01*
X184333628Y-188973866D01*
X184405057Y-189164342D01*
X184381247Y-189354819D01*
X183405057Y-189545295D01*
X185155057Y-190021485D02*
X185238390Y-190116723D01*
X185131247Y-190211961D01*
X185047914Y-190116723D01*
X185155057Y-190021485D01*
X185131247Y-190211961D01*
X185286009Y-188973866D02*
X185369342Y-189069104D01*
X185262200Y-189164342D01*
X185178866Y-189069104D01*
X185286009Y-188973866D01*
X185262200Y-189164342D01*
D10*
D11*
X178934342Y-185600057D02*
X178434342Y-185600057D01*
X178434342Y-186385771D02*
X178434342Y-184885771D01*
X179148628Y-184885771D01*
X179720057Y-186385771D02*
X179720057Y-185385771D01*
X179720057Y-184885771D02*
X179648628Y-184957200D01*
X179720057Y-185028628D01*
X179791485Y-184957200D01*
X179720057Y-184885771D01*
X179720057Y-185028628D01*
X180648628Y-186385771D02*
X180505771Y-186314342D01*
X180434342Y-186171485D01*
X180434342Y-184885771D01*
X181791485Y-186314342D02*
X181648628Y-186385771D01*
X181362914Y-186385771D01*
X181220057Y-186314342D01*
X181148628Y-186171485D01*
X181148628Y-185600057D01*
X181220057Y-185457200D01*
X181362914Y-185385771D01*
X181648628Y-185385771D01*
X181791485Y-185457200D01*
X181862914Y-185600057D01*
X181862914Y-185742914D01*
X181148628Y-185885771D01*
X182505771Y-186242914D02*
X182577200Y-186314342D01*
X182505771Y-186385771D01*
X182434342Y-186314342D01*
X182505771Y-186242914D01*
X182505771Y-186385771D01*
X182505771Y-185457200D02*
X182577200Y-185528628D01*
X182505771Y-185600057D01*
X182434342Y-185528628D01*
X182505771Y-185457200D01*
X182505771Y-185600057D01*
X184362914Y-186385771D02*
X184362914Y-184885771D01*
X184720057Y-184885771D01*
X184934342Y-184957200D01*
X185077200Y-185100057D01*
X185148628Y-185242914D01*
X185220057Y-185528628D01*
X185220057Y-185742914D01*
X185148628Y-186028628D01*
X185077200Y-186171485D01*
X184934342Y-186314342D01*
X184720057Y-186385771D01*
X184362914Y-186385771D01*
X185862914Y-186385771D02*
X185862914Y-184885771D01*
X186220057Y-184885771D01*
X186434342Y-184957200D01*
X186577200Y-185100057D01*
X186648628Y-185242914D01*
X186720057Y-185528628D01*
X186720057Y-185742914D01*
X186648628Y-186028628D01*
X186577200Y-186171485D01*
X186434342Y-186314342D01*
X186220057Y-186385771D01*
X185862914Y-186385771D01*
X187291485Y-186314342D02*
X187505771Y-186385771D01*
X187862914Y-186385771D01*
X188005771Y-186314342D01*
X188077200Y-186242914D01*
X188148628Y-186100057D01*
X188148628Y-185957200D01*
X188077200Y-185814342D01*
X188005771Y-185742914D01*
X187862914Y-185671485D01*
X187577200Y-185600057D01*
X187434342Y-185528628D01*
X187362914Y-185457200D01*
X187291485Y-185314342D01*
X187291485Y-185171485D01*
X187362914Y-185028628D01*
X187434342Y-184957200D01*
X187577200Y-184885771D01*
X187934342Y-184885771D01*
X188148628Y-184957200D01*
X188791485Y-186242914D02*
X188862914Y-186314342D01*
X188791485Y-186385771D01*
X188720057Y-186314342D01*
X188791485Y-186242914D01*
X188791485Y-186385771D01*
X189505771Y-186385771D02*
X189505771Y-184885771D01*
X189648628Y-185814342D02*
X190077200Y-186385771D01*
X190077200Y-185385771D02*
X189505771Y-185957200D01*
X190720057Y-186385771D02*
X190720057Y-185385771D01*
X190720057Y-184885771D02*
X190648628Y-184957200D01*
X190720057Y-185028628D01*
X190791485Y-184957200D01*
X190720057Y-184885771D01*
X190720057Y-185028628D01*
X192077200Y-186314342D02*
X191934342Y-186385771D01*
X191648628Y-186385771D01*
X191505771Y-186314342D01*
X191434342Y-186242914D01*
X191362914Y-186100057D01*
X191362914Y-185671485D01*
X191434342Y-185528628D01*
X191505771Y-185457200D01*
X191648628Y-185385771D01*
X191934342Y-185385771D01*
X192077200Y-185457200D01*
X193362914Y-186385771D02*
X193362914Y-185600057D01*
X193291485Y-185457200D01*
X193148628Y-185385771D01*
X192862914Y-185385771D01*
X192720057Y-185457200D01*
X193362914Y-186314342D02*
X193220057Y-186385771D01*
X192862914Y-186385771D01*
X192720057Y-186314342D01*
X192648628Y-186171485D01*
X192648628Y-186028628D01*
X192720057Y-185885771D01*
X192862914Y-185814342D01*
X193220057Y-185814342D01*
X193362914Y-185742914D01*
X194720057Y-186385771D02*
X194720057Y-184885771D01*
X194720057Y-186314342D02*
X194577200Y-186385771D01*
X194291485Y-186385771D01*
X194148628Y-186314342D01*
X194077200Y-186242914D01*
X194005771Y-186100057D01*
X194005771Y-185671485D01*
X194077200Y-185528628D01*
X194148628Y-185457200D01*
X194291485Y-185385771D01*
X194577200Y-185385771D01*
X194720057Y-185457200D01*
X195077200Y-186528628D02*
X196220057Y-186528628D01*
X196577200Y-185385771D02*
X196577200Y-186885771D01*
X196577200Y-185457200D02*
X196720057Y-185385771D01*
X197005771Y-185385771D01*
X197148628Y-185457200D01*
X197220057Y-185528628D01*
X197291485Y-185671485D01*
X197291485Y-186100057D01*
X197220057Y-186242914D01*
X197148628Y-186314342D01*
X197005771Y-186385771D01*
X196720057Y-186385771D01*
X196577200Y-186314342D01*
X198577200Y-186314342D02*
X198434342Y-186385771D01*
X198148628Y-186385771D01*
X198005771Y-186314342D01*
X197934342Y-186242914D01*
X197862914Y-186100057D01*
X197862914Y-185671485D01*
X197934342Y-185528628D01*
X198005771Y-185457200D01*
X198148628Y-185385771D01*
X198434342Y-185385771D01*
X198577200Y-185457200D01*
X199220057Y-186385771D02*
X199220057Y-184885771D01*
X199220057Y-185457200D02*
X199362914Y-185385771D01*
X199648628Y-185385771D01*
X199791485Y-185457200D01*
X199862914Y-185528628D01*
X199934342Y-185671485D01*
X199934342Y-186100057D01*
X199862914Y-186242914D01*
X199791485Y-186314342D01*
X199648628Y-186385771D01*
X199362914Y-186385771D01*
X199220057Y-186314342D01*
D10*
D11*
X177002200Y-181507200D02*
X285002200Y-181507200D01*
D10*
D11*
X178362914Y-183614342D02*
X178577200Y-183685771D01*
X178934342Y-183685771D01*
X179077200Y-183614342D01*
X179148628Y-183542914D01*
X179220057Y-183400057D01*
X179220057Y-183257200D01*
X179148628Y-183114342D01*
X179077200Y-183042914D01*
X178934342Y-182971485D01*
X178648628Y-182900057D01*
X178505771Y-182828628D01*
X178434342Y-182757200D01*
X178362914Y-182614342D01*
X178362914Y-182471485D01*
X178434342Y-182328628D01*
X178505771Y-182257200D01*
X178648628Y-182185771D01*
X179005771Y-182185771D01*
X179220057Y-182257200D01*
X179862914Y-183685771D02*
X179862914Y-182185771D01*
X180505771Y-183685771D02*
X180505771Y-182900057D01*
X180434342Y-182757200D01*
X180291485Y-182685771D01*
X180077200Y-182685771D01*
X179934342Y-182757200D01*
X179862914Y-182828628D01*
X181791485Y-183614342D02*
X181648628Y-183685771D01*
X181362914Y-183685771D01*
X181220057Y-183614342D01*
X181148628Y-183471485D01*
X181148628Y-182900057D01*
X181220057Y-182757200D01*
X181362914Y-182685771D01*
X181648628Y-182685771D01*
X181791485Y-182757200D01*
X181862914Y-182900057D01*
X181862914Y-183042914D01*
X181148628Y-183185771D01*
X183077200Y-183614342D02*
X182934342Y-183685771D01*
X182648628Y-183685771D01*
X182505771Y-183614342D01*
X182434342Y-183471485D01*
X182434342Y-182900057D01*
X182505771Y-182757200D01*
X182648628Y-182685771D01*
X182934342Y-182685771D01*
X183077200Y-182757200D01*
X183148628Y-182900057D01*
X183148628Y-183042914D01*
X182434342Y-183185771D01*
X183577200Y-182685771D02*
X184148628Y-182685771D01*
X183791485Y-182185771D02*
X183791485Y-183471485D01*
X183862914Y-183614342D01*
X184005771Y-183685771D01*
X184148628Y-183685771D01*
X184648628Y-183542914D02*
X184720057Y-183614342D01*
X184648628Y-183685771D01*
X184577200Y-183614342D01*
X184648628Y-183542914D01*
X184648628Y-183685771D01*
X184648628Y-182757200D02*
X184720057Y-182828628D01*
X184648628Y-182900057D01*
X184577200Y-182828628D01*
X184648628Y-182757200D01*
X184648628Y-182900057D01*
D10*
D11*
X197002200Y-191507200D02*
X197002200Y-194507200D01*
D10*
D11*
X261002200Y-191507200D02*
X261002200Y-198007200D01*
D14*
%TO.C,J6*%
X96175000Y-62150000D03*
X101825000Y-62150000D03*
%TD*%
%TO.C,J5*%
X72175000Y-62150000D03*
X77825000Y-62150000D03*
%TD*%
%TO.C,J4*%
X48175000Y-62150000D03*
X53825000Y-62150000D03*
%TD*%
%TO.C,RBIAS1*%
G36*
G01*
X61750000Y-83756250D02*
X61750000Y-83243750D01*
G75*
G02*
X61968750Y-83025000I218750J0D01*
G01*
X62406250Y-83025000D01*
G75*
G02*
X62625000Y-83243750I0J-218750D01*
G01*
X62625000Y-83756250D01*
G75*
G02*
X62406250Y-83975000I-218750J0D01*
G01*
X61968750Y-83975000D01*
G75*
G02*
X61750000Y-83756250I0J218750D01*
G01*
G37*
G36*
G01*
X60175000Y-83756250D02*
X60175000Y-83243750D01*
G75*
G02*
X60393750Y-83025000I218750J0D01*
G01*
X60831250Y-83025000D01*
G75*
G02*
X61050000Y-83243750I0J-218750D01*
G01*
X61050000Y-83756250D01*
G75*
G02*
X60831250Y-83975000I-218750J0D01*
G01*
X60393750Y-83975000D01*
G75*
G02*
X60175000Y-83756250I0J218750D01*
G01*
G37*
%TD*%
%TO.C,R20*%
G36*
G01*
X63243750Y-126062500D02*
X63756250Y-126062500D01*
G75*
G02*
X63975000Y-126281250I0J-218750D01*
G01*
X63975000Y-126718750D01*
G75*
G02*
X63756250Y-126937500I-218750J0D01*
G01*
X63243750Y-126937500D01*
G75*
G02*
X63025000Y-126718750I0J218750D01*
G01*
X63025000Y-126281250D01*
G75*
G02*
X63243750Y-126062500I218750J0D01*
G01*
G37*
G36*
G01*
X63243750Y-124487500D02*
X63756250Y-124487500D01*
G75*
G02*
X63975000Y-124706250I0J-218750D01*
G01*
X63975000Y-125143750D01*
G75*
G02*
X63756250Y-125362500I-218750J0D01*
G01*
X63243750Y-125362500D01*
G75*
G02*
X63025000Y-125143750I0J218750D01*
G01*
X63025000Y-124706250D01*
G75*
G02*
X63243750Y-124487500I218750J0D01*
G01*
G37*
%TD*%
%TO.C,R19*%
G36*
G01*
X67762500Y-83756250D02*
X67762500Y-83243750D01*
G75*
G02*
X67981250Y-83025000I218750J0D01*
G01*
X68418750Y-83025000D01*
G75*
G02*
X68637500Y-83243750I0J-218750D01*
G01*
X68637500Y-83756250D01*
G75*
G02*
X68418750Y-83975000I-218750J0D01*
G01*
X67981250Y-83975000D01*
G75*
G02*
X67762500Y-83756250I0J218750D01*
G01*
G37*
G36*
G01*
X66187500Y-83756250D02*
X66187500Y-83243750D01*
G75*
G02*
X66406250Y-83025000I218750J0D01*
G01*
X66843750Y-83025000D01*
G75*
G02*
X67062500Y-83243750I0J-218750D01*
G01*
X67062500Y-83756250D01*
G75*
G02*
X66843750Y-83975000I-218750J0D01*
G01*
X66406250Y-83975000D01*
G75*
G02*
X66187500Y-83756250I0J218750D01*
G01*
G37*
%TD*%
%TO.C,R15*%
G36*
G01*
X64743750Y-126062500D02*
X65256250Y-126062500D01*
G75*
G02*
X65475000Y-126281250I0J-218750D01*
G01*
X65475000Y-126718750D01*
G75*
G02*
X65256250Y-126937500I-218750J0D01*
G01*
X64743750Y-126937500D01*
G75*
G02*
X64525000Y-126718750I0J218750D01*
G01*
X64525000Y-126281250D01*
G75*
G02*
X64743750Y-126062500I218750J0D01*
G01*
G37*
G36*
G01*
X64743750Y-124487500D02*
X65256250Y-124487500D01*
G75*
G02*
X65475000Y-124706250I0J-218750D01*
G01*
X65475000Y-125143750D01*
G75*
G02*
X65256250Y-125362500I-218750J0D01*
G01*
X64743750Y-125362500D01*
G75*
G02*
X64525000Y-125143750I0J218750D01*
G01*
X64525000Y-124706250D01*
G75*
G02*
X64743750Y-124487500I218750J0D01*
G01*
G37*
%TD*%
%TO.C,R14*%
G36*
G01*
X61343750Y-117362500D02*
X61856250Y-117362500D01*
G75*
G02*
X62075000Y-117581250I0J-218750D01*
G01*
X62075000Y-118018750D01*
G75*
G02*
X61856250Y-118237500I-218750J0D01*
G01*
X61343750Y-118237500D01*
G75*
G02*
X61125000Y-118018750I0J218750D01*
G01*
X61125000Y-117581250D01*
G75*
G02*
X61343750Y-117362500I218750J0D01*
G01*
G37*
G36*
G01*
X61343750Y-115787500D02*
X61856250Y-115787500D01*
G75*
G02*
X62075000Y-116006250I0J-218750D01*
G01*
X62075000Y-116443750D01*
G75*
G02*
X61856250Y-116662500I-218750J0D01*
G01*
X61343750Y-116662500D01*
G75*
G02*
X61125000Y-116443750I0J218750D01*
G01*
X61125000Y-116006250D01*
G75*
G02*
X61343750Y-115787500I218750J0D01*
G01*
G37*
%TD*%
%TO.C,R13*%
G36*
G01*
X66243750Y-91962500D02*
X66756250Y-91962500D01*
G75*
G02*
X66975000Y-92181250I0J-218750D01*
G01*
X66975000Y-92618750D01*
G75*
G02*
X66756250Y-92837500I-218750J0D01*
G01*
X66243750Y-92837500D01*
G75*
G02*
X66025000Y-92618750I0J218750D01*
G01*
X66025000Y-92181250D01*
G75*
G02*
X66243750Y-91962500I218750J0D01*
G01*
G37*
G36*
G01*
X66243750Y-90387500D02*
X66756250Y-90387500D01*
G75*
G02*
X66975000Y-90606250I0J-218750D01*
G01*
X66975000Y-91043750D01*
G75*
G02*
X66756250Y-91262500I-218750J0D01*
G01*
X66243750Y-91262500D01*
G75*
G02*
X66025000Y-91043750I0J218750D01*
G01*
X66025000Y-90606250D01*
G75*
G02*
X66243750Y-90387500I218750J0D01*
G01*
G37*
%TD*%
%TO.C,C49*%
G36*
G01*
X64037500Y-83243750D02*
X64037500Y-83756250D01*
G75*
G02*
X63818750Y-83975000I-218750J0D01*
G01*
X63381250Y-83975000D01*
G75*
G02*
X63162500Y-83756250I0J218750D01*
G01*
X63162500Y-83243750D01*
G75*
G02*
X63381250Y-83025000I218750J0D01*
G01*
X63818750Y-83025000D01*
G75*
G02*
X64037500Y-83243750I0J-218750D01*
G01*
G37*
G36*
G01*
X65612500Y-83243750D02*
X65612500Y-83756250D01*
G75*
G02*
X65393750Y-83975000I-218750J0D01*
G01*
X64956250Y-83975000D01*
G75*
G02*
X64737500Y-83756250I0J218750D01*
G01*
X64737500Y-83243750D01*
G75*
G02*
X64956250Y-83025000I218750J0D01*
G01*
X65393750Y-83025000D01*
G75*
G02*
X65612500Y-83243750I0J-218750D01*
G01*
G37*
%TD*%
%TO.C,C48*%
G36*
G01*
X61562500Y-92756250D02*
X61562500Y-92243750D01*
G75*
G02*
X61781250Y-92025000I218750J0D01*
G01*
X62218750Y-92025000D01*
G75*
G02*
X62437500Y-92243750I0J-218750D01*
G01*
X62437500Y-92756250D01*
G75*
G02*
X62218750Y-92975000I-218750J0D01*
G01*
X61781250Y-92975000D01*
G75*
G02*
X61562500Y-92756250I0J218750D01*
G01*
G37*
G36*
G01*
X59987500Y-92756250D02*
X59987500Y-92243750D01*
G75*
G02*
X60206250Y-92025000I218750J0D01*
G01*
X60643750Y-92025000D01*
G75*
G02*
X60862500Y-92243750I0J-218750D01*
G01*
X60862500Y-92756250D01*
G75*
G02*
X60643750Y-92975000I-218750J0D01*
G01*
X60206250Y-92975000D01*
G75*
G02*
X59987500Y-92756250I0J218750D01*
G01*
G37*
%TD*%
%TO.C,C47*%
G36*
G01*
X66243750Y-88962500D02*
X66756250Y-88962500D01*
G75*
G02*
X66975000Y-89181250I0J-218750D01*
G01*
X66975000Y-89618750D01*
G75*
G02*
X66756250Y-89837500I-218750J0D01*
G01*
X66243750Y-89837500D01*
G75*
G02*
X66025000Y-89618750I0J218750D01*
G01*
X66025000Y-89181250D01*
G75*
G02*
X66243750Y-88962500I218750J0D01*
G01*
G37*
G36*
G01*
X66243750Y-87387500D02*
X66756250Y-87387500D01*
G75*
G02*
X66975000Y-87606250I0J-218750D01*
G01*
X66975000Y-88043750D01*
G75*
G02*
X66756250Y-88262500I-218750J0D01*
G01*
X66243750Y-88262500D01*
G75*
G02*
X66025000Y-88043750I0J218750D01*
G01*
X66025000Y-87606250D01*
G75*
G02*
X66243750Y-87387500I218750J0D01*
G01*
G37*
%TD*%
%TO.C,C46*%
G36*
G01*
X64550000Y-92656250D02*
X64550000Y-92143750D01*
G75*
G02*
X64768750Y-91925000I218750J0D01*
G01*
X65206250Y-91925000D01*
G75*
G02*
X65425000Y-92143750I0J-218750D01*
G01*
X65425000Y-92656250D01*
G75*
G02*
X65206250Y-92875000I-218750J0D01*
G01*
X64768750Y-92875000D01*
G75*
G02*
X64550000Y-92656250I0J218750D01*
G01*
G37*
G36*
G01*
X62975000Y-92656250D02*
X62975000Y-92143750D01*
G75*
G02*
X63193750Y-91925000I218750J0D01*
G01*
X63631250Y-91925000D01*
G75*
G02*
X63850000Y-92143750I0J-218750D01*
G01*
X63850000Y-92656250D01*
G75*
G02*
X63631250Y-92875000I-218750J0D01*
G01*
X63193750Y-92875000D01*
G75*
G02*
X62975000Y-92656250I0J218750D01*
G01*
G37*
%TD*%
%TO.C,C45*%
G36*
G01*
X86187500Y-107743750D02*
X86187500Y-108256250D01*
G75*
G02*
X85968750Y-108475000I-218750J0D01*
G01*
X85531250Y-108475000D01*
G75*
G02*
X85312500Y-108256250I0J218750D01*
G01*
X85312500Y-107743750D01*
G75*
G02*
X85531250Y-107525000I218750J0D01*
G01*
X85968750Y-107525000D01*
G75*
G02*
X86187500Y-107743750I0J-218750D01*
G01*
G37*
G36*
G01*
X87762500Y-107743750D02*
X87762500Y-108256250D01*
G75*
G02*
X87543750Y-108475000I-218750J0D01*
G01*
X87106250Y-108475000D01*
G75*
G02*
X86887500Y-108256250I0J218750D01*
G01*
X86887500Y-107743750D01*
G75*
G02*
X87106250Y-107525000I218750J0D01*
G01*
X87543750Y-107525000D01*
G75*
G02*
X87762500Y-107743750I0J-218750D01*
G01*
G37*
%TD*%
%TO.C,C44*%
G36*
G01*
X82743750Y-102062500D02*
X83256250Y-102062500D01*
G75*
G02*
X83475000Y-102281250I0J-218750D01*
G01*
X83475000Y-102718750D01*
G75*
G02*
X83256250Y-102937500I-218750J0D01*
G01*
X82743750Y-102937500D01*
G75*
G02*
X82525000Y-102718750I0J218750D01*
G01*
X82525000Y-102281250D01*
G75*
G02*
X82743750Y-102062500I218750J0D01*
G01*
G37*
G36*
G01*
X82743750Y-100487500D02*
X83256250Y-100487500D01*
G75*
G02*
X83475000Y-100706250I0J-218750D01*
G01*
X83475000Y-101143750D01*
G75*
G02*
X83256250Y-101362500I-218750J0D01*
G01*
X82743750Y-101362500D01*
G75*
G02*
X82525000Y-101143750I0J218750D01*
G01*
X82525000Y-100706250D01*
G75*
G02*
X82743750Y-100487500I218750J0D01*
G01*
G37*
%TD*%
%TO.C,C43*%
G36*
G01*
X81243750Y-95312500D02*
X81756250Y-95312500D01*
G75*
G02*
X81975000Y-95531250I0J-218750D01*
G01*
X81975000Y-95968750D01*
G75*
G02*
X81756250Y-96187500I-218750J0D01*
G01*
X81243750Y-96187500D01*
G75*
G02*
X81025000Y-95968750I0J218750D01*
G01*
X81025000Y-95531250D01*
G75*
G02*
X81243750Y-95312500I218750J0D01*
G01*
G37*
G36*
G01*
X81243750Y-93737500D02*
X81756250Y-93737500D01*
G75*
G02*
X81975000Y-93956250I0J-218750D01*
G01*
X81975000Y-94393750D01*
G75*
G02*
X81756250Y-94612500I-218750J0D01*
G01*
X81243750Y-94612500D01*
G75*
G02*
X81025000Y-94393750I0J218750D01*
G01*
X81025000Y-93956250D01*
G75*
G02*
X81243750Y-93737500I218750J0D01*
G01*
G37*
%TD*%
%TO.C,C42*%
G36*
G01*
X90812500Y-93006250D02*
X90812500Y-92493750D01*
G75*
G02*
X91031250Y-92275000I218750J0D01*
G01*
X91468750Y-92275000D01*
G75*
G02*
X91687500Y-92493750I0J-218750D01*
G01*
X91687500Y-93006250D01*
G75*
G02*
X91468750Y-93225000I-218750J0D01*
G01*
X91031250Y-93225000D01*
G75*
G02*
X90812500Y-93006250I0J218750D01*
G01*
G37*
G36*
G01*
X89237500Y-93006250D02*
X89237500Y-92493750D01*
G75*
G02*
X89456250Y-92275000I218750J0D01*
G01*
X89893750Y-92275000D01*
G75*
G02*
X90112500Y-92493750I0J-218750D01*
G01*
X90112500Y-93006250D01*
G75*
G02*
X89893750Y-93225000I-218750J0D01*
G01*
X89456250Y-93225000D01*
G75*
G02*
X89237500Y-93006250I0J218750D01*
G01*
G37*
%TD*%
%TO.C,C41*%
G36*
G01*
X68256250Y-88187500D02*
X67743750Y-88187500D01*
G75*
G02*
X67525000Y-87968750I0J218750D01*
G01*
X67525000Y-87531250D01*
G75*
G02*
X67743750Y-87312500I218750J0D01*
G01*
X68256250Y-87312500D01*
G75*
G02*
X68475000Y-87531250I0J-218750D01*
G01*
X68475000Y-87968750D01*
G75*
G02*
X68256250Y-88187500I-218750J0D01*
G01*
G37*
G36*
G01*
X68256250Y-89762500D02*
X67743750Y-89762500D01*
G75*
G02*
X67525000Y-89543750I0J218750D01*
G01*
X67525000Y-89106250D01*
G75*
G02*
X67743750Y-88887500I218750J0D01*
G01*
X68256250Y-88887500D01*
G75*
G02*
X68475000Y-89106250I0J-218750D01*
G01*
X68475000Y-89543750D01*
G75*
G02*
X68256250Y-89762500I-218750J0D01*
G01*
G37*
%TD*%
%TO.C,C40*%
G36*
G01*
X94243750Y-95812500D02*
X94756250Y-95812500D01*
G75*
G02*
X94975000Y-96031250I0J-218750D01*
G01*
X94975000Y-96468750D01*
G75*
G02*
X94756250Y-96687500I-218750J0D01*
G01*
X94243750Y-96687500D01*
G75*
G02*
X94025000Y-96468750I0J218750D01*
G01*
X94025000Y-96031250D01*
G75*
G02*
X94243750Y-95812500I218750J0D01*
G01*
G37*
G36*
G01*
X94243750Y-94237500D02*
X94756250Y-94237500D01*
G75*
G02*
X94975000Y-94456250I0J-218750D01*
G01*
X94975000Y-94893750D01*
G75*
G02*
X94756250Y-95112500I-218750J0D01*
G01*
X94243750Y-95112500D01*
G75*
G02*
X94025000Y-94893750I0J218750D01*
G01*
X94025000Y-94456250D01*
G75*
G02*
X94243750Y-94237500I218750J0D01*
G01*
G37*
%TD*%
%TO.C,C38*%
G36*
G01*
X56006250Y-91262500D02*
X55493750Y-91262500D01*
G75*
G02*
X55275000Y-91043750I0J218750D01*
G01*
X55275000Y-90606250D01*
G75*
G02*
X55493750Y-90387500I218750J0D01*
G01*
X56006250Y-90387500D01*
G75*
G02*
X56225000Y-90606250I0J-218750D01*
G01*
X56225000Y-91043750D01*
G75*
G02*
X56006250Y-91262500I-218750J0D01*
G01*
G37*
G36*
G01*
X56006250Y-92837500D02*
X55493750Y-92837500D01*
G75*
G02*
X55275000Y-92618750I0J218750D01*
G01*
X55275000Y-92181250D01*
G75*
G02*
X55493750Y-91962500I218750J0D01*
G01*
X56006250Y-91962500D01*
G75*
G02*
X56225000Y-92181250I0J-218750D01*
G01*
X56225000Y-92618750D01*
G75*
G02*
X56006250Y-92837500I-218750J0D01*
G01*
G37*
%TD*%
%TO.C,C37*%
G36*
G01*
X94243750Y-102812500D02*
X94756250Y-102812500D01*
G75*
G02*
X94975000Y-103031250I0J-218750D01*
G01*
X94975000Y-103468750D01*
G75*
G02*
X94756250Y-103687500I-218750J0D01*
G01*
X94243750Y-103687500D01*
G75*
G02*
X94025000Y-103468750I0J218750D01*
G01*
X94025000Y-103031250D01*
G75*
G02*
X94243750Y-102812500I218750J0D01*
G01*
G37*
G36*
G01*
X94243750Y-101237500D02*
X94756250Y-101237500D01*
G75*
G02*
X94975000Y-101456250I0J-218750D01*
G01*
X94975000Y-101893750D01*
G75*
G02*
X94756250Y-102112500I-218750J0D01*
G01*
X94243750Y-102112500D01*
G75*
G02*
X94025000Y-101893750I0J218750D01*
G01*
X94025000Y-101456250D01*
G75*
G02*
X94243750Y-101237500I218750J0D01*
G01*
G37*
%TD*%
%TO.C,C34*%
G36*
G01*
X87812500Y-93006250D02*
X87812500Y-92493750D01*
G75*
G02*
X88031250Y-92275000I218750J0D01*
G01*
X88468750Y-92275000D01*
G75*
G02*
X88687500Y-92493750I0J-218750D01*
G01*
X88687500Y-93006250D01*
G75*
G02*
X88468750Y-93225000I-218750J0D01*
G01*
X88031250Y-93225000D01*
G75*
G02*
X87812500Y-93006250I0J218750D01*
G01*
G37*
G36*
G01*
X86237500Y-93006250D02*
X86237500Y-92493750D01*
G75*
G02*
X86456250Y-92275000I218750J0D01*
G01*
X86893750Y-92275000D01*
G75*
G02*
X87112500Y-92493750I0J-218750D01*
G01*
X87112500Y-93006250D01*
G75*
G02*
X86893750Y-93225000I-218750J0D01*
G01*
X86456250Y-93225000D01*
G75*
G02*
X86237500Y-93006250I0J218750D01*
G01*
G37*
%TD*%
%TO.C,C33*%
G36*
G01*
X56256250Y-87400000D02*
X55743750Y-87400000D01*
G75*
G02*
X55525000Y-87181250I0J218750D01*
G01*
X55525000Y-86743750D01*
G75*
G02*
X55743750Y-86525000I218750J0D01*
G01*
X56256250Y-86525000D01*
G75*
G02*
X56475000Y-86743750I0J-218750D01*
G01*
X56475000Y-87181250D01*
G75*
G02*
X56256250Y-87400000I-218750J0D01*
G01*
G37*
G36*
G01*
X56256250Y-88975000D02*
X55743750Y-88975000D01*
G75*
G02*
X55525000Y-88756250I0J218750D01*
G01*
X55525000Y-88318750D01*
G75*
G02*
X55743750Y-88100000I218750J0D01*
G01*
X56256250Y-88100000D01*
G75*
G02*
X56475000Y-88318750I0J-218750D01*
G01*
X56475000Y-88756250D01*
G75*
G02*
X56256250Y-88975000I-218750J0D01*
G01*
G37*
%TD*%
%TO.C,C31*%
G36*
G01*
X87887500Y-105506250D02*
X87887500Y-104993750D01*
G75*
G02*
X88106250Y-104775000I218750J0D01*
G01*
X88543750Y-104775000D01*
G75*
G02*
X88762500Y-104993750I0J-218750D01*
G01*
X88762500Y-105506250D01*
G75*
G02*
X88543750Y-105725000I-218750J0D01*
G01*
X88106250Y-105725000D01*
G75*
G02*
X87887500Y-105506250I0J218750D01*
G01*
G37*
G36*
G01*
X86312500Y-105506250D02*
X86312500Y-104993750D01*
G75*
G02*
X86531250Y-104775000I218750J0D01*
G01*
X86968750Y-104775000D01*
G75*
G02*
X87187500Y-104993750I0J-218750D01*
G01*
X87187500Y-105506250D01*
G75*
G02*
X86968750Y-105725000I-218750J0D01*
G01*
X86531250Y-105725000D01*
G75*
G02*
X86312500Y-105506250I0J218750D01*
G01*
G37*
%TD*%
%TO.C,C29*%
G36*
G01*
X57743750Y-93562500D02*
X58256250Y-93562500D01*
G75*
G02*
X58475000Y-93781250I0J-218750D01*
G01*
X58475000Y-94218750D01*
G75*
G02*
X58256250Y-94437500I-218750J0D01*
G01*
X57743750Y-94437500D01*
G75*
G02*
X57525000Y-94218750I0J218750D01*
G01*
X57525000Y-93781250D01*
G75*
G02*
X57743750Y-93562500I218750J0D01*
G01*
G37*
G36*
G01*
X57743750Y-91987500D02*
X58256250Y-91987500D01*
G75*
G02*
X58475000Y-92206250I0J-218750D01*
G01*
X58475000Y-92643750D01*
G75*
G02*
X58256250Y-92862500I-218750J0D01*
G01*
X57743750Y-92862500D01*
G75*
G02*
X57525000Y-92643750I0J218750D01*
G01*
X57525000Y-92206250D01*
G75*
G02*
X57743750Y-91987500I218750J0D01*
G01*
G37*
%TD*%
%TO.C,C28*%
G36*
G01*
X68743750Y-112137500D02*
X69256250Y-112137500D01*
G75*
G02*
X69475000Y-112356250I0J-218750D01*
G01*
X69475000Y-112793750D01*
G75*
G02*
X69256250Y-113012500I-218750J0D01*
G01*
X68743750Y-113012500D01*
G75*
G02*
X68525000Y-112793750I0J218750D01*
G01*
X68525000Y-112356250D01*
G75*
G02*
X68743750Y-112137500I218750J0D01*
G01*
G37*
G36*
G01*
X68743750Y-110562500D02*
X69256250Y-110562500D01*
G75*
G02*
X69475000Y-110781250I0J-218750D01*
G01*
X69475000Y-111218750D01*
G75*
G02*
X69256250Y-111437500I-218750J0D01*
G01*
X68743750Y-111437500D01*
G75*
G02*
X68525000Y-111218750I0J218750D01*
G01*
X68525000Y-110781250D01*
G75*
G02*
X68743750Y-110562500I218750J0D01*
G01*
G37*
%TD*%
%TO.C,C27*%
G36*
G01*
X55256250Y-111862500D02*
X54743750Y-111862500D01*
G75*
G02*
X54525000Y-111643750I0J218750D01*
G01*
X54525000Y-111206250D01*
G75*
G02*
X54743750Y-110987500I218750J0D01*
G01*
X55256250Y-110987500D01*
G75*
G02*
X55475000Y-111206250I0J-218750D01*
G01*
X55475000Y-111643750D01*
G75*
G02*
X55256250Y-111862500I-218750J0D01*
G01*
G37*
G36*
G01*
X55256250Y-113437500D02*
X54743750Y-113437500D01*
G75*
G02*
X54525000Y-113218750I0J218750D01*
G01*
X54525000Y-112781250D01*
G75*
G02*
X54743750Y-112562500I218750J0D01*
G01*
X55256250Y-112562500D01*
G75*
G02*
X55475000Y-112781250I0J-218750D01*
G01*
X55475000Y-113218750D01*
G75*
G02*
X55256250Y-113437500I-218750J0D01*
G01*
G37*
%TD*%
%TO.C,C25*%
G36*
G01*
X69543750Y-119562500D02*
X70056250Y-119562500D01*
G75*
G02*
X70275000Y-119781250I0J-218750D01*
G01*
X70275000Y-120218750D01*
G75*
G02*
X70056250Y-120437500I-218750J0D01*
G01*
X69543750Y-120437500D01*
G75*
G02*
X69325000Y-120218750I0J218750D01*
G01*
X69325000Y-119781250D01*
G75*
G02*
X69543750Y-119562500I218750J0D01*
G01*
G37*
G36*
G01*
X69543750Y-117987500D02*
X70056250Y-117987500D01*
G75*
G02*
X70275000Y-118206250I0J-218750D01*
G01*
X70275000Y-118643750D01*
G75*
G02*
X70056250Y-118862500I-218750J0D01*
G01*
X69543750Y-118862500D01*
G75*
G02*
X69325000Y-118643750I0J218750D01*
G01*
X69325000Y-118206250D01*
G75*
G02*
X69543750Y-117987500I218750J0D01*
G01*
G37*
%TD*%
%TO.C,C24*%
G36*
G01*
X56850000Y-78756250D02*
X56850000Y-78243750D01*
G75*
G02*
X57068750Y-78025000I218750J0D01*
G01*
X57506250Y-78025000D01*
G75*
G02*
X57725000Y-78243750I0J-218750D01*
G01*
X57725000Y-78756250D01*
G75*
G02*
X57506250Y-78975000I-218750J0D01*
G01*
X57068750Y-78975000D01*
G75*
G02*
X56850000Y-78756250I0J218750D01*
G01*
G37*
G36*
G01*
X55275000Y-78756250D02*
X55275000Y-78243750D01*
G75*
G02*
X55493750Y-78025000I218750J0D01*
G01*
X55931250Y-78025000D01*
G75*
G02*
X56150000Y-78243750I0J-218750D01*
G01*
X56150000Y-78756250D01*
G75*
G02*
X55931250Y-78975000I-218750J0D01*
G01*
X55493750Y-78975000D01*
G75*
G02*
X55275000Y-78756250I0J218750D01*
G01*
G37*
%TD*%
%TO.C,C23*%
G36*
G01*
X69256250Y-114937500D02*
X68743750Y-114937500D01*
G75*
G02*
X68525000Y-114718750I0J218750D01*
G01*
X68525000Y-114281250D01*
G75*
G02*
X68743750Y-114062500I218750J0D01*
G01*
X69256250Y-114062500D01*
G75*
G02*
X69475000Y-114281250I0J-218750D01*
G01*
X69475000Y-114718750D01*
G75*
G02*
X69256250Y-114937500I-218750J0D01*
G01*
G37*
G36*
G01*
X69256250Y-116512500D02*
X68743750Y-116512500D01*
G75*
G02*
X68525000Y-116293750I0J218750D01*
G01*
X68525000Y-115856250D01*
G75*
G02*
X68743750Y-115637500I218750J0D01*
G01*
X69256250Y-115637500D01*
G75*
G02*
X69475000Y-115856250I0J-218750D01*
G01*
X69475000Y-116293750D01*
G75*
G02*
X69256250Y-116512500I-218750J0D01*
G01*
G37*
%TD*%
%TO.C,C22*%
G36*
G01*
X58062500Y-82256250D02*
X58062500Y-81743750D01*
G75*
G02*
X58281250Y-81525000I218750J0D01*
G01*
X58718750Y-81525000D01*
G75*
G02*
X58937500Y-81743750I0J-218750D01*
G01*
X58937500Y-82256250D01*
G75*
G02*
X58718750Y-82475000I-218750J0D01*
G01*
X58281250Y-82475000D01*
G75*
G02*
X58062500Y-82256250I0J218750D01*
G01*
G37*
G36*
G01*
X56487500Y-82256250D02*
X56487500Y-81743750D01*
G75*
G02*
X56706250Y-81525000I218750J0D01*
G01*
X57143750Y-81525000D01*
G75*
G02*
X57362500Y-81743750I0J-218750D01*
G01*
X57362500Y-82256250D01*
G75*
G02*
X57143750Y-82475000I-218750J0D01*
G01*
X56706250Y-82475000D01*
G75*
G02*
X56487500Y-82256250I0J218750D01*
G01*
G37*
%TD*%
%TO.C,C21*%
G36*
G01*
X68743750Y-109062500D02*
X69256250Y-109062500D01*
G75*
G02*
X69475000Y-109281250I0J-218750D01*
G01*
X69475000Y-109718750D01*
G75*
G02*
X69256250Y-109937500I-218750J0D01*
G01*
X68743750Y-109937500D01*
G75*
G02*
X68525000Y-109718750I0J218750D01*
G01*
X68525000Y-109281250D01*
G75*
G02*
X68743750Y-109062500I218750J0D01*
G01*
G37*
G36*
G01*
X68743750Y-107487500D02*
X69256250Y-107487500D01*
G75*
G02*
X69475000Y-107706250I0J-218750D01*
G01*
X69475000Y-108143750D01*
G75*
G02*
X69256250Y-108362500I-218750J0D01*
G01*
X68743750Y-108362500D01*
G75*
G02*
X68525000Y-108143750I0J218750D01*
G01*
X68525000Y-107706250D01*
G75*
G02*
X68743750Y-107487500I218750J0D01*
G01*
G37*
%TD*%
%TO.C,C20*%
G36*
G01*
X61062500Y-82256250D02*
X61062500Y-81743750D01*
G75*
G02*
X61281250Y-81525000I218750J0D01*
G01*
X61718750Y-81525000D01*
G75*
G02*
X61937500Y-81743750I0J-218750D01*
G01*
X61937500Y-82256250D01*
G75*
G02*
X61718750Y-82475000I-218750J0D01*
G01*
X61281250Y-82475000D01*
G75*
G02*
X61062500Y-82256250I0J218750D01*
G01*
G37*
G36*
G01*
X59487500Y-82256250D02*
X59487500Y-81743750D01*
G75*
G02*
X59706250Y-81525000I218750J0D01*
G01*
X60143750Y-81525000D01*
G75*
G02*
X60362500Y-81743750I0J-218750D01*
G01*
X60362500Y-82256250D01*
G75*
G02*
X60143750Y-82475000I-218750J0D01*
G01*
X59706250Y-82475000D01*
G75*
G02*
X59487500Y-82256250I0J218750D01*
G01*
G37*
%TD*%
%TO.C,C19*%
G36*
G01*
X69256250Y-104362500D02*
X68743750Y-104362500D01*
G75*
G02*
X68525000Y-104143750I0J218750D01*
G01*
X68525000Y-103706250D01*
G75*
G02*
X68743750Y-103487500I218750J0D01*
G01*
X69256250Y-103487500D01*
G75*
G02*
X69475000Y-103706250I0J-218750D01*
G01*
X69475000Y-104143750D01*
G75*
G02*
X69256250Y-104362500I-218750J0D01*
G01*
G37*
G36*
G01*
X69256250Y-105937500D02*
X68743750Y-105937500D01*
G75*
G02*
X68525000Y-105718750I0J218750D01*
G01*
X68525000Y-105281250D01*
G75*
G02*
X68743750Y-105062500I218750J0D01*
G01*
X69256250Y-105062500D01*
G75*
G02*
X69475000Y-105281250I0J-218750D01*
G01*
X69475000Y-105718750D01*
G75*
G02*
X69256250Y-105937500I-218750J0D01*
G01*
G37*
%TD*%
%TO.C,C18*%
G36*
G01*
X64062500Y-82256250D02*
X64062500Y-81743750D01*
G75*
G02*
X64281250Y-81525000I218750J0D01*
G01*
X64718750Y-81525000D01*
G75*
G02*
X64937500Y-81743750I0J-218750D01*
G01*
X64937500Y-82256250D01*
G75*
G02*
X64718750Y-82475000I-218750J0D01*
G01*
X64281250Y-82475000D01*
G75*
G02*
X64062500Y-82256250I0J218750D01*
G01*
G37*
G36*
G01*
X62487500Y-82256250D02*
X62487500Y-81743750D01*
G75*
G02*
X62706250Y-81525000I218750J0D01*
G01*
X63143750Y-81525000D01*
G75*
G02*
X63362500Y-81743750I0J-218750D01*
G01*
X63362500Y-82256250D01*
G75*
G02*
X63143750Y-82475000I-218750J0D01*
G01*
X62706250Y-82475000D01*
G75*
G02*
X62487500Y-82256250I0J218750D01*
G01*
G37*
%TD*%
%TO.C,C17*%
G36*
G01*
X61687500Y-102493750D02*
X61687500Y-103006250D01*
G75*
G02*
X61468750Y-103225000I-218750J0D01*
G01*
X61031250Y-103225000D01*
G75*
G02*
X60812500Y-103006250I0J218750D01*
G01*
X60812500Y-102493750D01*
G75*
G02*
X61031250Y-102275000I218750J0D01*
G01*
X61468750Y-102275000D01*
G75*
G02*
X61687500Y-102493750I0J-218750D01*
G01*
G37*
G36*
G01*
X63262500Y-102493750D02*
X63262500Y-103006250D01*
G75*
G02*
X63043750Y-103225000I-218750J0D01*
G01*
X62606250Y-103225000D01*
G75*
G02*
X62387500Y-103006250I0J218750D01*
G01*
X62387500Y-102493750D01*
G75*
G02*
X62606250Y-102275000I218750J0D01*
G01*
X63043750Y-102275000D01*
G75*
G02*
X63262500Y-102493750I0J-218750D01*
G01*
G37*
%TD*%
%TO.C,C16*%
G36*
G01*
X67137500Y-82256250D02*
X67137500Y-81743750D01*
G75*
G02*
X67356250Y-81525000I218750J0D01*
G01*
X67793750Y-81525000D01*
G75*
G02*
X68012500Y-81743750I0J-218750D01*
G01*
X68012500Y-82256250D01*
G75*
G02*
X67793750Y-82475000I-218750J0D01*
G01*
X67356250Y-82475000D01*
G75*
G02*
X67137500Y-82256250I0J218750D01*
G01*
G37*
G36*
G01*
X65562500Y-82256250D02*
X65562500Y-81743750D01*
G75*
G02*
X65781250Y-81525000I218750J0D01*
G01*
X66218750Y-81525000D01*
G75*
G02*
X66437500Y-81743750I0J-218750D01*
G01*
X66437500Y-82256250D01*
G75*
G02*
X66218750Y-82475000I-218750J0D01*
G01*
X65781250Y-82475000D01*
G75*
G02*
X65562500Y-82256250I0J218750D01*
G01*
G37*
%TD*%
%TO.C,C15*%
G36*
G01*
X55256250Y-104612500D02*
X54743750Y-104612500D01*
G75*
G02*
X54525000Y-104393750I0J218750D01*
G01*
X54525000Y-103956250D01*
G75*
G02*
X54743750Y-103737500I218750J0D01*
G01*
X55256250Y-103737500D01*
G75*
G02*
X55475000Y-103956250I0J-218750D01*
G01*
X55475000Y-104393750D01*
G75*
G02*
X55256250Y-104612500I-218750J0D01*
G01*
G37*
G36*
G01*
X55256250Y-106187500D02*
X54743750Y-106187500D01*
G75*
G02*
X54525000Y-105968750I0J218750D01*
G01*
X54525000Y-105531250D01*
G75*
G02*
X54743750Y-105312500I218750J0D01*
G01*
X55256250Y-105312500D01*
G75*
G02*
X55475000Y-105531250I0J-218750D01*
G01*
X55475000Y-105968750D01*
G75*
G02*
X55256250Y-106187500I-218750J0D01*
G01*
G37*
%TD*%
%TO.C,C14*%
G36*
G01*
X68256250Y-91650000D02*
X67743750Y-91650000D01*
G75*
G02*
X67525000Y-91431250I0J218750D01*
G01*
X67525000Y-90993750D01*
G75*
G02*
X67743750Y-90775000I218750J0D01*
G01*
X68256250Y-90775000D01*
G75*
G02*
X68475000Y-90993750I0J-218750D01*
G01*
X68475000Y-91431250D01*
G75*
G02*
X68256250Y-91650000I-218750J0D01*
G01*
G37*
G36*
G01*
X68256250Y-93225000D02*
X67743750Y-93225000D01*
G75*
G02*
X67525000Y-93006250I0J218750D01*
G01*
X67525000Y-92568750D01*
G75*
G02*
X67743750Y-92350000I218750J0D01*
G01*
X68256250Y-92350000D01*
G75*
G02*
X68475000Y-92568750I0J-218750D01*
G01*
X68475000Y-93006250D01*
G75*
G02*
X68256250Y-93225000I-218750J0D01*
G01*
G37*
%TD*%
%TO.C,C13*%
G36*
G01*
X54743750Y-109137500D02*
X55256250Y-109137500D01*
G75*
G02*
X55475000Y-109356250I0J-218750D01*
G01*
X55475000Y-109793750D01*
G75*
G02*
X55256250Y-110012500I-218750J0D01*
G01*
X54743750Y-110012500D01*
G75*
G02*
X54525000Y-109793750I0J218750D01*
G01*
X54525000Y-109356250D01*
G75*
G02*
X54743750Y-109137500I218750J0D01*
G01*
G37*
G36*
G01*
X54743750Y-107562500D02*
X55256250Y-107562500D01*
G75*
G02*
X55475000Y-107781250I0J-218750D01*
G01*
X55475000Y-108218750D01*
G75*
G02*
X55256250Y-108437500I-218750J0D01*
G01*
X54743750Y-108437500D01*
G75*
G02*
X54525000Y-108218750I0J218750D01*
G01*
X54525000Y-107781250D01*
G75*
G02*
X54743750Y-107562500I218750J0D01*
G01*
G37*
%TD*%
%TO.C,C12*%
G36*
G01*
X63562500Y-94256250D02*
X63562500Y-93743750D01*
G75*
G02*
X63781250Y-93525000I218750J0D01*
G01*
X64218750Y-93525000D01*
G75*
G02*
X64437500Y-93743750I0J-218750D01*
G01*
X64437500Y-94256250D01*
G75*
G02*
X64218750Y-94475000I-218750J0D01*
G01*
X63781250Y-94475000D01*
G75*
G02*
X63562500Y-94256250I0J218750D01*
G01*
G37*
G36*
G01*
X61987500Y-94256250D02*
X61987500Y-93743750D01*
G75*
G02*
X62206250Y-93525000I218750J0D01*
G01*
X62643750Y-93525000D01*
G75*
G02*
X62862500Y-93743750I0J-218750D01*
G01*
X62862500Y-94256250D01*
G75*
G02*
X62643750Y-94475000I-218750J0D01*
G01*
X62206250Y-94475000D01*
G75*
G02*
X61987500Y-94256250I0J218750D01*
G01*
G37*
%TD*%
%TO.C,C11*%
G36*
G01*
X55256250Y-114937500D02*
X54743750Y-114937500D01*
G75*
G02*
X54525000Y-114718750I0J218750D01*
G01*
X54525000Y-114281250D01*
G75*
G02*
X54743750Y-114062500I218750J0D01*
G01*
X55256250Y-114062500D01*
G75*
G02*
X55475000Y-114281250I0J-218750D01*
G01*
X55475000Y-114718750D01*
G75*
G02*
X55256250Y-114937500I-218750J0D01*
G01*
G37*
G36*
G01*
X55256250Y-116512500D02*
X54743750Y-116512500D01*
G75*
G02*
X54525000Y-116293750I0J218750D01*
G01*
X54525000Y-115856250D01*
G75*
G02*
X54743750Y-115637500I218750J0D01*
G01*
X55256250Y-115637500D01*
G75*
G02*
X55475000Y-115856250I0J-218750D01*
G01*
X55475000Y-116293750D01*
G75*
G02*
X55256250Y-116512500I-218750J0D01*
G01*
G37*
%TD*%
%TO.C,C10*%
G36*
G01*
X60562500Y-94256250D02*
X60562500Y-93743750D01*
G75*
G02*
X60781250Y-93525000I218750J0D01*
G01*
X61218750Y-93525000D01*
G75*
G02*
X61437500Y-93743750I0J-218750D01*
G01*
X61437500Y-94256250D01*
G75*
G02*
X61218750Y-94475000I-218750J0D01*
G01*
X60781250Y-94475000D01*
G75*
G02*
X60562500Y-94256250I0J218750D01*
G01*
G37*
G36*
G01*
X58987500Y-94256250D02*
X58987500Y-93743750D01*
G75*
G02*
X59206250Y-93525000I218750J0D01*
G01*
X59643750Y-93525000D01*
G75*
G02*
X59862500Y-93743750I0J-218750D01*
G01*
X59862500Y-94256250D01*
G75*
G02*
X59643750Y-94475000I-218750J0D01*
G01*
X59206250Y-94475000D01*
G75*
G02*
X58987500Y-94256250I0J218750D01*
G01*
G37*
%TD*%
%TO.C,C9*%
G36*
G01*
X54743750Y-119562500D02*
X55256250Y-119562500D01*
G75*
G02*
X55475000Y-119781250I0J-218750D01*
G01*
X55475000Y-120218750D01*
G75*
G02*
X55256250Y-120437500I-218750J0D01*
G01*
X54743750Y-120437500D01*
G75*
G02*
X54525000Y-120218750I0J218750D01*
G01*
X54525000Y-119781250D01*
G75*
G02*
X54743750Y-119562500I218750J0D01*
G01*
G37*
G36*
G01*
X54743750Y-117987500D02*
X55256250Y-117987500D01*
G75*
G02*
X55475000Y-118206250I0J-218750D01*
G01*
X55475000Y-118643750D01*
G75*
G02*
X55256250Y-118862500I-218750J0D01*
G01*
X54743750Y-118862500D01*
G75*
G02*
X54525000Y-118643750I0J218750D01*
G01*
X54525000Y-118206250D01*
G75*
G02*
X54743750Y-117987500I218750J0D01*
G01*
G37*
%TD*%
M02*
