%TF.GenerationSoftware,KiCad,Pcbnew,(5.1.6)-1*%
%TF.CreationDate,2020-10-26T13:42:29-06:00*%
%TF.ProjectId,DDS,4444532e-6b69-4636-9164-5f7063625858,rev?*%
%TF.SameCoordinates,Original*%
%TF.FileFunction,Paste,Top*%
%TF.FilePolarity,Positive*%
%FSLAX46Y46*%
G04 Gerber Fmt 4.6, Leading zero omitted, Abs format (unit mm)*
G04 Created by KiCad (PCBNEW (5.1.6)-1) date 2020-10-26 13:42:29*
%MOMM*%
%LPD*%
G01*
G04 APERTURE LIST*
%ADD10C,0.100000*%
%ADD11C,0.150000*%
%ADD12C,0.300000*%
%ADD13C,0.400000*%
%ADD14R,1.270000X3.600000*%
%ADD15R,1.350000X4.200000*%
%ADD16R,2.000000X7.875000*%
%ADD17R,0.750000X1.100000*%
%ADD18R,0.750000X0.680000*%
%ADD19R,2.000000X1.500000*%
%ADD20R,2.000000X3.800000*%
%ADD21R,1.650000X2.540000*%
%ADD22R,2.500000X2.000000*%
%ADD23R,2.000000X2.500000*%
%ADD24R,0.500000X2.500000*%
G04 APERTURE END LIST*
D10*
D11*
X177002200Y-166007200D02*
X177002200Y-198007200D01*
X285002200Y-198007200D01*
X285002200Y-166007200D01*
X177002200Y-166007200D01*
D10*
D11*
X10000000Y-10000000D02*
X10000000Y-200007200D01*
X287002200Y-200007200D01*
X287002200Y-10000000D01*
X10000000Y-10000000D01*
D10*
D11*
X12000000Y-12000000D02*
X12000000Y-198007200D01*
X285002200Y-198007200D01*
X285002200Y-12000000D01*
X12000000Y-12000000D01*
D10*
D11*
X60000000Y-12000000D02*
X60000000Y-10000000D01*
D10*
D11*
X110000000Y-12000000D02*
X110000000Y-10000000D01*
D10*
D11*
X160000000Y-12000000D02*
X160000000Y-10000000D01*
D10*
D11*
X210000000Y-12000000D02*
X210000000Y-10000000D01*
D10*
D11*
X260000000Y-12000000D02*
X260000000Y-10000000D01*
D10*
D11*
X36065476Y-11588095D02*
X35322619Y-11588095D01*
X35694047Y-11588095D02*
X35694047Y-10288095D01*
X35570238Y-10473809D01*
X35446428Y-10597619D01*
X35322619Y-10659523D01*
D10*
D11*
X85322619Y-10411904D02*
X85384523Y-10350000D01*
X85508333Y-10288095D01*
X85817857Y-10288095D01*
X85941666Y-10350000D01*
X86003571Y-10411904D01*
X86065476Y-10535714D01*
X86065476Y-10659523D01*
X86003571Y-10845238D01*
X85260714Y-11588095D01*
X86065476Y-11588095D01*
D10*
D11*
X135260714Y-10288095D02*
X136065476Y-10288095D01*
X135632142Y-10783333D01*
X135817857Y-10783333D01*
X135941666Y-10845238D01*
X136003571Y-10907142D01*
X136065476Y-11030952D01*
X136065476Y-11340476D01*
X136003571Y-11464285D01*
X135941666Y-11526190D01*
X135817857Y-11588095D01*
X135446428Y-11588095D01*
X135322619Y-11526190D01*
X135260714Y-11464285D01*
D10*
D11*
X185941666Y-10721428D02*
X185941666Y-11588095D01*
X185632142Y-10226190D02*
X185322619Y-11154761D01*
X186127380Y-11154761D01*
D10*
D11*
X236003571Y-10288095D02*
X235384523Y-10288095D01*
X235322619Y-10907142D01*
X235384523Y-10845238D01*
X235508333Y-10783333D01*
X235817857Y-10783333D01*
X235941666Y-10845238D01*
X236003571Y-10907142D01*
X236065476Y-11030952D01*
X236065476Y-11340476D01*
X236003571Y-11464285D01*
X235941666Y-11526190D01*
X235817857Y-11588095D01*
X235508333Y-11588095D01*
X235384523Y-11526190D01*
X235322619Y-11464285D01*
D10*
D11*
X285941666Y-10288095D02*
X285694047Y-10288095D01*
X285570238Y-10350000D01*
X285508333Y-10411904D01*
X285384523Y-10597619D01*
X285322619Y-10845238D01*
X285322619Y-11340476D01*
X285384523Y-11464285D01*
X285446428Y-11526190D01*
X285570238Y-11588095D01*
X285817857Y-11588095D01*
X285941666Y-11526190D01*
X286003571Y-11464285D01*
X286065476Y-11340476D01*
X286065476Y-11030952D01*
X286003571Y-10907142D01*
X285941666Y-10845238D01*
X285817857Y-10783333D01*
X285570238Y-10783333D01*
X285446428Y-10845238D01*
X285384523Y-10907142D01*
X285322619Y-11030952D01*
D10*
D11*
X60000000Y-198007200D02*
X60000000Y-200007200D01*
D10*
D11*
X110000000Y-198007200D02*
X110000000Y-200007200D01*
D10*
D11*
X160000000Y-198007200D02*
X160000000Y-200007200D01*
D10*
D11*
X210000000Y-198007200D02*
X210000000Y-200007200D01*
D10*
D11*
X260000000Y-198007200D02*
X260000000Y-200007200D01*
D10*
D11*
X36065476Y-199595295D02*
X35322619Y-199595295D01*
X35694047Y-199595295D02*
X35694047Y-198295295D01*
X35570238Y-198481009D01*
X35446428Y-198604819D01*
X35322619Y-198666723D01*
D10*
D11*
X85322619Y-198419104D02*
X85384523Y-198357200D01*
X85508333Y-198295295D01*
X85817857Y-198295295D01*
X85941666Y-198357200D01*
X86003571Y-198419104D01*
X86065476Y-198542914D01*
X86065476Y-198666723D01*
X86003571Y-198852438D01*
X85260714Y-199595295D01*
X86065476Y-199595295D01*
D10*
D11*
X135260714Y-198295295D02*
X136065476Y-198295295D01*
X135632142Y-198790533D01*
X135817857Y-198790533D01*
X135941666Y-198852438D01*
X136003571Y-198914342D01*
X136065476Y-199038152D01*
X136065476Y-199347676D01*
X136003571Y-199471485D01*
X135941666Y-199533390D01*
X135817857Y-199595295D01*
X135446428Y-199595295D01*
X135322619Y-199533390D01*
X135260714Y-199471485D01*
D10*
D11*
X185941666Y-198728628D02*
X185941666Y-199595295D01*
X185632142Y-198233390D02*
X185322619Y-199161961D01*
X186127380Y-199161961D01*
D10*
D11*
X236003571Y-198295295D02*
X235384523Y-198295295D01*
X235322619Y-198914342D01*
X235384523Y-198852438D01*
X235508333Y-198790533D01*
X235817857Y-198790533D01*
X235941666Y-198852438D01*
X236003571Y-198914342D01*
X236065476Y-199038152D01*
X236065476Y-199347676D01*
X236003571Y-199471485D01*
X235941666Y-199533390D01*
X235817857Y-199595295D01*
X235508333Y-199595295D01*
X235384523Y-199533390D01*
X235322619Y-199471485D01*
D10*
D11*
X285941666Y-198295295D02*
X285694047Y-198295295D01*
X285570238Y-198357200D01*
X285508333Y-198419104D01*
X285384523Y-198604819D01*
X285322619Y-198852438D01*
X285322619Y-199347676D01*
X285384523Y-199471485D01*
X285446428Y-199533390D01*
X285570238Y-199595295D01*
X285817857Y-199595295D01*
X285941666Y-199533390D01*
X286003571Y-199471485D01*
X286065476Y-199347676D01*
X286065476Y-199038152D01*
X286003571Y-198914342D01*
X285941666Y-198852438D01*
X285817857Y-198790533D01*
X285570238Y-198790533D01*
X285446428Y-198852438D01*
X285384523Y-198914342D01*
X285322619Y-199038152D01*
D10*
D11*
X10000000Y-60000000D02*
X12000000Y-60000000D01*
D10*
D11*
X10000000Y-110000000D02*
X12000000Y-110000000D01*
D10*
D11*
X10000000Y-160000000D02*
X12000000Y-160000000D01*
D10*
D11*
X10690476Y-35216666D02*
X11309523Y-35216666D01*
X10566666Y-35588095D02*
X11000000Y-34288095D01*
X11433333Y-35588095D01*
D10*
D11*
X11092857Y-84907142D02*
X11278571Y-84969047D01*
X11340476Y-85030952D01*
X11402380Y-85154761D01*
X11402380Y-85340476D01*
X11340476Y-85464285D01*
X11278571Y-85526190D01*
X11154761Y-85588095D01*
X10659523Y-85588095D01*
X10659523Y-84288095D01*
X11092857Y-84288095D01*
X11216666Y-84350000D01*
X11278571Y-84411904D01*
X11340476Y-84535714D01*
X11340476Y-84659523D01*
X11278571Y-84783333D01*
X11216666Y-84845238D01*
X11092857Y-84907142D01*
X10659523Y-84907142D01*
D10*
D11*
X11402380Y-135464285D02*
X11340476Y-135526190D01*
X11154761Y-135588095D01*
X11030952Y-135588095D01*
X10845238Y-135526190D01*
X10721428Y-135402380D01*
X10659523Y-135278571D01*
X10597619Y-135030952D01*
X10597619Y-134845238D01*
X10659523Y-134597619D01*
X10721428Y-134473809D01*
X10845238Y-134350000D01*
X11030952Y-134288095D01*
X11154761Y-134288095D01*
X11340476Y-134350000D01*
X11402380Y-134411904D01*
D10*
D11*
X10659523Y-185588095D02*
X10659523Y-184288095D01*
X10969047Y-184288095D01*
X11154761Y-184350000D01*
X11278571Y-184473809D01*
X11340476Y-184597619D01*
X11402380Y-184845238D01*
X11402380Y-185030952D01*
X11340476Y-185278571D01*
X11278571Y-185402380D01*
X11154761Y-185526190D01*
X10969047Y-185588095D01*
X10659523Y-185588095D01*
D10*
D11*
X287002200Y-60000000D02*
X285002200Y-60000000D01*
D10*
D11*
X287002200Y-110000000D02*
X285002200Y-110000000D01*
D10*
D11*
X287002200Y-160000000D02*
X285002200Y-160000000D01*
D10*
D11*
X285692676Y-35216666D02*
X286311723Y-35216666D01*
X285568866Y-35588095D02*
X286002200Y-34288095D01*
X286435533Y-35588095D01*
D10*
D11*
X286095057Y-84907142D02*
X286280771Y-84969047D01*
X286342676Y-85030952D01*
X286404580Y-85154761D01*
X286404580Y-85340476D01*
X286342676Y-85464285D01*
X286280771Y-85526190D01*
X286156961Y-85588095D01*
X285661723Y-85588095D01*
X285661723Y-84288095D01*
X286095057Y-84288095D01*
X286218866Y-84350000D01*
X286280771Y-84411904D01*
X286342676Y-84535714D01*
X286342676Y-84659523D01*
X286280771Y-84783333D01*
X286218866Y-84845238D01*
X286095057Y-84907142D01*
X285661723Y-84907142D01*
D10*
D11*
X286404580Y-135464285D02*
X286342676Y-135526190D01*
X286156961Y-135588095D01*
X286033152Y-135588095D01*
X285847438Y-135526190D01*
X285723628Y-135402380D01*
X285661723Y-135278571D01*
X285599819Y-135030952D01*
X285599819Y-134845238D01*
X285661723Y-134597619D01*
X285723628Y-134473809D01*
X285847438Y-134350000D01*
X286033152Y-134288095D01*
X286156961Y-134288095D01*
X286342676Y-134350000D01*
X286404580Y-134411904D01*
D10*
D11*
X285661723Y-185588095D02*
X285661723Y-184288095D01*
X285971247Y-184288095D01*
X286156961Y-184350000D01*
X286280771Y-184473809D01*
X286342676Y-184597619D01*
X286404580Y-184845238D01*
X286404580Y-185030952D01*
X286342676Y-185278571D01*
X286280771Y-185402380D01*
X286156961Y-185526190D01*
X285971247Y-185588095D01*
X285661723Y-185588095D01*
D10*
D11*
X200434342Y-193785771D02*
X200434342Y-192285771D01*
X200791485Y-192285771D01*
X201005771Y-192357200D01*
X201148628Y-192500057D01*
X201220057Y-192642914D01*
X201291485Y-192928628D01*
X201291485Y-193142914D01*
X201220057Y-193428628D01*
X201148628Y-193571485D01*
X201005771Y-193714342D01*
X200791485Y-193785771D01*
X200434342Y-193785771D01*
X202577200Y-193785771D02*
X202577200Y-193000057D01*
X202505771Y-192857200D01*
X202362914Y-192785771D01*
X202077200Y-192785771D01*
X201934342Y-192857200D01*
X202577200Y-193714342D02*
X202434342Y-193785771D01*
X202077200Y-193785771D01*
X201934342Y-193714342D01*
X201862914Y-193571485D01*
X201862914Y-193428628D01*
X201934342Y-193285771D01*
X202077200Y-193214342D01*
X202434342Y-193214342D01*
X202577200Y-193142914D01*
X203077200Y-192785771D02*
X203648628Y-192785771D01*
X203291485Y-192285771D02*
X203291485Y-193571485D01*
X203362914Y-193714342D01*
X203505771Y-193785771D01*
X203648628Y-193785771D01*
X204720057Y-193714342D02*
X204577200Y-193785771D01*
X204291485Y-193785771D01*
X204148628Y-193714342D01*
X204077200Y-193571485D01*
X204077200Y-193000057D01*
X204148628Y-192857200D01*
X204291485Y-192785771D01*
X204577200Y-192785771D01*
X204720057Y-192857200D01*
X204791485Y-193000057D01*
X204791485Y-193142914D01*
X204077200Y-193285771D01*
X205434342Y-193642914D02*
X205505771Y-193714342D01*
X205434342Y-193785771D01*
X205362914Y-193714342D01*
X205434342Y-193642914D01*
X205434342Y-193785771D01*
X205434342Y-192857200D02*
X205505771Y-192928628D01*
X205434342Y-193000057D01*
X205362914Y-192928628D01*
X205434342Y-192857200D01*
X205434342Y-193000057D01*
D10*
D11*
X177002200Y-194507200D02*
X285002200Y-194507200D01*
D10*
D11*
X178434342Y-196585771D02*
X178434342Y-195085771D01*
X179291485Y-196585771D02*
X178648628Y-195728628D01*
X179291485Y-195085771D02*
X178434342Y-195942914D01*
X179934342Y-196585771D02*
X179934342Y-195585771D01*
X179934342Y-195085771D02*
X179862914Y-195157200D01*
X179934342Y-195228628D01*
X180005771Y-195157200D01*
X179934342Y-195085771D01*
X179934342Y-195228628D01*
X181505771Y-196442914D02*
X181434342Y-196514342D01*
X181220057Y-196585771D01*
X181077200Y-196585771D01*
X180862914Y-196514342D01*
X180720057Y-196371485D01*
X180648628Y-196228628D01*
X180577200Y-195942914D01*
X180577200Y-195728628D01*
X180648628Y-195442914D01*
X180720057Y-195300057D01*
X180862914Y-195157200D01*
X181077200Y-195085771D01*
X181220057Y-195085771D01*
X181434342Y-195157200D01*
X181505771Y-195228628D01*
X182791485Y-196585771D02*
X182791485Y-195800057D01*
X182720057Y-195657200D01*
X182577200Y-195585771D01*
X182291485Y-195585771D01*
X182148628Y-195657200D01*
X182791485Y-196514342D02*
X182648628Y-196585771D01*
X182291485Y-196585771D01*
X182148628Y-196514342D01*
X182077200Y-196371485D01*
X182077200Y-196228628D01*
X182148628Y-196085771D01*
X182291485Y-196014342D01*
X182648628Y-196014342D01*
X182791485Y-195942914D01*
X184148628Y-196585771D02*
X184148628Y-195085771D01*
X184148628Y-196514342D02*
X184005771Y-196585771D01*
X183720057Y-196585771D01*
X183577200Y-196514342D01*
X183505771Y-196442914D01*
X183434342Y-196300057D01*
X183434342Y-195871485D01*
X183505771Y-195728628D01*
X183577200Y-195657200D01*
X183720057Y-195585771D01*
X184005771Y-195585771D01*
X184148628Y-195657200D01*
X186005771Y-195800057D02*
X186505771Y-195800057D01*
X186720057Y-196585771D02*
X186005771Y-196585771D01*
X186005771Y-195085771D01*
X186720057Y-195085771D01*
X187362914Y-196442914D02*
X187434342Y-196514342D01*
X187362914Y-196585771D01*
X187291485Y-196514342D01*
X187362914Y-196442914D01*
X187362914Y-196585771D01*
X188077200Y-196585771D02*
X188077200Y-195085771D01*
X188434342Y-195085771D01*
X188648628Y-195157200D01*
X188791485Y-195300057D01*
X188862914Y-195442914D01*
X188934342Y-195728628D01*
X188934342Y-195942914D01*
X188862914Y-196228628D01*
X188791485Y-196371485D01*
X188648628Y-196514342D01*
X188434342Y-196585771D01*
X188077200Y-196585771D01*
X189577200Y-196442914D02*
X189648628Y-196514342D01*
X189577200Y-196585771D01*
X189505771Y-196514342D01*
X189577200Y-196442914D01*
X189577200Y-196585771D01*
X190220057Y-196157200D02*
X190934342Y-196157200D01*
X190077200Y-196585771D02*
X190577200Y-195085771D01*
X191077200Y-196585771D01*
X191577200Y-196442914D02*
X191648628Y-196514342D01*
X191577200Y-196585771D01*
X191505771Y-196514342D01*
X191577200Y-196442914D01*
X191577200Y-196585771D01*
X194577200Y-196585771D02*
X194577200Y-195085771D01*
X194720057Y-196014342D02*
X195148628Y-196585771D01*
X195148628Y-195585771D02*
X194577200Y-196157200D01*
X195791485Y-196585771D02*
X195791485Y-195585771D01*
X195791485Y-195085771D02*
X195720057Y-195157200D01*
X195791485Y-195228628D01*
X195862914Y-195157200D01*
X195791485Y-195085771D01*
X195791485Y-195228628D01*
X197148628Y-196514342D02*
X197005771Y-196585771D01*
X196720057Y-196585771D01*
X196577200Y-196514342D01*
X196505771Y-196442914D01*
X196434342Y-196300057D01*
X196434342Y-195871485D01*
X196505771Y-195728628D01*
X196577200Y-195657200D01*
X196720057Y-195585771D01*
X197005771Y-195585771D01*
X197148628Y-195657200D01*
X198434342Y-196585771D02*
X198434342Y-195800057D01*
X198362914Y-195657200D01*
X198220057Y-195585771D01*
X197934342Y-195585771D01*
X197791485Y-195657200D01*
X198434342Y-196514342D02*
X198291485Y-196585771D01*
X197934342Y-196585771D01*
X197791485Y-196514342D01*
X197720057Y-196371485D01*
X197720057Y-196228628D01*
X197791485Y-196085771D01*
X197934342Y-196014342D01*
X198291485Y-196014342D01*
X198434342Y-195942914D01*
X199791485Y-196585771D02*
X199791485Y-195085771D01*
X199791485Y-196514342D02*
X199648628Y-196585771D01*
X199362914Y-196585771D01*
X199220057Y-196514342D01*
X199148628Y-196442914D01*
X199077200Y-196300057D01*
X199077200Y-195871485D01*
X199148628Y-195728628D01*
X199220057Y-195657200D01*
X199362914Y-195585771D01*
X199648628Y-195585771D01*
X199791485Y-195657200D01*
X202077200Y-197157200D02*
X202005771Y-197085771D01*
X201862914Y-196871485D01*
X201791485Y-196728628D01*
X201720057Y-196514342D01*
X201648628Y-196157200D01*
X201648628Y-195871485D01*
X201720057Y-195514342D01*
X201791485Y-195300057D01*
X201862914Y-195157200D01*
X202005771Y-194942914D01*
X202077200Y-194871485D01*
X203362914Y-195085771D02*
X202648628Y-195085771D01*
X202577200Y-195800057D01*
X202648628Y-195728628D01*
X202791485Y-195657200D01*
X203148628Y-195657200D01*
X203291485Y-195728628D01*
X203362914Y-195800057D01*
X203434342Y-195942914D01*
X203434342Y-196300057D01*
X203362914Y-196442914D01*
X203291485Y-196514342D01*
X203148628Y-196585771D01*
X202791485Y-196585771D01*
X202648628Y-196514342D01*
X202577200Y-196442914D01*
X204077200Y-196442914D02*
X204148628Y-196514342D01*
X204077200Y-196585771D01*
X204005771Y-196514342D01*
X204077200Y-196442914D01*
X204077200Y-196585771D01*
X205577200Y-196585771D02*
X204720057Y-196585771D01*
X205148628Y-196585771D02*
X205148628Y-195085771D01*
X205005771Y-195300057D01*
X204862914Y-195442914D01*
X204720057Y-195514342D01*
X206220057Y-196442914D02*
X206291485Y-196514342D01*
X206220057Y-196585771D01*
X206148628Y-196514342D01*
X206220057Y-196442914D01*
X206220057Y-196585771D01*
X207577200Y-195085771D02*
X207291485Y-195085771D01*
X207148628Y-195157200D01*
X207077200Y-195228628D01*
X206934342Y-195442914D01*
X206862914Y-195728628D01*
X206862914Y-196300057D01*
X206934342Y-196442914D01*
X207005771Y-196514342D01*
X207148628Y-196585771D01*
X207434342Y-196585771D01*
X207577200Y-196514342D01*
X207648628Y-196442914D01*
X207720057Y-196300057D01*
X207720057Y-195942914D01*
X207648628Y-195800057D01*
X207577200Y-195728628D01*
X207434342Y-195657200D01*
X207148628Y-195657200D01*
X207005771Y-195728628D01*
X206934342Y-195800057D01*
X206862914Y-195942914D01*
X208220057Y-197157200D02*
X208291485Y-197085771D01*
X208434342Y-196871485D01*
X208505771Y-196728628D01*
X208577200Y-196514342D01*
X208648628Y-196157200D01*
X208648628Y-195871485D01*
X208577200Y-195514342D01*
X208505771Y-195300057D01*
X208434342Y-195157200D01*
X208291485Y-194942914D01*
X208220057Y-194871485D01*
X209362914Y-196014342D02*
X210505771Y-196014342D01*
X212005771Y-196585771D02*
X211148628Y-196585771D01*
X211577200Y-196585771D02*
X211577200Y-195085771D01*
X211434342Y-195300057D01*
X211291485Y-195442914D01*
X211148628Y-195514342D01*
D10*
D11*
X177002200Y-191507200D02*
X285002200Y-191507200D01*
D10*
D12*
X264411485Y-193785771D02*
X263911485Y-193071485D01*
X263554342Y-193785771D02*
X263554342Y-192285771D01*
X264125771Y-192285771D01*
X264268628Y-192357200D01*
X264340057Y-192428628D01*
X264411485Y-192571485D01*
X264411485Y-192785771D01*
X264340057Y-192928628D01*
X264268628Y-193000057D01*
X264125771Y-193071485D01*
X263554342Y-193071485D01*
X265625771Y-193714342D02*
X265482914Y-193785771D01*
X265197200Y-193785771D01*
X265054342Y-193714342D01*
X264982914Y-193571485D01*
X264982914Y-193000057D01*
X265054342Y-192857200D01*
X265197200Y-192785771D01*
X265482914Y-192785771D01*
X265625771Y-192857200D01*
X265697200Y-193000057D01*
X265697200Y-193142914D01*
X264982914Y-193285771D01*
X266197200Y-192785771D02*
X266554342Y-193785771D01*
X266911485Y-192785771D01*
X267482914Y-193642914D02*
X267554342Y-193714342D01*
X267482914Y-193785771D01*
X267411485Y-193714342D01*
X267482914Y-193642914D01*
X267482914Y-193785771D01*
X267482914Y-192857200D02*
X267554342Y-192928628D01*
X267482914Y-193000057D01*
X267411485Y-192928628D01*
X267482914Y-192857200D01*
X267482914Y-193000057D01*
D10*
D11*
X178362914Y-193714342D02*
X178577200Y-193785771D01*
X178934342Y-193785771D01*
X179077200Y-193714342D01*
X179148628Y-193642914D01*
X179220057Y-193500057D01*
X179220057Y-193357200D01*
X179148628Y-193214342D01*
X179077200Y-193142914D01*
X178934342Y-193071485D01*
X178648628Y-193000057D01*
X178505771Y-192928628D01*
X178434342Y-192857200D01*
X178362914Y-192714342D01*
X178362914Y-192571485D01*
X178434342Y-192428628D01*
X178505771Y-192357200D01*
X178648628Y-192285771D01*
X179005771Y-192285771D01*
X179220057Y-192357200D01*
X179862914Y-193785771D02*
X179862914Y-192785771D01*
X179862914Y-192285771D02*
X179791485Y-192357200D01*
X179862914Y-192428628D01*
X179934342Y-192357200D01*
X179862914Y-192285771D01*
X179862914Y-192428628D01*
X180434342Y-192785771D02*
X181220057Y-192785771D01*
X180434342Y-193785771D01*
X181220057Y-193785771D01*
X182362914Y-193714342D02*
X182220057Y-193785771D01*
X181934342Y-193785771D01*
X181791485Y-193714342D01*
X181720057Y-193571485D01*
X181720057Y-193000057D01*
X181791485Y-192857200D01*
X181934342Y-192785771D01*
X182220057Y-192785771D01*
X182362914Y-192857200D01*
X182434342Y-193000057D01*
X182434342Y-193142914D01*
X181720057Y-193285771D01*
X183077200Y-193642914D02*
X183148628Y-193714342D01*
X183077200Y-193785771D01*
X183005771Y-193714342D01*
X183077200Y-193642914D01*
X183077200Y-193785771D01*
X183077200Y-192857200D02*
X183148628Y-192928628D01*
X183077200Y-193000057D01*
X183005771Y-192928628D01*
X183077200Y-192857200D01*
X183077200Y-193000057D01*
X184862914Y-193357200D02*
X185577200Y-193357200D01*
X184720057Y-193785771D02*
X185220057Y-192285771D01*
X185720057Y-193785771D01*
X186862914Y-192785771D02*
X186862914Y-193785771D01*
X186505771Y-192214342D02*
X186148628Y-193285771D01*
X187077200Y-193285771D01*
D10*
D11*
X263434342Y-196585771D02*
X263434342Y-195085771D01*
X264791485Y-196585771D02*
X264791485Y-195085771D01*
X264791485Y-196514342D02*
X264648628Y-196585771D01*
X264362914Y-196585771D01*
X264220057Y-196514342D01*
X264148628Y-196442914D01*
X264077200Y-196300057D01*
X264077200Y-195871485D01*
X264148628Y-195728628D01*
X264220057Y-195657200D01*
X264362914Y-195585771D01*
X264648628Y-195585771D01*
X264791485Y-195657200D01*
X265505771Y-196442914D02*
X265577200Y-196514342D01*
X265505771Y-196585771D01*
X265434342Y-196514342D01*
X265505771Y-196442914D01*
X265505771Y-196585771D01*
X265505771Y-195657200D02*
X265577200Y-195728628D01*
X265505771Y-195800057D01*
X265434342Y-195728628D01*
X265505771Y-195657200D01*
X265505771Y-195800057D01*
X268148628Y-196585771D02*
X267291485Y-196585771D01*
X267720057Y-196585771D02*
X267720057Y-195085771D01*
X267577200Y-195300057D01*
X267434342Y-195442914D01*
X267291485Y-195514342D01*
X269862914Y-195014342D02*
X268577200Y-196942914D01*
X271148628Y-196585771D02*
X270291485Y-196585771D01*
X270720057Y-196585771D02*
X270720057Y-195085771D01*
X270577200Y-195300057D01*
X270434342Y-195442914D01*
X270291485Y-195514342D01*
D10*
D11*
X177002200Y-187507200D02*
X285002200Y-187507200D01*
D10*
D13*
X178714580Y-188211961D02*
X179857438Y-188211961D01*
X179036009Y-190211961D02*
X179286009Y-188211961D01*
X180274104Y-190211961D02*
X180440771Y-188878628D01*
X180524104Y-188211961D02*
X180416961Y-188307200D01*
X180500295Y-188402438D01*
X180607438Y-188307200D01*
X180524104Y-188211961D01*
X180500295Y-188402438D01*
X181107438Y-188878628D02*
X181869342Y-188878628D01*
X181476485Y-188211961D02*
X181262200Y-189926247D01*
X181333628Y-190116723D01*
X181512200Y-190211961D01*
X181702676Y-190211961D01*
X182655057Y-190211961D02*
X182476485Y-190116723D01*
X182405057Y-189926247D01*
X182619342Y-188211961D01*
X184190771Y-190116723D02*
X183988390Y-190211961D01*
X183607438Y-190211961D01*
X183428866Y-190116723D01*
X183357438Y-189926247D01*
X183452676Y-189164342D01*
X183571723Y-188973866D01*
X183774104Y-188878628D01*
X184155057Y-188878628D01*
X184333628Y-188973866D01*
X184405057Y-189164342D01*
X184381247Y-189354819D01*
X183405057Y-189545295D01*
X185155057Y-190021485D02*
X185238390Y-190116723D01*
X185131247Y-190211961D01*
X185047914Y-190116723D01*
X185155057Y-190021485D01*
X185131247Y-190211961D01*
X185286009Y-188973866D02*
X185369342Y-189069104D01*
X185262200Y-189164342D01*
X185178866Y-189069104D01*
X185286009Y-188973866D01*
X185262200Y-189164342D01*
D10*
D11*
X178934342Y-185600057D02*
X178434342Y-185600057D01*
X178434342Y-186385771D02*
X178434342Y-184885771D01*
X179148628Y-184885771D01*
X179720057Y-186385771D02*
X179720057Y-185385771D01*
X179720057Y-184885771D02*
X179648628Y-184957200D01*
X179720057Y-185028628D01*
X179791485Y-184957200D01*
X179720057Y-184885771D01*
X179720057Y-185028628D01*
X180648628Y-186385771D02*
X180505771Y-186314342D01*
X180434342Y-186171485D01*
X180434342Y-184885771D01*
X181791485Y-186314342D02*
X181648628Y-186385771D01*
X181362914Y-186385771D01*
X181220057Y-186314342D01*
X181148628Y-186171485D01*
X181148628Y-185600057D01*
X181220057Y-185457200D01*
X181362914Y-185385771D01*
X181648628Y-185385771D01*
X181791485Y-185457200D01*
X181862914Y-185600057D01*
X181862914Y-185742914D01*
X181148628Y-185885771D01*
X182505771Y-186242914D02*
X182577200Y-186314342D01*
X182505771Y-186385771D01*
X182434342Y-186314342D01*
X182505771Y-186242914D01*
X182505771Y-186385771D01*
X182505771Y-185457200D02*
X182577200Y-185528628D01*
X182505771Y-185600057D01*
X182434342Y-185528628D01*
X182505771Y-185457200D01*
X182505771Y-185600057D01*
X184362914Y-186385771D02*
X184362914Y-184885771D01*
X184720057Y-184885771D01*
X184934342Y-184957200D01*
X185077200Y-185100057D01*
X185148628Y-185242914D01*
X185220057Y-185528628D01*
X185220057Y-185742914D01*
X185148628Y-186028628D01*
X185077200Y-186171485D01*
X184934342Y-186314342D01*
X184720057Y-186385771D01*
X184362914Y-186385771D01*
X185862914Y-186385771D02*
X185862914Y-184885771D01*
X186220057Y-184885771D01*
X186434342Y-184957200D01*
X186577200Y-185100057D01*
X186648628Y-185242914D01*
X186720057Y-185528628D01*
X186720057Y-185742914D01*
X186648628Y-186028628D01*
X186577200Y-186171485D01*
X186434342Y-186314342D01*
X186220057Y-186385771D01*
X185862914Y-186385771D01*
X187291485Y-186314342D02*
X187505771Y-186385771D01*
X187862914Y-186385771D01*
X188005771Y-186314342D01*
X188077200Y-186242914D01*
X188148628Y-186100057D01*
X188148628Y-185957200D01*
X188077200Y-185814342D01*
X188005771Y-185742914D01*
X187862914Y-185671485D01*
X187577200Y-185600057D01*
X187434342Y-185528628D01*
X187362914Y-185457200D01*
X187291485Y-185314342D01*
X187291485Y-185171485D01*
X187362914Y-185028628D01*
X187434342Y-184957200D01*
X187577200Y-184885771D01*
X187934342Y-184885771D01*
X188148628Y-184957200D01*
X188791485Y-186242914D02*
X188862914Y-186314342D01*
X188791485Y-186385771D01*
X188720057Y-186314342D01*
X188791485Y-186242914D01*
X188791485Y-186385771D01*
X189505771Y-186385771D02*
X189505771Y-184885771D01*
X189648628Y-185814342D02*
X190077200Y-186385771D01*
X190077200Y-185385771D02*
X189505771Y-185957200D01*
X190720057Y-186385771D02*
X190720057Y-185385771D01*
X190720057Y-184885771D02*
X190648628Y-184957200D01*
X190720057Y-185028628D01*
X190791485Y-184957200D01*
X190720057Y-184885771D01*
X190720057Y-185028628D01*
X192077200Y-186314342D02*
X191934342Y-186385771D01*
X191648628Y-186385771D01*
X191505771Y-186314342D01*
X191434342Y-186242914D01*
X191362914Y-186100057D01*
X191362914Y-185671485D01*
X191434342Y-185528628D01*
X191505771Y-185457200D01*
X191648628Y-185385771D01*
X191934342Y-185385771D01*
X192077200Y-185457200D01*
X193362914Y-186385771D02*
X193362914Y-185600057D01*
X193291485Y-185457200D01*
X193148628Y-185385771D01*
X192862914Y-185385771D01*
X192720057Y-185457200D01*
X193362914Y-186314342D02*
X193220057Y-186385771D01*
X192862914Y-186385771D01*
X192720057Y-186314342D01*
X192648628Y-186171485D01*
X192648628Y-186028628D01*
X192720057Y-185885771D01*
X192862914Y-185814342D01*
X193220057Y-185814342D01*
X193362914Y-185742914D01*
X194720057Y-186385771D02*
X194720057Y-184885771D01*
X194720057Y-186314342D02*
X194577200Y-186385771D01*
X194291485Y-186385771D01*
X194148628Y-186314342D01*
X194077200Y-186242914D01*
X194005771Y-186100057D01*
X194005771Y-185671485D01*
X194077200Y-185528628D01*
X194148628Y-185457200D01*
X194291485Y-185385771D01*
X194577200Y-185385771D01*
X194720057Y-185457200D01*
X195077200Y-186528628D02*
X196220057Y-186528628D01*
X196577200Y-185385771D02*
X196577200Y-186885771D01*
X196577200Y-185457200D02*
X196720057Y-185385771D01*
X197005771Y-185385771D01*
X197148628Y-185457200D01*
X197220057Y-185528628D01*
X197291485Y-185671485D01*
X197291485Y-186100057D01*
X197220057Y-186242914D01*
X197148628Y-186314342D01*
X197005771Y-186385771D01*
X196720057Y-186385771D01*
X196577200Y-186314342D01*
X198577200Y-186314342D02*
X198434342Y-186385771D01*
X198148628Y-186385771D01*
X198005771Y-186314342D01*
X197934342Y-186242914D01*
X197862914Y-186100057D01*
X197862914Y-185671485D01*
X197934342Y-185528628D01*
X198005771Y-185457200D01*
X198148628Y-185385771D01*
X198434342Y-185385771D01*
X198577200Y-185457200D01*
X199220057Y-186385771D02*
X199220057Y-184885771D01*
X199220057Y-185457200D02*
X199362914Y-185385771D01*
X199648628Y-185385771D01*
X199791485Y-185457200D01*
X199862914Y-185528628D01*
X199934342Y-185671485D01*
X199934342Y-186100057D01*
X199862914Y-186242914D01*
X199791485Y-186314342D01*
X199648628Y-186385771D01*
X199362914Y-186385771D01*
X199220057Y-186314342D01*
D10*
D11*
X177002200Y-181507200D02*
X285002200Y-181507200D01*
D10*
D11*
X178362914Y-183614342D02*
X178577200Y-183685771D01*
X178934342Y-183685771D01*
X179077200Y-183614342D01*
X179148628Y-183542914D01*
X179220057Y-183400057D01*
X179220057Y-183257200D01*
X179148628Y-183114342D01*
X179077200Y-183042914D01*
X178934342Y-182971485D01*
X178648628Y-182900057D01*
X178505771Y-182828628D01*
X178434342Y-182757200D01*
X178362914Y-182614342D01*
X178362914Y-182471485D01*
X178434342Y-182328628D01*
X178505771Y-182257200D01*
X178648628Y-182185771D01*
X179005771Y-182185771D01*
X179220057Y-182257200D01*
X179862914Y-183685771D02*
X179862914Y-182185771D01*
X180505771Y-183685771D02*
X180505771Y-182900057D01*
X180434342Y-182757200D01*
X180291485Y-182685771D01*
X180077200Y-182685771D01*
X179934342Y-182757200D01*
X179862914Y-182828628D01*
X181791485Y-183614342D02*
X181648628Y-183685771D01*
X181362914Y-183685771D01*
X181220057Y-183614342D01*
X181148628Y-183471485D01*
X181148628Y-182900057D01*
X181220057Y-182757200D01*
X181362914Y-182685771D01*
X181648628Y-182685771D01*
X181791485Y-182757200D01*
X181862914Y-182900057D01*
X181862914Y-183042914D01*
X181148628Y-183185771D01*
X183077200Y-183614342D02*
X182934342Y-183685771D01*
X182648628Y-183685771D01*
X182505771Y-183614342D01*
X182434342Y-183471485D01*
X182434342Y-182900057D01*
X182505771Y-182757200D01*
X182648628Y-182685771D01*
X182934342Y-182685771D01*
X183077200Y-182757200D01*
X183148628Y-182900057D01*
X183148628Y-183042914D01*
X182434342Y-183185771D01*
X183577200Y-182685771D02*
X184148628Y-182685771D01*
X183791485Y-182185771D02*
X183791485Y-183471485D01*
X183862914Y-183614342D01*
X184005771Y-183685771D01*
X184148628Y-183685771D01*
X184648628Y-183542914D02*
X184720057Y-183614342D01*
X184648628Y-183685771D01*
X184577200Y-183614342D01*
X184648628Y-183542914D01*
X184648628Y-183685771D01*
X184648628Y-182757200D02*
X184720057Y-182828628D01*
X184648628Y-182900057D01*
X184577200Y-182828628D01*
X184648628Y-182757200D01*
X184648628Y-182900057D01*
D10*
D11*
X197002200Y-191507200D02*
X197002200Y-194507200D01*
D10*
D11*
X261002200Y-191507200D02*
X261002200Y-198007200D01*
%TO.C,C6*%
G36*
G01*
X49250000Y-143850000D02*
X50350000Y-143850000D01*
G75*
G02*
X50600000Y-144100000I0J-250000D01*
G01*
X50600000Y-147100000D01*
G75*
G02*
X50350000Y-147350000I-250000J0D01*
G01*
X49250000Y-147350000D01*
G75*
G02*
X49000000Y-147100000I0J250000D01*
G01*
X49000000Y-144100000D01*
G75*
G02*
X49250000Y-143850000I250000J0D01*
G01*
G37*
G36*
G01*
X49250000Y-138450000D02*
X50350000Y-138450000D01*
G75*
G02*
X50600000Y-138700000I0J-250000D01*
G01*
X50600000Y-141700000D01*
G75*
G02*
X50350000Y-141950000I-250000J0D01*
G01*
X49250000Y-141950000D01*
G75*
G02*
X49000000Y-141700000I0J250000D01*
G01*
X49000000Y-138700000D01*
G75*
G02*
X49250000Y-138450000I250000J0D01*
G01*
G37*
%TD*%
D14*
%TO.C,J6*%
X99000000Y-61950000D03*
D15*
X96175000Y-62150000D03*
X101825000Y-62150000D03*
%TD*%
D14*
%TO.C,J5*%
X75000000Y-61950000D03*
D15*
X72175000Y-62150000D03*
X77825000Y-62150000D03*
%TD*%
D14*
%TO.C,J4*%
X51000000Y-61950000D03*
D15*
X48175000Y-62150000D03*
X53825000Y-62150000D03*
%TD*%
D16*
%TO.C,Y1*%
X97000000Y-131312500D03*
X97000000Y-143187500D03*
%TD*%
D10*
%TO.C,U6*%
G36*
X60814141Y-90000104D02*
G01*
X60807476Y-90022074D01*
X60796654Y-90042321D01*
X60782089Y-90060068D01*
X60685068Y-90157089D01*
X60667321Y-90171654D01*
X60647074Y-90182476D01*
X60625104Y-90189141D01*
X60602256Y-90191391D01*
X60022744Y-90191391D01*
X59999896Y-90189141D01*
X59977926Y-90182476D01*
X59957679Y-90171654D01*
X59939932Y-90157089D01*
X59842911Y-90060068D01*
X59828346Y-90042321D01*
X59817524Y-90022074D01*
X59810859Y-90000104D01*
X59808609Y-89977256D01*
X59808609Y-89397744D01*
X59810859Y-89374896D01*
X59817524Y-89352926D01*
X59828346Y-89332679D01*
X59842911Y-89314932D01*
X59939932Y-89217911D01*
X59957679Y-89203346D01*
X59977926Y-89192524D01*
X59999896Y-89185859D01*
X60022744Y-89183609D01*
X60602256Y-89183609D01*
X60625104Y-89185859D01*
X60647074Y-89192524D01*
X60667321Y-89203346D01*
X60685068Y-89217911D01*
X60782089Y-89314932D01*
X60796654Y-89332679D01*
X60807476Y-89352926D01*
X60814141Y-89374896D01*
X60816391Y-89397744D01*
X60816391Y-89977256D01*
X60814141Y-90000104D01*
G37*
G36*
X61939141Y-90000104D02*
G01*
X61932476Y-90022074D01*
X61921654Y-90042321D01*
X61907089Y-90060068D01*
X61810068Y-90157089D01*
X61792321Y-90171654D01*
X61772074Y-90182476D01*
X61750104Y-90189141D01*
X61727256Y-90191391D01*
X61147744Y-90191391D01*
X61124896Y-90189141D01*
X61102926Y-90182476D01*
X61082679Y-90171654D01*
X61064932Y-90157089D01*
X60967911Y-90060068D01*
X60953346Y-90042321D01*
X60942524Y-90022074D01*
X60935859Y-90000104D01*
X60933609Y-89977256D01*
X60933609Y-89397744D01*
X60935859Y-89374896D01*
X60942524Y-89352926D01*
X60953346Y-89332679D01*
X60967911Y-89314932D01*
X61064932Y-89217911D01*
X61082679Y-89203346D01*
X61102926Y-89192524D01*
X61124896Y-89185859D01*
X61147744Y-89183609D01*
X61727256Y-89183609D01*
X61750104Y-89185859D01*
X61772074Y-89192524D01*
X61792321Y-89203346D01*
X61810068Y-89217911D01*
X61907089Y-89314932D01*
X61921654Y-89332679D01*
X61932476Y-89352926D01*
X61939141Y-89374896D01*
X61941391Y-89397744D01*
X61941391Y-89977256D01*
X61939141Y-90000104D01*
G37*
G36*
X63064141Y-90000104D02*
G01*
X63057476Y-90022074D01*
X63046654Y-90042321D01*
X63032089Y-90060068D01*
X62935068Y-90157089D01*
X62917321Y-90171654D01*
X62897074Y-90182476D01*
X62875104Y-90189141D01*
X62852256Y-90191391D01*
X62272744Y-90191391D01*
X62249896Y-90189141D01*
X62227926Y-90182476D01*
X62207679Y-90171654D01*
X62189932Y-90157089D01*
X62092911Y-90060068D01*
X62078346Y-90042321D01*
X62067524Y-90022074D01*
X62060859Y-90000104D01*
X62058609Y-89977256D01*
X62058609Y-89397744D01*
X62060859Y-89374896D01*
X62067524Y-89352926D01*
X62078346Y-89332679D01*
X62092911Y-89314932D01*
X62189932Y-89217911D01*
X62207679Y-89203346D01*
X62227926Y-89192524D01*
X62249896Y-89185859D01*
X62272744Y-89183609D01*
X62852256Y-89183609D01*
X62875104Y-89185859D01*
X62897074Y-89192524D01*
X62917321Y-89203346D01*
X62935068Y-89217911D01*
X63032089Y-89314932D01*
X63046654Y-89332679D01*
X63057476Y-89352926D01*
X63064141Y-89374896D01*
X63066391Y-89397744D01*
X63066391Y-89977256D01*
X63064141Y-90000104D01*
G37*
G36*
X64189141Y-90000104D02*
G01*
X64182476Y-90022074D01*
X64171654Y-90042321D01*
X64157089Y-90060068D01*
X64060068Y-90157089D01*
X64042321Y-90171654D01*
X64022074Y-90182476D01*
X64000104Y-90189141D01*
X63977256Y-90191391D01*
X63397744Y-90191391D01*
X63374896Y-90189141D01*
X63352926Y-90182476D01*
X63332679Y-90171654D01*
X63314932Y-90157089D01*
X63217911Y-90060068D01*
X63203346Y-90042321D01*
X63192524Y-90022074D01*
X63185859Y-90000104D01*
X63183609Y-89977256D01*
X63183609Y-89397744D01*
X63185859Y-89374896D01*
X63192524Y-89352926D01*
X63203346Y-89332679D01*
X63217911Y-89314932D01*
X63314932Y-89217911D01*
X63332679Y-89203346D01*
X63352926Y-89192524D01*
X63374896Y-89185859D01*
X63397744Y-89183609D01*
X63977256Y-89183609D01*
X64000104Y-89185859D01*
X64022074Y-89192524D01*
X64042321Y-89203346D01*
X64060068Y-89217911D01*
X64157089Y-89314932D01*
X64171654Y-89332679D01*
X64182476Y-89352926D01*
X64189141Y-89374896D01*
X64191391Y-89397744D01*
X64191391Y-89977256D01*
X64189141Y-90000104D01*
G37*
G36*
X60814141Y-88875104D02*
G01*
X60807476Y-88897074D01*
X60796654Y-88917321D01*
X60782089Y-88935068D01*
X60685068Y-89032089D01*
X60667321Y-89046654D01*
X60647074Y-89057476D01*
X60625104Y-89064141D01*
X60602256Y-89066391D01*
X60022744Y-89066391D01*
X59999896Y-89064141D01*
X59977926Y-89057476D01*
X59957679Y-89046654D01*
X59939932Y-89032089D01*
X59842911Y-88935068D01*
X59828346Y-88917321D01*
X59817524Y-88897074D01*
X59810859Y-88875104D01*
X59808609Y-88852256D01*
X59808609Y-88272744D01*
X59810859Y-88249896D01*
X59817524Y-88227926D01*
X59828346Y-88207679D01*
X59842911Y-88189932D01*
X59939932Y-88092911D01*
X59957679Y-88078346D01*
X59977926Y-88067524D01*
X59999896Y-88060859D01*
X60022744Y-88058609D01*
X60602256Y-88058609D01*
X60625104Y-88060859D01*
X60647074Y-88067524D01*
X60667321Y-88078346D01*
X60685068Y-88092911D01*
X60782089Y-88189932D01*
X60796654Y-88207679D01*
X60807476Y-88227926D01*
X60814141Y-88249896D01*
X60816391Y-88272744D01*
X60816391Y-88852256D01*
X60814141Y-88875104D01*
G37*
G36*
X61939141Y-88875104D02*
G01*
X61932476Y-88897074D01*
X61921654Y-88917321D01*
X61907089Y-88935068D01*
X61810068Y-89032089D01*
X61792321Y-89046654D01*
X61772074Y-89057476D01*
X61750104Y-89064141D01*
X61727256Y-89066391D01*
X61147744Y-89066391D01*
X61124896Y-89064141D01*
X61102926Y-89057476D01*
X61082679Y-89046654D01*
X61064932Y-89032089D01*
X60967911Y-88935068D01*
X60953346Y-88917321D01*
X60942524Y-88897074D01*
X60935859Y-88875104D01*
X60933609Y-88852256D01*
X60933609Y-88272744D01*
X60935859Y-88249896D01*
X60942524Y-88227926D01*
X60953346Y-88207679D01*
X60967911Y-88189932D01*
X61064932Y-88092911D01*
X61082679Y-88078346D01*
X61102926Y-88067524D01*
X61124896Y-88060859D01*
X61147744Y-88058609D01*
X61727256Y-88058609D01*
X61750104Y-88060859D01*
X61772074Y-88067524D01*
X61792321Y-88078346D01*
X61810068Y-88092911D01*
X61907089Y-88189932D01*
X61921654Y-88207679D01*
X61932476Y-88227926D01*
X61939141Y-88249896D01*
X61941391Y-88272744D01*
X61941391Y-88852256D01*
X61939141Y-88875104D01*
G37*
G36*
X63064141Y-88875104D02*
G01*
X63057476Y-88897074D01*
X63046654Y-88917321D01*
X63032089Y-88935068D01*
X62935068Y-89032089D01*
X62917321Y-89046654D01*
X62897074Y-89057476D01*
X62875104Y-89064141D01*
X62852256Y-89066391D01*
X62272744Y-89066391D01*
X62249896Y-89064141D01*
X62227926Y-89057476D01*
X62207679Y-89046654D01*
X62189932Y-89032089D01*
X62092911Y-88935068D01*
X62078346Y-88917321D01*
X62067524Y-88897074D01*
X62060859Y-88875104D01*
X62058609Y-88852256D01*
X62058609Y-88272744D01*
X62060859Y-88249896D01*
X62067524Y-88227926D01*
X62078346Y-88207679D01*
X62092911Y-88189932D01*
X62189932Y-88092911D01*
X62207679Y-88078346D01*
X62227926Y-88067524D01*
X62249896Y-88060859D01*
X62272744Y-88058609D01*
X62852256Y-88058609D01*
X62875104Y-88060859D01*
X62897074Y-88067524D01*
X62917321Y-88078346D01*
X62935068Y-88092911D01*
X63032089Y-88189932D01*
X63046654Y-88207679D01*
X63057476Y-88227926D01*
X63064141Y-88249896D01*
X63066391Y-88272744D01*
X63066391Y-88852256D01*
X63064141Y-88875104D01*
G37*
G36*
X64189141Y-88875104D02*
G01*
X64182476Y-88897074D01*
X64171654Y-88917321D01*
X64157089Y-88935068D01*
X64060068Y-89032089D01*
X64042321Y-89046654D01*
X64022074Y-89057476D01*
X64000104Y-89064141D01*
X63977256Y-89066391D01*
X63397744Y-89066391D01*
X63374896Y-89064141D01*
X63352926Y-89057476D01*
X63332679Y-89046654D01*
X63314932Y-89032089D01*
X63217911Y-88935068D01*
X63203346Y-88917321D01*
X63192524Y-88897074D01*
X63185859Y-88875104D01*
X63183609Y-88852256D01*
X63183609Y-88272744D01*
X63185859Y-88249896D01*
X63192524Y-88227926D01*
X63203346Y-88207679D01*
X63217911Y-88189932D01*
X63314932Y-88092911D01*
X63332679Y-88078346D01*
X63352926Y-88067524D01*
X63374896Y-88060859D01*
X63397744Y-88058609D01*
X63977256Y-88058609D01*
X64000104Y-88060859D01*
X64022074Y-88067524D01*
X64042321Y-88078346D01*
X64060068Y-88092911D01*
X64157089Y-88189932D01*
X64171654Y-88207679D01*
X64182476Y-88227926D01*
X64189141Y-88249896D01*
X64191391Y-88272744D01*
X64191391Y-88852256D01*
X64189141Y-88875104D01*
G37*
G36*
X60814141Y-87750104D02*
G01*
X60807476Y-87772074D01*
X60796654Y-87792321D01*
X60782089Y-87810068D01*
X60685068Y-87907089D01*
X60667321Y-87921654D01*
X60647074Y-87932476D01*
X60625104Y-87939141D01*
X60602256Y-87941391D01*
X60022744Y-87941391D01*
X59999896Y-87939141D01*
X59977926Y-87932476D01*
X59957679Y-87921654D01*
X59939932Y-87907089D01*
X59842911Y-87810068D01*
X59828346Y-87792321D01*
X59817524Y-87772074D01*
X59810859Y-87750104D01*
X59808609Y-87727256D01*
X59808609Y-87147744D01*
X59810859Y-87124896D01*
X59817524Y-87102926D01*
X59828346Y-87082679D01*
X59842911Y-87064932D01*
X59939932Y-86967911D01*
X59957679Y-86953346D01*
X59977926Y-86942524D01*
X59999896Y-86935859D01*
X60022744Y-86933609D01*
X60602256Y-86933609D01*
X60625104Y-86935859D01*
X60647074Y-86942524D01*
X60667321Y-86953346D01*
X60685068Y-86967911D01*
X60782089Y-87064932D01*
X60796654Y-87082679D01*
X60807476Y-87102926D01*
X60814141Y-87124896D01*
X60816391Y-87147744D01*
X60816391Y-87727256D01*
X60814141Y-87750104D01*
G37*
G36*
X61939141Y-87750104D02*
G01*
X61932476Y-87772074D01*
X61921654Y-87792321D01*
X61907089Y-87810068D01*
X61810068Y-87907089D01*
X61792321Y-87921654D01*
X61772074Y-87932476D01*
X61750104Y-87939141D01*
X61727256Y-87941391D01*
X61147744Y-87941391D01*
X61124896Y-87939141D01*
X61102926Y-87932476D01*
X61082679Y-87921654D01*
X61064932Y-87907089D01*
X60967911Y-87810068D01*
X60953346Y-87792321D01*
X60942524Y-87772074D01*
X60935859Y-87750104D01*
X60933609Y-87727256D01*
X60933609Y-87147744D01*
X60935859Y-87124896D01*
X60942524Y-87102926D01*
X60953346Y-87082679D01*
X60967911Y-87064932D01*
X61064932Y-86967911D01*
X61082679Y-86953346D01*
X61102926Y-86942524D01*
X61124896Y-86935859D01*
X61147744Y-86933609D01*
X61727256Y-86933609D01*
X61750104Y-86935859D01*
X61772074Y-86942524D01*
X61792321Y-86953346D01*
X61810068Y-86967911D01*
X61907089Y-87064932D01*
X61921654Y-87082679D01*
X61932476Y-87102926D01*
X61939141Y-87124896D01*
X61941391Y-87147744D01*
X61941391Y-87727256D01*
X61939141Y-87750104D01*
G37*
G36*
X63064141Y-87750104D02*
G01*
X63057476Y-87772074D01*
X63046654Y-87792321D01*
X63032089Y-87810068D01*
X62935068Y-87907089D01*
X62917321Y-87921654D01*
X62897074Y-87932476D01*
X62875104Y-87939141D01*
X62852256Y-87941391D01*
X62272744Y-87941391D01*
X62249896Y-87939141D01*
X62227926Y-87932476D01*
X62207679Y-87921654D01*
X62189932Y-87907089D01*
X62092911Y-87810068D01*
X62078346Y-87792321D01*
X62067524Y-87772074D01*
X62060859Y-87750104D01*
X62058609Y-87727256D01*
X62058609Y-87147744D01*
X62060859Y-87124896D01*
X62067524Y-87102926D01*
X62078346Y-87082679D01*
X62092911Y-87064932D01*
X62189932Y-86967911D01*
X62207679Y-86953346D01*
X62227926Y-86942524D01*
X62249896Y-86935859D01*
X62272744Y-86933609D01*
X62852256Y-86933609D01*
X62875104Y-86935859D01*
X62897074Y-86942524D01*
X62917321Y-86953346D01*
X62935068Y-86967911D01*
X63032089Y-87064932D01*
X63046654Y-87082679D01*
X63057476Y-87102926D01*
X63064141Y-87124896D01*
X63066391Y-87147744D01*
X63066391Y-87727256D01*
X63064141Y-87750104D01*
G37*
G36*
X64189141Y-87750104D02*
G01*
X64182476Y-87772074D01*
X64171654Y-87792321D01*
X64157089Y-87810068D01*
X64060068Y-87907089D01*
X64042321Y-87921654D01*
X64022074Y-87932476D01*
X64000104Y-87939141D01*
X63977256Y-87941391D01*
X63397744Y-87941391D01*
X63374896Y-87939141D01*
X63352926Y-87932476D01*
X63332679Y-87921654D01*
X63314932Y-87907089D01*
X63217911Y-87810068D01*
X63203346Y-87792321D01*
X63192524Y-87772074D01*
X63185859Y-87750104D01*
X63183609Y-87727256D01*
X63183609Y-87147744D01*
X63185859Y-87124896D01*
X63192524Y-87102926D01*
X63203346Y-87082679D01*
X63217911Y-87064932D01*
X63314932Y-86967911D01*
X63332679Y-86953346D01*
X63352926Y-86942524D01*
X63374896Y-86935859D01*
X63397744Y-86933609D01*
X63977256Y-86933609D01*
X64000104Y-86935859D01*
X64022074Y-86942524D01*
X64042321Y-86953346D01*
X64060068Y-86967911D01*
X64157089Y-87064932D01*
X64171654Y-87082679D01*
X64182476Y-87102926D01*
X64189141Y-87124896D01*
X64191391Y-87147744D01*
X64191391Y-87727256D01*
X64189141Y-87750104D01*
G37*
G36*
X60814141Y-86625104D02*
G01*
X60807476Y-86647074D01*
X60796654Y-86667321D01*
X60782089Y-86685068D01*
X60685068Y-86782089D01*
X60667321Y-86796654D01*
X60647074Y-86807476D01*
X60625104Y-86814141D01*
X60602256Y-86816391D01*
X60022744Y-86816391D01*
X59999896Y-86814141D01*
X59977926Y-86807476D01*
X59957679Y-86796654D01*
X59939932Y-86782089D01*
X59842911Y-86685068D01*
X59828346Y-86667321D01*
X59817524Y-86647074D01*
X59810859Y-86625104D01*
X59808609Y-86602256D01*
X59808609Y-86022744D01*
X59810859Y-85999896D01*
X59817524Y-85977926D01*
X59828346Y-85957679D01*
X59842911Y-85939932D01*
X59939932Y-85842911D01*
X59957679Y-85828346D01*
X59977926Y-85817524D01*
X59999896Y-85810859D01*
X60022744Y-85808609D01*
X60602256Y-85808609D01*
X60625104Y-85810859D01*
X60647074Y-85817524D01*
X60667321Y-85828346D01*
X60685068Y-85842911D01*
X60782089Y-85939932D01*
X60796654Y-85957679D01*
X60807476Y-85977926D01*
X60814141Y-85999896D01*
X60816391Y-86022744D01*
X60816391Y-86602256D01*
X60814141Y-86625104D01*
G37*
G36*
X61939141Y-86625104D02*
G01*
X61932476Y-86647074D01*
X61921654Y-86667321D01*
X61907089Y-86685068D01*
X61810068Y-86782089D01*
X61792321Y-86796654D01*
X61772074Y-86807476D01*
X61750104Y-86814141D01*
X61727256Y-86816391D01*
X61147744Y-86816391D01*
X61124896Y-86814141D01*
X61102926Y-86807476D01*
X61082679Y-86796654D01*
X61064932Y-86782089D01*
X60967911Y-86685068D01*
X60953346Y-86667321D01*
X60942524Y-86647074D01*
X60935859Y-86625104D01*
X60933609Y-86602256D01*
X60933609Y-86022744D01*
X60935859Y-85999896D01*
X60942524Y-85977926D01*
X60953346Y-85957679D01*
X60967911Y-85939932D01*
X61064932Y-85842911D01*
X61082679Y-85828346D01*
X61102926Y-85817524D01*
X61124896Y-85810859D01*
X61147744Y-85808609D01*
X61727256Y-85808609D01*
X61750104Y-85810859D01*
X61772074Y-85817524D01*
X61792321Y-85828346D01*
X61810068Y-85842911D01*
X61907089Y-85939932D01*
X61921654Y-85957679D01*
X61932476Y-85977926D01*
X61939141Y-85999896D01*
X61941391Y-86022744D01*
X61941391Y-86602256D01*
X61939141Y-86625104D01*
G37*
G36*
X63064141Y-86625104D02*
G01*
X63057476Y-86647074D01*
X63046654Y-86667321D01*
X63032089Y-86685068D01*
X62935068Y-86782089D01*
X62917321Y-86796654D01*
X62897074Y-86807476D01*
X62875104Y-86814141D01*
X62852256Y-86816391D01*
X62272744Y-86816391D01*
X62249896Y-86814141D01*
X62227926Y-86807476D01*
X62207679Y-86796654D01*
X62189932Y-86782089D01*
X62092911Y-86685068D01*
X62078346Y-86667321D01*
X62067524Y-86647074D01*
X62060859Y-86625104D01*
X62058609Y-86602256D01*
X62058609Y-86022744D01*
X62060859Y-85999896D01*
X62067524Y-85977926D01*
X62078346Y-85957679D01*
X62092911Y-85939932D01*
X62189932Y-85842911D01*
X62207679Y-85828346D01*
X62227926Y-85817524D01*
X62249896Y-85810859D01*
X62272744Y-85808609D01*
X62852256Y-85808609D01*
X62875104Y-85810859D01*
X62897074Y-85817524D01*
X62917321Y-85828346D01*
X62935068Y-85842911D01*
X63032089Y-85939932D01*
X63046654Y-85957679D01*
X63057476Y-85977926D01*
X63064141Y-85999896D01*
X63066391Y-86022744D01*
X63066391Y-86602256D01*
X63064141Y-86625104D01*
G37*
G36*
X64189141Y-86625104D02*
G01*
X64182476Y-86647074D01*
X64171654Y-86667321D01*
X64157089Y-86685068D01*
X64060068Y-86782089D01*
X64042321Y-86796654D01*
X64022074Y-86807476D01*
X64000104Y-86814141D01*
X63977256Y-86816391D01*
X63397744Y-86816391D01*
X63374896Y-86814141D01*
X63352926Y-86807476D01*
X63332679Y-86796654D01*
X63314932Y-86782089D01*
X63217911Y-86685068D01*
X63203346Y-86667321D01*
X63192524Y-86647074D01*
X63185859Y-86625104D01*
X63183609Y-86602256D01*
X63183609Y-86022744D01*
X63185859Y-85999896D01*
X63192524Y-85977926D01*
X63203346Y-85957679D01*
X63217911Y-85939932D01*
X63314932Y-85842911D01*
X63332679Y-85828346D01*
X63352926Y-85817524D01*
X63374896Y-85810859D01*
X63397744Y-85808609D01*
X63977256Y-85808609D01*
X64000104Y-85810859D01*
X64022074Y-85817524D01*
X64042321Y-85828346D01*
X64060068Y-85842911D01*
X64157089Y-85939932D01*
X64171654Y-85957679D01*
X64182476Y-85977926D01*
X64189141Y-85999896D01*
X64191391Y-86022744D01*
X64191391Y-86602256D01*
X64189141Y-86625104D01*
G37*
G36*
G01*
X69000000Y-81850000D02*
X70325000Y-81850000D01*
G75*
G02*
X70400000Y-81925000I0J-75000D01*
G01*
X70400000Y-82075000D01*
G75*
G02*
X70325000Y-82150000I-75000J0D01*
G01*
X69000000Y-82150000D01*
G75*
G02*
X68925000Y-82075000I0J75000D01*
G01*
X68925000Y-81925000D01*
G75*
G02*
X69000000Y-81850000I75000J0D01*
G01*
G37*
G36*
G01*
X69000000Y-82350000D02*
X70325000Y-82350000D01*
G75*
G02*
X70400000Y-82425000I0J-75000D01*
G01*
X70400000Y-82575000D01*
G75*
G02*
X70325000Y-82650000I-75000J0D01*
G01*
X69000000Y-82650000D01*
G75*
G02*
X68925000Y-82575000I0J75000D01*
G01*
X68925000Y-82425000D01*
G75*
G02*
X69000000Y-82350000I75000J0D01*
G01*
G37*
G36*
G01*
X69000000Y-82850000D02*
X70325000Y-82850000D01*
G75*
G02*
X70400000Y-82925000I0J-75000D01*
G01*
X70400000Y-83075000D01*
G75*
G02*
X70325000Y-83150000I-75000J0D01*
G01*
X69000000Y-83150000D01*
G75*
G02*
X68925000Y-83075000I0J75000D01*
G01*
X68925000Y-82925000D01*
G75*
G02*
X69000000Y-82850000I75000J0D01*
G01*
G37*
G36*
G01*
X69000000Y-83350000D02*
X70325000Y-83350000D01*
G75*
G02*
X70400000Y-83425000I0J-75000D01*
G01*
X70400000Y-83575000D01*
G75*
G02*
X70325000Y-83650000I-75000J0D01*
G01*
X69000000Y-83650000D01*
G75*
G02*
X68925000Y-83575000I0J75000D01*
G01*
X68925000Y-83425000D01*
G75*
G02*
X69000000Y-83350000I75000J0D01*
G01*
G37*
G36*
G01*
X69000000Y-83850000D02*
X70325000Y-83850000D01*
G75*
G02*
X70400000Y-83925000I0J-75000D01*
G01*
X70400000Y-84075000D01*
G75*
G02*
X70325000Y-84150000I-75000J0D01*
G01*
X69000000Y-84150000D01*
G75*
G02*
X68925000Y-84075000I0J75000D01*
G01*
X68925000Y-83925000D01*
G75*
G02*
X69000000Y-83850000I75000J0D01*
G01*
G37*
G36*
G01*
X69000000Y-84350000D02*
X70325000Y-84350000D01*
G75*
G02*
X70400000Y-84425000I0J-75000D01*
G01*
X70400000Y-84575000D01*
G75*
G02*
X70325000Y-84650000I-75000J0D01*
G01*
X69000000Y-84650000D01*
G75*
G02*
X68925000Y-84575000I0J75000D01*
G01*
X68925000Y-84425000D01*
G75*
G02*
X69000000Y-84350000I75000J0D01*
G01*
G37*
G36*
G01*
X69000000Y-84850000D02*
X70325000Y-84850000D01*
G75*
G02*
X70400000Y-84925000I0J-75000D01*
G01*
X70400000Y-85075000D01*
G75*
G02*
X70325000Y-85150000I-75000J0D01*
G01*
X69000000Y-85150000D01*
G75*
G02*
X68925000Y-85075000I0J75000D01*
G01*
X68925000Y-84925000D01*
G75*
G02*
X69000000Y-84850000I75000J0D01*
G01*
G37*
G36*
G01*
X69000000Y-85350000D02*
X70325000Y-85350000D01*
G75*
G02*
X70400000Y-85425000I0J-75000D01*
G01*
X70400000Y-85575000D01*
G75*
G02*
X70325000Y-85650000I-75000J0D01*
G01*
X69000000Y-85650000D01*
G75*
G02*
X68925000Y-85575000I0J75000D01*
G01*
X68925000Y-85425000D01*
G75*
G02*
X69000000Y-85350000I75000J0D01*
G01*
G37*
G36*
G01*
X69000000Y-85850000D02*
X70325000Y-85850000D01*
G75*
G02*
X70400000Y-85925000I0J-75000D01*
G01*
X70400000Y-86075000D01*
G75*
G02*
X70325000Y-86150000I-75000J0D01*
G01*
X69000000Y-86150000D01*
G75*
G02*
X68925000Y-86075000I0J75000D01*
G01*
X68925000Y-85925000D01*
G75*
G02*
X69000000Y-85850000I75000J0D01*
G01*
G37*
G36*
G01*
X69000000Y-86350000D02*
X70325000Y-86350000D01*
G75*
G02*
X70400000Y-86425000I0J-75000D01*
G01*
X70400000Y-86575000D01*
G75*
G02*
X70325000Y-86650000I-75000J0D01*
G01*
X69000000Y-86650000D01*
G75*
G02*
X68925000Y-86575000I0J75000D01*
G01*
X68925000Y-86425000D01*
G75*
G02*
X69000000Y-86350000I75000J0D01*
G01*
G37*
G36*
G01*
X69000000Y-86850000D02*
X70325000Y-86850000D01*
G75*
G02*
X70400000Y-86925000I0J-75000D01*
G01*
X70400000Y-87075000D01*
G75*
G02*
X70325000Y-87150000I-75000J0D01*
G01*
X69000000Y-87150000D01*
G75*
G02*
X68925000Y-87075000I0J75000D01*
G01*
X68925000Y-86925000D01*
G75*
G02*
X69000000Y-86850000I75000J0D01*
G01*
G37*
G36*
G01*
X69000000Y-87350000D02*
X70325000Y-87350000D01*
G75*
G02*
X70400000Y-87425000I0J-75000D01*
G01*
X70400000Y-87575000D01*
G75*
G02*
X70325000Y-87650000I-75000J0D01*
G01*
X69000000Y-87650000D01*
G75*
G02*
X68925000Y-87575000I0J75000D01*
G01*
X68925000Y-87425000D01*
G75*
G02*
X69000000Y-87350000I75000J0D01*
G01*
G37*
G36*
G01*
X69000000Y-87850000D02*
X70325000Y-87850000D01*
G75*
G02*
X70400000Y-87925000I0J-75000D01*
G01*
X70400000Y-88075000D01*
G75*
G02*
X70325000Y-88150000I-75000J0D01*
G01*
X69000000Y-88150000D01*
G75*
G02*
X68925000Y-88075000I0J75000D01*
G01*
X68925000Y-87925000D01*
G75*
G02*
X69000000Y-87850000I75000J0D01*
G01*
G37*
G36*
G01*
X69000000Y-88350000D02*
X70325000Y-88350000D01*
G75*
G02*
X70400000Y-88425000I0J-75000D01*
G01*
X70400000Y-88575000D01*
G75*
G02*
X70325000Y-88650000I-75000J0D01*
G01*
X69000000Y-88650000D01*
G75*
G02*
X68925000Y-88575000I0J75000D01*
G01*
X68925000Y-88425000D01*
G75*
G02*
X69000000Y-88350000I75000J0D01*
G01*
G37*
G36*
G01*
X69000000Y-88850000D02*
X70325000Y-88850000D01*
G75*
G02*
X70400000Y-88925000I0J-75000D01*
G01*
X70400000Y-89075000D01*
G75*
G02*
X70325000Y-89150000I-75000J0D01*
G01*
X69000000Y-89150000D01*
G75*
G02*
X68925000Y-89075000I0J75000D01*
G01*
X68925000Y-88925000D01*
G75*
G02*
X69000000Y-88850000I75000J0D01*
G01*
G37*
G36*
G01*
X69000000Y-89350000D02*
X70325000Y-89350000D01*
G75*
G02*
X70400000Y-89425000I0J-75000D01*
G01*
X70400000Y-89575000D01*
G75*
G02*
X70325000Y-89650000I-75000J0D01*
G01*
X69000000Y-89650000D01*
G75*
G02*
X68925000Y-89575000I0J75000D01*
G01*
X68925000Y-89425000D01*
G75*
G02*
X69000000Y-89350000I75000J0D01*
G01*
G37*
G36*
G01*
X69000000Y-89850000D02*
X70325000Y-89850000D01*
G75*
G02*
X70400000Y-89925000I0J-75000D01*
G01*
X70400000Y-90075000D01*
G75*
G02*
X70325000Y-90150000I-75000J0D01*
G01*
X69000000Y-90150000D01*
G75*
G02*
X68925000Y-90075000I0J75000D01*
G01*
X68925000Y-89925000D01*
G75*
G02*
X69000000Y-89850000I75000J0D01*
G01*
G37*
G36*
G01*
X69000000Y-90350000D02*
X70325000Y-90350000D01*
G75*
G02*
X70400000Y-90425000I0J-75000D01*
G01*
X70400000Y-90575000D01*
G75*
G02*
X70325000Y-90650000I-75000J0D01*
G01*
X69000000Y-90650000D01*
G75*
G02*
X68925000Y-90575000I0J75000D01*
G01*
X68925000Y-90425000D01*
G75*
G02*
X69000000Y-90350000I75000J0D01*
G01*
G37*
G36*
G01*
X69000000Y-90850000D02*
X70325000Y-90850000D01*
G75*
G02*
X70400000Y-90925000I0J-75000D01*
G01*
X70400000Y-91075000D01*
G75*
G02*
X70325000Y-91150000I-75000J0D01*
G01*
X69000000Y-91150000D01*
G75*
G02*
X68925000Y-91075000I0J75000D01*
G01*
X68925000Y-90925000D01*
G75*
G02*
X69000000Y-90850000I75000J0D01*
G01*
G37*
G36*
G01*
X69000000Y-91350000D02*
X70325000Y-91350000D01*
G75*
G02*
X70400000Y-91425000I0J-75000D01*
G01*
X70400000Y-91575000D01*
G75*
G02*
X70325000Y-91650000I-75000J0D01*
G01*
X69000000Y-91650000D01*
G75*
G02*
X68925000Y-91575000I0J75000D01*
G01*
X68925000Y-91425000D01*
G75*
G02*
X69000000Y-91350000I75000J0D01*
G01*
G37*
G36*
G01*
X69000000Y-91850000D02*
X70325000Y-91850000D01*
G75*
G02*
X70400000Y-91925000I0J-75000D01*
G01*
X70400000Y-92075000D01*
G75*
G02*
X70325000Y-92150000I-75000J0D01*
G01*
X69000000Y-92150000D01*
G75*
G02*
X68925000Y-92075000I0J75000D01*
G01*
X68925000Y-91925000D01*
G75*
G02*
X69000000Y-91850000I75000J0D01*
G01*
G37*
G36*
G01*
X69000000Y-92350000D02*
X70325000Y-92350000D01*
G75*
G02*
X70400000Y-92425000I0J-75000D01*
G01*
X70400000Y-92575000D01*
G75*
G02*
X70325000Y-92650000I-75000J0D01*
G01*
X69000000Y-92650000D01*
G75*
G02*
X68925000Y-92575000I0J75000D01*
G01*
X68925000Y-92425000D01*
G75*
G02*
X69000000Y-92350000I75000J0D01*
G01*
G37*
G36*
G01*
X69000000Y-92850000D02*
X70325000Y-92850000D01*
G75*
G02*
X70400000Y-92925000I0J-75000D01*
G01*
X70400000Y-93075000D01*
G75*
G02*
X70325000Y-93150000I-75000J0D01*
G01*
X69000000Y-93150000D01*
G75*
G02*
X68925000Y-93075000I0J75000D01*
G01*
X68925000Y-92925000D01*
G75*
G02*
X69000000Y-92850000I75000J0D01*
G01*
G37*
G36*
G01*
X69000000Y-93350000D02*
X70325000Y-93350000D01*
G75*
G02*
X70400000Y-93425000I0J-75000D01*
G01*
X70400000Y-93575000D01*
G75*
G02*
X70325000Y-93650000I-75000J0D01*
G01*
X69000000Y-93650000D01*
G75*
G02*
X68925000Y-93575000I0J75000D01*
G01*
X68925000Y-93425000D01*
G75*
G02*
X69000000Y-93350000I75000J0D01*
G01*
G37*
G36*
G01*
X69000000Y-93850000D02*
X70325000Y-93850000D01*
G75*
G02*
X70400000Y-93925000I0J-75000D01*
G01*
X70400000Y-94075000D01*
G75*
G02*
X70325000Y-94150000I-75000J0D01*
G01*
X69000000Y-94150000D01*
G75*
G02*
X68925000Y-94075000I0J75000D01*
G01*
X68925000Y-93925000D01*
G75*
G02*
X69000000Y-93850000I75000J0D01*
G01*
G37*
G36*
G01*
X67925000Y-94925000D02*
X68075000Y-94925000D01*
G75*
G02*
X68150000Y-95000000I0J-75000D01*
G01*
X68150000Y-96325000D01*
G75*
G02*
X68075000Y-96400000I-75000J0D01*
G01*
X67925000Y-96400000D01*
G75*
G02*
X67850000Y-96325000I0J75000D01*
G01*
X67850000Y-95000000D01*
G75*
G02*
X67925000Y-94925000I75000J0D01*
G01*
G37*
G36*
G01*
X67425000Y-94925000D02*
X67575000Y-94925000D01*
G75*
G02*
X67650000Y-95000000I0J-75000D01*
G01*
X67650000Y-96325000D01*
G75*
G02*
X67575000Y-96400000I-75000J0D01*
G01*
X67425000Y-96400000D01*
G75*
G02*
X67350000Y-96325000I0J75000D01*
G01*
X67350000Y-95000000D01*
G75*
G02*
X67425000Y-94925000I75000J0D01*
G01*
G37*
G36*
G01*
X66925000Y-94925000D02*
X67075000Y-94925000D01*
G75*
G02*
X67150000Y-95000000I0J-75000D01*
G01*
X67150000Y-96325000D01*
G75*
G02*
X67075000Y-96400000I-75000J0D01*
G01*
X66925000Y-96400000D01*
G75*
G02*
X66850000Y-96325000I0J75000D01*
G01*
X66850000Y-95000000D01*
G75*
G02*
X66925000Y-94925000I75000J0D01*
G01*
G37*
G36*
G01*
X66425000Y-94925000D02*
X66575000Y-94925000D01*
G75*
G02*
X66650000Y-95000000I0J-75000D01*
G01*
X66650000Y-96325000D01*
G75*
G02*
X66575000Y-96400000I-75000J0D01*
G01*
X66425000Y-96400000D01*
G75*
G02*
X66350000Y-96325000I0J75000D01*
G01*
X66350000Y-95000000D01*
G75*
G02*
X66425000Y-94925000I75000J0D01*
G01*
G37*
G36*
G01*
X65925000Y-94925000D02*
X66075000Y-94925000D01*
G75*
G02*
X66150000Y-95000000I0J-75000D01*
G01*
X66150000Y-96325000D01*
G75*
G02*
X66075000Y-96400000I-75000J0D01*
G01*
X65925000Y-96400000D01*
G75*
G02*
X65850000Y-96325000I0J75000D01*
G01*
X65850000Y-95000000D01*
G75*
G02*
X65925000Y-94925000I75000J0D01*
G01*
G37*
G36*
G01*
X65425000Y-94925000D02*
X65575000Y-94925000D01*
G75*
G02*
X65650000Y-95000000I0J-75000D01*
G01*
X65650000Y-96325000D01*
G75*
G02*
X65575000Y-96400000I-75000J0D01*
G01*
X65425000Y-96400000D01*
G75*
G02*
X65350000Y-96325000I0J75000D01*
G01*
X65350000Y-95000000D01*
G75*
G02*
X65425000Y-94925000I75000J0D01*
G01*
G37*
G36*
G01*
X64925000Y-94925000D02*
X65075000Y-94925000D01*
G75*
G02*
X65150000Y-95000000I0J-75000D01*
G01*
X65150000Y-96325000D01*
G75*
G02*
X65075000Y-96400000I-75000J0D01*
G01*
X64925000Y-96400000D01*
G75*
G02*
X64850000Y-96325000I0J75000D01*
G01*
X64850000Y-95000000D01*
G75*
G02*
X64925000Y-94925000I75000J0D01*
G01*
G37*
G36*
G01*
X64425000Y-94925000D02*
X64575000Y-94925000D01*
G75*
G02*
X64650000Y-95000000I0J-75000D01*
G01*
X64650000Y-96325000D01*
G75*
G02*
X64575000Y-96400000I-75000J0D01*
G01*
X64425000Y-96400000D01*
G75*
G02*
X64350000Y-96325000I0J75000D01*
G01*
X64350000Y-95000000D01*
G75*
G02*
X64425000Y-94925000I75000J0D01*
G01*
G37*
G36*
G01*
X63925000Y-94925000D02*
X64075000Y-94925000D01*
G75*
G02*
X64150000Y-95000000I0J-75000D01*
G01*
X64150000Y-96325000D01*
G75*
G02*
X64075000Y-96400000I-75000J0D01*
G01*
X63925000Y-96400000D01*
G75*
G02*
X63850000Y-96325000I0J75000D01*
G01*
X63850000Y-95000000D01*
G75*
G02*
X63925000Y-94925000I75000J0D01*
G01*
G37*
G36*
G01*
X63425000Y-94925000D02*
X63575000Y-94925000D01*
G75*
G02*
X63650000Y-95000000I0J-75000D01*
G01*
X63650000Y-96325000D01*
G75*
G02*
X63575000Y-96400000I-75000J0D01*
G01*
X63425000Y-96400000D01*
G75*
G02*
X63350000Y-96325000I0J75000D01*
G01*
X63350000Y-95000000D01*
G75*
G02*
X63425000Y-94925000I75000J0D01*
G01*
G37*
G36*
G01*
X62925000Y-94925000D02*
X63075000Y-94925000D01*
G75*
G02*
X63150000Y-95000000I0J-75000D01*
G01*
X63150000Y-96325000D01*
G75*
G02*
X63075000Y-96400000I-75000J0D01*
G01*
X62925000Y-96400000D01*
G75*
G02*
X62850000Y-96325000I0J75000D01*
G01*
X62850000Y-95000000D01*
G75*
G02*
X62925000Y-94925000I75000J0D01*
G01*
G37*
G36*
G01*
X62425000Y-94925000D02*
X62575000Y-94925000D01*
G75*
G02*
X62650000Y-95000000I0J-75000D01*
G01*
X62650000Y-96325000D01*
G75*
G02*
X62575000Y-96400000I-75000J0D01*
G01*
X62425000Y-96400000D01*
G75*
G02*
X62350000Y-96325000I0J75000D01*
G01*
X62350000Y-95000000D01*
G75*
G02*
X62425000Y-94925000I75000J0D01*
G01*
G37*
G36*
G01*
X61925000Y-94925000D02*
X62075000Y-94925000D01*
G75*
G02*
X62150000Y-95000000I0J-75000D01*
G01*
X62150000Y-96325000D01*
G75*
G02*
X62075000Y-96400000I-75000J0D01*
G01*
X61925000Y-96400000D01*
G75*
G02*
X61850000Y-96325000I0J75000D01*
G01*
X61850000Y-95000000D01*
G75*
G02*
X61925000Y-94925000I75000J0D01*
G01*
G37*
G36*
G01*
X61425000Y-94925000D02*
X61575000Y-94925000D01*
G75*
G02*
X61650000Y-95000000I0J-75000D01*
G01*
X61650000Y-96325000D01*
G75*
G02*
X61575000Y-96400000I-75000J0D01*
G01*
X61425000Y-96400000D01*
G75*
G02*
X61350000Y-96325000I0J75000D01*
G01*
X61350000Y-95000000D01*
G75*
G02*
X61425000Y-94925000I75000J0D01*
G01*
G37*
G36*
G01*
X60925000Y-94925000D02*
X61075000Y-94925000D01*
G75*
G02*
X61150000Y-95000000I0J-75000D01*
G01*
X61150000Y-96325000D01*
G75*
G02*
X61075000Y-96400000I-75000J0D01*
G01*
X60925000Y-96400000D01*
G75*
G02*
X60850000Y-96325000I0J75000D01*
G01*
X60850000Y-95000000D01*
G75*
G02*
X60925000Y-94925000I75000J0D01*
G01*
G37*
G36*
G01*
X60425000Y-94925000D02*
X60575000Y-94925000D01*
G75*
G02*
X60650000Y-95000000I0J-75000D01*
G01*
X60650000Y-96325000D01*
G75*
G02*
X60575000Y-96400000I-75000J0D01*
G01*
X60425000Y-96400000D01*
G75*
G02*
X60350000Y-96325000I0J75000D01*
G01*
X60350000Y-95000000D01*
G75*
G02*
X60425000Y-94925000I75000J0D01*
G01*
G37*
G36*
G01*
X59925000Y-94925000D02*
X60075000Y-94925000D01*
G75*
G02*
X60150000Y-95000000I0J-75000D01*
G01*
X60150000Y-96325000D01*
G75*
G02*
X60075000Y-96400000I-75000J0D01*
G01*
X59925000Y-96400000D01*
G75*
G02*
X59850000Y-96325000I0J75000D01*
G01*
X59850000Y-95000000D01*
G75*
G02*
X59925000Y-94925000I75000J0D01*
G01*
G37*
G36*
G01*
X59425000Y-94925000D02*
X59575000Y-94925000D01*
G75*
G02*
X59650000Y-95000000I0J-75000D01*
G01*
X59650000Y-96325000D01*
G75*
G02*
X59575000Y-96400000I-75000J0D01*
G01*
X59425000Y-96400000D01*
G75*
G02*
X59350000Y-96325000I0J75000D01*
G01*
X59350000Y-95000000D01*
G75*
G02*
X59425000Y-94925000I75000J0D01*
G01*
G37*
G36*
G01*
X58925000Y-94925000D02*
X59075000Y-94925000D01*
G75*
G02*
X59150000Y-95000000I0J-75000D01*
G01*
X59150000Y-96325000D01*
G75*
G02*
X59075000Y-96400000I-75000J0D01*
G01*
X58925000Y-96400000D01*
G75*
G02*
X58850000Y-96325000I0J75000D01*
G01*
X58850000Y-95000000D01*
G75*
G02*
X58925000Y-94925000I75000J0D01*
G01*
G37*
G36*
G01*
X58425000Y-94925000D02*
X58575000Y-94925000D01*
G75*
G02*
X58650000Y-95000000I0J-75000D01*
G01*
X58650000Y-96325000D01*
G75*
G02*
X58575000Y-96400000I-75000J0D01*
G01*
X58425000Y-96400000D01*
G75*
G02*
X58350000Y-96325000I0J75000D01*
G01*
X58350000Y-95000000D01*
G75*
G02*
X58425000Y-94925000I75000J0D01*
G01*
G37*
G36*
G01*
X57925000Y-94925000D02*
X58075000Y-94925000D01*
G75*
G02*
X58150000Y-95000000I0J-75000D01*
G01*
X58150000Y-96325000D01*
G75*
G02*
X58075000Y-96400000I-75000J0D01*
G01*
X57925000Y-96400000D01*
G75*
G02*
X57850000Y-96325000I0J75000D01*
G01*
X57850000Y-95000000D01*
G75*
G02*
X57925000Y-94925000I75000J0D01*
G01*
G37*
G36*
G01*
X57425000Y-94925000D02*
X57575000Y-94925000D01*
G75*
G02*
X57650000Y-95000000I0J-75000D01*
G01*
X57650000Y-96325000D01*
G75*
G02*
X57575000Y-96400000I-75000J0D01*
G01*
X57425000Y-96400000D01*
G75*
G02*
X57350000Y-96325000I0J75000D01*
G01*
X57350000Y-95000000D01*
G75*
G02*
X57425000Y-94925000I75000J0D01*
G01*
G37*
G36*
G01*
X56925000Y-94925000D02*
X57075000Y-94925000D01*
G75*
G02*
X57150000Y-95000000I0J-75000D01*
G01*
X57150000Y-96325000D01*
G75*
G02*
X57075000Y-96400000I-75000J0D01*
G01*
X56925000Y-96400000D01*
G75*
G02*
X56850000Y-96325000I0J75000D01*
G01*
X56850000Y-95000000D01*
G75*
G02*
X56925000Y-94925000I75000J0D01*
G01*
G37*
G36*
G01*
X56425000Y-94925000D02*
X56575000Y-94925000D01*
G75*
G02*
X56650000Y-95000000I0J-75000D01*
G01*
X56650000Y-96325000D01*
G75*
G02*
X56575000Y-96400000I-75000J0D01*
G01*
X56425000Y-96400000D01*
G75*
G02*
X56350000Y-96325000I0J75000D01*
G01*
X56350000Y-95000000D01*
G75*
G02*
X56425000Y-94925000I75000J0D01*
G01*
G37*
G36*
G01*
X55925000Y-94925000D02*
X56075000Y-94925000D01*
G75*
G02*
X56150000Y-95000000I0J-75000D01*
G01*
X56150000Y-96325000D01*
G75*
G02*
X56075000Y-96400000I-75000J0D01*
G01*
X55925000Y-96400000D01*
G75*
G02*
X55850000Y-96325000I0J75000D01*
G01*
X55850000Y-95000000D01*
G75*
G02*
X55925000Y-94925000I75000J0D01*
G01*
G37*
G36*
G01*
X53675000Y-93850000D02*
X55000000Y-93850000D01*
G75*
G02*
X55075000Y-93925000I0J-75000D01*
G01*
X55075000Y-94075000D01*
G75*
G02*
X55000000Y-94150000I-75000J0D01*
G01*
X53675000Y-94150000D01*
G75*
G02*
X53600000Y-94075000I0J75000D01*
G01*
X53600000Y-93925000D01*
G75*
G02*
X53675000Y-93850000I75000J0D01*
G01*
G37*
G36*
G01*
X53675000Y-93350000D02*
X55000000Y-93350000D01*
G75*
G02*
X55075000Y-93425000I0J-75000D01*
G01*
X55075000Y-93575000D01*
G75*
G02*
X55000000Y-93650000I-75000J0D01*
G01*
X53675000Y-93650000D01*
G75*
G02*
X53600000Y-93575000I0J75000D01*
G01*
X53600000Y-93425000D01*
G75*
G02*
X53675000Y-93350000I75000J0D01*
G01*
G37*
G36*
G01*
X53675000Y-92850000D02*
X55000000Y-92850000D01*
G75*
G02*
X55075000Y-92925000I0J-75000D01*
G01*
X55075000Y-93075000D01*
G75*
G02*
X55000000Y-93150000I-75000J0D01*
G01*
X53675000Y-93150000D01*
G75*
G02*
X53600000Y-93075000I0J75000D01*
G01*
X53600000Y-92925000D01*
G75*
G02*
X53675000Y-92850000I75000J0D01*
G01*
G37*
G36*
G01*
X53675000Y-92350000D02*
X55000000Y-92350000D01*
G75*
G02*
X55075000Y-92425000I0J-75000D01*
G01*
X55075000Y-92575000D01*
G75*
G02*
X55000000Y-92650000I-75000J0D01*
G01*
X53675000Y-92650000D01*
G75*
G02*
X53600000Y-92575000I0J75000D01*
G01*
X53600000Y-92425000D01*
G75*
G02*
X53675000Y-92350000I75000J0D01*
G01*
G37*
G36*
G01*
X53675000Y-91850000D02*
X55000000Y-91850000D01*
G75*
G02*
X55075000Y-91925000I0J-75000D01*
G01*
X55075000Y-92075000D01*
G75*
G02*
X55000000Y-92150000I-75000J0D01*
G01*
X53675000Y-92150000D01*
G75*
G02*
X53600000Y-92075000I0J75000D01*
G01*
X53600000Y-91925000D01*
G75*
G02*
X53675000Y-91850000I75000J0D01*
G01*
G37*
G36*
G01*
X53675000Y-91350000D02*
X55000000Y-91350000D01*
G75*
G02*
X55075000Y-91425000I0J-75000D01*
G01*
X55075000Y-91575000D01*
G75*
G02*
X55000000Y-91650000I-75000J0D01*
G01*
X53675000Y-91650000D01*
G75*
G02*
X53600000Y-91575000I0J75000D01*
G01*
X53600000Y-91425000D01*
G75*
G02*
X53675000Y-91350000I75000J0D01*
G01*
G37*
G36*
G01*
X53675000Y-90850000D02*
X55000000Y-90850000D01*
G75*
G02*
X55075000Y-90925000I0J-75000D01*
G01*
X55075000Y-91075000D01*
G75*
G02*
X55000000Y-91150000I-75000J0D01*
G01*
X53675000Y-91150000D01*
G75*
G02*
X53600000Y-91075000I0J75000D01*
G01*
X53600000Y-90925000D01*
G75*
G02*
X53675000Y-90850000I75000J0D01*
G01*
G37*
G36*
G01*
X53675000Y-90350000D02*
X55000000Y-90350000D01*
G75*
G02*
X55075000Y-90425000I0J-75000D01*
G01*
X55075000Y-90575000D01*
G75*
G02*
X55000000Y-90650000I-75000J0D01*
G01*
X53675000Y-90650000D01*
G75*
G02*
X53600000Y-90575000I0J75000D01*
G01*
X53600000Y-90425000D01*
G75*
G02*
X53675000Y-90350000I75000J0D01*
G01*
G37*
G36*
G01*
X53675000Y-89850000D02*
X55000000Y-89850000D01*
G75*
G02*
X55075000Y-89925000I0J-75000D01*
G01*
X55075000Y-90075000D01*
G75*
G02*
X55000000Y-90150000I-75000J0D01*
G01*
X53675000Y-90150000D01*
G75*
G02*
X53600000Y-90075000I0J75000D01*
G01*
X53600000Y-89925000D01*
G75*
G02*
X53675000Y-89850000I75000J0D01*
G01*
G37*
G36*
G01*
X53675000Y-89350000D02*
X55000000Y-89350000D01*
G75*
G02*
X55075000Y-89425000I0J-75000D01*
G01*
X55075000Y-89575000D01*
G75*
G02*
X55000000Y-89650000I-75000J0D01*
G01*
X53675000Y-89650000D01*
G75*
G02*
X53600000Y-89575000I0J75000D01*
G01*
X53600000Y-89425000D01*
G75*
G02*
X53675000Y-89350000I75000J0D01*
G01*
G37*
G36*
G01*
X53675000Y-88850000D02*
X55000000Y-88850000D01*
G75*
G02*
X55075000Y-88925000I0J-75000D01*
G01*
X55075000Y-89075000D01*
G75*
G02*
X55000000Y-89150000I-75000J0D01*
G01*
X53675000Y-89150000D01*
G75*
G02*
X53600000Y-89075000I0J75000D01*
G01*
X53600000Y-88925000D01*
G75*
G02*
X53675000Y-88850000I75000J0D01*
G01*
G37*
G36*
G01*
X53675000Y-88350000D02*
X55000000Y-88350000D01*
G75*
G02*
X55075000Y-88425000I0J-75000D01*
G01*
X55075000Y-88575000D01*
G75*
G02*
X55000000Y-88650000I-75000J0D01*
G01*
X53675000Y-88650000D01*
G75*
G02*
X53600000Y-88575000I0J75000D01*
G01*
X53600000Y-88425000D01*
G75*
G02*
X53675000Y-88350000I75000J0D01*
G01*
G37*
G36*
G01*
X53675000Y-87850000D02*
X55000000Y-87850000D01*
G75*
G02*
X55075000Y-87925000I0J-75000D01*
G01*
X55075000Y-88075000D01*
G75*
G02*
X55000000Y-88150000I-75000J0D01*
G01*
X53675000Y-88150000D01*
G75*
G02*
X53600000Y-88075000I0J75000D01*
G01*
X53600000Y-87925000D01*
G75*
G02*
X53675000Y-87850000I75000J0D01*
G01*
G37*
G36*
G01*
X53675000Y-87350000D02*
X55000000Y-87350000D01*
G75*
G02*
X55075000Y-87425000I0J-75000D01*
G01*
X55075000Y-87575000D01*
G75*
G02*
X55000000Y-87650000I-75000J0D01*
G01*
X53675000Y-87650000D01*
G75*
G02*
X53600000Y-87575000I0J75000D01*
G01*
X53600000Y-87425000D01*
G75*
G02*
X53675000Y-87350000I75000J0D01*
G01*
G37*
G36*
G01*
X53675000Y-86850000D02*
X55000000Y-86850000D01*
G75*
G02*
X55075000Y-86925000I0J-75000D01*
G01*
X55075000Y-87075000D01*
G75*
G02*
X55000000Y-87150000I-75000J0D01*
G01*
X53675000Y-87150000D01*
G75*
G02*
X53600000Y-87075000I0J75000D01*
G01*
X53600000Y-86925000D01*
G75*
G02*
X53675000Y-86850000I75000J0D01*
G01*
G37*
G36*
G01*
X53675000Y-86350000D02*
X55000000Y-86350000D01*
G75*
G02*
X55075000Y-86425000I0J-75000D01*
G01*
X55075000Y-86575000D01*
G75*
G02*
X55000000Y-86650000I-75000J0D01*
G01*
X53675000Y-86650000D01*
G75*
G02*
X53600000Y-86575000I0J75000D01*
G01*
X53600000Y-86425000D01*
G75*
G02*
X53675000Y-86350000I75000J0D01*
G01*
G37*
G36*
G01*
X53675000Y-85850000D02*
X55000000Y-85850000D01*
G75*
G02*
X55075000Y-85925000I0J-75000D01*
G01*
X55075000Y-86075000D01*
G75*
G02*
X55000000Y-86150000I-75000J0D01*
G01*
X53675000Y-86150000D01*
G75*
G02*
X53600000Y-86075000I0J75000D01*
G01*
X53600000Y-85925000D01*
G75*
G02*
X53675000Y-85850000I75000J0D01*
G01*
G37*
G36*
G01*
X53675000Y-85350000D02*
X55000000Y-85350000D01*
G75*
G02*
X55075000Y-85425000I0J-75000D01*
G01*
X55075000Y-85575000D01*
G75*
G02*
X55000000Y-85650000I-75000J0D01*
G01*
X53675000Y-85650000D01*
G75*
G02*
X53600000Y-85575000I0J75000D01*
G01*
X53600000Y-85425000D01*
G75*
G02*
X53675000Y-85350000I75000J0D01*
G01*
G37*
G36*
G01*
X53675000Y-84850000D02*
X55000000Y-84850000D01*
G75*
G02*
X55075000Y-84925000I0J-75000D01*
G01*
X55075000Y-85075000D01*
G75*
G02*
X55000000Y-85150000I-75000J0D01*
G01*
X53675000Y-85150000D01*
G75*
G02*
X53600000Y-85075000I0J75000D01*
G01*
X53600000Y-84925000D01*
G75*
G02*
X53675000Y-84850000I75000J0D01*
G01*
G37*
G36*
G01*
X53675000Y-84350000D02*
X55000000Y-84350000D01*
G75*
G02*
X55075000Y-84425000I0J-75000D01*
G01*
X55075000Y-84575000D01*
G75*
G02*
X55000000Y-84650000I-75000J0D01*
G01*
X53675000Y-84650000D01*
G75*
G02*
X53600000Y-84575000I0J75000D01*
G01*
X53600000Y-84425000D01*
G75*
G02*
X53675000Y-84350000I75000J0D01*
G01*
G37*
G36*
G01*
X53675000Y-83850000D02*
X55000000Y-83850000D01*
G75*
G02*
X55075000Y-83925000I0J-75000D01*
G01*
X55075000Y-84075000D01*
G75*
G02*
X55000000Y-84150000I-75000J0D01*
G01*
X53675000Y-84150000D01*
G75*
G02*
X53600000Y-84075000I0J75000D01*
G01*
X53600000Y-83925000D01*
G75*
G02*
X53675000Y-83850000I75000J0D01*
G01*
G37*
G36*
G01*
X53675000Y-83350000D02*
X55000000Y-83350000D01*
G75*
G02*
X55075000Y-83425000I0J-75000D01*
G01*
X55075000Y-83575000D01*
G75*
G02*
X55000000Y-83650000I-75000J0D01*
G01*
X53675000Y-83650000D01*
G75*
G02*
X53600000Y-83575000I0J75000D01*
G01*
X53600000Y-83425000D01*
G75*
G02*
X53675000Y-83350000I75000J0D01*
G01*
G37*
G36*
G01*
X53675000Y-82850000D02*
X55000000Y-82850000D01*
G75*
G02*
X55075000Y-82925000I0J-75000D01*
G01*
X55075000Y-83075000D01*
G75*
G02*
X55000000Y-83150000I-75000J0D01*
G01*
X53675000Y-83150000D01*
G75*
G02*
X53600000Y-83075000I0J75000D01*
G01*
X53600000Y-82925000D01*
G75*
G02*
X53675000Y-82850000I75000J0D01*
G01*
G37*
G36*
G01*
X53675000Y-82350000D02*
X55000000Y-82350000D01*
G75*
G02*
X55075000Y-82425000I0J-75000D01*
G01*
X55075000Y-82575000D01*
G75*
G02*
X55000000Y-82650000I-75000J0D01*
G01*
X53675000Y-82650000D01*
G75*
G02*
X53600000Y-82575000I0J75000D01*
G01*
X53600000Y-82425000D01*
G75*
G02*
X53675000Y-82350000I75000J0D01*
G01*
G37*
G36*
G01*
X53675000Y-81850000D02*
X55000000Y-81850000D01*
G75*
G02*
X55075000Y-81925000I0J-75000D01*
G01*
X55075000Y-82075000D01*
G75*
G02*
X55000000Y-82150000I-75000J0D01*
G01*
X53675000Y-82150000D01*
G75*
G02*
X53600000Y-82075000I0J75000D01*
G01*
X53600000Y-81925000D01*
G75*
G02*
X53675000Y-81850000I75000J0D01*
G01*
G37*
G36*
G01*
X55925000Y-79600000D02*
X56075000Y-79600000D01*
G75*
G02*
X56150000Y-79675000I0J-75000D01*
G01*
X56150000Y-81000000D01*
G75*
G02*
X56075000Y-81075000I-75000J0D01*
G01*
X55925000Y-81075000D01*
G75*
G02*
X55850000Y-81000000I0J75000D01*
G01*
X55850000Y-79675000D01*
G75*
G02*
X55925000Y-79600000I75000J0D01*
G01*
G37*
G36*
G01*
X56425000Y-79600000D02*
X56575000Y-79600000D01*
G75*
G02*
X56650000Y-79675000I0J-75000D01*
G01*
X56650000Y-81000000D01*
G75*
G02*
X56575000Y-81075000I-75000J0D01*
G01*
X56425000Y-81075000D01*
G75*
G02*
X56350000Y-81000000I0J75000D01*
G01*
X56350000Y-79675000D01*
G75*
G02*
X56425000Y-79600000I75000J0D01*
G01*
G37*
G36*
G01*
X56925000Y-79600000D02*
X57075000Y-79600000D01*
G75*
G02*
X57150000Y-79675000I0J-75000D01*
G01*
X57150000Y-81000000D01*
G75*
G02*
X57075000Y-81075000I-75000J0D01*
G01*
X56925000Y-81075000D01*
G75*
G02*
X56850000Y-81000000I0J75000D01*
G01*
X56850000Y-79675000D01*
G75*
G02*
X56925000Y-79600000I75000J0D01*
G01*
G37*
G36*
G01*
X57425000Y-79600000D02*
X57575000Y-79600000D01*
G75*
G02*
X57650000Y-79675000I0J-75000D01*
G01*
X57650000Y-81000000D01*
G75*
G02*
X57575000Y-81075000I-75000J0D01*
G01*
X57425000Y-81075000D01*
G75*
G02*
X57350000Y-81000000I0J75000D01*
G01*
X57350000Y-79675000D01*
G75*
G02*
X57425000Y-79600000I75000J0D01*
G01*
G37*
G36*
G01*
X57925000Y-79600000D02*
X58075000Y-79600000D01*
G75*
G02*
X58150000Y-79675000I0J-75000D01*
G01*
X58150000Y-81000000D01*
G75*
G02*
X58075000Y-81075000I-75000J0D01*
G01*
X57925000Y-81075000D01*
G75*
G02*
X57850000Y-81000000I0J75000D01*
G01*
X57850000Y-79675000D01*
G75*
G02*
X57925000Y-79600000I75000J0D01*
G01*
G37*
G36*
G01*
X58425000Y-79600000D02*
X58575000Y-79600000D01*
G75*
G02*
X58650000Y-79675000I0J-75000D01*
G01*
X58650000Y-81000000D01*
G75*
G02*
X58575000Y-81075000I-75000J0D01*
G01*
X58425000Y-81075000D01*
G75*
G02*
X58350000Y-81000000I0J75000D01*
G01*
X58350000Y-79675000D01*
G75*
G02*
X58425000Y-79600000I75000J0D01*
G01*
G37*
G36*
G01*
X58925000Y-79600000D02*
X59075000Y-79600000D01*
G75*
G02*
X59150000Y-79675000I0J-75000D01*
G01*
X59150000Y-81000000D01*
G75*
G02*
X59075000Y-81075000I-75000J0D01*
G01*
X58925000Y-81075000D01*
G75*
G02*
X58850000Y-81000000I0J75000D01*
G01*
X58850000Y-79675000D01*
G75*
G02*
X58925000Y-79600000I75000J0D01*
G01*
G37*
G36*
G01*
X59425000Y-79600000D02*
X59575000Y-79600000D01*
G75*
G02*
X59650000Y-79675000I0J-75000D01*
G01*
X59650000Y-81000000D01*
G75*
G02*
X59575000Y-81075000I-75000J0D01*
G01*
X59425000Y-81075000D01*
G75*
G02*
X59350000Y-81000000I0J75000D01*
G01*
X59350000Y-79675000D01*
G75*
G02*
X59425000Y-79600000I75000J0D01*
G01*
G37*
G36*
G01*
X59925000Y-79600000D02*
X60075000Y-79600000D01*
G75*
G02*
X60150000Y-79675000I0J-75000D01*
G01*
X60150000Y-81000000D01*
G75*
G02*
X60075000Y-81075000I-75000J0D01*
G01*
X59925000Y-81075000D01*
G75*
G02*
X59850000Y-81000000I0J75000D01*
G01*
X59850000Y-79675000D01*
G75*
G02*
X59925000Y-79600000I75000J0D01*
G01*
G37*
G36*
G01*
X60425000Y-79600000D02*
X60575000Y-79600000D01*
G75*
G02*
X60650000Y-79675000I0J-75000D01*
G01*
X60650000Y-81000000D01*
G75*
G02*
X60575000Y-81075000I-75000J0D01*
G01*
X60425000Y-81075000D01*
G75*
G02*
X60350000Y-81000000I0J75000D01*
G01*
X60350000Y-79675000D01*
G75*
G02*
X60425000Y-79600000I75000J0D01*
G01*
G37*
G36*
G01*
X60925000Y-79600000D02*
X61075000Y-79600000D01*
G75*
G02*
X61150000Y-79675000I0J-75000D01*
G01*
X61150000Y-81000000D01*
G75*
G02*
X61075000Y-81075000I-75000J0D01*
G01*
X60925000Y-81075000D01*
G75*
G02*
X60850000Y-81000000I0J75000D01*
G01*
X60850000Y-79675000D01*
G75*
G02*
X60925000Y-79600000I75000J0D01*
G01*
G37*
G36*
G01*
X61425000Y-79600000D02*
X61575000Y-79600000D01*
G75*
G02*
X61650000Y-79675000I0J-75000D01*
G01*
X61650000Y-81000000D01*
G75*
G02*
X61575000Y-81075000I-75000J0D01*
G01*
X61425000Y-81075000D01*
G75*
G02*
X61350000Y-81000000I0J75000D01*
G01*
X61350000Y-79675000D01*
G75*
G02*
X61425000Y-79600000I75000J0D01*
G01*
G37*
G36*
G01*
X61925000Y-79600000D02*
X62075000Y-79600000D01*
G75*
G02*
X62150000Y-79675000I0J-75000D01*
G01*
X62150000Y-81000000D01*
G75*
G02*
X62075000Y-81075000I-75000J0D01*
G01*
X61925000Y-81075000D01*
G75*
G02*
X61850000Y-81000000I0J75000D01*
G01*
X61850000Y-79675000D01*
G75*
G02*
X61925000Y-79600000I75000J0D01*
G01*
G37*
G36*
G01*
X62425000Y-79600000D02*
X62575000Y-79600000D01*
G75*
G02*
X62650000Y-79675000I0J-75000D01*
G01*
X62650000Y-81000000D01*
G75*
G02*
X62575000Y-81075000I-75000J0D01*
G01*
X62425000Y-81075000D01*
G75*
G02*
X62350000Y-81000000I0J75000D01*
G01*
X62350000Y-79675000D01*
G75*
G02*
X62425000Y-79600000I75000J0D01*
G01*
G37*
G36*
G01*
X62925000Y-79600000D02*
X63075000Y-79600000D01*
G75*
G02*
X63150000Y-79675000I0J-75000D01*
G01*
X63150000Y-81000000D01*
G75*
G02*
X63075000Y-81075000I-75000J0D01*
G01*
X62925000Y-81075000D01*
G75*
G02*
X62850000Y-81000000I0J75000D01*
G01*
X62850000Y-79675000D01*
G75*
G02*
X62925000Y-79600000I75000J0D01*
G01*
G37*
G36*
G01*
X63425000Y-79600000D02*
X63575000Y-79600000D01*
G75*
G02*
X63650000Y-79675000I0J-75000D01*
G01*
X63650000Y-81000000D01*
G75*
G02*
X63575000Y-81075000I-75000J0D01*
G01*
X63425000Y-81075000D01*
G75*
G02*
X63350000Y-81000000I0J75000D01*
G01*
X63350000Y-79675000D01*
G75*
G02*
X63425000Y-79600000I75000J0D01*
G01*
G37*
G36*
G01*
X63925000Y-79600000D02*
X64075000Y-79600000D01*
G75*
G02*
X64150000Y-79675000I0J-75000D01*
G01*
X64150000Y-81000000D01*
G75*
G02*
X64075000Y-81075000I-75000J0D01*
G01*
X63925000Y-81075000D01*
G75*
G02*
X63850000Y-81000000I0J75000D01*
G01*
X63850000Y-79675000D01*
G75*
G02*
X63925000Y-79600000I75000J0D01*
G01*
G37*
G36*
G01*
X64425000Y-79600000D02*
X64575000Y-79600000D01*
G75*
G02*
X64650000Y-79675000I0J-75000D01*
G01*
X64650000Y-81000000D01*
G75*
G02*
X64575000Y-81075000I-75000J0D01*
G01*
X64425000Y-81075000D01*
G75*
G02*
X64350000Y-81000000I0J75000D01*
G01*
X64350000Y-79675000D01*
G75*
G02*
X64425000Y-79600000I75000J0D01*
G01*
G37*
G36*
G01*
X64925000Y-79600000D02*
X65075000Y-79600000D01*
G75*
G02*
X65150000Y-79675000I0J-75000D01*
G01*
X65150000Y-81000000D01*
G75*
G02*
X65075000Y-81075000I-75000J0D01*
G01*
X64925000Y-81075000D01*
G75*
G02*
X64850000Y-81000000I0J75000D01*
G01*
X64850000Y-79675000D01*
G75*
G02*
X64925000Y-79600000I75000J0D01*
G01*
G37*
G36*
G01*
X65425000Y-79600000D02*
X65575000Y-79600000D01*
G75*
G02*
X65650000Y-79675000I0J-75000D01*
G01*
X65650000Y-81000000D01*
G75*
G02*
X65575000Y-81075000I-75000J0D01*
G01*
X65425000Y-81075000D01*
G75*
G02*
X65350000Y-81000000I0J75000D01*
G01*
X65350000Y-79675000D01*
G75*
G02*
X65425000Y-79600000I75000J0D01*
G01*
G37*
G36*
G01*
X65925000Y-79600000D02*
X66075000Y-79600000D01*
G75*
G02*
X66150000Y-79675000I0J-75000D01*
G01*
X66150000Y-81000000D01*
G75*
G02*
X66075000Y-81075000I-75000J0D01*
G01*
X65925000Y-81075000D01*
G75*
G02*
X65850000Y-81000000I0J75000D01*
G01*
X65850000Y-79675000D01*
G75*
G02*
X65925000Y-79600000I75000J0D01*
G01*
G37*
G36*
G01*
X66425000Y-79600000D02*
X66575000Y-79600000D01*
G75*
G02*
X66650000Y-79675000I0J-75000D01*
G01*
X66650000Y-81000000D01*
G75*
G02*
X66575000Y-81075000I-75000J0D01*
G01*
X66425000Y-81075000D01*
G75*
G02*
X66350000Y-81000000I0J75000D01*
G01*
X66350000Y-79675000D01*
G75*
G02*
X66425000Y-79600000I75000J0D01*
G01*
G37*
G36*
G01*
X66925000Y-79600000D02*
X67075000Y-79600000D01*
G75*
G02*
X67150000Y-79675000I0J-75000D01*
G01*
X67150000Y-81000000D01*
G75*
G02*
X67075000Y-81075000I-75000J0D01*
G01*
X66925000Y-81075000D01*
G75*
G02*
X66850000Y-81000000I0J75000D01*
G01*
X66850000Y-79675000D01*
G75*
G02*
X66925000Y-79600000I75000J0D01*
G01*
G37*
G36*
G01*
X67425000Y-79600000D02*
X67575000Y-79600000D01*
G75*
G02*
X67650000Y-79675000I0J-75000D01*
G01*
X67650000Y-81000000D01*
G75*
G02*
X67575000Y-81075000I-75000J0D01*
G01*
X67425000Y-81075000D01*
G75*
G02*
X67350000Y-81000000I0J75000D01*
G01*
X67350000Y-79675000D01*
G75*
G02*
X67425000Y-79600000I75000J0D01*
G01*
G37*
G36*
G01*
X67925000Y-79600000D02*
X68075000Y-79600000D01*
G75*
G02*
X68150000Y-79675000I0J-75000D01*
G01*
X68150000Y-81000000D01*
G75*
G02*
X68075000Y-81075000I-75000J0D01*
G01*
X67925000Y-81075000D01*
G75*
G02*
X67850000Y-81000000I0J75000D01*
G01*
X67850000Y-79675000D01*
G75*
G02*
X67925000Y-79600000I75000J0D01*
G01*
G37*
%TD*%
%TO.C,U5*%
G36*
G01*
X68375000Y-122350000D02*
X68375000Y-123900000D01*
G75*
G02*
X68275000Y-124000000I-100000J0D01*
G01*
X68075000Y-124000000D01*
G75*
G02*
X67975000Y-123900000I0J100000D01*
G01*
X67975000Y-122350000D01*
G75*
G02*
X68075000Y-122250000I100000J0D01*
G01*
X68275000Y-122250000D01*
G75*
G02*
X68375000Y-122350000I0J-100000D01*
G01*
G37*
G36*
G01*
X67725000Y-122350000D02*
X67725000Y-123900000D01*
G75*
G02*
X67625000Y-124000000I-100000J0D01*
G01*
X67425000Y-124000000D01*
G75*
G02*
X67325000Y-123900000I0J100000D01*
G01*
X67325000Y-122350000D01*
G75*
G02*
X67425000Y-122250000I100000J0D01*
G01*
X67625000Y-122250000D01*
G75*
G02*
X67725000Y-122350000I0J-100000D01*
G01*
G37*
G36*
G01*
X67075000Y-122350000D02*
X67075000Y-123900000D01*
G75*
G02*
X66975000Y-124000000I-100000J0D01*
G01*
X66775000Y-124000000D01*
G75*
G02*
X66675000Y-123900000I0J100000D01*
G01*
X66675000Y-122350000D01*
G75*
G02*
X66775000Y-122250000I100000J0D01*
G01*
X66975000Y-122250000D01*
G75*
G02*
X67075000Y-122350000I0J-100000D01*
G01*
G37*
G36*
G01*
X66425000Y-122350000D02*
X66425000Y-123900000D01*
G75*
G02*
X66325000Y-124000000I-100000J0D01*
G01*
X66125000Y-124000000D01*
G75*
G02*
X66025000Y-123900000I0J100000D01*
G01*
X66025000Y-122350000D01*
G75*
G02*
X66125000Y-122250000I100000J0D01*
G01*
X66325000Y-122250000D01*
G75*
G02*
X66425000Y-122350000I0J-100000D01*
G01*
G37*
G36*
G01*
X65775000Y-122350000D02*
X65775000Y-123900000D01*
G75*
G02*
X65675000Y-124000000I-100000J0D01*
G01*
X65475000Y-124000000D01*
G75*
G02*
X65375000Y-123900000I0J100000D01*
G01*
X65375000Y-122350000D01*
G75*
G02*
X65475000Y-122250000I100000J0D01*
G01*
X65675000Y-122250000D01*
G75*
G02*
X65775000Y-122350000I0J-100000D01*
G01*
G37*
G36*
G01*
X65125000Y-122350000D02*
X65125000Y-123900000D01*
G75*
G02*
X65025000Y-124000000I-100000J0D01*
G01*
X64825000Y-124000000D01*
G75*
G02*
X64725000Y-123900000I0J100000D01*
G01*
X64725000Y-122350000D01*
G75*
G02*
X64825000Y-122250000I100000J0D01*
G01*
X65025000Y-122250000D01*
G75*
G02*
X65125000Y-122350000I0J-100000D01*
G01*
G37*
G36*
G01*
X64475000Y-122350000D02*
X64475000Y-123900000D01*
G75*
G02*
X64375000Y-124000000I-100000J0D01*
G01*
X64175000Y-124000000D01*
G75*
G02*
X64075000Y-123900000I0J100000D01*
G01*
X64075000Y-122350000D01*
G75*
G02*
X64175000Y-122250000I100000J0D01*
G01*
X64375000Y-122250000D01*
G75*
G02*
X64475000Y-122350000I0J-100000D01*
G01*
G37*
G36*
G01*
X63825000Y-122350000D02*
X63825000Y-123900000D01*
G75*
G02*
X63725000Y-124000000I-100000J0D01*
G01*
X63525000Y-124000000D01*
G75*
G02*
X63425000Y-123900000I0J100000D01*
G01*
X63425000Y-122350000D01*
G75*
G02*
X63525000Y-122250000I100000J0D01*
G01*
X63725000Y-122250000D01*
G75*
G02*
X63825000Y-122350000I0J-100000D01*
G01*
G37*
G36*
G01*
X63175000Y-122350000D02*
X63175000Y-123900000D01*
G75*
G02*
X63075000Y-124000000I-100000J0D01*
G01*
X62875000Y-124000000D01*
G75*
G02*
X62775000Y-123900000I0J100000D01*
G01*
X62775000Y-122350000D01*
G75*
G02*
X62875000Y-122250000I100000J0D01*
G01*
X63075000Y-122250000D01*
G75*
G02*
X63175000Y-122350000I0J-100000D01*
G01*
G37*
G36*
G01*
X62525000Y-122350000D02*
X62525000Y-123900000D01*
G75*
G02*
X62425000Y-124000000I-100000J0D01*
G01*
X62225000Y-124000000D01*
G75*
G02*
X62125000Y-123900000I0J100000D01*
G01*
X62125000Y-122350000D01*
G75*
G02*
X62225000Y-122250000I100000J0D01*
G01*
X62425000Y-122250000D01*
G75*
G02*
X62525000Y-122350000I0J-100000D01*
G01*
G37*
G36*
G01*
X61875000Y-122350000D02*
X61875000Y-123900000D01*
G75*
G02*
X61775000Y-124000000I-100000J0D01*
G01*
X61575000Y-124000000D01*
G75*
G02*
X61475000Y-123900000I0J100000D01*
G01*
X61475000Y-122350000D01*
G75*
G02*
X61575000Y-122250000I100000J0D01*
G01*
X61775000Y-122250000D01*
G75*
G02*
X61875000Y-122350000I0J-100000D01*
G01*
G37*
G36*
G01*
X61225000Y-122350000D02*
X61225000Y-123900000D01*
G75*
G02*
X61125000Y-124000000I-100000J0D01*
G01*
X60925000Y-124000000D01*
G75*
G02*
X60825000Y-123900000I0J100000D01*
G01*
X60825000Y-122350000D01*
G75*
G02*
X60925000Y-122250000I100000J0D01*
G01*
X61125000Y-122250000D01*
G75*
G02*
X61225000Y-122350000I0J-100000D01*
G01*
G37*
G36*
G01*
X60575000Y-122350000D02*
X60575000Y-123900000D01*
G75*
G02*
X60475000Y-124000000I-100000J0D01*
G01*
X60275000Y-124000000D01*
G75*
G02*
X60175000Y-123900000I0J100000D01*
G01*
X60175000Y-122350000D01*
G75*
G02*
X60275000Y-122250000I100000J0D01*
G01*
X60475000Y-122250000D01*
G75*
G02*
X60575000Y-122350000I0J-100000D01*
G01*
G37*
G36*
G01*
X59925000Y-122350000D02*
X59925000Y-123900000D01*
G75*
G02*
X59825000Y-124000000I-100000J0D01*
G01*
X59625000Y-124000000D01*
G75*
G02*
X59525000Y-123900000I0J100000D01*
G01*
X59525000Y-122350000D01*
G75*
G02*
X59625000Y-122250000I100000J0D01*
G01*
X59825000Y-122250000D01*
G75*
G02*
X59925000Y-122350000I0J-100000D01*
G01*
G37*
G36*
G01*
X59275000Y-122350000D02*
X59275000Y-123900000D01*
G75*
G02*
X59175000Y-124000000I-100000J0D01*
G01*
X58975000Y-124000000D01*
G75*
G02*
X58875000Y-123900000I0J100000D01*
G01*
X58875000Y-122350000D01*
G75*
G02*
X58975000Y-122250000I100000J0D01*
G01*
X59175000Y-122250000D01*
G75*
G02*
X59275000Y-122350000I0J-100000D01*
G01*
G37*
G36*
G01*
X58625000Y-122350000D02*
X58625000Y-123900000D01*
G75*
G02*
X58525000Y-124000000I-100000J0D01*
G01*
X58325000Y-124000000D01*
G75*
G02*
X58225000Y-123900000I0J100000D01*
G01*
X58225000Y-122350000D01*
G75*
G02*
X58325000Y-122250000I100000J0D01*
G01*
X58525000Y-122250000D01*
G75*
G02*
X58625000Y-122350000I0J-100000D01*
G01*
G37*
G36*
G01*
X57975000Y-122350000D02*
X57975000Y-123900000D01*
G75*
G02*
X57875000Y-124000000I-100000J0D01*
G01*
X57675000Y-124000000D01*
G75*
G02*
X57575000Y-123900000I0J100000D01*
G01*
X57575000Y-122350000D01*
G75*
G02*
X57675000Y-122250000I100000J0D01*
G01*
X57875000Y-122250000D01*
G75*
G02*
X57975000Y-122350000I0J-100000D01*
G01*
G37*
G36*
G01*
X57325000Y-122350000D02*
X57325000Y-123900000D01*
G75*
G02*
X57225000Y-124000000I-100000J0D01*
G01*
X57025000Y-124000000D01*
G75*
G02*
X56925000Y-123900000I0J100000D01*
G01*
X56925000Y-122350000D01*
G75*
G02*
X57025000Y-122250000I100000J0D01*
G01*
X57225000Y-122250000D01*
G75*
G02*
X57325000Y-122350000I0J-100000D01*
G01*
G37*
G36*
G01*
X56675000Y-122350000D02*
X56675000Y-123900000D01*
G75*
G02*
X56575000Y-124000000I-100000J0D01*
G01*
X56375000Y-124000000D01*
G75*
G02*
X56275000Y-123900000I0J100000D01*
G01*
X56275000Y-122350000D01*
G75*
G02*
X56375000Y-122250000I100000J0D01*
G01*
X56575000Y-122250000D01*
G75*
G02*
X56675000Y-122350000I0J-100000D01*
G01*
G37*
G36*
G01*
X56025000Y-122350000D02*
X56025000Y-123900000D01*
G75*
G02*
X55925000Y-124000000I-100000J0D01*
G01*
X55725000Y-124000000D01*
G75*
G02*
X55625000Y-123900000I0J100000D01*
G01*
X55625000Y-122350000D01*
G75*
G02*
X55725000Y-122250000I100000J0D01*
G01*
X55925000Y-122250000D01*
G75*
G02*
X56025000Y-122350000I0J-100000D01*
G01*
G37*
G36*
G01*
X54750000Y-121325000D02*
X54750000Y-121525000D01*
G75*
G02*
X54650000Y-121625000I-100000J0D01*
G01*
X53100000Y-121625000D01*
G75*
G02*
X53000000Y-121525000I0J100000D01*
G01*
X53000000Y-121325000D01*
G75*
G02*
X53100000Y-121225000I100000J0D01*
G01*
X54650000Y-121225000D01*
G75*
G02*
X54750000Y-121325000I0J-100000D01*
G01*
G37*
G36*
G01*
X54750000Y-120675000D02*
X54750000Y-120875000D01*
G75*
G02*
X54650000Y-120975000I-100000J0D01*
G01*
X53100000Y-120975000D01*
G75*
G02*
X53000000Y-120875000I0J100000D01*
G01*
X53000000Y-120675000D01*
G75*
G02*
X53100000Y-120575000I100000J0D01*
G01*
X54650000Y-120575000D01*
G75*
G02*
X54750000Y-120675000I0J-100000D01*
G01*
G37*
G36*
G01*
X54750000Y-120025000D02*
X54750000Y-120225000D01*
G75*
G02*
X54650000Y-120325000I-100000J0D01*
G01*
X53100000Y-120325000D01*
G75*
G02*
X53000000Y-120225000I0J100000D01*
G01*
X53000000Y-120025000D01*
G75*
G02*
X53100000Y-119925000I100000J0D01*
G01*
X54650000Y-119925000D01*
G75*
G02*
X54750000Y-120025000I0J-100000D01*
G01*
G37*
G36*
G01*
X54750000Y-119375000D02*
X54750000Y-119575000D01*
G75*
G02*
X54650000Y-119675000I-100000J0D01*
G01*
X53100000Y-119675000D01*
G75*
G02*
X53000000Y-119575000I0J100000D01*
G01*
X53000000Y-119375000D01*
G75*
G02*
X53100000Y-119275000I100000J0D01*
G01*
X54650000Y-119275000D01*
G75*
G02*
X54750000Y-119375000I0J-100000D01*
G01*
G37*
G36*
G01*
X54750000Y-118725000D02*
X54750000Y-118925000D01*
G75*
G02*
X54650000Y-119025000I-100000J0D01*
G01*
X53100000Y-119025000D01*
G75*
G02*
X53000000Y-118925000I0J100000D01*
G01*
X53000000Y-118725000D01*
G75*
G02*
X53100000Y-118625000I100000J0D01*
G01*
X54650000Y-118625000D01*
G75*
G02*
X54750000Y-118725000I0J-100000D01*
G01*
G37*
G36*
G01*
X54750000Y-118075000D02*
X54750000Y-118275000D01*
G75*
G02*
X54650000Y-118375000I-100000J0D01*
G01*
X53100000Y-118375000D01*
G75*
G02*
X53000000Y-118275000I0J100000D01*
G01*
X53000000Y-118075000D01*
G75*
G02*
X53100000Y-117975000I100000J0D01*
G01*
X54650000Y-117975000D01*
G75*
G02*
X54750000Y-118075000I0J-100000D01*
G01*
G37*
G36*
G01*
X54750000Y-117425000D02*
X54750000Y-117625000D01*
G75*
G02*
X54650000Y-117725000I-100000J0D01*
G01*
X53100000Y-117725000D01*
G75*
G02*
X53000000Y-117625000I0J100000D01*
G01*
X53000000Y-117425000D01*
G75*
G02*
X53100000Y-117325000I100000J0D01*
G01*
X54650000Y-117325000D01*
G75*
G02*
X54750000Y-117425000I0J-100000D01*
G01*
G37*
G36*
G01*
X54750000Y-116775000D02*
X54750000Y-116975000D01*
G75*
G02*
X54650000Y-117075000I-100000J0D01*
G01*
X53100000Y-117075000D01*
G75*
G02*
X53000000Y-116975000I0J100000D01*
G01*
X53000000Y-116775000D01*
G75*
G02*
X53100000Y-116675000I100000J0D01*
G01*
X54650000Y-116675000D01*
G75*
G02*
X54750000Y-116775000I0J-100000D01*
G01*
G37*
G36*
G01*
X54750000Y-116125000D02*
X54750000Y-116325000D01*
G75*
G02*
X54650000Y-116425000I-100000J0D01*
G01*
X53100000Y-116425000D01*
G75*
G02*
X53000000Y-116325000I0J100000D01*
G01*
X53000000Y-116125000D01*
G75*
G02*
X53100000Y-116025000I100000J0D01*
G01*
X54650000Y-116025000D01*
G75*
G02*
X54750000Y-116125000I0J-100000D01*
G01*
G37*
G36*
G01*
X54750000Y-115475000D02*
X54750000Y-115675000D01*
G75*
G02*
X54650000Y-115775000I-100000J0D01*
G01*
X53100000Y-115775000D01*
G75*
G02*
X53000000Y-115675000I0J100000D01*
G01*
X53000000Y-115475000D01*
G75*
G02*
X53100000Y-115375000I100000J0D01*
G01*
X54650000Y-115375000D01*
G75*
G02*
X54750000Y-115475000I0J-100000D01*
G01*
G37*
G36*
G01*
X54750000Y-114825000D02*
X54750000Y-115025000D01*
G75*
G02*
X54650000Y-115125000I-100000J0D01*
G01*
X53100000Y-115125000D01*
G75*
G02*
X53000000Y-115025000I0J100000D01*
G01*
X53000000Y-114825000D01*
G75*
G02*
X53100000Y-114725000I100000J0D01*
G01*
X54650000Y-114725000D01*
G75*
G02*
X54750000Y-114825000I0J-100000D01*
G01*
G37*
G36*
G01*
X54750000Y-114175000D02*
X54750000Y-114375000D01*
G75*
G02*
X54650000Y-114475000I-100000J0D01*
G01*
X53100000Y-114475000D01*
G75*
G02*
X53000000Y-114375000I0J100000D01*
G01*
X53000000Y-114175000D01*
G75*
G02*
X53100000Y-114075000I100000J0D01*
G01*
X54650000Y-114075000D01*
G75*
G02*
X54750000Y-114175000I0J-100000D01*
G01*
G37*
G36*
G01*
X54750000Y-113525000D02*
X54750000Y-113725000D01*
G75*
G02*
X54650000Y-113825000I-100000J0D01*
G01*
X53100000Y-113825000D01*
G75*
G02*
X53000000Y-113725000I0J100000D01*
G01*
X53000000Y-113525000D01*
G75*
G02*
X53100000Y-113425000I100000J0D01*
G01*
X54650000Y-113425000D01*
G75*
G02*
X54750000Y-113525000I0J-100000D01*
G01*
G37*
G36*
G01*
X54750000Y-112875000D02*
X54750000Y-113075000D01*
G75*
G02*
X54650000Y-113175000I-100000J0D01*
G01*
X53100000Y-113175000D01*
G75*
G02*
X53000000Y-113075000I0J100000D01*
G01*
X53000000Y-112875000D01*
G75*
G02*
X53100000Y-112775000I100000J0D01*
G01*
X54650000Y-112775000D01*
G75*
G02*
X54750000Y-112875000I0J-100000D01*
G01*
G37*
G36*
G01*
X54750000Y-112225000D02*
X54750000Y-112425000D01*
G75*
G02*
X54650000Y-112525000I-100000J0D01*
G01*
X53100000Y-112525000D01*
G75*
G02*
X53000000Y-112425000I0J100000D01*
G01*
X53000000Y-112225000D01*
G75*
G02*
X53100000Y-112125000I100000J0D01*
G01*
X54650000Y-112125000D01*
G75*
G02*
X54750000Y-112225000I0J-100000D01*
G01*
G37*
G36*
G01*
X54750000Y-111575000D02*
X54750000Y-111775000D01*
G75*
G02*
X54650000Y-111875000I-100000J0D01*
G01*
X53100000Y-111875000D01*
G75*
G02*
X53000000Y-111775000I0J100000D01*
G01*
X53000000Y-111575000D01*
G75*
G02*
X53100000Y-111475000I100000J0D01*
G01*
X54650000Y-111475000D01*
G75*
G02*
X54750000Y-111575000I0J-100000D01*
G01*
G37*
G36*
G01*
X54750000Y-110925000D02*
X54750000Y-111125000D01*
G75*
G02*
X54650000Y-111225000I-100000J0D01*
G01*
X53100000Y-111225000D01*
G75*
G02*
X53000000Y-111125000I0J100000D01*
G01*
X53000000Y-110925000D01*
G75*
G02*
X53100000Y-110825000I100000J0D01*
G01*
X54650000Y-110825000D01*
G75*
G02*
X54750000Y-110925000I0J-100000D01*
G01*
G37*
G36*
G01*
X54750000Y-110275000D02*
X54750000Y-110475000D01*
G75*
G02*
X54650000Y-110575000I-100000J0D01*
G01*
X53100000Y-110575000D01*
G75*
G02*
X53000000Y-110475000I0J100000D01*
G01*
X53000000Y-110275000D01*
G75*
G02*
X53100000Y-110175000I100000J0D01*
G01*
X54650000Y-110175000D01*
G75*
G02*
X54750000Y-110275000I0J-100000D01*
G01*
G37*
G36*
G01*
X54750000Y-109625000D02*
X54750000Y-109825000D01*
G75*
G02*
X54650000Y-109925000I-100000J0D01*
G01*
X53100000Y-109925000D01*
G75*
G02*
X53000000Y-109825000I0J100000D01*
G01*
X53000000Y-109625000D01*
G75*
G02*
X53100000Y-109525000I100000J0D01*
G01*
X54650000Y-109525000D01*
G75*
G02*
X54750000Y-109625000I0J-100000D01*
G01*
G37*
G36*
G01*
X54750000Y-108975000D02*
X54750000Y-109175000D01*
G75*
G02*
X54650000Y-109275000I-100000J0D01*
G01*
X53100000Y-109275000D01*
G75*
G02*
X53000000Y-109175000I0J100000D01*
G01*
X53000000Y-108975000D01*
G75*
G02*
X53100000Y-108875000I100000J0D01*
G01*
X54650000Y-108875000D01*
G75*
G02*
X54750000Y-108975000I0J-100000D01*
G01*
G37*
G36*
G01*
X54750000Y-108325000D02*
X54750000Y-108525000D01*
G75*
G02*
X54650000Y-108625000I-100000J0D01*
G01*
X53100000Y-108625000D01*
G75*
G02*
X53000000Y-108525000I0J100000D01*
G01*
X53000000Y-108325000D01*
G75*
G02*
X53100000Y-108225000I100000J0D01*
G01*
X54650000Y-108225000D01*
G75*
G02*
X54750000Y-108325000I0J-100000D01*
G01*
G37*
G36*
G01*
X54750000Y-107675000D02*
X54750000Y-107875000D01*
G75*
G02*
X54650000Y-107975000I-100000J0D01*
G01*
X53100000Y-107975000D01*
G75*
G02*
X53000000Y-107875000I0J100000D01*
G01*
X53000000Y-107675000D01*
G75*
G02*
X53100000Y-107575000I100000J0D01*
G01*
X54650000Y-107575000D01*
G75*
G02*
X54750000Y-107675000I0J-100000D01*
G01*
G37*
G36*
G01*
X54750000Y-107025000D02*
X54750000Y-107225000D01*
G75*
G02*
X54650000Y-107325000I-100000J0D01*
G01*
X53100000Y-107325000D01*
G75*
G02*
X53000000Y-107225000I0J100000D01*
G01*
X53000000Y-107025000D01*
G75*
G02*
X53100000Y-106925000I100000J0D01*
G01*
X54650000Y-106925000D01*
G75*
G02*
X54750000Y-107025000I0J-100000D01*
G01*
G37*
G36*
G01*
X54750000Y-106375000D02*
X54750000Y-106575000D01*
G75*
G02*
X54650000Y-106675000I-100000J0D01*
G01*
X53100000Y-106675000D01*
G75*
G02*
X53000000Y-106575000I0J100000D01*
G01*
X53000000Y-106375000D01*
G75*
G02*
X53100000Y-106275000I100000J0D01*
G01*
X54650000Y-106275000D01*
G75*
G02*
X54750000Y-106375000I0J-100000D01*
G01*
G37*
G36*
G01*
X54750000Y-105725000D02*
X54750000Y-105925000D01*
G75*
G02*
X54650000Y-106025000I-100000J0D01*
G01*
X53100000Y-106025000D01*
G75*
G02*
X53000000Y-105925000I0J100000D01*
G01*
X53000000Y-105725000D01*
G75*
G02*
X53100000Y-105625000I100000J0D01*
G01*
X54650000Y-105625000D01*
G75*
G02*
X54750000Y-105725000I0J-100000D01*
G01*
G37*
G36*
G01*
X54750000Y-105075000D02*
X54750000Y-105275000D01*
G75*
G02*
X54650000Y-105375000I-100000J0D01*
G01*
X53100000Y-105375000D01*
G75*
G02*
X53000000Y-105275000I0J100000D01*
G01*
X53000000Y-105075000D01*
G75*
G02*
X53100000Y-104975000I100000J0D01*
G01*
X54650000Y-104975000D01*
G75*
G02*
X54750000Y-105075000I0J-100000D01*
G01*
G37*
G36*
G01*
X54750000Y-104425000D02*
X54750000Y-104625000D01*
G75*
G02*
X54650000Y-104725000I-100000J0D01*
G01*
X53100000Y-104725000D01*
G75*
G02*
X53000000Y-104625000I0J100000D01*
G01*
X53000000Y-104425000D01*
G75*
G02*
X53100000Y-104325000I100000J0D01*
G01*
X54650000Y-104325000D01*
G75*
G02*
X54750000Y-104425000I0J-100000D01*
G01*
G37*
G36*
G01*
X54750000Y-103775000D02*
X54750000Y-103975000D01*
G75*
G02*
X54650000Y-104075000I-100000J0D01*
G01*
X53100000Y-104075000D01*
G75*
G02*
X53000000Y-103975000I0J100000D01*
G01*
X53000000Y-103775000D01*
G75*
G02*
X53100000Y-103675000I100000J0D01*
G01*
X54650000Y-103675000D01*
G75*
G02*
X54750000Y-103775000I0J-100000D01*
G01*
G37*
G36*
G01*
X54750000Y-103125000D02*
X54750000Y-103325000D01*
G75*
G02*
X54650000Y-103425000I-100000J0D01*
G01*
X53100000Y-103425000D01*
G75*
G02*
X53000000Y-103325000I0J100000D01*
G01*
X53000000Y-103125000D01*
G75*
G02*
X53100000Y-103025000I100000J0D01*
G01*
X54650000Y-103025000D01*
G75*
G02*
X54750000Y-103125000I0J-100000D01*
G01*
G37*
G36*
G01*
X54750000Y-102475000D02*
X54750000Y-102675000D01*
G75*
G02*
X54650000Y-102775000I-100000J0D01*
G01*
X53100000Y-102775000D01*
G75*
G02*
X53000000Y-102675000I0J100000D01*
G01*
X53000000Y-102475000D01*
G75*
G02*
X53100000Y-102375000I100000J0D01*
G01*
X54650000Y-102375000D01*
G75*
G02*
X54750000Y-102475000I0J-100000D01*
G01*
G37*
G36*
G01*
X56025000Y-100100000D02*
X56025000Y-101650000D01*
G75*
G02*
X55925000Y-101750000I-100000J0D01*
G01*
X55725000Y-101750000D01*
G75*
G02*
X55625000Y-101650000I0J100000D01*
G01*
X55625000Y-100100000D01*
G75*
G02*
X55725000Y-100000000I100000J0D01*
G01*
X55925000Y-100000000D01*
G75*
G02*
X56025000Y-100100000I0J-100000D01*
G01*
G37*
G36*
G01*
X56675000Y-100100000D02*
X56675000Y-101650000D01*
G75*
G02*
X56575000Y-101750000I-100000J0D01*
G01*
X56375000Y-101750000D01*
G75*
G02*
X56275000Y-101650000I0J100000D01*
G01*
X56275000Y-100100000D01*
G75*
G02*
X56375000Y-100000000I100000J0D01*
G01*
X56575000Y-100000000D01*
G75*
G02*
X56675000Y-100100000I0J-100000D01*
G01*
G37*
G36*
G01*
X57325000Y-100100000D02*
X57325000Y-101650000D01*
G75*
G02*
X57225000Y-101750000I-100000J0D01*
G01*
X57025000Y-101750000D01*
G75*
G02*
X56925000Y-101650000I0J100000D01*
G01*
X56925000Y-100100000D01*
G75*
G02*
X57025000Y-100000000I100000J0D01*
G01*
X57225000Y-100000000D01*
G75*
G02*
X57325000Y-100100000I0J-100000D01*
G01*
G37*
G36*
G01*
X57975000Y-100100000D02*
X57975000Y-101650000D01*
G75*
G02*
X57875000Y-101750000I-100000J0D01*
G01*
X57675000Y-101750000D01*
G75*
G02*
X57575000Y-101650000I0J100000D01*
G01*
X57575000Y-100100000D01*
G75*
G02*
X57675000Y-100000000I100000J0D01*
G01*
X57875000Y-100000000D01*
G75*
G02*
X57975000Y-100100000I0J-100000D01*
G01*
G37*
G36*
G01*
X58625000Y-100100000D02*
X58625000Y-101650000D01*
G75*
G02*
X58525000Y-101750000I-100000J0D01*
G01*
X58325000Y-101750000D01*
G75*
G02*
X58225000Y-101650000I0J100000D01*
G01*
X58225000Y-100100000D01*
G75*
G02*
X58325000Y-100000000I100000J0D01*
G01*
X58525000Y-100000000D01*
G75*
G02*
X58625000Y-100100000I0J-100000D01*
G01*
G37*
G36*
G01*
X59275000Y-100100000D02*
X59275000Y-101650000D01*
G75*
G02*
X59175000Y-101750000I-100000J0D01*
G01*
X58975000Y-101750000D01*
G75*
G02*
X58875000Y-101650000I0J100000D01*
G01*
X58875000Y-100100000D01*
G75*
G02*
X58975000Y-100000000I100000J0D01*
G01*
X59175000Y-100000000D01*
G75*
G02*
X59275000Y-100100000I0J-100000D01*
G01*
G37*
G36*
G01*
X59925000Y-100100000D02*
X59925000Y-101650000D01*
G75*
G02*
X59825000Y-101750000I-100000J0D01*
G01*
X59625000Y-101750000D01*
G75*
G02*
X59525000Y-101650000I0J100000D01*
G01*
X59525000Y-100100000D01*
G75*
G02*
X59625000Y-100000000I100000J0D01*
G01*
X59825000Y-100000000D01*
G75*
G02*
X59925000Y-100100000I0J-100000D01*
G01*
G37*
G36*
G01*
X60575000Y-100100000D02*
X60575000Y-101650000D01*
G75*
G02*
X60475000Y-101750000I-100000J0D01*
G01*
X60275000Y-101750000D01*
G75*
G02*
X60175000Y-101650000I0J100000D01*
G01*
X60175000Y-100100000D01*
G75*
G02*
X60275000Y-100000000I100000J0D01*
G01*
X60475000Y-100000000D01*
G75*
G02*
X60575000Y-100100000I0J-100000D01*
G01*
G37*
G36*
G01*
X61225000Y-100100000D02*
X61225000Y-101650000D01*
G75*
G02*
X61125000Y-101750000I-100000J0D01*
G01*
X60925000Y-101750000D01*
G75*
G02*
X60825000Y-101650000I0J100000D01*
G01*
X60825000Y-100100000D01*
G75*
G02*
X60925000Y-100000000I100000J0D01*
G01*
X61125000Y-100000000D01*
G75*
G02*
X61225000Y-100100000I0J-100000D01*
G01*
G37*
G36*
G01*
X61875000Y-100100000D02*
X61875000Y-101650000D01*
G75*
G02*
X61775000Y-101750000I-100000J0D01*
G01*
X61575000Y-101750000D01*
G75*
G02*
X61475000Y-101650000I0J100000D01*
G01*
X61475000Y-100100000D01*
G75*
G02*
X61575000Y-100000000I100000J0D01*
G01*
X61775000Y-100000000D01*
G75*
G02*
X61875000Y-100100000I0J-100000D01*
G01*
G37*
G36*
G01*
X62525000Y-100100000D02*
X62525000Y-101650000D01*
G75*
G02*
X62425000Y-101750000I-100000J0D01*
G01*
X62225000Y-101750000D01*
G75*
G02*
X62125000Y-101650000I0J100000D01*
G01*
X62125000Y-100100000D01*
G75*
G02*
X62225000Y-100000000I100000J0D01*
G01*
X62425000Y-100000000D01*
G75*
G02*
X62525000Y-100100000I0J-100000D01*
G01*
G37*
G36*
G01*
X63175000Y-100100000D02*
X63175000Y-101650000D01*
G75*
G02*
X63075000Y-101750000I-100000J0D01*
G01*
X62875000Y-101750000D01*
G75*
G02*
X62775000Y-101650000I0J100000D01*
G01*
X62775000Y-100100000D01*
G75*
G02*
X62875000Y-100000000I100000J0D01*
G01*
X63075000Y-100000000D01*
G75*
G02*
X63175000Y-100100000I0J-100000D01*
G01*
G37*
G36*
G01*
X63825000Y-100100000D02*
X63825000Y-101650000D01*
G75*
G02*
X63725000Y-101750000I-100000J0D01*
G01*
X63525000Y-101750000D01*
G75*
G02*
X63425000Y-101650000I0J100000D01*
G01*
X63425000Y-100100000D01*
G75*
G02*
X63525000Y-100000000I100000J0D01*
G01*
X63725000Y-100000000D01*
G75*
G02*
X63825000Y-100100000I0J-100000D01*
G01*
G37*
G36*
G01*
X64475000Y-100100000D02*
X64475000Y-101650000D01*
G75*
G02*
X64375000Y-101750000I-100000J0D01*
G01*
X64175000Y-101750000D01*
G75*
G02*
X64075000Y-101650000I0J100000D01*
G01*
X64075000Y-100100000D01*
G75*
G02*
X64175000Y-100000000I100000J0D01*
G01*
X64375000Y-100000000D01*
G75*
G02*
X64475000Y-100100000I0J-100000D01*
G01*
G37*
G36*
G01*
X65125000Y-100100000D02*
X65125000Y-101650000D01*
G75*
G02*
X65025000Y-101750000I-100000J0D01*
G01*
X64825000Y-101750000D01*
G75*
G02*
X64725000Y-101650000I0J100000D01*
G01*
X64725000Y-100100000D01*
G75*
G02*
X64825000Y-100000000I100000J0D01*
G01*
X65025000Y-100000000D01*
G75*
G02*
X65125000Y-100100000I0J-100000D01*
G01*
G37*
G36*
G01*
X65775000Y-100100000D02*
X65775000Y-101650000D01*
G75*
G02*
X65675000Y-101750000I-100000J0D01*
G01*
X65475000Y-101750000D01*
G75*
G02*
X65375000Y-101650000I0J100000D01*
G01*
X65375000Y-100100000D01*
G75*
G02*
X65475000Y-100000000I100000J0D01*
G01*
X65675000Y-100000000D01*
G75*
G02*
X65775000Y-100100000I0J-100000D01*
G01*
G37*
G36*
G01*
X66425000Y-100100000D02*
X66425000Y-101650000D01*
G75*
G02*
X66325000Y-101750000I-100000J0D01*
G01*
X66125000Y-101750000D01*
G75*
G02*
X66025000Y-101650000I0J100000D01*
G01*
X66025000Y-100100000D01*
G75*
G02*
X66125000Y-100000000I100000J0D01*
G01*
X66325000Y-100000000D01*
G75*
G02*
X66425000Y-100100000I0J-100000D01*
G01*
G37*
G36*
G01*
X67075000Y-100100000D02*
X67075000Y-101650000D01*
G75*
G02*
X66975000Y-101750000I-100000J0D01*
G01*
X66775000Y-101750000D01*
G75*
G02*
X66675000Y-101650000I0J100000D01*
G01*
X66675000Y-100100000D01*
G75*
G02*
X66775000Y-100000000I100000J0D01*
G01*
X66975000Y-100000000D01*
G75*
G02*
X67075000Y-100100000I0J-100000D01*
G01*
G37*
G36*
G01*
X67725000Y-100100000D02*
X67725000Y-101650000D01*
G75*
G02*
X67625000Y-101750000I-100000J0D01*
G01*
X67425000Y-101750000D01*
G75*
G02*
X67325000Y-101650000I0J100000D01*
G01*
X67325000Y-100100000D01*
G75*
G02*
X67425000Y-100000000I100000J0D01*
G01*
X67625000Y-100000000D01*
G75*
G02*
X67725000Y-100100000I0J-100000D01*
G01*
G37*
G36*
G01*
X68375000Y-100100000D02*
X68375000Y-101650000D01*
G75*
G02*
X68275000Y-101750000I-100000J0D01*
G01*
X68075000Y-101750000D01*
G75*
G02*
X67975000Y-101650000I0J100000D01*
G01*
X67975000Y-100100000D01*
G75*
G02*
X68075000Y-100000000I100000J0D01*
G01*
X68275000Y-100000000D01*
G75*
G02*
X68375000Y-100100000I0J-100000D01*
G01*
G37*
G36*
G01*
X71000000Y-102475000D02*
X71000000Y-102675000D01*
G75*
G02*
X70900000Y-102775000I-100000J0D01*
G01*
X69350000Y-102775000D01*
G75*
G02*
X69250000Y-102675000I0J100000D01*
G01*
X69250000Y-102475000D01*
G75*
G02*
X69350000Y-102375000I100000J0D01*
G01*
X70900000Y-102375000D01*
G75*
G02*
X71000000Y-102475000I0J-100000D01*
G01*
G37*
G36*
G01*
X71000000Y-103125000D02*
X71000000Y-103325000D01*
G75*
G02*
X70900000Y-103425000I-100000J0D01*
G01*
X69350000Y-103425000D01*
G75*
G02*
X69250000Y-103325000I0J100000D01*
G01*
X69250000Y-103125000D01*
G75*
G02*
X69350000Y-103025000I100000J0D01*
G01*
X70900000Y-103025000D01*
G75*
G02*
X71000000Y-103125000I0J-100000D01*
G01*
G37*
G36*
G01*
X71000000Y-103775000D02*
X71000000Y-103975000D01*
G75*
G02*
X70900000Y-104075000I-100000J0D01*
G01*
X69350000Y-104075000D01*
G75*
G02*
X69250000Y-103975000I0J100000D01*
G01*
X69250000Y-103775000D01*
G75*
G02*
X69350000Y-103675000I100000J0D01*
G01*
X70900000Y-103675000D01*
G75*
G02*
X71000000Y-103775000I0J-100000D01*
G01*
G37*
G36*
G01*
X71000000Y-104425000D02*
X71000000Y-104625000D01*
G75*
G02*
X70900000Y-104725000I-100000J0D01*
G01*
X69350000Y-104725000D01*
G75*
G02*
X69250000Y-104625000I0J100000D01*
G01*
X69250000Y-104425000D01*
G75*
G02*
X69350000Y-104325000I100000J0D01*
G01*
X70900000Y-104325000D01*
G75*
G02*
X71000000Y-104425000I0J-100000D01*
G01*
G37*
G36*
G01*
X71000000Y-105075000D02*
X71000000Y-105275000D01*
G75*
G02*
X70900000Y-105375000I-100000J0D01*
G01*
X69350000Y-105375000D01*
G75*
G02*
X69250000Y-105275000I0J100000D01*
G01*
X69250000Y-105075000D01*
G75*
G02*
X69350000Y-104975000I100000J0D01*
G01*
X70900000Y-104975000D01*
G75*
G02*
X71000000Y-105075000I0J-100000D01*
G01*
G37*
G36*
G01*
X71000000Y-105725000D02*
X71000000Y-105925000D01*
G75*
G02*
X70900000Y-106025000I-100000J0D01*
G01*
X69350000Y-106025000D01*
G75*
G02*
X69250000Y-105925000I0J100000D01*
G01*
X69250000Y-105725000D01*
G75*
G02*
X69350000Y-105625000I100000J0D01*
G01*
X70900000Y-105625000D01*
G75*
G02*
X71000000Y-105725000I0J-100000D01*
G01*
G37*
G36*
G01*
X71000000Y-106375000D02*
X71000000Y-106575000D01*
G75*
G02*
X70900000Y-106675000I-100000J0D01*
G01*
X69350000Y-106675000D01*
G75*
G02*
X69250000Y-106575000I0J100000D01*
G01*
X69250000Y-106375000D01*
G75*
G02*
X69350000Y-106275000I100000J0D01*
G01*
X70900000Y-106275000D01*
G75*
G02*
X71000000Y-106375000I0J-100000D01*
G01*
G37*
G36*
G01*
X71000000Y-107025000D02*
X71000000Y-107225000D01*
G75*
G02*
X70900000Y-107325000I-100000J0D01*
G01*
X69350000Y-107325000D01*
G75*
G02*
X69250000Y-107225000I0J100000D01*
G01*
X69250000Y-107025000D01*
G75*
G02*
X69350000Y-106925000I100000J0D01*
G01*
X70900000Y-106925000D01*
G75*
G02*
X71000000Y-107025000I0J-100000D01*
G01*
G37*
G36*
G01*
X71000000Y-107675000D02*
X71000000Y-107875000D01*
G75*
G02*
X70900000Y-107975000I-100000J0D01*
G01*
X69350000Y-107975000D01*
G75*
G02*
X69250000Y-107875000I0J100000D01*
G01*
X69250000Y-107675000D01*
G75*
G02*
X69350000Y-107575000I100000J0D01*
G01*
X70900000Y-107575000D01*
G75*
G02*
X71000000Y-107675000I0J-100000D01*
G01*
G37*
G36*
G01*
X71000000Y-108325000D02*
X71000000Y-108525000D01*
G75*
G02*
X70900000Y-108625000I-100000J0D01*
G01*
X69350000Y-108625000D01*
G75*
G02*
X69250000Y-108525000I0J100000D01*
G01*
X69250000Y-108325000D01*
G75*
G02*
X69350000Y-108225000I100000J0D01*
G01*
X70900000Y-108225000D01*
G75*
G02*
X71000000Y-108325000I0J-100000D01*
G01*
G37*
G36*
G01*
X71000000Y-108975000D02*
X71000000Y-109175000D01*
G75*
G02*
X70900000Y-109275000I-100000J0D01*
G01*
X69350000Y-109275000D01*
G75*
G02*
X69250000Y-109175000I0J100000D01*
G01*
X69250000Y-108975000D01*
G75*
G02*
X69350000Y-108875000I100000J0D01*
G01*
X70900000Y-108875000D01*
G75*
G02*
X71000000Y-108975000I0J-100000D01*
G01*
G37*
G36*
G01*
X71000000Y-109625000D02*
X71000000Y-109825000D01*
G75*
G02*
X70900000Y-109925000I-100000J0D01*
G01*
X69350000Y-109925000D01*
G75*
G02*
X69250000Y-109825000I0J100000D01*
G01*
X69250000Y-109625000D01*
G75*
G02*
X69350000Y-109525000I100000J0D01*
G01*
X70900000Y-109525000D01*
G75*
G02*
X71000000Y-109625000I0J-100000D01*
G01*
G37*
G36*
G01*
X71000000Y-110275000D02*
X71000000Y-110475000D01*
G75*
G02*
X70900000Y-110575000I-100000J0D01*
G01*
X69350000Y-110575000D01*
G75*
G02*
X69250000Y-110475000I0J100000D01*
G01*
X69250000Y-110275000D01*
G75*
G02*
X69350000Y-110175000I100000J0D01*
G01*
X70900000Y-110175000D01*
G75*
G02*
X71000000Y-110275000I0J-100000D01*
G01*
G37*
G36*
G01*
X71000000Y-110925000D02*
X71000000Y-111125000D01*
G75*
G02*
X70900000Y-111225000I-100000J0D01*
G01*
X69350000Y-111225000D01*
G75*
G02*
X69250000Y-111125000I0J100000D01*
G01*
X69250000Y-110925000D01*
G75*
G02*
X69350000Y-110825000I100000J0D01*
G01*
X70900000Y-110825000D01*
G75*
G02*
X71000000Y-110925000I0J-100000D01*
G01*
G37*
G36*
G01*
X71000000Y-111575000D02*
X71000000Y-111775000D01*
G75*
G02*
X70900000Y-111875000I-100000J0D01*
G01*
X69350000Y-111875000D01*
G75*
G02*
X69250000Y-111775000I0J100000D01*
G01*
X69250000Y-111575000D01*
G75*
G02*
X69350000Y-111475000I100000J0D01*
G01*
X70900000Y-111475000D01*
G75*
G02*
X71000000Y-111575000I0J-100000D01*
G01*
G37*
G36*
G01*
X71000000Y-112225000D02*
X71000000Y-112425000D01*
G75*
G02*
X70900000Y-112525000I-100000J0D01*
G01*
X69350000Y-112525000D01*
G75*
G02*
X69250000Y-112425000I0J100000D01*
G01*
X69250000Y-112225000D01*
G75*
G02*
X69350000Y-112125000I100000J0D01*
G01*
X70900000Y-112125000D01*
G75*
G02*
X71000000Y-112225000I0J-100000D01*
G01*
G37*
G36*
G01*
X71000000Y-112875000D02*
X71000000Y-113075000D01*
G75*
G02*
X70900000Y-113175000I-100000J0D01*
G01*
X69350000Y-113175000D01*
G75*
G02*
X69250000Y-113075000I0J100000D01*
G01*
X69250000Y-112875000D01*
G75*
G02*
X69350000Y-112775000I100000J0D01*
G01*
X70900000Y-112775000D01*
G75*
G02*
X71000000Y-112875000I0J-100000D01*
G01*
G37*
G36*
G01*
X71000000Y-113525000D02*
X71000000Y-113725000D01*
G75*
G02*
X70900000Y-113825000I-100000J0D01*
G01*
X69350000Y-113825000D01*
G75*
G02*
X69250000Y-113725000I0J100000D01*
G01*
X69250000Y-113525000D01*
G75*
G02*
X69350000Y-113425000I100000J0D01*
G01*
X70900000Y-113425000D01*
G75*
G02*
X71000000Y-113525000I0J-100000D01*
G01*
G37*
G36*
G01*
X71000000Y-114175000D02*
X71000000Y-114375000D01*
G75*
G02*
X70900000Y-114475000I-100000J0D01*
G01*
X69350000Y-114475000D01*
G75*
G02*
X69250000Y-114375000I0J100000D01*
G01*
X69250000Y-114175000D01*
G75*
G02*
X69350000Y-114075000I100000J0D01*
G01*
X70900000Y-114075000D01*
G75*
G02*
X71000000Y-114175000I0J-100000D01*
G01*
G37*
G36*
G01*
X71000000Y-114825000D02*
X71000000Y-115025000D01*
G75*
G02*
X70900000Y-115125000I-100000J0D01*
G01*
X69350000Y-115125000D01*
G75*
G02*
X69250000Y-115025000I0J100000D01*
G01*
X69250000Y-114825000D01*
G75*
G02*
X69350000Y-114725000I100000J0D01*
G01*
X70900000Y-114725000D01*
G75*
G02*
X71000000Y-114825000I0J-100000D01*
G01*
G37*
G36*
G01*
X71000000Y-115475000D02*
X71000000Y-115675000D01*
G75*
G02*
X70900000Y-115775000I-100000J0D01*
G01*
X69350000Y-115775000D01*
G75*
G02*
X69250000Y-115675000I0J100000D01*
G01*
X69250000Y-115475000D01*
G75*
G02*
X69350000Y-115375000I100000J0D01*
G01*
X70900000Y-115375000D01*
G75*
G02*
X71000000Y-115475000I0J-100000D01*
G01*
G37*
G36*
G01*
X71000000Y-116125000D02*
X71000000Y-116325000D01*
G75*
G02*
X70900000Y-116425000I-100000J0D01*
G01*
X69350000Y-116425000D01*
G75*
G02*
X69250000Y-116325000I0J100000D01*
G01*
X69250000Y-116125000D01*
G75*
G02*
X69350000Y-116025000I100000J0D01*
G01*
X70900000Y-116025000D01*
G75*
G02*
X71000000Y-116125000I0J-100000D01*
G01*
G37*
G36*
G01*
X71000000Y-116775000D02*
X71000000Y-116975000D01*
G75*
G02*
X70900000Y-117075000I-100000J0D01*
G01*
X69350000Y-117075000D01*
G75*
G02*
X69250000Y-116975000I0J100000D01*
G01*
X69250000Y-116775000D01*
G75*
G02*
X69350000Y-116675000I100000J0D01*
G01*
X70900000Y-116675000D01*
G75*
G02*
X71000000Y-116775000I0J-100000D01*
G01*
G37*
G36*
G01*
X71000000Y-117425000D02*
X71000000Y-117625000D01*
G75*
G02*
X70900000Y-117725000I-100000J0D01*
G01*
X69350000Y-117725000D01*
G75*
G02*
X69250000Y-117625000I0J100000D01*
G01*
X69250000Y-117425000D01*
G75*
G02*
X69350000Y-117325000I100000J0D01*
G01*
X70900000Y-117325000D01*
G75*
G02*
X71000000Y-117425000I0J-100000D01*
G01*
G37*
G36*
G01*
X71000000Y-118075000D02*
X71000000Y-118275000D01*
G75*
G02*
X70900000Y-118375000I-100000J0D01*
G01*
X69350000Y-118375000D01*
G75*
G02*
X69250000Y-118275000I0J100000D01*
G01*
X69250000Y-118075000D01*
G75*
G02*
X69350000Y-117975000I100000J0D01*
G01*
X70900000Y-117975000D01*
G75*
G02*
X71000000Y-118075000I0J-100000D01*
G01*
G37*
G36*
G01*
X71000000Y-118725000D02*
X71000000Y-118925000D01*
G75*
G02*
X70900000Y-119025000I-100000J0D01*
G01*
X69350000Y-119025000D01*
G75*
G02*
X69250000Y-118925000I0J100000D01*
G01*
X69250000Y-118725000D01*
G75*
G02*
X69350000Y-118625000I100000J0D01*
G01*
X70900000Y-118625000D01*
G75*
G02*
X71000000Y-118725000I0J-100000D01*
G01*
G37*
G36*
G01*
X71000000Y-119375000D02*
X71000000Y-119575000D01*
G75*
G02*
X70900000Y-119675000I-100000J0D01*
G01*
X69350000Y-119675000D01*
G75*
G02*
X69250000Y-119575000I0J100000D01*
G01*
X69250000Y-119375000D01*
G75*
G02*
X69350000Y-119275000I100000J0D01*
G01*
X70900000Y-119275000D01*
G75*
G02*
X71000000Y-119375000I0J-100000D01*
G01*
G37*
G36*
G01*
X71000000Y-120025000D02*
X71000000Y-120225000D01*
G75*
G02*
X70900000Y-120325000I-100000J0D01*
G01*
X69350000Y-120325000D01*
G75*
G02*
X69250000Y-120225000I0J100000D01*
G01*
X69250000Y-120025000D01*
G75*
G02*
X69350000Y-119925000I100000J0D01*
G01*
X70900000Y-119925000D01*
G75*
G02*
X71000000Y-120025000I0J-100000D01*
G01*
G37*
G36*
G01*
X71000000Y-120675000D02*
X71000000Y-120875000D01*
G75*
G02*
X70900000Y-120975000I-100000J0D01*
G01*
X69350000Y-120975000D01*
G75*
G02*
X69250000Y-120875000I0J100000D01*
G01*
X69250000Y-120675000D01*
G75*
G02*
X69350000Y-120575000I100000J0D01*
G01*
X70900000Y-120575000D01*
G75*
G02*
X71000000Y-120675000I0J-100000D01*
G01*
G37*
G36*
G01*
X71000000Y-121325000D02*
X71000000Y-121525000D01*
G75*
G02*
X70900000Y-121625000I-100000J0D01*
G01*
X69350000Y-121625000D01*
G75*
G02*
X69250000Y-121525000I0J100000D01*
G01*
X69250000Y-121325000D01*
G75*
G02*
X69350000Y-121225000I100000J0D01*
G01*
X70900000Y-121225000D01*
G75*
G02*
X71000000Y-121325000I0J-100000D01*
G01*
G37*
%TD*%
D17*
%TO.C,U4*%
X84690000Y-84000000D03*
X87250000Y-82400000D03*
X87250000Y-84000000D03*
D18*
X85970000Y-84210000D03*
X85970000Y-82190000D03*
D17*
X84690000Y-82400000D03*
%TD*%
%TO.C,U3*%
G36*
G01*
X90275000Y-145550000D02*
X90525000Y-145550000D01*
G75*
G02*
X90650000Y-145675000I0J-125000D01*
G01*
X90650000Y-147325000D01*
G75*
G02*
X90525000Y-147450000I-125000J0D01*
G01*
X90275000Y-147450000D01*
G75*
G02*
X90150000Y-147325000I0J125000D01*
G01*
X90150000Y-145675000D01*
G75*
G02*
X90275000Y-145550000I125000J0D01*
G01*
G37*
G36*
G01*
X89625000Y-145550000D02*
X89875000Y-145550000D01*
G75*
G02*
X90000000Y-145675000I0J-125000D01*
G01*
X90000000Y-147325000D01*
G75*
G02*
X89875000Y-147450000I-125000J0D01*
G01*
X89625000Y-147450000D01*
G75*
G02*
X89500000Y-147325000I0J125000D01*
G01*
X89500000Y-145675000D01*
G75*
G02*
X89625000Y-145550000I125000J0D01*
G01*
G37*
G36*
G01*
X88975000Y-145550000D02*
X89225000Y-145550000D01*
G75*
G02*
X89350000Y-145675000I0J-125000D01*
G01*
X89350000Y-147325000D01*
G75*
G02*
X89225000Y-147450000I-125000J0D01*
G01*
X88975000Y-147450000D01*
G75*
G02*
X88850000Y-147325000I0J125000D01*
G01*
X88850000Y-145675000D01*
G75*
G02*
X88975000Y-145550000I125000J0D01*
G01*
G37*
G36*
G01*
X88325000Y-145550000D02*
X88575000Y-145550000D01*
G75*
G02*
X88700000Y-145675000I0J-125000D01*
G01*
X88700000Y-147325000D01*
G75*
G02*
X88575000Y-147450000I-125000J0D01*
G01*
X88325000Y-147450000D01*
G75*
G02*
X88200000Y-147325000I0J125000D01*
G01*
X88200000Y-145675000D01*
G75*
G02*
X88325000Y-145550000I125000J0D01*
G01*
G37*
G36*
G01*
X87675000Y-145550000D02*
X87925000Y-145550000D01*
G75*
G02*
X88050000Y-145675000I0J-125000D01*
G01*
X88050000Y-147325000D01*
G75*
G02*
X87925000Y-147450000I-125000J0D01*
G01*
X87675000Y-147450000D01*
G75*
G02*
X87550000Y-147325000I0J125000D01*
G01*
X87550000Y-145675000D01*
G75*
G02*
X87675000Y-145550000I125000J0D01*
G01*
G37*
G36*
G01*
X87025000Y-145550000D02*
X87275000Y-145550000D01*
G75*
G02*
X87400000Y-145675000I0J-125000D01*
G01*
X87400000Y-147325000D01*
G75*
G02*
X87275000Y-147450000I-125000J0D01*
G01*
X87025000Y-147450000D01*
G75*
G02*
X86900000Y-147325000I0J125000D01*
G01*
X86900000Y-145675000D01*
G75*
G02*
X87025000Y-145550000I125000J0D01*
G01*
G37*
G36*
G01*
X86375000Y-145550000D02*
X86625000Y-145550000D01*
G75*
G02*
X86750000Y-145675000I0J-125000D01*
G01*
X86750000Y-147325000D01*
G75*
G02*
X86625000Y-147450000I-125000J0D01*
G01*
X86375000Y-147450000D01*
G75*
G02*
X86250000Y-147325000I0J125000D01*
G01*
X86250000Y-145675000D01*
G75*
G02*
X86375000Y-145550000I125000J0D01*
G01*
G37*
G36*
G01*
X85725000Y-145550000D02*
X85975000Y-145550000D01*
G75*
G02*
X86100000Y-145675000I0J-125000D01*
G01*
X86100000Y-147325000D01*
G75*
G02*
X85975000Y-147450000I-125000J0D01*
G01*
X85725000Y-147450000D01*
G75*
G02*
X85600000Y-147325000I0J125000D01*
G01*
X85600000Y-145675000D01*
G75*
G02*
X85725000Y-145550000I125000J0D01*
G01*
G37*
G36*
G01*
X85075000Y-145550000D02*
X85325000Y-145550000D01*
G75*
G02*
X85450000Y-145675000I0J-125000D01*
G01*
X85450000Y-147325000D01*
G75*
G02*
X85325000Y-147450000I-125000J0D01*
G01*
X85075000Y-147450000D01*
G75*
G02*
X84950000Y-147325000I0J125000D01*
G01*
X84950000Y-145675000D01*
G75*
G02*
X85075000Y-145550000I125000J0D01*
G01*
G37*
G36*
G01*
X84425000Y-145550000D02*
X84675000Y-145550000D01*
G75*
G02*
X84800000Y-145675000I0J-125000D01*
G01*
X84800000Y-147325000D01*
G75*
G02*
X84675000Y-147450000I-125000J0D01*
G01*
X84425000Y-147450000D01*
G75*
G02*
X84300000Y-147325000I0J125000D01*
G01*
X84300000Y-145675000D01*
G75*
G02*
X84425000Y-145550000I125000J0D01*
G01*
G37*
G36*
G01*
X84425000Y-138550000D02*
X84675000Y-138550000D01*
G75*
G02*
X84800000Y-138675000I0J-125000D01*
G01*
X84800000Y-140325000D01*
G75*
G02*
X84675000Y-140450000I-125000J0D01*
G01*
X84425000Y-140450000D01*
G75*
G02*
X84300000Y-140325000I0J125000D01*
G01*
X84300000Y-138675000D01*
G75*
G02*
X84425000Y-138550000I125000J0D01*
G01*
G37*
G36*
G01*
X85075000Y-138550000D02*
X85325000Y-138550000D01*
G75*
G02*
X85450000Y-138675000I0J-125000D01*
G01*
X85450000Y-140325000D01*
G75*
G02*
X85325000Y-140450000I-125000J0D01*
G01*
X85075000Y-140450000D01*
G75*
G02*
X84950000Y-140325000I0J125000D01*
G01*
X84950000Y-138675000D01*
G75*
G02*
X85075000Y-138550000I125000J0D01*
G01*
G37*
G36*
G01*
X85725000Y-138550000D02*
X85975000Y-138550000D01*
G75*
G02*
X86100000Y-138675000I0J-125000D01*
G01*
X86100000Y-140325000D01*
G75*
G02*
X85975000Y-140450000I-125000J0D01*
G01*
X85725000Y-140450000D01*
G75*
G02*
X85600000Y-140325000I0J125000D01*
G01*
X85600000Y-138675000D01*
G75*
G02*
X85725000Y-138550000I125000J0D01*
G01*
G37*
G36*
G01*
X86375000Y-138550000D02*
X86625000Y-138550000D01*
G75*
G02*
X86750000Y-138675000I0J-125000D01*
G01*
X86750000Y-140325000D01*
G75*
G02*
X86625000Y-140450000I-125000J0D01*
G01*
X86375000Y-140450000D01*
G75*
G02*
X86250000Y-140325000I0J125000D01*
G01*
X86250000Y-138675000D01*
G75*
G02*
X86375000Y-138550000I125000J0D01*
G01*
G37*
G36*
G01*
X87025000Y-138550000D02*
X87275000Y-138550000D01*
G75*
G02*
X87400000Y-138675000I0J-125000D01*
G01*
X87400000Y-140325000D01*
G75*
G02*
X87275000Y-140450000I-125000J0D01*
G01*
X87025000Y-140450000D01*
G75*
G02*
X86900000Y-140325000I0J125000D01*
G01*
X86900000Y-138675000D01*
G75*
G02*
X87025000Y-138550000I125000J0D01*
G01*
G37*
G36*
G01*
X87675000Y-138550000D02*
X87925000Y-138550000D01*
G75*
G02*
X88050000Y-138675000I0J-125000D01*
G01*
X88050000Y-140325000D01*
G75*
G02*
X87925000Y-140450000I-125000J0D01*
G01*
X87675000Y-140450000D01*
G75*
G02*
X87550000Y-140325000I0J125000D01*
G01*
X87550000Y-138675000D01*
G75*
G02*
X87675000Y-138550000I125000J0D01*
G01*
G37*
G36*
G01*
X88325000Y-138550000D02*
X88575000Y-138550000D01*
G75*
G02*
X88700000Y-138675000I0J-125000D01*
G01*
X88700000Y-140325000D01*
G75*
G02*
X88575000Y-140450000I-125000J0D01*
G01*
X88325000Y-140450000D01*
G75*
G02*
X88200000Y-140325000I0J125000D01*
G01*
X88200000Y-138675000D01*
G75*
G02*
X88325000Y-138550000I125000J0D01*
G01*
G37*
G36*
G01*
X88975000Y-138550000D02*
X89225000Y-138550000D01*
G75*
G02*
X89350000Y-138675000I0J-125000D01*
G01*
X89350000Y-140325000D01*
G75*
G02*
X89225000Y-140450000I-125000J0D01*
G01*
X88975000Y-140450000D01*
G75*
G02*
X88850000Y-140325000I0J125000D01*
G01*
X88850000Y-138675000D01*
G75*
G02*
X88975000Y-138550000I125000J0D01*
G01*
G37*
G36*
G01*
X89625000Y-138550000D02*
X89875000Y-138550000D01*
G75*
G02*
X90000000Y-138675000I0J-125000D01*
G01*
X90000000Y-140325000D01*
G75*
G02*
X89875000Y-140450000I-125000J0D01*
G01*
X89625000Y-140450000D01*
G75*
G02*
X89500000Y-140325000I0J125000D01*
G01*
X89500000Y-138675000D01*
G75*
G02*
X89625000Y-138550000I125000J0D01*
G01*
G37*
G36*
G01*
X90275000Y-138550000D02*
X90525000Y-138550000D01*
G75*
G02*
X90650000Y-138675000I0J-125000D01*
G01*
X90650000Y-140325000D01*
G75*
G02*
X90525000Y-140450000I-125000J0D01*
G01*
X90275000Y-140450000D01*
G75*
G02*
X90150000Y-140325000I0J125000D01*
G01*
X90150000Y-138675000D01*
G75*
G02*
X90275000Y-138550000I125000J0D01*
G01*
G37*
%TD*%
D19*
%TO.C,U2*%
X62100000Y-144750000D03*
X62100000Y-140150000D03*
X62100000Y-142450000D03*
D20*
X55800000Y-142450000D03*
%TD*%
%TO.C,U1*%
G36*
G01*
X81000000Y-105150000D02*
X79675000Y-105150000D01*
G75*
G02*
X79600000Y-105075000I0J75000D01*
G01*
X79600000Y-104925000D01*
G75*
G02*
X79675000Y-104850000I75000J0D01*
G01*
X81000000Y-104850000D01*
G75*
G02*
X81075000Y-104925000I0J-75000D01*
G01*
X81075000Y-105075000D01*
G75*
G02*
X81000000Y-105150000I-75000J0D01*
G01*
G37*
G36*
G01*
X81000000Y-104650000D02*
X79675000Y-104650000D01*
G75*
G02*
X79600000Y-104575000I0J75000D01*
G01*
X79600000Y-104425000D01*
G75*
G02*
X79675000Y-104350000I75000J0D01*
G01*
X81000000Y-104350000D01*
G75*
G02*
X81075000Y-104425000I0J-75000D01*
G01*
X81075000Y-104575000D01*
G75*
G02*
X81000000Y-104650000I-75000J0D01*
G01*
G37*
G36*
G01*
X81000000Y-104150000D02*
X79675000Y-104150000D01*
G75*
G02*
X79600000Y-104075000I0J75000D01*
G01*
X79600000Y-103925000D01*
G75*
G02*
X79675000Y-103850000I75000J0D01*
G01*
X81000000Y-103850000D01*
G75*
G02*
X81075000Y-103925000I0J-75000D01*
G01*
X81075000Y-104075000D01*
G75*
G02*
X81000000Y-104150000I-75000J0D01*
G01*
G37*
G36*
G01*
X81000000Y-103650000D02*
X79675000Y-103650000D01*
G75*
G02*
X79600000Y-103575000I0J75000D01*
G01*
X79600000Y-103425000D01*
G75*
G02*
X79675000Y-103350000I75000J0D01*
G01*
X81000000Y-103350000D01*
G75*
G02*
X81075000Y-103425000I0J-75000D01*
G01*
X81075000Y-103575000D01*
G75*
G02*
X81000000Y-103650000I-75000J0D01*
G01*
G37*
G36*
G01*
X81000000Y-103150000D02*
X79675000Y-103150000D01*
G75*
G02*
X79600000Y-103075000I0J75000D01*
G01*
X79600000Y-102925000D01*
G75*
G02*
X79675000Y-102850000I75000J0D01*
G01*
X81000000Y-102850000D01*
G75*
G02*
X81075000Y-102925000I0J-75000D01*
G01*
X81075000Y-103075000D01*
G75*
G02*
X81000000Y-103150000I-75000J0D01*
G01*
G37*
G36*
G01*
X81000000Y-102650000D02*
X79675000Y-102650000D01*
G75*
G02*
X79600000Y-102575000I0J75000D01*
G01*
X79600000Y-102425000D01*
G75*
G02*
X79675000Y-102350000I75000J0D01*
G01*
X81000000Y-102350000D01*
G75*
G02*
X81075000Y-102425000I0J-75000D01*
G01*
X81075000Y-102575000D01*
G75*
G02*
X81000000Y-102650000I-75000J0D01*
G01*
G37*
G36*
G01*
X81000000Y-102150000D02*
X79675000Y-102150000D01*
G75*
G02*
X79600000Y-102075000I0J75000D01*
G01*
X79600000Y-101925000D01*
G75*
G02*
X79675000Y-101850000I75000J0D01*
G01*
X81000000Y-101850000D01*
G75*
G02*
X81075000Y-101925000I0J-75000D01*
G01*
X81075000Y-102075000D01*
G75*
G02*
X81000000Y-102150000I-75000J0D01*
G01*
G37*
G36*
G01*
X81000000Y-101650000D02*
X79675000Y-101650000D01*
G75*
G02*
X79600000Y-101575000I0J75000D01*
G01*
X79600000Y-101425000D01*
G75*
G02*
X79675000Y-101350000I75000J0D01*
G01*
X81000000Y-101350000D01*
G75*
G02*
X81075000Y-101425000I0J-75000D01*
G01*
X81075000Y-101575000D01*
G75*
G02*
X81000000Y-101650000I-75000J0D01*
G01*
G37*
G36*
G01*
X81000000Y-101150000D02*
X79675000Y-101150000D01*
G75*
G02*
X79600000Y-101075000I0J75000D01*
G01*
X79600000Y-100925000D01*
G75*
G02*
X79675000Y-100850000I75000J0D01*
G01*
X81000000Y-100850000D01*
G75*
G02*
X81075000Y-100925000I0J-75000D01*
G01*
X81075000Y-101075000D01*
G75*
G02*
X81000000Y-101150000I-75000J0D01*
G01*
G37*
G36*
G01*
X81000000Y-100650000D02*
X79675000Y-100650000D01*
G75*
G02*
X79600000Y-100575000I0J75000D01*
G01*
X79600000Y-100425000D01*
G75*
G02*
X79675000Y-100350000I75000J0D01*
G01*
X81000000Y-100350000D01*
G75*
G02*
X81075000Y-100425000I0J-75000D01*
G01*
X81075000Y-100575000D01*
G75*
G02*
X81000000Y-100650000I-75000J0D01*
G01*
G37*
G36*
G01*
X81000000Y-100150000D02*
X79675000Y-100150000D01*
G75*
G02*
X79600000Y-100075000I0J75000D01*
G01*
X79600000Y-99925000D01*
G75*
G02*
X79675000Y-99850000I75000J0D01*
G01*
X81000000Y-99850000D01*
G75*
G02*
X81075000Y-99925000I0J-75000D01*
G01*
X81075000Y-100075000D01*
G75*
G02*
X81000000Y-100150000I-75000J0D01*
G01*
G37*
G36*
G01*
X81000000Y-99650000D02*
X79675000Y-99650000D01*
G75*
G02*
X79600000Y-99575000I0J75000D01*
G01*
X79600000Y-99425000D01*
G75*
G02*
X79675000Y-99350000I75000J0D01*
G01*
X81000000Y-99350000D01*
G75*
G02*
X81075000Y-99425000I0J-75000D01*
G01*
X81075000Y-99575000D01*
G75*
G02*
X81000000Y-99650000I-75000J0D01*
G01*
G37*
G36*
G01*
X81000000Y-99150000D02*
X79675000Y-99150000D01*
G75*
G02*
X79600000Y-99075000I0J75000D01*
G01*
X79600000Y-98925000D01*
G75*
G02*
X79675000Y-98850000I75000J0D01*
G01*
X81000000Y-98850000D01*
G75*
G02*
X81075000Y-98925000I0J-75000D01*
G01*
X81075000Y-99075000D01*
G75*
G02*
X81000000Y-99150000I-75000J0D01*
G01*
G37*
G36*
G01*
X81000000Y-98650000D02*
X79675000Y-98650000D01*
G75*
G02*
X79600000Y-98575000I0J75000D01*
G01*
X79600000Y-98425000D01*
G75*
G02*
X79675000Y-98350000I75000J0D01*
G01*
X81000000Y-98350000D01*
G75*
G02*
X81075000Y-98425000I0J-75000D01*
G01*
X81075000Y-98575000D01*
G75*
G02*
X81000000Y-98650000I-75000J0D01*
G01*
G37*
G36*
G01*
X81000000Y-98150000D02*
X79675000Y-98150000D01*
G75*
G02*
X79600000Y-98075000I0J75000D01*
G01*
X79600000Y-97925000D01*
G75*
G02*
X79675000Y-97850000I75000J0D01*
G01*
X81000000Y-97850000D01*
G75*
G02*
X81075000Y-97925000I0J-75000D01*
G01*
X81075000Y-98075000D01*
G75*
G02*
X81000000Y-98150000I-75000J0D01*
G01*
G37*
G36*
G01*
X81000000Y-97650000D02*
X79675000Y-97650000D01*
G75*
G02*
X79600000Y-97575000I0J75000D01*
G01*
X79600000Y-97425000D01*
G75*
G02*
X79675000Y-97350000I75000J0D01*
G01*
X81000000Y-97350000D01*
G75*
G02*
X81075000Y-97425000I0J-75000D01*
G01*
X81075000Y-97575000D01*
G75*
G02*
X81000000Y-97650000I-75000J0D01*
G01*
G37*
G36*
G01*
X81000000Y-97150000D02*
X79675000Y-97150000D01*
G75*
G02*
X79600000Y-97075000I0J75000D01*
G01*
X79600000Y-96925000D01*
G75*
G02*
X79675000Y-96850000I75000J0D01*
G01*
X81000000Y-96850000D01*
G75*
G02*
X81075000Y-96925000I0J-75000D01*
G01*
X81075000Y-97075000D01*
G75*
G02*
X81000000Y-97150000I-75000J0D01*
G01*
G37*
G36*
G01*
X81000000Y-96650000D02*
X79675000Y-96650000D01*
G75*
G02*
X79600000Y-96575000I0J75000D01*
G01*
X79600000Y-96425000D01*
G75*
G02*
X79675000Y-96350000I75000J0D01*
G01*
X81000000Y-96350000D01*
G75*
G02*
X81075000Y-96425000I0J-75000D01*
G01*
X81075000Y-96575000D01*
G75*
G02*
X81000000Y-96650000I-75000J0D01*
G01*
G37*
G36*
G01*
X81000000Y-96150000D02*
X79675000Y-96150000D01*
G75*
G02*
X79600000Y-96075000I0J75000D01*
G01*
X79600000Y-95925000D01*
G75*
G02*
X79675000Y-95850000I75000J0D01*
G01*
X81000000Y-95850000D01*
G75*
G02*
X81075000Y-95925000I0J-75000D01*
G01*
X81075000Y-96075000D01*
G75*
G02*
X81000000Y-96150000I-75000J0D01*
G01*
G37*
G36*
G01*
X81000000Y-95650000D02*
X79675000Y-95650000D01*
G75*
G02*
X79600000Y-95575000I0J75000D01*
G01*
X79600000Y-95425000D01*
G75*
G02*
X79675000Y-95350000I75000J0D01*
G01*
X81000000Y-95350000D01*
G75*
G02*
X81075000Y-95425000I0J-75000D01*
G01*
X81075000Y-95575000D01*
G75*
G02*
X81000000Y-95650000I-75000J0D01*
G01*
G37*
G36*
G01*
X81000000Y-95150000D02*
X79675000Y-95150000D01*
G75*
G02*
X79600000Y-95075000I0J75000D01*
G01*
X79600000Y-94925000D01*
G75*
G02*
X79675000Y-94850000I75000J0D01*
G01*
X81000000Y-94850000D01*
G75*
G02*
X81075000Y-94925000I0J-75000D01*
G01*
X81075000Y-95075000D01*
G75*
G02*
X81000000Y-95150000I-75000J0D01*
G01*
G37*
G36*
G01*
X81000000Y-94650000D02*
X79675000Y-94650000D01*
G75*
G02*
X79600000Y-94575000I0J75000D01*
G01*
X79600000Y-94425000D01*
G75*
G02*
X79675000Y-94350000I75000J0D01*
G01*
X81000000Y-94350000D01*
G75*
G02*
X81075000Y-94425000I0J-75000D01*
G01*
X81075000Y-94575000D01*
G75*
G02*
X81000000Y-94650000I-75000J0D01*
G01*
G37*
G36*
G01*
X81000000Y-94150000D02*
X79675000Y-94150000D01*
G75*
G02*
X79600000Y-94075000I0J75000D01*
G01*
X79600000Y-93925000D01*
G75*
G02*
X79675000Y-93850000I75000J0D01*
G01*
X81000000Y-93850000D01*
G75*
G02*
X81075000Y-93925000I0J-75000D01*
G01*
X81075000Y-94075000D01*
G75*
G02*
X81000000Y-94150000I-75000J0D01*
G01*
G37*
G36*
G01*
X81000000Y-93650000D02*
X79675000Y-93650000D01*
G75*
G02*
X79600000Y-93575000I0J75000D01*
G01*
X79600000Y-93425000D01*
G75*
G02*
X79675000Y-93350000I75000J0D01*
G01*
X81000000Y-93350000D01*
G75*
G02*
X81075000Y-93425000I0J-75000D01*
G01*
X81075000Y-93575000D01*
G75*
G02*
X81000000Y-93650000I-75000J0D01*
G01*
G37*
G36*
G01*
X81000000Y-93150000D02*
X79675000Y-93150000D01*
G75*
G02*
X79600000Y-93075000I0J75000D01*
G01*
X79600000Y-92925000D01*
G75*
G02*
X79675000Y-92850000I75000J0D01*
G01*
X81000000Y-92850000D01*
G75*
G02*
X81075000Y-92925000I0J-75000D01*
G01*
X81075000Y-93075000D01*
G75*
G02*
X81000000Y-93150000I-75000J0D01*
G01*
G37*
G36*
G01*
X82075000Y-92075000D02*
X81925000Y-92075000D01*
G75*
G02*
X81850000Y-92000000I0J75000D01*
G01*
X81850000Y-90675000D01*
G75*
G02*
X81925000Y-90600000I75000J0D01*
G01*
X82075000Y-90600000D01*
G75*
G02*
X82150000Y-90675000I0J-75000D01*
G01*
X82150000Y-92000000D01*
G75*
G02*
X82075000Y-92075000I-75000J0D01*
G01*
G37*
G36*
G01*
X82575000Y-92075000D02*
X82425000Y-92075000D01*
G75*
G02*
X82350000Y-92000000I0J75000D01*
G01*
X82350000Y-90675000D01*
G75*
G02*
X82425000Y-90600000I75000J0D01*
G01*
X82575000Y-90600000D01*
G75*
G02*
X82650000Y-90675000I0J-75000D01*
G01*
X82650000Y-92000000D01*
G75*
G02*
X82575000Y-92075000I-75000J0D01*
G01*
G37*
G36*
G01*
X83075000Y-92075000D02*
X82925000Y-92075000D01*
G75*
G02*
X82850000Y-92000000I0J75000D01*
G01*
X82850000Y-90675000D01*
G75*
G02*
X82925000Y-90600000I75000J0D01*
G01*
X83075000Y-90600000D01*
G75*
G02*
X83150000Y-90675000I0J-75000D01*
G01*
X83150000Y-92000000D01*
G75*
G02*
X83075000Y-92075000I-75000J0D01*
G01*
G37*
G36*
G01*
X83575000Y-92075000D02*
X83425000Y-92075000D01*
G75*
G02*
X83350000Y-92000000I0J75000D01*
G01*
X83350000Y-90675000D01*
G75*
G02*
X83425000Y-90600000I75000J0D01*
G01*
X83575000Y-90600000D01*
G75*
G02*
X83650000Y-90675000I0J-75000D01*
G01*
X83650000Y-92000000D01*
G75*
G02*
X83575000Y-92075000I-75000J0D01*
G01*
G37*
G36*
G01*
X84075000Y-92075000D02*
X83925000Y-92075000D01*
G75*
G02*
X83850000Y-92000000I0J75000D01*
G01*
X83850000Y-90675000D01*
G75*
G02*
X83925000Y-90600000I75000J0D01*
G01*
X84075000Y-90600000D01*
G75*
G02*
X84150000Y-90675000I0J-75000D01*
G01*
X84150000Y-92000000D01*
G75*
G02*
X84075000Y-92075000I-75000J0D01*
G01*
G37*
G36*
G01*
X84575000Y-92075000D02*
X84425000Y-92075000D01*
G75*
G02*
X84350000Y-92000000I0J75000D01*
G01*
X84350000Y-90675000D01*
G75*
G02*
X84425000Y-90600000I75000J0D01*
G01*
X84575000Y-90600000D01*
G75*
G02*
X84650000Y-90675000I0J-75000D01*
G01*
X84650000Y-92000000D01*
G75*
G02*
X84575000Y-92075000I-75000J0D01*
G01*
G37*
G36*
G01*
X85075000Y-92075000D02*
X84925000Y-92075000D01*
G75*
G02*
X84850000Y-92000000I0J75000D01*
G01*
X84850000Y-90675000D01*
G75*
G02*
X84925000Y-90600000I75000J0D01*
G01*
X85075000Y-90600000D01*
G75*
G02*
X85150000Y-90675000I0J-75000D01*
G01*
X85150000Y-92000000D01*
G75*
G02*
X85075000Y-92075000I-75000J0D01*
G01*
G37*
G36*
G01*
X85575000Y-92075000D02*
X85425000Y-92075000D01*
G75*
G02*
X85350000Y-92000000I0J75000D01*
G01*
X85350000Y-90675000D01*
G75*
G02*
X85425000Y-90600000I75000J0D01*
G01*
X85575000Y-90600000D01*
G75*
G02*
X85650000Y-90675000I0J-75000D01*
G01*
X85650000Y-92000000D01*
G75*
G02*
X85575000Y-92075000I-75000J0D01*
G01*
G37*
G36*
G01*
X86075000Y-92075000D02*
X85925000Y-92075000D01*
G75*
G02*
X85850000Y-92000000I0J75000D01*
G01*
X85850000Y-90675000D01*
G75*
G02*
X85925000Y-90600000I75000J0D01*
G01*
X86075000Y-90600000D01*
G75*
G02*
X86150000Y-90675000I0J-75000D01*
G01*
X86150000Y-92000000D01*
G75*
G02*
X86075000Y-92075000I-75000J0D01*
G01*
G37*
G36*
G01*
X86575000Y-92075000D02*
X86425000Y-92075000D01*
G75*
G02*
X86350000Y-92000000I0J75000D01*
G01*
X86350000Y-90675000D01*
G75*
G02*
X86425000Y-90600000I75000J0D01*
G01*
X86575000Y-90600000D01*
G75*
G02*
X86650000Y-90675000I0J-75000D01*
G01*
X86650000Y-92000000D01*
G75*
G02*
X86575000Y-92075000I-75000J0D01*
G01*
G37*
G36*
G01*
X87075000Y-92075000D02*
X86925000Y-92075000D01*
G75*
G02*
X86850000Y-92000000I0J75000D01*
G01*
X86850000Y-90675000D01*
G75*
G02*
X86925000Y-90600000I75000J0D01*
G01*
X87075000Y-90600000D01*
G75*
G02*
X87150000Y-90675000I0J-75000D01*
G01*
X87150000Y-92000000D01*
G75*
G02*
X87075000Y-92075000I-75000J0D01*
G01*
G37*
G36*
G01*
X87575000Y-92075000D02*
X87425000Y-92075000D01*
G75*
G02*
X87350000Y-92000000I0J75000D01*
G01*
X87350000Y-90675000D01*
G75*
G02*
X87425000Y-90600000I75000J0D01*
G01*
X87575000Y-90600000D01*
G75*
G02*
X87650000Y-90675000I0J-75000D01*
G01*
X87650000Y-92000000D01*
G75*
G02*
X87575000Y-92075000I-75000J0D01*
G01*
G37*
G36*
G01*
X88075000Y-92075000D02*
X87925000Y-92075000D01*
G75*
G02*
X87850000Y-92000000I0J75000D01*
G01*
X87850000Y-90675000D01*
G75*
G02*
X87925000Y-90600000I75000J0D01*
G01*
X88075000Y-90600000D01*
G75*
G02*
X88150000Y-90675000I0J-75000D01*
G01*
X88150000Y-92000000D01*
G75*
G02*
X88075000Y-92075000I-75000J0D01*
G01*
G37*
G36*
G01*
X88575000Y-92075000D02*
X88425000Y-92075000D01*
G75*
G02*
X88350000Y-92000000I0J75000D01*
G01*
X88350000Y-90675000D01*
G75*
G02*
X88425000Y-90600000I75000J0D01*
G01*
X88575000Y-90600000D01*
G75*
G02*
X88650000Y-90675000I0J-75000D01*
G01*
X88650000Y-92000000D01*
G75*
G02*
X88575000Y-92075000I-75000J0D01*
G01*
G37*
G36*
G01*
X89075000Y-92075000D02*
X88925000Y-92075000D01*
G75*
G02*
X88850000Y-92000000I0J75000D01*
G01*
X88850000Y-90675000D01*
G75*
G02*
X88925000Y-90600000I75000J0D01*
G01*
X89075000Y-90600000D01*
G75*
G02*
X89150000Y-90675000I0J-75000D01*
G01*
X89150000Y-92000000D01*
G75*
G02*
X89075000Y-92075000I-75000J0D01*
G01*
G37*
G36*
G01*
X89575000Y-92075000D02*
X89425000Y-92075000D01*
G75*
G02*
X89350000Y-92000000I0J75000D01*
G01*
X89350000Y-90675000D01*
G75*
G02*
X89425000Y-90600000I75000J0D01*
G01*
X89575000Y-90600000D01*
G75*
G02*
X89650000Y-90675000I0J-75000D01*
G01*
X89650000Y-92000000D01*
G75*
G02*
X89575000Y-92075000I-75000J0D01*
G01*
G37*
G36*
G01*
X90075000Y-92075000D02*
X89925000Y-92075000D01*
G75*
G02*
X89850000Y-92000000I0J75000D01*
G01*
X89850000Y-90675000D01*
G75*
G02*
X89925000Y-90600000I75000J0D01*
G01*
X90075000Y-90600000D01*
G75*
G02*
X90150000Y-90675000I0J-75000D01*
G01*
X90150000Y-92000000D01*
G75*
G02*
X90075000Y-92075000I-75000J0D01*
G01*
G37*
G36*
G01*
X90575000Y-92075000D02*
X90425000Y-92075000D01*
G75*
G02*
X90350000Y-92000000I0J75000D01*
G01*
X90350000Y-90675000D01*
G75*
G02*
X90425000Y-90600000I75000J0D01*
G01*
X90575000Y-90600000D01*
G75*
G02*
X90650000Y-90675000I0J-75000D01*
G01*
X90650000Y-92000000D01*
G75*
G02*
X90575000Y-92075000I-75000J0D01*
G01*
G37*
G36*
G01*
X91075000Y-92075000D02*
X90925000Y-92075000D01*
G75*
G02*
X90850000Y-92000000I0J75000D01*
G01*
X90850000Y-90675000D01*
G75*
G02*
X90925000Y-90600000I75000J0D01*
G01*
X91075000Y-90600000D01*
G75*
G02*
X91150000Y-90675000I0J-75000D01*
G01*
X91150000Y-92000000D01*
G75*
G02*
X91075000Y-92075000I-75000J0D01*
G01*
G37*
G36*
G01*
X91575000Y-92075000D02*
X91425000Y-92075000D01*
G75*
G02*
X91350000Y-92000000I0J75000D01*
G01*
X91350000Y-90675000D01*
G75*
G02*
X91425000Y-90600000I75000J0D01*
G01*
X91575000Y-90600000D01*
G75*
G02*
X91650000Y-90675000I0J-75000D01*
G01*
X91650000Y-92000000D01*
G75*
G02*
X91575000Y-92075000I-75000J0D01*
G01*
G37*
G36*
G01*
X92075000Y-92075000D02*
X91925000Y-92075000D01*
G75*
G02*
X91850000Y-92000000I0J75000D01*
G01*
X91850000Y-90675000D01*
G75*
G02*
X91925000Y-90600000I75000J0D01*
G01*
X92075000Y-90600000D01*
G75*
G02*
X92150000Y-90675000I0J-75000D01*
G01*
X92150000Y-92000000D01*
G75*
G02*
X92075000Y-92075000I-75000J0D01*
G01*
G37*
G36*
G01*
X92575000Y-92075000D02*
X92425000Y-92075000D01*
G75*
G02*
X92350000Y-92000000I0J75000D01*
G01*
X92350000Y-90675000D01*
G75*
G02*
X92425000Y-90600000I75000J0D01*
G01*
X92575000Y-90600000D01*
G75*
G02*
X92650000Y-90675000I0J-75000D01*
G01*
X92650000Y-92000000D01*
G75*
G02*
X92575000Y-92075000I-75000J0D01*
G01*
G37*
G36*
G01*
X93075000Y-92075000D02*
X92925000Y-92075000D01*
G75*
G02*
X92850000Y-92000000I0J75000D01*
G01*
X92850000Y-90675000D01*
G75*
G02*
X92925000Y-90600000I75000J0D01*
G01*
X93075000Y-90600000D01*
G75*
G02*
X93150000Y-90675000I0J-75000D01*
G01*
X93150000Y-92000000D01*
G75*
G02*
X93075000Y-92075000I-75000J0D01*
G01*
G37*
G36*
G01*
X93575000Y-92075000D02*
X93425000Y-92075000D01*
G75*
G02*
X93350000Y-92000000I0J75000D01*
G01*
X93350000Y-90675000D01*
G75*
G02*
X93425000Y-90600000I75000J0D01*
G01*
X93575000Y-90600000D01*
G75*
G02*
X93650000Y-90675000I0J-75000D01*
G01*
X93650000Y-92000000D01*
G75*
G02*
X93575000Y-92075000I-75000J0D01*
G01*
G37*
G36*
G01*
X94075000Y-92075000D02*
X93925000Y-92075000D01*
G75*
G02*
X93850000Y-92000000I0J75000D01*
G01*
X93850000Y-90675000D01*
G75*
G02*
X93925000Y-90600000I75000J0D01*
G01*
X94075000Y-90600000D01*
G75*
G02*
X94150000Y-90675000I0J-75000D01*
G01*
X94150000Y-92000000D01*
G75*
G02*
X94075000Y-92075000I-75000J0D01*
G01*
G37*
G36*
G01*
X96325000Y-93150000D02*
X95000000Y-93150000D01*
G75*
G02*
X94925000Y-93075000I0J75000D01*
G01*
X94925000Y-92925000D01*
G75*
G02*
X95000000Y-92850000I75000J0D01*
G01*
X96325000Y-92850000D01*
G75*
G02*
X96400000Y-92925000I0J-75000D01*
G01*
X96400000Y-93075000D01*
G75*
G02*
X96325000Y-93150000I-75000J0D01*
G01*
G37*
G36*
G01*
X96325000Y-93650000D02*
X95000000Y-93650000D01*
G75*
G02*
X94925000Y-93575000I0J75000D01*
G01*
X94925000Y-93425000D01*
G75*
G02*
X95000000Y-93350000I75000J0D01*
G01*
X96325000Y-93350000D01*
G75*
G02*
X96400000Y-93425000I0J-75000D01*
G01*
X96400000Y-93575000D01*
G75*
G02*
X96325000Y-93650000I-75000J0D01*
G01*
G37*
G36*
G01*
X96325000Y-94150000D02*
X95000000Y-94150000D01*
G75*
G02*
X94925000Y-94075000I0J75000D01*
G01*
X94925000Y-93925000D01*
G75*
G02*
X95000000Y-93850000I75000J0D01*
G01*
X96325000Y-93850000D01*
G75*
G02*
X96400000Y-93925000I0J-75000D01*
G01*
X96400000Y-94075000D01*
G75*
G02*
X96325000Y-94150000I-75000J0D01*
G01*
G37*
G36*
G01*
X96325000Y-94650000D02*
X95000000Y-94650000D01*
G75*
G02*
X94925000Y-94575000I0J75000D01*
G01*
X94925000Y-94425000D01*
G75*
G02*
X95000000Y-94350000I75000J0D01*
G01*
X96325000Y-94350000D01*
G75*
G02*
X96400000Y-94425000I0J-75000D01*
G01*
X96400000Y-94575000D01*
G75*
G02*
X96325000Y-94650000I-75000J0D01*
G01*
G37*
G36*
G01*
X96325000Y-95150000D02*
X95000000Y-95150000D01*
G75*
G02*
X94925000Y-95075000I0J75000D01*
G01*
X94925000Y-94925000D01*
G75*
G02*
X95000000Y-94850000I75000J0D01*
G01*
X96325000Y-94850000D01*
G75*
G02*
X96400000Y-94925000I0J-75000D01*
G01*
X96400000Y-95075000D01*
G75*
G02*
X96325000Y-95150000I-75000J0D01*
G01*
G37*
G36*
G01*
X96325000Y-95650000D02*
X95000000Y-95650000D01*
G75*
G02*
X94925000Y-95575000I0J75000D01*
G01*
X94925000Y-95425000D01*
G75*
G02*
X95000000Y-95350000I75000J0D01*
G01*
X96325000Y-95350000D01*
G75*
G02*
X96400000Y-95425000I0J-75000D01*
G01*
X96400000Y-95575000D01*
G75*
G02*
X96325000Y-95650000I-75000J0D01*
G01*
G37*
G36*
G01*
X96325000Y-96150000D02*
X95000000Y-96150000D01*
G75*
G02*
X94925000Y-96075000I0J75000D01*
G01*
X94925000Y-95925000D01*
G75*
G02*
X95000000Y-95850000I75000J0D01*
G01*
X96325000Y-95850000D01*
G75*
G02*
X96400000Y-95925000I0J-75000D01*
G01*
X96400000Y-96075000D01*
G75*
G02*
X96325000Y-96150000I-75000J0D01*
G01*
G37*
G36*
G01*
X96325000Y-96650000D02*
X95000000Y-96650000D01*
G75*
G02*
X94925000Y-96575000I0J75000D01*
G01*
X94925000Y-96425000D01*
G75*
G02*
X95000000Y-96350000I75000J0D01*
G01*
X96325000Y-96350000D01*
G75*
G02*
X96400000Y-96425000I0J-75000D01*
G01*
X96400000Y-96575000D01*
G75*
G02*
X96325000Y-96650000I-75000J0D01*
G01*
G37*
G36*
G01*
X96325000Y-97150000D02*
X95000000Y-97150000D01*
G75*
G02*
X94925000Y-97075000I0J75000D01*
G01*
X94925000Y-96925000D01*
G75*
G02*
X95000000Y-96850000I75000J0D01*
G01*
X96325000Y-96850000D01*
G75*
G02*
X96400000Y-96925000I0J-75000D01*
G01*
X96400000Y-97075000D01*
G75*
G02*
X96325000Y-97150000I-75000J0D01*
G01*
G37*
G36*
G01*
X96325000Y-97650000D02*
X95000000Y-97650000D01*
G75*
G02*
X94925000Y-97575000I0J75000D01*
G01*
X94925000Y-97425000D01*
G75*
G02*
X95000000Y-97350000I75000J0D01*
G01*
X96325000Y-97350000D01*
G75*
G02*
X96400000Y-97425000I0J-75000D01*
G01*
X96400000Y-97575000D01*
G75*
G02*
X96325000Y-97650000I-75000J0D01*
G01*
G37*
G36*
G01*
X96325000Y-98150000D02*
X95000000Y-98150000D01*
G75*
G02*
X94925000Y-98075000I0J75000D01*
G01*
X94925000Y-97925000D01*
G75*
G02*
X95000000Y-97850000I75000J0D01*
G01*
X96325000Y-97850000D01*
G75*
G02*
X96400000Y-97925000I0J-75000D01*
G01*
X96400000Y-98075000D01*
G75*
G02*
X96325000Y-98150000I-75000J0D01*
G01*
G37*
G36*
G01*
X96325000Y-98650000D02*
X95000000Y-98650000D01*
G75*
G02*
X94925000Y-98575000I0J75000D01*
G01*
X94925000Y-98425000D01*
G75*
G02*
X95000000Y-98350000I75000J0D01*
G01*
X96325000Y-98350000D01*
G75*
G02*
X96400000Y-98425000I0J-75000D01*
G01*
X96400000Y-98575000D01*
G75*
G02*
X96325000Y-98650000I-75000J0D01*
G01*
G37*
G36*
G01*
X96325000Y-99150000D02*
X95000000Y-99150000D01*
G75*
G02*
X94925000Y-99075000I0J75000D01*
G01*
X94925000Y-98925000D01*
G75*
G02*
X95000000Y-98850000I75000J0D01*
G01*
X96325000Y-98850000D01*
G75*
G02*
X96400000Y-98925000I0J-75000D01*
G01*
X96400000Y-99075000D01*
G75*
G02*
X96325000Y-99150000I-75000J0D01*
G01*
G37*
G36*
G01*
X96325000Y-99650000D02*
X95000000Y-99650000D01*
G75*
G02*
X94925000Y-99575000I0J75000D01*
G01*
X94925000Y-99425000D01*
G75*
G02*
X95000000Y-99350000I75000J0D01*
G01*
X96325000Y-99350000D01*
G75*
G02*
X96400000Y-99425000I0J-75000D01*
G01*
X96400000Y-99575000D01*
G75*
G02*
X96325000Y-99650000I-75000J0D01*
G01*
G37*
G36*
G01*
X96325000Y-100150000D02*
X95000000Y-100150000D01*
G75*
G02*
X94925000Y-100075000I0J75000D01*
G01*
X94925000Y-99925000D01*
G75*
G02*
X95000000Y-99850000I75000J0D01*
G01*
X96325000Y-99850000D01*
G75*
G02*
X96400000Y-99925000I0J-75000D01*
G01*
X96400000Y-100075000D01*
G75*
G02*
X96325000Y-100150000I-75000J0D01*
G01*
G37*
G36*
G01*
X96325000Y-100650000D02*
X95000000Y-100650000D01*
G75*
G02*
X94925000Y-100575000I0J75000D01*
G01*
X94925000Y-100425000D01*
G75*
G02*
X95000000Y-100350000I75000J0D01*
G01*
X96325000Y-100350000D01*
G75*
G02*
X96400000Y-100425000I0J-75000D01*
G01*
X96400000Y-100575000D01*
G75*
G02*
X96325000Y-100650000I-75000J0D01*
G01*
G37*
G36*
G01*
X96325000Y-101150000D02*
X95000000Y-101150000D01*
G75*
G02*
X94925000Y-101075000I0J75000D01*
G01*
X94925000Y-100925000D01*
G75*
G02*
X95000000Y-100850000I75000J0D01*
G01*
X96325000Y-100850000D01*
G75*
G02*
X96400000Y-100925000I0J-75000D01*
G01*
X96400000Y-101075000D01*
G75*
G02*
X96325000Y-101150000I-75000J0D01*
G01*
G37*
G36*
G01*
X96325000Y-101650000D02*
X95000000Y-101650000D01*
G75*
G02*
X94925000Y-101575000I0J75000D01*
G01*
X94925000Y-101425000D01*
G75*
G02*
X95000000Y-101350000I75000J0D01*
G01*
X96325000Y-101350000D01*
G75*
G02*
X96400000Y-101425000I0J-75000D01*
G01*
X96400000Y-101575000D01*
G75*
G02*
X96325000Y-101650000I-75000J0D01*
G01*
G37*
G36*
G01*
X96325000Y-102150000D02*
X95000000Y-102150000D01*
G75*
G02*
X94925000Y-102075000I0J75000D01*
G01*
X94925000Y-101925000D01*
G75*
G02*
X95000000Y-101850000I75000J0D01*
G01*
X96325000Y-101850000D01*
G75*
G02*
X96400000Y-101925000I0J-75000D01*
G01*
X96400000Y-102075000D01*
G75*
G02*
X96325000Y-102150000I-75000J0D01*
G01*
G37*
G36*
G01*
X96325000Y-102650000D02*
X95000000Y-102650000D01*
G75*
G02*
X94925000Y-102575000I0J75000D01*
G01*
X94925000Y-102425000D01*
G75*
G02*
X95000000Y-102350000I75000J0D01*
G01*
X96325000Y-102350000D01*
G75*
G02*
X96400000Y-102425000I0J-75000D01*
G01*
X96400000Y-102575000D01*
G75*
G02*
X96325000Y-102650000I-75000J0D01*
G01*
G37*
G36*
G01*
X96325000Y-103150000D02*
X95000000Y-103150000D01*
G75*
G02*
X94925000Y-103075000I0J75000D01*
G01*
X94925000Y-102925000D01*
G75*
G02*
X95000000Y-102850000I75000J0D01*
G01*
X96325000Y-102850000D01*
G75*
G02*
X96400000Y-102925000I0J-75000D01*
G01*
X96400000Y-103075000D01*
G75*
G02*
X96325000Y-103150000I-75000J0D01*
G01*
G37*
G36*
G01*
X96325000Y-103650000D02*
X95000000Y-103650000D01*
G75*
G02*
X94925000Y-103575000I0J75000D01*
G01*
X94925000Y-103425000D01*
G75*
G02*
X95000000Y-103350000I75000J0D01*
G01*
X96325000Y-103350000D01*
G75*
G02*
X96400000Y-103425000I0J-75000D01*
G01*
X96400000Y-103575000D01*
G75*
G02*
X96325000Y-103650000I-75000J0D01*
G01*
G37*
G36*
G01*
X96325000Y-104150000D02*
X95000000Y-104150000D01*
G75*
G02*
X94925000Y-104075000I0J75000D01*
G01*
X94925000Y-103925000D01*
G75*
G02*
X95000000Y-103850000I75000J0D01*
G01*
X96325000Y-103850000D01*
G75*
G02*
X96400000Y-103925000I0J-75000D01*
G01*
X96400000Y-104075000D01*
G75*
G02*
X96325000Y-104150000I-75000J0D01*
G01*
G37*
G36*
G01*
X96325000Y-104650000D02*
X95000000Y-104650000D01*
G75*
G02*
X94925000Y-104575000I0J75000D01*
G01*
X94925000Y-104425000D01*
G75*
G02*
X95000000Y-104350000I75000J0D01*
G01*
X96325000Y-104350000D01*
G75*
G02*
X96400000Y-104425000I0J-75000D01*
G01*
X96400000Y-104575000D01*
G75*
G02*
X96325000Y-104650000I-75000J0D01*
G01*
G37*
G36*
G01*
X96325000Y-105150000D02*
X95000000Y-105150000D01*
G75*
G02*
X94925000Y-105075000I0J75000D01*
G01*
X94925000Y-104925000D01*
G75*
G02*
X95000000Y-104850000I75000J0D01*
G01*
X96325000Y-104850000D01*
G75*
G02*
X96400000Y-104925000I0J-75000D01*
G01*
X96400000Y-105075000D01*
G75*
G02*
X96325000Y-105150000I-75000J0D01*
G01*
G37*
G36*
G01*
X94075000Y-107400000D02*
X93925000Y-107400000D01*
G75*
G02*
X93850000Y-107325000I0J75000D01*
G01*
X93850000Y-106000000D01*
G75*
G02*
X93925000Y-105925000I75000J0D01*
G01*
X94075000Y-105925000D01*
G75*
G02*
X94150000Y-106000000I0J-75000D01*
G01*
X94150000Y-107325000D01*
G75*
G02*
X94075000Y-107400000I-75000J0D01*
G01*
G37*
G36*
G01*
X93575000Y-107400000D02*
X93425000Y-107400000D01*
G75*
G02*
X93350000Y-107325000I0J75000D01*
G01*
X93350000Y-106000000D01*
G75*
G02*
X93425000Y-105925000I75000J0D01*
G01*
X93575000Y-105925000D01*
G75*
G02*
X93650000Y-106000000I0J-75000D01*
G01*
X93650000Y-107325000D01*
G75*
G02*
X93575000Y-107400000I-75000J0D01*
G01*
G37*
G36*
G01*
X93075000Y-107400000D02*
X92925000Y-107400000D01*
G75*
G02*
X92850000Y-107325000I0J75000D01*
G01*
X92850000Y-106000000D01*
G75*
G02*
X92925000Y-105925000I75000J0D01*
G01*
X93075000Y-105925000D01*
G75*
G02*
X93150000Y-106000000I0J-75000D01*
G01*
X93150000Y-107325000D01*
G75*
G02*
X93075000Y-107400000I-75000J0D01*
G01*
G37*
G36*
G01*
X92575000Y-107400000D02*
X92425000Y-107400000D01*
G75*
G02*
X92350000Y-107325000I0J75000D01*
G01*
X92350000Y-106000000D01*
G75*
G02*
X92425000Y-105925000I75000J0D01*
G01*
X92575000Y-105925000D01*
G75*
G02*
X92650000Y-106000000I0J-75000D01*
G01*
X92650000Y-107325000D01*
G75*
G02*
X92575000Y-107400000I-75000J0D01*
G01*
G37*
G36*
G01*
X92075000Y-107400000D02*
X91925000Y-107400000D01*
G75*
G02*
X91850000Y-107325000I0J75000D01*
G01*
X91850000Y-106000000D01*
G75*
G02*
X91925000Y-105925000I75000J0D01*
G01*
X92075000Y-105925000D01*
G75*
G02*
X92150000Y-106000000I0J-75000D01*
G01*
X92150000Y-107325000D01*
G75*
G02*
X92075000Y-107400000I-75000J0D01*
G01*
G37*
G36*
G01*
X91575000Y-107400000D02*
X91425000Y-107400000D01*
G75*
G02*
X91350000Y-107325000I0J75000D01*
G01*
X91350000Y-106000000D01*
G75*
G02*
X91425000Y-105925000I75000J0D01*
G01*
X91575000Y-105925000D01*
G75*
G02*
X91650000Y-106000000I0J-75000D01*
G01*
X91650000Y-107325000D01*
G75*
G02*
X91575000Y-107400000I-75000J0D01*
G01*
G37*
G36*
G01*
X91075000Y-107400000D02*
X90925000Y-107400000D01*
G75*
G02*
X90850000Y-107325000I0J75000D01*
G01*
X90850000Y-106000000D01*
G75*
G02*
X90925000Y-105925000I75000J0D01*
G01*
X91075000Y-105925000D01*
G75*
G02*
X91150000Y-106000000I0J-75000D01*
G01*
X91150000Y-107325000D01*
G75*
G02*
X91075000Y-107400000I-75000J0D01*
G01*
G37*
G36*
G01*
X90575000Y-107400000D02*
X90425000Y-107400000D01*
G75*
G02*
X90350000Y-107325000I0J75000D01*
G01*
X90350000Y-106000000D01*
G75*
G02*
X90425000Y-105925000I75000J0D01*
G01*
X90575000Y-105925000D01*
G75*
G02*
X90650000Y-106000000I0J-75000D01*
G01*
X90650000Y-107325000D01*
G75*
G02*
X90575000Y-107400000I-75000J0D01*
G01*
G37*
G36*
G01*
X90075000Y-107400000D02*
X89925000Y-107400000D01*
G75*
G02*
X89850000Y-107325000I0J75000D01*
G01*
X89850000Y-106000000D01*
G75*
G02*
X89925000Y-105925000I75000J0D01*
G01*
X90075000Y-105925000D01*
G75*
G02*
X90150000Y-106000000I0J-75000D01*
G01*
X90150000Y-107325000D01*
G75*
G02*
X90075000Y-107400000I-75000J0D01*
G01*
G37*
G36*
G01*
X89575000Y-107400000D02*
X89425000Y-107400000D01*
G75*
G02*
X89350000Y-107325000I0J75000D01*
G01*
X89350000Y-106000000D01*
G75*
G02*
X89425000Y-105925000I75000J0D01*
G01*
X89575000Y-105925000D01*
G75*
G02*
X89650000Y-106000000I0J-75000D01*
G01*
X89650000Y-107325000D01*
G75*
G02*
X89575000Y-107400000I-75000J0D01*
G01*
G37*
G36*
G01*
X89075000Y-107400000D02*
X88925000Y-107400000D01*
G75*
G02*
X88850000Y-107325000I0J75000D01*
G01*
X88850000Y-106000000D01*
G75*
G02*
X88925000Y-105925000I75000J0D01*
G01*
X89075000Y-105925000D01*
G75*
G02*
X89150000Y-106000000I0J-75000D01*
G01*
X89150000Y-107325000D01*
G75*
G02*
X89075000Y-107400000I-75000J0D01*
G01*
G37*
G36*
G01*
X88575000Y-107400000D02*
X88425000Y-107400000D01*
G75*
G02*
X88350000Y-107325000I0J75000D01*
G01*
X88350000Y-106000000D01*
G75*
G02*
X88425000Y-105925000I75000J0D01*
G01*
X88575000Y-105925000D01*
G75*
G02*
X88650000Y-106000000I0J-75000D01*
G01*
X88650000Y-107325000D01*
G75*
G02*
X88575000Y-107400000I-75000J0D01*
G01*
G37*
G36*
G01*
X88075000Y-107400000D02*
X87925000Y-107400000D01*
G75*
G02*
X87850000Y-107325000I0J75000D01*
G01*
X87850000Y-106000000D01*
G75*
G02*
X87925000Y-105925000I75000J0D01*
G01*
X88075000Y-105925000D01*
G75*
G02*
X88150000Y-106000000I0J-75000D01*
G01*
X88150000Y-107325000D01*
G75*
G02*
X88075000Y-107400000I-75000J0D01*
G01*
G37*
G36*
G01*
X87575000Y-107400000D02*
X87425000Y-107400000D01*
G75*
G02*
X87350000Y-107325000I0J75000D01*
G01*
X87350000Y-106000000D01*
G75*
G02*
X87425000Y-105925000I75000J0D01*
G01*
X87575000Y-105925000D01*
G75*
G02*
X87650000Y-106000000I0J-75000D01*
G01*
X87650000Y-107325000D01*
G75*
G02*
X87575000Y-107400000I-75000J0D01*
G01*
G37*
G36*
G01*
X87075000Y-107400000D02*
X86925000Y-107400000D01*
G75*
G02*
X86850000Y-107325000I0J75000D01*
G01*
X86850000Y-106000000D01*
G75*
G02*
X86925000Y-105925000I75000J0D01*
G01*
X87075000Y-105925000D01*
G75*
G02*
X87150000Y-106000000I0J-75000D01*
G01*
X87150000Y-107325000D01*
G75*
G02*
X87075000Y-107400000I-75000J0D01*
G01*
G37*
G36*
G01*
X86575000Y-107400000D02*
X86425000Y-107400000D01*
G75*
G02*
X86350000Y-107325000I0J75000D01*
G01*
X86350000Y-106000000D01*
G75*
G02*
X86425000Y-105925000I75000J0D01*
G01*
X86575000Y-105925000D01*
G75*
G02*
X86650000Y-106000000I0J-75000D01*
G01*
X86650000Y-107325000D01*
G75*
G02*
X86575000Y-107400000I-75000J0D01*
G01*
G37*
G36*
G01*
X86075000Y-107400000D02*
X85925000Y-107400000D01*
G75*
G02*
X85850000Y-107325000I0J75000D01*
G01*
X85850000Y-106000000D01*
G75*
G02*
X85925000Y-105925000I75000J0D01*
G01*
X86075000Y-105925000D01*
G75*
G02*
X86150000Y-106000000I0J-75000D01*
G01*
X86150000Y-107325000D01*
G75*
G02*
X86075000Y-107400000I-75000J0D01*
G01*
G37*
G36*
G01*
X85575000Y-107400000D02*
X85425000Y-107400000D01*
G75*
G02*
X85350000Y-107325000I0J75000D01*
G01*
X85350000Y-106000000D01*
G75*
G02*
X85425000Y-105925000I75000J0D01*
G01*
X85575000Y-105925000D01*
G75*
G02*
X85650000Y-106000000I0J-75000D01*
G01*
X85650000Y-107325000D01*
G75*
G02*
X85575000Y-107400000I-75000J0D01*
G01*
G37*
G36*
G01*
X85075000Y-107400000D02*
X84925000Y-107400000D01*
G75*
G02*
X84850000Y-107325000I0J75000D01*
G01*
X84850000Y-106000000D01*
G75*
G02*
X84925000Y-105925000I75000J0D01*
G01*
X85075000Y-105925000D01*
G75*
G02*
X85150000Y-106000000I0J-75000D01*
G01*
X85150000Y-107325000D01*
G75*
G02*
X85075000Y-107400000I-75000J0D01*
G01*
G37*
G36*
G01*
X84575000Y-107400000D02*
X84425000Y-107400000D01*
G75*
G02*
X84350000Y-107325000I0J75000D01*
G01*
X84350000Y-106000000D01*
G75*
G02*
X84425000Y-105925000I75000J0D01*
G01*
X84575000Y-105925000D01*
G75*
G02*
X84650000Y-106000000I0J-75000D01*
G01*
X84650000Y-107325000D01*
G75*
G02*
X84575000Y-107400000I-75000J0D01*
G01*
G37*
G36*
G01*
X84075000Y-107400000D02*
X83925000Y-107400000D01*
G75*
G02*
X83850000Y-107325000I0J75000D01*
G01*
X83850000Y-106000000D01*
G75*
G02*
X83925000Y-105925000I75000J0D01*
G01*
X84075000Y-105925000D01*
G75*
G02*
X84150000Y-106000000I0J-75000D01*
G01*
X84150000Y-107325000D01*
G75*
G02*
X84075000Y-107400000I-75000J0D01*
G01*
G37*
G36*
G01*
X83575000Y-107400000D02*
X83425000Y-107400000D01*
G75*
G02*
X83350000Y-107325000I0J75000D01*
G01*
X83350000Y-106000000D01*
G75*
G02*
X83425000Y-105925000I75000J0D01*
G01*
X83575000Y-105925000D01*
G75*
G02*
X83650000Y-106000000I0J-75000D01*
G01*
X83650000Y-107325000D01*
G75*
G02*
X83575000Y-107400000I-75000J0D01*
G01*
G37*
G36*
G01*
X83075000Y-107400000D02*
X82925000Y-107400000D01*
G75*
G02*
X82850000Y-107325000I0J75000D01*
G01*
X82850000Y-106000000D01*
G75*
G02*
X82925000Y-105925000I75000J0D01*
G01*
X83075000Y-105925000D01*
G75*
G02*
X83150000Y-106000000I0J-75000D01*
G01*
X83150000Y-107325000D01*
G75*
G02*
X83075000Y-107400000I-75000J0D01*
G01*
G37*
G36*
G01*
X82575000Y-107400000D02*
X82425000Y-107400000D01*
G75*
G02*
X82350000Y-107325000I0J75000D01*
G01*
X82350000Y-106000000D01*
G75*
G02*
X82425000Y-105925000I75000J0D01*
G01*
X82575000Y-105925000D01*
G75*
G02*
X82650000Y-106000000I0J-75000D01*
G01*
X82650000Y-107325000D01*
G75*
G02*
X82575000Y-107400000I-75000J0D01*
G01*
G37*
G36*
G01*
X82075000Y-107400000D02*
X81925000Y-107400000D01*
G75*
G02*
X81850000Y-107325000I0J75000D01*
G01*
X81850000Y-106000000D01*
G75*
G02*
X81925000Y-105925000I75000J0D01*
G01*
X82075000Y-105925000D01*
G75*
G02*
X82150000Y-106000000I0J-75000D01*
G01*
X82150000Y-107325000D01*
G75*
G02*
X82075000Y-107400000I-75000J0D01*
G01*
G37*
%TD*%
D21*
%TO.C,TR2*%
X79540000Y-73290000D03*
X77000000Y-73290000D03*
X74460000Y-73290000D03*
X74460000Y-68210000D03*
X77000000Y-68210000D03*
X79540000Y-68210000D03*
%TD*%
%TO.C,TR1*%
X54540000Y-73290000D03*
X52000000Y-73290000D03*
X49460000Y-73290000D03*
X49460000Y-68210000D03*
X52000000Y-68210000D03*
X54540000Y-68210000D03*
%TD*%
%TO.C,R18*%
G36*
G01*
X63743750Y-126137500D02*
X64256250Y-126137500D01*
G75*
G02*
X64475000Y-126356250I0J-218750D01*
G01*
X64475000Y-126793750D01*
G75*
G02*
X64256250Y-127012500I-218750J0D01*
G01*
X63743750Y-127012500D01*
G75*
G02*
X63525000Y-126793750I0J218750D01*
G01*
X63525000Y-126356250D01*
G75*
G02*
X63743750Y-126137500I218750J0D01*
G01*
G37*
G36*
G01*
X63743750Y-124562500D02*
X64256250Y-124562500D01*
G75*
G02*
X64475000Y-124781250I0J-218750D01*
G01*
X64475000Y-125218750D01*
G75*
G02*
X64256250Y-125437500I-218750J0D01*
G01*
X63743750Y-125437500D01*
G75*
G02*
X63525000Y-125218750I0J218750D01*
G01*
X63525000Y-124781250D01*
G75*
G02*
X63743750Y-124562500I218750J0D01*
G01*
G37*
%TD*%
%TO.C,R17*%
G36*
G01*
X60506250Y-97862500D02*
X59993750Y-97862500D01*
G75*
G02*
X59775000Y-97643750I0J218750D01*
G01*
X59775000Y-97206250D01*
G75*
G02*
X59993750Y-96987500I218750J0D01*
G01*
X60506250Y-96987500D01*
G75*
G02*
X60725000Y-97206250I0J-218750D01*
G01*
X60725000Y-97643750D01*
G75*
G02*
X60506250Y-97862500I-218750J0D01*
G01*
G37*
G36*
G01*
X60506250Y-99437500D02*
X59993750Y-99437500D01*
G75*
G02*
X59775000Y-99218750I0J218750D01*
G01*
X59775000Y-98781250D01*
G75*
G02*
X59993750Y-98562500I218750J0D01*
G01*
X60506250Y-98562500D01*
G75*
G02*
X60725000Y-98781250I0J-218750D01*
G01*
X60725000Y-99218750D01*
G75*
G02*
X60506250Y-99437500I-218750J0D01*
G01*
G37*
%TD*%
%TO.C,R16*%
G36*
G01*
X59562500Y-127056250D02*
X59562500Y-126543750D01*
G75*
G02*
X59781250Y-126325000I218750J0D01*
G01*
X60218750Y-126325000D01*
G75*
G02*
X60437500Y-126543750I0J-218750D01*
G01*
X60437500Y-127056250D01*
G75*
G02*
X60218750Y-127275000I-218750J0D01*
G01*
X59781250Y-127275000D01*
G75*
G02*
X59562500Y-127056250I0J218750D01*
G01*
G37*
G36*
G01*
X57987500Y-127056250D02*
X57987500Y-126543750D01*
G75*
G02*
X58206250Y-126325000I218750J0D01*
G01*
X58643750Y-126325000D01*
G75*
G02*
X58862500Y-126543750I0J-218750D01*
G01*
X58862500Y-127056250D01*
G75*
G02*
X58643750Y-127275000I-218750J0D01*
G01*
X58206250Y-127275000D01*
G75*
G02*
X57987500Y-127056250I0J218750D01*
G01*
G37*
%TD*%
%TO.C,R12*%
G36*
G01*
X65743750Y-126110000D02*
X66256250Y-126110000D01*
G75*
G02*
X66475000Y-126328750I0J-218750D01*
G01*
X66475000Y-126766250D01*
G75*
G02*
X66256250Y-126985000I-218750J0D01*
G01*
X65743750Y-126985000D01*
G75*
G02*
X65525000Y-126766250I0J218750D01*
G01*
X65525000Y-126328750D01*
G75*
G02*
X65743750Y-126110000I218750J0D01*
G01*
G37*
G36*
G01*
X65743750Y-124535000D02*
X66256250Y-124535000D01*
G75*
G02*
X66475000Y-124753750I0J-218750D01*
G01*
X66475000Y-125191250D01*
G75*
G02*
X66256250Y-125410000I-218750J0D01*
G01*
X65743750Y-125410000D01*
G75*
G02*
X65525000Y-125191250I0J218750D01*
G01*
X65525000Y-124753750D01*
G75*
G02*
X65743750Y-124535000I218750J0D01*
G01*
G37*
%TD*%
%TO.C,R11*%
G36*
G01*
X45687500Y-72993750D02*
X45687500Y-73506250D01*
G75*
G02*
X45468750Y-73725000I-218750J0D01*
G01*
X45031250Y-73725000D01*
G75*
G02*
X44812500Y-73506250I0J218750D01*
G01*
X44812500Y-72993750D01*
G75*
G02*
X45031250Y-72775000I218750J0D01*
G01*
X45468750Y-72775000D01*
G75*
G02*
X45687500Y-72993750I0J-218750D01*
G01*
G37*
G36*
G01*
X47262500Y-72993750D02*
X47262500Y-73506250D01*
G75*
G02*
X47043750Y-73725000I-218750J0D01*
G01*
X46606250Y-73725000D01*
G75*
G02*
X46387500Y-73506250I0J218750D01*
G01*
X46387500Y-72993750D01*
G75*
G02*
X46606250Y-72775000I218750J0D01*
G01*
X47043750Y-72775000D01*
G75*
G02*
X47262500Y-72993750I0J-218750D01*
G01*
G37*
%TD*%
%TO.C,R10*%
G36*
G01*
X57506250Y-72150000D02*
X56993750Y-72150000D01*
G75*
G02*
X56775000Y-71931250I0J218750D01*
G01*
X56775000Y-71493750D01*
G75*
G02*
X56993750Y-71275000I218750J0D01*
G01*
X57506250Y-71275000D01*
G75*
G02*
X57725000Y-71493750I0J-218750D01*
G01*
X57725000Y-71931250D01*
G75*
G02*
X57506250Y-72150000I-218750J0D01*
G01*
G37*
G36*
G01*
X57506250Y-73725000D02*
X56993750Y-73725000D01*
G75*
G02*
X56775000Y-73506250I0J218750D01*
G01*
X56775000Y-73068750D01*
G75*
G02*
X56993750Y-72850000I218750J0D01*
G01*
X57506250Y-72850000D01*
G75*
G02*
X57725000Y-73068750I0J-218750D01*
G01*
X57725000Y-73506250D01*
G75*
G02*
X57506250Y-73725000I-218750J0D01*
G01*
G37*
%TD*%
%TO.C,R9*%
G36*
G01*
X81993750Y-74312500D02*
X82506250Y-74312500D01*
G75*
G02*
X82725000Y-74531250I0J-218750D01*
G01*
X82725000Y-74968750D01*
G75*
G02*
X82506250Y-75187500I-218750J0D01*
G01*
X81993750Y-75187500D01*
G75*
G02*
X81775000Y-74968750I0J218750D01*
G01*
X81775000Y-74531250D01*
G75*
G02*
X81993750Y-74312500I218750J0D01*
G01*
G37*
G36*
G01*
X81993750Y-72737500D02*
X82506250Y-72737500D01*
G75*
G02*
X82725000Y-72956250I0J-218750D01*
G01*
X82725000Y-73393750D01*
G75*
G02*
X82506250Y-73612500I-218750J0D01*
G01*
X81993750Y-73612500D01*
G75*
G02*
X81775000Y-73393750I0J218750D01*
G01*
X81775000Y-72956250D01*
G75*
G02*
X81993750Y-72737500I218750J0D01*
G01*
G37*
%TD*%
%TO.C,R8*%
G36*
G01*
X70687500Y-72993750D02*
X70687500Y-73506250D01*
G75*
G02*
X70468750Y-73725000I-218750J0D01*
G01*
X70031250Y-73725000D01*
G75*
G02*
X69812500Y-73506250I0J218750D01*
G01*
X69812500Y-72993750D01*
G75*
G02*
X70031250Y-72775000I218750J0D01*
G01*
X70468750Y-72775000D01*
G75*
G02*
X70687500Y-72993750I0J-218750D01*
G01*
G37*
G36*
G01*
X72262500Y-72993750D02*
X72262500Y-73506250D01*
G75*
G02*
X72043750Y-73725000I-218750J0D01*
G01*
X71606250Y-73725000D01*
G75*
G02*
X71387500Y-73506250I0J218750D01*
G01*
X71387500Y-72993750D01*
G75*
G02*
X71606250Y-72775000I218750J0D01*
G01*
X72043750Y-72775000D01*
G75*
G02*
X72262500Y-72993750I0J-218750D01*
G01*
G37*
%TD*%
%TO.C,R7*%
G36*
G01*
X53350000Y-153256250D02*
X53350000Y-152743750D01*
G75*
G02*
X53568750Y-152525000I218750J0D01*
G01*
X54006250Y-152525000D01*
G75*
G02*
X54225000Y-152743750I0J-218750D01*
G01*
X54225000Y-153256250D01*
G75*
G02*
X54006250Y-153475000I-218750J0D01*
G01*
X53568750Y-153475000D01*
G75*
G02*
X53350000Y-153256250I0J218750D01*
G01*
G37*
G36*
G01*
X51775000Y-153256250D02*
X51775000Y-152743750D01*
G75*
G02*
X51993750Y-152525000I218750J0D01*
G01*
X52431250Y-152525000D01*
G75*
G02*
X52650000Y-152743750I0J-218750D01*
G01*
X52650000Y-153256250D01*
G75*
G02*
X52431250Y-153475000I-218750J0D01*
G01*
X51993750Y-153475000D01*
G75*
G02*
X51775000Y-153256250I0J218750D01*
G01*
G37*
%TD*%
%TO.C,R6*%
G36*
G01*
X58350000Y-153256250D02*
X58350000Y-152743750D01*
G75*
G02*
X58568750Y-152525000I218750J0D01*
G01*
X59006250Y-152525000D01*
G75*
G02*
X59225000Y-152743750I0J-218750D01*
G01*
X59225000Y-153256250D01*
G75*
G02*
X59006250Y-153475000I-218750J0D01*
G01*
X58568750Y-153475000D01*
G75*
G02*
X58350000Y-153256250I0J218750D01*
G01*
G37*
G36*
G01*
X56775000Y-153256250D02*
X56775000Y-152743750D01*
G75*
G02*
X56993750Y-152525000I218750J0D01*
G01*
X57431250Y-152525000D01*
G75*
G02*
X57650000Y-152743750I0J-218750D01*
G01*
X57650000Y-153256250D01*
G75*
G02*
X57431250Y-153475000I-218750J0D01*
G01*
X56993750Y-153475000D01*
G75*
G02*
X56775000Y-153256250I0J218750D01*
G01*
G37*
%TD*%
%TO.C,R5*%
G36*
G01*
X63350000Y-153256250D02*
X63350000Y-152743750D01*
G75*
G02*
X63568750Y-152525000I218750J0D01*
G01*
X64006250Y-152525000D01*
G75*
G02*
X64225000Y-152743750I0J-218750D01*
G01*
X64225000Y-153256250D01*
G75*
G02*
X64006250Y-153475000I-218750J0D01*
G01*
X63568750Y-153475000D01*
G75*
G02*
X63350000Y-153256250I0J218750D01*
G01*
G37*
G36*
G01*
X61775000Y-153256250D02*
X61775000Y-152743750D01*
G75*
G02*
X61993750Y-152525000I218750J0D01*
G01*
X62431250Y-152525000D01*
G75*
G02*
X62650000Y-152743750I0J-218750D01*
G01*
X62650000Y-153256250D01*
G75*
G02*
X62431250Y-153475000I-218750J0D01*
G01*
X61993750Y-153475000D01*
G75*
G02*
X61775000Y-153256250I0J218750D01*
G01*
G37*
%TD*%
%TO.C,R4*%
G36*
G01*
X61987500Y-147156250D02*
X61987500Y-146643750D01*
G75*
G02*
X62206250Y-146425000I218750J0D01*
G01*
X62643750Y-146425000D01*
G75*
G02*
X62862500Y-146643750I0J-218750D01*
G01*
X62862500Y-147156250D01*
G75*
G02*
X62643750Y-147375000I-218750J0D01*
G01*
X62206250Y-147375000D01*
G75*
G02*
X61987500Y-147156250I0J218750D01*
G01*
G37*
G36*
G01*
X60412500Y-147156250D02*
X60412500Y-146643750D01*
G75*
G02*
X60631250Y-146425000I218750J0D01*
G01*
X61068750Y-146425000D01*
G75*
G02*
X61287500Y-146643750I0J-218750D01*
G01*
X61287500Y-147156250D01*
G75*
G02*
X61068750Y-147375000I-218750J0D01*
G01*
X60631250Y-147375000D01*
G75*
G02*
X60412500Y-147156250I0J218750D01*
G01*
G37*
%TD*%
%TO.C,R3*%
G36*
G01*
X64606250Y-143087500D02*
X64093750Y-143087500D01*
G75*
G02*
X63875000Y-142868750I0J218750D01*
G01*
X63875000Y-142431250D01*
G75*
G02*
X64093750Y-142212500I218750J0D01*
G01*
X64606250Y-142212500D01*
G75*
G02*
X64825000Y-142431250I0J-218750D01*
G01*
X64825000Y-142868750D01*
G75*
G02*
X64606250Y-143087500I-218750J0D01*
G01*
G37*
G36*
G01*
X64606250Y-144662500D02*
X64093750Y-144662500D01*
G75*
G02*
X63875000Y-144443750I0J218750D01*
G01*
X63875000Y-144006250D01*
G75*
G02*
X64093750Y-143787500I218750J0D01*
G01*
X64606250Y-143787500D01*
G75*
G02*
X64825000Y-144006250I0J-218750D01*
G01*
X64825000Y-144443750D01*
G75*
G02*
X64606250Y-144662500I-218750J0D01*
G01*
G37*
%TD*%
%TO.C,R2*%
G36*
G01*
X93137500Y-137756250D02*
X93137500Y-137243750D01*
G75*
G02*
X93356250Y-137025000I218750J0D01*
G01*
X93793750Y-137025000D01*
G75*
G02*
X94012500Y-137243750I0J-218750D01*
G01*
X94012500Y-137756250D01*
G75*
G02*
X93793750Y-137975000I-218750J0D01*
G01*
X93356250Y-137975000D01*
G75*
G02*
X93137500Y-137756250I0J218750D01*
G01*
G37*
G36*
G01*
X91562500Y-137756250D02*
X91562500Y-137243750D01*
G75*
G02*
X91781250Y-137025000I218750J0D01*
G01*
X92218750Y-137025000D01*
G75*
G02*
X92437500Y-137243750I0J-218750D01*
G01*
X92437500Y-137756250D01*
G75*
G02*
X92218750Y-137975000I-218750J0D01*
G01*
X91781250Y-137975000D01*
G75*
G02*
X91562500Y-137756250I0J218750D01*
G01*
G37*
%TD*%
%TO.C,R1*%
G36*
G01*
X97937500Y-95993750D02*
X97937500Y-96506250D01*
G75*
G02*
X97718750Y-96725000I-218750J0D01*
G01*
X97281250Y-96725000D01*
G75*
G02*
X97062500Y-96506250I0J218750D01*
G01*
X97062500Y-95993750D01*
G75*
G02*
X97281250Y-95775000I218750J0D01*
G01*
X97718750Y-95775000D01*
G75*
G02*
X97937500Y-95993750I0J-218750D01*
G01*
G37*
G36*
G01*
X99512500Y-95993750D02*
X99512500Y-96506250D01*
G75*
G02*
X99293750Y-96725000I-218750J0D01*
G01*
X98856250Y-96725000D01*
G75*
G02*
X98637500Y-96506250I0J218750D01*
G01*
X98637500Y-95993750D01*
G75*
G02*
X98856250Y-95775000I218750J0D01*
G01*
X99293750Y-95775000D01*
G75*
G02*
X99512500Y-95993750I0J-218750D01*
G01*
G37*
%TD*%
D22*
%TO.C,J3*%
X75200000Y-150150000D03*
D23*
X72200000Y-151700000D03*
X79800000Y-151700000D03*
X79800000Y-157700000D03*
X72200000Y-157700000D03*
%TD*%
D24*
%TO.C,J2*%
X92600000Y-151400000D03*
X91800000Y-151400000D03*
X91000000Y-151400000D03*
X90200000Y-151400000D03*
X89400000Y-151400000D03*
D23*
X95400000Y-151400000D03*
X86600000Y-151400000D03*
X95400000Y-156900000D03*
X86600000Y-156900000D03*
%TD*%
%TO.C,D3*%
G36*
G01*
X52550000Y-157543750D02*
X52550000Y-158456250D01*
G75*
G02*
X52306250Y-158700000I-243750J0D01*
G01*
X51818750Y-158700000D01*
G75*
G02*
X51575000Y-158456250I0J243750D01*
G01*
X51575000Y-157543750D01*
G75*
G02*
X51818750Y-157300000I243750J0D01*
G01*
X52306250Y-157300000D01*
G75*
G02*
X52550000Y-157543750I0J-243750D01*
G01*
G37*
G36*
G01*
X54425000Y-157543750D02*
X54425000Y-158456250D01*
G75*
G02*
X54181250Y-158700000I-243750J0D01*
G01*
X53693750Y-158700000D01*
G75*
G02*
X53450000Y-158456250I0J243750D01*
G01*
X53450000Y-157543750D01*
G75*
G02*
X53693750Y-157300000I243750J0D01*
G01*
X54181250Y-157300000D01*
G75*
G02*
X54425000Y-157543750I0J-243750D01*
G01*
G37*
%TD*%
%TO.C,D2*%
G36*
G01*
X57550000Y-157543750D02*
X57550000Y-158456250D01*
G75*
G02*
X57306250Y-158700000I-243750J0D01*
G01*
X56818750Y-158700000D01*
G75*
G02*
X56575000Y-158456250I0J243750D01*
G01*
X56575000Y-157543750D01*
G75*
G02*
X56818750Y-157300000I243750J0D01*
G01*
X57306250Y-157300000D01*
G75*
G02*
X57550000Y-157543750I0J-243750D01*
G01*
G37*
G36*
G01*
X59425000Y-157543750D02*
X59425000Y-158456250D01*
G75*
G02*
X59181250Y-158700000I-243750J0D01*
G01*
X58693750Y-158700000D01*
G75*
G02*
X58450000Y-158456250I0J243750D01*
G01*
X58450000Y-157543750D01*
G75*
G02*
X58693750Y-157300000I243750J0D01*
G01*
X59181250Y-157300000D01*
G75*
G02*
X59425000Y-157543750I0J-243750D01*
G01*
G37*
%TD*%
%TO.C,D1*%
G36*
G01*
X62550000Y-157543750D02*
X62550000Y-158456250D01*
G75*
G02*
X62306250Y-158700000I-243750J0D01*
G01*
X61818750Y-158700000D01*
G75*
G02*
X61575000Y-158456250I0J243750D01*
G01*
X61575000Y-157543750D01*
G75*
G02*
X61818750Y-157300000I243750J0D01*
G01*
X62306250Y-157300000D01*
G75*
G02*
X62550000Y-157543750I0J-243750D01*
G01*
G37*
G36*
G01*
X64425000Y-157543750D02*
X64425000Y-158456250D01*
G75*
G02*
X64181250Y-158700000I-243750J0D01*
G01*
X63693750Y-158700000D01*
G75*
G02*
X63450000Y-158456250I0J243750D01*
G01*
X63450000Y-157543750D01*
G75*
G02*
X63693750Y-157300000I243750J0D01*
G01*
X64181250Y-157300000D01*
G75*
G02*
X64425000Y-157543750I0J-243750D01*
G01*
G37*
%TD*%
%TO.C,C39*%
G36*
G01*
X71756250Y-81612500D02*
X71243750Y-81612500D01*
G75*
G02*
X71025000Y-81393750I0J218750D01*
G01*
X71025000Y-80956250D01*
G75*
G02*
X71243750Y-80737500I218750J0D01*
G01*
X71756250Y-80737500D01*
G75*
G02*
X71975000Y-80956250I0J-218750D01*
G01*
X71975000Y-81393750D01*
G75*
G02*
X71756250Y-81612500I-218750J0D01*
G01*
G37*
G36*
G01*
X71756250Y-83187500D02*
X71243750Y-83187500D01*
G75*
G02*
X71025000Y-82968750I0J218750D01*
G01*
X71025000Y-82531250D01*
G75*
G02*
X71243750Y-82312500I218750J0D01*
G01*
X71756250Y-82312500D01*
G75*
G02*
X71975000Y-82531250I0J-218750D01*
G01*
X71975000Y-82968750D01*
G75*
G02*
X71756250Y-83187500I-218750J0D01*
G01*
G37*
%TD*%
%TO.C,C36*%
G36*
G01*
X52243750Y-85387500D02*
X52756250Y-85387500D01*
G75*
G02*
X52975000Y-85606250I0J-218750D01*
G01*
X52975000Y-86043750D01*
G75*
G02*
X52756250Y-86262500I-218750J0D01*
G01*
X52243750Y-86262500D01*
G75*
G02*
X52025000Y-86043750I0J218750D01*
G01*
X52025000Y-85606250D01*
G75*
G02*
X52243750Y-85387500I218750J0D01*
G01*
G37*
G36*
G01*
X52243750Y-83812500D02*
X52756250Y-83812500D01*
G75*
G02*
X52975000Y-84031250I0J-218750D01*
G01*
X52975000Y-84468750D01*
G75*
G02*
X52756250Y-84687500I-218750J0D01*
G01*
X52243750Y-84687500D01*
G75*
G02*
X52025000Y-84468750I0J218750D01*
G01*
X52025000Y-84031250D01*
G75*
G02*
X52243750Y-83812500I218750J0D01*
G01*
G37*
%TD*%
%TO.C,C35*%
G36*
G01*
X52756250Y-81437500D02*
X52243750Y-81437500D01*
G75*
G02*
X52025000Y-81218750I0J218750D01*
G01*
X52025000Y-80781250D01*
G75*
G02*
X52243750Y-80562500I218750J0D01*
G01*
X52756250Y-80562500D01*
G75*
G02*
X52975000Y-80781250I0J-218750D01*
G01*
X52975000Y-81218750D01*
G75*
G02*
X52756250Y-81437500I-218750J0D01*
G01*
G37*
G36*
G01*
X52756250Y-83012500D02*
X52243750Y-83012500D01*
G75*
G02*
X52025000Y-82793750I0J218750D01*
G01*
X52025000Y-82356250D01*
G75*
G02*
X52243750Y-82137500I218750J0D01*
G01*
X52756250Y-82137500D01*
G75*
G02*
X52975000Y-82356250I0J-218750D01*
G01*
X52975000Y-82793750D01*
G75*
G02*
X52756250Y-83012500I-218750J0D01*
G01*
G37*
%TD*%
%TO.C,C32*%
G36*
G01*
X88437500Y-89243750D02*
X88437500Y-89756250D01*
G75*
G02*
X88218750Y-89975000I-218750J0D01*
G01*
X87781250Y-89975000D01*
G75*
G02*
X87562500Y-89756250I0J218750D01*
G01*
X87562500Y-89243750D01*
G75*
G02*
X87781250Y-89025000I218750J0D01*
G01*
X88218750Y-89025000D01*
G75*
G02*
X88437500Y-89243750I0J-218750D01*
G01*
G37*
G36*
G01*
X90012500Y-89243750D02*
X90012500Y-89756250D01*
G75*
G02*
X89793750Y-89975000I-218750J0D01*
G01*
X89356250Y-89975000D01*
G75*
G02*
X89137500Y-89756250I0J218750D01*
G01*
X89137500Y-89243750D01*
G75*
G02*
X89356250Y-89025000I218750J0D01*
G01*
X89793750Y-89025000D01*
G75*
G02*
X90012500Y-89243750I0J-218750D01*
G01*
G37*
%TD*%
%TO.C,C30*%
G36*
G01*
X64362500Y-97243750D02*
X64362500Y-97756250D01*
G75*
G02*
X64143750Y-97975000I-218750J0D01*
G01*
X63706250Y-97975000D01*
G75*
G02*
X63487500Y-97756250I0J218750D01*
G01*
X63487500Y-97243750D01*
G75*
G02*
X63706250Y-97025000I218750J0D01*
G01*
X64143750Y-97025000D01*
G75*
G02*
X64362500Y-97243750I0J-218750D01*
G01*
G37*
G36*
G01*
X65937500Y-97243750D02*
X65937500Y-97756250D01*
G75*
G02*
X65718750Y-97975000I-218750J0D01*
G01*
X65281250Y-97975000D01*
G75*
G02*
X65062500Y-97756250I0J218750D01*
G01*
X65062500Y-97243750D01*
G75*
G02*
X65281250Y-97025000I218750J0D01*
G01*
X65718750Y-97025000D01*
G75*
G02*
X65937500Y-97243750I0J-218750D01*
G01*
G37*
%TD*%
%TO.C,C8*%
G36*
G01*
X61493750Y-126137500D02*
X62006250Y-126137500D01*
G75*
G02*
X62225000Y-126356250I0J-218750D01*
G01*
X62225000Y-126793750D01*
G75*
G02*
X62006250Y-127012500I-218750J0D01*
G01*
X61493750Y-127012500D01*
G75*
G02*
X61275000Y-126793750I0J218750D01*
G01*
X61275000Y-126356250D01*
G75*
G02*
X61493750Y-126137500I218750J0D01*
G01*
G37*
G36*
G01*
X61493750Y-124562500D02*
X62006250Y-124562500D01*
G75*
G02*
X62225000Y-124781250I0J-218750D01*
G01*
X62225000Y-125218750D01*
G75*
G02*
X62006250Y-125437500I-218750J0D01*
G01*
X61493750Y-125437500D01*
G75*
G02*
X61275000Y-125218750I0J218750D01*
G01*
X61275000Y-124781250D01*
G75*
G02*
X61493750Y-124562500I218750J0D01*
G01*
G37*
%TD*%
%TO.C,C7*%
G36*
G01*
X92500000Y-139243750D02*
X92500000Y-139756250D01*
G75*
G02*
X92281250Y-139975000I-218750J0D01*
G01*
X91843750Y-139975000D01*
G75*
G02*
X91625000Y-139756250I0J218750D01*
G01*
X91625000Y-139243750D01*
G75*
G02*
X91843750Y-139025000I218750J0D01*
G01*
X92281250Y-139025000D01*
G75*
G02*
X92500000Y-139243750I0J-218750D01*
G01*
G37*
G36*
G01*
X94075000Y-139243750D02*
X94075000Y-139756250D01*
G75*
G02*
X93856250Y-139975000I-218750J0D01*
G01*
X93418750Y-139975000D01*
G75*
G02*
X93200000Y-139756250I0J218750D01*
G01*
X93200000Y-139243750D01*
G75*
G02*
X93418750Y-139025000I218750J0D01*
G01*
X93856250Y-139025000D01*
G75*
G02*
X94075000Y-139243750I0J-218750D01*
G01*
G37*
%TD*%
%TO.C,C5*%
G36*
G01*
X70800000Y-141350000D02*
X69700000Y-141350000D01*
G75*
G02*
X69450000Y-141100000I0J250000D01*
G01*
X69450000Y-138100000D01*
G75*
G02*
X69700000Y-137850000I250000J0D01*
G01*
X70800000Y-137850000D01*
G75*
G02*
X71050000Y-138100000I0J-250000D01*
G01*
X71050000Y-141100000D01*
G75*
G02*
X70800000Y-141350000I-250000J0D01*
G01*
G37*
G36*
G01*
X70800000Y-146750000D02*
X69700000Y-146750000D01*
G75*
G02*
X69450000Y-146500000I0J250000D01*
G01*
X69450000Y-143500000D01*
G75*
G02*
X69700000Y-143250000I250000J0D01*
G01*
X70800000Y-143250000D01*
G75*
G02*
X71050000Y-143500000I0J-250000D01*
G01*
X71050000Y-146500000D01*
G75*
G02*
X70800000Y-146750000I-250000J0D01*
G01*
G37*
%TD*%
%TO.C,C4*%
G36*
G01*
X78300000Y-141350000D02*
X77200000Y-141350000D01*
G75*
G02*
X76950000Y-141100000I0J250000D01*
G01*
X76950000Y-138100000D01*
G75*
G02*
X77200000Y-137850000I250000J0D01*
G01*
X78300000Y-137850000D01*
G75*
G02*
X78550000Y-138100000I0J-250000D01*
G01*
X78550000Y-141100000D01*
G75*
G02*
X78300000Y-141350000I-250000J0D01*
G01*
G37*
G36*
G01*
X78300000Y-146750000D02*
X77200000Y-146750000D01*
G75*
G02*
X76950000Y-146500000I0J250000D01*
G01*
X76950000Y-143500000D01*
G75*
G02*
X77200000Y-143250000I250000J0D01*
G01*
X78300000Y-143250000D01*
G75*
G02*
X78550000Y-143500000I0J-250000D01*
G01*
X78550000Y-146500000D01*
G75*
G02*
X78300000Y-146750000I-250000J0D01*
G01*
G37*
%TD*%
%TO.C,C3*%
G36*
G01*
X98312500Y-126256250D02*
X98312500Y-125743750D01*
G75*
G02*
X98531250Y-125525000I218750J0D01*
G01*
X98968750Y-125525000D01*
G75*
G02*
X99187500Y-125743750I0J-218750D01*
G01*
X99187500Y-126256250D01*
G75*
G02*
X98968750Y-126475000I-218750J0D01*
G01*
X98531250Y-126475000D01*
G75*
G02*
X98312500Y-126256250I0J218750D01*
G01*
G37*
G36*
G01*
X96737500Y-126256250D02*
X96737500Y-125743750D01*
G75*
G02*
X96956250Y-125525000I218750J0D01*
G01*
X97393750Y-125525000D01*
G75*
G02*
X97612500Y-125743750I0J-218750D01*
G01*
X97612500Y-126256250D01*
G75*
G02*
X97393750Y-126475000I-218750J0D01*
G01*
X96956250Y-126475000D01*
G75*
G02*
X96737500Y-126256250I0J218750D01*
G01*
G37*
%TD*%
%TO.C,C2*%
G36*
G01*
X98350000Y-148756250D02*
X98350000Y-148243750D01*
G75*
G02*
X98568750Y-148025000I218750J0D01*
G01*
X99006250Y-148025000D01*
G75*
G02*
X99225000Y-148243750I0J-218750D01*
G01*
X99225000Y-148756250D01*
G75*
G02*
X99006250Y-148975000I-218750J0D01*
G01*
X98568750Y-148975000D01*
G75*
G02*
X98350000Y-148756250I0J218750D01*
G01*
G37*
G36*
G01*
X96775000Y-148756250D02*
X96775000Y-148243750D01*
G75*
G02*
X96993750Y-148025000I218750J0D01*
G01*
X97431250Y-148025000D01*
G75*
G02*
X97650000Y-148243750I0J-218750D01*
G01*
X97650000Y-148756250D01*
G75*
G02*
X97431250Y-148975000I-218750J0D01*
G01*
X96993750Y-148975000D01*
G75*
G02*
X96775000Y-148756250I0J218750D01*
G01*
G37*
%TD*%
%TO.C,C1*%
G36*
G01*
X61662500Y-138156250D02*
X61662500Y-137643750D01*
G75*
G02*
X61881250Y-137425000I218750J0D01*
G01*
X62318750Y-137425000D01*
G75*
G02*
X62537500Y-137643750I0J-218750D01*
G01*
X62537500Y-138156250D01*
G75*
G02*
X62318750Y-138375000I-218750J0D01*
G01*
X61881250Y-138375000D01*
G75*
G02*
X61662500Y-138156250I0J218750D01*
G01*
G37*
G36*
G01*
X60087500Y-138156250D02*
X60087500Y-137643750D01*
G75*
G02*
X60306250Y-137425000I218750J0D01*
G01*
X60743750Y-137425000D01*
G75*
G02*
X60962500Y-137643750I0J-218750D01*
G01*
X60962500Y-138156250D01*
G75*
G02*
X60743750Y-138375000I-218750J0D01*
G01*
X60306250Y-138375000D01*
G75*
G02*
X60087500Y-138156250I0J218750D01*
G01*
G37*
%TD*%
M02*
