%TF.GenerationSoftware,KiCad,Pcbnew,(5.1.6)-1*%
%TF.CreationDate,2020-12-14T06:54:32-07:00*%
%TF.ProjectId,DDS,4444532e-6b69-4636-9164-5f7063625858,rev?*%
%TF.SameCoordinates,Original*%
%TF.FileFunction,Legend,Bot*%
%TF.FilePolarity,Positive*%
%FSLAX46Y46*%
G04 Gerber Fmt 4.6, Leading zero omitted, Abs format (unit mm)*
G04 Created by KiCad (PCBNEW (5.1.6)-1) date 2020-12-14 06:54:32*
%MOMM*%
%LPD*%
G01*
G04 APERTURE LIST*
%ADD10C,0.100000*%
%ADD11C,0.150000*%
%ADD12C,0.300000*%
%ADD13C,0.400000*%
%ADD14C,0.120000*%
G04 APERTURE END LIST*
D10*
D11*
X177002200Y-166007200D02*
X177002200Y-198007200D01*
X285002200Y-198007200D01*
X285002200Y-166007200D01*
X177002200Y-166007200D01*
D10*
D11*
X10000000Y-10000000D02*
X10000000Y-200007200D01*
X287002200Y-200007200D01*
X287002200Y-10000000D01*
X10000000Y-10000000D01*
D10*
D11*
X12000000Y-12000000D02*
X12000000Y-198007200D01*
X285002200Y-198007200D01*
X285002200Y-12000000D01*
X12000000Y-12000000D01*
D10*
D11*
X60000000Y-12000000D02*
X60000000Y-10000000D01*
D10*
D11*
X110000000Y-12000000D02*
X110000000Y-10000000D01*
D10*
D11*
X160000000Y-12000000D02*
X160000000Y-10000000D01*
D10*
D11*
X210000000Y-12000000D02*
X210000000Y-10000000D01*
D10*
D11*
X260000000Y-12000000D02*
X260000000Y-10000000D01*
D10*
D11*
X36065476Y-11588095D02*
X35322619Y-11588095D01*
X35694047Y-11588095D02*
X35694047Y-10288095D01*
X35570238Y-10473809D01*
X35446428Y-10597619D01*
X35322619Y-10659523D01*
D10*
D11*
X85322619Y-10411904D02*
X85384523Y-10350000D01*
X85508333Y-10288095D01*
X85817857Y-10288095D01*
X85941666Y-10350000D01*
X86003571Y-10411904D01*
X86065476Y-10535714D01*
X86065476Y-10659523D01*
X86003571Y-10845238D01*
X85260714Y-11588095D01*
X86065476Y-11588095D01*
D10*
D11*
X135260714Y-10288095D02*
X136065476Y-10288095D01*
X135632142Y-10783333D01*
X135817857Y-10783333D01*
X135941666Y-10845238D01*
X136003571Y-10907142D01*
X136065476Y-11030952D01*
X136065476Y-11340476D01*
X136003571Y-11464285D01*
X135941666Y-11526190D01*
X135817857Y-11588095D01*
X135446428Y-11588095D01*
X135322619Y-11526190D01*
X135260714Y-11464285D01*
D10*
D11*
X185941666Y-10721428D02*
X185941666Y-11588095D01*
X185632142Y-10226190D02*
X185322619Y-11154761D01*
X186127380Y-11154761D01*
D10*
D11*
X236003571Y-10288095D02*
X235384523Y-10288095D01*
X235322619Y-10907142D01*
X235384523Y-10845238D01*
X235508333Y-10783333D01*
X235817857Y-10783333D01*
X235941666Y-10845238D01*
X236003571Y-10907142D01*
X236065476Y-11030952D01*
X236065476Y-11340476D01*
X236003571Y-11464285D01*
X235941666Y-11526190D01*
X235817857Y-11588095D01*
X235508333Y-11588095D01*
X235384523Y-11526190D01*
X235322619Y-11464285D01*
D10*
D11*
X285941666Y-10288095D02*
X285694047Y-10288095D01*
X285570238Y-10350000D01*
X285508333Y-10411904D01*
X285384523Y-10597619D01*
X285322619Y-10845238D01*
X285322619Y-11340476D01*
X285384523Y-11464285D01*
X285446428Y-11526190D01*
X285570238Y-11588095D01*
X285817857Y-11588095D01*
X285941666Y-11526190D01*
X286003571Y-11464285D01*
X286065476Y-11340476D01*
X286065476Y-11030952D01*
X286003571Y-10907142D01*
X285941666Y-10845238D01*
X285817857Y-10783333D01*
X285570238Y-10783333D01*
X285446428Y-10845238D01*
X285384523Y-10907142D01*
X285322619Y-11030952D01*
D10*
D11*
X60000000Y-198007200D02*
X60000000Y-200007200D01*
D10*
D11*
X110000000Y-198007200D02*
X110000000Y-200007200D01*
D10*
D11*
X160000000Y-198007200D02*
X160000000Y-200007200D01*
D10*
D11*
X210000000Y-198007200D02*
X210000000Y-200007200D01*
D10*
D11*
X260000000Y-198007200D02*
X260000000Y-200007200D01*
D10*
D11*
X36065476Y-199595295D02*
X35322619Y-199595295D01*
X35694047Y-199595295D02*
X35694047Y-198295295D01*
X35570238Y-198481009D01*
X35446428Y-198604819D01*
X35322619Y-198666723D01*
D10*
D11*
X85322619Y-198419104D02*
X85384523Y-198357200D01*
X85508333Y-198295295D01*
X85817857Y-198295295D01*
X85941666Y-198357200D01*
X86003571Y-198419104D01*
X86065476Y-198542914D01*
X86065476Y-198666723D01*
X86003571Y-198852438D01*
X85260714Y-199595295D01*
X86065476Y-199595295D01*
D10*
D11*
X135260714Y-198295295D02*
X136065476Y-198295295D01*
X135632142Y-198790533D01*
X135817857Y-198790533D01*
X135941666Y-198852438D01*
X136003571Y-198914342D01*
X136065476Y-199038152D01*
X136065476Y-199347676D01*
X136003571Y-199471485D01*
X135941666Y-199533390D01*
X135817857Y-199595295D01*
X135446428Y-199595295D01*
X135322619Y-199533390D01*
X135260714Y-199471485D01*
D10*
D11*
X185941666Y-198728628D02*
X185941666Y-199595295D01*
X185632142Y-198233390D02*
X185322619Y-199161961D01*
X186127380Y-199161961D01*
D10*
D11*
X236003571Y-198295295D02*
X235384523Y-198295295D01*
X235322619Y-198914342D01*
X235384523Y-198852438D01*
X235508333Y-198790533D01*
X235817857Y-198790533D01*
X235941666Y-198852438D01*
X236003571Y-198914342D01*
X236065476Y-199038152D01*
X236065476Y-199347676D01*
X236003571Y-199471485D01*
X235941666Y-199533390D01*
X235817857Y-199595295D01*
X235508333Y-199595295D01*
X235384523Y-199533390D01*
X235322619Y-199471485D01*
D10*
D11*
X285941666Y-198295295D02*
X285694047Y-198295295D01*
X285570238Y-198357200D01*
X285508333Y-198419104D01*
X285384523Y-198604819D01*
X285322619Y-198852438D01*
X285322619Y-199347676D01*
X285384523Y-199471485D01*
X285446428Y-199533390D01*
X285570238Y-199595295D01*
X285817857Y-199595295D01*
X285941666Y-199533390D01*
X286003571Y-199471485D01*
X286065476Y-199347676D01*
X286065476Y-199038152D01*
X286003571Y-198914342D01*
X285941666Y-198852438D01*
X285817857Y-198790533D01*
X285570238Y-198790533D01*
X285446428Y-198852438D01*
X285384523Y-198914342D01*
X285322619Y-199038152D01*
D10*
D11*
X10000000Y-60000000D02*
X12000000Y-60000000D01*
D10*
D11*
X10000000Y-110000000D02*
X12000000Y-110000000D01*
D10*
D11*
X10000000Y-160000000D02*
X12000000Y-160000000D01*
D10*
D11*
X10690476Y-35216666D02*
X11309523Y-35216666D01*
X10566666Y-35588095D02*
X11000000Y-34288095D01*
X11433333Y-35588095D01*
D10*
D11*
X11092857Y-84907142D02*
X11278571Y-84969047D01*
X11340476Y-85030952D01*
X11402380Y-85154761D01*
X11402380Y-85340476D01*
X11340476Y-85464285D01*
X11278571Y-85526190D01*
X11154761Y-85588095D01*
X10659523Y-85588095D01*
X10659523Y-84288095D01*
X11092857Y-84288095D01*
X11216666Y-84350000D01*
X11278571Y-84411904D01*
X11340476Y-84535714D01*
X11340476Y-84659523D01*
X11278571Y-84783333D01*
X11216666Y-84845238D01*
X11092857Y-84907142D01*
X10659523Y-84907142D01*
D10*
D11*
X11402380Y-135464285D02*
X11340476Y-135526190D01*
X11154761Y-135588095D01*
X11030952Y-135588095D01*
X10845238Y-135526190D01*
X10721428Y-135402380D01*
X10659523Y-135278571D01*
X10597619Y-135030952D01*
X10597619Y-134845238D01*
X10659523Y-134597619D01*
X10721428Y-134473809D01*
X10845238Y-134350000D01*
X11030952Y-134288095D01*
X11154761Y-134288095D01*
X11340476Y-134350000D01*
X11402380Y-134411904D01*
D10*
D11*
X10659523Y-185588095D02*
X10659523Y-184288095D01*
X10969047Y-184288095D01*
X11154761Y-184350000D01*
X11278571Y-184473809D01*
X11340476Y-184597619D01*
X11402380Y-184845238D01*
X11402380Y-185030952D01*
X11340476Y-185278571D01*
X11278571Y-185402380D01*
X11154761Y-185526190D01*
X10969047Y-185588095D01*
X10659523Y-185588095D01*
D10*
D11*
X287002200Y-60000000D02*
X285002200Y-60000000D01*
D10*
D11*
X287002200Y-110000000D02*
X285002200Y-110000000D01*
D10*
D11*
X287002200Y-160000000D02*
X285002200Y-160000000D01*
D10*
D11*
X285692676Y-35216666D02*
X286311723Y-35216666D01*
X285568866Y-35588095D02*
X286002200Y-34288095D01*
X286435533Y-35588095D01*
D10*
D11*
X286095057Y-84907142D02*
X286280771Y-84969047D01*
X286342676Y-85030952D01*
X286404580Y-85154761D01*
X286404580Y-85340476D01*
X286342676Y-85464285D01*
X286280771Y-85526190D01*
X286156961Y-85588095D01*
X285661723Y-85588095D01*
X285661723Y-84288095D01*
X286095057Y-84288095D01*
X286218866Y-84350000D01*
X286280771Y-84411904D01*
X286342676Y-84535714D01*
X286342676Y-84659523D01*
X286280771Y-84783333D01*
X286218866Y-84845238D01*
X286095057Y-84907142D01*
X285661723Y-84907142D01*
D10*
D11*
X286404580Y-135464285D02*
X286342676Y-135526190D01*
X286156961Y-135588095D01*
X286033152Y-135588095D01*
X285847438Y-135526190D01*
X285723628Y-135402380D01*
X285661723Y-135278571D01*
X285599819Y-135030952D01*
X285599819Y-134845238D01*
X285661723Y-134597619D01*
X285723628Y-134473809D01*
X285847438Y-134350000D01*
X286033152Y-134288095D01*
X286156961Y-134288095D01*
X286342676Y-134350000D01*
X286404580Y-134411904D01*
D10*
D11*
X285661723Y-185588095D02*
X285661723Y-184288095D01*
X285971247Y-184288095D01*
X286156961Y-184350000D01*
X286280771Y-184473809D01*
X286342676Y-184597619D01*
X286404580Y-184845238D01*
X286404580Y-185030952D01*
X286342676Y-185278571D01*
X286280771Y-185402380D01*
X286156961Y-185526190D01*
X285971247Y-185588095D01*
X285661723Y-185588095D01*
D10*
D11*
X200434342Y-193785771D02*
X200434342Y-192285771D01*
X200791485Y-192285771D01*
X201005771Y-192357200D01*
X201148628Y-192500057D01*
X201220057Y-192642914D01*
X201291485Y-192928628D01*
X201291485Y-193142914D01*
X201220057Y-193428628D01*
X201148628Y-193571485D01*
X201005771Y-193714342D01*
X200791485Y-193785771D01*
X200434342Y-193785771D01*
X202577200Y-193785771D02*
X202577200Y-193000057D01*
X202505771Y-192857200D01*
X202362914Y-192785771D01*
X202077200Y-192785771D01*
X201934342Y-192857200D01*
X202577200Y-193714342D02*
X202434342Y-193785771D01*
X202077200Y-193785771D01*
X201934342Y-193714342D01*
X201862914Y-193571485D01*
X201862914Y-193428628D01*
X201934342Y-193285771D01*
X202077200Y-193214342D01*
X202434342Y-193214342D01*
X202577200Y-193142914D01*
X203077200Y-192785771D02*
X203648628Y-192785771D01*
X203291485Y-192285771D02*
X203291485Y-193571485D01*
X203362914Y-193714342D01*
X203505771Y-193785771D01*
X203648628Y-193785771D01*
X204720057Y-193714342D02*
X204577200Y-193785771D01*
X204291485Y-193785771D01*
X204148628Y-193714342D01*
X204077200Y-193571485D01*
X204077200Y-193000057D01*
X204148628Y-192857200D01*
X204291485Y-192785771D01*
X204577200Y-192785771D01*
X204720057Y-192857200D01*
X204791485Y-193000057D01*
X204791485Y-193142914D01*
X204077200Y-193285771D01*
X205434342Y-193642914D02*
X205505771Y-193714342D01*
X205434342Y-193785771D01*
X205362914Y-193714342D01*
X205434342Y-193642914D01*
X205434342Y-193785771D01*
X205434342Y-192857200D02*
X205505771Y-192928628D01*
X205434342Y-193000057D01*
X205362914Y-192928628D01*
X205434342Y-192857200D01*
X205434342Y-193000057D01*
D10*
D11*
X177002200Y-194507200D02*
X285002200Y-194507200D01*
D10*
D11*
X178434342Y-196585771D02*
X178434342Y-195085771D01*
X179291485Y-196585771D02*
X178648628Y-195728628D01*
X179291485Y-195085771D02*
X178434342Y-195942914D01*
X179934342Y-196585771D02*
X179934342Y-195585771D01*
X179934342Y-195085771D02*
X179862914Y-195157200D01*
X179934342Y-195228628D01*
X180005771Y-195157200D01*
X179934342Y-195085771D01*
X179934342Y-195228628D01*
X181505771Y-196442914D02*
X181434342Y-196514342D01*
X181220057Y-196585771D01*
X181077200Y-196585771D01*
X180862914Y-196514342D01*
X180720057Y-196371485D01*
X180648628Y-196228628D01*
X180577200Y-195942914D01*
X180577200Y-195728628D01*
X180648628Y-195442914D01*
X180720057Y-195300057D01*
X180862914Y-195157200D01*
X181077200Y-195085771D01*
X181220057Y-195085771D01*
X181434342Y-195157200D01*
X181505771Y-195228628D01*
X182791485Y-196585771D02*
X182791485Y-195800057D01*
X182720057Y-195657200D01*
X182577200Y-195585771D01*
X182291485Y-195585771D01*
X182148628Y-195657200D01*
X182791485Y-196514342D02*
X182648628Y-196585771D01*
X182291485Y-196585771D01*
X182148628Y-196514342D01*
X182077200Y-196371485D01*
X182077200Y-196228628D01*
X182148628Y-196085771D01*
X182291485Y-196014342D01*
X182648628Y-196014342D01*
X182791485Y-195942914D01*
X184148628Y-196585771D02*
X184148628Y-195085771D01*
X184148628Y-196514342D02*
X184005771Y-196585771D01*
X183720057Y-196585771D01*
X183577200Y-196514342D01*
X183505771Y-196442914D01*
X183434342Y-196300057D01*
X183434342Y-195871485D01*
X183505771Y-195728628D01*
X183577200Y-195657200D01*
X183720057Y-195585771D01*
X184005771Y-195585771D01*
X184148628Y-195657200D01*
X186005771Y-195800057D02*
X186505771Y-195800057D01*
X186720057Y-196585771D02*
X186005771Y-196585771D01*
X186005771Y-195085771D01*
X186720057Y-195085771D01*
X187362914Y-196442914D02*
X187434342Y-196514342D01*
X187362914Y-196585771D01*
X187291485Y-196514342D01*
X187362914Y-196442914D01*
X187362914Y-196585771D01*
X188077200Y-196585771D02*
X188077200Y-195085771D01*
X188434342Y-195085771D01*
X188648628Y-195157200D01*
X188791485Y-195300057D01*
X188862914Y-195442914D01*
X188934342Y-195728628D01*
X188934342Y-195942914D01*
X188862914Y-196228628D01*
X188791485Y-196371485D01*
X188648628Y-196514342D01*
X188434342Y-196585771D01*
X188077200Y-196585771D01*
X189577200Y-196442914D02*
X189648628Y-196514342D01*
X189577200Y-196585771D01*
X189505771Y-196514342D01*
X189577200Y-196442914D01*
X189577200Y-196585771D01*
X190220057Y-196157200D02*
X190934342Y-196157200D01*
X190077200Y-196585771D02*
X190577200Y-195085771D01*
X191077200Y-196585771D01*
X191577200Y-196442914D02*
X191648628Y-196514342D01*
X191577200Y-196585771D01*
X191505771Y-196514342D01*
X191577200Y-196442914D01*
X191577200Y-196585771D01*
X194577200Y-196585771D02*
X194577200Y-195085771D01*
X194720057Y-196014342D02*
X195148628Y-196585771D01*
X195148628Y-195585771D02*
X194577200Y-196157200D01*
X195791485Y-196585771D02*
X195791485Y-195585771D01*
X195791485Y-195085771D02*
X195720057Y-195157200D01*
X195791485Y-195228628D01*
X195862914Y-195157200D01*
X195791485Y-195085771D01*
X195791485Y-195228628D01*
X197148628Y-196514342D02*
X197005771Y-196585771D01*
X196720057Y-196585771D01*
X196577200Y-196514342D01*
X196505771Y-196442914D01*
X196434342Y-196300057D01*
X196434342Y-195871485D01*
X196505771Y-195728628D01*
X196577200Y-195657200D01*
X196720057Y-195585771D01*
X197005771Y-195585771D01*
X197148628Y-195657200D01*
X198434342Y-196585771D02*
X198434342Y-195800057D01*
X198362914Y-195657200D01*
X198220057Y-195585771D01*
X197934342Y-195585771D01*
X197791485Y-195657200D01*
X198434342Y-196514342D02*
X198291485Y-196585771D01*
X197934342Y-196585771D01*
X197791485Y-196514342D01*
X197720057Y-196371485D01*
X197720057Y-196228628D01*
X197791485Y-196085771D01*
X197934342Y-196014342D01*
X198291485Y-196014342D01*
X198434342Y-195942914D01*
X199791485Y-196585771D02*
X199791485Y-195085771D01*
X199791485Y-196514342D02*
X199648628Y-196585771D01*
X199362914Y-196585771D01*
X199220057Y-196514342D01*
X199148628Y-196442914D01*
X199077200Y-196300057D01*
X199077200Y-195871485D01*
X199148628Y-195728628D01*
X199220057Y-195657200D01*
X199362914Y-195585771D01*
X199648628Y-195585771D01*
X199791485Y-195657200D01*
X202077200Y-197157200D02*
X202005771Y-197085771D01*
X201862914Y-196871485D01*
X201791485Y-196728628D01*
X201720057Y-196514342D01*
X201648628Y-196157200D01*
X201648628Y-195871485D01*
X201720057Y-195514342D01*
X201791485Y-195300057D01*
X201862914Y-195157200D01*
X202005771Y-194942914D01*
X202077200Y-194871485D01*
X203362914Y-195085771D02*
X202648628Y-195085771D01*
X202577200Y-195800057D01*
X202648628Y-195728628D01*
X202791485Y-195657200D01*
X203148628Y-195657200D01*
X203291485Y-195728628D01*
X203362914Y-195800057D01*
X203434342Y-195942914D01*
X203434342Y-196300057D01*
X203362914Y-196442914D01*
X203291485Y-196514342D01*
X203148628Y-196585771D01*
X202791485Y-196585771D01*
X202648628Y-196514342D01*
X202577200Y-196442914D01*
X204077200Y-196442914D02*
X204148628Y-196514342D01*
X204077200Y-196585771D01*
X204005771Y-196514342D01*
X204077200Y-196442914D01*
X204077200Y-196585771D01*
X205577200Y-196585771D02*
X204720057Y-196585771D01*
X205148628Y-196585771D02*
X205148628Y-195085771D01*
X205005771Y-195300057D01*
X204862914Y-195442914D01*
X204720057Y-195514342D01*
X206220057Y-196442914D02*
X206291485Y-196514342D01*
X206220057Y-196585771D01*
X206148628Y-196514342D01*
X206220057Y-196442914D01*
X206220057Y-196585771D01*
X207577200Y-195085771D02*
X207291485Y-195085771D01*
X207148628Y-195157200D01*
X207077200Y-195228628D01*
X206934342Y-195442914D01*
X206862914Y-195728628D01*
X206862914Y-196300057D01*
X206934342Y-196442914D01*
X207005771Y-196514342D01*
X207148628Y-196585771D01*
X207434342Y-196585771D01*
X207577200Y-196514342D01*
X207648628Y-196442914D01*
X207720057Y-196300057D01*
X207720057Y-195942914D01*
X207648628Y-195800057D01*
X207577200Y-195728628D01*
X207434342Y-195657200D01*
X207148628Y-195657200D01*
X207005771Y-195728628D01*
X206934342Y-195800057D01*
X206862914Y-195942914D01*
X208220057Y-197157200D02*
X208291485Y-197085771D01*
X208434342Y-196871485D01*
X208505771Y-196728628D01*
X208577200Y-196514342D01*
X208648628Y-196157200D01*
X208648628Y-195871485D01*
X208577200Y-195514342D01*
X208505771Y-195300057D01*
X208434342Y-195157200D01*
X208291485Y-194942914D01*
X208220057Y-194871485D01*
X209362914Y-196014342D02*
X210505771Y-196014342D01*
X212005771Y-196585771D02*
X211148628Y-196585771D01*
X211577200Y-196585771D02*
X211577200Y-195085771D01*
X211434342Y-195300057D01*
X211291485Y-195442914D01*
X211148628Y-195514342D01*
D10*
D11*
X177002200Y-191507200D02*
X285002200Y-191507200D01*
D10*
D12*
X264411485Y-193785771D02*
X263911485Y-193071485D01*
X263554342Y-193785771D02*
X263554342Y-192285771D01*
X264125771Y-192285771D01*
X264268628Y-192357200D01*
X264340057Y-192428628D01*
X264411485Y-192571485D01*
X264411485Y-192785771D01*
X264340057Y-192928628D01*
X264268628Y-193000057D01*
X264125771Y-193071485D01*
X263554342Y-193071485D01*
X265625771Y-193714342D02*
X265482914Y-193785771D01*
X265197200Y-193785771D01*
X265054342Y-193714342D01*
X264982914Y-193571485D01*
X264982914Y-193000057D01*
X265054342Y-192857200D01*
X265197200Y-192785771D01*
X265482914Y-192785771D01*
X265625771Y-192857200D01*
X265697200Y-193000057D01*
X265697200Y-193142914D01*
X264982914Y-193285771D01*
X266197200Y-192785771D02*
X266554342Y-193785771D01*
X266911485Y-192785771D01*
X267482914Y-193642914D02*
X267554342Y-193714342D01*
X267482914Y-193785771D01*
X267411485Y-193714342D01*
X267482914Y-193642914D01*
X267482914Y-193785771D01*
X267482914Y-192857200D02*
X267554342Y-192928628D01*
X267482914Y-193000057D01*
X267411485Y-192928628D01*
X267482914Y-192857200D01*
X267482914Y-193000057D01*
D10*
D11*
X178362914Y-193714342D02*
X178577200Y-193785771D01*
X178934342Y-193785771D01*
X179077200Y-193714342D01*
X179148628Y-193642914D01*
X179220057Y-193500057D01*
X179220057Y-193357200D01*
X179148628Y-193214342D01*
X179077200Y-193142914D01*
X178934342Y-193071485D01*
X178648628Y-193000057D01*
X178505771Y-192928628D01*
X178434342Y-192857200D01*
X178362914Y-192714342D01*
X178362914Y-192571485D01*
X178434342Y-192428628D01*
X178505771Y-192357200D01*
X178648628Y-192285771D01*
X179005771Y-192285771D01*
X179220057Y-192357200D01*
X179862914Y-193785771D02*
X179862914Y-192785771D01*
X179862914Y-192285771D02*
X179791485Y-192357200D01*
X179862914Y-192428628D01*
X179934342Y-192357200D01*
X179862914Y-192285771D01*
X179862914Y-192428628D01*
X180434342Y-192785771D02*
X181220057Y-192785771D01*
X180434342Y-193785771D01*
X181220057Y-193785771D01*
X182362914Y-193714342D02*
X182220057Y-193785771D01*
X181934342Y-193785771D01*
X181791485Y-193714342D01*
X181720057Y-193571485D01*
X181720057Y-193000057D01*
X181791485Y-192857200D01*
X181934342Y-192785771D01*
X182220057Y-192785771D01*
X182362914Y-192857200D01*
X182434342Y-193000057D01*
X182434342Y-193142914D01*
X181720057Y-193285771D01*
X183077200Y-193642914D02*
X183148628Y-193714342D01*
X183077200Y-193785771D01*
X183005771Y-193714342D01*
X183077200Y-193642914D01*
X183077200Y-193785771D01*
X183077200Y-192857200D02*
X183148628Y-192928628D01*
X183077200Y-193000057D01*
X183005771Y-192928628D01*
X183077200Y-192857200D01*
X183077200Y-193000057D01*
X184862914Y-193357200D02*
X185577200Y-193357200D01*
X184720057Y-193785771D02*
X185220057Y-192285771D01*
X185720057Y-193785771D01*
X186862914Y-192785771D02*
X186862914Y-193785771D01*
X186505771Y-192214342D02*
X186148628Y-193285771D01*
X187077200Y-193285771D01*
D10*
D11*
X263434342Y-196585771D02*
X263434342Y-195085771D01*
X264791485Y-196585771D02*
X264791485Y-195085771D01*
X264791485Y-196514342D02*
X264648628Y-196585771D01*
X264362914Y-196585771D01*
X264220057Y-196514342D01*
X264148628Y-196442914D01*
X264077200Y-196300057D01*
X264077200Y-195871485D01*
X264148628Y-195728628D01*
X264220057Y-195657200D01*
X264362914Y-195585771D01*
X264648628Y-195585771D01*
X264791485Y-195657200D01*
X265505771Y-196442914D02*
X265577200Y-196514342D01*
X265505771Y-196585771D01*
X265434342Y-196514342D01*
X265505771Y-196442914D01*
X265505771Y-196585771D01*
X265505771Y-195657200D02*
X265577200Y-195728628D01*
X265505771Y-195800057D01*
X265434342Y-195728628D01*
X265505771Y-195657200D01*
X265505771Y-195800057D01*
X268148628Y-196585771D02*
X267291485Y-196585771D01*
X267720057Y-196585771D02*
X267720057Y-195085771D01*
X267577200Y-195300057D01*
X267434342Y-195442914D01*
X267291485Y-195514342D01*
X269862914Y-195014342D02*
X268577200Y-196942914D01*
X271148628Y-196585771D02*
X270291485Y-196585771D01*
X270720057Y-196585771D02*
X270720057Y-195085771D01*
X270577200Y-195300057D01*
X270434342Y-195442914D01*
X270291485Y-195514342D01*
D10*
D11*
X177002200Y-187507200D02*
X285002200Y-187507200D01*
D10*
D13*
X178714580Y-188211961D02*
X179857438Y-188211961D01*
X179036009Y-190211961D02*
X179286009Y-188211961D01*
X180274104Y-190211961D02*
X180440771Y-188878628D01*
X180524104Y-188211961D02*
X180416961Y-188307200D01*
X180500295Y-188402438D01*
X180607438Y-188307200D01*
X180524104Y-188211961D01*
X180500295Y-188402438D01*
X181107438Y-188878628D02*
X181869342Y-188878628D01*
X181476485Y-188211961D02*
X181262200Y-189926247D01*
X181333628Y-190116723D01*
X181512200Y-190211961D01*
X181702676Y-190211961D01*
X182655057Y-190211961D02*
X182476485Y-190116723D01*
X182405057Y-189926247D01*
X182619342Y-188211961D01*
X184190771Y-190116723D02*
X183988390Y-190211961D01*
X183607438Y-190211961D01*
X183428866Y-190116723D01*
X183357438Y-189926247D01*
X183452676Y-189164342D01*
X183571723Y-188973866D01*
X183774104Y-188878628D01*
X184155057Y-188878628D01*
X184333628Y-188973866D01*
X184405057Y-189164342D01*
X184381247Y-189354819D01*
X183405057Y-189545295D01*
X185155057Y-190021485D02*
X185238390Y-190116723D01*
X185131247Y-190211961D01*
X185047914Y-190116723D01*
X185155057Y-190021485D01*
X185131247Y-190211961D01*
X185286009Y-188973866D02*
X185369342Y-189069104D01*
X185262200Y-189164342D01*
X185178866Y-189069104D01*
X185286009Y-188973866D01*
X185262200Y-189164342D01*
D10*
D11*
X178934342Y-185600057D02*
X178434342Y-185600057D01*
X178434342Y-186385771D02*
X178434342Y-184885771D01*
X179148628Y-184885771D01*
X179720057Y-186385771D02*
X179720057Y-185385771D01*
X179720057Y-184885771D02*
X179648628Y-184957200D01*
X179720057Y-185028628D01*
X179791485Y-184957200D01*
X179720057Y-184885771D01*
X179720057Y-185028628D01*
X180648628Y-186385771D02*
X180505771Y-186314342D01*
X180434342Y-186171485D01*
X180434342Y-184885771D01*
X181791485Y-186314342D02*
X181648628Y-186385771D01*
X181362914Y-186385771D01*
X181220057Y-186314342D01*
X181148628Y-186171485D01*
X181148628Y-185600057D01*
X181220057Y-185457200D01*
X181362914Y-185385771D01*
X181648628Y-185385771D01*
X181791485Y-185457200D01*
X181862914Y-185600057D01*
X181862914Y-185742914D01*
X181148628Y-185885771D01*
X182505771Y-186242914D02*
X182577200Y-186314342D01*
X182505771Y-186385771D01*
X182434342Y-186314342D01*
X182505771Y-186242914D01*
X182505771Y-186385771D01*
X182505771Y-185457200D02*
X182577200Y-185528628D01*
X182505771Y-185600057D01*
X182434342Y-185528628D01*
X182505771Y-185457200D01*
X182505771Y-185600057D01*
X184362914Y-186385771D02*
X184362914Y-184885771D01*
X184720057Y-184885771D01*
X184934342Y-184957200D01*
X185077200Y-185100057D01*
X185148628Y-185242914D01*
X185220057Y-185528628D01*
X185220057Y-185742914D01*
X185148628Y-186028628D01*
X185077200Y-186171485D01*
X184934342Y-186314342D01*
X184720057Y-186385771D01*
X184362914Y-186385771D01*
X185862914Y-186385771D02*
X185862914Y-184885771D01*
X186220057Y-184885771D01*
X186434342Y-184957200D01*
X186577200Y-185100057D01*
X186648628Y-185242914D01*
X186720057Y-185528628D01*
X186720057Y-185742914D01*
X186648628Y-186028628D01*
X186577200Y-186171485D01*
X186434342Y-186314342D01*
X186220057Y-186385771D01*
X185862914Y-186385771D01*
X187291485Y-186314342D02*
X187505771Y-186385771D01*
X187862914Y-186385771D01*
X188005771Y-186314342D01*
X188077200Y-186242914D01*
X188148628Y-186100057D01*
X188148628Y-185957200D01*
X188077200Y-185814342D01*
X188005771Y-185742914D01*
X187862914Y-185671485D01*
X187577200Y-185600057D01*
X187434342Y-185528628D01*
X187362914Y-185457200D01*
X187291485Y-185314342D01*
X187291485Y-185171485D01*
X187362914Y-185028628D01*
X187434342Y-184957200D01*
X187577200Y-184885771D01*
X187934342Y-184885771D01*
X188148628Y-184957200D01*
X188791485Y-186242914D02*
X188862914Y-186314342D01*
X188791485Y-186385771D01*
X188720057Y-186314342D01*
X188791485Y-186242914D01*
X188791485Y-186385771D01*
X189505771Y-186385771D02*
X189505771Y-184885771D01*
X189648628Y-185814342D02*
X190077200Y-186385771D01*
X190077200Y-185385771D02*
X189505771Y-185957200D01*
X190720057Y-186385771D02*
X190720057Y-185385771D01*
X190720057Y-184885771D02*
X190648628Y-184957200D01*
X190720057Y-185028628D01*
X190791485Y-184957200D01*
X190720057Y-184885771D01*
X190720057Y-185028628D01*
X192077200Y-186314342D02*
X191934342Y-186385771D01*
X191648628Y-186385771D01*
X191505771Y-186314342D01*
X191434342Y-186242914D01*
X191362914Y-186100057D01*
X191362914Y-185671485D01*
X191434342Y-185528628D01*
X191505771Y-185457200D01*
X191648628Y-185385771D01*
X191934342Y-185385771D01*
X192077200Y-185457200D01*
X193362914Y-186385771D02*
X193362914Y-185600057D01*
X193291485Y-185457200D01*
X193148628Y-185385771D01*
X192862914Y-185385771D01*
X192720057Y-185457200D01*
X193362914Y-186314342D02*
X193220057Y-186385771D01*
X192862914Y-186385771D01*
X192720057Y-186314342D01*
X192648628Y-186171485D01*
X192648628Y-186028628D01*
X192720057Y-185885771D01*
X192862914Y-185814342D01*
X193220057Y-185814342D01*
X193362914Y-185742914D01*
X194720057Y-186385771D02*
X194720057Y-184885771D01*
X194720057Y-186314342D02*
X194577200Y-186385771D01*
X194291485Y-186385771D01*
X194148628Y-186314342D01*
X194077200Y-186242914D01*
X194005771Y-186100057D01*
X194005771Y-185671485D01*
X194077200Y-185528628D01*
X194148628Y-185457200D01*
X194291485Y-185385771D01*
X194577200Y-185385771D01*
X194720057Y-185457200D01*
X195077200Y-186528628D02*
X196220057Y-186528628D01*
X196577200Y-185385771D02*
X196577200Y-186885771D01*
X196577200Y-185457200D02*
X196720057Y-185385771D01*
X197005771Y-185385771D01*
X197148628Y-185457200D01*
X197220057Y-185528628D01*
X197291485Y-185671485D01*
X197291485Y-186100057D01*
X197220057Y-186242914D01*
X197148628Y-186314342D01*
X197005771Y-186385771D01*
X196720057Y-186385771D01*
X196577200Y-186314342D01*
X198577200Y-186314342D02*
X198434342Y-186385771D01*
X198148628Y-186385771D01*
X198005771Y-186314342D01*
X197934342Y-186242914D01*
X197862914Y-186100057D01*
X197862914Y-185671485D01*
X197934342Y-185528628D01*
X198005771Y-185457200D01*
X198148628Y-185385771D01*
X198434342Y-185385771D01*
X198577200Y-185457200D01*
X199220057Y-186385771D02*
X199220057Y-184885771D01*
X199220057Y-185457200D02*
X199362914Y-185385771D01*
X199648628Y-185385771D01*
X199791485Y-185457200D01*
X199862914Y-185528628D01*
X199934342Y-185671485D01*
X199934342Y-186100057D01*
X199862914Y-186242914D01*
X199791485Y-186314342D01*
X199648628Y-186385771D01*
X199362914Y-186385771D01*
X199220057Y-186314342D01*
D10*
D11*
X177002200Y-181507200D02*
X285002200Y-181507200D01*
D10*
D11*
X178362914Y-183614342D02*
X178577200Y-183685771D01*
X178934342Y-183685771D01*
X179077200Y-183614342D01*
X179148628Y-183542914D01*
X179220057Y-183400057D01*
X179220057Y-183257200D01*
X179148628Y-183114342D01*
X179077200Y-183042914D01*
X178934342Y-182971485D01*
X178648628Y-182900057D01*
X178505771Y-182828628D01*
X178434342Y-182757200D01*
X178362914Y-182614342D01*
X178362914Y-182471485D01*
X178434342Y-182328628D01*
X178505771Y-182257200D01*
X178648628Y-182185771D01*
X179005771Y-182185771D01*
X179220057Y-182257200D01*
X179862914Y-183685771D02*
X179862914Y-182185771D01*
X180505771Y-183685771D02*
X180505771Y-182900057D01*
X180434342Y-182757200D01*
X180291485Y-182685771D01*
X180077200Y-182685771D01*
X179934342Y-182757200D01*
X179862914Y-182828628D01*
X181791485Y-183614342D02*
X181648628Y-183685771D01*
X181362914Y-183685771D01*
X181220057Y-183614342D01*
X181148628Y-183471485D01*
X181148628Y-182900057D01*
X181220057Y-182757200D01*
X181362914Y-182685771D01*
X181648628Y-182685771D01*
X181791485Y-182757200D01*
X181862914Y-182900057D01*
X181862914Y-183042914D01*
X181148628Y-183185771D01*
X183077200Y-183614342D02*
X182934342Y-183685771D01*
X182648628Y-183685771D01*
X182505771Y-183614342D01*
X182434342Y-183471485D01*
X182434342Y-182900057D01*
X182505771Y-182757200D01*
X182648628Y-182685771D01*
X182934342Y-182685771D01*
X183077200Y-182757200D01*
X183148628Y-182900057D01*
X183148628Y-183042914D01*
X182434342Y-183185771D01*
X183577200Y-182685771D02*
X184148628Y-182685771D01*
X183791485Y-182185771D02*
X183791485Y-183471485D01*
X183862914Y-183614342D01*
X184005771Y-183685771D01*
X184148628Y-183685771D01*
X184648628Y-183542914D02*
X184720057Y-183614342D01*
X184648628Y-183685771D01*
X184577200Y-183614342D01*
X184648628Y-183542914D01*
X184648628Y-183685771D01*
X184648628Y-182757200D02*
X184720057Y-182828628D01*
X184648628Y-182900057D01*
X184577200Y-182828628D01*
X184648628Y-182757200D01*
X184648628Y-182900057D01*
D10*
D11*
X197002200Y-191507200D02*
X197002200Y-194507200D01*
D10*
D11*
X261002200Y-191507200D02*
X261002200Y-198007200D01*
X145523809Y-49202380D02*
X144952380Y-49202380D01*
X145238095Y-50202380D02*
X145238095Y-49202380D01*
X144047619Y-50202380D02*
X144380952Y-49726190D01*
X144619047Y-50202380D02*
X144619047Y-49202380D01*
X144238095Y-49202380D01*
X144142857Y-49250000D01*
X144095238Y-49297619D01*
X144047619Y-49392857D01*
X144047619Y-49535714D01*
X144095238Y-49630952D01*
X144142857Y-49678571D01*
X144238095Y-49726190D01*
X144619047Y-49726190D01*
X143619047Y-50202380D02*
X143619047Y-49202380D01*
X142619047Y-49250000D02*
X142714285Y-49202380D01*
X142857142Y-49202380D01*
X143000000Y-49250000D01*
X143095238Y-49345238D01*
X143142857Y-49440476D01*
X143190476Y-49630952D01*
X143190476Y-49773809D01*
X143142857Y-49964285D01*
X143095238Y-50059523D01*
X143000000Y-50154761D01*
X142857142Y-50202380D01*
X142761904Y-50202380D01*
X142619047Y-50154761D01*
X142571428Y-50107142D01*
X142571428Y-49773809D01*
X142761904Y-49773809D01*
X167238095Y-71952380D02*
X166666666Y-71952380D01*
X166952380Y-72952380D02*
X166952380Y-71952380D01*
X166428571Y-71952380D02*
X165761904Y-72952380D01*
X165761904Y-71952380D02*
X166428571Y-72952380D01*
X165380952Y-72428571D02*
X165047619Y-72428571D01*
X164904761Y-72952380D02*
X165380952Y-72952380D01*
X165380952Y-71952380D01*
X164904761Y-71952380D01*
X164476190Y-72952380D02*
X164476190Y-71952380D01*
X163904761Y-72952380D01*
X163904761Y-71952380D01*
X190500000Y-85452380D02*
X190500000Y-84452380D01*
X190119047Y-84452380D01*
X190023809Y-84500000D01*
X189976190Y-84547619D01*
X189928571Y-84642857D01*
X189928571Y-84785714D01*
X189976190Y-84880952D01*
X190023809Y-84928571D01*
X190119047Y-84976190D01*
X190500000Y-84976190D01*
X189023809Y-85452380D02*
X189500000Y-85452380D01*
X189500000Y-84452380D01*
X188214285Y-85452380D02*
X188690476Y-85452380D01*
X188690476Y-84452380D01*
X187404761Y-85452380D02*
X187880952Y-85452380D01*
X187880952Y-84452380D01*
X186880952Y-84452380D02*
X186690476Y-84452380D01*
X186595238Y-84500000D01*
X186500000Y-84595238D01*
X186452380Y-84785714D01*
X186452380Y-85119047D01*
X186500000Y-85309523D01*
X186595238Y-85404761D01*
X186690476Y-85452380D01*
X186880952Y-85452380D01*
X186976190Y-85404761D01*
X187071428Y-85309523D01*
X187119047Y-85119047D01*
X187119047Y-84785714D01*
X187071428Y-84595238D01*
X186976190Y-84500000D01*
X186880952Y-84452380D01*
X185452380Y-85357142D02*
X185500000Y-85404761D01*
X185642857Y-85452380D01*
X185738095Y-85452380D01*
X185880952Y-85404761D01*
X185976190Y-85309523D01*
X186023809Y-85214285D01*
X186071428Y-85023809D01*
X186071428Y-84880952D01*
X186023809Y-84690476D01*
X185976190Y-84595238D01*
X185880952Y-84500000D01*
X185738095Y-84452380D01*
X185642857Y-84452380D01*
X185500000Y-84500000D01*
X185452380Y-84547619D01*
X185023809Y-85452380D02*
X185023809Y-84452380D01*
X184452380Y-85452380D02*
X184880952Y-84880952D01*
X184452380Y-84452380D02*
X185023809Y-85023809D01*
D14*
X187000000Y-73000000D02*
X184500000Y-73000000D01*
X188500000Y-71500000D02*
X187000000Y-73000000D01*
X188500000Y-66500000D02*
X188500000Y-71500000D01*
D11*
X189595238Y-65904761D02*
X189452380Y-65952380D01*
X189214285Y-65952380D01*
X189119047Y-65904761D01*
X189071428Y-65857142D01*
X189023809Y-65761904D01*
X189023809Y-65666666D01*
X189071428Y-65571428D01*
X189119047Y-65523809D01*
X189214285Y-65476190D01*
X189404761Y-65428571D01*
X189500000Y-65380952D01*
X189547619Y-65333333D01*
X189595238Y-65238095D01*
X189595238Y-65142857D01*
X189547619Y-65047619D01*
X189500000Y-65000000D01*
X189404761Y-64952380D01*
X189166666Y-64952380D01*
X189023809Y-65000000D01*
X188119047Y-65952380D02*
X188595238Y-65952380D01*
X188595238Y-64952380D01*
X187785714Y-65428571D02*
X187452380Y-65428571D01*
X187309523Y-65952380D02*
X187785714Y-65952380D01*
X187785714Y-64952380D01*
X187309523Y-64952380D01*
X186880952Y-65428571D02*
X186547619Y-65428571D01*
X186404761Y-65952380D02*
X186880952Y-65952380D01*
X186880952Y-64952380D01*
X186404761Y-64952380D01*
X185976190Y-65952380D02*
X185976190Y-64952380D01*
X185595238Y-64952380D01*
X185500000Y-65000000D01*
X185452380Y-65047619D01*
X185404761Y-65142857D01*
X185404761Y-65285714D01*
X185452380Y-65380952D01*
X185500000Y-65428571D01*
X185595238Y-65476190D01*
X185976190Y-65476190D01*
D14*
X189500000Y-73000000D02*
X191000000Y-74000000D01*
D11*
X195142857Y-75452380D02*
X195142857Y-74452380D01*
X194761904Y-74452380D01*
X194666666Y-74500000D01*
X194619047Y-74547619D01*
X194571428Y-74642857D01*
X194571428Y-74785714D01*
X194619047Y-74880952D01*
X194666666Y-74928571D01*
X194761904Y-74976190D01*
X195142857Y-74976190D01*
X194142857Y-75452380D02*
X194142857Y-74452380D01*
X194142857Y-74928571D02*
X193571428Y-74928571D01*
X193571428Y-75452380D02*
X193571428Y-74452380D01*
X193142857Y-75404761D02*
X193000000Y-75452380D01*
X192761904Y-75452380D01*
X192666666Y-75404761D01*
X192619047Y-75357142D01*
X192571428Y-75261904D01*
X192571428Y-75166666D01*
X192619047Y-75071428D01*
X192666666Y-75023809D01*
X192761904Y-74976190D01*
X192952380Y-74928571D01*
X193047619Y-74880952D01*
X193095238Y-74833333D01*
X193142857Y-74738095D01*
X193142857Y-74642857D01*
X193095238Y-74547619D01*
X193047619Y-74500000D01*
X192952380Y-74452380D01*
X192714285Y-74452380D01*
X192571428Y-74500000D01*
X192285714Y-74452380D02*
X191714285Y-74452380D01*
X192000000Y-75452380D02*
X192000000Y-74452380D01*
X190809523Y-75452380D02*
X191142857Y-74976190D01*
X191380952Y-75452380D02*
X191380952Y-74452380D01*
X191000000Y-74452380D01*
X190904761Y-74500000D01*
X190857142Y-74547619D01*
X190809523Y-74642857D01*
X190809523Y-74785714D01*
X190857142Y-74880952D01*
X190904761Y-74928571D01*
X191000000Y-74976190D01*
X191380952Y-74976190D01*
X195452380Y-71047619D02*
X195547619Y-71000000D01*
X195642857Y-70904761D01*
X195785714Y-70761904D01*
X195880952Y-70714285D01*
X195976190Y-70714285D01*
X195928571Y-70952380D02*
X196023809Y-70904761D01*
X196119047Y-70809523D01*
X196166666Y-70619047D01*
X196166666Y-70285714D01*
X196119047Y-70095238D01*
X196023809Y-70000000D01*
X195928571Y-69952380D01*
X195738095Y-69952380D01*
X195642857Y-70000000D01*
X195547619Y-70095238D01*
X195500000Y-70285714D01*
X195500000Y-70619047D01*
X195547619Y-70809523D01*
X195642857Y-70904761D01*
X195738095Y-70952380D01*
X195928571Y-70952380D01*
X194738095Y-70428571D02*
X195071428Y-70428571D01*
X195071428Y-70952380D02*
X195071428Y-69952380D01*
X194595238Y-69952380D01*
X193738095Y-70952380D02*
X194214285Y-70952380D01*
X194214285Y-69952380D01*
X192880952Y-70000000D02*
X192976190Y-69952380D01*
X193119047Y-69952380D01*
X193261904Y-70000000D01*
X193357142Y-70095238D01*
X193404761Y-70190476D01*
X193452380Y-70380952D01*
X193452380Y-70523809D01*
X193404761Y-70714285D01*
X193357142Y-70809523D01*
X193261904Y-70904761D01*
X193119047Y-70952380D01*
X193023809Y-70952380D01*
X192880952Y-70904761D01*
X192833333Y-70857142D01*
X192833333Y-70523809D01*
X193023809Y-70523809D01*
X194047619Y-72952380D02*
X194380952Y-72476190D01*
X194619047Y-72952380D02*
X194619047Y-71952380D01*
X194238095Y-71952380D01*
X194142857Y-72000000D01*
X194095238Y-72047619D01*
X194047619Y-72142857D01*
X194047619Y-72285714D01*
X194095238Y-72380952D01*
X194142857Y-72428571D01*
X194238095Y-72476190D01*
X194619047Y-72476190D01*
X193666666Y-72904761D02*
X193523809Y-72952380D01*
X193285714Y-72952380D01*
X193190476Y-72904761D01*
X193142857Y-72857142D01*
X193095238Y-72761904D01*
X193095238Y-72666666D01*
X193142857Y-72571428D01*
X193190476Y-72523809D01*
X193285714Y-72476190D01*
X193476190Y-72428571D01*
X193571428Y-72380952D01*
X193619047Y-72333333D01*
X193666666Y-72238095D01*
X193666666Y-72142857D01*
X193619047Y-72047619D01*
X193571428Y-72000000D01*
X193476190Y-71952380D01*
X193238095Y-71952380D01*
X193095238Y-72000000D01*
X192809523Y-71952380D02*
X192238095Y-71952380D01*
X192523809Y-72952380D02*
X192523809Y-71952380D01*
X143154761Y-117500000D02*
X143202380Y-117642857D01*
X143202380Y-117880952D01*
X143154761Y-117976190D01*
X143107142Y-118023809D01*
X143011904Y-118071428D01*
X142916666Y-118071428D01*
X142821428Y-118023809D01*
X142773809Y-117976190D01*
X142726190Y-117880952D01*
X142678571Y-117690476D01*
X142630952Y-117595238D01*
X142583333Y-117547619D01*
X142488095Y-117500000D01*
X142392857Y-117500000D01*
X142297619Y-117547619D01*
X142250000Y-117595238D01*
X142202380Y-117690476D01*
X142202380Y-117928571D01*
X142250000Y-118071428D01*
X143202380Y-118500000D02*
X142202380Y-118500000D01*
X142202380Y-118738095D01*
X142250000Y-118880952D01*
X142345238Y-118976190D01*
X142440476Y-119023809D01*
X142630952Y-119071428D01*
X142773809Y-119071428D01*
X142964285Y-119023809D01*
X143059523Y-118976190D01*
X143154761Y-118880952D01*
X143202380Y-118738095D01*
X143202380Y-118500000D01*
X143202380Y-119500000D02*
X142202380Y-119500000D01*
X142202380Y-120166666D02*
X142202380Y-120357142D01*
X142250000Y-120452380D01*
X142345238Y-120547619D01*
X142535714Y-120595238D01*
X142869047Y-120595238D01*
X143059523Y-120547619D01*
X143154761Y-120452380D01*
X143202380Y-120357142D01*
X143202380Y-120166666D01*
X143154761Y-120071428D01*
X143059523Y-119976190D01*
X142869047Y-119928571D01*
X142535714Y-119928571D01*
X142345238Y-119976190D01*
X142250000Y-120071428D01*
X142202380Y-120166666D01*
X143297619Y-120785714D02*
X143297619Y-121547619D01*
X143202380Y-121785714D02*
X142202380Y-121785714D01*
X142916666Y-122119047D01*
X142202380Y-122452380D01*
X143202380Y-122452380D01*
X143107142Y-123500000D02*
X143154761Y-123452380D01*
X143202380Y-123309523D01*
X143202380Y-123214285D01*
X143154761Y-123071428D01*
X143059523Y-122976190D01*
X142964285Y-122928571D01*
X142773809Y-122880952D01*
X142630952Y-122880952D01*
X142440476Y-122928571D01*
X142345238Y-122976190D01*
X142250000Y-123071428D01*
X142202380Y-123214285D01*
X142202380Y-123309523D01*
X142250000Y-123452380D01*
X142297619Y-123500000D01*
X143202380Y-123928571D02*
X142202380Y-123928571D01*
X142202380Y-124309523D01*
X142250000Y-124404761D01*
X142297619Y-124452380D01*
X142392857Y-124500000D01*
X142535714Y-124500000D01*
X142630952Y-124452380D01*
X142678571Y-124404761D01*
X142726190Y-124309523D01*
X142726190Y-123928571D01*
X146976190Y-110357142D02*
X147023809Y-110404761D01*
X147166666Y-110452380D01*
X147261904Y-110452380D01*
X147404761Y-110404761D01*
X147500000Y-110309523D01*
X147547619Y-110214285D01*
X147595238Y-110023809D01*
X147595238Y-109880952D01*
X147547619Y-109690476D01*
X147500000Y-109595238D01*
X147404761Y-109500000D01*
X147261904Y-109452380D01*
X147166666Y-109452380D01*
X147023809Y-109500000D01*
X146976190Y-109547619D01*
X146595238Y-110404761D02*
X146452380Y-110452380D01*
X146214285Y-110452380D01*
X146119047Y-110404761D01*
X146071428Y-110357142D01*
X146023809Y-110261904D01*
X146023809Y-110166666D01*
X146071428Y-110071428D01*
X146119047Y-110023809D01*
X146214285Y-109976190D01*
X146404761Y-109928571D01*
X146500000Y-109880952D01*
X146547619Y-109833333D01*
X146595238Y-109738095D01*
X146595238Y-109642857D01*
X146547619Y-109547619D01*
X146500000Y-109500000D01*
X146404761Y-109452380D01*
X146166666Y-109452380D01*
X146023809Y-109500000D01*
X145833333Y-110547619D02*
X145071428Y-110547619D01*
X144833333Y-110452380D02*
X144833333Y-109452380D01*
X144595238Y-109452380D01*
X144452380Y-109500000D01*
X144357142Y-109595238D01*
X144309523Y-109690476D01*
X144261904Y-109880952D01*
X144261904Y-110023809D01*
X144309523Y-110214285D01*
X144357142Y-110309523D01*
X144452380Y-110404761D01*
X144595238Y-110452380D01*
X144833333Y-110452380D01*
X143880952Y-110166666D02*
X143404761Y-110166666D01*
X143976190Y-110452380D02*
X143642857Y-109452380D01*
X143309523Y-110452380D01*
X142404761Y-110357142D02*
X142452380Y-110404761D01*
X142595238Y-110452380D01*
X142690476Y-110452380D01*
X142833333Y-110404761D01*
X142928571Y-110309523D01*
X142976190Y-110214285D01*
X143023809Y-110023809D01*
X143023809Y-109880952D01*
X142976190Y-109690476D01*
X142928571Y-109595238D01*
X142833333Y-109500000D01*
X142690476Y-109452380D01*
X142595238Y-109452380D01*
X142452380Y-109500000D01*
X142404761Y-109547619D01*
D14*
%TO.C,TP35*%
X169200000Y-72500000D02*
G75*
G03*
X169200000Y-72500000I-700000J0D01*
G01*
%TO.C,TP5*%
X145700000Y-111750000D02*
G75*
G03*
X145700000Y-111750000I-700000J0D01*
G01*
%TO.C,TP9*%
X191950000Y-72750000D02*
G75*
G03*
X191950000Y-72750000I-700000J0D01*
G01*
%TO.C,TP1*%
X143200000Y-116000000D02*
G75*
G03*
X143200000Y-116000000I-700000J0D01*
G01*
%TO.C,TP45*%
X191950000Y-70400000D02*
G75*
G03*
X191950000Y-70400000I-700000J0D01*
G01*
%TO.C,TP44*%
X183300000Y-84900000D02*
G75*
G03*
X183300000Y-84900000I-700000J0D01*
G01*
%TO.C,C38*%
X189010000Y-75450279D02*
X189010000Y-75124721D01*
X187990000Y-75450279D02*
X187990000Y-75124721D01*
%TO.C,R2*%
X143010000Y-113412779D02*
X143010000Y-113087221D01*
X141990000Y-113412779D02*
X141990000Y-113087221D01*
%TO.C,R21*%
X146299721Y-115690000D02*
X146625279Y-115690000D01*
X146299721Y-116710000D02*
X146625279Y-116710000D01*
%TO.C,TP36*%
X189700000Y-72600000D02*
G75*
G03*
X189700000Y-72600000I-700000J0D01*
G01*
%TO.C,TP2*%
X184800000Y-72400000D02*
G75*
G03*
X184800000Y-72400000I-700000J0D01*
G01*
%TO.C,RBIAS1*%
X177737221Y-69990000D02*
X178062779Y-69990000D01*
X177737221Y-71010000D02*
X178062779Y-71010000D01*
%TO.C,R20*%
X179010000Y-91049721D02*
X179010000Y-91375279D01*
X177990000Y-91049721D02*
X177990000Y-91375279D01*
%TO.C,R19*%
X183749721Y-69990000D02*
X184075279Y-69990000D01*
X183749721Y-71010000D02*
X184075279Y-71010000D01*
%TO.C,R18*%
X177510000Y-91049721D02*
X177510000Y-91375279D01*
X176490000Y-91049721D02*
X176490000Y-91375279D01*
%TO.C,R15*%
X176010000Y-91049721D02*
X176010000Y-91375279D01*
X174990000Y-91049721D02*
X174990000Y-91375279D01*
%TO.C,R13*%
X183510000Y-78449721D02*
X183510000Y-78775279D01*
X182490000Y-78449721D02*
X182490000Y-78775279D01*
%TO.C,R12*%
X174510000Y-91049721D02*
X174510000Y-91375279D01*
X173490000Y-91049721D02*
X173490000Y-91375279D01*
%TO.C,C49*%
X181050279Y-71010000D02*
X180724721Y-71010000D01*
X181050279Y-69990000D02*
X180724721Y-69990000D01*
%TO.C,C48*%
X177549721Y-78990000D02*
X177875279Y-78990000D01*
X177549721Y-80010000D02*
X177875279Y-80010000D01*
%TO.C,C47*%
X183510000Y-75449721D02*
X183510000Y-75775279D01*
X182490000Y-75449721D02*
X182490000Y-75775279D01*
%TO.C,C46*%
X180537221Y-78890000D02*
X180862779Y-78890000D01*
X180537221Y-79910000D02*
X180862779Y-79910000D01*
%TO.C,C45*%
X183875279Y-90510000D02*
X183549721Y-90510000D01*
X183875279Y-89490000D02*
X183549721Y-89490000D01*
%TO.C,C44*%
X182375279Y-127760000D02*
X182049721Y-127760000D01*
X182375279Y-126740000D02*
X182049721Y-126740000D01*
%TO.C,C43*%
X175299721Y-127490000D02*
X175625279Y-127490000D01*
X175299721Y-128510000D02*
X175625279Y-128510000D01*
%TO.C,C42*%
X172740000Y-119200279D02*
X172740000Y-118874721D01*
X173760000Y-119200279D02*
X173760000Y-118874721D01*
%TO.C,C41*%
X183990000Y-75700279D02*
X183990000Y-75374721D01*
X185010000Y-75700279D02*
X185010000Y-75374721D01*
%TO.C,C40*%
X175799721Y-114490000D02*
X176125279Y-114490000D01*
X175799721Y-115510000D02*
X176125279Y-115510000D01*
%TO.C,C37*%
X183050279Y-116210000D02*
X182724721Y-116210000D01*
X183050279Y-115190000D02*
X182724721Y-115190000D01*
%TO.C,C36*%
X173510000Y-71549721D02*
X173510000Y-71875279D01*
X172490000Y-71549721D02*
X172490000Y-71875279D01*
%TO.C,C34*%
X172740000Y-122200279D02*
X172740000Y-121874721D01*
X173760000Y-122200279D02*
X173760000Y-121874721D01*
%TO.C,C33*%
X172490000Y-74912779D02*
X172490000Y-74587221D01*
X173510000Y-74912779D02*
X173510000Y-74587221D01*
%TO.C,C32*%
X187990000Y-78875279D02*
X187990000Y-78549721D01*
X189010000Y-78875279D02*
X189010000Y-78549721D01*
%TO.C,C31*%
X185240000Y-122125279D02*
X185240000Y-121799721D01*
X186260000Y-122125279D02*
X186260000Y-121799721D01*
%TO.C,C30*%
X182950279Y-81510000D02*
X182624721Y-81510000D01*
X182950279Y-80490000D02*
X182624721Y-80490000D01*
%TO.C,C29*%
X175010000Y-80049721D02*
X175010000Y-80375279D01*
X173990000Y-80049721D02*
X173990000Y-80375279D01*
%TO.C,C28*%
X172090000Y-99975279D02*
X172090000Y-99649721D01*
X173110000Y-99975279D02*
X173110000Y-99649721D01*
%TO.C,C27*%
X187110000Y-99224721D02*
X187110000Y-99550279D01*
X186090000Y-99224721D02*
X186090000Y-99550279D01*
%TO.C,C25*%
X171290000Y-92550279D02*
X171290000Y-92224721D01*
X172310000Y-92550279D02*
X172310000Y-92224721D01*
%TO.C,C24*%
X175337221Y-66490000D02*
X175662779Y-66490000D01*
X175337221Y-67510000D02*
X175662779Y-67510000D01*
%TO.C,C23*%
X173110000Y-96149721D02*
X173110000Y-96475279D01*
X172090000Y-96149721D02*
X172090000Y-96475279D01*
%TO.C,C22*%
X174049721Y-68490000D02*
X174375279Y-68490000D01*
X174049721Y-69510000D02*
X174375279Y-69510000D01*
%TO.C,C21*%
X172090000Y-103050279D02*
X172090000Y-102724721D01*
X173110000Y-103050279D02*
X173110000Y-102724721D01*
%TO.C,C20*%
X177049721Y-68490000D02*
X177375279Y-68490000D01*
X177049721Y-69510000D02*
X177375279Y-69510000D01*
%TO.C,C19*%
X173110000Y-106724721D02*
X173110000Y-107050279D01*
X172090000Y-106724721D02*
X172090000Y-107050279D01*
%TO.C,C18*%
X180049721Y-68490000D02*
X180375279Y-68490000D01*
X180049721Y-69510000D02*
X180375279Y-69510000D01*
%TO.C,C17*%
X179399721Y-108340000D02*
X179725279Y-108340000D01*
X179399721Y-109360000D02*
X179725279Y-109360000D01*
%TO.C,C16*%
X183124721Y-68490000D02*
X183450279Y-68490000D01*
X183124721Y-69510000D02*
X183450279Y-69510000D01*
%TO.C,C15*%
X187110000Y-106474721D02*
X187110000Y-106800279D01*
X186090000Y-106474721D02*
X186090000Y-106800279D01*
%TO.C,C14*%
X183990000Y-78875279D02*
X183990000Y-78549721D01*
X185010000Y-78875279D02*
X185010000Y-78549721D01*
%TO.C,C13*%
X186090000Y-102975279D02*
X186090000Y-102649721D01*
X187110000Y-102975279D02*
X187110000Y-102649721D01*
%TO.C,C12*%
X179549721Y-80490000D02*
X179875279Y-80490000D01*
X179549721Y-81510000D02*
X179875279Y-81510000D01*
%TO.C,C11*%
X187110000Y-96149721D02*
X187110000Y-96475279D01*
X186090000Y-96149721D02*
X186090000Y-96475279D01*
%TO.C,C10*%
X176549721Y-80490000D02*
X176875279Y-80490000D01*
X176549721Y-81510000D02*
X176875279Y-81510000D01*
%TO.C,C9*%
X186090000Y-92550279D02*
X186090000Y-92224721D01*
X187110000Y-92550279D02*
X187110000Y-92224721D01*
%TO.C,C38*%
D11*
X191642857Y-76857142D02*
X191690476Y-76904761D01*
X191833333Y-76952380D01*
X191928571Y-76952380D01*
X192071428Y-76904761D01*
X192166666Y-76809523D01*
X192214285Y-76714285D01*
X192261904Y-76523809D01*
X192261904Y-76380952D01*
X192214285Y-76190476D01*
X192166666Y-76095238D01*
X192071428Y-76000000D01*
X191928571Y-75952380D01*
X191833333Y-75952380D01*
X191690476Y-76000000D01*
X191642857Y-76047619D01*
X191309523Y-75952380D02*
X190690476Y-75952380D01*
X191023809Y-76333333D01*
X190880952Y-76333333D01*
X190785714Y-76380952D01*
X190738095Y-76428571D01*
X190690476Y-76523809D01*
X190690476Y-76761904D01*
X190738095Y-76857142D01*
X190785714Y-76904761D01*
X190880952Y-76952380D01*
X191166666Y-76952380D01*
X191261904Y-76904761D01*
X191309523Y-76857142D01*
X190119047Y-76380952D02*
X190214285Y-76333333D01*
X190261904Y-76285714D01*
X190309523Y-76190476D01*
X190309523Y-76142857D01*
X190261904Y-76047619D01*
X190214285Y-76000000D01*
X190119047Y-75952380D01*
X189928571Y-75952380D01*
X189833333Y-76000000D01*
X189785714Y-76047619D01*
X189738095Y-76142857D01*
X189738095Y-76190476D01*
X189785714Y-76285714D01*
X189833333Y-76333333D01*
X189928571Y-76380952D01*
X190119047Y-76380952D01*
X190214285Y-76428571D01*
X190261904Y-76476190D01*
X190309523Y-76571428D01*
X190309523Y-76761904D01*
X190261904Y-76857142D01*
X190214285Y-76904761D01*
X190119047Y-76952380D01*
X189928571Y-76952380D01*
X189833333Y-76904761D01*
X189785714Y-76857142D01*
X189738095Y-76761904D01*
X189738095Y-76571428D01*
X189785714Y-76476190D01*
X189833333Y-76428571D01*
X189928571Y-76380952D01*
%TO.C,R2*%
X141452380Y-113833333D02*
X140976190Y-113500000D01*
X141452380Y-113261904D02*
X140452380Y-113261904D01*
X140452380Y-113642857D01*
X140500000Y-113738095D01*
X140547619Y-113785714D01*
X140642857Y-113833333D01*
X140785714Y-113833333D01*
X140880952Y-113785714D01*
X140928571Y-113738095D01*
X140976190Y-113642857D01*
X140976190Y-113261904D01*
X140547619Y-114214285D02*
X140500000Y-114261904D01*
X140452380Y-114357142D01*
X140452380Y-114595238D01*
X140500000Y-114690476D01*
X140547619Y-114738095D01*
X140642857Y-114785714D01*
X140738095Y-114785714D01*
X140880952Y-114738095D01*
X141452380Y-114166666D01*
X141452380Y-114785714D01*
%TO.C,R21*%
X147105357Y-118082380D02*
X147438690Y-117606190D01*
X147676785Y-118082380D02*
X147676785Y-117082380D01*
X147295833Y-117082380D01*
X147200595Y-117130000D01*
X147152976Y-117177619D01*
X147105357Y-117272857D01*
X147105357Y-117415714D01*
X147152976Y-117510952D01*
X147200595Y-117558571D01*
X147295833Y-117606190D01*
X147676785Y-117606190D01*
X146724404Y-117177619D02*
X146676785Y-117130000D01*
X146581547Y-117082380D01*
X146343452Y-117082380D01*
X146248214Y-117130000D01*
X146200595Y-117177619D01*
X146152976Y-117272857D01*
X146152976Y-117368095D01*
X146200595Y-117510952D01*
X146772023Y-118082380D01*
X146152976Y-118082380D01*
X145200595Y-118082380D02*
X145772023Y-118082380D01*
X145486309Y-118082380D02*
X145486309Y-117082380D01*
X145581547Y-117225238D01*
X145676785Y-117320476D01*
X145772023Y-117368095D01*
%TO.C,RBIAS1*%
X178559523Y-72452380D02*
X178892857Y-71976190D01*
X179130952Y-72452380D02*
X179130952Y-71452380D01*
X178750000Y-71452380D01*
X178654761Y-71500000D01*
X178607142Y-71547619D01*
X178559523Y-71642857D01*
X178559523Y-71785714D01*
X178607142Y-71880952D01*
X178654761Y-71928571D01*
X178750000Y-71976190D01*
X179130952Y-71976190D01*
X177797619Y-71928571D02*
X177654761Y-71976190D01*
X177607142Y-72023809D01*
X177559523Y-72119047D01*
X177559523Y-72261904D01*
X177607142Y-72357142D01*
X177654761Y-72404761D01*
X177750000Y-72452380D01*
X178130952Y-72452380D01*
X178130952Y-71452380D01*
X177797619Y-71452380D01*
X177702380Y-71500000D01*
X177654761Y-71547619D01*
X177607142Y-71642857D01*
X177607142Y-71738095D01*
X177654761Y-71833333D01*
X177702380Y-71880952D01*
X177797619Y-71928571D01*
X178130952Y-71928571D01*
X177130952Y-72452380D02*
X177130952Y-71452380D01*
X176702380Y-72166666D02*
X176226190Y-72166666D01*
X176797619Y-72452380D02*
X176464285Y-71452380D01*
X176130952Y-72452380D01*
X175845238Y-72404761D02*
X175702380Y-72452380D01*
X175464285Y-72452380D01*
X175369047Y-72404761D01*
X175321428Y-72357142D01*
X175273809Y-72261904D01*
X175273809Y-72166666D01*
X175321428Y-72071428D01*
X175369047Y-72023809D01*
X175464285Y-71976190D01*
X175654761Y-71928571D01*
X175750000Y-71880952D01*
X175797619Y-71833333D01*
X175845238Y-71738095D01*
X175845238Y-71642857D01*
X175797619Y-71547619D01*
X175750000Y-71500000D01*
X175654761Y-71452380D01*
X175416666Y-71452380D01*
X175273809Y-71500000D01*
X174321428Y-72452380D02*
X174892857Y-72452380D01*
X174607142Y-72452380D02*
X174607142Y-71452380D01*
X174702380Y-71595238D01*
X174797619Y-71690476D01*
X174892857Y-71738095D01*
%TO.C,R20*%
X178952380Y-87607142D02*
X178476190Y-87273809D01*
X178952380Y-87035714D02*
X177952380Y-87035714D01*
X177952380Y-87416666D01*
X178000000Y-87511904D01*
X178047619Y-87559523D01*
X178142857Y-87607142D01*
X178285714Y-87607142D01*
X178380952Y-87559523D01*
X178428571Y-87511904D01*
X178476190Y-87416666D01*
X178476190Y-87035714D01*
X178047619Y-87988095D02*
X178000000Y-88035714D01*
X177952380Y-88130952D01*
X177952380Y-88369047D01*
X178000000Y-88464285D01*
X178047619Y-88511904D01*
X178142857Y-88559523D01*
X178238095Y-88559523D01*
X178380952Y-88511904D01*
X178952380Y-87940476D01*
X178952380Y-88559523D01*
X177952380Y-89178571D02*
X177952380Y-89273809D01*
X178000000Y-89369047D01*
X178047619Y-89416666D01*
X178142857Y-89464285D01*
X178333333Y-89511904D01*
X178571428Y-89511904D01*
X178761904Y-89464285D01*
X178857142Y-89416666D01*
X178904761Y-89369047D01*
X178952380Y-89273809D01*
X178952380Y-89178571D01*
X178904761Y-89083333D01*
X178857142Y-89035714D01*
X178761904Y-88988095D01*
X178571428Y-88940476D01*
X178333333Y-88940476D01*
X178142857Y-88988095D01*
X178047619Y-89035714D01*
X178000000Y-89083333D01*
X177952380Y-89178571D01*
%TO.C,R19*%
X186702380Y-70357142D02*
X186226190Y-70023809D01*
X186702380Y-69785714D02*
X185702380Y-69785714D01*
X185702380Y-70166666D01*
X185750000Y-70261904D01*
X185797619Y-70309523D01*
X185892857Y-70357142D01*
X186035714Y-70357142D01*
X186130952Y-70309523D01*
X186178571Y-70261904D01*
X186226190Y-70166666D01*
X186226190Y-69785714D01*
X186702380Y-71309523D02*
X186702380Y-70738095D01*
X186702380Y-71023809D02*
X185702380Y-71023809D01*
X185845238Y-70928571D01*
X185940476Y-70833333D01*
X185988095Y-70738095D01*
X186702380Y-71785714D02*
X186702380Y-71976190D01*
X186654761Y-72071428D01*
X186607142Y-72119047D01*
X186464285Y-72214285D01*
X186273809Y-72261904D01*
X185892857Y-72261904D01*
X185797619Y-72214285D01*
X185750000Y-72166666D01*
X185702380Y-72071428D01*
X185702380Y-71880952D01*
X185750000Y-71785714D01*
X185797619Y-71738095D01*
X185892857Y-71690476D01*
X186130952Y-71690476D01*
X186226190Y-71738095D01*
X186273809Y-71785714D01*
X186321428Y-71880952D01*
X186321428Y-72071428D01*
X186273809Y-72166666D01*
X186226190Y-72214285D01*
X186130952Y-72261904D01*
%TO.C,R18*%
X177702380Y-93607142D02*
X177226190Y-93273809D01*
X177702380Y-93035714D02*
X176702380Y-93035714D01*
X176702380Y-93416666D01*
X176750000Y-93511904D01*
X176797619Y-93559523D01*
X176892857Y-93607142D01*
X177035714Y-93607142D01*
X177130952Y-93559523D01*
X177178571Y-93511904D01*
X177226190Y-93416666D01*
X177226190Y-93035714D01*
X177702380Y-94559523D02*
X177702380Y-93988095D01*
X177702380Y-94273809D02*
X176702380Y-94273809D01*
X176845238Y-94178571D01*
X176940476Y-94083333D01*
X176988095Y-93988095D01*
X177130952Y-95130952D02*
X177083333Y-95035714D01*
X177035714Y-94988095D01*
X176940476Y-94940476D01*
X176892857Y-94940476D01*
X176797619Y-94988095D01*
X176750000Y-95035714D01*
X176702380Y-95130952D01*
X176702380Y-95321428D01*
X176750000Y-95416666D01*
X176797619Y-95464285D01*
X176892857Y-95511904D01*
X176940476Y-95511904D01*
X177035714Y-95464285D01*
X177083333Y-95416666D01*
X177130952Y-95321428D01*
X177130952Y-95130952D01*
X177178571Y-95035714D01*
X177226190Y-94988095D01*
X177321428Y-94940476D01*
X177511904Y-94940476D01*
X177607142Y-94988095D01*
X177654761Y-95035714D01*
X177702380Y-95130952D01*
X177702380Y-95321428D01*
X177654761Y-95416666D01*
X177607142Y-95464285D01*
X177511904Y-95511904D01*
X177321428Y-95511904D01*
X177226190Y-95464285D01*
X177178571Y-95416666D01*
X177130952Y-95321428D01*
%TO.C,R15*%
X175952380Y-93607142D02*
X175476190Y-93273809D01*
X175952380Y-93035714D02*
X174952380Y-93035714D01*
X174952380Y-93416666D01*
X175000000Y-93511904D01*
X175047619Y-93559523D01*
X175142857Y-93607142D01*
X175285714Y-93607142D01*
X175380952Y-93559523D01*
X175428571Y-93511904D01*
X175476190Y-93416666D01*
X175476190Y-93035714D01*
X175952380Y-94559523D02*
X175952380Y-93988095D01*
X175952380Y-94273809D02*
X174952380Y-94273809D01*
X175095238Y-94178571D01*
X175190476Y-94083333D01*
X175238095Y-93988095D01*
X174952380Y-95464285D02*
X174952380Y-94988095D01*
X175428571Y-94940476D01*
X175380952Y-94988095D01*
X175333333Y-95083333D01*
X175333333Y-95321428D01*
X175380952Y-95416666D01*
X175428571Y-95464285D01*
X175523809Y-95511904D01*
X175761904Y-95511904D01*
X175857142Y-95464285D01*
X175904761Y-95416666D01*
X175952380Y-95321428D01*
X175952380Y-95083333D01*
X175904761Y-94988095D01*
X175857142Y-94940476D01*
%TO.C,R13*%
X181952380Y-76357142D02*
X181476190Y-76023809D01*
X181952380Y-75785714D02*
X180952380Y-75785714D01*
X180952380Y-76166666D01*
X181000000Y-76261904D01*
X181047619Y-76309523D01*
X181142857Y-76357142D01*
X181285714Y-76357142D01*
X181380952Y-76309523D01*
X181428571Y-76261904D01*
X181476190Y-76166666D01*
X181476190Y-75785714D01*
X181952380Y-77309523D02*
X181952380Y-76738095D01*
X181952380Y-77023809D02*
X180952380Y-77023809D01*
X181095238Y-76928571D01*
X181190476Y-76833333D01*
X181238095Y-76738095D01*
X180952380Y-77642857D02*
X180952380Y-78261904D01*
X181333333Y-77928571D01*
X181333333Y-78071428D01*
X181380952Y-78166666D01*
X181428571Y-78214285D01*
X181523809Y-78261904D01*
X181761904Y-78261904D01*
X181857142Y-78214285D01*
X181904761Y-78166666D01*
X181952380Y-78071428D01*
X181952380Y-77785714D01*
X181904761Y-77690476D01*
X181857142Y-77642857D01*
%TO.C,R12*%
X174452380Y-87607142D02*
X173976190Y-87273809D01*
X174452380Y-87035714D02*
X173452380Y-87035714D01*
X173452380Y-87416666D01*
X173500000Y-87511904D01*
X173547619Y-87559523D01*
X173642857Y-87607142D01*
X173785714Y-87607142D01*
X173880952Y-87559523D01*
X173928571Y-87511904D01*
X173976190Y-87416666D01*
X173976190Y-87035714D01*
X174452380Y-88559523D02*
X174452380Y-87988095D01*
X174452380Y-88273809D02*
X173452380Y-88273809D01*
X173595238Y-88178571D01*
X173690476Y-88083333D01*
X173738095Y-87988095D01*
X173547619Y-88940476D02*
X173500000Y-88988095D01*
X173452380Y-89083333D01*
X173452380Y-89321428D01*
X173500000Y-89416666D01*
X173547619Y-89464285D01*
X173642857Y-89511904D01*
X173738095Y-89511904D01*
X173880952Y-89464285D01*
X174452380Y-88892857D01*
X174452380Y-89511904D01*
%TO.C,C49*%
X181642857Y-72357142D02*
X181690476Y-72404761D01*
X181833333Y-72452380D01*
X181928571Y-72452380D01*
X182071428Y-72404761D01*
X182166666Y-72309523D01*
X182214285Y-72214285D01*
X182261904Y-72023809D01*
X182261904Y-71880952D01*
X182214285Y-71690476D01*
X182166666Y-71595238D01*
X182071428Y-71500000D01*
X181928571Y-71452380D01*
X181833333Y-71452380D01*
X181690476Y-71500000D01*
X181642857Y-71547619D01*
X180785714Y-71785714D02*
X180785714Y-72452380D01*
X181023809Y-71404761D02*
X181261904Y-72119047D01*
X180642857Y-72119047D01*
X180214285Y-72452380D02*
X180023809Y-72452380D01*
X179928571Y-72404761D01*
X179880952Y-72357142D01*
X179785714Y-72214285D01*
X179738095Y-72023809D01*
X179738095Y-71642857D01*
X179785714Y-71547619D01*
X179833333Y-71500000D01*
X179928571Y-71452380D01*
X180119047Y-71452380D01*
X180214285Y-71500000D01*
X180261904Y-71547619D01*
X180309523Y-71642857D01*
X180309523Y-71880952D01*
X180261904Y-71976190D01*
X180214285Y-72023809D01*
X180119047Y-72071428D01*
X179928571Y-72071428D01*
X179833333Y-72023809D01*
X179785714Y-71976190D01*
X179738095Y-71880952D01*
%TO.C,C48*%
X177607142Y-76607142D02*
X177654761Y-76559523D01*
X177702380Y-76416666D01*
X177702380Y-76321428D01*
X177654761Y-76178571D01*
X177559523Y-76083333D01*
X177464285Y-76035714D01*
X177273809Y-75988095D01*
X177130952Y-75988095D01*
X176940476Y-76035714D01*
X176845238Y-76083333D01*
X176750000Y-76178571D01*
X176702380Y-76321428D01*
X176702380Y-76416666D01*
X176750000Y-76559523D01*
X176797619Y-76607142D01*
X177035714Y-77464285D02*
X177702380Y-77464285D01*
X176654761Y-77226190D02*
X177369047Y-76988095D01*
X177369047Y-77607142D01*
X177130952Y-78130952D02*
X177083333Y-78035714D01*
X177035714Y-77988095D01*
X176940476Y-77940476D01*
X176892857Y-77940476D01*
X176797619Y-77988095D01*
X176750000Y-78035714D01*
X176702380Y-78130952D01*
X176702380Y-78321428D01*
X176750000Y-78416666D01*
X176797619Y-78464285D01*
X176892857Y-78511904D01*
X176940476Y-78511904D01*
X177035714Y-78464285D01*
X177083333Y-78416666D01*
X177130952Y-78321428D01*
X177130952Y-78130952D01*
X177178571Y-78035714D01*
X177226190Y-77988095D01*
X177321428Y-77940476D01*
X177511904Y-77940476D01*
X177607142Y-77988095D01*
X177654761Y-78035714D01*
X177702380Y-78130952D01*
X177702380Y-78321428D01*
X177654761Y-78416666D01*
X177607142Y-78464285D01*
X177511904Y-78511904D01*
X177321428Y-78511904D01*
X177226190Y-78464285D01*
X177178571Y-78416666D01*
X177130952Y-78321428D01*
%TO.C,C47*%
X181392857Y-75107142D02*
X181440476Y-75154761D01*
X181583333Y-75202380D01*
X181678571Y-75202380D01*
X181821428Y-75154761D01*
X181916666Y-75059523D01*
X181964285Y-74964285D01*
X182011904Y-74773809D01*
X182011904Y-74630952D01*
X181964285Y-74440476D01*
X181916666Y-74345238D01*
X181821428Y-74250000D01*
X181678571Y-74202380D01*
X181583333Y-74202380D01*
X181440476Y-74250000D01*
X181392857Y-74297619D01*
X180535714Y-74535714D02*
X180535714Y-75202380D01*
X180773809Y-74154761D02*
X181011904Y-74869047D01*
X180392857Y-74869047D01*
X180107142Y-74202380D02*
X179440476Y-74202380D01*
X179869047Y-75202380D01*
%TO.C,C46*%
X180107142Y-76357142D02*
X180154761Y-76309523D01*
X180202380Y-76166666D01*
X180202380Y-76071428D01*
X180154761Y-75928571D01*
X180059523Y-75833333D01*
X179964285Y-75785714D01*
X179773809Y-75738095D01*
X179630952Y-75738095D01*
X179440476Y-75785714D01*
X179345238Y-75833333D01*
X179250000Y-75928571D01*
X179202380Y-76071428D01*
X179202380Y-76166666D01*
X179250000Y-76309523D01*
X179297619Y-76357142D01*
X179535714Y-77214285D02*
X180202380Y-77214285D01*
X179154761Y-76976190D02*
X179869047Y-76738095D01*
X179869047Y-77357142D01*
X179202380Y-78166666D02*
X179202380Y-77976190D01*
X179250000Y-77880952D01*
X179297619Y-77833333D01*
X179440476Y-77738095D01*
X179630952Y-77690476D01*
X180011904Y-77690476D01*
X180107142Y-77738095D01*
X180154761Y-77785714D01*
X180202380Y-77880952D01*
X180202380Y-78071428D01*
X180154761Y-78166666D01*
X180107142Y-78214285D01*
X180011904Y-78261904D01*
X179773809Y-78261904D01*
X179678571Y-78214285D01*
X179630952Y-78166666D01*
X179583333Y-78071428D01*
X179583333Y-77880952D01*
X179630952Y-77785714D01*
X179678571Y-77738095D01*
X179773809Y-77690476D01*
%TO.C,C45*%
X184317857Y-92107142D02*
X184365476Y-92154761D01*
X184508333Y-92202380D01*
X184603571Y-92202380D01*
X184746428Y-92154761D01*
X184841666Y-92059523D01*
X184889285Y-91964285D01*
X184936904Y-91773809D01*
X184936904Y-91630952D01*
X184889285Y-91440476D01*
X184841666Y-91345238D01*
X184746428Y-91250000D01*
X184603571Y-91202380D01*
X184508333Y-91202380D01*
X184365476Y-91250000D01*
X184317857Y-91297619D01*
X183460714Y-91535714D02*
X183460714Y-92202380D01*
X183698809Y-91154761D02*
X183936904Y-91869047D01*
X183317857Y-91869047D01*
X182460714Y-91202380D02*
X182936904Y-91202380D01*
X182984523Y-91678571D01*
X182936904Y-91630952D01*
X182841666Y-91583333D01*
X182603571Y-91583333D01*
X182508333Y-91630952D01*
X182460714Y-91678571D01*
X182413095Y-91773809D01*
X182413095Y-92011904D01*
X182460714Y-92107142D01*
X182508333Y-92154761D01*
X182603571Y-92202380D01*
X182841666Y-92202380D01*
X182936904Y-92154761D01*
X182984523Y-92107142D01*
%TO.C,C44*%
X182855357Y-126177142D02*
X182902976Y-126224761D01*
X183045833Y-126272380D01*
X183141071Y-126272380D01*
X183283928Y-126224761D01*
X183379166Y-126129523D01*
X183426785Y-126034285D01*
X183474404Y-125843809D01*
X183474404Y-125700952D01*
X183426785Y-125510476D01*
X183379166Y-125415238D01*
X183283928Y-125320000D01*
X183141071Y-125272380D01*
X183045833Y-125272380D01*
X182902976Y-125320000D01*
X182855357Y-125367619D01*
X181998214Y-125605714D02*
X181998214Y-126272380D01*
X182236309Y-125224761D02*
X182474404Y-125939047D01*
X181855357Y-125939047D01*
X181045833Y-125605714D02*
X181045833Y-126272380D01*
X181283928Y-125224761D02*
X181522023Y-125939047D01*
X180902976Y-125939047D01*
%TO.C,C43*%
X176105357Y-129787142D02*
X176152976Y-129834761D01*
X176295833Y-129882380D01*
X176391071Y-129882380D01*
X176533928Y-129834761D01*
X176629166Y-129739523D01*
X176676785Y-129644285D01*
X176724404Y-129453809D01*
X176724404Y-129310952D01*
X176676785Y-129120476D01*
X176629166Y-129025238D01*
X176533928Y-128930000D01*
X176391071Y-128882380D01*
X176295833Y-128882380D01*
X176152976Y-128930000D01*
X176105357Y-128977619D01*
X175248214Y-129215714D02*
X175248214Y-129882380D01*
X175486309Y-128834761D02*
X175724404Y-129549047D01*
X175105357Y-129549047D01*
X174819642Y-128882380D02*
X174200595Y-128882380D01*
X174533928Y-129263333D01*
X174391071Y-129263333D01*
X174295833Y-129310952D01*
X174248214Y-129358571D01*
X174200595Y-129453809D01*
X174200595Y-129691904D01*
X174248214Y-129787142D01*
X174295833Y-129834761D01*
X174391071Y-129882380D01*
X174676785Y-129882380D01*
X174772023Y-129834761D01*
X174819642Y-129787142D01*
%TO.C,C42*%
X172107142Y-118357142D02*
X172154761Y-118309523D01*
X172202380Y-118166666D01*
X172202380Y-118071428D01*
X172154761Y-117928571D01*
X172059523Y-117833333D01*
X171964285Y-117785714D01*
X171773809Y-117738095D01*
X171630952Y-117738095D01*
X171440476Y-117785714D01*
X171345238Y-117833333D01*
X171250000Y-117928571D01*
X171202380Y-118071428D01*
X171202380Y-118166666D01*
X171250000Y-118309523D01*
X171297619Y-118357142D01*
X171535714Y-119214285D02*
X172202380Y-119214285D01*
X171154761Y-118976190D02*
X171869047Y-118738095D01*
X171869047Y-119357142D01*
X171297619Y-119690476D02*
X171250000Y-119738095D01*
X171202380Y-119833333D01*
X171202380Y-120071428D01*
X171250000Y-120166666D01*
X171297619Y-120214285D01*
X171392857Y-120261904D01*
X171488095Y-120261904D01*
X171630952Y-120214285D01*
X172202380Y-119642857D01*
X172202380Y-120261904D01*
%TO.C,C41*%
X186287142Y-74894642D02*
X186334761Y-74847023D01*
X186382380Y-74704166D01*
X186382380Y-74608928D01*
X186334761Y-74466071D01*
X186239523Y-74370833D01*
X186144285Y-74323214D01*
X185953809Y-74275595D01*
X185810952Y-74275595D01*
X185620476Y-74323214D01*
X185525238Y-74370833D01*
X185430000Y-74466071D01*
X185382380Y-74608928D01*
X185382380Y-74704166D01*
X185430000Y-74847023D01*
X185477619Y-74894642D01*
X185715714Y-75751785D02*
X186382380Y-75751785D01*
X185334761Y-75513690D02*
X186049047Y-75275595D01*
X186049047Y-75894642D01*
X186382380Y-76799404D02*
X186382380Y-76227976D01*
X186382380Y-76513690D02*
X185382380Y-76513690D01*
X185525238Y-76418452D01*
X185620476Y-76323214D01*
X185668095Y-76227976D01*
%TO.C,C40*%
X173392857Y-115357142D02*
X173440476Y-115404761D01*
X173583333Y-115452380D01*
X173678571Y-115452380D01*
X173821428Y-115404761D01*
X173916666Y-115309523D01*
X173964285Y-115214285D01*
X174011904Y-115023809D01*
X174011904Y-114880952D01*
X173964285Y-114690476D01*
X173916666Y-114595238D01*
X173821428Y-114500000D01*
X173678571Y-114452380D01*
X173583333Y-114452380D01*
X173440476Y-114500000D01*
X173392857Y-114547619D01*
X172535714Y-114785714D02*
X172535714Y-115452380D01*
X172773809Y-114404761D02*
X173011904Y-115119047D01*
X172392857Y-115119047D01*
X171821428Y-114452380D02*
X171726190Y-114452380D01*
X171630952Y-114500000D01*
X171583333Y-114547619D01*
X171535714Y-114642857D01*
X171488095Y-114833333D01*
X171488095Y-115071428D01*
X171535714Y-115261904D01*
X171583333Y-115357142D01*
X171630952Y-115404761D01*
X171726190Y-115452380D01*
X171821428Y-115452380D01*
X171916666Y-115404761D01*
X171964285Y-115357142D01*
X172011904Y-115261904D01*
X172059523Y-115071428D01*
X172059523Y-114833333D01*
X172011904Y-114642857D01*
X171964285Y-114547619D01*
X171916666Y-114500000D01*
X171821428Y-114452380D01*
%TO.C,C36*%
X171857142Y-71032142D02*
X171904761Y-70984523D01*
X171952380Y-70841666D01*
X171952380Y-70746428D01*
X171904761Y-70603571D01*
X171809523Y-70508333D01*
X171714285Y-70460714D01*
X171523809Y-70413095D01*
X171380952Y-70413095D01*
X171190476Y-70460714D01*
X171095238Y-70508333D01*
X171000000Y-70603571D01*
X170952380Y-70746428D01*
X170952380Y-70841666D01*
X171000000Y-70984523D01*
X171047619Y-71032142D01*
X170952380Y-71365476D02*
X170952380Y-71984523D01*
X171333333Y-71651190D01*
X171333333Y-71794047D01*
X171380952Y-71889285D01*
X171428571Y-71936904D01*
X171523809Y-71984523D01*
X171761904Y-71984523D01*
X171857142Y-71936904D01*
X171904761Y-71889285D01*
X171952380Y-71794047D01*
X171952380Y-71508333D01*
X171904761Y-71413095D01*
X171857142Y-71365476D01*
X170952380Y-72841666D02*
X170952380Y-72651190D01*
X171000000Y-72555952D01*
X171047619Y-72508333D01*
X171190476Y-72413095D01*
X171380952Y-72365476D01*
X171761904Y-72365476D01*
X171857142Y-72413095D01*
X171904761Y-72460714D01*
X171952380Y-72555952D01*
X171952380Y-72746428D01*
X171904761Y-72841666D01*
X171857142Y-72889285D01*
X171761904Y-72936904D01*
X171523809Y-72936904D01*
X171428571Y-72889285D01*
X171380952Y-72841666D01*
X171333333Y-72746428D01*
X171333333Y-72555952D01*
X171380952Y-72460714D01*
X171428571Y-72413095D01*
X171523809Y-72365476D01*
%TO.C,C34*%
X172107142Y-121357142D02*
X172154761Y-121309523D01*
X172202380Y-121166666D01*
X172202380Y-121071428D01*
X172154761Y-120928571D01*
X172059523Y-120833333D01*
X171964285Y-120785714D01*
X171773809Y-120738095D01*
X171630952Y-120738095D01*
X171440476Y-120785714D01*
X171345238Y-120833333D01*
X171250000Y-120928571D01*
X171202380Y-121071428D01*
X171202380Y-121166666D01*
X171250000Y-121309523D01*
X171297619Y-121357142D01*
X171202380Y-121690476D02*
X171202380Y-122309523D01*
X171583333Y-121976190D01*
X171583333Y-122119047D01*
X171630952Y-122214285D01*
X171678571Y-122261904D01*
X171773809Y-122309523D01*
X172011904Y-122309523D01*
X172107142Y-122261904D01*
X172154761Y-122214285D01*
X172202380Y-122119047D01*
X172202380Y-121833333D01*
X172154761Y-121738095D01*
X172107142Y-121690476D01*
X171535714Y-123166666D02*
X172202380Y-123166666D01*
X171154761Y-122928571D02*
X171869047Y-122690476D01*
X171869047Y-123309523D01*
%TO.C,C33*%
X171857142Y-74107142D02*
X171904761Y-74059523D01*
X171952380Y-73916666D01*
X171952380Y-73821428D01*
X171904761Y-73678571D01*
X171809523Y-73583333D01*
X171714285Y-73535714D01*
X171523809Y-73488095D01*
X171380952Y-73488095D01*
X171190476Y-73535714D01*
X171095238Y-73583333D01*
X171000000Y-73678571D01*
X170952380Y-73821428D01*
X170952380Y-73916666D01*
X171000000Y-74059523D01*
X171047619Y-74107142D01*
X170952380Y-74440476D02*
X170952380Y-75059523D01*
X171333333Y-74726190D01*
X171333333Y-74869047D01*
X171380952Y-74964285D01*
X171428571Y-75011904D01*
X171523809Y-75059523D01*
X171761904Y-75059523D01*
X171857142Y-75011904D01*
X171904761Y-74964285D01*
X171952380Y-74869047D01*
X171952380Y-74583333D01*
X171904761Y-74488095D01*
X171857142Y-74440476D01*
X170952380Y-75392857D02*
X170952380Y-76011904D01*
X171333333Y-75678571D01*
X171333333Y-75821428D01*
X171380952Y-75916666D01*
X171428571Y-75964285D01*
X171523809Y-76011904D01*
X171761904Y-76011904D01*
X171857142Y-75964285D01*
X171904761Y-75916666D01*
X171952380Y-75821428D01*
X171952380Y-75535714D01*
X171904761Y-75440476D01*
X171857142Y-75392857D01*
%TO.C,C32*%
X190357142Y-78107142D02*
X190404761Y-78059523D01*
X190452380Y-77916666D01*
X190452380Y-77821428D01*
X190404761Y-77678571D01*
X190309523Y-77583333D01*
X190214285Y-77535714D01*
X190023809Y-77488095D01*
X189880952Y-77488095D01*
X189690476Y-77535714D01*
X189595238Y-77583333D01*
X189500000Y-77678571D01*
X189452380Y-77821428D01*
X189452380Y-77916666D01*
X189500000Y-78059523D01*
X189547619Y-78107142D01*
X189452380Y-78440476D02*
X189452380Y-79059523D01*
X189833333Y-78726190D01*
X189833333Y-78869047D01*
X189880952Y-78964285D01*
X189928571Y-79011904D01*
X190023809Y-79059523D01*
X190261904Y-79059523D01*
X190357142Y-79011904D01*
X190404761Y-78964285D01*
X190452380Y-78869047D01*
X190452380Y-78583333D01*
X190404761Y-78488095D01*
X190357142Y-78440476D01*
X189547619Y-79440476D02*
X189500000Y-79488095D01*
X189452380Y-79583333D01*
X189452380Y-79821428D01*
X189500000Y-79916666D01*
X189547619Y-79964285D01*
X189642857Y-80011904D01*
X189738095Y-80011904D01*
X189880952Y-79964285D01*
X190452380Y-79392857D01*
X190452380Y-80011904D01*
%TO.C,C31*%
X186357142Y-118607142D02*
X186404761Y-118559523D01*
X186452380Y-118416666D01*
X186452380Y-118321428D01*
X186404761Y-118178571D01*
X186309523Y-118083333D01*
X186214285Y-118035714D01*
X186023809Y-117988095D01*
X185880952Y-117988095D01*
X185690476Y-118035714D01*
X185595238Y-118083333D01*
X185500000Y-118178571D01*
X185452380Y-118321428D01*
X185452380Y-118416666D01*
X185500000Y-118559523D01*
X185547619Y-118607142D01*
X185452380Y-118940476D02*
X185452380Y-119559523D01*
X185833333Y-119226190D01*
X185833333Y-119369047D01*
X185880952Y-119464285D01*
X185928571Y-119511904D01*
X186023809Y-119559523D01*
X186261904Y-119559523D01*
X186357142Y-119511904D01*
X186404761Y-119464285D01*
X186452380Y-119369047D01*
X186452380Y-119083333D01*
X186404761Y-118988095D01*
X186357142Y-118940476D01*
X186452380Y-120511904D02*
X186452380Y-119940476D01*
X186452380Y-120226190D02*
X185452380Y-120226190D01*
X185595238Y-120130952D01*
X185690476Y-120035714D01*
X185738095Y-119940476D01*
%TO.C,C30*%
X183392857Y-82857142D02*
X183440476Y-82904761D01*
X183583333Y-82952380D01*
X183678571Y-82952380D01*
X183821428Y-82904761D01*
X183916666Y-82809523D01*
X183964285Y-82714285D01*
X184011904Y-82523809D01*
X184011904Y-82380952D01*
X183964285Y-82190476D01*
X183916666Y-82095238D01*
X183821428Y-82000000D01*
X183678571Y-81952380D01*
X183583333Y-81952380D01*
X183440476Y-82000000D01*
X183392857Y-82047619D01*
X183059523Y-81952380D02*
X182440476Y-81952380D01*
X182773809Y-82333333D01*
X182630952Y-82333333D01*
X182535714Y-82380952D01*
X182488095Y-82428571D01*
X182440476Y-82523809D01*
X182440476Y-82761904D01*
X182488095Y-82857142D01*
X182535714Y-82904761D01*
X182630952Y-82952380D01*
X182916666Y-82952380D01*
X183011904Y-82904761D01*
X183059523Y-82857142D01*
X181821428Y-81952380D02*
X181726190Y-81952380D01*
X181630952Y-82000000D01*
X181583333Y-82047619D01*
X181535714Y-82142857D01*
X181488095Y-82333333D01*
X181488095Y-82571428D01*
X181535714Y-82761904D01*
X181583333Y-82857142D01*
X181630952Y-82904761D01*
X181726190Y-82952380D01*
X181821428Y-82952380D01*
X181916666Y-82904761D01*
X181964285Y-82857142D01*
X182011904Y-82761904D01*
X182059523Y-82571428D01*
X182059523Y-82333333D01*
X182011904Y-82142857D01*
X181964285Y-82047619D01*
X181916666Y-82000000D01*
X181821428Y-81952380D01*
%TO.C,C29*%
X175607142Y-76607142D02*
X175654761Y-76559523D01*
X175702380Y-76416666D01*
X175702380Y-76321428D01*
X175654761Y-76178571D01*
X175559523Y-76083333D01*
X175464285Y-76035714D01*
X175273809Y-75988095D01*
X175130952Y-75988095D01*
X174940476Y-76035714D01*
X174845238Y-76083333D01*
X174750000Y-76178571D01*
X174702380Y-76321428D01*
X174702380Y-76416666D01*
X174750000Y-76559523D01*
X174797619Y-76607142D01*
X174797619Y-76988095D02*
X174750000Y-77035714D01*
X174702380Y-77130952D01*
X174702380Y-77369047D01*
X174750000Y-77464285D01*
X174797619Y-77511904D01*
X174892857Y-77559523D01*
X174988095Y-77559523D01*
X175130952Y-77511904D01*
X175702380Y-76940476D01*
X175702380Y-77559523D01*
X175702380Y-78035714D02*
X175702380Y-78226190D01*
X175654761Y-78321428D01*
X175607142Y-78369047D01*
X175464285Y-78464285D01*
X175273809Y-78511904D01*
X174892857Y-78511904D01*
X174797619Y-78464285D01*
X174750000Y-78416666D01*
X174702380Y-78321428D01*
X174702380Y-78130952D01*
X174750000Y-78035714D01*
X174797619Y-77988095D01*
X174892857Y-77940476D01*
X175130952Y-77940476D01*
X175226190Y-77988095D01*
X175273809Y-78035714D01*
X175321428Y-78130952D01*
X175321428Y-78321428D01*
X175273809Y-78416666D01*
X175226190Y-78464285D01*
X175130952Y-78511904D01*
%TO.C,C28*%
X171457142Y-99207142D02*
X171504761Y-99159523D01*
X171552380Y-99016666D01*
X171552380Y-98921428D01*
X171504761Y-98778571D01*
X171409523Y-98683333D01*
X171314285Y-98635714D01*
X171123809Y-98588095D01*
X170980952Y-98588095D01*
X170790476Y-98635714D01*
X170695238Y-98683333D01*
X170600000Y-98778571D01*
X170552380Y-98921428D01*
X170552380Y-99016666D01*
X170600000Y-99159523D01*
X170647619Y-99207142D01*
X170647619Y-99588095D02*
X170600000Y-99635714D01*
X170552380Y-99730952D01*
X170552380Y-99969047D01*
X170600000Y-100064285D01*
X170647619Y-100111904D01*
X170742857Y-100159523D01*
X170838095Y-100159523D01*
X170980952Y-100111904D01*
X171552380Y-99540476D01*
X171552380Y-100159523D01*
X170980952Y-100730952D02*
X170933333Y-100635714D01*
X170885714Y-100588095D01*
X170790476Y-100540476D01*
X170742857Y-100540476D01*
X170647619Y-100588095D01*
X170600000Y-100635714D01*
X170552380Y-100730952D01*
X170552380Y-100921428D01*
X170600000Y-101016666D01*
X170647619Y-101064285D01*
X170742857Y-101111904D01*
X170790476Y-101111904D01*
X170885714Y-101064285D01*
X170933333Y-101016666D01*
X170980952Y-100921428D01*
X170980952Y-100730952D01*
X171028571Y-100635714D01*
X171076190Y-100588095D01*
X171171428Y-100540476D01*
X171361904Y-100540476D01*
X171457142Y-100588095D01*
X171504761Y-100635714D01*
X171552380Y-100730952D01*
X171552380Y-100921428D01*
X171504761Y-101016666D01*
X171457142Y-101064285D01*
X171361904Y-101111904D01*
X171171428Y-101111904D01*
X171076190Y-101064285D01*
X171028571Y-101016666D01*
X170980952Y-100921428D01*
%TO.C,C27*%
X188457142Y-98707142D02*
X188504761Y-98659523D01*
X188552380Y-98516666D01*
X188552380Y-98421428D01*
X188504761Y-98278571D01*
X188409523Y-98183333D01*
X188314285Y-98135714D01*
X188123809Y-98088095D01*
X187980952Y-98088095D01*
X187790476Y-98135714D01*
X187695238Y-98183333D01*
X187600000Y-98278571D01*
X187552380Y-98421428D01*
X187552380Y-98516666D01*
X187600000Y-98659523D01*
X187647619Y-98707142D01*
X187647619Y-99088095D02*
X187600000Y-99135714D01*
X187552380Y-99230952D01*
X187552380Y-99469047D01*
X187600000Y-99564285D01*
X187647619Y-99611904D01*
X187742857Y-99659523D01*
X187838095Y-99659523D01*
X187980952Y-99611904D01*
X188552380Y-99040476D01*
X188552380Y-99659523D01*
X187552380Y-99992857D02*
X187552380Y-100659523D01*
X188552380Y-100230952D01*
%TO.C,C25*%
X170707142Y-91744642D02*
X170754761Y-91697023D01*
X170802380Y-91554166D01*
X170802380Y-91458928D01*
X170754761Y-91316071D01*
X170659523Y-91220833D01*
X170564285Y-91173214D01*
X170373809Y-91125595D01*
X170230952Y-91125595D01*
X170040476Y-91173214D01*
X169945238Y-91220833D01*
X169850000Y-91316071D01*
X169802380Y-91458928D01*
X169802380Y-91554166D01*
X169850000Y-91697023D01*
X169897619Y-91744642D01*
X169897619Y-92125595D02*
X169850000Y-92173214D01*
X169802380Y-92268452D01*
X169802380Y-92506547D01*
X169850000Y-92601785D01*
X169897619Y-92649404D01*
X169992857Y-92697023D01*
X170088095Y-92697023D01*
X170230952Y-92649404D01*
X170802380Y-92077976D01*
X170802380Y-92697023D01*
X169802380Y-93601785D02*
X169802380Y-93125595D01*
X170278571Y-93077976D01*
X170230952Y-93125595D01*
X170183333Y-93220833D01*
X170183333Y-93458928D01*
X170230952Y-93554166D01*
X170278571Y-93601785D01*
X170373809Y-93649404D01*
X170611904Y-93649404D01*
X170707142Y-93601785D01*
X170754761Y-93554166D01*
X170802380Y-93458928D01*
X170802380Y-93220833D01*
X170754761Y-93125595D01*
X170707142Y-93077976D01*
%TO.C,C24*%
X176392857Y-65857142D02*
X176440476Y-65904761D01*
X176583333Y-65952380D01*
X176678571Y-65952380D01*
X176821428Y-65904761D01*
X176916666Y-65809523D01*
X176964285Y-65714285D01*
X177011904Y-65523809D01*
X177011904Y-65380952D01*
X176964285Y-65190476D01*
X176916666Y-65095238D01*
X176821428Y-65000000D01*
X176678571Y-64952380D01*
X176583333Y-64952380D01*
X176440476Y-65000000D01*
X176392857Y-65047619D01*
X176011904Y-65047619D02*
X175964285Y-65000000D01*
X175869047Y-64952380D01*
X175630952Y-64952380D01*
X175535714Y-65000000D01*
X175488095Y-65047619D01*
X175440476Y-65142857D01*
X175440476Y-65238095D01*
X175488095Y-65380952D01*
X176059523Y-65952380D01*
X175440476Y-65952380D01*
X174583333Y-65285714D02*
X174583333Y-65952380D01*
X174821428Y-64904761D02*
X175059523Y-65619047D01*
X174440476Y-65619047D01*
%TO.C,C23*%
X171527142Y-95669642D02*
X171574761Y-95622023D01*
X171622380Y-95479166D01*
X171622380Y-95383928D01*
X171574761Y-95241071D01*
X171479523Y-95145833D01*
X171384285Y-95098214D01*
X171193809Y-95050595D01*
X171050952Y-95050595D01*
X170860476Y-95098214D01*
X170765238Y-95145833D01*
X170670000Y-95241071D01*
X170622380Y-95383928D01*
X170622380Y-95479166D01*
X170670000Y-95622023D01*
X170717619Y-95669642D01*
X170717619Y-96050595D02*
X170670000Y-96098214D01*
X170622380Y-96193452D01*
X170622380Y-96431547D01*
X170670000Y-96526785D01*
X170717619Y-96574404D01*
X170812857Y-96622023D01*
X170908095Y-96622023D01*
X171050952Y-96574404D01*
X171622380Y-96002976D01*
X171622380Y-96622023D01*
X170622380Y-96955357D02*
X170622380Y-97574404D01*
X171003333Y-97241071D01*
X171003333Y-97383928D01*
X171050952Y-97479166D01*
X171098571Y-97526785D01*
X171193809Y-97574404D01*
X171431904Y-97574404D01*
X171527142Y-97526785D01*
X171574761Y-97479166D01*
X171622380Y-97383928D01*
X171622380Y-97098214D01*
X171574761Y-97002976D01*
X171527142Y-96955357D01*
%TO.C,C22*%
X173107142Y-66107142D02*
X173154761Y-66059523D01*
X173202380Y-65916666D01*
X173202380Y-65821428D01*
X173154761Y-65678571D01*
X173059523Y-65583333D01*
X172964285Y-65535714D01*
X172773809Y-65488095D01*
X172630952Y-65488095D01*
X172440476Y-65535714D01*
X172345238Y-65583333D01*
X172250000Y-65678571D01*
X172202380Y-65821428D01*
X172202380Y-65916666D01*
X172250000Y-66059523D01*
X172297619Y-66107142D01*
X172297619Y-66488095D02*
X172250000Y-66535714D01*
X172202380Y-66630952D01*
X172202380Y-66869047D01*
X172250000Y-66964285D01*
X172297619Y-67011904D01*
X172392857Y-67059523D01*
X172488095Y-67059523D01*
X172630952Y-67011904D01*
X173202380Y-66440476D01*
X173202380Y-67059523D01*
X172297619Y-67440476D02*
X172250000Y-67488095D01*
X172202380Y-67583333D01*
X172202380Y-67821428D01*
X172250000Y-67916666D01*
X172297619Y-67964285D01*
X172392857Y-68011904D01*
X172488095Y-68011904D01*
X172630952Y-67964285D01*
X173202380Y-67392857D01*
X173202380Y-68011904D01*
%TO.C,C21*%
X171457142Y-102207142D02*
X171504761Y-102159523D01*
X171552380Y-102016666D01*
X171552380Y-101921428D01*
X171504761Y-101778571D01*
X171409523Y-101683333D01*
X171314285Y-101635714D01*
X171123809Y-101588095D01*
X170980952Y-101588095D01*
X170790476Y-101635714D01*
X170695238Y-101683333D01*
X170600000Y-101778571D01*
X170552380Y-101921428D01*
X170552380Y-102016666D01*
X170600000Y-102159523D01*
X170647619Y-102207142D01*
X170647619Y-102588095D02*
X170600000Y-102635714D01*
X170552380Y-102730952D01*
X170552380Y-102969047D01*
X170600000Y-103064285D01*
X170647619Y-103111904D01*
X170742857Y-103159523D01*
X170838095Y-103159523D01*
X170980952Y-103111904D01*
X171552380Y-102540476D01*
X171552380Y-103159523D01*
X171552380Y-104111904D02*
X171552380Y-103540476D01*
X171552380Y-103826190D02*
X170552380Y-103826190D01*
X170695238Y-103730952D01*
X170790476Y-103635714D01*
X170838095Y-103540476D01*
%TO.C,C20*%
X178607142Y-65857142D02*
X178654761Y-65809523D01*
X178702380Y-65666666D01*
X178702380Y-65571428D01*
X178654761Y-65428571D01*
X178559523Y-65333333D01*
X178464285Y-65285714D01*
X178273809Y-65238095D01*
X178130952Y-65238095D01*
X177940476Y-65285714D01*
X177845238Y-65333333D01*
X177750000Y-65428571D01*
X177702380Y-65571428D01*
X177702380Y-65666666D01*
X177750000Y-65809523D01*
X177797619Y-65857142D01*
X177797619Y-66238095D02*
X177750000Y-66285714D01*
X177702380Y-66380952D01*
X177702380Y-66619047D01*
X177750000Y-66714285D01*
X177797619Y-66761904D01*
X177892857Y-66809523D01*
X177988095Y-66809523D01*
X178130952Y-66761904D01*
X178702380Y-66190476D01*
X178702380Y-66809523D01*
X177702380Y-67428571D02*
X177702380Y-67523809D01*
X177750000Y-67619047D01*
X177797619Y-67666666D01*
X177892857Y-67714285D01*
X178083333Y-67761904D01*
X178321428Y-67761904D01*
X178511904Y-67714285D01*
X178607142Y-67666666D01*
X178654761Y-67619047D01*
X178702380Y-67523809D01*
X178702380Y-67428571D01*
X178654761Y-67333333D01*
X178607142Y-67285714D01*
X178511904Y-67238095D01*
X178321428Y-67190476D01*
X178083333Y-67190476D01*
X177892857Y-67238095D01*
X177797619Y-67285714D01*
X177750000Y-67333333D01*
X177702380Y-67428571D01*
%TO.C,C19*%
X171527142Y-106244642D02*
X171574761Y-106197023D01*
X171622380Y-106054166D01*
X171622380Y-105958928D01*
X171574761Y-105816071D01*
X171479523Y-105720833D01*
X171384285Y-105673214D01*
X171193809Y-105625595D01*
X171050952Y-105625595D01*
X170860476Y-105673214D01*
X170765238Y-105720833D01*
X170670000Y-105816071D01*
X170622380Y-105958928D01*
X170622380Y-106054166D01*
X170670000Y-106197023D01*
X170717619Y-106244642D01*
X171622380Y-107197023D02*
X171622380Y-106625595D01*
X171622380Y-106911309D02*
X170622380Y-106911309D01*
X170765238Y-106816071D01*
X170860476Y-106720833D01*
X170908095Y-106625595D01*
X171622380Y-107673214D02*
X171622380Y-107863690D01*
X171574761Y-107958928D01*
X171527142Y-108006547D01*
X171384285Y-108101785D01*
X171193809Y-108149404D01*
X170812857Y-108149404D01*
X170717619Y-108101785D01*
X170670000Y-108054166D01*
X170622380Y-107958928D01*
X170622380Y-107768452D01*
X170670000Y-107673214D01*
X170717619Y-107625595D01*
X170812857Y-107577976D01*
X171050952Y-107577976D01*
X171146190Y-107625595D01*
X171193809Y-107673214D01*
X171241428Y-107768452D01*
X171241428Y-107958928D01*
X171193809Y-108054166D01*
X171146190Y-108101785D01*
X171050952Y-108149404D01*
%TO.C,C18*%
X180357142Y-65857142D02*
X180404761Y-65809523D01*
X180452380Y-65666666D01*
X180452380Y-65571428D01*
X180404761Y-65428571D01*
X180309523Y-65333333D01*
X180214285Y-65285714D01*
X180023809Y-65238095D01*
X179880952Y-65238095D01*
X179690476Y-65285714D01*
X179595238Y-65333333D01*
X179500000Y-65428571D01*
X179452380Y-65571428D01*
X179452380Y-65666666D01*
X179500000Y-65809523D01*
X179547619Y-65857142D01*
X180452380Y-66809523D02*
X180452380Y-66238095D01*
X180452380Y-66523809D02*
X179452380Y-66523809D01*
X179595238Y-66428571D01*
X179690476Y-66333333D01*
X179738095Y-66238095D01*
X179880952Y-67380952D02*
X179833333Y-67285714D01*
X179785714Y-67238095D01*
X179690476Y-67190476D01*
X179642857Y-67190476D01*
X179547619Y-67238095D01*
X179500000Y-67285714D01*
X179452380Y-67380952D01*
X179452380Y-67571428D01*
X179500000Y-67666666D01*
X179547619Y-67714285D01*
X179642857Y-67761904D01*
X179690476Y-67761904D01*
X179785714Y-67714285D01*
X179833333Y-67666666D01*
X179880952Y-67571428D01*
X179880952Y-67380952D01*
X179928571Y-67285714D01*
X179976190Y-67238095D01*
X180071428Y-67190476D01*
X180261904Y-67190476D01*
X180357142Y-67238095D01*
X180404761Y-67285714D01*
X180452380Y-67380952D01*
X180452380Y-67571428D01*
X180404761Y-67666666D01*
X180357142Y-67714285D01*
X180261904Y-67761904D01*
X180071428Y-67761904D01*
X179976190Y-67714285D01*
X179928571Y-67666666D01*
X179880952Y-67571428D01*
%TO.C,C17*%
X179742857Y-110637142D02*
X179790476Y-110684761D01*
X179933333Y-110732380D01*
X180028571Y-110732380D01*
X180171428Y-110684761D01*
X180266666Y-110589523D01*
X180314285Y-110494285D01*
X180361904Y-110303809D01*
X180361904Y-110160952D01*
X180314285Y-109970476D01*
X180266666Y-109875238D01*
X180171428Y-109780000D01*
X180028571Y-109732380D01*
X179933333Y-109732380D01*
X179790476Y-109780000D01*
X179742857Y-109827619D01*
X178790476Y-110732380D02*
X179361904Y-110732380D01*
X179076190Y-110732380D02*
X179076190Y-109732380D01*
X179171428Y-109875238D01*
X179266666Y-109970476D01*
X179361904Y-110018095D01*
X178457142Y-109732380D02*
X177790476Y-109732380D01*
X178219047Y-110732380D01*
%TO.C,C16*%
X183607142Y-65857142D02*
X183654761Y-65809523D01*
X183702380Y-65666666D01*
X183702380Y-65571428D01*
X183654761Y-65428571D01*
X183559523Y-65333333D01*
X183464285Y-65285714D01*
X183273809Y-65238095D01*
X183130952Y-65238095D01*
X182940476Y-65285714D01*
X182845238Y-65333333D01*
X182750000Y-65428571D01*
X182702380Y-65571428D01*
X182702380Y-65666666D01*
X182750000Y-65809523D01*
X182797619Y-65857142D01*
X183702380Y-66809523D02*
X183702380Y-66238095D01*
X183702380Y-66523809D02*
X182702380Y-66523809D01*
X182845238Y-66428571D01*
X182940476Y-66333333D01*
X182988095Y-66238095D01*
X182702380Y-67666666D02*
X182702380Y-67476190D01*
X182750000Y-67380952D01*
X182797619Y-67333333D01*
X182940476Y-67238095D01*
X183130952Y-67190476D01*
X183511904Y-67190476D01*
X183607142Y-67238095D01*
X183654761Y-67285714D01*
X183702380Y-67380952D01*
X183702380Y-67571428D01*
X183654761Y-67666666D01*
X183607142Y-67714285D01*
X183511904Y-67761904D01*
X183273809Y-67761904D01*
X183178571Y-67714285D01*
X183130952Y-67666666D01*
X183083333Y-67571428D01*
X183083333Y-67380952D01*
X183130952Y-67285714D01*
X183178571Y-67238095D01*
X183273809Y-67190476D01*
%TO.C,C15*%
X188457142Y-105994642D02*
X188504761Y-105947023D01*
X188552380Y-105804166D01*
X188552380Y-105708928D01*
X188504761Y-105566071D01*
X188409523Y-105470833D01*
X188314285Y-105423214D01*
X188123809Y-105375595D01*
X187980952Y-105375595D01*
X187790476Y-105423214D01*
X187695238Y-105470833D01*
X187600000Y-105566071D01*
X187552380Y-105708928D01*
X187552380Y-105804166D01*
X187600000Y-105947023D01*
X187647619Y-105994642D01*
X188552380Y-106947023D02*
X188552380Y-106375595D01*
X188552380Y-106661309D02*
X187552380Y-106661309D01*
X187695238Y-106566071D01*
X187790476Y-106470833D01*
X187838095Y-106375595D01*
X187552380Y-107851785D02*
X187552380Y-107375595D01*
X188028571Y-107327976D01*
X187980952Y-107375595D01*
X187933333Y-107470833D01*
X187933333Y-107708928D01*
X187980952Y-107804166D01*
X188028571Y-107851785D01*
X188123809Y-107899404D01*
X188361904Y-107899404D01*
X188457142Y-107851785D01*
X188504761Y-107804166D01*
X188552380Y-107708928D01*
X188552380Y-107470833D01*
X188504761Y-107375595D01*
X188457142Y-107327976D01*
%TO.C,C14*%
X185642857Y-79392857D02*
X185595238Y-79440476D01*
X185547619Y-79583333D01*
X185547619Y-79678571D01*
X185595238Y-79821428D01*
X185690476Y-79916666D01*
X185785714Y-79964285D01*
X185976190Y-80011904D01*
X186119047Y-80011904D01*
X186309523Y-79964285D01*
X186404761Y-79916666D01*
X186500000Y-79821428D01*
X186547619Y-79678571D01*
X186547619Y-79583333D01*
X186500000Y-79440476D01*
X186452380Y-79392857D01*
X185547619Y-78440476D02*
X185547619Y-79011904D01*
X185547619Y-78726190D02*
X186547619Y-78726190D01*
X186404761Y-78821428D01*
X186309523Y-78916666D01*
X186261904Y-79011904D01*
X186214285Y-77583333D02*
X185547619Y-77583333D01*
X186595238Y-77821428D02*
X185880952Y-78059523D01*
X185880952Y-77440476D01*
%TO.C,C13*%
X188387142Y-102169642D02*
X188434761Y-102122023D01*
X188482380Y-101979166D01*
X188482380Y-101883928D01*
X188434761Y-101741071D01*
X188339523Y-101645833D01*
X188244285Y-101598214D01*
X188053809Y-101550595D01*
X187910952Y-101550595D01*
X187720476Y-101598214D01*
X187625238Y-101645833D01*
X187530000Y-101741071D01*
X187482380Y-101883928D01*
X187482380Y-101979166D01*
X187530000Y-102122023D01*
X187577619Y-102169642D01*
X188482380Y-103122023D02*
X188482380Y-102550595D01*
X188482380Y-102836309D02*
X187482380Y-102836309D01*
X187625238Y-102741071D01*
X187720476Y-102645833D01*
X187768095Y-102550595D01*
X187482380Y-103455357D02*
X187482380Y-104074404D01*
X187863333Y-103741071D01*
X187863333Y-103883928D01*
X187910952Y-103979166D01*
X187958571Y-104026785D01*
X188053809Y-104074404D01*
X188291904Y-104074404D01*
X188387142Y-104026785D01*
X188434761Y-103979166D01*
X188482380Y-103883928D01*
X188482380Y-103598214D01*
X188434761Y-103502976D01*
X188387142Y-103455357D01*
%TO.C,C12*%
X180355357Y-82787142D02*
X180402976Y-82834761D01*
X180545833Y-82882380D01*
X180641071Y-82882380D01*
X180783928Y-82834761D01*
X180879166Y-82739523D01*
X180926785Y-82644285D01*
X180974404Y-82453809D01*
X180974404Y-82310952D01*
X180926785Y-82120476D01*
X180879166Y-82025238D01*
X180783928Y-81930000D01*
X180641071Y-81882380D01*
X180545833Y-81882380D01*
X180402976Y-81930000D01*
X180355357Y-81977619D01*
X179402976Y-82882380D02*
X179974404Y-82882380D01*
X179688690Y-82882380D02*
X179688690Y-81882380D01*
X179783928Y-82025238D01*
X179879166Y-82120476D01*
X179974404Y-82168095D01*
X179022023Y-81977619D02*
X178974404Y-81930000D01*
X178879166Y-81882380D01*
X178641071Y-81882380D01*
X178545833Y-81930000D01*
X178498214Y-81977619D01*
X178450595Y-82072857D01*
X178450595Y-82168095D01*
X178498214Y-82310952D01*
X179069642Y-82882380D01*
X178450595Y-82882380D01*
%TO.C,C11*%
X188457142Y-95669642D02*
X188504761Y-95622023D01*
X188552380Y-95479166D01*
X188552380Y-95383928D01*
X188504761Y-95241071D01*
X188409523Y-95145833D01*
X188314285Y-95098214D01*
X188123809Y-95050595D01*
X187980952Y-95050595D01*
X187790476Y-95098214D01*
X187695238Y-95145833D01*
X187600000Y-95241071D01*
X187552380Y-95383928D01*
X187552380Y-95479166D01*
X187600000Y-95622023D01*
X187647619Y-95669642D01*
X188552380Y-96622023D02*
X188552380Y-96050595D01*
X188552380Y-96336309D02*
X187552380Y-96336309D01*
X187695238Y-96241071D01*
X187790476Y-96145833D01*
X187838095Y-96050595D01*
X188552380Y-97574404D02*
X188552380Y-97002976D01*
X188552380Y-97288690D02*
X187552380Y-97288690D01*
X187695238Y-97193452D01*
X187790476Y-97098214D01*
X187838095Y-97002976D01*
%TO.C,C10*%
X177355357Y-82787142D02*
X177402976Y-82834761D01*
X177545833Y-82882380D01*
X177641071Y-82882380D01*
X177783928Y-82834761D01*
X177879166Y-82739523D01*
X177926785Y-82644285D01*
X177974404Y-82453809D01*
X177974404Y-82310952D01*
X177926785Y-82120476D01*
X177879166Y-82025238D01*
X177783928Y-81930000D01*
X177641071Y-81882380D01*
X177545833Y-81882380D01*
X177402976Y-81930000D01*
X177355357Y-81977619D01*
X176402976Y-82882380D02*
X176974404Y-82882380D01*
X176688690Y-82882380D02*
X176688690Y-81882380D01*
X176783928Y-82025238D01*
X176879166Y-82120476D01*
X176974404Y-82168095D01*
X175783928Y-81882380D02*
X175688690Y-81882380D01*
X175593452Y-81930000D01*
X175545833Y-81977619D01*
X175498214Y-82072857D01*
X175450595Y-82263333D01*
X175450595Y-82501428D01*
X175498214Y-82691904D01*
X175545833Y-82787142D01*
X175593452Y-82834761D01*
X175688690Y-82882380D01*
X175783928Y-82882380D01*
X175879166Y-82834761D01*
X175926785Y-82787142D01*
X175974404Y-82691904D01*
X176022023Y-82501428D01*
X176022023Y-82263333D01*
X175974404Y-82072857D01*
X175926785Y-81977619D01*
X175879166Y-81930000D01*
X175783928Y-81882380D01*
%TO.C,C9*%
X188387142Y-92220833D02*
X188434761Y-92173214D01*
X188482380Y-92030357D01*
X188482380Y-91935119D01*
X188434761Y-91792261D01*
X188339523Y-91697023D01*
X188244285Y-91649404D01*
X188053809Y-91601785D01*
X187910952Y-91601785D01*
X187720476Y-91649404D01*
X187625238Y-91697023D01*
X187530000Y-91792261D01*
X187482380Y-91935119D01*
X187482380Y-92030357D01*
X187530000Y-92173214D01*
X187577619Y-92220833D01*
X188482380Y-92697023D02*
X188482380Y-92887500D01*
X188434761Y-92982738D01*
X188387142Y-93030357D01*
X188244285Y-93125595D01*
X188053809Y-93173214D01*
X187672857Y-93173214D01*
X187577619Y-93125595D01*
X187530000Y-93077976D01*
X187482380Y-92982738D01*
X187482380Y-92792261D01*
X187530000Y-92697023D01*
X187577619Y-92649404D01*
X187672857Y-92601785D01*
X187910952Y-92601785D01*
X188006190Y-92649404D01*
X188053809Y-92697023D01*
X188101428Y-92792261D01*
X188101428Y-92982738D01*
X188053809Y-93077976D01*
X188006190Y-93125595D01*
X187910952Y-93173214D01*
%TD*%
M02*
