%TF.GenerationSoftware,KiCad,Pcbnew,(5.1.6)-1*%
%TF.CreationDate,2020-12-14T06:54:32-07:00*%
%TF.ProjectId,DDS,4444532e-6b69-4636-9164-5f7063625858,rev?*%
%TF.SameCoordinates,Original*%
%TF.FileFunction,Soldermask,Top*%
%TF.FilePolarity,Negative*%
%FSLAX46Y46*%
G04 Gerber Fmt 4.6, Leading zero omitted, Abs format (unit mm)*
G04 Created by KiCad (PCBNEW (5.1.6)-1) date 2020-12-14 06:54:32*
%MOMM*%
%LPD*%
G01*
G04 APERTURE LIST*
%ADD10C,0.100000*%
%ADD11C,0.150000*%
%ADD12C,0.300000*%
%ADD13C,0.400000*%
%ADD14C,3.300000*%
%ADD15O,1.800000X1.800000*%
%ADD16R,1.800000X1.800000*%
%ADD17C,1.000000*%
%ADD18R,0.600000X2.600000*%
%ADD19R,2.100000X2.600000*%
%ADD20R,2.100000X1.600000*%
%ADD21R,2.100000X3.900000*%
%ADD22R,0.900000X0.400000*%
%ADD23R,1.370000X3.700000*%
%ADD24R,1.450000X4.300000*%
%ADD25R,7.975000X2.100000*%
%ADD26R,5.100000X5.100000*%
%ADD27R,1.200000X0.850000*%
%ADD28R,0.780000X0.850000*%
%ADD29R,1.750000X2.640000*%
%ADD30C,1.500000*%
%ADD31R,2.600000X2.100000*%
G04 APERTURE END LIST*
D10*
D11*
X177002200Y-166007200D02*
X177002200Y-198007200D01*
X285002200Y-198007200D01*
X285002200Y-166007200D01*
X177002200Y-166007200D01*
D10*
D11*
X10000000Y-10000000D02*
X10000000Y-200007200D01*
X287002200Y-200007200D01*
X287002200Y-10000000D01*
X10000000Y-10000000D01*
D10*
D11*
X12000000Y-12000000D02*
X12000000Y-198007200D01*
X285002200Y-198007200D01*
X285002200Y-12000000D01*
X12000000Y-12000000D01*
D10*
D11*
X60000000Y-12000000D02*
X60000000Y-10000000D01*
D10*
D11*
X110000000Y-12000000D02*
X110000000Y-10000000D01*
D10*
D11*
X160000000Y-12000000D02*
X160000000Y-10000000D01*
D10*
D11*
X210000000Y-12000000D02*
X210000000Y-10000000D01*
D10*
D11*
X260000000Y-12000000D02*
X260000000Y-10000000D01*
D10*
D11*
X36065476Y-11588095D02*
X35322619Y-11588095D01*
X35694047Y-11588095D02*
X35694047Y-10288095D01*
X35570238Y-10473809D01*
X35446428Y-10597619D01*
X35322619Y-10659523D01*
D10*
D11*
X85322619Y-10411904D02*
X85384523Y-10350000D01*
X85508333Y-10288095D01*
X85817857Y-10288095D01*
X85941666Y-10350000D01*
X86003571Y-10411904D01*
X86065476Y-10535714D01*
X86065476Y-10659523D01*
X86003571Y-10845238D01*
X85260714Y-11588095D01*
X86065476Y-11588095D01*
D10*
D11*
X135260714Y-10288095D02*
X136065476Y-10288095D01*
X135632142Y-10783333D01*
X135817857Y-10783333D01*
X135941666Y-10845238D01*
X136003571Y-10907142D01*
X136065476Y-11030952D01*
X136065476Y-11340476D01*
X136003571Y-11464285D01*
X135941666Y-11526190D01*
X135817857Y-11588095D01*
X135446428Y-11588095D01*
X135322619Y-11526190D01*
X135260714Y-11464285D01*
D10*
D11*
X185941666Y-10721428D02*
X185941666Y-11588095D01*
X185632142Y-10226190D02*
X185322619Y-11154761D01*
X186127380Y-11154761D01*
D10*
D11*
X236003571Y-10288095D02*
X235384523Y-10288095D01*
X235322619Y-10907142D01*
X235384523Y-10845238D01*
X235508333Y-10783333D01*
X235817857Y-10783333D01*
X235941666Y-10845238D01*
X236003571Y-10907142D01*
X236065476Y-11030952D01*
X236065476Y-11340476D01*
X236003571Y-11464285D01*
X235941666Y-11526190D01*
X235817857Y-11588095D01*
X235508333Y-11588095D01*
X235384523Y-11526190D01*
X235322619Y-11464285D01*
D10*
D11*
X285941666Y-10288095D02*
X285694047Y-10288095D01*
X285570238Y-10350000D01*
X285508333Y-10411904D01*
X285384523Y-10597619D01*
X285322619Y-10845238D01*
X285322619Y-11340476D01*
X285384523Y-11464285D01*
X285446428Y-11526190D01*
X285570238Y-11588095D01*
X285817857Y-11588095D01*
X285941666Y-11526190D01*
X286003571Y-11464285D01*
X286065476Y-11340476D01*
X286065476Y-11030952D01*
X286003571Y-10907142D01*
X285941666Y-10845238D01*
X285817857Y-10783333D01*
X285570238Y-10783333D01*
X285446428Y-10845238D01*
X285384523Y-10907142D01*
X285322619Y-11030952D01*
D10*
D11*
X60000000Y-198007200D02*
X60000000Y-200007200D01*
D10*
D11*
X110000000Y-198007200D02*
X110000000Y-200007200D01*
D10*
D11*
X160000000Y-198007200D02*
X160000000Y-200007200D01*
D10*
D11*
X210000000Y-198007200D02*
X210000000Y-200007200D01*
D10*
D11*
X260000000Y-198007200D02*
X260000000Y-200007200D01*
D10*
D11*
X36065476Y-199595295D02*
X35322619Y-199595295D01*
X35694047Y-199595295D02*
X35694047Y-198295295D01*
X35570238Y-198481009D01*
X35446428Y-198604819D01*
X35322619Y-198666723D01*
D10*
D11*
X85322619Y-198419104D02*
X85384523Y-198357200D01*
X85508333Y-198295295D01*
X85817857Y-198295295D01*
X85941666Y-198357200D01*
X86003571Y-198419104D01*
X86065476Y-198542914D01*
X86065476Y-198666723D01*
X86003571Y-198852438D01*
X85260714Y-199595295D01*
X86065476Y-199595295D01*
D10*
D11*
X135260714Y-198295295D02*
X136065476Y-198295295D01*
X135632142Y-198790533D01*
X135817857Y-198790533D01*
X135941666Y-198852438D01*
X136003571Y-198914342D01*
X136065476Y-199038152D01*
X136065476Y-199347676D01*
X136003571Y-199471485D01*
X135941666Y-199533390D01*
X135817857Y-199595295D01*
X135446428Y-199595295D01*
X135322619Y-199533390D01*
X135260714Y-199471485D01*
D10*
D11*
X185941666Y-198728628D02*
X185941666Y-199595295D01*
X185632142Y-198233390D02*
X185322619Y-199161961D01*
X186127380Y-199161961D01*
D10*
D11*
X236003571Y-198295295D02*
X235384523Y-198295295D01*
X235322619Y-198914342D01*
X235384523Y-198852438D01*
X235508333Y-198790533D01*
X235817857Y-198790533D01*
X235941666Y-198852438D01*
X236003571Y-198914342D01*
X236065476Y-199038152D01*
X236065476Y-199347676D01*
X236003571Y-199471485D01*
X235941666Y-199533390D01*
X235817857Y-199595295D01*
X235508333Y-199595295D01*
X235384523Y-199533390D01*
X235322619Y-199471485D01*
D10*
D11*
X285941666Y-198295295D02*
X285694047Y-198295295D01*
X285570238Y-198357200D01*
X285508333Y-198419104D01*
X285384523Y-198604819D01*
X285322619Y-198852438D01*
X285322619Y-199347676D01*
X285384523Y-199471485D01*
X285446428Y-199533390D01*
X285570238Y-199595295D01*
X285817857Y-199595295D01*
X285941666Y-199533390D01*
X286003571Y-199471485D01*
X286065476Y-199347676D01*
X286065476Y-199038152D01*
X286003571Y-198914342D01*
X285941666Y-198852438D01*
X285817857Y-198790533D01*
X285570238Y-198790533D01*
X285446428Y-198852438D01*
X285384523Y-198914342D01*
X285322619Y-199038152D01*
D10*
D11*
X10000000Y-60000000D02*
X12000000Y-60000000D01*
D10*
D11*
X10000000Y-110000000D02*
X12000000Y-110000000D01*
D10*
D11*
X10000000Y-160000000D02*
X12000000Y-160000000D01*
D10*
D11*
X10690476Y-35216666D02*
X11309523Y-35216666D01*
X10566666Y-35588095D02*
X11000000Y-34288095D01*
X11433333Y-35588095D01*
D10*
D11*
X11092857Y-84907142D02*
X11278571Y-84969047D01*
X11340476Y-85030952D01*
X11402380Y-85154761D01*
X11402380Y-85340476D01*
X11340476Y-85464285D01*
X11278571Y-85526190D01*
X11154761Y-85588095D01*
X10659523Y-85588095D01*
X10659523Y-84288095D01*
X11092857Y-84288095D01*
X11216666Y-84350000D01*
X11278571Y-84411904D01*
X11340476Y-84535714D01*
X11340476Y-84659523D01*
X11278571Y-84783333D01*
X11216666Y-84845238D01*
X11092857Y-84907142D01*
X10659523Y-84907142D01*
D10*
D11*
X11402380Y-135464285D02*
X11340476Y-135526190D01*
X11154761Y-135588095D01*
X11030952Y-135588095D01*
X10845238Y-135526190D01*
X10721428Y-135402380D01*
X10659523Y-135278571D01*
X10597619Y-135030952D01*
X10597619Y-134845238D01*
X10659523Y-134597619D01*
X10721428Y-134473809D01*
X10845238Y-134350000D01*
X11030952Y-134288095D01*
X11154761Y-134288095D01*
X11340476Y-134350000D01*
X11402380Y-134411904D01*
D10*
D11*
X10659523Y-185588095D02*
X10659523Y-184288095D01*
X10969047Y-184288095D01*
X11154761Y-184350000D01*
X11278571Y-184473809D01*
X11340476Y-184597619D01*
X11402380Y-184845238D01*
X11402380Y-185030952D01*
X11340476Y-185278571D01*
X11278571Y-185402380D01*
X11154761Y-185526190D01*
X10969047Y-185588095D01*
X10659523Y-185588095D01*
D10*
D11*
X287002200Y-60000000D02*
X285002200Y-60000000D01*
D10*
D11*
X287002200Y-110000000D02*
X285002200Y-110000000D01*
D10*
D11*
X287002200Y-160000000D02*
X285002200Y-160000000D01*
D10*
D11*
X285692676Y-35216666D02*
X286311723Y-35216666D01*
X285568866Y-35588095D02*
X286002200Y-34288095D01*
X286435533Y-35588095D01*
D10*
D11*
X286095057Y-84907142D02*
X286280771Y-84969047D01*
X286342676Y-85030952D01*
X286404580Y-85154761D01*
X286404580Y-85340476D01*
X286342676Y-85464285D01*
X286280771Y-85526190D01*
X286156961Y-85588095D01*
X285661723Y-85588095D01*
X285661723Y-84288095D01*
X286095057Y-84288095D01*
X286218866Y-84350000D01*
X286280771Y-84411904D01*
X286342676Y-84535714D01*
X286342676Y-84659523D01*
X286280771Y-84783333D01*
X286218866Y-84845238D01*
X286095057Y-84907142D01*
X285661723Y-84907142D01*
D10*
D11*
X286404580Y-135464285D02*
X286342676Y-135526190D01*
X286156961Y-135588095D01*
X286033152Y-135588095D01*
X285847438Y-135526190D01*
X285723628Y-135402380D01*
X285661723Y-135278571D01*
X285599819Y-135030952D01*
X285599819Y-134845238D01*
X285661723Y-134597619D01*
X285723628Y-134473809D01*
X285847438Y-134350000D01*
X286033152Y-134288095D01*
X286156961Y-134288095D01*
X286342676Y-134350000D01*
X286404580Y-134411904D01*
D10*
D11*
X285661723Y-185588095D02*
X285661723Y-184288095D01*
X285971247Y-184288095D01*
X286156961Y-184350000D01*
X286280771Y-184473809D01*
X286342676Y-184597619D01*
X286404580Y-184845238D01*
X286404580Y-185030952D01*
X286342676Y-185278571D01*
X286280771Y-185402380D01*
X286156961Y-185526190D01*
X285971247Y-185588095D01*
X285661723Y-185588095D01*
D10*
D11*
X200434342Y-193785771D02*
X200434342Y-192285771D01*
X200791485Y-192285771D01*
X201005771Y-192357200D01*
X201148628Y-192500057D01*
X201220057Y-192642914D01*
X201291485Y-192928628D01*
X201291485Y-193142914D01*
X201220057Y-193428628D01*
X201148628Y-193571485D01*
X201005771Y-193714342D01*
X200791485Y-193785771D01*
X200434342Y-193785771D01*
X202577200Y-193785771D02*
X202577200Y-193000057D01*
X202505771Y-192857200D01*
X202362914Y-192785771D01*
X202077200Y-192785771D01*
X201934342Y-192857200D01*
X202577200Y-193714342D02*
X202434342Y-193785771D01*
X202077200Y-193785771D01*
X201934342Y-193714342D01*
X201862914Y-193571485D01*
X201862914Y-193428628D01*
X201934342Y-193285771D01*
X202077200Y-193214342D01*
X202434342Y-193214342D01*
X202577200Y-193142914D01*
X203077200Y-192785771D02*
X203648628Y-192785771D01*
X203291485Y-192285771D02*
X203291485Y-193571485D01*
X203362914Y-193714342D01*
X203505771Y-193785771D01*
X203648628Y-193785771D01*
X204720057Y-193714342D02*
X204577200Y-193785771D01*
X204291485Y-193785771D01*
X204148628Y-193714342D01*
X204077200Y-193571485D01*
X204077200Y-193000057D01*
X204148628Y-192857200D01*
X204291485Y-192785771D01*
X204577200Y-192785771D01*
X204720057Y-192857200D01*
X204791485Y-193000057D01*
X204791485Y-193142914D01*
X204077200Y-193285771D01*
X205434342Y-193642914D02*
X205505771Y-193714342D01*
X205434342Y-193785771D01*
X205362914Y-193714342D01*
X205434342Y-193642914D01*
X205434342Y-193785771D01*
X205434342Y-192857200D02*
X205505771Y-192928628D01*
X205434342Y-193000057D01*
X205362914Y-192928628D01*
X205434342Y-192857200D01*
X205434342Y-193000057D01*
D10*
D11*
X177002200Y-194507200D02*
X285002200Y-194507200D01*
D10*
D11*
X178434342Y-196585771D02*
X178434342Y-195085771D01*
X179291485Y-196585771D02*
X178648628Y-195728628D01*
X179291485Y-195085771D02*
X178434342Y-195942914D01*
X179934342Y-196585771D02*
X179934342Y-195585771D01*
X179934342Y-195085771D02*
X179862914Y-195157200D01*
X179934342Y-195228628D01*
X180005771Y-195157200D01*
X179934342Y-195085771D01*
X179934342Y-195228628D01*
X181505771Y-196442914D02*
X181434342Y-196514342D01*
X181220057Y-196585771D01*
X181077200Y-196585771D01*
X180862914Y-196514342D01*
X180720057Y-196371485D01*
X180648628Y-196228628D01*
X180577200Y-195942914D01*
X180577200Y-195728628D01*
X180648628Y-195442914D01*
X180720057Y-195300057D01*
X180862914Y-195157200D01*
X181077200Y-195085771D01*
X181220057Y-195085771D01*
X181434342Y-195157200D01*
X181505771Y-195228628D01*
X182791485Y-196585771D02*
X182791485Y-195800057D01*
X182720057Y-195657200D01*
X182577200Y-195585771D01*
X182291485Y-195585771D01*
X182148628Y-195657200D01*
X182791485Y-196514342D02*
X182648628Y-196585771D01*
X182291485Y-196585771D01*
X182148628Y-196514342D01*
X182077200Y-196371485D01*
X182077200Y-196228628D01*
X182148628Y-196085771D01*
X182291485Y-196014342D01*
X182648628Y-196014342D01*
X182791485Y-195942914D01*
X184148628Y-196585771D02*
X184148628Y-195085771D01*
X184148628Y-196514342D02*
X184005771Y-196585771D01*
X183720057Y-196585771D01*
X183577200Y-196514342D01*
X183505771Y-196442914D01*
X183434342Y-196300057D01*
X183434342Y-195871485D01*
X183505771Y-195728628D01*
X183577200Y-195657200D01*
X183720057Y-195585771D01*
X184005771Y-195585771D01*
X184148628Y-195657200D01*
X186005771Y-195800057D02*
X186505771Y-195800057D01*
X186720057Y-196585771D02*
X186005771Y-196585771D01*
X186005771Y-195085771D01*
X186720057Y-195085771D01*
X187362914Y-196442914D02*
X187434342Y-196514342D01*
X187362914Y-196585771D01*
X187291485Y-196514342D01*
X187362914Y-196442914D01*
X187362914Y-196585771D01*
X188077200Y-196585771D02*
X188077200Y-195085771D01*
X188434342Y-195085771D01*
X188648628Y-195157200D01*
X188791485Y-195300057D01*
X188862914Y-195442914D01*
X188934342Y-195728628D01*
X188934342Y-195942914D01*
X188862914Y-196228628D01*
X188791485Y-196371485D01*
X188648628Y-196514342D01*
X188434342Y-196585771D01*
X188077200Y-196585771D01*
X189577200Y-196442914D02*
X189648628Y-196514342D01*
X189577200Y-196585771D01*
X189505771Y-196514342D01*
X189577200Y-196442914D01*
X189577200Y-196585771D01*
X190220057Y-196157200D02*
X190934342Y-196157200D01*
X190077200Y-196585771D02*
X190577200Y-195085771D01*
X191077200Y-196585771D01*
X191577200Y-196442914D02*
X191648628Y-196514342D01*
X191577200Y-196585771D01*
X191505771Y-196514342D01*
X191577200Y-196442914D01*
X191577200Y-196585771D01*
X194577200Y-196585771D02*
X194577200Y-195085771D01*
X194720057Y-196014342D02*
X195148628Y-196585771D01*
X195148628Y-195585771D02*
X194577200Y-196157200D01*
X195791485Y-196585771D02*
X195791485Y-195585771D01*
X195791485Y-195085771D02*
X195720057Y-195157200D01*
X195791485Y-195228628D01*
X195862914Y-195157200D01*
X195791485Y-195085771D01*
X195791485Y-195228628D01*
X197148628Y-196514342D02*
X197005771Y-196585771D01*
X196720057Y-196585771D01*
X196577200Y-196514342D01*
X196505771Y-196442914D01*
X196434342Y-196300057D01*
X196434342Y-195871485D01*
X196505771Y-195728628D01*
X196577200Y-195657200D01*
X196720057Y-195585771D01*
X197005771Y-195585771D01*
X197148628Y-195657200D01*
X198434342Y-196585771D02*
X198434342Y-195800057D01*
X198362914Y-195657200D01*
X198220057Y-195585771D01*
X197934342Y-195585771D01*
X197791485Y-195657200D01*
X198434342Y-196514342D02*
X198291485Y-196585771D01*
X197934342Y-196585771D01*
X197791485Y-196514342D01*
X197720057Y-196371485D01*
X197720057Y-196228628D01*
X197791485Y-196085771D01*
X197934342Y-196014342D01*
X198291485Y-196014342D01*
X198434342Y-195942914D01*
X199791485Y-196585771D02*
X199791485Y-195085771D01*
X199791485Y-196514342D02*
X199648628Y-196585771D01*
X199362914Y-196585771D01*
X199220057Y-196514342D01*
X199148628Y-196442914D01*
X199077200Y-196300057D01*
X199077200Y-195871485D01*
X199148628Y-195728628D01*
X199220057Y-195657200D01*
X199362914Y-195585771D01*
X199648628Y-195585771D01*
X199791485Y-195657200D01*
X202077200Y-197157200D02*
X202005771Y-197085771D01*
X201862914Y-196871485D01*
X201791485Y-196728628D01*
X201720057Y-196514342D01*
X201648628Y-196157200D01*
X201648628Y-195871485D01*
X201720057Y-195514342D01*
X201791485Y-195300057D01*
X201862914Y-195157200D01*
X202005771Y-194942914D01*
X202077200Y-194871485D01*
X203362914Y-195085771D02*
X202648628Y-195085771D01*
X202577200Y-195800057D01*
X202648628Y-195728628D01*
X202791485Y-195657200D01*
X203148628Y-195657200D01*
X203291485Y-195728628D01*
X203362914Y-195800057D01*
X203434342Y-195942914D01*
X203434342Y-196300057D01*
X203362914Y-196442914D01*
X203291485Y-196514342D01*
X203148628Y-196585771D01*
X202791485Y-196585771D01*
X202648628Y-196514342D01*
X202577200Y-196442914D01*
X204077200Y-196442914D02*
X204148628Y-196514342D01*
X204077200Y-196585771D01*
X204005771Y-196514342D01*
X204077200Y-196442914D01*
X204077200Y-196585771D01*
X205577200Y-196585771D02*
X204720057Y-196585771D01*
X205148628Y-196585771D02*
X205148628Y-195085771D01*
X205005771Y-195300057D01*
X204862914Y-195442914D01*
X204720057Y-195514342D01*
X206220057Y-196442914D02*
X206291485Y-196514342D01*
X206220057Y-196585771D01*
X206148628Y-196514342D01*
X206220057Y-196442914D01*
X206220057Y-196585771D01*
X207577200Y-195085771D02*
X207291485Y-195085771D01*
X207148628Y-195157200D01*
X207077200Y-195228628D01*
X206934342Y-195442914D01*
X206862914Y-195728628D01*
X206862914Y-196300057D01*
X206934342Y-196442914D01*
X207005771Y-196514342D01*
X207148628Y-196585771D01*
X207434342Y-196585771D01*
X207577200Y-196514342D01*
X207648628Y-196442914D01*
X207720057Y-196300057D01*
X207720057Y-195942914D01*
X207648628Y-195800057D01*
X207577200Y-195728628D01*
X207434342Y-195657200D01*
X207148628Y-195657200D01*
X207005771Y-195728628D01*
X206934342Y-195800057D01*
X206862914Y-195942914D01*
X208220057Y-197157200D02*
X208291485Y-197085771D01*
X208434342Y-196871485D01*
X208505771Y-196728628D01*
X208577200Y-196514342D01*
X208648628Y-196157200D01*
X208648628Y-195871485D01*
X208577200Y-195514342D01*
X208505771Y-195300057D01*
X208434342Y-195157200D01*
X208291485Y-194942914D01*
X208220057Y-194871485D01*
X209362914Y-196014342D02*
X210505771Y-196014342D01*
X212005771Y-196585771D02*
X211148628Y-196585771D01*
X211577200Y-196585771D02*
X211577200Y-195085771D01*
X211434342Y-195300057D01*
X211291485Y-195442914D01*
X211148628Y-195514342D01*
D10*
D11*
X177002200Y-191507200D02*
X285002200Y-191507200D01*
D10*
D12*
X264411485Y-193785771D02*
X263911485Y-193071485D01*
X263554342Y-193785771D02*
X263554342Y-192285771D01*
X264125771Y-192285771D01*
X264268628Y-192357200D01*
X264340057Y-192428628D01*
X264411485Y-192571485D01*
X264411485Y-192785771D01*
X264340057Y-192928628D01*
X264268628Y-193000057D01*
X264125771Y-193071485D01*
X263554342Y-193071485D01*
X265625771Y-193714342D02*
X265482914Y-193785771D01*
X265197200Y-193785771D01*
X265054342Y-193714342D01*
X264982914Y-193571485D01*
X264982914Y-193000057D01*
X265054342Y-192857200D01*
X265197200Y-192785771D01*
X265482914Y-192785771D01*
X265625771Y-192857200D01*
X265697200Y-193000057D01*
X265697200Y-193142914D01*
X264982914Y-193285771D01*
X266197200Y-192785771D02*
X266554342Y-193785771D01*
X266911485Y-192785771D01*
X267482914Y-193642914D02*
X267554342Y-193714342D01*
X267482914Y-193785771D01*
X267411485Y-193714342D01*
X267482914Y-193642914D01*
X267482914Y-193785771D01*
X267482914Y-192857200D02*
X267554342Y-192928628D01*
X267482914Y-193000057D01*
X267411485Y-192928628D01*
X267482914Y-192857200D01*
X267482914Y-193000057D01*
D10*
D11*
X178362914Y-193714342D02*
X178577200Y-193785771D01*
X178934342Y-193785771D01*
X179077200Y-193714342D01*
X179148628Y-193642914D01*
X179220057Y-193500057D01*
X179220057Y-193357200D01*
X179148628Y-193214342D01*
X179077200Y-193142914D01*
X178934342Y-193071485D01*
X178648628Y-193000057D01*
X178505771Y-192928628D01*
X178434342Y-192857200D01*
X178362914Y-192714342D01*
X178362914Y-192571485D01*
X178434342Y-192428628D01*
X178505771Y-192357200D01*
X178648628Y-192285771D01*
X179005771Y-192285771D01*
X179220057Y-192357200D01*
X179862914Y-193785771D02*
X179862914Y-192785771D01*
X179862914Y-192285771D02*
X179791485Y-192357200D01*
X179862914Y-192428628D01*
X179934342Y-192357200D01*
X179862914Y-192285771D01*
X179862914Y-192428628D01*
X180434342Y-192785771D02*
X181220057Y-192785771D01*
X180434342Y-193785771D01*
X181220057Y-193785771D01*
X182362914Y-193714342D02*
X182220057Y-193785771D01*
X181934342Y-193785771D01*
X181791485Y-193714342D01*
X181720057Y-193571485D01*
X181720057Y-193000057D01*
X181791485Y-192857200D01*
X181934342Y-192785771D01*
X182220057Y-192785771D01*
X182362914Y-192857200D01*
X182434342Y-193000057D01*
X182434342Y-193142914D01*
X181720057Y-193285771D01*
X183077200Y-193642914D02*
X183148628Y-193714342D01*
X183077200Y-193785771D01*
X183005771Y-193714342D01*
X183077200Y-193642914D01*
X183077200Y-193785771D01*
X183077200Y-192857200D02*
X183148628Y-192928628D01*
X183077200Y-193000057D01*
X183005771Y-192928628D01*
X183077200Y-192857200D01*
X183077200Y-193000057D01*
X184862914Y-193357200D02*
X185577200Y-193357200D01*
X184720057Y-193785771D02*
X185220057Y-192285771D01*
X185720057Y-193785771D01*
X186862914Y-192785771D02*
X186862914Y-193785771D01*
X186505771Y-192214342D02*
X186148628Y-193285771D01*
X187077200Y-193285771D01*
D10*
D11*
X263434342Y-196585771D02*
X263434342Y-195085771D01*
X264791485Y-196585771D02*
X264791485Y-195085771D01*
X264791485Y-196514342D02*
X264648628Y-196585771D01*
X264362914Y-196585771D01*
X264220057Y-196514342D01*
X264148628Y-196442914D01*
X264077200Y-196300057D01*
X264077200Y-195871485D01*
X264148628Y-195728628D01*
X264220057Y-195657200D01*
X264362914Y-195585771D01*
X264648628Y-195585771D01*
X264791485Y-195657200D01*
X265505771Y-196442914D02*
X265577200Y-196514342D01*
X265505771Y-196585771D01*
X265434342Y-196514342D01*
X265505771Y-196442914D01*
X265505771Y-196585771D01*
X265505771Y-195657200D02*
X265577200Y-195728628D01*
X265505771Y-195800057D01*
X265434342Y-195728628D01*
X265505771Y-195657200D01*
X265505771Y-195800057D01*
X268148628Y-196585771D02*
X267291485Y-196585771D01*
X267720057Y-196585771D02*
X267720057Y-195085771D01*
X267577200Y-195300057D01*
X267434342Y-195442914D01*
X267291485Y-195514342D01*
X269862914Y-195014342D02*
X268577200Y-196942914D01*
X271148628Y-196585771D02*
X270291485Y-196585771D01*
X270720057Y-196585771D02*
X270720057Y-195085771D01*
X270577200Y-195300057D01*
X270434342Y-195442914D01*
X270291485Y-195514342D01*
D10*
D11*
X177002200Y-187507200D02*
X285002200Y-187507200D01*
D10*
D13*
X178714580Y-188211961D02*
X179857438Y-188211961D01*
X179036009Y-190211961D02*
X179286009Y-188211961D01*
X180274104Y-190211961D02*
X180440771Y-188878628D01*
X180524104Y-188211961D02*
X180416961Y-188307200D01*
X180500295Y-188402438D01*
X180607438Y-188307200D01*
X180524104Y-188211961D01*
X180500295Y-188402438D01*
X181107438Y-188878628D02*
X181869342Y-188878628D01*
X181476485Y-188211961D02*
X181262200Y-189926247D01*
X181333628Y-190116723D01*
X181512200Y-190211961D01*
X181702676Y-190211961D01*
X182655057Y-190211961D02*
X182476485Y-190116723D01*
X182405057Y-189926247D01*
X182619342Y-188211961D01*
X184190771Y-190116723D02*
X183988390Y-190211961D01*
X183607438Y-190211961D01*
X183428866Y-190116723D01*
X183357438Y-189926247D01*
X183452676Y-189164342D01*
X183571723Y-188973866D01*
X183774104Y-188878628D01*
X184155057Y-188878628D01*
X184333628Y-188973866D01*
X184405057Y-189164342D01*
X184381247Y-189354819D01*
X183405057Y-189545295D01*
X185155057Y-190021485D02*
X185238390Y-190116723D01*
X185131247Y-190211961D01*
X185047914Y-190116723D01*
X185155057Y-190021485D01*
X185131247Y-190211961D01*
X185286009Y-188973866D02*
X185369342Y-189069104D01*
X185262200Y-189164342D01*
X185178866Y-189069104D01*
X185286009Y-188973866D01*
X185262200Y-189164342D01*
D10*
D11*
X178934342Y-185600057D02*
X178434342Y-185600057D01*
X178434342Y-186385771D02*
X178434342Y-184885771D01*
X179148628Y-184885771D01*
X179720057Y-186385771D02*
X179720057Y-185385771D01*
X179720057Y-184885771D02*
X179648628Y-184957200D01*
X179720057Y-185028628D01*
X179791485Y-184957200D01*
X179720057Y-184885771D01*
X179720057Y-185028628D01*
X180648628Y-186385771D02*
X180505771Y-186314342D01*
X180434342Y-186171485D01*
X180434342Y-184885771D01*
X181791485Y-186314342D02*
X181648628Y-186385771D01*
X181362914Y-186385771D01*
X181220057Y-186314342D01*
X181148628Y-186171485D01*
X181148628Y-185600057D01*
X181220057Y-185457200D01*
X181362914Y-185385771D01*
X181648628Y-185385771D01*
X181791485Y-185457200D01*
X181862914Y-185600057D01*
X181862914Y-185742914D01*
X181148628Y-185885771D01*
X182505771Y-186242914D02*
X182577200Y-186314342D01*
X182505771Y-186385771D01*
X182434342Y-186314342D01*
X182505771Y-186242914D01*
X182505771Y-186385771D01*
X182505771Y-185457200D02*
X182577200Y-185528628D01*
X182505771Y-185600057D01*
X182434342Y-185528628D01*
X182505771Y-185457200D01*
X182505771Y-185600057D01*
X184362914Y-186385771D02*
X184362914Y-184885771D01*
X184720057Y-184885771D01*
X184934342Y-184957200D01*
X185077200Y-185100057D01*
X185148628Y-185242914D01*
X185220057Y-185528628D01*
X185220057Y-185742914D01*
X185148628Y-186028628D01*
X185077200Y-186171485D01*
X184934342Y-186314342D01*
X184720057Y-186385771D01*
X184362914Y-186385771D01*
X185862914Y-186385771D02*
X185862914Y-184885771D01*
X186220057Y-184885771D01*
X186434342Y-184957200D01*
X186577200Y-185100057D01*
X186648628Y-185242914D01*
X186720057Y-185528628D01*
X186720057Y-185742914D01*
X186648628Y-186028628D01*
X186577200Y-186171485D01*
X186434342Y-186314342D01*
X186220057Y-186385771D01*
X185862914Y-186385771D01*
X187291485Y-186314342D02*
X187505771Y-186385771D01*
X187862914Y-186385771D01*
X188005771Y-186314342D01*
X188077200Y-186242914D01*
X188148628Y-186100057D01*
X188148628Y-185957200D01*
X188077200Y-185814342D01*
X188005771Y-185742914D01*
X187862914Y-185671485D01*
X187577200Y-185600057D01*
X187434342Y-185528628D01*
X187362914Y-185457200D01*
X187291485Y-185314342D01*
X187291485Y-185171485D01*
X187362914Y-185028628D01*
X187434342Y-184957200D01*
X187577200Y-184885771D01*
X187934342Y-184885771D01*
X188148628Y-184957200D01*
X188791485Y-186242914D02*
X188862914Y-186314342D01*
X188791485Y-186385771D01*
X188720057Y-186314342D01*
X188791485Y-186242914D01*
X188791485Y-186385771D01*
X189505771Y-186385771D02*
X189505771Y-184885771D01*
X189648628Y-185814342D02*
X190077200Y-186385771D01*
X190077200Y-185385771D02*
X189505771Y-185957200D01*
X190720057Y-186385771D02*
X190720057Y-185385771D01*
X190720057Y-184885771D02*
X190648628Y-184957200D01*
X190720057Y-185028628D01*
X190791485Y-184957200D01*
X190720057Y-184885771D01*
X190720057Y-185028628D01*
X192077200Y-186314342D02*
X191934342Y-186385771D01*
X191648628Y-186385771D01*
X191505771Y-186314342D01*
X191434342Y-186242914D01*
X191362914Y-186100057D01*
X191362914Y-185671485D01*
X191434342Y-185528628D01*
X191505771Y-185457200D01*
X191648628Y-185385771D01*
X191934342Y-185385771D01*
X192077200Y-185457200D01*
X193362914Y-186385771D02*
X193362914Y-185600057D01*
X193291485Y-185457200D01*
X193148628Y-185385771D01*
X192862914Y-185385771D01*
X192720057Y-185457200D01*
X193362914Y-186314342D02*
X193220057Y-186385771D01*
X192862914Y-186385771D01*
X192720057Y-186314342D01*
X192648628Y-186171485D01*
X192648628Y-186028628D01*
X192720057Y-185885771D01*
X192862914Y-185814342D01*
X193220057Y-185814342D01*
X193362914Y-185742914D01*
X194720057Y-186385771D02*
X194720057Y-184885771D01*
X194720057Y-186314342D02*
X194577200Y-186385771D01*
X194291485Y-186385771D01*
X194148628Y-186314342D01*
X194077200Y-186242914D01*
X194005771Y-186100057D01*
X194005771Y-185671485D01*
X194077200Y-185528628D01*
X194148628Y-185457200D01*
X194291485Y-185385771D01*
X194577200Y-185385771D01*
X194720057Y-185457200D01*
X195077200Y-186528628D02*
X196220057Y-186528628D01*
X196577200Y-185385771D02*
X196577200Y-186885771D01*
X196577200Y-185457200D02*
X196720057Y-185385771D01*
X197005771Y-185385771D01*
X197148628Y-185457200D01*
X197220057Y-185528628D01*
X197291485Y-185671485D01*
X197291485Y-186100057D01*
X197220057Y-186242914D01*
X197148628Y-186314342D01*
X197005771Y-186385771D01*
X196720057Y-186385771D01*
X196577200Y-186314342D01*
X198577200Y-186314342D02*
X198434342Y-186385771D01*
X198148628Y-186385771D01*
X198005771Y-186314342D01*
X197934342Y-186242914D01*
X197862914Y-186100057D01*
X197862914Y-185671485D01*
X197934342Y-185528628D01*
X198005771Y-185457200D01*
X198148628Y-185385771D01*
X198434342Y-185385771D01*
X198577200Y-185457200D01*
X199220057Y-186385771D02*
X199220057Y-184885771D01*
X199220057Y-185457200D02*
X199362914Y-185385771D01*
X199648628Y-185385771D01*
X199791485Y-185457200D01*
X199862914Y-185528628D01*
X199934342Y-185671485D01*
X199934342Y-186100057D01*
X199862914Y-186242914D01*
X199791485Y-186314342D01*
X199648628Y-186385771D01*
X199362914Y-186385771D01*
X199220057Y-186314342D01*
D10*
D11*
X177002200Y-181507200D02*
X285002200Y-181507200D01*
D10*
D11*
X178362914Y-183614342D02*
X178577200Y-183685771D01*
X178934342Y-183685771D01*
X179077200Y-183614342D01*
X179148628Y-183542914D01*
X179220057Y-183400057D01*
X179220057Y-183257200D01*
X179148628Y-183114342D01*
X179077200Y-183042914D01*
X178934342Y-182971485D01*
X178648628Y-182900057D01*
X178505771Y-182828628D01*
X178434342Y-182757200D01*
X178362914Y-182614342D01*
X178362914Y-182471485D01*
X178434342Y-182328628D01*
X178505771Y-182257200D01*
X178648628Y-182185771D01*
X179005771Y-182185771D01*
X179220057Y-182257200D01*
X179862914Y-183685771D02*
X179862914Y-182185771D01*
X180505771Y-183685771D02*
X180505771Y-182900057D01*
X180434342Y-182757200D01*
X180291485Y-182685771D01*
X180077200Y-182685771D01*
X179934342Y-182757200D01*
X179862914Y-182828628D01*
X181791485Y-183614342D02*
X181648628Y-183685771D01*
X181362914Y-183685771D01*
X181220057Y-183614342D01*
X181148628Y-183471485D01*
X181148628Y-182900057D01*
X181220057Y-182757200D01*
X181362914Y-182685771D01*
X181648628Y-182685771D01*
X181791485Y-182757200D01*
X181862914Y-182900057D01*
X181862914Y-183042914D01*
X181148628Y-183185771D01*
X183077200Y-183614342D02*
X182934342Y-183685771D01*
X182648628Y-183685771D01*
X182505771Y-183614342D01*
X182434342Y-183471485D01*
X182434342Y-182900057D01*
X182505771Y-182757200D01*
X182648628Y-182685771D01*
X182934342Y-182685771D01*
X183077200Y-182757200D01*
X183148628Y-182900057D01*
X183148628Y-183042914D01*
X182434342Y-183185771D01*
X183577200Y-182685771D02*
X184148628Y-182685771D01*
X183791485Y-182185771D02*
X183791485Y-183471485D01*
X183862914Y-183614342D01*
X184005771Y-183685771D01*
X184148628Y-183685771D01*
X184648628Y-183542914D02*
X184720057Y-183614342D01*
X184648628Y-183685771D01*
X184577200Y-183614342D01*
X184648628Y-183542914D01*
X184648628Y-183685771D01*
X184648628Y-182757200D02*
X184720057Y-182828628D01*
X184648628Y-182900057D01*
X184577200Y-182828628D01*
X184648628Y-182757200D01*
X184648628Y-182900057D01*
D10*
D11*
X197002200Y-191507200D02*
X197002200Y-194507200D01*
D10*
D11*
X261002200Y-191507200D02*
X261002200Y-198007200D01*
D14*
%TO.C,H4*%
X197500000Y-133500000D03*
%TD*%
%TO.C,H3*%
X197500000Y-65000000D03*
%TD*%
%TO.C,H2*%
X138500000Y-133500000D03*
%TD*%
%TO.C,H1*%
X138500000Y-65000000D03*
%TD*%
D15*
%TO.C,J1*%
X163750000Y-119840000D03*
X163750000Y-122380000D03*
X163750000Y-124920000D03*
X163750000Y-127460000D03*
D16*
X163750000Y-130000000D03*
%TD*%
D17*
%TO.C,J2*%
X152600000Y-130850000D03*
X148200000Y-130850000D03*
D18*
X152000000Y-128250000D03*
X151200000Y-128250000D03*
X150400000Y-128250000D03*
X149600000Y-128250000D03*
X148800000Y-128250000D03*
D19*
X154800000Y-128250000D03*
X146000000Y-128250000D03*
X154800000Y-133750000D03*
X146000000Y-133750000D03*
%TD*%
%TO.C,U3*%
G36*
G01*
X147500000Y-120200000D02*
X147800000Y-120200000D01*
G75*
G02*
X147950000Y-120350000I0J-150000D01*
G01*
X147950000Y-122050000D01*
G75*
G02*
X147800000Y-122200000I-150000J0D01*
G01*
X147500000Y-122200000D01*
G75*
G02*
X147350000Y-122050000I0J150000D01*
G01*
X147350000Y-120350000D01*
G75*
G02*
X147500000Y-120200000I150000J0D01*
G01*
G37*
G36*
G01*
X146850000Y-120200000D02*
X147150000Y-120200000D01*
G75*
G02*
X147300000Y-120350000I0J-150000D01*
G01*
X147300000Y-122050000D01*
G75*
G02*
X147150000Y-122200000I-150000J0D01*
G01*
X146850000Y-122200000D01*
G75*
G02*
X146700000Y-122050000I0J150000D01*
G01*
X146700000Y-120350000D01*
G75*
G02*
X146850000Y-120200000I150000J0D01*
G01*
G37*
G36*
G01*
X146200000Y-120200000D02*
X146500000Y-120200000D01*
G75*
G02*
X146650000Y-120350000I0J-150000D01*
G01*
X146650000Y-122050000D01*
G75*
G02*
X146500000Y-122200000I-150000J0D01*
G01*
X146200000Y-122200000D01*
G75*
G02*
X146050000Y-122050000I0J150000D01*
G01*
X146050000Y-120350000D01*
G75*
G02*
X146200000Y-120200000I150000J0D01*
G01*
G37*
G36*
G01*
X145550000Y-120200000D02*
X145850000Y-120200000D01*
G75*
G02*
X146000000Y-120350000I0J-150000D01*
G01*
X146000000Y-122050000D01*
G75*
G02*
X145850000Y-122200000I-150000J0D01*
G01*
X145550000Y-122200000D01*
G75*
G02*
X145400000Y-122050000I0J150000D01*
G01*
X145400000Y-120350000D01*
G75*
G02*
X145550000Y-120200000I150000J0D01*
G01*
G37*
G36*
G01*
X144900000Y-120200000D02*
X145200000Y-120200000D01*
G75*
G02*
X145350000Y-120350000I0J-150000D01*
G01*
X145350000Y-122050000D01*
G75*
G02*
X145200000Y-122200000I-150000J0D01*
G01*
X144900000Y-122200000D01*
G75*
G02*
X144750000Y-122050000I0J150000D01*
G01*
X144750000Y-120350000D01*
G75*
G02*
X144900000Y-120200000I150000J0D01*
G01*
G37*
G36*
G01*
X144250000Y-120200000D02*
X144550000Y-120200000D01*
G75*
G02*
X144700000Y-120350000I0J-150000D01*
G01*
X144700000Y-122050000D01*
G75*
G02*
X144550000Y-122200000I-150000J0D01*
G01*
X144250000Y-122200000D01*
G75*
G02*
X144100000Y-122050000I0J150000D01*
G01*
X144100000Y-120350000D01*
G75*
G02*
X144250000Y-120200000I150000J0D01*
G01*
G37*
G36*
G01*
X143600000Y-120200000D02*
X143900000Y-120200000D01*
G75*
G02*
X144050000Y-120350000I0J-150000D01*
G01*
X144050000Y-122050000D01*
G75*
G02*
X143900000Y-122200000I-150000J0D01*
G01*
X143600000Y-122200000D01*
G75*
G02*
X143450000Y-122050000I0J150000D01*
G01*
X143450000Y-120350000D01*
G75*
G02*
X143600000Y-120200000I150000J0D01*
G01*
G37*
G36*
G01*
X142950000Y-120200000D02*
X143250000Y-120200000D01*
G75*
G02*
X143400000Y-120350000I0J-150000D01*
G01*
X143400000Y-122050000D01*
G75*
G02*
X143250000Y-122200000I-150000J0D01*
G01*
X142950000Y-122200000D01*
G75*
G02*
X142800000Y-122050000I0J150000D01*
G01*
X142800000Y-120350000D01*
G75*
G02*
X142950000Y-120200000I150000J0D01*
G01*
G37*
G36*
G01*
X142300000Y-120200000D02*
X142600000Y-120200000D01*
G75*
G02*
X142750000Y-120350000I0J-150000D01*
G01*
X142750000Y-122050000D01*
G75*
G02*
X142600000Y-122200000I-150000J0D01*
G01*
X142300000Y-122200000D01*
G75*
G02*
X142150000Y-122050000I0J150000D01*
G01*
X142150000Y-120350000D01*
G75*
G02*
X142300000Y-120200000I150000J0D01*
G01*
G37*
G36*
G01*
X141650000Y-120200000D02*
X141950000Y-120200000D01*
G75*
G02*
X142100000Y-120350000I0J-150000D01*
G01*
X142100000Y-122050000D01*
G75*
G02*
X141950000Y-122200000I-150000J0D01*
G01*
X141650000Y-122200000D01*
G75*
G02*
X141500000Y-122050000I0J150000D01*
G01*
X141500000Y-120350000D01*
G75*
G02*
X141650000Y-120200000I150000J0D01*
G01*
G37*
G36*
G01*
X141650000Y-113200000D02*
X141950000Y-113200000D01*
G75*
G02*
X142100000Y-113350000I0J-150000D01*
G01*
X142100000Y-115050000D01*
G75*
G02*
X141950000Y-115200000I-150000J0D01*
G01*
X141650000Y-115200000D01*
G75*
G02*
X141500000Y-115050000I0J150000D01*
G01*
X141500000Y-113350000D01*
G75*
G02*
X141650000Y-113200000I150000J0D01*
G01*
G37*
G36*
G01*
X142300000Y-113200000D02*
X142600000Y-113200000D01*
G75*
G02*
X142750000Y-113350000I0J-150000D01*
G01*
X142750000Y-115050000D01*
G75*
G02*
X142600000Y-115200000I-150000J0D01*
G01*
X142300000Y-115200000D01*
G75*
G02*
X142150000Y-115050000I0J150000D01*
G01*
X142150000Y-113350000D01*
G75*
G02*
X142300000Y-113200000I150000J0D01*
G01*
G37*
G36*
G01*
X142950000Y-113200000D02*
X143250000Y-113200000D01*
G75*
G02*
X143400000Y-113350000I0J-150000D01*
G01*
X143400000Y-115050000D01*
G75*
G02*
X143250000Y-115200000I-150000J0D01*
G01*
X142950000Y-115200000D01*
G75*
G02*
X142800000Y-115050000I0J150000D01*
G01*
X142800000Y-113350000D01*
G75*
G02*
X142950000Y-113200000I150000J0D01*
G01*
G37*
G36*
G01*
X143600000Y-113200000D02*
X143900000Y-113200000D01*
G75*
G02*
X144050000Y-113350000I0J-150000D01*
G01*
X144050000Y-115050000D01*
G75*
G02*
X143900000Y-115200000I-150000J0D01*
G01*
X143600000Y-115200000D01*
G75*
G02*
X143450000Y-115050000I0J150000D01*
G01*
X143450000Y-113350000D01*
G75*
G02*
X143600000Y-113200000I150000J0D01*
G01*
G37*
G36*
G01*
X144250000Y-113200000D02*
X144550000Y-113200000D01*
G75*
G02*
X144700000Y-113350000I0J-150000D01*
G01*
X144700000Y-115050000D01*
G75*
G02*
X144550000Y-115200000I-150000J0D01*
G01*
X144250000Y-115200000D01*
G75*
G02*
X144100000Y-115050000I0J150000D01*
G01*
X144100000Y-113350000D01*
G75*
G02*
X144250000Y-113200000I150000J0D01*
G01*
G37*
G36*
G01*
X144900000Y-113200000D02*
X145200000Y-113200000D01*
G75*
G02*
X145350000Y-113350000I0J-150000D01*
G01*
X145350000Y-115050000D01*
G75*
G02*
X145200000Y-115200000I-150000J0D01*
G01*
X144900000Y-115200000D01*
G75*
G02*
X144750000Y-115050000I0J150000D01*
G01*
X144750000Y-113350000D01*
G75*
G02*
X144900000Y-113200000I150000J0D01*
G01*
G37*
G36*
G01*
X145550000Y-113200000D02*
X145850000Y-113200000D01*
G75*
G02*
X146000000Y-113350000I0J-150000D01*
G01*
X146000000Y-115050000D01*
G75*
G02*
X145850000Y-115200000I-150000J0D01*
G01*
X145550000Y-115200000D01*
G75*
G02*
X145400000Y-115050000I0J150000D01*
G01*
X145400000Y-113350000D01*
G75*
G02*
X145550000Y-113200000I150000J0D01*
G01*
G37*
G36*
G01*
X146200000Y-113200000D02*
X146500000Y-113200000D01*
G75*
G02*
X146650000Y-113350000I0J-150000D01*
G01*
X146650000Y-115050000D01*
G75*
G02*
X146500000Y-115200000I-150000J0D01*
G01*
X146200000Y-115200000D01*
G75*
G02*
X146050000Y-115050000I0J150000D01*
G01*
X146050000Y-113350000D01*
G75*
G02*
X146200000Y-113200000I150000J0D01*
G01*
G37*
G36*
G01*
X146850000Y-113200000D02*
X147150000Y-113200000D01*
G75*
G02*
X147300000Y-113350000I0J-150000D01*
G01*
X147300000Y-115050000D01*
G75*
G02*
X147150000Y-115200000I-150000J0D01*
G01*
X146850000Y-115200000D01*
G75*
G02*
X146700000Y-115050000I0J150000D01*
G01*
X146700000Y-113350000D01*
G75*
G02*
X146850000Y-113200000I150000J0D01*
G01*
G37*
G36*
G01*
X147500000Y-113200000D02*
X147800000Y-113200000D01*
G75*
G02*
X147950000Y-113350000I0J-150000D01*
G01*
X147950000Y-115050000D01*
G75*
G02*
X147800000Y-115200000I-150000J0D01*
G01*
X147500000Y-115200000D01*
G75*
G02*
X147350000Y-115050000I0J150000D01*
G01*
X147350000Y-113350000D01*
G75*
G02*
X147500000Y-113200000I150000J0D01*
G01*
G37*
%TD*%
%TO.C,C26*%
G36*
G01*
X148781250Y-87412500D02*
X148218750Y-87412500D01*
G75*
G02*
X147975000Y-87168750I0J243750D01*
G01*
X147975000Y-86681250D01*
G75*
G02*
X148218750Y-86437500I243750J0D01*
G01*
X148781250Y-86437500D01*
G75*
G02*
X149025000Y-86681250I0J-243750D01*
G01*
X149025000Y-87168750D01*
G75*
G02*
X148781250Y-87412500I-243750J0D01*
G01*
G37*
G36*
G01*
X148781250Y-88987500D02*
X148218750Y-88987500D01*
G75*
G02*
X147975000Y-88743750I0J243750D01*
G01*
X147975000Y-88256250D01*
G75*
G02*
X148218750Y-88012500I243750J0D01*
G01*
X148781250Y-88012500D01*
G75*
G02*
X149025000Y-88256250I0J-243750D01*
G01*
X149025000Y-88743750D01*
G75*
G02*
X148781250Y-88987500I-243750J0D01*
G01*
G37*
%TD*%
D20*
%TO.C,U2*%
X146080000Y-88780000D03*
X146080000Y-84180000D03*
X146080000Y-86480000D03*
D21*
X139780000Y-86480000D03*
%TD*%
D22*
%TO.C,RN6*%
X190600000Y-102500000D03*
X190600000Y-104000000D03*
X190600000Y-103500000D03*
X190600000Y-104500000D03*
X190600000Y-103000000D03*
X190600000Y-106000000D03*
X190600000Y-105500000D03*
X190600000Y-105000000D03*
X189000000Y-102500000D03*
X189000000Y-103000000D03*
X189000000Y-103500000D03*
X189000000Y-104000000D03*
X189000000Y-106000000D03*
X189000000Y-105500000D03*
X189000000Y-105000000D03*
X189000000Y-104500000D03*
%TD*%
%TO.C,RN5*%
X190600000Y-92500000D03*
X190600000Y-94000000D03*
X190600000Y-93500000D03*
X190600000Y-94500000D03*
X190600000Y-93000000D03*
X190600000Y-96000000D03*
X190600000Y-95500000D03*
X190600000Y-95000000D03*
X189000000Y-92500000D03*
X189000000Y-93000000D03*
X189000000Y-93500000D03*
X189000000Y-94000000D03*
X189000000Y-96000000D03*
X189000000Y-95500000D03*
X189000000Y-95000000D03*
X189000000Y-94500000D03*
%TD*%
%TO.C,RN4*%
X167200000Y-95650000D03*
X167200000Y-94150000D03*
X167200000Y-94650000D03*
X167200000Y-93650000D03*
X167200000Y-95150000D03*
X167200000Y-92150000D03*
X167200000Y-92650000D03*
X167200000Y-93150000D03*
X168800000Y-95650000D03*
X168800000Y-95150000D03*
X168800000Y-94650000D03*
X168800000Y-94150000D03*
X168800000Y-92150000D03*
X168800000Y-92650000D03*
X168800000Y-93150000D03*
X168800000Y-93650000D03*
%TD*%
%TO.C,RN3*%
X167000000Y-106000000D03*
X167000000Y-104500000D03*
X167000000Y-105000000D03*
X167000000Y-104000000D03*
X167000000Y-105500000D03*
X167000000Y-102500000D03*
X167000000Y-103000000D03*
X167000000Y-103500000D03*
X168600000Y-106000000D03*
X168600000Y-105500000D03*
X168600000Y-105000000D03*
X168600000Y-104500000D03*
X168600000Y-102500000D03*
X168600000Y-103000000D03*
X168600000Y-103500000D03*
X168600000Y-104000000D03*
%TD*%
%TO.C,R22*%
G36*
G01*
X167687500Y-116981250D02*
X167687500Y-116418750D01*
G75*
G02*
X167931250Y-116175000I243750J0D01*
G01*
X168418750Y-116175000D01*
G75*
G02*
X168662500Y-116418750I0J-243750D01*
G01*
X168662500Y-116981250D01*
G75*
G02*
X168418750Y-117225000I-243750J0D01*
G01*
X167931250Y-117225000D01*
G75*
G02*
X167687500Y-116981250I0J243750D01*
G01*
G37*
G36*
G01*
X166112500Y-116981250D02*
X166112500Y-116418750D01*
G75*
G02*
X166356250Y-116175000I243750J0D01*
G01*
X166843750Y-116175000D01*
G75*
G02*
X167087500Y-116418750I0J-243750D01*
G01*
X167087500Y-116981250D01*
G75*
G02*
X166843750Y-117225000I-243750J0D01*
G01*
X166356250Y-117225000D01*
G75*
G02*
X166112500Y-116981250I0J243750D01*
G01*
G37*
%TD*%
D15*
%TO.C,J7*%
X169430000Y-134800000D03*
X171970000Y-134800000D03*
X174510000Y-134800000D03*
X177050000Y-134800000D03*
X179590000Y-134800000D03*
X182130000Y-134800000D03*
X184670000Y-134800000D03*
X187210000Y-134800000D03*
D16*
X189750000Y-134800000D03*
%TD*%
%TO.C,C6*%
G36*
G01*
X151750000Y-77534375D02*
X151750000Y-76365625D01*
G75*
G02*
X152015625Y-76100000I265625J0D01*
G01*
X155084375Y-76100000D01*
G75*
G02*
X155350000Y-76365625I0J-265625D01*
G01*
X155350000Y-77534375D01*
G75*
G02*
X155084375Y-77800000I-265625J0D01*
G01*
X152015625Y-77800000D01*
G75*
G02*
X151750000Y-77534375I0J265625D01*
G01*
G37*
G36*
G01*
X146350000Y-77534375D02*
X146350000Y-76365625D01*
G75*
G02*
X146615625Y-76100000I265625J0D01*
G01*
X149684375Y-76100000D01*
G75*
G02*
X149950000Y-76365625I0J-265625D01*
G01*
X149950000Y-77534375D01*
G75*
G02*
X149684375Y-77800000I-265625J0D01*
G01*
X146615625Y-77800000D01*
G75*
G02*
X146350000Y-77534375I0J265625D01*
G01*
G37*
%TD*%
D23*
%TO.C,J6*%
X144000000Y-45200000D03*
D24*
X141175000Y-45400000D03*
X146825000Y-45400000D03*
%TD*%
D23*
%TO.C,J5*%
X192000000Y-45200000D03*
D24*
X189175000Y-45400000D03*
X194825000Y-45400000D03*
%TD*%
D23*
%TO.C,J4*%
X168000000Y-45200000D03*
D24*
X165175000Y-45400000D03*
X170825000Y-45400000D03*
%TD*%
D25*
%TO.C,Y1*%
X143125000Y-108000000D03*
X155000000Y-108000000D03*
%TD*%
D26*
%TO.C,U6*%
X179000000Y-75000000D03*
G36*
G01*
X185975000Y-68800000D02*
X187350000Y-68800000D01*
G75*
G02*
X187450000Y-68900000I0J-100000D01*
G01*
X187450000Y-69100000D01*
G75*
G02*
X187350000Y-69200000I-100000J0D01*
G01*
X185975000Y-69200000D01*
G75*
G02*
X185875000Y-69100000I0J100000D01*
G01*
X185875000Y-68900000D01*
G75*
G02*
X185975000Y-68800000I100000J0D01*
G01*
G37*
G36*
G01*
X185975000Y-69300000D02*
X187350000Y-69300000D01*
G75*
G02*
X187450000Y-69400000I0J-100000D01*
G01*
X187450000Y-69600000D01*
G75*
G02*
X187350000Y-69700000I-100000J0D01*
G01*
X185975000Y-69700000D01*
G75*
G02*
X185875000Y-69600000I0J100000D01*
G01*
X185875000Y-69400000D01*
G75*
G02*
X185975000Y-69300000I100000J0D01*
G01*
G37*
G36*
G01*
X185975000Y-69800000D02*
X187350000Y-69800000D01*
G75*
G02*
X187450000Y-69900000I0J-100000D01*
G01*
X187450000Y-70100000D01*
G75*
G02*
X187350000Y-70200000I-100000J0D01*
G01*
X185975000Y-70200000D01*
G75*
G02*
X185875000Y-70100000I0J100000D01*
G01*
X185875000Y-69900000D01*
G75*
G02*
X185975000Y-69800000I100000J0D01*
G01*
G37*
G36*
G01*
X185975000Y-70300000D02*
X187350000Y-70300000D01*
G75*
G02*
X187450000Y-70400000I0J-100000D01*
G01*
X187450000Y-70600000D01*
G75*
G02*
X187350000Y-70700000I-100000J0D01*
G01*
X185975000Y-70700000D01*
G75*
G02*
X185875000Y-70600000I0J100000D01*
G01*
X185875000Y-70400000D01*
G75*
G02*
X185975000Y-70300000I100000J0D01*
G01*
G37*
G36*
G01*
X185975000Y-70800000D02*
X187350000Y-70800000D01*
G75*
G02*
X187450000Y-70900000I0J-100000D01*
G01*
X187450000Y-71100000D01*
G75*
G02*
X187350000Y-71200000I-100000J0D01*
G01*
X185975000Y-71200000D01*
G75*
G02*
X185875000Y-71100000I0J100000D01*
G01*
X185875000Y-70900000D01*
G75*
G02*
X185975000Y-70800000I100000J0D01*
G01*
G37*
G36*
G01*
X185975000Y-71300000D02*
X187350000Y-71300000D01*
G75*
G02*
X187450000Y-71400000I0J-100000D01*
G01*
X187450000Y-71600000D01*
G75*
G02*
X187350000Y-71700000I-100000J0D01*
G01*
X185975000Y-71700000D01*
G75*
G02*
X185875000Y-71600000I0J100000D01*
G01*
X185875000Y-71400000D01*
G75*
G02*
X185975000Y-71300000I100000J0D01*
G01*
G37*
G36*
G01*
X185975000Y-71800000D02*
X187350000Y-71800000D01*
G75*
G02*
X187450000Y-71900000I0J-100000D01*
G01*
X187450000Y-72100000D01*
G75*
G02*
X187350000Y-72200000I-100000J0D01*
G01*
X185975000Y-72200000D01*
G75*
G02*
X185875000Y-72100000I0J100000D01*
G01*
X185875000Y-71900000D01*
G75*
G02*
X185975000Y-71800000I100000J0D01*
G01*
G37*
G36*
G01*
X185975000Y-72300000D02*
X187350000Y-72300000D01*
G75*
G02*
X187450000Y-72400000I0J-100000D01*
G01*
X187450000Y-72600000D01*
G75*
G02*
X187350000Y-72700000I-100000J0D01*
G01*
X185975000Y-72700000D01*
G75*
G02*
X185875000Y-72600000I0J100000D01*
G01*
X185875000Y-72400000D01*
G75*
G02*
X185975000Y-72300000I100000J0D01*
G01*
G37*
G36*
G01*
X185975000Y-72800000D02*
X187350000Y-72800000D01*
G75*
G02*
X187450000Y-72900000I0J-100000D01*
G01*
X187450000Y-73100000D01*
G75*
G02*
X187350000Y-73200000I-100000J0D01*
G01*
X185975000Y-73200000D01*
G75*
G02*
X185875000Y-73100000I0J100000D01*
G01*
X185875000Y-72900000D01*
G75*
G02*
X185975000Y-72800000I100000J0D01*
G01*
G37*
G36*
G01*
X185975000Y-73300000D02*
X187350000Y-73300000D01*
G75*
G02*
X187450000Y-73400000I0J-100000D01*
G01*
X187450000Y-73600000D01*
G75*
G02*
X187350000Y-73700000I-100000J0D01*
G01*
X185975000Y-73700000D01*
G75*
G02*
X185875000Y-73600000I0J100000D01*
G01*
X185875000Y-73400000D01*
G75*
G02*
X185975000Y-73300000I100000J0D01*
G01*
G37*
G36*
G01*
X185975000Y-73800000D02*
X187350000Y-73800000D01*
G75*
G02*
X187450000Y-73900000I0J-100000D01*
G01*
X187450000Y-74100000D01*
G75*
G02*
X187350000Y-74200000I-100000J0D01*
G01*
X185975000Y-74200000D01*
G75*
G02*
X185875000Y-74100000I0J100000D01*
G01*
X185875000Y-73900000D01*
G75*
G02*
X185975000Y-73800000I100000J0D01*
G01*
G37*
G36*
G01*
X185975000Y-74300000D02*
X187350000Y-74300000D01*
G75*
G02*
X187450000Y-74400000I0J-100000D01*
G01*
X187450000Y-74600000D01*
G75*
G02*
X187350000Y-74700000I-100000J0D01*
G01*
X185975000Y-74700000D01*
G75*
G02*
X185875000Y-74600000I0J100000D01*
G01*
X185875000Y-74400000D01*
G75*
G02*
X185975000Y-74300000I100000J0D01*
G01*
G37*
G36*
G01*
X185975000Y-74800000D02*
X187350000Y-74800000D01*
G75*
G02*
X187450000Y-74900000I0J-100000D01*
G01*
X187450000Y-75100000D01*
G75*
G02*
X187350000Y-75200000I-100000J0D01*
G01*
X185975000Y-75200000D01*
G75*
G02*
X185875000Y-75100000I0J100000D01*
G01*
X185875000Y-74900000D01*
G75*
G02*
X185975000Y-74800000I100000J0D01*
G01*
G37*
G36*
G01*
X185975000Y-75300000D02*
X187350000Y-75300000D01*
G75*
G02*
X187450000Y-75400000I0J-100000D01*
G01*
X187450000Y-75600000D01*
G75*
G02*
X187350000Y-75700000I-100000J0D01*
G01*
X185975000Y-75700000D01*
G75*
G02*
X185875000Y-75600000I0J100000D01*
G01*
X185875000Y-75400000D01*
G75*
G02*
X185975000Y-75300000I100000J0D01*
G01*
G37*
G36*
G01*
X185975000Y-75800000D02*
X187350000Y-75800000D01*
G75*
G02*
X187450000Y-75900000I0J-100000D01*
G01*
X187450000Y-76100000D01*
G75*
G02*
X187350000Y-76200000I-100000J0D01*
G01*
X185975000Y-76200000D01*
G75*
G02*
X185875000Y-76100000I0J100000D01*
G01*
X185875000Y-75900000D01*
G75*
G02*
X185975000Y-75800000I100000J0D01*
G01*
G37*
G36*
G01*
X185975000Y-76300000D02*
X187350000Y-76300000D01*
G75*
G02*
X187450000Y-76400000I0J-100000D01*
G01*
X187450000Y-76600000D01*
G75*
G02*
X187350000Y-76700000I-100000J0D01*
G01*
X185975000Y-76700000D01*
G75*
G02*
X185875000Y-76600000I0J100000D01*
G01*
X185875000Y-76400000D01*
G75*
G02*
X185975000Y-76300000I100000J0D01*
G01*
G37*
G36*
G01*
X185975000Y-76800000D02*
X187350000Y-76800000D01*
G75*
G02*
X187450000Y-76900000I0J-100000D01*
G01*
X187450000Y-77100000D01*
G75*
G02*
X187350000Y-77200000I-100000J0D01*
G01*
X185975000Y-77200000D01*
G75*
G02*
X185875000Y-77100000I0J100000D01*
G01*
X185875000Y-76900000D01*
G75*
G02*
X185975000Y-76800000I100000J0D01*
G01*
G37*
G36*
G01*
X185975000Y-77300000D02*
X187350000Y-77300000D01*
G75*
G02*
X187450000Y-77400000I0J-100000D01*
G01*
X187450000Y-77600000D01*
G75*
G02*
X187350000Y-77700000I-100000J0D01*
G01*
X185975000Y-77700000D01*
G75*
G02*
X185875000Y-77600000I0J100000D01*
G01*
X185875000Y-77400000D01*
G75*
G02*
X185975000Y-77300000I100000J0D01*
G01*
G37*
G36*
G01*
X185975000Y-77800000D02*
X187350000Y-77800000D01*
G75*
G02*
X187450000Y-77900000I0J-100000D01*
G01*
X187450000Y-78100000D01*
G75*
G02*
X187350000Y-78200000I-100000J0D01*
G01*
X185975000Y-78200000D01*
G75*
G02*
X185875000Y-78100000I0J100000D01*
G01*
X185875000Y-77900000D01*
G75*
G02*
X185975000Y-77800000I100000J0D01*
G01*
G37*
G36*
G01*
X185975000Y-78300000D02*
X187350000Y-78300000D01*
G75*
G02*
X187450000Y-78400000I0J-100000D01*
G01*
X187450000Y-78600000D01*
G75*
G02*
X187350000Y-78700000I-100000J0D01*
G01*
X185975000Y-78700000D01*
G75*
G02*
X185875000Y-78600000I0J100000D01*
G01*
X185875000Y-78400000D01*
G75*
G02*
X185975000Y-78300000I100000J0D01*
G01*
G37*
G36*
G01*
X185975000Y-78800000D02*
X187350000Y-78800000D01*
G75*
G02*
X187450000Y-78900000I0J-100000D01*
G01*
X187450000Y-79100000D01*
G75*
G02*
X187350000Y-79200000I-100000J0D01*
G01*
X185975000Y-79200000D01*
G75*
G02*
X185875000Y-79100000I0J100000D01*
G01*
X185875000Y-78900000D01*
G75*
G02*
X185975000Y-78800000I100000J0D01*
G01*
G37*
G36*
G01*
X185975000Y-79300000D02*
X187350000Y-79300000D01*
G75*
G02*
X187450000Y-79400000I0J-100000D01*
G01*
X187450000Y-79600000D01*
G75*
G02*
X187350000Y-79700000I-100000J0D01*
G01*
X185975000Y-79700000D01*
G75*
G02*
X185875000Y-79600000I0J100000D01*
G01*
X185875000Y-79400000D01*
G75*
G02*
X185975000Y-79300000I100000J0D01*
G01*
G37*
G36*
G01*
X185975000Y-79800000D02*
X187350000Y-79800000D01*
G75*
G02*
X187450000Y-79900000I0J-100000D01*
G01*
X187450000Y-80100000D01*
G75*
G02*
X187350000Y-80200000I-100000J0D01*
G01*
X185975000Y-80200000D01*
G75*
G02*
X185875000Y-80100000I0J100000D01*
G01*
X185875000Y-79900000D01*
G75*
G02*
X185975000Y-79800000I100000J0D01*
G01*
G37*
G36*
G01*
X185975000Y-80300000D02*
X187350000Y-80300000D01*
G75*
G02*
X187450000Y-80400000I0J-100000D01*
G01*
X187450000Y-80600000D01*
G75*
G02*
X187350000Y-80700000I-100000J0D01*
G01*
X185975000Y-80700000D01*
G75*
G02*
X185875000Y-80600000I0J100000D01*
G01*
X185875000Y-80400000D01*
G75*
G02*
X185975000Y-80300000I100000J0D01*
G01*
G37*
G36*
G01*
X185975000Y-80800000D02*
X187350000Y-80800000D01*
G75*
G02*
X187450000Y-80900000I0J-100000D01*
G01*
X187450000Y-81100000D01*
G75*
G02*
X187350000Y-81200000I-100000J0D01*
G01*
X185975000Y-81200000D01*
G75*
G02*
X185875000Y-81100000I0J100000D01*
G01*
X185875000Y-80900000D01*
G75*
G02*
X185975000Y-80800000I100000J0D01*
G01*
G37*
G36*
G01*
X184900000Y-81875000D02*
X185100000Y-81875000D01*
G75*
G02*
X185200000Y-81975000I0J-100000D01*
G01*
X185200000Y-83350000D01*
G75*
G02*
X185100000Y-83450000I-100000J0D01*
G01*
X184900000Y-83450000D01*
G75*
G02*
X184800000Y-83350000I0J100000D01*
G01*
X184800000Y-81975000D01*
G75*
G02*
X184900000Y-81875000I100000J0D01*
G01*
G37*
G36*
G01*
X184400000Y-81875000D02*
X184600000Y-81875000D01*
G75*
G02*
X184700000Y-81975000I0J-100000D01*
G01*
X184700000Y-83350000D01*
G75*
G02*
X184600000Y-83450000I-100000J0D01*
G01*
X184400000Y-83450000D01*
G75*
G02*
X184300000Y-83350000I0J100000D01*
G01*
X184300000Y-81975000D01*
G75*
G02*
X184400000Y-81875000I100000J0D01*
G01*
G37*
G36*
G01*
X183900000Y-81875000D02*
X184100000Y-81875000D01*
G75*
G02*
X184200000Y-81975000I0J-100000D01*
G01*
X184200000Y-83350000D01*
G75*
G02*
X184100000Y-83450000I-100000J0D01*
G01*
X183900000Y-83450000D01*
G75*
G02*
X183800000Y-83350000I0J100000D01*
G01*
X183800000Y-81975000D01*
G75*
G02*
X183900000Y-81875000I100000J0D01*
G01*
G37*
G36*
G01*
X183400000Y-81875000D02*
X183600000Y-81875000D01*
G75*
G02*
X183700000Y-81975000I0J-100000D01*
G01*
X183700000Y-83350000D01*
G75*
G02*
X183600000Y-83450000I-100000J0D01*
G01*
X183400000Y-83450000D01*
G75*
G02*
X183300000Y-83350000I0J100000D01*
G01*
X183300000Y-81975000D01*
G75*
G02*
X183400000Y-81875000I100000J0D01*
G01*
G37*
G36*
G01*
X182900000Y-81875000D02*
X183100000Y-81875000D01*
G75*
G02*
X183200000Y-81975000I0J-100000D01*
G01*
X183200000Y-83350000D01*
G75*
G02*
X183100000Y-83450000I-100000J0D01*
G01*
X182900000Y-83450000D01*
G75*
G02*
X182800000Y-83350000I0J100000D01*
G01*
X182800000Y-81975000D01*
G75*
G02*
X182900000Y-81875000I100000J0D01*
G01*
G37*
G36*
G01*
X182400000Y-81875000D02*
X182600000Y-81875000D01*
G75*
G02*
X182700000Y-81975000I0J-100000D01*
G01*
X182700000Y-83350000D01*
G75*
G02*
X182600000Y-83450000I-100000J0D01*
G01*
X182400000Y-83450000D01*
G75*
G02*
X182300000Y-83350000I0J100000D01*
G01*
X182300000Y-81975000D01*
G75*
G02*
X182400000Y-81875000I100000J0D01*
G01*
G37*
G36*
G01*
X181900000Y-81875000D02*
X182100000Y-81875000D01*
G75*
G02*
X182200000Y-81975000I0J-100000D01*
G01*
X182200000Y-83350000D01*
G75*
G02*
X182100000Y-83450000I-100000J0D01*
G01*
X181900000Y-83450000D01*
G75*
G02*
X181800000Y-83350000I0J100000D01*
G01*
X181800000Y-81975000D01*
G75*
G02*
X181900000Y-81875000I100000J0D01*
G01*
G37*
G36*
G01*
X181400000Y-81875000D02*
X181600000Y-81875000D01*
G75*
G02*
X181700000Y-81975000I0J-100000D01*
G01*
X181700000Y-83350000D01*
G75*
G02*
X181600000Y-83450000I-100000J0D01*
G01*
X181400000Y-83450000D01*
G75*
G02*
X181300000Y-83350000I0J100000D01*
G01*
X181300000Y-81975000D01*
G75*
G02*
X181400000Y-81875000I100000J0D01*
G01*
G37*
G36*
G01*
X180900000Y-81875000D02*
X181100000Y-81875000D01*
G75*
G02*
X181200000Y-81975000I0J-100000D01*
G01*
X181200000Y-83350000D01*
G75*
G02*
X181100000Y-83450000I-100000J0D01*
G01*
X180900000Y-83450000D01*
G75*
G02*
X180800000Y-83350000I0J100000D01*
G01*
X180800000Y-81975000D01*
G75*
G02*
X180900000Y-81875000I100000J0D01*
G01*
G37*
G36*
G01*
X180400000Y-81875000D02*
X180600000Y-81875000D01*
G75*
G02*
X180700000Y-81975000I0J-100000D01*
G01*
X180700000Y-83350000D01*
G75*
G02*
X180600000Y-83450000I-100000J0D01*
G01*
X180400000Y-83450000D01*
G75*
G02*
X180300000Y-83350000I0J100000D01*
G01*
X180300000Y-81975000D01*
G75*
G02*
X180400000Y-81875000I100000J0D01*
G01*
G37*
G36*
G01*
X179900000Y-81875000D02*
X180100000Y-81875000D01*
G75*
G02*
X180200000Y-81975000I0J-100000D01*
G01*
X180200000Y-83350000D01*
G75*
G02*
X180100000Y-83450000I-100000J0D01*
G01*
X179900000Y-83450000D01*
G75*
G02*
X179800000Y-83350000I0J100000D01*
G01*
X179800000Y-81975000D01*
G75*
G02*
X179900000Y-81875000I100000J0D01*
G01*
G37*
G36*
G01*
X179400000Y-81875000D02*
X179600000Y-81875000D01*
G75*
G02*
X179700000Y-81975000I0J-100000D01*
G01*
X179700000Y-83350000D01*
G75*
G02*
X179600000Y-83450000I-100000J0D01*
G01*
X179400000Y-83450000D01*
G75*
G02*
X179300000Y-83350000I0J100000D01*
G01*
X179300000Y-81975000D01*
G75*
G02*
X179400000Y-81875000I100000J0D01*
G01*
G37*
G36*
G01*
X178900000Y-81875000D02*
X179100000Y-81875000D01*
G75*
G02*
X179200000Y-81975000I0J-100000D01*
G01*
X179200000Y-83350000D01*
G75*
G02*
X179100000Y-83450000I-100000J0D01*
G01*
X178900000Y-83450000D01*
G75*
G02*
X178800000Y-83350000I0J100000D01*
G01*
X178800000Y-81975000D01*
G75*
G02*
X178900000Y-81875000I100000J0D01*
G01*
G37*
G36*
G01*
X178400000Y-81875000D02*
X178600000Y-81875000D01*
G75*
G02*
X178700000Y-81975000I0J-100000D01*
G01*
X178700000Y-83350000D01*
G75*
G02*
X178600000Y-83450000I-100000J0D01*
G01*
X178400000Y-83450000D01*
G75*
G02*
X178300000Y-83350000I0J100000D01*
G01*
X178300000Y-81975000D01*
G75*
G02*
X178400000Y-81875000I100000J0D01*
G01*
G37*
G36*
G01*
X177900000Y-81875000D02*
X178100000Y-81875000D01*
G75*
G02*
X178200000Y-81975000I0J-100000D01*
G01*
X178200000Y-83350000D01*
G75*
G02*
X178100000Y-83450000I-100000J0D01*
G01*
X177900000Y-83450000D01*
G75*
G02*
X177800000Y-83350000I0J100000D01*
G01*
X177800000Y-81975000D01*
G75*
G02*
X177900000Y-81875000I100000J0D01*
G01*
G37*
G36*
G01*
X177400000Y-81875000D02*
X177600000Y-81875000D01*
G75*
G02*
X177700000Y-81975000I0J-100000D01*
G01*
X177700000Y-83350000D01*
G75*
G02*
X177600000Y-83450000I-100000J0D01*
G01*
X177400000Y-83450000D01*
G75*
G02*
X177300000Y-83350000I0J100000D01*
G01*
X177300000Y-81975000D01*
G75*
G02*
X177400000Y-81875000I100000J0D01*
G01*
G37*
G36*
G01*
X176900000Y-81875000D02*
X177100000Y-81875000D01*
G75*
G02*
X177200000Y-81975000I0J-100000D01*
G01*
X177200000Y-83350000D01*
G75*
G02*
X177100000Y-83450000I-100000J0D01*
G01*
X176900000Y-83450000D01*
G75*
G02*
X176800000Y-83350000I0J100000D01*
G01*
X176800000Y-81975000D01*
G75*
G02*
X176900000Y-81875000I100000J0D01*
G01*
G37*
G36*
G01*
X176400000Y-81875000D02*
X176600000Y-81875000D01*
G75*
G02*
X176700000Y-81975000I0J-100000D01*
G01*
X176700000Y-83350000D01*
G75*
G02*
X176600000Y-83450000I-100000J0D01*
G01*
X176400000Y-83450000D01*
G75*
G02*
X176300000Y-83350000I0J100000D01*
G01*
X176300000Y-81975000D01*
G75*
G02*
X176400000Y-81875000I100000J0D01*
G01*
G37*
G36*
G01*
X175900000Y-81875000D02*
X176100000Y-81875000D01*
G75*
G02*
X176200000Y-81975000I0J-100000D01*
G01*
X176200000Y-83350000D01*
G75*
G02*
X176100000Y-83450000I-100000J0D01*
G01*
X175900000Y-83450000D01*
G75*
G02*
X175800000Y-83350000I0J100000D01*
G01*
X175800000Y-81975000D01*
G75*
G02*
X175900000Y-81875000I100000J0D01*
G01*
G37*
G36*
G01*
X175400000Y-81875000D02*
X175600000Y-81875000D01*
G75*
G02*
X175700000Y-81975000I0J-100000D01*
G01*
X175700000Y-83350000D01*
G75*
G02*
X175600000Y-83450000I-100000J0D01*
G01*
X175400000Y-83450000D01*
G75*
G02*
X175300000Y-83350000I0J100000D01*
G01*
X175300000Y-81975000D01*
G75*
G02*
X175400000Y-81875000I100000J0D01*
G01*
G37*
G36*
G01*
X174900000Y-81875000D02*
X175100000Y-81875000D01*
G75*
G02*
X175200000Y-81975000I0J-100000D01*
G01*
X175200000Y-83350000D01*
G75*
G02*
X175100000Y-83450000I-100000J0D01*
G01*
X174900000Y-83450000D01*
G75*
G02*
X174800000Y-83350000I0J100000D01*
G01*
X174800000Y-81975000D01*
G75*
G02*
X174900000Y-81875000I100000J0D01*
G01*
G37*
G36*
G01*
X174400000Y-81875000D02*
X174600000Y-81875000D01*
G75*
G02*
X174700000Y-81975000I0J-100000D01*
G01*
X174700000Y-83350000D01*
G75*
G02*
X174600000Y-83450000I-100000J0D01*
G01*
X174400000Y-83450000D01*
G75*
G02*
X174300000Y-83350000I0J100000D01*
G01*
X174300000Y-81975000D01*
G75*
G02*
X174400000Y-81875000I100000J0D01*
G01*
G37*
G36*
G01*
X173900000Y-81875000D02*
X174100000Y-81875000D01*
G75*
G02*
X174200000Y-81975000I0J-100000D01*
G01*
X174200000Y-83350000D01*
G75*
G02*
X174100000Y-83450000I-100000J0D01*
G01*
X173900000Y-83450000D01*
G75*
G02*
X173800000Y-83350000I0J100000D01*
G01*
X173800000Y-81975000D01*
G75*
G02*
X173900000Y-81875000I100000J0D01*
G01*
G37*
G36*
G01*
X173400000Y-81875000D02*
X173600000Y-81875000D01*
G75*
G02*
X173700000Y-81975000I0J-100000D01*
G01*
X173700000Y-83350000D01*
G75*
G02*
X173600000Y-83450000I-100000J0D01*
G01*
X173400000Y-83450000D01*
G75*
G02*
X173300000Y-83350000I0J100000D01*
G01*
X173300000Y-81975000D01*
G75*
G02*
X173400000Y-81875000I100000J0D01*
G01*
G37*
G36*
G01*
X172900000Y-81875000D02*
X173100000Y-81875000D01*
G75*
G02*
X173200000Y-81975000I0J-100000D01*
G01*
X173200000Y-83350000D01*
G75*
G02*
X173100000Y-83450000I-100000J0D01*
G01*
X172900000Y-83450000D01*
G75*
G02*
X172800000Y-83350000I0J100000D01*
G01*
X172800000Y-81975000D01*
G75*
G02*
X172900000Y-81875000I100000J0D01*
G01*
G37*
G36*
G01*
X170650000Y-80800000D02*
X172025000Y-80800000D01*
G75*
G02*
X172125000Y-80900000I0J-100000D01*
G01*
X172125000Y-81100000D01*
G75*
G02*
X172025000Y-81200000I-100000J0D01*
G01*
X170650000Y-81200000D01*
G75*
G02*
X170550000Y-81100000I0J100000D01*
G01*
X170550000Y-80900000D01*
G75*
G02*
X170650000Y-80800000I100000J0D01*
G01*
G37*
G36*
G01*
X170650000Y-80300000D02*
X172025000Y-80300000D01*
G75*
G02*
X172125000Y-80400000I0J-100000D01*
G01*
X172125000Y-80600000D01*
G75*
G02*
X172025000Y-80700000I-100000J0D01*
G01*
X170650000Y-80700000D01*
G75*
G02*
X170550000Y-80600000I0J100000D01*
G01*
X170550000Y-80400000D01*
G75*
G02*
X170650000Y-80300000I100000J0D01*
G01*
G37*
G36*
G01*
X170650000Y-79800000D02*
X172025000Y-79800000D01*
G75*
G02*
X172125000Y-79900000I0J-100000D01*
G01*
X172125000Y-80100000D01*
G75*
G02*
X172025000Y-80200000I-100000J0D01*
G01*
X170650000Y-80200000D01*
G75*
G02*
X170550000Y-80100000I0J100000D01*
G01*
X170550000Y-79900000D01*
G75*
G02*
X170650000Y-79800000I100000J0D01*
G01*
G37*
G36*
G01*
X170650000Y-79300000D02*
X172025000Y-79300000D01*
G75*
G02*
X172125000Y-79400000I0J-100000D01*
G01*
X172125000Y-79600000D01*
G75*
G02*
X172025000Y-79700000I-100000J0D01*
G01*
X170650000Y-79700000D01*
G75*
G02*
X170550000Y-79600000I0J100000D01*
G01*
X170550000Y-79400000D01*
G75*
G02*
X170650000Y-79300000I100000J0D01*
G01*
G37*
G36*
G01*
X170650000Y-78800000D02*
X172025000Y-78800000D01*
G75*
G02*
X172125000Y-78900000I0J-100000D01*
G01*
X172125000Y-79100000D01*
G75*
G02*
X172025000Y-79200000I-100000J0D01*
G01*
X170650000Y-79200000D01*
G75*
G02*
X170550000Y-79100000I0J100000D01*
G01*
X170550000Y-78900000D01*
G75*
G02*
X170650000Y-78800000I100000J0D01*
G01*
G37*
G36*
G01*
X170650000Y-78300000D02*
X172025000Y-78300000D01*
G75*
G02*
X172125000Y-78400000I0J-100000D01*
G01*
X172125000Y-78600000D01*
G75*
G02*
X172025000Y-78700000I-100000J0D01*
G01*
X170650000Y-78700000D01*
G75*
G02*
X170550000Y-78600000I0J100000D01*
G01*
X170550000Y-78400000D01*
G75*
G02*
X170650000Y-78300000I100000J0D01*
G01*
G37*
G36*
G01*
X170650000Y-77800000D02*
X172025000Y-77800000D01*
G75*
G02*
X172125000Y-77900000I0J-100000D01*
G01*
X172125000Y-78100000D01*
G75*
G02*
X172025000Y-78200000I-100000J0D01*
G01*
X170650000Y-78200000D01*
G75*
G02*
X170550000Y-78100000I0J100000D01*
G01*
X170550000Y-77900000D01*
G75*
G02*
X170650000Y-77800000I100000J0D01*
G01*
G37*
G36*
G01*
X170650000Y-77300000D02*
X172025000Y-77300000D01*
G75*
G02*
X172125000Y-77400000I0J-100000D01*
G01*
X172125000Y-77600000D01*
G75*
G02*
X172025000Y-77700000I-100000J0D01*
G01*
X170650000Y-77700000D01*
G75*
G02*
X170550000Y-77600000I0J100000D01*
G01*
X170550000Y-77400000D01*
G75*
G02*
X170650000Y-77300000I100000J0D01*
G01*
G37*
G36*
G01*
X170650000Y-76800000D02*
X172025000Y-76800000D01*
G75*
G02*
X172125000Y-76900000I0J-100000D01*
G01*
X172125000Y-77100000D01*
G75*
G02*
X172025000Y-77200000I-100000J0D01*
G01*
X170650000Y-77200000D01*
G75*
G02*
X170550000Y-77100000I0J100000D01*
G01*
X170550000Y-76900000D01*
G75*
G02*
X170650000Y-76800000I100000J0D01*
G01*
G37*
G36*
G01*
X170650000Y-76300000D02*
X172025000Y-76300000D01*
G75*
G02*
X172125000Y-76400000I0J-100000D01*
G01*
X172125000Y-76600000D01*
G75*
G02*
X172025000Y-76700000I-100000J0D01*
G01*
X170650000Y-76700000D01*
G75*
G02*
X170550000Y-76600000I0J100000D01*
G01*
X170550000Y-76400000D01*
G75*
G02*
X170650000Y-76300000I100000J0D01*
G01*
G37*
G36*
G01*
X170650000Y-75800000D02*
X172025000Y-75800000D01*
G75*
G02*
X172125000Y-75900000I0J-100000D01*
G01*
X172125000Y-76100000D01*
G75*
G02*
X172025000Y-76200000I-100000J0D01*
G01*
X170650000Y-76200000D01*
G75*
G02*
X170550000Y-76100000I0J100000D01*
G01*
X170550000Y-75900000D01*
G75*
G02*
X170650000Y-75800000I100000J0D01*
G01*
G37*
G36*
G01*
X170650000Y-75300000D02*
X172025000Y-75300000D01*
G75*
G02*
X172125000Y-75400000I0J-100000D01*
G01*
X172125000Y-75600000D01*
G75*
G02*
X172025000Y-75700000I-100000J0D01*
G01*
X170650000Y-75700000D01*
G75*
G02*
X170550000Y-75600000I0J100000D01*
G01*
X170550000Y-75400000D01*
G75*
G02*
X170650000Y-75300000I100000J0D01*
G01*
G37*
G36*
G01*
X170650000Y-74800000D02*
X172025000Y-74800000D01*
G75*
G02*
X172125000Y-74900000I0J-100000D01*
G01*
X172125000Y-75100000D01*
G75*
G02*
X172025000Y-75200000I-100000J0D01*
G01*
X170650000Y-75200000D01*
G75*
G02*
X170550000Y-75100000I0J100000D01*
G01*
X170550000Y-74900000D01*
G75*
G02*
X170650000Y-74800000I100000J0D01*
G01*
G37*
G36*
G01*
X170650000Y-74300000D02*
X172025000Y-74300000D01*
G75*
G02*
X172125000Y-74400000I0J-100000D01*
G01*
X172125000Y-74600000D01*
G75*
G02*
X172025000Y-74700000I-100000J0D01*
G01*
X170650000Y-74700000D01*
G75*
G02*
X170550000Y-74600000I0J100000D01*
G01*
X170550000Y-74400000D01*
G75*
G02*
X170650000Y-74300000I100000J0D01*
G01*
G37*
G36*
G01*
X170650000Y-73800000D02*
X172025000Y-73800000D01*
G75*
G02*
X172125000Y-73900000I0J-100000D01*
G01*
X172125000Y-74100000D01*
G75*
G02*
X172025000Y-74200000I-100000J0D01*
G01*
X170650000Y-74200000D01*
G75*
G02*
X170550000Y-74100000I0J100000D01*
G01*
X170550000Y-73900000D01*
G75*
G02*
X170650000Y-73800000I100000J0D01*
G01*
G37*
G36*
G01*
X170650000Y-73300000D02*
X172025000Y-73300000D01*
G75*
G02*
X172125000Y-73400000I0J-100000D01*
G01*
X172125000Y-73600000D01*
G75*
G02*
X172025000Y-73700000I-100000J0D01*
G01*
X170650000Y-73700000D01*
G75*
G02*
X170550000Y-73600000I0J100000D01*
G01*
X170550000Y-73400000D01*
G75*
G02*
X170650000Y-73300000I100000J0D01*
G01*
G37*
G36*
G01*
X170650000Y-72800000D02*
X172025000Y-72800000D01*
G75*
G02*
X172125000Y-72900000I0J-100000D01*
G01*
X172125000Y-73100000D01*
G75*
G02*
X172025000Y-73200000I-100000J0D01*
G01*
X170650000Y-73200000D01*
G75*
G02*
X170550000Y-73100000I0J100000D01*
G01*
X170550000Y-72900000D01*
G75*
G02*
X170650000Y-72800000I100000J0D01*
G01*
G37*
G36*
G01*
X170650000Y-72300000D02*
X172025000Y-72300000D01*
G75*
G02*
X172125000Y-72400000I0J-100000D01*
G01*
X172125000Y-72600000D01*
G75*
G02*
X172025000Y-72700000I-100000J0D01*
G01*
X170650000Y-72700000D01*
G75*
G02*
X170550000Y-72600000I0J100000D01*
G01*
X170550000Y-72400000D01*
G75*
G02*
X170650000Y-72300000I100000J0D01*
G01*
G37*
G36*
G01*
X170650000Y-71800000D02*
X172025000Y-71800000D01*
G75*
G02*
X172125000Y-71900000I0J-100000D01*
G01*
X172125000Y-72100000D01*
G75*
G02*
X172025000Y-72200000I-100000J0D01*
G01*
X170650000Y-72200000D01*
G75*
G02*
X170550000Y-72100000I0J100000D01*
G01*
X170550000Y-71900000D01*
G75*
G02*
X170650000Y-71800000I100000J0D01*
G01*
G37*
G36*
G01*
X170650000Y-71300000D02*
X172025000Y-71300000D01*
G75*
G02*
X172125000Y-71400000I0J-100000D01*
G01*
X172125000Y-71600000D01*
G75*
G02*
X172025000Y-71700000I-100000J0D01*
G01*
X170650000Y-71700000D01*
G75*
G02*
X170550000Y-71600000I0J100000D01*
G01*
X170550000Y-71400000D01*
G75*
G02*
X170650000Y-71300000I100000J0D01*
G01*
G37*
G36*
G01*
X170650000Y-70800000D02*
X172025000Y-70800000D01*
G75*
G02*
X172125000Y-70900000I0J-100000D01*
G01*
X172125000Y-71100000D01*
G75*
G02*
X172025000Y-71200000I-100000J0D01*
G01*
X170650000Y-71200000D01*
G75*
G02*
X170550000Y-71100000I0J100000D01*
G01*
X170550000Y-70900000D01*
G75*
G02*
X170650000Y-70800000I100000J0D01*
G01*
G37*
G36*
G01*
X170650000Y-70300000D02*
X172025000Y-70300000D01*
G75*
G02*
X172125000Y-70400000I0J-100000D01*
G01*
X172125000Y-70600000D01*
G75*
G02*
X172025000Y-70700000I-100000J0D01*
G01*
X170650000Y-70700000D01*
G75*
G02*
X170550000Y-70600000I0J100000D01*
G01*
X170550000Y-70400000D01*
G75*
G02*
X170650000Y-70300000I100000J0D01*
G01*
G37*
G36*
G01*
X170650000Y-69800000D02*
X172025000Y-69800000D01*
G75*
G02*
X172125000Y-69900000I0J-100000D01*
G01*
X172125000Y-70100000D01*
G75*
G02*
X172025000Y-70200000I-100000J0D01*
G01*
X170650000Y-70200000D01*
G75*
G02*
X170550000Y-70100000I0J100000D01*
G01*
X170550000Y-69900000D01*
G75*
G02*
X170650000Y-69800000I100000J0D01*
G01*
G37*
G36*
G01*
X170650000Y-69300000D02*
X172025000Y-69300000D01*
G75*
G02*
X172125000Y-69400000I0J-100000D01*
G01*
X172125000Y-69600000D01*
G75*
G02*
X172025000Y-69700000I-100000J0D01*
G01*
X170650000Y-69700000D01*
G75*
G02*
X170550000Y-69600000I0J100000D01*
G01*
X170550000Y-69400000D01*
G75*
G02*
X170650000Y-69300000I100000J0D01*
G01*
G37*
G36*
G01*
X170650000Y-68800000D02*
X172025000Y-68800000D01*
G75*
G02*
X172125000Y-68900000I0J-100000D01*
G01*
X172125000Y-69100000D01*
G75*
G02*
X172025000Y-69200000I-100000J0D01*
G01*
X170650000Y-69200000D01*
G75*
G02*
X170550000Y-69100000I0J100000D01*
G01*
X170550000Y-68900000D01*
G75*
G02*
X170650000Y-68800000I100000J0D01*
G01*
G37*
G36*
G01*
X172900000Y-66550000D02*
X173100000Y-66550000D01*
G75*
G02*
X173200000Y-66650000I0J-100000D01*
G01*
X173200000Y-68025000D01*
G75*
G02*
X173100000Y-68125000I-100000J0D01*
G01*
X172900000Y-68125000D01*
G75*
G02*
X172800000Y-68025000I0J100000D01*
G01*
X172800000Y-66650000D01*
G75*
G02*
X172900000Y-66550000I100000J0D01*
G01*
G37*
G36*
G01*
X173400000Y-66550000D02*
X173600000Y-66550000D01*
G75*
G02*
X173700000Y-66650000I0J-100000D01*
G01*
X173700000Y-68025000D01*
G75*
G02*
X173600000Y-68125000I-100000J0D01*
G01*
X173400000Y-68125000D01*
G75*
G02*
X173300000Y-68025000I0J100000D01*
G01*
X173300000Y-66650000D01*
G75*
G02*
X173400000Y-66550000I100000J0D01*
G01*
G37*
G36*
G01*
X173900000Y-66550000D02*
X174100000Y-66550000D01*
G75*
G02*
X174200000Y-66650000I0J-100000D01*
G01*
X174200000Y-68025000D01*
G75*
G02*
X174100000Y-68125000I-100000J0D01*
G01*
X173900000Y-68125000D01*
G75*
G02*
X173800000Y-68025000I0J100000D01*
G01*
X173800000Y-66650000D01*
G75*
G02*
X173900000Y-66550000I100000J0D01*
G01*
G37*
G36*
G01*
X174400000Y-66550000D02*
X174600000Y-66550000D01*
G75*
G02*
X174700000Y-66650000I0J-100000D01*
G01*
X174700000Y-68025000D01*
G75*
G02*
X174600000Y-68125000I-100000J0D01*
G01*
X174400000Y-68125000D01*
G75*
G02*
X174300000Y-68025000I0J100000D01*
G01*
X174300000Y-66650000D01*
G75*
G02*
X174400000Y-66550000I100000J0D01*
G01*
G37*
G36*
G01*
X174900000Y-66550000D02*
X175100000Y-66550000D01*
G75*
G02*
X175200000Y-66650000I0J-100000D01*
G01*
X175200000Y-68025000D01*
G75*
G02*
X175100000Y-68125000I-100000J0D01*
G01*
X174900000Y-68125000D01*
G75*
G02*
X174800000Y-68025000I0J100000D01*
G01*
X174800000Y-66650000D01*
G75*
G02*
X174900000Y-66550000I100000J0D01*
G01*
G37*
G36*
G01*
X175400000Y-66550000D02*
X175600000Y-66550000D01*
G75*
G02*
X175700000Y-66650000I0J-100000D01*
G01*
X175700000Y-68025000D01*
G75*
G02*
X175600000Y-68125000I-100000J0D01*
G01*
X175400000Y-68125000D01*
G75*
G02*
X175300000Y-68025000I0J100000D01*
G01*
X175300000Y-66650000D01*
G75*
G02*
X175400000Y-66550000I100000J0D01*
G01*
G37*
G36*
G01*
X175900000Y-66550000D02*
X176100000Y-66550000D01*
G75*
G02*
X176200000Y-66650000I0J-100000D01*
G01*
X176200000Y-68025000D01*
G75*
G02*
X176100000Y-68125000I-100000J0D01*
G01*
X175900000Y-68125000D01*
G75*
G02*
X175800000Y-68025000I0J100000D01*
G01*
X175800000Y-66650000D01*
G75*
G02*
X175900000Y-66550000I100000J0D01*
G01*
G37*
G36*
G01*
X176400000Y-66550000D02*
X176600000Y-66550000D01*
G75*
G02*
X176700000Y-66650000I0J-100000D01*
G01*
X176700000Y-68025000D01*
G75*
G02*
X176600000Y-68125000I-100000J0D01*
G01*
X176400000Y-68125000D01*
G75*
G02*
X176300000Y-68025000I0J100000D01*
G01*
X176300000Y-66650000D01*
G75*
G02*
X176400000Y-66550000I100000J0D01*
G01*
G37*
G36*
G01*
X176900000Y-66550000D02*
X177100000Y-66550000D01*
G75*
G02*
X177200000Y-66650000I0J-100000D01*
G01*
X177200000Y-68025000D01*
G75*
G02*
X177100000Y-68125000I-100000J0D01*
G01*
X176900000Y-68125000D01*
G75*
G02*
X176800000Y-68025000I0J100000D01*
G01*
X176800000Y-66650000D01*
G75*
G02*
X176900000Y-66550000I100000J0D01*
G01*
G37*
G36*
G01*
X177400000Y-66550000D02*
X177600000Y-66550000D01*
G75*
G02*
X177700000Y-66650000I0J-100000D01*
G01*
X177700000Y-68025000D01*
G75*
G02*
X177600000Y-68125000I-100000J0D01*
G01*
X177400000Y-68125000D01*
G75*
G02*
X177300000Y-68025000I0J100000D01*
G01*
X177300000Y-66650000D01*
G75*
G02*
X177400000Y-66550000I100000J0D01*
G01*
G37*
G36*
G01*
X177900000Y-66550000D02*
X178100000Y-66550000D01*
G75*
G02*
X178200000Y-66650000I0J-100000D01*
G01*
X178200000Y-68025000D01*
G75*
G02*
X178100000Y-68125000I-100000J0D01*
G01*
X177900000Y-68125000D01*
G75*
G02*
X177800000Y-68025000I0J100000D01*
G01*
X177800000Y-66650000D01*
G75*
G02*
X177900000Y-66550000I100000J0D01*
G01*
G37*
G36*
G01*
X178400000Y-66550000D02*
X178600000Y-66550000D01*
G75*
G02*
X178700000Y-66650000I0J-100000D01*
G01*
X178700000Y-68025000D01*
G75*
G02*
X178600000Y-68125000I-100000J0D01*
G01*
X178400000Y-68125000D01*
G75*
G02*
X178300000Y-68025000I0J100000D01*
G01*
X178300000Y-66650000D01*
G75*
G02*
X178400000Y-66550000I100000J0D01*
G01*
G37*
G36*
G01*
X178900000Y-66550000D02*
X179100000Y-66550000D01*
G75*
G02*
X179200000Y-66650000I0J-100000D01*
G01*
X179200000Y-68025000D01*
G75*
G02*
X179100000Y-68125000I-100000J0D01*
G01*
X178900000Y-68125000D01*
G75*
G02*
X178800000Y-68025000I0J100000D01*
G01*
X178800000Y-66650000D01*
G75*
G02*
X178900000Y-66550000I100000J0D01*
G01*
G37*
G36*
G01*
X179400000Y-66550000D02*
X179600000Y-66550000D01*
G75*
G02*
X179700000Y-66650000I0J-100000D01*
G01*
X179700000Y-68025000D01*
G75*
G02*
X179600000Y-68125000I-100000J0D01*
G01*
X179400000Y-68125000D01*
G75*
G02*
X179300000Y-68025000I0J100000D01*
G01*
X179300000Y-66650000D01*
G75*
G02*
X179400000Y-66550000I100000J0D01*
G01*
G37*
G36*
G01*
X179900000Y-66550000D02*
X180100000Y-66550000D01*
G75*
G02*
X180200000Y-66650000I0J-100000D01*
G01*
X180200000Y-68025000D01*
G75*
G02*
X180100000Y-68125000I-100000J0D01*
G01*
X179900000Y-68125000D01*
G75*
G02*
X179800000Y-68025000I0J100000D01*
G01*
X179800000Y-66650000D01*
G75*
G02*
X179900000Y-66550000I100000J0D01*
G01*
G37*
G36*
G01*
X180400000Y-66550000D02*
X180600000Y-66550000D01*
G75*
G02*
X180700000Y-66650000I0J-100000D01*
G01*
X180700000Y-68025000D01*
G75*
G02*
X180600000Y-68125000I-100000J0D01*
G01*
X180400000Y-68125000D01*
G75*
G02*
X180300000Y-68025000I0J100000D01*
G01*
X180300000Y-66650000D01*
G75*
G02*
X180400000Y-66550000I100000J0D01*
G01*
G37*
G36*
G01*
X180900000Y-66550000D02*
X181100000Y-66550000D01*
G75*
G02*
X181200000Y-66650000I0J-100000D01*
G01*
X181200000Y-68025000D01*
G75*
G02*
X181100000Y-68125000I-100000J0D01*
G01*
X180900000Y-68125000D01*
G75*
G02*
X180800000Y-68025000I0J100000D01*
G01*
X180800000Y-66650000D01*
G75*
G02*
X180900000Y-66550000I100000J0D01*
G01*
G37*
G36*
G01*
X181400000Y-66550000D02*
X181600000Y-66550000D01*
G75*
G02*
X181700000Y-66650000I0J-100000D01*
G01*
X181700000Y-68025000D01*
G75*
G02*
X181600000Y-68125000I-100000J0D01*
G01*
X181400000Y-68125000D01*
G75*
G02*
X181300000Y-68025000I0J100000D01*
G01*
X181300000Y-66650000D01*
G75*
G02*
X181400000Y-66550000I100000J0D01*
G01*
G37*
G36*
G01*
X181900000Y-66550000D02*
X182100000Y-66550000D01*
G75*
G02*
X182200000Y-66650000I0J-100000D01*
G01*
X182200000Y-68025000D01*
G75*
G02*
X182100000Y-68125000I-100000J0D01*
G01*
X181900000Y-68125000D01*
G75*
G02*
X181800000Y-68025000I0J100000D01*
G01*
X181800000Y-66650000D01*
G75*
G02*
X181900000Y-66550000I100000J0D01*
G01*
G37*
G36*
G01*
X182400000Y-66550000D02*
X182600000Y-66550000D01*
G75*
G02*
X182700000Y-66650000I0J-100000D01*
G01*
X182700000Y-68025000D01*
G75*
G02*
X182600000Y-68125000I-100000J0D01*
G01*
X182400000Y-68125000D01*
G75*
G02*
X182300000Y-68025000I0J100000D01*
G01*
X182300000Y-66650000D01*
G75*
G02*
X182400000Y-66550000I100000J0D01*
G01*
G37*
G36*
G01*
X182900000Y-66550000D02*
X183100000Y-66550000D01*
G75*
G02*
X183200000Y-66650000I0J-100000D01*
G01*
X183200000Y-68025000D01*
G75*
G02*
X183100000Y-68125000I-100000J0D01*
G01*
X182900000Y-68125000D01*
G75*
G02*
X182800000Y-68025000I0J100000D01*
G01*
X182800000Y-66650000D01*
G75*
G02*
X182900000Y-66550000I100000J0D01*
G01*
G37*
G36*
G01*
X183400000Y-66550000D02*
X183600000Y-66550000D01*
G75*
G02*
X183700000Y-66650000I0J-100000D01*
G01*
X183700000Y-68025000D01*
G75*
G02*
X183600000Y-68125000I-100000J0D01*
G01*
X183400000Y-68125000D01*
G75*
G02*
X183300000Y-68025000I0J100000D01*
G01*
X183300000Y-66650000D01*
G75*
G02*
X183400000Y-66550000I100000J0D01*
G01*
G37*
G36*
G01*
X183900000Y-66550000D02*
X184100000Y-66550000D01*
G75*
G02*
X184200000Y-66650000I0J-100000D01*
G01*
X184200000Y-68025000D01*
G75*
G02*
X184100000Y-68125000I-100000J0D01*
G01*
X183900000Y-68125000D01*
G75*
G02*
X183800000Y-68025000I0J100000D01*
G01*
X183800000Y-66650000D01*
G75*
G02*
X183900000Y-66550000I100000J0D01*
G01*
G37*
G36*
G01*
X184400000Y-66550000D02*
X184600000Y-66550000D01*
G75*
G02*
X184700000Y-66650000I0J-100000D01*
G01*
X184700000Y-68025000D01*
G75*
G02*
X184600000Y-68125000I-100000J0D01*
G01*
X184400000Y-68125000D01*
G75*
G02*
X184300000Y-68025000I0J100000D01*
G01*
X184300000Y-66650000D01*
G75*
G02*
X184400000Y-66550000I100000J0D01*
G01*
G37*
G36*
G01*
X184900000Y-66550000D02*
X185100000Y-66550000D01*
G75*
G02*
X185200000Y-66650000I0J-100000D01*
G01*
X185200000Y-68025000D01*
G75*
G02*
X185100000Y-68125000I-100000J0D01*
G01*
X184900000Y-68125000D01*
G75*
G02*
X184800000Y-68025000I0J100000D01*
G01*
X184800000Y-66650000D01*
G75*
G02*
X184900000Y-66550000I100000J0D01*
G01*
G37*
%TD*%
%TO.C,U5*%
G36*
G01*
X172575000Y-88675000D02*
X172575000Y-87075000D01*
G75*
G02*
X172700000Y-86950000I125000J0D01*
G01*
X172950000Y-86950000D01*
G75*
G02*
X173075000Y-87075000I0J-125000D01*
G01*
X173075000Y-88675000D01*
G75*
G02*
X172950000Y-88800000I-125000J0D01*
G01*
X172700000Y-88800000D01*
G75*
G02*
X172575000Y-88675000I0J125000D01*
G01*
G37*
G36*
G01*
X173225000Y-88675000D02*
X173225000Y-87075000D01*
G75*
G02*
X173350000Y-86950000I125000J0D01*
G01*
X173600000Y-86950000D01*
G75*
G02*
X173725000Y-87075000I0J-125000D01*
G01*
X173725000Y-88675000D01*
G75*
G02*
X173600000Y-88800000I-125000J0D01*
G01*
X173350000Y-88800000D01*
G75*
G02*
X173225000Y-88675000I0J125000D01*
G01*
G37*
G36*
G01*
X173875000Y-88675000D02*
X173875000Y-87075000D01*
G75*
G02*
X174000000Y-86950000I125000J0D01*
G01*
X174250000Y-86950000D01*
G75*
G02*
X174375000Y-87075000I0J-125000D01*
G01*
X174375000Y-88675000D01*
G75*
G02*
X174250000Y-88800000I-125000J0D01*
G01*
X174000000Y-88800000D01*
G75*
G02*
X173875000Y-88675000I0J125000D01*
G01*
G37*
G36*
G01*
X174525000Y-88675000D02*
X174525000Y-87075000D01*
G75*
G02*
X174650000Y-86950000I125000J0D01*
G01*
X174900000Y-86950000D01*
G75*
G02*
X175025000Y-87075000I0J-125000D01*
G01*
X175025000Y-88675000D01*
G75*
G02*
X174900000Y-88800000I-125000J0D01*
G01*
X174650000Y-88800000D01*
G75*
G02*
X174525000Y-88675000I0J125000D01*
G01*
G37*
G36*
G01*
X175175000Y-88675000D02*
X175175000Y-87075000D01*
G75*
G02*
X175300000Y-86950000I125000J0D01*
G01*
X175550000Y-86950000D01*
G75*
G02*
X175675000Y-87075000I0J-125000D01*
G01*
X175675000Y-88675000D01*
G75*
G02*
X175550000Y-88800000I-125000J0D01*
G01*
X175300000Y-88800000D01*
G75*
G02*
X175175000Y-88675000I0J125000D01*
G01*
G37*
G36*
G01*
X175825000Y-88675000D02*
X175825000Y-87075000D01*
G75*
G02*
X175950000Y-86950000I125000J0D01*
G01*
X176200000Y-86950000D01*
G75*
G02*
X176325000Y-87075000I0J-125000D01*
G01*
X176325000Y-88675000D01*
G75*
G02*
X176200000Y-88800000I-125000J0D01*
G01*
X175950000Y-88800000D01*
G75*
G02*
X175825000Y-88675000I0J125000D01*
G01*
G37*
G36*
G01*
X176475000Y-88675000D02*
X176475000Y-87075000D01*
G75*
G02*
X176600000Y-86950000I125000J0D01*
G01*
X176850000Y-86950000D01*
G75*
G02*
X176975000Y-87075000I0J-125000D01*
G01*
X176975000Y-88675000D01*
G75*
G02*
X176850000Y-88800000I-125000J0D01*
G01*
X176600000Y-88800000D01*
G75*
G02*
X176475000Y-88675000I0J125000D01*
G01*
G37*
G36*
G01*
X177125000Y-88675000D02*
X177125000Y-87075000D01*
G75*
G02*
X177250000Y-86950000I125000J0D01*
G01*
X177500000Y-86950000D01*
G75*
G02*
X177625000Y-87075000I0J-125000D01*
G01*
X177625000Y-88675000D01*
G75*
G02*
X177500000Y-88800000I-125000J0D01*
G01*
X177250000Y-88800000D01*
G75*
G02*
X177125000Y-88675000I0J125000D01*
G01*
G37*
G36*
G01*
X177775000Y-88675000D02*
X177775000Y-87075000D01*
G75*
G02*
X177900000Y-86950000I125000J0D01*
G01*
X178150000Y-86950000D01*
G75*
G02*
X178275000Y-87075000I0J-125000D01*
G01*
X178275000Y-88675000D01*
G75*
G02*
X178150000Y-88800000I-125000J0D01*
G01*
X177900000Y-88800000D01*
G75*
G02*
X177775000Y-88675000I0J125000D01*
G01*
G37*
G36*
G01*
X178425000Y-88675000D02*
X178425000Y-87075000D01*
G75*
G02*
X178550000Y-86950000I125000J0D01*
G01*
X178800000Y-86950000D01*
G75*
G02*
X178925000Y-87075000I0J-125000D01*
G01*
X178925000Y-88675000D01*
G75*
G02*
X178800000Y-88800000I-125000J0D01*
G01*
X178550000Y-88800000D01*
G75*
G02*
X178425000Y-88675000I0J125000D01*
G01*
G37*
G36*
G01*
X179075000Y-88675000D02*
X179075000Y-87075000D01*
G75*
G02*
X179200000Y-86950000I125000J0D01*
G01*
X179450000Y-86950000D01*
G75*
G02*
X179575000Y-87075000I0J-125000D01*
G01*
X179575000Y-88675000D01*
G75*
G02*
X179450000Y-88800000I-125000J0D01*
G01*
X179200000Y-88800000D01*
G75*
G02*
X179075000Y-88675000I0J125000D01*
G01*
G37*
G36*
G01*
X179725000Y-88675000D02*
X179725000Y-87075000D01*
G75*
G02*
X179850000Y-86950000I125000J0D01*
G01*
X180100000Y-86950000D01*
G75*
G02*
X180225000Y-87075000I0J-125000D01*
G01*
X180225000Y-88675000D01*
G75*
G02*
X180100000Y-88800000I-125000J0D01*
G01*
X179850000Y-88800000D01*
G75*
G02*
X179725000Y-88675000I0J125000D01*
G01*
G37*
G36*
G01*
X180375000Y-88675000D02*
X180375000Y-87075000D01*
G75*
G02*
X180500000Y-86950000I125000J0D01*
G01*
X180750000Y-86950000D01*
G75*
G02*
X180875000Y-87075000I0J-125000D01*
G01*
X180875000Y-88675000D01*
G75*
G02*
X180750000Y-88800000I-125000J0D01*
G01*
X180500000Y-88800000D01*
G75*
G02*
X180375000Y-88675000I0J125000D01*
G01*
G37*
G36*
G01*
X181025000Y-88675000D02*
X181025000Y-87075000D01*
G75*
G02*
X181150000Y-86950000I125000J0D01*
G01*
X181400000Y-86950000D01*
G75*
G02*
X181525000Y-87075000I0J-125000D01*
G01*
X181525000Y-88675000D01*
G75*
G02*
X181400000Y-88800000I-125000J0D01*
G01*
X181150000Y-88800000D01*
G75*
G02*
X181025000Y-88675000I0J125000D01*
G01*
G37*
G36*
G01*
X181675000Y-88675000D02*
X181675000Y-87075000D01*
G75*
G02*
X181800000Y-86950000I125000J0D01*
G01*
X182050000Y-86950000D01*
G75*
G02*
X182175000Y-87075000I0J-125000D01*
G01*
X182175000Y-88675000D01*
G75*
G02*
X182050000Y-88800000I-125000J0D01*
G01*
X181800000Y-88800000D01*
G75*
G02*
X181675000Y-88675000I0J125000D01*
G01*
G37*
G36*
G01*
X182325000Y-88675000D02*
X182325000Y-87075000D01*
G75*
G02*
X182450000Y-86950000I125000J0D01*
G01*
X182700000Y-86950000D01*
G75*
G02*
X182825000Y-87075000I0J-125000D01*
G01*
X182825000Y-88675000D01*
G75*
G02*
X182700000Y-88800000I-125000J0D01*
G01*
X182450000Y-88800000D01*
G75*
G02*
X182325000Y-88675000I0J125000D01*
G01*
G37*
G36*
G01*
X182975000Y-88675000D02*
X182975000Y-87075000D01*
G75*
G02*
X183100000Y-86950000I125000J0D01*
G01*
X183350000Y-86950000D01*
G75*
G02*
X183475000Y-87075000I0J-125000D01*
G01*
X183475000Y-88675000D01*
G75*
G02*
X183350000Y-88800000I-125000J0D01*
G01*
X183100000Y-88800000D01*
G75*
G02*
X182975000Y-88675000I0J125000D01*
G01*
G37*
G36*
G01*
X183625000Y-88675000D02*
X183625000Y-87075000D01*
G75*
G02*
X183750000Y-86950000I125000J0D01*
G01*
X184000000Y-86950000D01*
G75*
G02*
X184125000Y-87075000I0J-125000D01*
G01*
X184125000Y-88675000D01*
G75*
G02*
X184000000Y-88800000I-125000J0D01*
G01*
X183750000Y-88800000D01*
G75*
G02*
X183625000Y-88675000I0J125000D01*
G01*
G37*
G36*
G01*
X184275000Y-88675000D02*
X184275000Y-87075000D01*
G75*
G02*
X184400000Y-86950000I125000J0D01*
G01*
X184650000Y-86950000D01*
G75*
G02*
X184775000Y-87075000I0J-125000D01*
G01*
X184775000Y-88675000D01*
G75*
G02*
X184650000Y-88800000I-125000J0D01*
G01*
X184400000Y-88800000D01*
G75*
G02*
X184275000Y-88675000I0J125000D01*
G01*
G37*
G36*
G01*
X184925000Y-88675000D02*
X184925000Y-87075000D01*
G75*
G02*
X185050000Y-86950000I125000J0D01*
G01*
X185300000Y-86950000D01*
G75*
G02*
X185425000Y-87075000I0J-125000D01*
G01*
X185425000Y-88675000D01*
G75*
G02*
X185300000Y-88800000I-125000J0D01*
G01*
X185050000Y-88800000D01*
G75*
G02*
X184925000Y-88675000I0J125000D01*
G01*
G37*
G36*
G01*
X186200000Y-89700000D02*
X186200000Y-89450000D01*
G75*
G02*
X186325000Y-89325000I125000J0D01*
G01*
X187925000Y-89325000D01*
G75*
G02*
X188050000Y-89450000I0J-125000D01*
G01*
X188050000Y-89700000D01*
G75*
G02*
X187925000Y-89825000I-125000J0D01*
G01*
X186325000Y-89825000D01*
G75*
G02*
X186200000Y-89700000I0J125000D01*
G01*
G37*
G36*
G01*
X186200000Y-90350000D02*
X186200000Y-90100000D01*
G75*
G02*
X186325000Y-89975000I125000J0D01*
G01*
X187925000Y-89975000D01*
G75*
G02*
X188050000Y-90100000I0J-125000D01*
G01*
X188050000Y-90350000D01*
G75*
G02*
X187925000Y-90475000I-125000J0D01*
G01*
X186325000Y-90475000D01*
G75*
G02*
X186200000Y-90350000I0J125000D01*
G01*
G37*
G36*
G01*
X186200000Y-91000000D02*
X186200000Y-90750000D01*
G75*
G02*
X186325000Y-90625000I125000J0D01*
G01*
X187925000Y-90625000D01*
G75*
G02*
X188050000Y-90750000I0J-125000D01*
G01*
X188050000Y-91000000D01*
G75*
G02*
X187925000Y-91125000I-125000J0D01*
G01*
X186325000Y-91125000D01*
G75*
G02*
X186200000Y-91000000I0J125000D01*
G01*
G37*
G36*
G01*
X186200000Y-91650000D02*
X186200000Y-91400000D01*
G75*
G02*
X186325000Y-91275000I125000J0D01*
G01*
X187925000Y-91275000D01*
G75*
G02*
X188050000Y-91400000I0J-125000D01*
G01*
X188050000Y-91650000D01*
G75*
G02*
X187925000Y-91775000I-125000J0D01*
G01*
X186325000Y-91775000D01*
G75*
G02*
X186200000Y-91650000I0J125000D01*
G01*
G37*
G36*
G01*
X186200000Y-92300000D02*
X186200000Y-92050000D01*
G75*
G02*
X186325000Y-91925000I125000J0D01*
G01*
X187925000Y-91925000D01*
G75*
G02*
X188050000Y-92050000I0J-125000D01*
G01*
X188050000Y-92300000D01*
G75*
G02*
X187925000Y-92425000I-125000J0D01*
G01*
X186325000Y-92425000D01*
G75*
G02*
X186200000Y-92300000I0J125000D01*
G01*
G37*
G36*
G01*
X186200000Y-92950000D02*
X186200000Y-92700000D01*
G75*
G02*
X186325000Y-92575000I125000J0D01*
G01*
X187925000Y-92575000D01*
G75*
G02*
X188050000Y-92700000I0J-125000D01*
G01*
X188050000Y-92950000D01*
G75*
G02*
X187925000Y-93075000I-125000J0D01*
G01*
X186325000Y-93075000D01*
G75*
G02*
X186200000Y-92950000I0J125000D01*
G01*
G37*
G36*
G01*
X186200000Y-93600000D02*
X186200000Y-93350000D01*
G75*
G02*
X186325000Y-93225000I125000J0D01*
G01*
X187925000Y-93225000D01*
G75*
G02*
X188050000Y-93350000I0J-125000D01*
G01*
X188050000Y-93600000D01*
G75*
G02*
X187925000Y-93725000I-125000J0D01*
G01*
X186325000Y-93725000D01*
G75*
G02*
X186200000Y-93600000I0J125000D01*
G01*
G37*
G36*
G01*
X186200000Y-94250000D02*
X186200000Y-94000000D01*
G75*
G02*
X186325000Y-93875000I125000J0D01*
G01*
X187925000Y-93875000D01*
G75*
G02*
X188050000Y-94000000I0J-125000D01*
G01*
X188050000Y-94250000D01*
G75*
G02*
X187925000Y-94375000I-125000J0D01*
G01*
X186325000Y-94375000D01*
G75*
G02*
X186200000Y-94250000I0J125000D01*
G01*
G37*
G36*
G01*
X186200000Y-94900000D02*
X186200000Y-94650000D01*
G75*
G02*
X186325000Y-94525000I125000J0D01*
G01*
X187925000Y-94525000D01*
G75*
G02*
X188050000Y-94650000I0J-125000D01*
G01*
X188050000Y-94900000D01*
G75*
G02*
X187925000Y-95025000I-125000J0D01*
G01*
X186325000Y-95025000D01*
G75*
G02*
X186200000Y-94900000I0J125000D01*
G01*
G37*
G36*
G01*
X186200000Y-95550000D02*
X186200000Y-95300000D01*
G75*
G02*
X186325000Y-95175000I125000J0D01*
G01*
X187925000Y-95175000D01*
G75*
G02*
X188050000Y-95300000I0J-125000D01*
G01*
X188050000Y-95550000D01*
G75*
G02*
X187925000Y-95675000I-125000J0D01*
G01*
X186325000Y-95675000D01*
G75*
G02*
X186200000Y-95550000I0J125000D01*
G01*
G37*
G36*
G01*
X186200000Y-96200000D02*
X186200000Y-95950000D01*
G75*
G02*
X186325000Y-95825000I125000J0D01*
G01*
X187925000Y-95825000D01*
G75*
G02*
X188050000Y-95950000I0J-125000D01*
G01*
X188050000Y-96200000D01*
G75*
G02*
X187925000Y-96325000I-125000J0D01*
G01*
X186325000Y-96325000D01*
G75*
G02*
X186200000Y-96200000I0J125000D01*
G01*
G37*
G36*
G01*
X186200000Y-96850000D02*
X186200000Y-96600000D01*
G75*
G02*
X186325000Y-96475000I125000J0D01*
G01*
X187925000Y-96475000D01*
G75*
G02*
X188050000Y-96600000I0J-125000D01*
G01*
X188050000Y-96850000D01*
G75*
G02*
X187925000Y-96975000I-125000J0D01*
G01*
X186325000Y-96975000D01*
G75*
G02*
X186200000Y-96850000I0J125000D01*
G01*
G37*
G36*
G01*
X186200000Y-97500000D02*
X186200000Y-97250000D01*
G75*
G02*
X186325000Y-97125000I125000J0D01*
G01*
X187925000Y-97125000D01*
G75*
G02*
X188050000Y-97250000I0J-125000D01*
G01*
X188050000Y-97500000D01*
G75*
G02*
X187925000Y-97625000I-125000J0D01*
G01*
X186325000Y-97625000D01*
G75*
G02*
X186200000Y-97500000I0J125000D01*
G01*
G37*
G36*
G01*
X186200000Y-98150000D02*
X186200000Y-97900000D01*
G75*
G02*
X186325000Y-97775000I125000J0D01*
G01*
X187925000Y-97775000D01*
G75*
G02*
X188050000Y-97900000I0J-125000D01*
G01*
X188050000Y-98150000D01*
G75*
G02*
X187925000Y-98275000I-125000J0D01*
G01*
X186325000Y-98275000D01*
G75*
G02*
X186200000Y-98150000I0J125000D01*
G01*
G37*
G36*
G01*
X186200000Y-98800000D02*
X186200000Y-98550000D01*
G75*
G02*
X186325000Y-98425000I125000J0D01*
G01*
X187925000Y-98425000D01*
G75*
G02*
X188050000Y-98550000I0J-125000D01*
G01*
X188050000Y-98800000D01*
G75*
G02*
X187925000Y-98925000I-125000J0D01*
G01*
X186325000Y-98925000D01*
G75*
G02*
X186200000Y-98800000I0J125000D01*
G01*
G37*
G36*
G01*
X186200000Y-99450000D02*
X186200000Y-99200000D01*
G75*
G02*
X186325000Y-99075000I125000J0D01*
G01*
X187925000Y-99075000D01*
G75*
G02*
X188050000Y-99200000I0J-125000D01*
G01*
X188050000Y-99450000D01*
G75*
G02*
X187925000Y-99575000I-125000J0D01*
G01*
X186325000Y-99575000D01*
G75*
G02*
X186200000Y-99450000I0J125000D01*
G01*
G37*
G36*
G01*
X186200000Y-100100000D02*
X186200000Y-99850000D01*
G75*
G02*
X186325000Y-99725000I125000J0D01*
G01*
X187925000Y-99725000D01*
G75*
G02*
X188050000Y-99850000I0J-125000D01*
G01*
X188050000Y-100100000D01*
G75*
G02*
X187925000Y-100225000I-125000J0D01*
G01*
X186325000Y-100225000D01*
G75*
G02*
X186200000Y-100100000I0J125000D01*
G01*
G37*
G36*
G01*
X186200000Y-100750000D02*
X186200000Y-100500000D01*
G75*
G02*
X186325000Y-100375000I125000J0D01*
G01*
X187925000Y-100375000D01*
G75*
G02*
X188050000Y-100500000I0J-125000D01*
G01*
X188050000Y-100750000D01*
G75*
G02*
X187925000Y-100875000I-125000J0D01*
G01*
X186325000Y-100875000D01*
G75*
G02*
X186200000Y-100750000I0J125000D01*
G01*
G37*
G36*
G01*
X186200000Y-101400000D02*
X186200000Y-101150000D01*
G75*
G02*
X186325000Y-101025000I125000J0D01*
G01*
X187925000Y-101025000D01*
G75*
G02*
X188050000Y-101150000I0J-125000D01*
G01*
X188050000Y-101400000D01*
G75*
G02*
X187925000Y-101525000I-125000J0D01*
G01*
X186325000Y-101525000D01*
G75*
G02*
X186200000Y-101400000I0J125000D01*
G01*
G37*
G36*
G01*
X186200000Y-102050000D02*
X186200000Y-101800000D01*
G75*
G02*
X186325000Y-101675000I125000J0D01*
G01*
X187925000Y-101675000D01*
G75*
G02*
X188050000Y-101800000I0J-125000D01*
G01*
X188050000Y-102050000D01*
G75*
G02*
X187925000Y-102175000I-125000J0D01*
G01*
X186325000Y-102175000D01*
G75*
G02*
X186200000Y-102050000I0J125000D01*
G01*
G37*
G36*
G01*
X186200000Y-102700000D02*
X186200000Y-102450000D01*
G75*
G02*
X186325000Y-102325000I125000J0D01*
G01*
X187925000Y-102325000D01*
G75*
G02*
X188050000Y-102450000I0J-125000D01*
G01*
X188050000Y-102700000D01*
G75*
G02*
X187925000Y-102825000I-125000J0D01*
G01*
X186325000Y-102825000D01*
G75*
G02*
X186200000Y-102700000I0J125000D01*
G01*
G37*
G36*
G01*
X186200000Y-103350000D02*
X186200000Y-103100000D01*
G75*
G02*
X186325000Y-102975000I125000J0D01*
G01*
X187925000Y-102975000D01*
G75*
G02*
X188050000Y-103100000I0J-125000D01*
G01*
X188050000Y-103350000D01*
G75*
G02*
X187925000Y-103475000I-125000J0D01*
G01*
X186325000Y-103475000D01*
G75*
G02*
X186200000Y-103350000I0J125000D01*
G01*
G37*
G36*
G01*
X186200000Y-104000000D02*
X186200000Y-103750000D01*
G75*
G02*
X186325000Y-103625000I125000J0D01*
G01*
X187925000Y-103625000D01*
G75*
G02*
X188050000Y-103750000I0J-125000D01*
G01*
X188050000Y-104000000D01*
G75*
G02*
X187925000Y-104125000I-125000J0D01*
G01*
X186325000Y-104125000D01*
G75*
G02*
X186200000Y-104000000I0J125000D01*
G01*
G37*
G36*
G01*
X186200000Y-104650000D02*
X186200000Y-104400000D01*
G75*
G02*
X186325000Y-104275000I125000J0D01*
G01*
X187925000Y-104275000D01*
G75*
G02*
X188050000Y-104400000I0J-125000D01*
G01*
X188050000Y-104650000D01*
G75*
G02*
X187925000Y-104775000I-125000J0D01*
G01*
X186325000Y-104775000D01*
G75*
G02*
X186200000Y-104650000I0J125000D01*
G01*
G37*
G36*
G01*
X186200000Y-105300000D02*
X186200000Y-105050000D01*
G75*
G02*
X186325000Y-104925000I125000J0D01*
G01*
X187925000Y-104925000D01*
G75*
G02*
X188050000Y-105050000I0J-125000D01*
G01*
X188050000Y-105300000D01*
G75*
G02*
X187925000Y-105425000I-125000J0D01*
G01*
X186325000Y-105425000D01*
G75*
G02*
X186200000Y-105300000I0J125000D01*
G01*
G37*
G36*
G01*
X186200000Y-105950000D02*
X186200000Y-105700000D01*
G75*
G02*
X186325000Y-105575000I125000J0D01*
G01*
X187925000Y-105575000D01*
G75*
G02*
X188050000Y-105700000I0J-125000D01*
G01*
X188050000Y-105950000D01*
G75*
G02*
X187925000Y-106075000I-125000J0D01*
G01*
X186325000Y-106075000D01*
G75*
G02*
X186200000Y-105950000I0J125000D01*
G01*
G37*
G36*
G01*
X186200000Y-106600000D02*
X186200000Y-106350000D01*
G75*
G02*
X186325000Y-106225000I125000J0D01*
G01*
X187925000Y-106225000D01*
G75*
G02*
X188050000Y-106350000I0J-125000D01*
G01*
X188050000Y-106600000D01*
G75*
G02*
X187925000Y-106725000I-125000J0D01*
G01*
X186325000Y-106725000D01*
G75*
G02*
X186200000Y-106600000I0J125000D01*
G01*
G37*
G36*
G01*
X186200000Y-107250000D02*
X186200000Y-107000000D01*
G75*
G02*
X186325000Y-106875000I125000J0D01*
G01*
X187925000Y-106875000D01*
G75*
G02*
X188050000Y-107000000I0J-125000D01*
G01*
X188050000Y-107250000D01*
G75*
G02*
X187925000Y-107375000I-125000J0D01*
G01*
X186325000Y-107375000D01*
G75*
G02*
X186200000Y-107250000I0J125000D01*
G01*
G37*
G36*
G01*
X186200000Y-107900000D02*
X186200000Y-107650000D01*
G75*
G02*
X186325000Y-107525000I125000J0D01*
G01*
X187925000Y-107525000D01*
G75*
G02*
X188050000Y-107650000I0J-125000D01*
G01*
X188050000Y-107900000D01*
G75*
G02*
X187925000Y-108025000I-125000J0D01*
G01*
X186325000Y-108025000D01*
G75*
G02*
X186200000Y-107900000I0J125000D01*
G01*
G37*
G36*
G01*
X186200000Y-108550000D02*
X186200000Y-108300000D01*
G75*
G02*
X186325000Y-108175000I125000J0D01*
G01*
X187925000Y-108175000D01*
G75*
G02*
X188050000Y-108300000I0J-125000D01*
G01*
X188050000Y-108550000D01*
G75*
G02*
X187925000Y-108675000I-125000J0D01*
G01*
X186325000Y-108675000D01*
G75*
G02*
X186200000Y-108550000I0J125000D01*
G01*
G37*
G36*
G01*
X184925000Y-110925000D02*
X184925000Y-109325000D01*
G75*
G02*
X185050000Y-109200000I125000J0D01*
G01*
X185300000Y-109200000D01*
G75*
G02*
X185425000Y-109325000I0J-125000D01*
G01*
X185425000Y-110925000D01*
G75*
G02*
X185300000Y-111050000I-125000J0D01*
G01*
X185050000Y-111050000D01*
G75*
G02*
X184925000Y-110925000I0J125000D01*
G01*
G37*
G36*
G01*
X184275000Y-110925000D02*
X184275000Y-109325000D01*
G75*
G02*
X184400000Y-109200000I125000J0D01*
G01*
X184650000Y-109200000D01*
G75*
G02*
X184775000Y-109325000I0J-125000D01*
G01*
X184775000Y-110925000D01*
G75*
G02*
X184650000Y-111050000I-125000J0D01*
G01*
X184400000Y-111050000D01*
G75*
G02*
X184275000Y-110925000I0J125000D01*
G01*
G37*
G36*
G01*
X183625000Y-110925000D02*
X183625000Y-109325000D01*
G75*
G02*
X183750000Y-109200000I125000J0D01*
G01*
X184000000Y-109200000D01*
G75*
G02*
X184125000Y-109325000I0J-125000D01*
G01*
X184125000Y-110925000D01*
G75*
G02*
X184000000Y-111050000I-125000J0D01*
G01*
X183750000Y-111050000D01*
G75*
G02*
X183625000Y-110925000I0J125000D01*
G01*
G37*
G36*
G01*
X182975000Y-110925000D02*
X182975000Y-109325000D01*
G75*
G02*
X183100000Y-109200000I125000J0D01*
G01*
X183350000Y-109200000D01*
G75*
G02*
X183475000Y-109325000I0J-125000D01*
G01*
X183475000Y-110925000D01*
G75*
G02*
X183350000Y-111050000I-125000J0D01*
G01*
X183100000Y-111050000D01*
G75*
G02*
X182975000Y-110925000I0J125000D01*
G01*
G37*
G36*
G01*
X182325000Y-110925000D02*
X182325000Y-109325000D01*
G75*
G02*
X182450000Y-109200000I125000J0D01*
G01*
X182700000Y-109200000D01*
G75*
G02*
X182825000Y-109325000I0J-125000D01*
G01*
X182825000Y-110925000D01*
G75*
G02*
X182700000Y-111050000I-125000J0D01*
G01*
X182450000Y-111050000D01*
G75*
G02*
X182325000Y-110925000I0J125000D01*
G01*
G37*
G36*
G01*
X181675000Y-110925000D02*
X181675000Y-109325000D01*
G75*
G02*
X181800000Y-109200000I125000J0D01*
G01*
X182050000Y-109200000D01*
G75*
G02*
X182175000Y-109325000I0J-125000D01*
G01*
X182175000Y-110925000D01*
G75*
G02*
X182050000Y-111050000I-125000J0D01*
G01*
X181800000Y-111050000D01*
G75*
G02*
X181675000Y-110925000I0J125000D01*
G01*
G37*
G36*
G01*
X181025000Y-110925000D02*
X181025000Y-109325000D01*
G75*
G02*
X181150000Y-109200000I125000J0D01*
G01*
X181400000Y-109200000D01*
G75*
G02*
X181525000Y-109325000I0J-125000D01*
G01*
X181525000Y-110925000D01*
G75*
G02*
X181400000Y-111050000I-125000J0D01*
G01*
X181150000Y-111050000D01*
G75*
G02*
X181025000Y-110925000I0J125000D01*
G01*
G37*
G36*
G01*
X180375000Y-110925000D02*
X180375000Y-109325000D01*
G75*
G02*
X180500000Y-109200000I125000J0D01*
G01*
X180750000Y-109200000D01*
G75*
G02*
X180875000Y-109325000I0J-125000D01*
G01*
X180875000Y-110925000D01*
G75*
G02*
X180750000Y-111050000I-125000J0D01*
G01*
X180500000Y-111050000D01*
G75*
G02*
X180375000Y-110925000I0J125000D01*
G01*
G37*
G36*
G01*
X179725000Y-110925000D02*
X179725000Y-109325000D01*
G75*
G02*
X179850000Y-109200000I125000J0D01*
G01*
X180100000Y-109200000D01*
G75*
G02*
X180225000Y-109325000I0J-125000D01*
G01*
X180225000Y-110925000D01*
G75*
G02*
X180100000Y-111050000I-125000J0D01*
G01*
X179850000Y-111050000D01*
G75*
G02*
X179725000Y-110925000I0J125000D01*
G01*
G37*
G36*
G01*
X179075000Y-110925000D02*
X179075000Y-109325000D01*
G75*
G02*
X179200000Y-109200000I125000J0D01*
G01*
X179450000Y-109200000D01*
G75*
G02*
X179575000Y-109325000I0J-125000D01*
G01*
X179575000Y-110925000D01*
G75*
G02*
X179450000Y-111050000I-125000J0D01*
G01*
X179200000Y-111050000D01*
G75*
G02*
X179075000Y-110925000I0J125000D01*
G01*
G37*
G36*
G01*
X178425000Y-110925000D02*
X178425000Y-109325000D01*
G75*
G02*
X178550000Y-109200000I125000J0D01*
G01*
X178800000Y-109200000D01*
G75*
G02*
X178925000Y-109325000I0J-125000D01*
G01*
X178925000Y-110925000D01*
G75*
G02*
X178800000Y-111050000I-125000J0D01*
G01*
X178550000Y-111050000D01*
G75*
G02*
X178425000Y-110925000I0J125000D01*
G01*
G37*
G36*
G01*
X177775000Y-110925000D02*
X177775000Y-109325000D01*
G75*
G02*
X177900000Y-109200000I125000J0D01*
G01*
X178150000Y-109200000D01*
G75*
G02*
X178275000Y-109325000I0J-125000D01*
G01*
X178275000Y-110925000D01*
G75*
G02*
X178150000Y-111050000I-125000J0D01*
G01*
X177900000Y-111050000D01*
G75*
G02*
X177775000Y-110925000I0J125000D01*
G01*
G37*
G36*
G01*
X177125000Y-110925000D02*
X177125000Y-109325000D01*
G75*
G02*
X177250000Y-109200000I125000J0D01*
G01*
X177500000Y-109200000D01*
G75*
G02*
X177625000Y-109325000I0J-125000D01*
G01*
X177625000Y-110925000D01*
G75*
G02*
X177500000Y-111050000I-125000J0D01*
G01*
X177250000Y-111050000D01*
G75*
G02*
X177125000Y-110925000I0J125000D01*
G01*
G37*
G36*
G01*
X176475000Y-110925000D02*
X176475000Y-109325000D01*
G75*
G02*
X176600000Y-109200000I125000J0D01*
G01*
X176850000Y-109200000D01*
G75*
G02*
X176975000Y-109325000I0J-125000D01*
G01*
X176975000Y-110925000D01*
G75*
G02*
X176850000Y-111050000I-125000J0D01*
G01*
X176600000Y-111050000D01*
G75*
G02*
X176475000Y-110925000I0J125000D01*
G01*
G37*
G36*
G01*
X175825000Y-110925000D02*
X175825000Y-109325000D01*
G75*
G02*
X175950000Y-109200000I125000J0D01*
G01*
X176200000Y-109200000D01*
G75*
G02*
X176325000Y-109325000I0J-125000D01*
G01*
X176325000Y-110925000D01*
G75*
G02*
X176200000Y-111050000I-125000J0D01*
G01*
X175950000Y-111050000D01*
G75*
G02*
X175825000Y-110925000I0J125000D01*
G01*
G37*
G36*
G01*
X175175000Y-110925000D02*
X175175000Y-109325000D01*
G75*
G02*
X175300000Y-109200000I125000J0D01*
G01*
X175550000Y-109200000D01*
G75*
G02*
X175675000Y-109325000I0J-125000D01*
G01*
X175675000Y-110925000D01*
G75*
G02*
X175550000Y-111050000I-125000J0D01*
G01*
X175300000Y-111050000D01*
G75*
G02*
X175175000Y-110925000I0J125000D01*
G01*
G37*
G36*
G01*
X174525000Y-110925000D02*
X174525000Y-109325000D01*
G75*
G02*
X174650000Y-109200000I125000J0D01*
G01*
X174900000Y-109200000D01*
G75*
G02*
X175025000Y-109325000I0J-125000D01*
G01*
X175025000Y-110925000D01*
G75*
G02*
X174900000Y-111050000I-125000J0D01*
G01*
X174650000Y-111050000D01*
G75*
G02*
X174525000Y-110925000I0J125000D01*
G01*
G37*
G36*
G01*
X173875000Y-110925000D02*
X173875000Y-109325000D01*
G75*
G02*
X174000000Y-109200000I125000J0D01*
G01*
X174250000Y-109200000D01*
G75*
G02*
X174375000Y-109325000I0J-125000D01*
G01*
X174375000Y-110925000D01*
G75*
G02*
X174250000Y-111050000I-125000J0D01*
G01*
X174000000Y-111050000D01*
G75*
G02*
X173875000Y-110925000I0J125000D01*
G01*
G37*
G36*
G01*
X173225000Y-110925000D02*
X173225000Y-109325000D01*
G75*
G02*
X173350000Y-109200000I125000J0D01*
G01*
X173600000Y-109200000D01*
G75*
G02*
X173725000Y-109325000I0J-125000D01*
G01*
X173725000Y-110925000D01*
G75*
G02*
X173600000Y-111050000I-125000J0D01*
G01*
X173350000Y-111050000D01*
G75*
G02*
X173225000Y-110925000I0J125000D01*
G01*
G37*
G36*
G01*
X172575000Y-110925000D02*
X172575000Y-109325000D01*
G75*
G02*
X172700000Y-109200000I125000J0D01*
G01*
X172950000Y-109200000D01*
G75*
G02*
X173075000Y-109325000I0J-125000D01*
G01*
X173075000Y-110925000D01*
G75*
G02*
X172950000Y-111050000I-125000J0D01*
G01*
X172700000Y-111050000D01*
G75*
G02*
X172575000Y-110925000I0J125000D01*
G01*
G37*
G36*
G01*
X169950000Y-108550000D02*
X169950000Y-108300000D01*
G75*
G02*
X170075000Y-108175000I125000J0D01*
G01*
X171675000Y-108175000D01*
G75*
G02*
X171800000Y-108300000I0J-125000D01*
G01*
X171800000Y-108550000D01*
G75*
G02*
X171675000Y-108675000I-125000J0D01*
G01*
X170075000Y-108675000D01*
G75*
G02*
X169950000Y-108550000I0J125000D01*
G01*
G37*
G36*
G01*
X169950000Y-107900000D02*
X169950000Y-107650000D01*
G75*
G02*
X170075000Y-107525000I125000J0D01*
G01*
X171675000Y-107525000D01*
G75*
G02*
X171800000Y-107650000I0J-125000D01*
G01*
X171800000Y-107900000D01*
G75*
G02*
X171675000Y-108025000I-125000J0D01*
G01*
X170075000Y-108025000D01*
G75*
G02*
X169950000Y-107900000I0J125000D01*
G01*
G37*
G36*
G01*
X169950000Y-107250000D02*
X169950000Y-107000000D01*
G75*
G02*
X170075000Y-106875000I125000J0D01*
G01*
X171675000Y-106875000D01*
G75*
G02*
X171800000Y-107000000I0J-125000D01*
G01*
X171800000Y-107250000D01*
G75*
G02*
X171675000Y-107375000I-125000J0D01*
G01*
X170075000Y-107375000D01*
G75*
G02*
X169950000Y-107250000I0J125000D01*
G01*
G37*
G36*
G01*
X169950000Y-106600000D02*
X169950000Y-106350000D01*
G75*
G02*
X170075000Y-106225000I125000J0D01*
G01*
X171675000Y-106225000D01*
G75*
G02*
X171800000Y-106350000I0J-125000D01*
G01*
X171800000Y-106600000D01*
G75*
G02*
X171675000Y-106725000I-125000J0D01*
G01*
X170075000Y-106725000D01*
G75*
G02*
X169950000Y-106600000I0J125000D01*
G01*
G37*
G36*
G01*
X169950000Y-105950000D02*
X169950000Y-105700000D01*
G75*
G02*
X170075000Y-105575000I125000J0D01*
G01*
X171675000Y-105575000D01*
G75*
G02*
X171800000Y-105700000I0J-125000D01*
G01*
X171800000Y-105950000D01*
G75*
G02*
X171675000Y-106075000I-125000J0D01*
G01*
X170075000Y-106075000D01*
G75*
G02*
X169950000Y-105950000I0J125000D01*
G01*
G37*
G36*
G01*
X169950000Y-105300000D02*
X169950000Y-105050000D01*
G75*
G02*
X170075000Y-104925000I125000J0D01*
G01*
X171675000Y-104925000D01*
G75*
G02*
X171800000Y-105050000I0J-125000D01*
G01*
X171800000Y-105300000D01*
G75*
G02*
X171675000Y-105425000I-125000J0D01*
G01*
X170075000Y-105425000D01*
G75*
G02*
X169950000Y-105300000I0J125000D01*
G01*
G37*
G36*
G01*
X169950000Y-104650000D02*
X169950000Y-104400000D01*
G75*
G02*
X170075000Y-104275000I125000J0D01*
G01*
X171675000Y-104275000D01*
G75*
G02*
X171800000Y-104400000I0J-125000D01*
G01*
X171800000Y-104650000D01*
G75*
G02*
X171675000Y-104775000I-125000J0D01*
G01*
X170075000Y-104775000D01*
G75*
G02*
X169950000Y-104650000I0J125000D01*
G01*
G37*
G36*
G01*
X169950000Y-104000000D02*
X169950000Y-103750000D01*
G75*
G02*
X170075000Y-103625000I125000J0D01*
G01*
X171675000Y-103625000D01*
G75*
G02*
X171800000Y-103750000I0J-125000D01*
G01*
X171800000Y-104000000D01*
G75*
G02*
X171675000Y-104125000I-125000J0D01*
G01*
X170075000Y-104125000D01*
G75*
G02*
X169950000Y-104000000I0J125000D01*
G01*
G37*
G36*
G01*
X169950000Y-103350000D02*
X169950000Y-103100000D01*
G75*
G02*
X170075000Y-102975000I125000J0D01*
G01*
X171675000Y-102975000D01*
G75*
G02*
X171800000Y-103100000I0J-125000D01*
G01*
X171800000Y-103350000D01*
G75*
G02*
X171675000Y-103475000I-125000J0D01*
G01*
X170075000Y-103475000D01*
G75*
G02*
X169950000Y-103350000I0J125000D01*
G01*
G37*
G36*
G01*
X169950000Y-102700000D02*
X169950000Y-102450000D01*
G75*
G02*
X170075000Y-102325000I125000J0D01*
G01*
X171675000Y-102325000D01*
G75*
G02*
X171800000Y-102450000I0J-125000D01*
G01*
X171800000Y-102700000D01*
G75*
G02*
X171675000Y-102825000I-125000J0D01*
G01*
X170075000Y-102825000D01*
G75*
G02*
X169950000Y-102700000I0J125000D01*
G01*
G37*
G36*
G01*
X169950000Y-102050000D02*
X169950000Y-101800000D01*
G75*
G02*
X170075000Y-101675000I125000J0D01*
G01*
X171675000Y-101675000D01*
G75*
G02*
X171800000Y-101800000I0J-125000D01*
G01*
X171800000Y-102050000D01*
G75*
G02*
X171675000Y-102175000I-125000J0D01*
G01*
X170075000Y-102175000D01*
G75*
G02*
X169950000Y-102050000I0J125000D01*
G01*
G37*
G36*
G01*
X169950000Y-101400000D02*
X169950000Y-101150000D01*
G75*
G02*
X170075000Y-101025000I125000J0D01*
G01*
X171675000Y-101025000D01*
G75*
G02*
X171800000Y-101150000I0J-125000D01*
G01*
X171800000Y-101400000D01*
G75*
G02*
X171675000Y-101525000I-125000J0D01*
G01*
X170075000Y-101525000D01*
G75*
G02*
X169950000Y-101400000I0J125000D01*
G01*
G37*
G36*
G01*
X169950000Y-100750000D02*
X169950000Y-100500000D01*
G75*
G02*
X170075000Y-100375000I125000J0D01*
G01*
X171675000Y-100375000D01*
G75*
G02*
X171800000Y-100500000I0J-125000D01*
G01*
X171800000Y-100750000D01*
G75*
G02*
X171675000Y-100875000I-125000J0D01*
G01*
X170075000Y-100875000D01*
G75*
G02*
X169950000Y-100750000I0J125000D01*
G01*
G37*
G36*
G01*
X169950000Y-100100000D02*
X169950000Y-99850000D01*
G75*
G02*
X170075000Y-99725000I125000J0D01*
G01*
X171675000Y-99725000D01*
G75*
G02*
X171800000Y-99850000I0J-125000D01*
G01*
X171800000Y-100100000D01*
G75*
G02*
X171675000Y-100225000I-125000J0D01*
G01*
X170075000Y-100225000D01*
G75*
G02*
X169950000Y-100100000I0J125000D01*
G01*
G37*
G36*
G01*
X169950000Y-99450000D02*
X169950000Y-99200000D01*
G75*
G02*
X170075000Y-99075000I125000J0D01*
G01*
X171675000Y-99075000D01*
G75*
G02*
X171800000Y-99200000I0J-125000D01*
G01*
X171800000Y-99450000D01*
G75*
G02*
X171675000Y-99575000I-125000J0D01*
G01*
X170075000Y-99575000D01*
G75*
G02*
X169950000Y-99450000I0J125000D01*
G01*
G37*
G36*
G01*
X169950000Y-98800000D02*
X169950000Y-98550000D01*
G75*
G02*
X170075000Y-98425000I125000J0D01*
G01*
X171675000Y-98425000D01*
G75*
G02*
X171800000Y-98550000I0J-125000D01*
G01*
X171800000Y-98800000D01*
G75*
G02*
X171675000Y-98925000I-125000J0D01*
G01*
X170075000Y-98925000D01*
G75*
G02*
X169950000Y-98800000I0J125000D01*
G01*
G37*
G36*
G01*
X169950000Y-98150000D02*
X169950000Y-97900000D01*
G75*
G02*
X170075000Y-97775000I125000J0D01*
G01*
X171675000Y-97775000D01*
G75*
G02*
X171800000Y-97900000I0J-125000D01*
G01*
X171800000Y-98150000D01*
G75*
G02*
X171675000Y-98275000I-125000J0D01*
G01*
X170075000Y-98275000D01*
G75*
G02*
X169950000Y-98150000I0J125000D01*
G01*
G37*
G36*
G01*
X169950000Y-97500000D02*
X169950000Y-97250000D01*
G75*
G02*
X170075000Y-97125000I125000J0D01*
G01*
X171675000Y-97125000D01*
G75*
G02*
X171800000Y-97250000I0J-125000D01*
G01*
X171800000Y-97500000D01*
G75*
G02*
X171675000Y-97625000I-125000J0D01*
G01*
X170075000Y-97625000D01*
G75*
G02*
X169950000Y-97500000I0J125000D01*
G01*
G37*
G36*
G01*
X169950000Y-96850000D02*
X169950000Y-96600000D01*
G75*
G02*
X170075000Y-96475000I125000J0D01*
G01*
X171675000Y-96475000D01*
G75*
G02*
X171800000Y-96600000I0J-125000D01*
G01*
X171800000Y-96850000D01*
G75*
G02*
X171675000Y-96975000I-125000J0D01*
G01*
X170075000Y-96975000D01*
G75*
G02*
X169950000Y-96850000I0J125000D01*
G01*
G37*
G36*
G01*
X169950000Y-96200000D02*
X169950000Y-95950000D01*
G75*
G02*
X170075000Y-95825000I125000J0D01*
G01*
X171675000Y-95825000D01*
G75*
G02*
X171800000Y-95950000I0J-125000D01*
G01*
X171800000Y-96200000D01*
G75*
G02*
X171675000Y-96325000I-125000J0D01*
G01*
X170075000Y-96325000D01*
G75*
G02*
X169950000Y-96200000I0J125000D01*
G01*
G37*
G36*
G01*
X169950000Y-95550000D02*
X169950000Y-95300000D01*
G75*
G02*
X170075000Y-95175000I125000J0D01*
G01*
X171675000Y-95175000D01*
G75*
G02*
X171800000Y-95300000I0J-125000D01*
G01*
X171800000Y-95550000D01*
G75*
G02*
X171675000Y-95675000I-125000J0D01*
G01*
X170075000Y-95675000D01*
G75*
G02*
X169950000Y-95550000I0J125000D01*
G01*
G37*
G36*
G01*
X169950000Y-94900000D02*
X169950000Y-94650000D01*
G75*
G02*
X170075000Y-94525000I125000J0D01*
G01*
X171675000Y-94525000D01*
G75*
G02*
X171800000Y-94650000I0J-125000D01*
G01*
X171800000Y-94900000D01*
G75*
G02*
X171675000Y-95025000I-125000J0D01*
G01*
X170075000Y-95025000D01*
G75*
G02*
X169950000Y-94900000I0J125000D01*
G01*
G37*
G36*
G01*
X169950000Y-94250000D02*
X169950000Y-94000000D01*
G75*
G02*
X170075000Y-93875000I125000J0D01*
G01*
X171675000Y-93875000D01*
G75*
G02*
X171800000Y-94000000I0J-125000D01*
G01*
X171800000Y-94250000D01*
G75*
G02*
X171675000Y-94375000I-125000J0D01*
G01*
X170075000Y-94375000D01*
G75*
G02*
X169950000Y-94250000I0J125000D01*
G01*
G37*
G36*
G01*
X169950000Y-93600000D02*
X169950000Y-93350000D01*
G75*
G02*
X170075000Y-93225000I125000J0D01*
G01*
X171675000Y-93225000D01*
G75*
G02*
X171800000Y-93350000I0J-125000D01*
G01*
X171800000Y-93600000D01*
G75*
G02*
X171675000Y-93725000I-125000J0D01*
G01*
X170075000Y-93725000D01*
G75*
G02*
X169950000Y-93600000I0J125000D01*
G01*
G37*
G36*
G01*
X169950000Y-92950000D02*
X169950000Y-92700000D01*
G75*
G02*
X170075000Y-92575000I125000J0D01*
G01*
X171675000Y-92575000D01*
G75*
G02*
X171800000Y-92700000I0J-125000D01*
G01*
X171800000Y-92950000D01*
G75*
G02*
X171675000Y-93075000I-125000J0D01*
G01*
X170075000Y-93075000D01*
G75*
G02*
X169950000Y-92950000I0J125000D01*
G01*
G37*
G36*
G01*
X169950000Y-92300000D02*
X169950000Y-92050000D01*
G75*
G02*
X170075000Y-91925000I125000J0D01*
G01*
X171675000Y-91925000D01*
G75*
G02*
X171800000Y-92050000I0J-125000D01*
G01*
X171800000Y-92300000D01*
G75*
G02*
X171675000Y-92425000I-125000J0D01*
G01*
X170075000Y-92425000D01*
G75*
G02*
X169950000Y-92300000I0J125000D01*
G01*
G37*
G36*
G01*
X169950000Y-91650000D02*
X169950000Y-91400000D01*
G75*
G02*
X170075000Y-91275000I125000J0D01*
G01*
X171675000Y-91275000D01*
G75*
G02*
X171800000Y-91400000I0J-125000D01*
G01*
X171800000Y-91650000D01*
G75*
G02*
X171675000Y-91775000I-125000J0D01*
G01*
X170075000Y-91775000D01*
G75*
G02*
X169950000Y-91650000I0J125000D01*
G01*
G37*
G36*
G01*
X169950000Y-91000000D02*
X169950000Y-90750000D01*
G75*
G02*
X170075000Y-90625000I125000J0D01*
G01*
X171675000Y-90625000D01*
G75*
G02*
X171800000Y-90750000I0J-125000D01*
G01*
X171800000Y-91000000D01*
G75*
G02*
X171675000Y-91125000I-125000J0D01*
G01*
X170075000Y-91125000D01*
G75*
G02*
X169950000Y-91000000I0J125000D01*
G01*
G37*
G36*
G01*
X169950000Y-90350000D02*
X169950000Y-90100000D01*
G75*
G02*
X170075000Y-89975000I125000J0D01*
G01*
X171675000Y-89975000D01*
G75*
G02*
X171800000Y-90100000I0J-125000D01*
G01*
X171800000Y-90350000D01*
G75*
G02*
X171675000Y-90475000I-125000J0D01*
G01*
X170075000Y-90475000D01*
G75*
G02*
X169950000Y-90350000I0J125000D01*
G01*
G37*
G36*
G01*
X169950000Y-89700000D02*
X169950000Y-89450000D01*
G75*
G02*
X170075000Y-89325000I125000J0D01*
G01*
X171675000Y-89325000D01*
G75*
G02*
X171800000Y-89450000I0J-125000D01*
G01*
X171800000Y-89700000D01*
G75*
G02*
X171675000Y-89825000I-125000J0D01*
G01*
X170075000Y-89825000D01*
G75*
G02*
X169950000Y-89700000I0J125000D01*
G01*
G37*
%TD*%
D27*
%TO.C,U4*%
X168100000Y-121010000D03*
X166500000Y-118450000D03*
X168100000Y-118450000D03*
D28*
X168310000Y-119730000D03*
X166290000Y-119730000D03*
D27*
X166500000Y-121010000D03*
%TD*%
%TO.C,U1*%
G36*
G01*
X172800000Y-114525000D02*
X172800000Y-113150000D01*
G75*
G02*
X172900000Y-113050000I100000J0D01*
G01*
X173100000Y-113050000D01*
G75*
G02*
X173200000Y-113150000I0J-100000D01*
G01*
X173200000Y-114525000D01*
G75*
G02*
X173100000Y-114625000I-100000J0D01*
G01*
X172900000Y-114625000D01*
G75*
G02*
X172800000Y-114525000I0J100000D01*
G01*
G37*
G36*
G01*
X173300000Y-114525000D02*
X173300000Y-113150000D01*
G75*
G02*
X173400000Y-113050000I100000J0D01*
G01*
X173600000Y-113050000D01*
G75*
G02*
X173700000Y-113150000I0J-100000D01*
G01*
X173700000Y-114525000D01*
G75*
G02*
X173600000Y-114625000I-100000J0D01*
G01*
X173400000Y-114625000D01*
G75*
G02*
X173300000Y-114525000I0J100000D01*
G01*
G37*
G36*
G01*
X173800000Y-114525000D02*
X173800000Y-113150000D01*
G75*
G02*
X173900000Y-113050000I100000J0D01*
G01*
X174100000Y-113050000D01*
G75*
G02*
X174200000Y-113150000I0J-100000D01*
G01*
X174200000Y-114525000D01*
G75*
G02*
X174100000Y-114625000I-100000J0D01*
G01*
X173900000Y-114625000D01*
G75*
G02*
X173800000Y-114525000I0J100000D01*
G01*
G37*
G36*
G01*
X174300000Y-114525000D02*
X174300000Y-113150000D01*
G75*
G02*
X174400000Y-113050000I100000J0D01*
G01*
X174600000Y-113050000D01*
G75*
G02*
X174700000Y-113150000I0J-100000D01*
G01*
X174700000Y-114525000D01*
G75*
G02*
X174600000Y-114625000I-100000J0D01*
G01*
X174400000Y-114625000D01*
G75*
G02*
X174300000Y-114525000I0J100000D01*
G01*
G37*
G36*
G01*
X174800000Y-114525000D02*
X174800000Y-113150000D01*
G75*
G02*
X174900000Y-113050000I100000J0D01*
G01*
X175100000Y-113050000D01*
G75*
G02*
X175200000Y-113150000I0J-100000D01*
G01*
X175200000Y-114525000D01*
G75*
G02*
X175100000Y-114625000I-100000J0D01*
G01*
X174900000Y-114625000D01*
G75*
G02*
X174800000Y-114525000I0J100000D01*
G01*
G37*
G36*
G01*
X175300000Y-114525000D02*
X175300000Y-113150000D01*
G75*
G02*
X175400000Y-113050000I100000J0D01*
G01*
X175600000Y-113050000D01*
G75*
G02*
X175700000Y-113150000I0J-100000D01*
G01*
X175700000Y-114525000D01*
G75*
G02*
X175600000Y-114625000I-100000J0D01*
G01*
X175400000Y-114625000D01*
G75*
G02*
X175300000Y-114525000I0J100000D01*
G01*
G37*
G36*
G01*
X175800000Y-114525000D02*
X175800000Y-113150000D01*
G75*
G02*
X175900000Y-113050000I100000J0D01*
G01*
X176100000Y-113050000D01*
G75*
G02*
X176200000Y-113150000I0J-100000D01*
G01*
X176200000Y-114525000D01*
G75*
G02*
X176100000Y-114625000I-100000J0D01*
G01*
X175900000Y-114625000D01*
G75*
G02*
X175800000Y-114525000I0J100000D01*
G01*
G37*
G36*
G01*
X176300000Y-114525000D02*
X176300000Y-113150000D01*
G75*
G02*
X176400000Y-113050000I100000J0D01*
G01*
X176600000Y-113050000D01*
G75*
G02*
X176700000Y-113150000I0J-100000D01*
G01*
X176700000Y-114525000D01*
G75*
G02*
X176600000Y-114625000I-100000J0D01*
G01*
X176400000Y-114625000D01*
G75*
G02*
X176300000Y-114525000I0J100000D01*
G01*
G37*
G36*
G01*
X176800000Y-114525000D02*
X176800000Y-113150000D01*
G75*
G02*
X176900000Y-113050000I100000J0D01*
G01*
X177100000Y-113050000D01*
G75*
G02*
X177200000Y-113150000I0J-100000D01*
G01*
X177200000Y-114525000D01*
G75*
G02*
X177100000Y-114625000I-100000J0D01*
G01*
X176900000Y-114625000D01*
G75*
G02*
X176800000Y-114525000I0J100000D01*
G01*
G37*
G36*
G01*
X177300000Y-114525000D02*
X177300000Y-113150000D01*
G75*
G02*
X177400000Y-113050000I100000J0D01*
G01*
X177600000Y-113050000D01*
G75*
G02*
X177700000Y-113150000I0J-100000D01*
G01*
X177700000Y-114525000D01*
G75*
G02*
X177600000Y-114625000I-100000J0D01*
G01*
X177400000Y-114625000D01*
G75*
G02*
X177300000Y-114525000I0J100000D01*
G01*
G37*
G36*
G01*
X177800000Y-114525000D02*
X177800000Y-113150000D01*
G75*
G02*
X177900000Y-113050000I100000J0D01*
G01*
X178100000Y-113050000D01*
G75*
G02*
X178200000Y-113150000I0J-100000D01*
G01*
X178200000Y-114525000D01*
G75*
G02*
X178100000Y-114625000I-100000J0D01*
G01*
X177900000Y-114625000D01*
G75*
G02*
X177800000Y-114525000I0J100000D01*
G01*
G37*
G36*
G01*
X178300000Y-114525000D02*
X178300000Y-113150000D01*
G75*
G02*
X178400000Y-113050000I100000J0D01*
G01*
X178600000Y-113050000D01*
G75*
G02*
X178700000Y-113150000I0J-100000D01*
G01*
X178700000Y-114525000D01*
G75*
G02*
X178600000Y-114625000I-100000J0D01*
G01*
X178400000Y-114625000D01*
G75*
G02*
X178300000Y-114525000I0J100000D01*
G01*
G37*
G36*
G01*
X178800000Y-114525000D02*
X178800000Y-113150000D01*
G75*
G02*
X178900000Y-113050000I100000J0D01*
G01*
X179100000Y-113050000D01*
G75*
G02*
X179200000Y-113150000I0J-100000D01*
G01*
X179200000Y-114525000D01*
G75*
G02*
X179100000Y-114625000I-100000J0D01*
G01*
X178900000Y-114625000D01*
G75*
G02*
X178800000Y-114525000I0J100000D01*
G01*
G37*
G36*
G01*
X179300000Y-114525000D02*
X179300000Y-113150000D01*
G75*
G02*
X179400000Y-113050000I100000J0D01*
G01*
X179600000Y-113050000D01*
G75*
G02*
X179700000Y-113150000I0J-100000D01*
G01*
X179700000Y-114525000D01*
G75*
G02*
X179600000Y-114625000I-100000J0D01*
G01*
X179400000Y-114625000D01*
G75*
G02*
X179300000Y-114525000I0J100000D01*
G01*
G37*
G36*
G01*
X179800000Y-114525000D02*
X179800000Y-113150000D01*
G75*
G02*
X179900000Y-113050000I100000J0D01*
G01*
X180100000Y-113050000D01*
G75*
G02*
X180200000Y-113150000I0J-100000D01*
G01*
X180200000Y-114525000D01*
G75*
G02*
X180100000Y-114625000I-100000J0D01*
G01*
X179900000Y-114625000D01*
G75*
G02*
X179800000Y-114525000I0J100000D01*
G01*
G37*
G36*
G01*
X180300000Y-114525000D02*
X180300000Y-113150000D01*
G75*
G02*
X180400000Y-113050000I100000J0D01*
G01*
X180600000Y-113050000D01*
G75*
G02*
X180700000Y-113150000I0J-100000D01*
G01*
X180700000Y-114525000D01*
G75*
G02*
X180600000Y-114625000I-100000J0D01*
G01*
X180400000Y-114625000D01*
G75*
G02*
X180300000Y-114525000I0J100000D01*
G01*
G37*
G36*
G01*
X180800000Y-114525000D02*
X180800000Y-113150000D01*
G75*
G02*
X180900000Y-113050000I100000J0D01*
G01*
X181100000Y-113050000D01*
G75*
G02*
X181200000Y-113150000I0J-100000D01*
G01*
X181200000Y-114525000D01*
G75*
G02*
X181100000Y-114625000I-100000J0D01*
G01*
X180900000Y-114625000D01*
G75*
G02*
X180800000Y-114525000I0J100000D01*
G01*
G37*
G36*
G01*
X181300000Y-114525000D02*
X181300000Y-113150000D01*
G75*
G02*
X181400000Y-113050000I100000J0D01*
G01*
X181600000Y-113050000D01*
G75*
G02*
X181700000Y-113150000I0J-100000D01*
G01*
X181700000Y-114525000D01*
G75*
G02*
X181600000Y-114625000I-100000J0D01*
G01*
X181400000Y-114625000D01*
G75*
G02*
X181300000Y-114525000I0J100000D01*
G01*
G37*
G36*
G01*
X181800000Y-114525000D02*
X181800000Y-113150000D01*
G75*
G02*
X181900000Y-113050000I100000J0D01*
G01*
X182100000Y-113050000D01*
G75*
G02*
X182200000Y-113150000I0J-100000D01*
G01*
X182200000Y-114525000D01*
G75*
G02*
X182100000Y-114625000I-100000J0D01*
G01*
X181900000Y-114625000D01*
G75*
G02*
X181800000Y-114525000I0J100000D01*
G01*
G37*
G36*
G01*
X182300000Y-114525000D02*
X182300000Y-113150000D01*
G75*
G02*
X182400000Y-113050000I100000J0D01*
G01*
X182600000Y-113050000D01*
G75*
G02*
X182700000Y-113150000I0J-100000D01*
G01*
X182700000Y-114525000D01*
G75*
G02*
X182600000Y-114625000I-100000J0D01*
G01*
X182400000Y-114625000D01*
G75*
G02*
X182300000Y-114525000I0J100000D01*
G01*
G37*
G36*
G01*
X182800000Y-114525000D02*
X182800000Y-113150000D01*
G75*
G02*
X182900000Y-113050000I100000J0D01*
G01*
X183100000Y-113050000D01*
G75*
G02*
X183200000Y-113150000I0J-100000D01*
G01*
X183200000Y-114525000D01*
G75*
G02*
X183100000Y-114625000I-100000J0D01*
G01*
X182900000Y-114625000D01*
G75*
G02*
X182800000Y-114525000I0J100000D01*
G01*
G37*
G36*
G01*
X183300000Y-114525000D02*
X183300000Y-113150000D01*
G75*
G02*
X183400000Y-113050000I100000J0D01*
G01*
X183600000Y-113050000D01*
G75*
G02*
X183700000Y-113150000I0J-100000D01*
G01*
X183700000Y-114525000D01*
G75*
G02*
X183600000Y-114625000I-100000J0D01*
G01*
X183400000Y-114625000D01*
G75*
G02*
X183300000Y-114525000I0J100000D01*
G01*
G37*
G36*
G01*
X183800000Y-114525000D02*
X183800000Y-113150000D01*
G75*
G02*
X183900000Y-113050000I100000J0D01*
G01*
X184100000Y-113050000D01*
G75*
G02*
X184200000Y-113150000I0J-100000D01*
G01*
X184200000Y-114525000D01*
G75*
G02*
X184100000Y-114625000I-100000J0D01*
G01*
X183900000Y-114625000D01*
G75*
G02*
X183800000Y-114525000I0J100000D01*
G01*
G37*
G36*
G01*
X184300000Y-114525000D02*
X184300000Y-113150000D01*
G75*
G02*
X184400000Y-113050000I100000J0D01*
G01*
X184600000Y-113050000D01*
G75*
G02*
X184700000Y-113150000I0J-100000D01*
G01*
X184700000Y-114525000D01*
G75*
G02*
X184600000Y-114625000I-100000J0D01*
G01*
X184400000Y-114625000D01*
G75*
G02*
X184300000Y-114525000I0J100000D01*
G01*
G37*
G36*
G01*
X184800000Y-114525000D02*
X184800000Y-113150000D01*
G75*
G02*
X184900000Y-113050000I100000J0D01*
G01*
X185100000Y-113050000D01*
G75*
G02*
X185200000Y-113150000I0J-100000D01*
G01*
X185200000Y-114525000D01*
G75*
G02*
X185100000Y-114625000I-100000J0D01*
G01*
X184900000Y-114625000D01*
G75*
G02*
X184800000Y-114525000I0J100000D01*
G01*
G37*
G36*
G01*
X185875000Y-115600000D02*
X185875000Y-115400000D01*
G75*
G02*
X185975000Y-115300000I100000J0D01*
G01*
X187350000Y-115300000D01*
G75*
G02*
X187450000Y-115400000I0J-100000D01*
G01*
X187450000Y-115600000D01*
G75*
G02*
X187350000Y-115700000I-100000J0D01*
G01*
X185975000Y-115700000D01*
G75*
G02*
X185875000Y-115600000I0J100000D01*
G01*
G37*
G36*
G01*
X185875000Y-116100000D02*
X185875000Y-115900000D01*
G75*
G02*
X185975000Y-115800000I100000J0D01*
G01*
X187350000Y-115800000D01*
G75*
G02*
X187450000Y-115900000I0J-100000D01*
G01*
X187450000Y-116100000D01*
G75*
G02*
X187350000Y-116200000I-100000J0D01*
G01*
X185975000Y-116200000D01*
G75*
G02*
X185875000Y-116100000I0J100000D01*
G01*
G37*
G36*
G01*
X185875000Y-116600000D02*
X185875000Y-116400000D01*
G75*
G02*
X185975000Y-116300000I100000J0D01*
G01*
X187350000Y-116300000D01*
G75*
G02*
X187450000Y-116400000I0J-100000D01*
G01*
X187450000Y-116600000D01*
G75*
G02*
X187350000Y-116700000I-100000J0D01*
G01*
X185975000Y-116700000D01*
G75*
G02*
X185875000Y-116600000I0J100000D01*
G01*
G37*
G36*
G01*
X185875000Y-117100000D02*
X185875000Y-116900000D01*
G75*
G02*
X185975000Y-116800000I100000J0D01*
G01*
X187350000Y-116800000D01*
G75*
G02*
X187450000Y-116900000I0J-100000D01*
G01*
X187450000Y-117100000D01*
G75*
G02*
X187350000Y-117200000I-100000J0D01*
G01*
X185975000Y-117200000D01*
G75*
G02*
X185875000Y-117100000I0J100000D01*
G01*
G37*
G36*
G01*
X185875000Y-117600000D02*
X185875000Y-117400000D01*
G75*
G02*
X185975000Y-117300000I100000J0D01*
G01*
X187350000Y-117300000D01*
G75*
G02*
X187450000Y-117400000I0J-100000D01*
G01*
X187450000Y-117600000D01*
G75*
G02*
X187350000Y-117700000I-100000J0D01*
G01*
X185975000Y-117700000D01*
G75*
G02*
X185875000Y-117600000I0J100000D01*
G01*
G37*
G36*
G01*
X185875000Y-118100000D02*
X185875000Y-117900000D01*
G75*
G02*
X185975000Y-117800000I100000J0D01*
G01*
X187350000Y-117800000D01*
G75*
G02*
X187450000Y-117900000I0J-100000D01*
G01*
X187450000Y-118100000D01*
G75*
G02*
X187350000Y-118200000I-100000J0D01*
G01*
X185975000Y-118200000D01*
G75*
G02*
X185875000Y-118100000I0J100000D01*
G01*
G37*
G36*
G01*
X185875000Y-118600000D02*
X185875000Y-118400000D01*
G75*
G02*
X185975000Y-118300000I100000J0D01*
G01*
X187350000Y-118300000D01*
G75*
G02*
X187450000Y-118400000I0J-100000D01*
G01*
X187450000Y-118600000D01*
G75*
G02*
X187350000Y-118700000I-100000J0D01*
G01*
X185975000Y-118700000D01*
G75*
G02*
X185875000Y-118600000I0J100000D01*
G01*
G37*
G36*
G01*
X185875000Y-119100000D02*
X185875000Y-118900000D01*
G75*
G02*
X185975000Y-118800000I100000J0D01*
G01*
X187350000Y-118800000D01*
G75*
G02*
X187450000Y-118900000I0J-100000D01*
G01*
X187450000Y-119100000D01*
G75*
G02*
X187350000Y-119200000I-100000J0D01*
G01*
X185975000Y-119200000D01*
G75*
G02*
X185875000Y-119100000I0J100000D01*
G01*
G37*
G36*
G01*
X185875000Y-119600000D02*
X185875000Y-119400000D01*
G75*
G02*
X185975000Y-119300000I100000J0D01*
G01*
X187350000Y-119300000D01*
G75*
G02*
X187450000Y-119400000I0J-100000D01*
G01*
X187450000Y-119600000D01*
G75*
G02*
X187350000Y-119700000I-100000J0D01*
G01*
X185975000Y-119700000D01*
G75*
G02*
X185875000Y-119600000I0J100000D01*
G01*
G37*
G36*
G01*
X185875000Y-120100000D02*
X185875000Y-119900000D01*
G75*
G02*
X185975000Y-119800000I100000J0D01*
G01*
X187350000Y-119800000D01*
G75*
G02*
X187450000Y-119900000I0J-100000D01*
G01*
X187450000Y-120100000D01*
G75*
G02*
X187350000Y-120200000I-100000J0D01*
G01*
X185975000Y-120200000D01*
G75*
G02*
X185875000Y-120100000I0J100000D01*
G01*
G37*
G36*
G01*
X185875000Y-120600000D02*
X185875000Y-120400000D01*
G75*
G02*
X185975000Y-120300000I100000J0D01*
G01*
X187350000Y-120300000D01*
G75*
G02*
X187450000Y-120400000I0J-100000D01*
G01*
X187450000Y-120600000D01*
G75*
G02*
X187350000Y-120700000I-100000J0D01*
G01*
X185975000Y-120700000D01*
G75*
G02*
X185875000Y-120600000I0J100000D01*
G01*
G37*
G36*
G01*
X185875000Y-121100000D02*
X185875000Y-120900000D01*
G75*
G02*
X185975000Y-120800000I100000J0D01*
G01*
X187350000Y-120800000D01*
G75*
G02*
X187450000Y-120900000I0J-100000D01*
G01*
X187450000Y-121100000D01*
G75*
G02*
X187350000Y-121200000I-100000J0D01*
G01*
X185975000Y-121200000D01*
G75*
G02*
X185875000Y-121100000I0J100000D01*
G01*
G37*
G36*
G01*
X185875000Y-121600000D02*
X185875000Y-121400000D01*
G75*
G02*
X185975000Y-121300000I100000J0D01*
G01*
X187350000Y-121300000D01*
G75*
G02*
X187450000Y-121400000I0J-100000D01*
G01*
X187450000Y-121600000D01*
G75*
G02*
X187350000Y-121700000I-100000J0D01*
G01*
X185975000Y-121700000D01*
G75*
G02*
X185875000Y-121600000I0J100000D01*
G01*
G37*
G36*
G01*
X185875000Y-122100000D02*
X185875000Y-121900000D01*
G75*
G02*
X185975000Y-121800000I100000J0D01*
G01*
X187350000Y-121800000D01*
G75*
G02*
X187450000Y-121900000I0J-100000D01*
G01*
X187450000Y-122100000D01*
G75*
G02*
X187350000Y-122200000I-100000J0D01*
G01*
X185975000Y-122200000D01*
G75*
G02*
X185875000Y-122100000I0J100000D01*
G01*
G37*
G36*
G01*
X185875000Y-122600000D02*
X185875000Y-122400000D01*
G75*
G02*
X185975000Y-122300000I100000J0D01*
G01*
X187350000Y-122300000D01*
G75*
G02*
X187450000Y-122400000I0J-100000D01*
G01*
X187450000Y-122600000D01*
G75*
G02*
X187350000Y-122700000I-100000J0D01*
G01*
X185975000Y-122700000D01*
G75*
G02*
X185875000Y-122600000I0J100000D01*
G01*
G37*
G36*
G01*
X185875000Y-123100000D02*
X185875000Y-122900000D01*
G75*
G02*
X185975000Y-122800000I100000J0D01*
G01*
X187350000Y-122800000D01*
G75*
G02*
X187450000Y-122900000I0J-100000D01*
G01*
X187450000Y-123100000D01*
G75*
G02*
X187350000Y-123200000I-100000J0D01*
G01*
X185975000Y-123200000D01*
G75*
G02*
X185875000Y-123100000I0J100000D01*
G01*
G37*
G36*
G01*
X185875000Y-123600000D02*
X185875000Y-123400000D01*
G75*
G02*
X185975000Y-123300000I100000J0D01*
G01*
X187350000Y-123300000D01*
G75*
G02*
X187450000Y-123400000I0J-100000D01*
G01*
X187450000Y-123600000D01*
G75*
G02*
X187350000Y-123700000I-100000J0D01*
G01*
X185975000Y-123700000D01*
G75*
G02*
X185875000Y-123600000I0J100000D01*
G01*
G37*
G36*
G01*
X185875000Y-124100000D02*
X185875000Y-123900000D01*
G75*
G02*
X185975000Y-123800000I100000J0D01*
G01*
X187350000Y-123800000D01*
G75*
G02*
X187450000Y-123900000I0J-100000D01*
G01*
X187450000Y-124100000D01*
G75*
G02*
X187350000Y-124200000I-100000J0D01*
G01*
X185975000Y-124200000D01*
G75*
G02*
X185875000Y-124100000I0J100000D01*
G01*
G37*
G36*
G01*
X185875000Y-124600000D02*
X185875000Y-124400000D01*
G75*
G02*
X185975000Y-124300000I100000J0D01*
G01*
X187350000Y-124300000D01*
G75*
G02*
X187450000Y-124400000I0J-100000D01*
G01*
X187450000Y-124600000D01*
G75*
G02*
X187350000Y-124700000I-100000J0D01*
G01*
X185975000Y-124700000D01*
G75*
G02*
X185875000Y-124600000I0J100000D01*
G01*
G37*
G36*
G01*
X185875000Y-125100000D02*
X185875000Y-124900000D01*
G75*
G02*
X185975000Y-124800000I100000J0D01*
G01*
X187350000Y-124800000D01*
G75*
G02*
X187450000Y-124900000I0J-100000D01*
G01*
X187450000Y-125100000D01*
G75*
G02*
X187350000Y-125200000I-100000J0D01*
G01*
X185975000Y-125200000D01*
G75*
G02*
X185875000Y-125100000I0J100000D01*
G01*
G37*
G36*
G01*
X185875000Y-125600000D02*
X185875000Y-125400000D01*
G75*
G02*
X185975000Y-125300000I100000J0D01*
G01*
X187350000Y-125300000D01*
G75*
G02*
X187450000Y-125400000I0J-100000D01*
G01*
X187450000Y-125600000D01*
G75*
G02*
X187350000Y-125700000I-100000J0D01*
G01*
X185975000Y-125700000D01*
G75*
G02*
X185875000Y-125600000I0J100000D01*
G01*
G37*
G36*
G01*
X185875000Y-126100000D02*
X185875000Y-125900000D01*
G75*
G02*
X185975000Y-125800000I100000J0D01*
G01*
X187350000Y-125800000D01*
G75*
G02*
X187450000Y-125900000I0J-100000D01*
G01*
X187450000Y-126100000D01*
G75*
G02*
X187350000Y-126200000I-100000J0D01*
G01*
X185975000Y-126200000D01*
G75*
G02*
X185875000Y-126100000I0J100000D01*
G01*
G37*
G36*
G01*
X185875000Y-126600000D02*
X185875000Y-126400000D01*
G75*
G02*
X185975000Y-126300000I100000J0D01*
G01*
X187350000Y-126300000D01*
G75*
G02*
X187450000Y-126400000I0J-100000D01*
G01*
X187450000Y-126600000D01*
G75*
G02*
X187350000Y-126700000I-100000J0D01*
G01*
X185975000Y-126700000D01*
G75*
G02*
X185875000Y-126600000I0J100000D01*
G01*
G37*
G36*
G01*
X185875000Y-127100000D02*
X185875000Y-126900000D01*
G75*
G02*
X185975000Y-126800000I100000J0D01*
G01*
X187350000Y-126800000D01*
G75*
G02*
X187450000Y-126900000I0J-100000D01*
G01*
X187450000Y-127100000D01*
G75*
G02*
X187350000Y-127200000I-100000J0D01*
G01*
X185975000Y-127200000D01*
G75*
G02*
X185875000Y-127100000I0J100000D01*
G01*
G37*
G36*
G01*
X185875000Y-127600000D02*
X185875000Y-127400000D01*
G75*
G02*
X185975000Y-127300000I100000J0D01*
G01*
X187350000Y-127300000D01*
G75*
G02*
X187450000Y-127400000I0J-100000D01*
G01*
X187450000Y-127600000D01*
G75*
G02*
X187350000Y-127700000I-100000J0D01*
G01*
X185975000Y-127700000D01*
G75*
G02*
X185875000Y-127600000I0J100000D01*
G01*
G37*
G36*
G01*
X184800000Y-129850000D02*
X184800000Y-128475000D01*
G75*
G02*
X184900000Y-128375000I100000J0D01*
G01*
X185100000Y-128375000D01*
G75*
G02*
X185200000Y-128475000I0J-100000D01*
G01*
X185200000Y-129850000D01*
G75*
G02*
X185100000Y-129950000I-100000J0D01*
G01*
X184900000Y-129950000D01*
G75*
G02*
X184800000Y-129850000I0J100000D01*
G01*
G37*
G36*
G01*
X184300000Y-129850000D02*
X184300000Y-128475000D01*
G75*
G02*
X184400000Y-128375000I100000J0D01*
G01*
X184600000Y-128375000D01*
G75*
G02*
X184700000Y-128475000I0J-100000D01*
G01*
X184700000Y-129850000D01*
G75*
G02*
X184600000Y-129950000I-100000J0D01*
G01*
X184400000Y-129950000D01*
G75*
G02*
X184300000Y-129850000I0J100000D01*
G01*
G37*
G36*
G01*
X183800000Y-129850000D02*
X183800000Y-128475000D01*
G75*
G02*
X183900000Y-128375000I100000J0D01*
G01*
X184100000Y-128375000D01*
G75*
G02*
X184200000Y-128475000I0J-100000D01*
G01*
X184200000Y-129850000D01*
G75*
G02*
X184100000Y-129950000I-100000J0D01*
G01*
X183900000Y-129950000D01*
G75*
G02*
X183800000Y-129850000I0J100000D01*
G01*
G37*
G36*
G01*
X183300000Y-129850000D02*
X183300000Y-128475000D01*
G75*
G02*
X183400000Y-128375000I100000J0D01*
G01*
X183600000Y-128375000D01*
G75*
G02*
X183700000Y-128475000I0J-100000D01*
G01*
X183700000Y-129850000D01*
G75*
G02*
X183600000Y-129950000I-100000J0D01*
G01*
X183400000Y-129950000D01*
G75*
G02*
X183300000Y-129850000I0J100000D01*
G01*
G37*
G36*
G01*
X182800000Y-129850000D02*
X182800000Y-128475000D01*
G75*
G02*
X182900000Y-128375000I100000J0D01*
G01*
X183100000Y-128375000D01*
G75*
G02*
X183200000Y-128475000I0J-100000D01*
G01*
X183200000Y-129850000D01*
G75*
G02*
X183100000Y-129950000I-100000J0D01*
G01*
X182900000Y-129950000D01*
G75*
G02*
X182800000Y-129850000I0J100000D01*
G01*
G37*
G36*
G01*
X182300000Y-129850000D02*
X182300000Y-128475000D01*
G75*
G02*
X182400000Y-128375000I100000J0D01*
G01*
X182600000Y-128375000D01*
G75*
G02*
X182700000Y-128475000I0J-100000D01*
G01*
X182700000Y-129850000D01*
G75*
G02*
X182600000Y-129950000I-100000J0D01*
G01*
X182400000Y-129950000D01*
G75*
G02*
X182300000Y-129850000I0J100000D01*
G01*
G37*
G36*
G01*
X181800000Y-129850000D02*
X181800000Y-128475000D01*
G75*
G02*
X181900000Y-128375000I100000J0D01*
G01*
X182100000Y-128375000D01*
G75*
G02*
X182200000Y-128475000I0J-100000D01*
G01*
X182200000Y-129850000D01*
G75*
G02*
X182100000Y-129950000I-100000J0D01*
G01*
X181900000Y-129950000D01*
G75*
G02*
X181800000Y-129850000I0J100000D01*
G01*
G37*
G36*
G01*
X181300000Y-129850000D02*
X181300000Y-128475000D01*
G75*
G02*
X181400000Y-128375000I100000J0D01*
G01*
X181600000Y-128375000D01*
G75*
G02*
X181700000Y-128475000I0J-100000D01*
G01*
X181700000Y-129850000D01*
G75*
G02*
X181600000Y-129950000I-100000J0D01*
G01*
X181400000Y-129950000D01*
G75*
G02*
X181300000Y-129850000I0J100000D01*
G01*
G37*
G36*
G01*
X180800000Y-129850000D02*
X180800000Y-128475000D01*
G75*
G02*
X180900000Y-128375000I100000J0D01*
G01*
X181100000Y-128375000D01*
G75*
G02*
X181200000Y-128475000I0J-100000D01*
G01*
X181200000Y-129850000D01*
G75*
G02*
X181100000Y-129950000I-100000J0D01*
G01*
X180900000Y-129950000D01*
G75*
G02*
X180800000Y-129850000I0J100000D01*
G01*
G37*
G36*
G01*
X180300000Y-129850000D02*
X180300000Y-128475000D01*
G75*
G02*
X180400000Y-128375000I100000J0D01*
G01*
X180600000Y-128375000D01*
G75*
G02*
X180700000Y-128475000I0J-100000D01*
G01*
X180700000Y-129850000D01*
G75*
G02*
X180600000Y-129950000I-100000J0D01*
G01*
X180400000Y-129950000D01*
G75*
G02*
X180300000Y-129850000I0J100000D01*
G01*
G37*
G36*
G01*
X179800000Y-129850000D02*
X179800000Y-128475000D01*
G75*
G02*
X179900000Y-128375000I100000J0D01*
G01*
X180100000Y-128375000D01*
G75*
G02*
X180200000Y-128475000I0J-100000D01*
G01*
X180200000Y-129850000D01*
G75*
G02*
X180100000Y-129950000I-100000J0D01*
G01*
X179900000Y-129950000D01*
G75*
G02*
X179800000Y-129850000I0J100000D01*
G01*
G37*
G36*
G01*
X179300000Y-129850000D02*
X179300000Y-128475000D01*
G75*
G02*
X179400000Y-128375000I100000J0D01*
G01*
X179600000Y-128375000D01*
G75*
G02*
X179700000Y-128475000I0J-100000D01*
G01*
X179700000Y-129850000D01*
G75*
G02*
X179600000Y-129950000I-100000J0D01*
G01*
X179400000Y-129950000D01*
G75*
G02*
X179300000Y-129850000I0J100000D01*
G01*
G37*
G36*
G01*
X178800000Y-129850000D02*
X178800000Y-128475000D01*
G75*
G02*
X178900000Y-128375000I100000J0D01*
G01*
X179100000Y-128375000D01*
G75*
G02*
X179200000Y-128475000I0J-100000D01*
G01*
X179200000Y-129850000D01*
G75*
G02*
X179100000Y-129950000I-100000J0D01*
G01*
X178900000Y-129950000D01*
G75*
G02*
X178800000Y-129850000I0J100000D01*
G01*
G37*
G36*
G01*
X178300000Y-129850000D02*
X178300000Y-128475000D01*
G75*
G02*
X178400000Y-128375000I100000J0D01*
G01*
X178600000Y-128375000D01*
G75*
G02*
X178700000Y-128475000I0J-100000D01*
G01*
X178700000Y-129850000D01*
G75*
G02*
X178600000Y-129950000I-100000J0D01*
G01*
X178400000Y-129950000D01*
G75*
G02*
X178300000Y-129850000I0J100000D01*
G01*
G37*
G36*
G01*
X177800000Y-129850000D02*
X177800000Y-128475000D01*
G75*
G02*
X177900000Y-128375000I100000J0D01*
G01*
X178100000Y-128375000D01*
G75*
G02*
X178200000Y-128475000I0J-100000D01*
G01*
X178200000Y-129850000D01*
G75*
G02*
X178100000Y-129950000I-100000J0D01*
G01*
X177900000Y-129950000D01*
G75*
G02*
X177800000Y-129850000I0J100000D01*
G01*
G37*
G36*
G01*
X177300000Y-129850000D02*
X177300000Y-128475000D01*
G75*
G02*
X177400000Y-128375000I100000J0D01*
G01*
X177600000Y-128375000D01*
G75*
G02*
X177700000Y-128475000I0J-100000D01*
G01*
X177700000Y-129850000D01*
G75*
G02*
X177600000Y-129950000I-100000J0D01*
G01*
X177400000Y-129950000D01*
G75*
G02*
X177300000Y-129850000I0J100000D01*
G01*
G37*
G36*
G01*
X176800000Y-129850000D02*
X176800000Y-128475000D01*
G75*
G02*
X176900000Y-128375000I100000J0D01*
G01*
X177100000Y-128375000D01*
G75*
G02*
X177200000Y-128475000I0J-100000D01*
G01*
X177200000Y-129850000D01*
G75*
G02*
X177100000Y-129950000I-100000J0D01*
G01*
X176900000Y-129950000D01*
G75*
G02*
X176800000Y-129850000I0J100000D01*
G01*
G37*
G36*
G01*
X176300000Y-129850000D02*
X176300000Y-128475000D01*
G75*
G02*
X176400000Y-128375000I100000J0D01*
G01*
X176600000Y-128375000D01*
G75*
G02*
X176700000Y-128475000I0J-100000D01*
G01*
X176700000Y-129850000D01*
G75*
G02*
X176600000Y-129950000I-100000J0D01*
G01*
X176400000Y-129950000D01*
G75*
G02*
X176300000Y-129850000I0J100000D01*
G01*
G37*
G36*
G01*
X175800000Y-129850000D02*
X175800000Y-128475000D01*
G75*
G02*
X175900000Y-128375000I100000J0D01*
G01*
X176100000Y-128375000D01*
G75*
G02*
X176200000Y-128475000I0J-100000D01*
G01*
X176200000Y-129850000D01*
G75*
G02*
X176100000Y-129950000I-100000J0D01*
G01*
X175900000Y-129950000D01*
G75*
G02*
X175800000Y-129850000I0J100000D01*
G01*
G37*
G36*
G01*
X175300000Y-129850000D02*
X175300000Y-128475000D01*
G75*
G02*
X175400000Y-128375000I100000J0D01*
G01*
X175600000Y-128375000D01*
G75*
G02*
X175700000Y-128475000I0J-100000D01*
G01*
X175700000Y-129850000D01*
G75*
G02*
X175600000Y-129950000I-100000J0D01*
G01*
X175400000Y-129950000D01*
G75*
G02*
X175300000Y-129850000I0J100000D01*
G01*
G37*
G36*
G01*
X174800000Y-129850000D02*
X174800000Y-128475000D01*
G75*
G02*
X174900000Y-128375000I100000J0D01*
G01*
X175100000Y-128375000D01*
G75*
G02*
X175200000Y-128475000I0J-100000D01*
G01*
X175200000Y-129850000D01*
G75*
G02*
X175100000Y-129950000I-100000J0D01*
G01*
X174900000Y-129950000D01*
G75*
G02*
X174800000Y-129850000I0J100000D01*
G01*
G37*
G36*
G01*
X174300000Y-129850000D02*
X174300000Y-128475000D01*
G75*
G02*
X174400000Y-128375000I100000J0D01*
G01*
X174600000Y-128375000D01*
G75*
G02*
X174700000Y-128475000I0J-100000D01*
G01*
X174700000Y-129850000D01*
G75*
G02*
X174600000Y-129950000I-100000J0D01*
G01*
X174400000Y-129950000D01*
G75*
G02*
X174300000Y-129850000I0J100000D01*
G01*
G37*
G36*
G01*
X173800000Y-129850000D02*
X173800000Y-128475000D01*
G75*
G02*
X173900000Y-128375000I100000J0D01*
G01*
X174100000Y-128375000D01*
G75*
G02*
X174200000Y-128475000I0J-100000D01*
G01*
X174200000Y-129850000D01*
G75*
G02*
X174100000Y-129950000I-100000J0D01*
G01*
X173900000Y-129950000D01*
G75*
G02*
X173800000Y-129850000I0J100000D01*
G01*
G37*
G36*
G01*
X173300000Y-129850000D02*
X173300000Y-128475000D01*
G75*
G02*
X173400000Y-128375000I100000J0D01*
G01*
X173600000Y-128375000D01*
G75*
G02*
X173700000Y-128475000I0J-100000D01*
G01*
X173700000Y-129850000D01*
G75*
G02*
X173600000Y-129950000I-100000J0D01*
G01*
X173400000Y-129950000D01*
G75*
G02*
X173300000Y-129850000I0J100000D01*
G01*
G37*
G36*
G01*
X172800000Y-129850000D02*
X172800000Y-128475000D01*
G75*
G02*
X172900000Y-128375000I100000J0D01*
G01*
X173100000Y-128375000D01*
G75*
G02*
X173200000Y-128475000I0J-100000D01*
G01*
X173200000Y-129850000D01*
G75*
G02*
X173100000Y-129950000I-100000J0D01*
G01*
X172900000Y-129950000D01*
G75*
G02*
X172800000Y-129850000I0J100000D01*
G01*
G37*
G36*
G01*
X170550000Y-127600000D02*
X170550000Y-127400000D01*
G75*
G02*
X170650000Y-127300000I100000J0D01*
G01*
X172025000Y-127300000D01*
G75*
G02*
X172125000Y-127400000I0J-100000D01*
G01*
X172125000Y-127600000D01*
G75*
G02*
X172025000Y-127700000I-100000J0D01*
G01*
X170650000Y-127700000D01*
G75*
G02*
X170550000Y-127600000I0J100000D01*
G01*
G37*
G36*
G01*
X170550000Y-127100000D02*
X170550000Y-126900000D01*
G75*
G02*
X170650000Y-126800000I100000J0D01*
G01*
X172025000Y-126800000D01*
G75*
G02*
X172125000Y-126900000I0J-100000D01*
G01*
X172125000Y-127100000D01*
G75*
G02*
X172025000Y-127200000I-100000J0D01*
G01*
X170650000Y-127200000D01*
G75*
G02*
X170550000Y-127100000I0J100000D01*
G01*
G37*
G36*
G01*
X170550000Y-126600000D02*
X170550000Y-126400000D01*
G75*
G02*
X170650000Y-126300000I100000J0D01*
G01*
X172025000Y-126300000D01*
G75*
G02*
X172125000Y-126400000I0J-100000D01*
G01*
X172125000Y-126600000D01*
G75*
G02*
X172025000Y-126700000I-100000J0D01*
G01*
X170650000Y-126700000D01*
G75*
G02*
X170550000Y-126600000I0J100000D01*
G01*
G37*
G36*
G01*
X170550000Y-126100000D02*
X170550000Y-125900000D01*
G75*
G02*
X170650000Y-125800000I100000J0D01*
G01*
X172025000Y-125800000D01*
G75*
G02*
X172125000Y-125900000I0J-100000D01*
G01*
X172125000Y-126100000D01*
G75*
G02*
X172025000Y-126200000I-100000J0D01*
G01*
X170650000Y-126200000D01*
G75*
G02*
X170550000Y-126100000I0J100000D01*
G01*
G37*
G36*
G01*
X170550000Y-125600000D02*
X170550000Y-125400000D01*
G75*
G02*
X170650000Y-125300000I100000J0D01*
G01*
X172025000Y-125300000D01*
G75*
G02*
X172125000Y-125400000I0J-100000D01*
G01*
X172125000Y-125600000D01*
G75*
G02*
X172025000Y-125700000I-100000J0D01*
G01*
X170650000Y-125700000D01*
G75*
G02*
X170550000Y-125600000I0J100000D01*
G01*
G37*
G36*
G01*
X170550000Y-125100000D02*
X170550000Y-124900000D01*
G75*
G02*
X170650000Y-124800000I100000J0D01*
G01*
X172025000Y-124800000D01*
G75*
G02*
X172125000Y-124900000I0J-100000D01*
G01*
X172125000Y-125100000D01*
G75*
G02*
X172025000Y-125200000I-100000J0D01*
G01*
X170650000Y-125200000D01*
G75*
G02*
X170550000Y-125100000I0J100000D01*
G01*
G37*
G36*
G01*
X170550000Y-124600000D02*
X170550000Y-124400000D01*
G75*
G02*
X170650000Y-124300000I100000J0D01*
G01*
X172025000Y-124300000D01*
G75*
G02*
X172125000Y-124400000I0J-100000D01*
G01*
X172125000Y-124600000D01*
G75*
G02*
X172025000Y-124700000I-100000J0D01*
G01*
X170650000Y-124700000D01*
G75*
G02*
X170550000Y-124600000I0J100000D01*
G01*
G37*
G36*
G01*
X170550000Y-124100000D02*
X170550000Y-123900000D01*
G75*
G02*
X170650000Y-123800000I100000J0D01*
G01*
X172025000Y-123800000D01*
G75*
G02*
X172125000Y-123900000I0J-100000D01*
G01*
X172125000Y-124100000D01*
G75*
G02*
X172025000Y-124200000I-100000J0D01*
G01*
X170650000Y-124200000D01*
G75*
G02*
X170550000Y-124100000I0J100000D01*
G01*
G37*
G36*
G01*
X170550000Y-123600000D02*
X170550000Y-123400000D01*
G75*
G02*
X170650000Y-123300000I100000J0D01*
G01*
X172025000Y-123300000D01*
G75*
G02*
X172125000Y-123400000I0J-100000D01*
G01*
X172125000Y-123600000D01*
G75*
G02*
X172025000Y-123700000I-100000J0D01*
G01*
X170650000Y-123700000D01*
G75*
G02*
X170550000Y-123600000I0J100000D01*
G01*
G37*
G36*
G01*
X170550000Y-123100000D02*
X170550000Y-122900000D01*
G75*
G02*
X170650000Y-122800000I100000J0D01*
G01*
X172025000Y-122800000D01*
G75*
G02*
X172125000Y-122900000I0J-100000D01*
G01*
X172125000Y-123100000D01*
G75*
G02*
X172025000Y-123200000I-100000J0D01*
G01*
X170650000Y-123200000D01*
G75*
G02*
X170550000Y-123100000I0J100000D01*
G01*
G37*
G36*
G01*
X170550000Y-122600000D02*
X170550000Y-122400000D01*
G75*
G02*
X170650000Y-122300000I100000J0D01*
G01*
X172025000Y-122300000D01*
G75*
G02*
X172125000Y-122400000I0J-100000D01*
G01*
X172125000Y-122600000D01*
G75*
G02*
X172025000Y-122700000I-100000J0D01*
G01*
X170650000Y-122700000D01*
G75*
G02*
X170550000Y-122600000I0J100000D01*
G01*
G37*
G36*
G01*
X170550000Y-122100000D02*
X170550000Y-121900000D01*
G75*
G02*
X170650000Y-121800000I100000J0D01*
G01*
X172025000Y-121800000D01*
G75*
G02*
X172125000Y-121900000I0J-100000D01*
G01*
X172125000Y-122100000D01*
G75*
G02*
X172025000Y-122200000I-100000J0D01*
G01*
X170650000Y-122200000D01*
G75*
G02*
X170550000Y-122100000I0J100000D01*
G01*
G37*
G36*
G01*
X170550000Y-121600000D02*
X170550000Y-121400000D01*
G75*
G02*
X170650000Y-121300000I100000J0D01*
G01*
X172025000Y-121300000D01*
G75*
G02*
X172125000Y-121400000I0J-100000D01*
G01*
X172125000Y-121600000D01*
G75*
G02*
X172025000Y-121700000I-100000J0D01*
G01*
X170650000Y-121700000D01*
G75*
G02*
X170550000Y-121600000I0J100000D01*
G01*
G37*
G36*
G01*
X170550000Y-121100000D02*
X170550000Y-120900000D01*
G75*
G02*
X170650000Y-120800000I100000J0D01*
G01*
X172025000Y-120800000D01*
G75*
G02*
X172125000Y-120900000I0J-100000D01*
G01*
X172125000Y-121100000D01*
G75*
G02*
X172025000Y-121200000I-100000J0D01*
G01*
X170650000Y-121200000D01*
G75*
G02*
X170550000Y-121100000I0J100000D01*
G01*
G37*
G36*
G01*
X170550000Y-120600000D02*
X170550000Y-120400000D01*
G75*
G02*
X170650000Y-120300000I100000J0D01*
G01*
X172025000Y-120300000D01*
G75*
G02*
X172125000Y-120400000I0J-100000D01*
G01*
X172125000Y-120600000D01*
G75*
G02*
X172025000Y-120700000I-100000J0D01*
G01*
X170650000Y-120700000D01*
G75*
G02*
X170550000Y-120600000I0J100000D01*
G01*
G37*
G36*
G01*
X170550000Y-120100000D02*
X170550000Y-119900000D01*
G75*
G02*
X170650000Y-119800000I100000J0D01*
G01*
X172025000Y-119800000D01*
G75*
G02*
X172125000Y-119900000I0J-100000D01*
G01*
X172125000Y-120100000D01*
G75*
G02*
X172025000Y-120200000I-100000J0D01*
G01*
X170650000Y-120200000D01*
G75*
G02*
X170550000Y-120100000I0J100000D01*
G01*
G37*
G36*
G01*
X170550000Y-119600000D02*
X170550000Y-119400000D01*
G75*
G02*
X170650000Y-119300000I100000J0D01*
G01*
X172025000Y-119300000D01*
G75*
G02*
X172125000Y-119400000I0J-100000D01*
G01*
X172125000Y-119600000D01*
G75*
G02*
X172025000Y-119700000I-100000J0D01*
G01*
X170650000Y-119700000D01*
G75*
G02*
X170550000Y-119600000I0J100000D01*
G01*
G37*
G36*
G01*
X170550000Y-119100000D02*
X170550000Y-118900000D01*
G75*
G02*
X170650000Y-118800000I100000J0D01*
G01*
X172025000Y-118800000D01*
G75*
G02*
X172125000Y-118900000I0J-100000D01*
G01*
X172125000Y-119100000D01*
G75*
G02*
X172025000Y-119200000I-100000J0D01*
G01*
X170650000Y-119200000D01*
G75*
G02*
X170550000Y-119100000I0J100000D01*
G01*
G37*
G36*
G01*
X170550000Y-118600000D02*
X170550000Y-118400000D01*
G75*
G02*
X170650000Y-118300000I100000J0D01*
G01*
X172025000Y-118300000D01*
G75*
G02*
X172125000Y-118400000I0J-100000D01*
G01*
X172125000Y-118600000D01*
G75*
G02*
X172025000Y-118700000I-100000J0D01*
G01*
X170650000Y-118700000D01*
G75*
G02*
X170550000Y-118600000I0J100000D01*
G01*
G37*
G36*
G01*
X170550000Y-118100000D02*
X170550000Y-117900000D01*
G75*
G02*
X170650000Y-117800000I100000J0D01*
G01*
X172025000Y-117800000D01*
G75*
G02*
X172125000Y-117900000I0J-100000D01*
G01*
X172125000Y-118100000D01*
G75*
G02*
X172025000Y-118200000I-100000J0D01*
G01*
X170650000Y-118200000D01*
G75*
G02*
X170550000Y-118100000I0J100000D01*
G01*
G37*
G36*
G01*
X170550000Y-117600000D02*
X170550000Y-117400000D01*
G75*
G02*
X170650000Y-117300000I100000J0D01*
G01*
X172025000Y-117300000D01*
G75*
G02*
X172125000Y-117400000I0J-100000D01*
G01*
X172125000Y-117600000D01*
G75*
G02*
X172025000Y-117700000I-100000J0D01*
G01*
X170650000Y-117700000D01*
G75*
G02*
X170550000Y-117600000I0J100000D01*
G01*
G37*
G36*
G01*
X170550000Y-117100000D02*
X170550000Y-116900000D01*
G75*
G02*
X170650000Y-116800000I100000J0D01*
G01*
X172025000Y-116800000D01*
G75*
G02*
X172125000Y-116900000I0J-100000D01*
G01*
X172125000Y-117100000D01*
G75*
G02*
X172025000Y-117200000I-100000J0D01*
G01*
X170650000Y-117200000D01*
G75*
G02*
X170550000Y-117100000I0J100000D01*
G01*
G37*
G36*
G01*
X170550000Y-116600000D02*
X170550000Y-116400000D01*
G75*
G02*
X170650000Y-116300000I100000J0D01*
G01*
X172025000Y-116300000D01*
G75*
G02*
X172125000Y-116400000I0J-100000D01*
G01*
X172125000Y-116600000D01*
G75*
G02*
X172025000Y-116700000I-100000J0D01*
G01*
X170650000Y-116700000D01*
G75*
G02*
X170550000Y-116600000I0J100000D01*
G01*
G37*
G36*
G01*
X170550000Y-116100000D02*
X170550000Y-115900000D01*
G75*
G02*
X170650000Y-115800000I100000J0D01*
G01*
X172025000Y-115800000D01*
G75*
G02*
X172125000Y-115900000I0J-100000D01*
G01*
X172125000Y-116100000D01*
G75*
G02*
X172025000Y-116200000I-100000J0D01*
G01*
X170650000Y-116200000D01*
G75*
G02*
X170550000Y-116100000I0J100000D01*
G01*
G37*
G36*
G01*
X170550000Y-115600000D02*
X170550000Y-115400000D01*
G75*
G02*
X170650000Y-115300000I100000J0D01*
G01*
X172025000Y-115300000D01*
G75*
G02*
X172125000Y-115400000I0J-100000D01*
G01*
X172125000Y-115600000D01*
G75*
G02*
X172025000Y-115700000I-100000J0D01*
G01*
X170650000Y-115700000D01*
G75*
G02*
X170550000Y-115600000I0J100000D01*
G01*
G37*
%TD*%
D29*
%TO.C,TR2*%
X194040000Y-56540000D03*
X191500000Y-56540000D03*
X188960000Y-56540000D03*
X188960000Y-51460000D03*
X191500000Y-51460000D03*
X194040000Y-51460000D03*
%TD*%
%TO.C,TR1*%
X169040000Y-56540000D03*
X166500000Y-56540000D03*
X163960000Y-56540000D03*
X163960000Y-51460000D03*
X166500000Y-51460000D03*
X169040000Y-51460000D03*
%TD*%
%TO.C,R17*%
G36*
G01*
X179012500Y-84781250D02*
X179012500Y-84218750D01*
G75*
G02*
X179256250Y-83975000I243750J0D01*
G01*
X179743750Y-83975000D01*
G75*
G02*
X179987500Y-84218750I0J-243750D01*
G01*
X179987500Y-84781250D01*
G75*
G02*
X179743750Y-85025000I-243750J0D01*
G01*
X179256250Y-85025000D01*
G75*
G02*
X179012500Y-84781250I0J243750D01*
G01*
G37*
G36*
G01*
X177437500Y-84781250D02*
X177437500Y-84218750D01*
G75*
G02*
X177681250Y-83975000I243750J0D01*
G01*
X178168750Y-83975000D01*
G75*
G02*
X178412500Y-84218750I0J-243750D01*
G01*
X178412500Y-84781250D01*
G75*
G02*
X178168750Y-85025000I-243750J0D01*
G01*
X177681250Y-85025000D01*
G75*
G02*
X177437500Y-84781250I0J243750D01*
G01*
G37*
%TD*%
%TO.C,R11*%
G36*
G01*
X160237500Y-56218750D02*
X160237500Y-56781250D01*
G75*
G02*
X159993750Y-57025000I-243750J0D01*
G01*
X159506250Y-57025000D01*
G75*
G02*
X159262500Y-56781250I0J243750D01*
G01*
X159262500Y-56218750D01*
G75*
G02*
X159506250Y-55975000I243750J0D01*
G01*
X159993750Y-55975000D01*
G75*
G02*
X160237500Y-56218750I0J-243750D01*
G01*
G37*
G36*
G01*
X161812500Y-56218750D02*
X161812500Y-56781250D01*
G75*
G02*
X161568750Y-57025000I-243750J0D01*
G01*
X161081250Y-57025000D01*
G75*
G02*
X160837500Y-56781250I0J243750D01*
G01*
X160837500Y-56218750D01*
G75*
G02*
X161081250Y-55975000I243750J0D01*
G01*
X161568750Y-55975000D01*
G75*
G02*
X161812500Y-56218750I0J-243750D01*
G01*
G37*
%TD*%
%TO.C,R10*%
G36*
G01*
X172031250Y-55450000D02*
X171468750Y-55450000D01*
G75*
G02*
X171225000Y-55206250I0J243750D01*
G01*
X171225000Y-54718750D01*
G75*
G02*
X171468750Y-54475000I243750J0D01*
G01*
X172031250Y-54475000D01*
G75*
G02*
X172275000Y-54718750I0J-243750D01*
G01*
X172275000Y-55206250D01*
G75*
G02*
X172031250Y-55450000I-243750J0D01*
G01*
G37*
G36*
G01*
X172031250Y-57025000D02*
X171468750Y-57025000D01*
G75*
G02*
X171225000Y-56781250I0J243750D01*
G01*
X171225000Y-56293750D01*
G75*
G02*
X171468750Y-56050000I243750J0D01*
G01*
X172031250Y-56050000D01*
G75*
G02*
X172275000Y-56293750I0J-243750D01*
G01*
X172275000Y-56781250D01*
G75*
G02*
X172031250Y-57025000I-243750J0D01*
G01*
G37*
%TD*%
%TO.C,R9*%
G36*
G01*
X196468750Y-57512500D02*
X197031250Y-57512500D01*
G75*
G02*
X197275000Y-57756250I0J-243750D01*
G01*
X197275000Y-58243750D01*
G75*
G02*
X197031250Y-58487500I-243750J0D01*
G01*
X196468750Y-58487500D01*
G75*
G02*
X196225000Y-58243750I0J243750D01*
G01*
X196225000Y-57756250D01*
G75*
G02*
X196468750Y-57512500I243750J0D01*
G01*
G37*
G36*
G01*
X196468750Y-55937500D02*
X197031250Y-55937500D01*
G75*
G02*
X197275000Y-56181250I0J-243750D01*
G01*
X197275000Y-56668750D01*
G75*
G02*
X197031250Y-56912500I-243750J0D01*
G01*
X196468750Y-56912500D01*
G75*
G02*
X196225000Y-56668750I0J243750D01*
G01*
X196225000Y-56181250D01*
G75*
G02*
X196468750Y-55937500I243750J0D01*
G01*
G37*
%TD*%
%TO.C,R8*%
G36*
G01*
X185237500Y-56218750D02*
X185237500Y-56781250D01*
G75*
G02*
X184993750Y-57025000I-243750J0D01*
G01*
X184506250Y-57025000D01*
G75*
G02*
X184262500Y-56781250I0J243750D01*
G01*
X184262500Y-56218750D01*
G75*
G02*
X184506250Y-55975000I243750J0D01*
G01*
X184993750Y-55975000D01*
G75*
G02*
X185237500Y-56218750I0J-243750D01*
G01*
G37*
G36*
G01*
X186812500Y-56218750D02*
X186812500Y-56781250D01*
G75*
G02*
X186568750Y-57025000I-243750J0D01*
G01*
X186081250Y-57025000D01*
G75*
G02*
X185837500Y-56781250I0J243750D01*
G01*
X185837500Y-56218750D01*
G75*
G02*
X186081250Y-55975000I243750J0D01*
G01*
X186568750Y-55975000D01*
G75*
G02*
X186812500Y-56218750I0J-243750D01*
G01*
G37*
%TD*%
%TO.C,R7*%
G36*
G01*
X140918750Y-71450000D02*
X141481250Y-71450000D01*
G75*
G02*
X141725000Y-71693750I0J-243750D01*
G01*
X141725000Y-72181250D01*
G75*
G02*
X141481250Y-72425000I-243750J0D01*
G01*
X140918750Y-72425000D01*
G75*
G02*
X140675000Y-72181250I0J243750D01*
G01*
X140675000Y-71693750D01*
G75*
G02*
X140918750Y-71450000I243750J0D01*
G01*
G37*
G36*
G01*
X140918750Y-69875000D02*
X141481250Y-69875000D01*
G75*
G02*
X141725000Y-70118750I0J-243750D01*
G01*
X141725000Y-70606250D01*
G75*
G02*
X141481250Y-70850000I-243750J0D01*
G01*
X140918750Y-70850000D01*
G75*
G02*
X140675000Y-70606250I0J243750D01*
G01*
X140675000Y-70118750D01*
G75*
G02*
X140918750Y-69875000I243750J0D01*
G01*
G37*
%TD*%
%TO.C,R6*%
G36*
G01*
X140918750Y-75450000D02*
X141481250Y-75450000D01*
G75*
G02*
X141725000Y-75693750I0J-243750D01*
G01*
X141725000Y-76181250D01*
G75*
G02*
X141481250Y-76425000I-243750J0D01*
G01*
X140918750Y-76425000D01*
G75*
G02*
X140675000Y-76181250I0J243750D01*
G01*
X140675000Y-75693750D01*
G75*
G02*
X140918750Y-75450000I243750J0D01*
G01*
G37*
G36*
G01*
X140918750Y-73875000D02*
X141481250Y-73875000D01*
G75*
G02*
X141725000Y-74118750I0J-243750D01*
G01*
X141725000Y-74606250D01*
G75*
G02*
X141481250Y-74850000I-243750J0D01*
G01*
X140918750Y-74850000D01*
G75*
G02*
X140675000Y-74606250I0J243750D01*
G01*
X140675000Y-74118750D01*
G75*
G02*
X140918750Y-73875000I243750J0D01*
G01*
G37*
%TD*%
%TO.C,R5*%
G36*
G01*
X140918750Y-79450000D02*
X141481250Y-79450000D01*
G75*
G02*
X141725000Y-79693750I0J-243750D01*
G01*
X141725000Y-80181250D01*
G75*
G02*
X141481250Y-80425000I-243750J0D01*
G01*
X140918750Y-80425000D01*
G75*
G02*
X140675000Y-80181250I0J243750D01*
G01*
X140675000Y-79693750D01*
G75*
G02*
X140918750Y-79450000I243750J0D01*
G01*
G37*
G36*
G01*
X140918750Y-77875000D02*
X141481250Y-77875000D01*
G75*
G02*
X141725000Y-78118750I0J-243750D01*
G01*
X141725000Y-78606250D01*
G75*
G02*
X141481250Y-78850000I-243750J0D01*
G01*
X140918750Y-78850000D01*
G75*
G02*
X140675000Y-78606250I0J243750D01*
G01*
X140675000Y-78118750D01*
G75*
G02*
X140918750Y-77875000I243750J0D01*
G01*
G37*
%TD*%
%TO.C,R1*%
G36*
G01*
X182487500Y-130718750D02*
X182487500Y-131281250D01*
G75*
G02*
X182243750Y-131525000I-243750J0D01*
G01*
X181756250Y-131525000D01*
G75*
G02*
X181512500Y-131281250I0J243750D01*
G01*
X181512500Y-130718750D01*
G75*
G02*
X181756250Y-130475000I243750J0D01*
G01*
X182243750Y-130475000D01*
G75*
G02*
X182487500Y-130718750I0J-243750D01*
G01*
G37*
G36*
G01*
X184062500Y-130718750D02*
X184062500Y-131281250D01*
G75*
G02*
X183818750Y-131525000I-243750J0D01*
G01*
X183331250Y-131525000D01*
G75*
G02*
X183087500Y-131281250I0J243750D01*
G01*
X183087500Y-130718750D01*
G75*
G02*
X183331250Y-130475000I243750J0D01*
G01*
X183818750Y-130475000D01*
G75*
G02*
X184062500Y-130718750I0J-243750D01*
G01*
G37*
%TD*%
D30*
%TO.C,J3*%
X141500000Y-97200000D03*
X137500000Y-97200000D03*
D19*
X144800000Y-97000000D03*
D31*
X143250000Y-94000000D03*
X143250000Y-101600000D03*
X137250000Y-101600000D03*
X137250000Y-94000000D03*
%TD*%
%TO.C,D3*%
G36*
G01*
X136681250Y-70750000D02*
X135718750Y-70750000D01*
G75*
G02*
X135450000Y-70481250I0J268750D01*
G01*
X135450000Y-69943750D01*
G75*
G02*
X135718750Y-69675000I268750J0D01*
G01*
X136681250Y-69675000D01*
G75*
G02*
X136950000Y-69943750I0J-268750D01*
G01*
X136950000Y-70481250D01*
G75*
G02*
X136681250Y-70750000I-268750J0D01*
G01*
G37*
G36*
G01*
X136681250Y-72625000D02*
X135718750Y-72625000D01*
G75*
G02*
X135450000Y-72356250I0J268750D01*
G01*
X135450000Y-71818750D01*
G75*
G02*
X135718750Y-71550000I268750J0D01*
G01*
X136681250Y-71550000D01*
G75*
G02*
X136950000Y-71818750I0J-268750D01*
G01*
X136950000Y-72356250D01*
G75*
G02*
X136681250Y-72625000I-268750J0D01*
G01*
G37*
%TD*%
%TO.C,D2*%
G36*
G01*
X136681250Y-74750000D02*
X135718750Y-74750000D01*
G75*
G02*
X135450000Y-74481250I0J268750D01*
G01*
X135450000Y-73943750D01*
G75*
G02*
X135718750Y-73675000I268750J0D01*
G01*
X136681250Y-73675000D01*
G75*
G02*
X136950000Y-73943750I0J-268750D01*
G01*
X136950000Y-74481250D01*
G75*
G02*
X136681250Y-74750000I-268750J0D01*
G01*
G37*
G36*
G01*
X136681250Y-76625000D02*
X135718750Y-76625000D01*
G75*
G02*
X135450000Y-76356250I0J268750D01*
G01*
X135450000Y-75818750D01*
G75*
G02*
X135718750Y-75550000I268750J0D01*
G01*
X136681250Y-75550000D01*
G75*
G02*
X136950000Y-75818750I0J-268750D01*
G01*
X136950000Y-76356250D01*
G75*
G02*
X136681250Y-76625000I-268750J0D01*
G01*
G37*
%TD*%
%TO.C,D1*%
G36*
G01*
X136681250Y-78750000D02*
X135718750Y-78750000D01*
G75*
G02*
X135450000Y-78481250I0J268750D01*
G01*
X135450000Y-77943750D01*
G75*
G02*
X135718750Y-77675000I268750J0D01*
G01*
X136681250Y-77675000D01*
G75*
G02*
X136950000Y-77943750I0J-268750D01*
G01*
X136950000Y-78481250D01*
G75*
G02*
X136681250Y-78750000I-268750J0D01*
G01*
G37*
G36*
G01*
X136681250Y-80625000D02*
X135718750Y-80625000D01*
G75*
G02*
X135450000Y-80356250I0J268750D01*
G01*
X135450000Y-79818750D01*
G75*
G02*
X135718750Y-79550000I268750J0D01*
G01*
X136681250Y-79550000D01*
G75*
G02*
X136950000Y-79818750I0J-268750D01*
G01*
X136950000Y-80356250D01*
G75*
G02*
X136681250Y-80625000I-268750J0D01*
G01*
G37*
%TD*%
%TO.C,C39*%
G36*
G01*
X188781250Y-68912500D02*
X188218750Y-68912500D01*
G75*
G02*
X187975000Y-68668750I0J243750D01*
G01*
X187975000Y-68181250D01*
G75*
G02*
X188218750Y-67937500I243750J0D01*
G01*
X188781250Y-67937500D01*
G75*
G02*
X189025000Y-68181250I0J-243750D01*
G01*
X189025000Y-68668750D01*
G75*
G02*
X188781250Y-68912500I-243750J0D01*
G01*
G37*
G36*
G01*
X188781250Y-70487500D02*
X188218750Y-70487500D01*
G75*
G02*
X187975000Y-70243750I0J243750D01*
G01*
X187975000Y-69756250D01*
G75*
G02*
X188218750Y-69512500I243750J0D01*
G01*
X188781250Y-69512500D01*
G75*
G02*
X189025000Y-69756250I0J-243750D01*
G01*
X189025000Y-70243750D01*
G75*
G02*
X188781250Y-70487500I-243750J0D01*
G01*
G37*
%TD*%
%TO.C,C35*%
G36*
G01*
X169781250Y-68487500D02*
X169218750Y-68487500D01*
G75*
G02*
X168975000Y-68243750I0J243750D01*
G01*
X168975000Y-67756250D01*
G75*
G02*
X169218750Y-67512500I243750J0D01*
G01*
X169781250Y-67512500D01*
G75*
G02*
X170025000Y-67756250I0J-243750D01*
G01*
X170025000Y-68243750D01*
G75*
G02*
X169781250Y-68487500I-243750J0D01*
G01*
G37*
G36*
G01*
X169781250Y-70062500D02*
X169218750Y-70062500D01*
G75*
G02*
X168975000Y-69818750I0J243750D01*
G01*
X168975000Y-69331250D01*
G75*
G02*
X169218750Y-69087500I243750J0D01*
G01*
X169781250Y-69087500D01*
G75*
G02*
X170025000Y-69331250I0J-243750D01*
G01*
X170025000Y-69818750D01*
G75*
G02*
X169781250Y-70062500I-243750J0D01*
G01*
G37*
%TD*%
%TO.C,C8*%
G36*
G01*
X178012500Y-85718750D02*
X178012500Y-86281250D01*
G75*
G02*
X177768750Y-86525000I-243750J0D01*
G01*
X177281250Y-86525000D01*
G75*
G02*
X177037500Y-86281250I0J243750D01*
G01*
X177037500Y-85718750D01*
G75*
G02*
X177281250Y-85475000I243750J0D01*
G01*
X177768750Y-85475000D01*
G75*
G02*
X178012500Y-85718750I0J-243750D01*
G01*
G37*
G36*
G01*
X179587500Y-85718750D02*
X179587500Y-86281250D01*
G75*
G02*
X179343750Y-86525000I-243750J0D01*
G01*
X178856250Y-86525000D01*
G75*
G02*
X178612500Y-86281250I0J243750D01*
G01*
X178612500Y-85718750D01*
G75*
G02*
X178856250Y-85475000I243750J0D01*
G01*
X179343750Y-85475000D01*
G75*
G02*
X179587500Y-85718750I0J-243750D01*
G01*
G37*
%TD*%
%TO.C,C7*%
G36*
G01*
X149800000Y-113918750D02*
X149800000Y-114481250D01*
G75*
G02*
X149556250Y-114725000I-243750J0D01*
G01*
X149068750Y-114725000D01*
G75*
G02*
X148825000Y-114481250I0J243750D01*
G01*
X148825000Y-113918750D01*
G75*
G02*
X149068750Y-113675000I243750J0D01*
G01*
X149556250Y-113675000D01*
G75*
G02*
X149800000Y-113918750I0J-243750D01*
G01*
G37*
G36*
G01*
X151375000Y-113918750D02*
X151375000Y-114481250D01*
G75*
G02*
X151131250Y-114725000I-243750J0D01*
G01*
X150643750Y-114725000D01*
G75*
G02*
X150400000Y-114481250I0J243750D01*
G01*
X150400000Y-113918750D01*
G75*
G02*
X150643750Y-113675000I243750J0D01*
G01*
X151131250Y-113675000D01*
G75*
G02*
X151375000Y-113918750I0J-243750D01*
G01*
G37*
%TD*%
%TO.C,C5*%
G36*
G01*
X151800000Y-94234375D02*
X151800000Y-93065625D01*
G75*
G02*
X152065625Y-92800000I265625J0D01*
G01*
X155134375Y-92800000D01*
G75*
G02*
X155400000Y-93065625I0J-265625D01*
G01*
X155400000Y-94234375D01*
G75*
G02*
X155134375Y-94500000I-265625J0D01*
G01*
X152065625Y-94500000D01*
G75*
G02*
X151800000Y-94234375I0J265625D01*
G01*
G37*
G36*
G01*
X146400000Y-94234375D02*
X146400000Y-93065625D01*
G75*
G02*
X146665625Y-92800000I265625J0D01*
G01*
X149734375Y-92800000D01*
G75*
G02*
X150000000Y-93065625I0J-265625D01*
G01*
X150000000Y-94234375D01*
G75*
G02*
X149734375Y-94500000I-265625J0D01*
G01*
X146665625Y-94500000D01*
G75*
G02*
X146400000Y-94234375I0J265625D01*
G01*
G37*
%TD*%
%TO.C,C4*%
G36*
G01*
X151800000Y-101734375D02*
X151800000Y-100565625D01*
G75*
G02*
X152065625Y-100300000I265625J0D01*
G01*
X155134375Y-100300000D01*
G75*
G02*
X155400000Y-100565625I0J-265625D01*
G01*
X155400000Y-101734375D01*
G75*
G02*
X155134375Y-102000000I-265625J0D01*
G01*
X152065625Y-102000000D01*
G75*
G02*
X151800000Y-101734375I0J265625D01*
G01*
G37*
G36*
G01*
X146400000Y-101734375D02*
X146400000Y-100565625D01*
G75*
G02*
X146665625Y-100300000I265625J0D01*
G01*
X149734375Y-100300000D01*
G75*
G02*
X150000000Y-100565625I0J-265625D01*
G01*
X150000000Y-101734375D01*
G75*
G02*
X149734375Y-102000000I-265625J0D01*
G01*
X146665625Y-102000000D01*
G75*
G02*
X146400000Y-101734375I0J265625D01*
G01*
G37*
%TD*%
%TO.C,C3*%
G36*
G01*
X142237500Y-104218750D02*
X142237500Y-104781250D01*
G75*
G02*
X141993750Y-105025000I-243750J0D01*
G01*
X141506250Y-105025000D01*
G75*
G02*
X141262500Y-104781250I0J243750D01*
G01*
X141262500Y-104218750D01*
G75*
G02*
X141506250Y-103975000I243750J0D01*
G01*
X141993750Y-103975000D01*
G75*
G02*
X142237500Y-104218750I0J-243750D01*
G01*
G37*
G36*
G01*
X143812500Y-104218750D02*
X143812500Y-104781250D01*
G75*
G02*
X143568750Y-105025000I-243750J0D01*
G01*
X143081250Y-105025000D01*
G75*
G02*
X142837500Y-104781250I0J243750D01*
G01*
X142837500Y-104218750D01*
G75*
G02*
X143081250Y-103975000I243750J0D01*
G01*
X143568750Y-103975000D01*
G75*
G02*
X143812500Y-104218750I0J-243750D01*
G01*
G37*
%TD*%
%TO.C,C2*%
G36*
G01*
X152218750Y-112512500D02*
X152781250Y-112512500D01*
G75*
G02*
X153025000Y-112756250I0J-243750D01*
G01*
X153025000Y-113243750D01*
G75*
G02*
X152781250Y-113487500I-243750J0D01*
G01*
X152218750Y-113487500D01*
G75*
G02*
X151975000Y-113243750I0J243750D01*
G01*
X151975000Y-112756250D01*
G75*
G02*
X152218750Y-112512500I243750J0D01*
G01*
G37*
G36*
G01*
X152218750Y-110937500D02*
X152781250Y-110937500D01*
G75*
G02*
X153025000Y-111181250I0J-243750D01*
G01*
X153025000Y-111668750D01*
G75*
G02*
X152781250Y-111912500I-243750J0D01*
G01*
X152218750Y-111912500D01*
G75*
G02*
X151975000Y-111668750I0J243750D01*
G01*
X151975000Y-111181250D01*
G75*
G02*
X152218750Y-110937500I243750J0D01*
G01*
G37*
%TD*%
%TO.C,C1*%
G36*
G01*
X148737500Y-83968750D02*
X148737500Y-84531250D01*
G75*
G02*
X148493750Y-84775000I-243750J0D01*
G01*
X148006250Y-84775000D01*
G75*
G02*
X147762500Y-84531250I0J243750D01*
G01*
X147762500Y-83968750D01*
G75*
G02*
X148006250Y-83725000I243750J0D01*
G01*
X148493750Y-83725000D01*
G75*
G02*
X148737500Y-83968750I0J-243750D01*
G01*
G37*
G36*
G01*
X150312500Y-83968750D02*
X150312500Y-84531250D01*
G75*
G02*
X150068750Y-84775000I-243750J0D01*
G01*
X149581250Y-84775000D01*
G75*
G02*
X149337500Y-84531250I0J243750D01*
G01*
X149337500Y-83968750D01*
G75*
G02*
X149581250Y-83725000I243750J0D01*
G01*
X150068750Y-83725000D01*
G75*
G02*
X150312500Y-83968750I0J-243750D01*
G01*
G37*
%TD*%
M02*
