%TF.GenerationSoftware,KiCad,Pcbnew,(5.1.6)-1*%
%TF.CreationDate,2020-10-26T13:42:29-06:00*%
%TF.ProjectId,DDS,4444532e-6b69-4636-9164-5f7063625858,rev?*%
%TF.SameCoordinates,Original*%
%TF.FileFunction,Soldermask,Bot*%
%TF.FilePolarity,Negative*%
%FSLAX46Y46*%
G04 Gerber Fmt 4.6, Leading zero omitted, Abs format (unit mm)*
G04 Created by KiCad (PCBNEW (5.1.6)-1) date 2020-10-26 13:42:29*
%MOMM*%
%LPD*%
G01*
G04 APERTURE LIST*
%ADD10C,0.100000*%
%ADD11C,0.150000*%
%ADD12C,0.300000*%
%ADD13C,0.400000*%
%ADD14C,3.300000*%
%ADD15R,1.450000X4.300000*%
%ADD16C,1.100000*%
%ADD17C,1.500000*%
%ADD18C,1.000000*%
%ADD19C,0.254000*%
G04 APERTURE END LIST*
D10*
D11*
X177002200Y-166007200D02*
X177002200Y-198007200D01*
X285002200Y-198007200D01*
X285002200Y-166007200D01*
X177002200Y-166007200D01*
D10*
D11*
X10000000Y-10000000D02*
X10000000Y-200007200D01*
X287002200Y-200007200D01*
X287002200Y-10000000D01*
X10000000Y-10000000D01*
D10*
D11*
X12000000Y-12000000D02*
X12000000Y-198007200D01*
X285002200Y-198007200D01*
X285002200Y-12000000D01*
X12000000Y-12000000D01*
D10*
D11*
X60000000Y-12000000D02*
X60000000Y-10000000D01*
D10*
D11*
X110000000Y-12000000D02*
X110000000Y-10000000D01*
D10*
D11*
X160000000Y-12000000D02*
X160000000Y-10000000D01*
D10*
D11*
X210000000Y-12000000D02*
X210000000Y-10000000D01*
D10*
D11*
X260000000Y-12000000D02*
X260000000Y-10000000D01*
D10*
D11*
X36065476Y-11588095D02*
X35322619Y-11588095D01*
X35694047Y-11588095D02*
X35694047Y-10288095D01*
X35570238Y-10473809D01*
X35446428Y-10597619D01*
X35322619Y-10659523D01*
D10*
D11*
X85322619Y-10411904D02*
X85384523Y-10350000D01*
X85508333Y-10288095D01*
X85817857Y-10288095D01*
X85941666Y-10350000D01*
X86003571Y-10411904D01*
X86065476Y-10535714D01*
X86065476Y-10659523D01*
X86003571Y-10845238D01*
X85260714Y-11588095D01*
X86065476Y-11588095D01*
D10*
D11*
X135260714Y-10288095D02*
X136065476Y-10288095D01*
X135632142Y-10783333D01*
X135817857Y-10783333D01*
X135941666Y-10845238D01*
X136003571Y-10907142D01*
X136065476Y-11030952D01*
X136065476Y-11340476D01*
X136003571Y-11464285D01*
X135941666Y-11526190D01*
X135817857Y-11588095D01*
X135446428Y-11588095D01*
X135322619Y-11526190D01*
X135260714Y-11464285D01*
D10*
D11*
X185941666Y-10721428D02*
X185941666Y-11588095D01*
X185632142Y-10226190D02*
X185322619Y-11154761D01*
X186127380Y-11154761D01*
D10*
D11*
X236003571Y-10288095D02*
X235384523Y-10288095D01*
X235322619Y-10907142D01*
X235384523Y-10845238D01*
X235508333Y-10783333D01*
X235817857Y-10783333D01*
X235941666Y-10845238D01*
X236003571Y-10907142D01*
X236065476Y-11030952D01*
X236065476Y-11340476D01*
X236003571Y-11464285D01*
X235941666Y-11526190D01*
X235817857Y-11588095D01*
X235508333Y-11588095D01*
X235384523Y-11526190D01*
X235322619Y-11464285D01*
D10*
D11*
X285941666Y-10288095D02*
X285694047Y-10288095D01*
X285570238Y-10350000D01*
X285508333Y-10411904D01*
X285384523Y-10597619D01*
X285322619Y-10845238D01*
X285322619Y-11340476D01*
X285384523Y-11464285D01*
X285446428Y-11526190D01*
X285570238Y-11588095D01*
X285817857Y-11588095D01*
X285941666Y-11526190D01*
X286003571Y-11464285D01*
X286065476Y-11340476D01*
X286065476Y-11030952D01*
X286003571Y-10907142D01*
X285941666Y-10845238D01*
X285817857Y-10783333D01*
X285570238Y-10783333D01*
X285446428Y-10845238D01*
X285384523Y-10907142D01*
X285322619Y-11030952D01*
D10*
D11*
X60000000Y-198007200D02*
X60000000Y-200007200D01*
D10*
D11*
X110000000Y-198007200D02*
X110000000Y-200007200D01*
D10*
D11*
X160000000Y-198007200D02*
X160000000Y-200007200D01*
D10*
D11*
X210000000Y-198007200D02*
X210000000Y-200007200D01*
D10*
D11*
X260000000Y-198007200D02*
X260000000Y-200007200D01*
D10*
D11*
X36065476Y-199595295D02*
X35322619Y-199595295D01*
X35694047Y-199595295D02*
X35694047Y-198295295D01*
X35570238Y-198481009D01*
X35446428Y-198604819D01*
X35322619Y-198666723D01*
D10*
D11*
X85322619Y-198419104D02*
X85384523Y-198357200D01*
X85508333Y-198295295D01*
X85817857Y-198295295D01*
X85941666Y-198357200D01*
X86003571Y-198419104D01*
X86065476Y-198542914D01*
X86065476Y-198666723D01*
X86003571Y-198852438D01*
X85260714Y-199595295D01*
X86065476Y-199595295D01*
D10*
D11*
X135260714Y-198295295D02*
X136065476Y-198295295D01*
X135632142Y-198790533D01*
X135817857Y-198790533D01*
X135941666Y-198852438D01*
X136003571Y-198914342D01*
X136065476Y-199038152D01*
X136065476Y-199347676D01*
X136003571Y-199471485D01*
X135941666Y-199533390D01*
X135817857Y-199595295D01*
X135446428Y-199595295D01*
X135322619Y-199533390D01*
X135260714Y-199471485D01*
D10*
D11*
X185941666Y-198728628D02*
X185941666Y-199595295D01*
X185632142Y-198233390D02*
X185322619Y-199161961D01*
X186127380Y-199161961D01*
D10*
D11*
X236003571Y-198295295D02*
X235384523Y-198295295D01*
X235322619Y-198914342D01*
X235384523Y-198852438D01*
X235508333Y-198790533D01*
X235817857Y-198790533D01*
X235941666Y-198852438D01*
X236003571Y-198914342D01*
X236065476Y-199038152D01*
X236065476Y-199347676D01*
X236003571Y-199471485D01*
X235941666Y-199533390D01*
X235817857Y-199595295D01*
X235508333Y-199595295D01*
X235384523Y-199533390D01*
X235322619Y-199471485D01*
D10*
D11*
X285941666Y-198295295D02*
X285694047Y-198295295D01*
X285570238Y-198357200D01*
X285508333Y-198419104D01*
X285384523Y-198604819D01*
X285322619Y-198852438D01*
X285322619Y-199347676D01*
X285384523Y-199471485D01*
X285446428Y-199533390D01*
X285570238Y-199595295D01*
X285817857Y-199595295D01*
X285941666Y-199533390D01*
X286003571Y-199471485D01*
X286065476Y-199347676D01*
X286065476Y-199038152D01*
X286003571Y-198914342D01*
X285941666Y-198852438D01*
X285817857Y-198790533D01*
X285570238Y-198790533D01*
X285446428Y-198852438D01*
X285384523Y-198914342D01*
X285322619Y-199038152D01*
D10*
D11*
X10000000Y-60000000D02*
X12000000Y-60000000D01*
D10*
D11*
X10000000Y-110000000D02*
X12000000Y-110000000D01*
D10*
D11*
X10000000Y-160000000D02*
X12000000Y-160000000D01*
D10*
D11*
X10690476Y-35216666D02*
X11309523Y-35216666D01*
X10566666Y-35588095D02*
X11000000Y-34288095D01*
X11433333Y-35588095D01*
D10*
D11*
X11092857Y-84907142D02*
X11278571Y-84969047D01*
X11340476Y-85030952D01*
X11402380Y-85154761D01*
X11402380Y-85340476D01*
X11340476Y-85464285D01*
X11278571Y-85526190D01*
X11154761Y-85588095D01*
X10659523Y-85588095D01*
X10659523Y-84288095D01*
X11092857Y-84288095D01*
X11216666Y-84350000D01*
X11278571Y-84411904D01*
X11340476Y-84535714D01*
X11340476Y-84659523D01*
X11278571Y-84783333D01*
X11216666Y-84845238D01*
X11092857Y-84907142D01*
X10659523Y-84907142D01*
D10*
D11*
X11402380Y-135464285D02*
X11340476Y-135526190D01*
X11154761Y-135588095D01*
X11030952Y-135588095D01*
X10845238Y-135526190D01*
X10721428Y-135402380D01*
X10659523Y-135278571D01*
X10597619Y-135030952D01*
X10597619Y-134845238D01*
X10659523Y-134597619D01*
X10721428Y-134473809D01*
X10845238Y-134350000D01*
X11030952Y-134288095D01*
X11154761Y-134288095D01*
X11340476Y-134350000D01*
X11402380Y-134411904D01*
D10*
D11*
X10659523Y-185588095D02*
X10659523Y-184288095D01*
X10969047Y-184288095D01*
X11154761Y-184350000D01*
X11278571Y-184473809D01*
X11340476Y-184597619D01*
X11402380Y-184845238D01*
X11402380Y-185030952D01*
X11340476Y-185278571D01*
X11278571Y-185402380D01*
X11154761Y-185526190D01*
X10969047Y-185588095D01*
X10659523Y-185588095D01*
D10*
D11*
X287002200Y-60000000D02*
X285002200Y-60000000D01*
D10*
D11*
X287002200Y-110000000D02*
X285002200Y-110000000D01*
D10*
D11*
X287002200Y-160000000D02*
X285002200Y-160000000D01*
D10*
D11*
X285692676Y-35216666D02*
X286311723Y-35216666D01*
X285568866Y-35588095D02*
X286002200Y-34288095D01*
X286435533Y-35588095D01*
D10*
D11*
X286095057Y-84907142D02*
X286280771Y-84969047D01*
X286342676Y-85030952D01*
X286404580Y-85154761D01*
X286404580Y-85340476D01*
X286342676Y-85464285D01*
X286280771Y-85526190D01*
X286156961Y-85588095D01*
X285661723Y-85588095D01*
X285661723Y-84288095D01*
X286095057Y-84288095D01*
X286218866Y-84350000D01*
X286280771Y-84411904D01*
X286342676Y-84535714D01*
X286342676Y-84659523D01*
X286280771Y-84783333D01*
X286218866Y-84845238D01*
X286095057Y-84907142D01*
X285661723Y-84907142D01*
D10*
D11*
X286404580Y-135464285D02*
X286342676Y-135526190D01*
X286156961Y-135588095D01*
X286033152Y-135588095D01*
X285847438Y-135526190D01*
X285723628Y-135402380D01*
X285661723Y-135278571D01*
X285599819Y-135030952D01*
X285599819Y-134845238D01*
X285661723Y-134597619D01*
X285723628Y-134473809D01*
X285847438Y-134350000D01*
X286033152Y-134288095D01*
X286156961Y-134288095D01*
X286342676Y-134350000D01*
X286404580Y-134411904D01*
D10*
D11*
X285661723Y-185588095D02*
X285661723Y-184288095D01*
X285971247Y-184288095D01*
X286156961Y-184350000D01*
X286280771Y-184473809D01*
X286342676Y-184597619D01*
X286404580Y-184845238D01*
X286404580Y-185030952D01*
X286342676Y-185278571D01*
X286280771Y-185402380D01*
X286156961Y-185526190D01*
X285971247Y-185588095D01*
X285661723Y-185588095D01*
D10*
D11*
X200434342Y-193785771D02*
X200434342Y-192285771D01*
X200791485Y-192285771D01*
X201005771Y-192357200D01*
X201148628Y-192500057D01*
X201220057Y-192642914D01*
X201291485Y-192928628D01*
X201291485Y-193142914D01*
X201220057Y-193428628D01*
X201148628Y-193571485D01*
X201005771Y-193714342D01*
X200791485Y-193785771D01*
X200434342Y-193785771D01*
X202577200Y-193785771D02*
X202577200Y-193000057D01*
X202505771Y-192857200D01*
X202362914Y-192785771D01*
X202077200Y-192785771D01*
X201934342Y-192857200D01*
X202577200Y-193714342D02*
X202434342Y-193785771D01*
X202077200Y-193785771D01*
X201934342Y-193714342D01*
X201862914Y-193571485D01*
X201862914Y-193428628D01*
X201934342Y-193285771D01*
X202077200Y-193214342D01*
X202434342Y-193214342D01*
X202577200Y-193142914D01*
X203077200Y-192785771D02*
X203648628Y-192785771D01*
X203291485Y-192285771D02*
X203291485Y-193571485D01*
X203362914Y-193714342D01*
X203505771Y-193785771D01*
X203648628Y-193785771D01*
X204720057Y-193714342D02*
X204577200Y-193785771D01*
X204291485Y-193785771D01*
X204148628Y-193714342D01*
X204077200Y-193571485D01*
X204077200Y-193000057D01*
X204148628Y-192857200D01*
X204291485Y-192785771D01*
X204577200Y-192785771D01*
X204720057Y-192857200D01*
X204791485Y-193000057D01*
X204791485Y-193142914D01*
X204077200Y-193285771D01*
X205434342Y-193642914D02*
X205505771Y-193714342D01*
X205434342Y-193785771D01*
X205362914Y-193714342D01*
X205434342Y-193642914D01*
X205434342Y-193785771D01*
X205434342Y-192857200D02*
X205505771Y-192928628D01*
X205434342Y-193000057D01*
X205362914Y-192928628D01*
X205434342Y-192857200D01*
X205434342Y-193000057D01*
D10*
D11*
X177002200Y-194507200D02*
X285002200Y-194507200D01*
D10*
D11*
X178434342Y-196585771D02*
X178434342Y-195085771D01*
X179291485Y-196585771D02*
X178648628Y-195728628D01*
X179291485Y-195085771D02*
X178434342Y-195942914D01*
X179934342Y-196585771D02*
X179934342Y-195585771D01*
X179934342Y-195085771D02*
X179862914Y-195157200D01*
X179934342Y-195228628D01*
X180005771Y-195157200D01*
X179934342Y-195085771D01*
X179934342Y-195228628D01*
X181505771Y-196442914D02*
X181434342Y-196514342D01*
X181220057Y-196585771D01*
X181077200Y-196585771D01*
X180862914Y-196514342D01*
X180720057Y-196371485D01*
X180648628Y-196228628D01*
X180577200Y-195942914D01*
X180577200Y-195728628D01*
X180648628Y-195442914D01*
X180720057Y-195300057D01*
X180862914Y-195157200D01*
X181077200Y-195085771D01*
X181220057Y-195085771D01*
X181434342Y-195157200D01*
X181505771Y-195228628D01*
X182791485Y-196585771D02*
X182791485Y-195800057D01*
X182720057Y-195657200D01*
X182577200Y-195585771D01*
X182291485Y-195585771D01*
X182148628Y-195657200D01*
X182791485Y-196514342D02*
X182648628Y-196585771D01*
X182291485Y-196585771D01*
X182148628Y-196514342D01*
X182077200Y-196371485D01*
X182077200Y-196228628D01*
X182148628Y-196085771D01*
X182291485Y-196014342D01*
X182648628Y-196014342D01*
X182791485Y-195942914D01*
X184148628Y-196585771D02*
X184148628Y-195085771D01*
X184148628Y-196514342D02*
X184005771Y-196585771D01*
X183720057Y-196585771D01*
X183577200Y-196514342D01*
X183505771Y-196442914D01*
X183434342Y-196300057D01*
X183434342Y-195871485D01*
X183505771Y-195728628D01*
X183577200Y-195657200D01*
X183720057Y-195585771D01*
X184005771Y-195585771D01*
X184148628Y-195657200D01*
X186005771Y-195800057D02*
X186505771Y-195800057D01*
X186720057Y-196585771D02*
X186005771Y-196585771D01*
X186005771Y-195085771D01*
X186720057Y-195085771D01*
X187362914Y-196442914D02*
X187434342Y-196514342D01*
X187362914Y-196585771D01*
X187291485Y-196514342D01*
X187362914Y-196442914D01*
X187362914Y-196585771D01*
X188077200Y-196585771D02*
X188077200Y-195085771D01*
X188434342Y-195085771D01*
X188648628Y-195157200D01*
X188791485Y-195300057D01*
X188862914Y-195442914D01*
X188934342Y-195728628D01*
X188934342Y-195942914D01*
X188862914Y-196228628D01*
X188791485Y-196371485D01*
X188648628Y-196514342D01*
X188434342Y-196585771D01*
X188077200Y-196585771D01*
X189577200Y-196442914D02*
X189648628Y-196514342D01*
X189577200Y-196585771D01*
X189505771Y-196514342D01*
X189577200Y-196442914D01*
X189577200Y-196585771D01*
X190220057Y-196157200D02*
X190934342Y-196157200D01*
X190077200Y-196585771D02*
X190577200Y-195085771D01*
X191077200Y-196585771D01*
X191577200Y-196442914D02*
X191648628Y-196514342D01*
X191577200Y-196585771D01*
X191505771Y-196514342D01*
X191577200Y-196442914D01*
X191577200Y-196585771D01*
X194577200Y-196585771D02*
X194577200Y-195085771D01*
X194720057Y-196014342D02*
X195148628Y-196585771D01*
X195148628Y-195585771D02*
X194577200Y-196157200D01*
X195791485Y-196585771D02*
X195791485Y-195585771D01*
X195791485Y-195085771D02*
X195720057Y-195157200D01*
X195791485Y-195228628D01*
X195862914Y-195157200D01*
X195791485Y-195085771D01*
X195791485Y-195228628D01*
X197148628Y-196514342D02*
X197005771Y-196585771D01*
X196720057Y-196585771D01*
X196577200Y-196514342D01*
X196505771Y-196442914D01*
X196434342Y-196300057D01*
X196434342Y-195871485D01*
X196505771Y-195728628D01*
X196577200Y-195657200D01*
X196720057Y-195585771D01*
X197005771Y-195585771D01*
X197148628Y-195657200D01*
X198434342Y-196585771D02*
X198434342Y-195800057D01*
X198362914Y-195657200D01*
X198220057Y-195585771D01*
X197934342Y-195585771D01*
X197791485Y-195657200D01*
X198434342Y-196514342D02*
X198291485Y-196585771D01*
X197934342Y-196585771D01*
X197791485Y-196514342D01*
X197720057Y-196371485D01*
X197720057Y-196228628D01*
X197791485Y-196085771D01*
X197934342Y-196014342D01*
X198291485Y-196014342D01*
X198434342Y-195942914D01*
X199791485Y-196585771D02*
X199791485Y-195085771D01*
X199791485Y-196514342D02*
X199648628Y-196585771D01*
X199362914Y-196585771D01*
X199220057Y-196514342D01*
X199148628Y-196442914D01*
X199077200Y-196300057D01*
X199077200Y-195871485D01*
X199148628Y-195728628D01*
X199220057Y-195657200D01*
X199362914Y-195585771D01*
X199648628Y-195585771D01*
X199791485Y-195657200D01*
X202077200Y-197157200D02*
X202005771Y-197085771D01*
X201862914Y-196871485D01*
X201791485Y-196728628D01*
X201720057Y-196514342D01*
X201648628Y-196157200D01*
X201648628Y-195871485D01*
X201720057Y-195514342D01*
X201791485Y-195300057D01*
X201862914Y-195157200D01*
X202005771Y-194942914D01*
X202077200Y-194871485D01*
X203362914Y-195085771D02*
X202648628Y-195085771D01*
X202577200Y-195800057D01*
X202648628Y-195728628D01*
X202791485Y-195657200D01*
X203148628Y-195657200D01*
X203291485Y-195728628D01*
X203362914Y-195800057D01*
X203434342Y-195942914D01*
X203434342Y-196300057D01*
X203362914Y-196442914D01*
X203291485Y-196514342D01*
X203148628Y-196585771D01*
X202791485Y-196585771D01*
X202648628Y-196514342D01*
X202577200Y-196442914D01*
X204077200Y-196442914D02*
X204148628Y-196514342D01*
X204077200Y-196585771D01*
X204005771Y-196514342D01*
X204077200Y-196442914D01*
X204077200Y-196585771D01*
X205577200Y-196585771D02*
X204720057Y-196585771D01*
X205148628Y-196585771D02*
X205148628Y-195085771D01*
X205005771Y-195300057D01*
X204862914Y-195442914D01*
X204720057Y-195514342D01*
X206220057Y-196442914D02*
X206291485Y-196514342D01*
X206220057Y-196585771D01*
X206148628Y-196514342D01*
X206220057Y-196442914D01*
X206220057Y-196585771D01*
X207577200Y-195085771D02*
X207291485Y-195085771D01*
X207148628Y-195157200D01*
X207077200Y-195228628D01*
X206934342Y-195442914D01*
X206862914Y-195728628D01*
X206862914Y-196300057D01*
X206934342Y-196442914D01*
X207005771Y-196514342D01*
X207148628Y-196585771D01*
X207434342Y-196585771D01*
X207577200Y-196514342D01*
X207648628Y-196442914D01*
X207720057Y-196300057D01*
X207720057Y-195942914D01*
X207648628Y-195800057D01*
X207577200Y-195728628D01*
X207434342Y-195657200D01*
X207148628Y-195657200D01*
X207005771Y-195728628D01*
X206934342Y-195800057D01*
X206862914Y-195942914D01*
X208220057Y-197157200D02*
X208291485Y-197085771D01*
X208434342Y-196871485D01*
X208505771Y-196728628D01*
X208577200Y-196514342D01*
X208648628Y-196157200D01*
X208648628Y-195871485D01*
X208577200Y-195514342D01*
X208505771Y-195300057D01*
X208434342Y-195157200D01*
X208291485Y-194942914D01*
X208220057Y-194871485D01*
X209362914Y-196014342D02*
X210505771Y-196014342D01*
X212005771Y-196585771D02*
X211148628Y-196585771D01*
X211577200Y-196585771D02*
X211577200Y-195085771D01*
X211434342Y-195300057D01*
X211291485Y-195442914D01*
X211148628Y-195514342D01*
D10*
D11*
X177002200Y-191507200D02*
X285002200Y-191507200D01*
D10*
D12*
X264411485Y-193785771D02*
X263911485Y-193071485D01*
X263554342Y-193785771D02*
X263554342Y-192285771D01*
X264125771Y-192285771D01*
X264268628Y-192357200D01*
X264340057Y-192428628D01*
X264411485Y-192571485D01*
X264411485Y-192785771D01*
X264340057Y-192928628D01*
X264268628Y-193000057D01*
X264125771Y-193071485D01*
X263554342Y-193071485D01*
X265625771Y-193714342D02*
X265482914Y-193785771D01*
X265197200Y-193785771D01*
X265054342Y-193714342D01*
X264982914Y-193571485D01*
X264982914Y-193000057D01*
X265054342Y-192857200D01*
X265197200Y-192785771D01*
X265482914Y-192785771D01*
X265625771Y-192857200D01*
X265697200Y-193000057D01*
X265697200Y-193142914D01*
X264982914Y-193285771D01*
X266197200Y-192785771D02*
X266554342Y-193785771D01*
X266911485Y-192785771D01*
X267482914Y-193642914D02*
X267554342Y-193714342D01*
X267482914Y-193785771D01*
X267411485Y-193714342D01*
X267482914Y-193642914D01*
X267482914Y-193785771D01*
X267482914Y-192857200D02*
X267554342Y-192928628D01*
X267482914Y-193000057D01*
X267411485Y-192928628D01*
X267482914Y-192857200D01*
X267482914Y-193000057D01*
D10*
D11*
X178362914Y-193714342D02*
X178577200Y-193785771D01*
X178934342Y-193785771D01*
X179077200Y-193714342D01*
X179148628Y-193642914D01*
X179220057Y-193500057D01*
X179220057Y-193357200D01*
X179148628Y-193214342D01*
X179077200Y-193142914D01*
X178934342Y-193071485D01*
X178648628Y-193000057D01*
X178505771Y-192928628D01*
X178434342Y-192857200D01*
X178362914Y-192714342D01*
X178362914Y-192571485D01*
X178434342Y-192428628D01*
X178505771Y-192357200D01*
X178648628Y-192285771D01*
X179005771Y-192285771D01*
X179220057Y-192357200D01*
X179862914Y-193785771D02*
X179862914Y-192785771D01*
X179862914Y-192285771D02*
X179791485Y-192357200D01*
X179862914Y-192428628D01*
X179934342Y-192357200D01*
X179862914Y-192285771D01*
X179862914Y-192428628D01*
X180434342Y-192785771D02*
X181220057Y-192785771D01*
X180434342Y-193785771D01*
X181220057Y-193785771D01*
X182362914Y-193714342D02*
X182220057Y-193785771D01*
X181934342Y-193785771D01*
X181791485Y-193714342D01*
X181720057Y-193571485D01*
X181720057Y-193000057D01*
X181791485Y-192857200D01*
X181934342Y-192785771D01*
X182220057Y-192785771D01*
X182362914Y-192857200D01*
X182434342Y-193000057D01*
X182434342Y-193142914D01*
X181720057Y-193285771D01*
X183077200Y-193642914D02*
X183148628Y-193714342D01*
X183077200Y-193785771D01*
X183005771Y-193714342D01*
X183077200Y-193642914D01*
X183077200Y-193785771D01*
X183077200Y-192857200D02*
X183148628Y-192928628D01*
X183077200Y-193000057D01*
X183005771Y-192928628D01*
X183077200Y-192857200D01*
X183077200Y-193000057D01*
X184862914Y-193357200D02*
X185577200Y-193357200D01*
X184720057Y-193785771D02*
X185220057Y-192285771D01*
X185720057Y-193785771D01*
X186862914Y-192785771D02*
X186862914Y-193785771D01*
X186505771Y-192214342D02*
X186148628Y-193285771D01*
X187077200Y-193285771D01*
D10*
D11*
X263434342Y-196585771D02*
X263434342Y-195085771D01*
X264791485Y-196585771D02*
X264791485Y-195085771D01*
X264791485Y-196514342D02*
X264648628Y-196585771D01*
X264362914Y-196585771D01*
X264220057Y-196514342D01*
X264148628Y-196442914D01*
X264077200Y-196300057D01*
X264077200Y-195871485D01*
X264148628Y-195728628D01*
X264220057Y-195657200D01*
X264362914Y-195585771D01*
X264648628Y-195585771D01*
X264791485Y-195657200D01*
X265505771Y-196442914D02*
X265577200Y-196514342D01*
X265505771Y-196585771D01*
X265434342Y-196514342D01*
X265505771Y-196442914D01*
X265505771Y-196585771D01*
X265505771Y-195657200D02*
X265577200Y-195728628D01*
X265505771Y-195800057D01*
X265434342Y-195728628D01*
X265505771Y-195657200D01*
X265505771Y-195800057D01*
X268148628Y-196585771D02*
X267291485Y-196585771D01*
X267720057Y-196585771D02*
X267720057Y-195085771D01*
X267577200Y-195300057D01*
X267434342Y-195442914D01*
X267291485Y-195514342D01*
X269862914Y-195014342D02*
X268577200Y-196942914D01*
X271148628Y-196585771D02*
X270291485Y-196585771D01*
X270720057Y-196585771D02*
X270720057Y-195085771D01*
X270577200Y-195300057D01*
X270434342Y-195442914D01*
X270291485Y-195514342D01*
D10*
D11*
X177002200Y-187507200D02*
X285002200Y-187507200D01*
D10*
D13*
X178714580Y-188211961D02*
X179857438Y-188211961D01*
X179036009Y-190211961D02*
X179286009Y-188211961D01*
X180274104Y-190211961D02*
X180440771Y-188878628D01*
X180524104Y-188211961D02*
X180416961Y-188307200D01*
X180500295Y-188402438D01*
X180607438Y-188307200D01*
X180524104Y-188211961D01*
X180500295Y-188402438D01*
X181107438Y-188878628D02*
X181869342Y-188878628D01*
X181476485Y-188211961D02*
X181262200Y-189926247D01*
X181333628Y-190116723D01*
X181512200Y-190211961D01*
X181702676Y-190211961D01*
X182655057Y-190211961D02*
X182476485Y-190116723D01*
X182405057Y-189926247D01*
X182619342Y-188211961D01*
X184190771Y-190116723D02*
X183988390Y-190211961D01*
X183607438Y-190211961D01*
X183428866Y-190116723D01*
X183357438Y-189926247D01*
X183452676Y-189164342D01*
X183571723Y-188973866D01*
X183774104Y-188878628D01*
X184155057Y-188878628D01*
X184333628Y-188973866D01*
X184405057Y-189164342D01*
X184381247Y-189354819D01*
X183405057Y-189545295D01*
X185155057Y-190021485D02*
X185238390Y-190116723D01*
X185131247Y-190211961D01*
X185047914Y-190116723D01*
X185155057Y-190021485D01*
X185131247Y-190211961D01*
X185286009Y-188973866D02*
X185369342Y-189069104D01*
X185262200Y-189164342D01*
X185178866Y-189069104D01*
X185286009Y-188973866D01*
X185262200Y-189164342D01*
D10*
D11*
X178934342Y-185600057D02*
X178434342Y-185600057D01*
X178434342Y-186385771D02*
X178434342Y-184885771D01*
X179148628Y-184885771D01*
X179720057Y-186385771D02*
X179720057Y-185385771D01*
X179720057Y-184885771D02*
X179648628Y-184957200D01*
X179720057Y-185028628D01*
X179791485Y-184957200D01*
X179720057Y-184885771D01*
X179720057Y-185028628D01*
X180648628Y-186385771D02*
X180505771Y-186314342D01*
X180434342Y-186171485D01*
X180434342Y-184885771D01*
X181791485Y-186314342D02*
X181648628Y-186385771D01*
X181362914Y-186385771D01*
X181220057Y-186314342D01*
X181148628Y-186171485D01*
X181148628Y-185600057D01*
X181220057Y-185457200D01*
X181362914Y-185385771D01*
X181648628Y-185385771D01*
X181791485Y-185457200D01*
X181862914Y-185600057D01*
X181862914Y-185742914D01*
X181148628Y-185885771D01*
X182505771Y-186242914D02*
X182577200Y-186314342D01*
X182505771Y-186385771D01*
X182434342Y-186314342D01*
X182505771Y-186242914D01*
X182505771Y-186385771D01*
X182505771Y-185457200D02*
X182577200Y-185528628D01*
X182505771Y-185600057D01*
X182434342Y-185528628D01*
X182505771Y-185457200D01*
X182505771Y-185600057D01*
X184362914Y-186385771D02*
X184362914Y-184885771D01*
X184720057Y-184885771D01*
X184934342Y-184957200D01*
X185077200Y-185100057D01*
X185148628Y-185242914D01*
X185220057Y-185528628D01*
X185220057Y-185742914D01*
X185148628Y-186028628D01*
X185077200Y-186171485D01*
X184934342Y-186314342D01*
X184720057Y-186385771D01*
X184362914Y-186385771D01*
X185862914Y-186385771D02*
X185862914Y-184885771D01*
X186220057Y-184885771D01*
X186434342Y-184957200D01*
X186577200Y-185100057D01*
X186648628Y-185242914D01*
X186720057Y-185528628D01*
X186720057Y-185742914D01*
X186648628Y-186028628D01*
X186577200Y-186171485D01*
X186434342Y-186314342D01*
X186220057Y-186385771D01*
X185862914Y-186385771D01*
X187291485Y-186314342D02*
X187505771Y-186385771D01*
X187862914Y-186385771D01*
X188005771Y-186314342D01*
X188077200Y-186242914D01*
X188148628Y-186100057D01*
X188148628Y-185957200D01*
X188077200Y-185814342D01*
X188005771Y-185742914D01*
X187862914Y-185671485D01*
X187577200Y-185600057D01*
X187434342Y-185528628D01*
X187362914Y-185457200D01*
X187291485Y-185314342D01*
X187291485Y-185171485D01*
X187362914Y-185028628D01*
X187434342Y-184957200D01*
X187577200Y-184885771D01*
X187934342Y-184885771D01*
X188148628Y-184957200D01*
X188791485Y-186242914D02*
X188862914Y-186314342D01*
X188791485Y-186385771D01*
X188720057Y-186314342D01*
X188791485Y-186242914D01*
X188791485Y-186385771D01*
X189505771Y-186385771D02*
X189505771Y-184885771D01*
X189648628Y-185814342D02*
X190077200Y-186385771D01*
X190077200Y-185385771D02*
X189505771Y-185957200D01*
X190720057Y-186385771D02*
X190720057Y-185385771D01*
X190720057Y-184885771D02*
X190648628Y-184957200D01*
X190720057Y-185028628D01*
X190791485Y-184957200D01*
X190720057Y-184885771D01*
X190720057Y-185028628D01*
X192077200Y-186314342D02*
X191934342Y-186385771D01*
X191648628Y-186385771D01*
X191505771Y-186314342D01*
X191434342Y-186242914D01*
X191362914Y-186100057D01*
X191362914Y-185671485D01*
X191434342Y-185528628D01*
X191505771Y-185457200D01*
X191648628Y-185385771D01*
X191934342Y-185385771D01*
X192077200Y-185457200D01*
X193362914Y-186385771D02*
X193362914Y-185600057D01*
X193291485Y-185457200D01*
X193148628Y-185385771D01*
X192862914Y-185385771D01*
X192720057Y-185457200D01*
X193362914Y-186314342D02*
X193220057Y-186385771D01*
X192862914Y-186385771D01*
X192720057Y-186314342D01*
X192648628Y-186171485D01*
X192648628Y-186028628D01*
X192720057Y-185885771D01*
X192862914Y-185814342D01*
X193220057Y-185814342D01*
X193362914Y-185742914D01*
X194720057Y-186385771D02*
X194720057Y-184885771D01*
X194720057Y-186314342D02*
X194577200Y-186385771D01*
X194291485Y-186385771D01*
X194148628Y-186314342D01*
X194077200Y-186242914D01*
X194005771Y-186100057D01*
X194005771Y-185671485D01*
X194077200Y-185528628D01*
X194148628Y-185457200D01*
X194291485Y-185385771D01*
X194577200Y-185385771D01*
X194720057Y-185457200D01*
X195077200Y-186528628D02*
X196220057Y-186528628D01*
X196577200Y-185385771D02*
X196577200Y-186885771D01*
X196577200Y-185457200D02*
X196720057Y-185385771D01*
X197005771Y-185385771D01*
X197148628Y-185457200D01*
X197220057Y-185528628D01*
X197291485Y-185671485D01*
X197291485Y-186100057D01*
X197220057Y-186242914D01*
X197148628Y-186314342D01*
X197005771Y-186385771D01*
X196720057Y-186385771D01*
X196577200Y-186314342D01*
X198577200Y-186314342D02*
X198434342Y-186385771D01*
X198148628Y-186385771D01*
X198005771Y-186314342D01*
X197934342Y-186242914D01*
X197862914Y-186100057D01*
X197862914Y-185671485D01*
X197934342Y-185528628D01*
X198005771Y-185457200D01*
X198148628Y-185385771D01*
X198434342Y-185385771D01*
X198577200Y-185457200D01*
X199220057Y-186385771D02*
X199220057Y-184885771D01*
X199220057Y-185457200D02*
X199362914Y-185385771D01*
X199648628Y-185385771D01*
X199791485Y-185457200D01*
X199862914Y-185528628D01*
X199934342Y-185671485D01*
X199934342Y-186100057D01*
X199862914Y-186242914D01*
X199791485Y-186314342D01*
X199648628Y-186385771D01*
X199362914Y-186385771D01*
X199220057Y-186314342D01*
D10*
D11*
X177002200Y-181507200D02*
X285002200Y-181507200D01*
D10*
D11*
X178362914Y-183614342D02*
X178577200Y-183685771D01*
X178934342Y-183685771D01*
X179077200Y-183614342D01*
X179148628Y-183542914D01*
X179220057Y-183400057D01*
X179220057Y-183257200D01*
X179148628Y-183114342D01*
X179077200Y-183042914D01*
X178934342Y-182971485D01*
X178648628Y-182900057D01*
X178505771Y-182828628D01*
X178434342Y-182757200D01*
X178362914Y-182614342D01*
X178362914Y-182471485D01*
X178434342Y-182328628D01*
X178505771Y-182257200D01*
X178648628Y-182185771D01*
X179005771Y-182185771D01*
X179220057Y-182257200D01*
X179862914Y-183685771D02*
X179862914Y-182185771D01*
X180505771Y-183685771D02*
X180505771Y-182900057D01*
X180434342Y-182757200D01*
X180291485Y-182685771D01*
X180077200Y-182685771D01*
X179934342Y-182757200D01*
X179862914Y-182828628D01*
X181791485Y-183614342D02*
X181648628Y-183685771D01*
X181362914Y-183685771D01*
X181220057Y-183614342D01*
X181148628Y-183471485D01*
X181148628Y-182900057D01*
X181220057Y-182757200D01*
X181362914Y-182685771D01*
X181648628Y-182685771D01*
X181791485Y-182757200D01*
X181862914Y-182900057D01*
X181862914Y-183042914D01*
X181148628Y-183185771D01*
X183077200Y-183614342D02*
X182934342Y-183685771D01*
X182648628Y-183685771D01*
X182505771Y-183614342D01*
X182434342Y-183471485D01*
X182434342Y-182900057D01*
X182505771Y-182757200D01*
X182648628Y-182685771D01*
X182934342Y-182685771D01*
X183077200Y-182757200D01*
X183148628Y-182900057D01*
X183148628Y-183042914D01*
X182434342Y-183185771D01*
X183577200Y-182685771D02*
X184148628Y-182685771D01*
X183791485Y-182185771D02*
X183791485Y-183471485D01*
X183862914Y-183614342D01*
X184005771Y-183685771D01*
X184148628Y-183685771D01*
X184648628Y-183542914D02*
X184720057Y-183614342D01*
X184648628Y-183685771D01*
X184577200Y-183614342D01*
X184648628Y-183542914D01*
X184648628Y-183685771D01*
X184648628Y-182757200D02*
X184720057Y-182828628D01*
X184648628Y-182900057D01*
X184577200Y-182828628D01*
X184648628Y-182757200D01*
X184648628Y-182900057D01*
D10*
D11*
X197002200Y-191507200D02*
X197002200Y-194507200D01*
D10*
D11*
X261002200Y-191507200D02*
X261002200Y-198007200D01*
D14*
%TO.C,REF\u002A\u002A*%
X107000000Y-120000000D03*
%TD*%
%TO.C,REF\u002A\u002A*%
X43000000Y-120000000D03*
%TD*%
%TO.C,REF\u002A\u002A*%
X107000000Y-157000000D03*
%TD*%
%TO.C,REF\u002A\u002A*%
X43000000Y-157000000D03*
%TD*%
%TO.C,REF\u002A\u002A*%
X43000000Y-63000000D03*
%TD*%
%TO.C,REF\u002A\u002A*%
X107000000Y-63000000D03*
%TD*%
%TO.C,J1*%
G36*
G01*
X93481011Y-110796807D02*
X93481011Y-110796807D01*
G75*
G02*
X92703193Y-110796807I-388909J388909D01*
G01*
X92703193Y-110796807D01*
G75*
G02*
X92703193Y-110018989I388909J388909D01*
G01*
X92703193Y-110018989D01*
G75*
G02*
X93481011Y-110018989I388909J-388909D01*
G01*
X93481011Y-110018989D01*
G75*
G02*
X93481011Y-110796807I-388909J-388909D01*
G01*
G37*
G36*
G01*
X92582986Y-111694832D02*
X92582986Y-111694832D01*
G75*
G02*
X91805168Y-111694832I-388909J388909D01*
G01*
X91805168Y-111694832D01*
G75*
G02*
X91805168Y-110917014I388909J388909D01*
G01*
X91805168Y-110917014D01*
G75*
G02*
X92582986Y-110917014I388909J-388909D01*
G01*
X92582986Y-110917014D01*
G75*
G02*
X92582986Y-111694832I-388909J-388909D01*
G01*
G37*
G36*
G01*
X91684960Y-112592858D02*
X91684960Y-112592858D01*
G75*
G02*
X90907142Y-112592858I-388909J388909D01*
G01*
X90907142Y-112592858D01*
G75*
G02*
X90907142Y-111815040I388909J388909D01*
G01*
X90907142Y-111815040D01*
G75*
G02*
X91684960Y-111815040I388909J-388909D01*
G01*
X91684960Y-111815040D01*
G75*
G02*
X91684960Y-112592858I-388909J-388909D01*
G01*
G37*
G36*
G01*
X90786935Y-113490883D02*
X90786935Y-113490883D01*
G75*
G02*
X90009117Y-113490883I-388909J388909D01*
G01*
X90009117Y-113490883D01*
G75*
G02*
X90009117Y-112713065I388909J388909D01*
G01*
X90009117Y-112713065D01*
G75*
G02*
X90786935Y-112713065I388909J-388909D01*
G01*
X90786935Y-112713065D01*
G75*
G02*
X90786935Y-113490883I-388909J-388909D01*
G01*
G37*
D10*
G36*
X90277817Y-114000000D02*
G01*
X89500000Y-114777817D01*
X88722183Y-114000000D01*
X89500000Y-113222183D01*
X90277817Y-114000000D01*
G37*
%TD*%
D15*
%TO.C,J6*%
X96175000Y-62150000D03*
X101825000Y-62150000D03*
%TD*%
%TO.C,J5*%
X72175000Y-62150000D03*
X77825000Y-62150000D03*
%TD*%
%TO.C,J4*%
X48175000Y-62150000D03*
X53825000Y-62150000D03*
%TD*%
D16*
%TO.C,D31*%
X67250000Y-103500000D03*
%TD*%
%TO.C,D15*%
X58750000Y-119000000D03*
%TD*%
%TO.C,D30*%
X65250000Y-104250000D03*
%TD*%
%TO.C,D14*%
X56750000Y-118000000D03*
%TD*%
%TO.C,D29*%
X67250000Y-105500000D03*
%TD*%
%TO.C,D13*%
X58750000Y-116750000D03*
%TD*%
%TO.C,D28*%
X63500000Y-106500000D03*
%TD*%
%TO.C,D12*%
X56750000Y-116000000D03*
%TD*%
%TO.C,D27*%
X67250000Y-107500000D03*
%TD*%
%TO.C,D11*%
X58500000Y-114750000D03*
%TD*%
%TO.C,D26*%
X64750000Y-108250000D03*
%TD*%
%TO.C,D10*%
X56750000Y-113500000D03*
%TD*%
%TO.C,D25*%
X67250000Y-109500000D03*
%TD*%
%TO.C,D9*%
X58750000Y-112500000D03*
%TD*%
%TO.C,D24*%
X63500000Y-110250000D03*
%TD*%
%TO.C,D8*%
X56750000Y-111500000D03*
%TD*%
%TO.C,D23*%
X65500000Y-111000000D03*
%TD*%
%TO.C,D7*%
X58750000Y-110250000D03*
%TD*%
%TO.C,D22*%
X64750000Y-114000000D03*
%TD*%
%TO.C,D6*%
X56750000Y-109250000D03*
%TD*%
%TO.C,D21*%
X66500000Y-115250000D03*
%TD*%
%TO.C,D5*%
X58500000Y-108250000D03*
%TD*%
%TO.C,D20*%
X63400000Y-115800000D03*
%TD*%
%TO.C,D4*%
X56750000Y-107250000D03*
%TD*%
%TO.C,D19*%
X67250000Y-117250000D03*
%TD*%
%TO.C,D3*%
X60500000Y-106500000D03*
%TD*%
%TO.C,D18*%
X64800000Y-117200000D03*
%TD*%
%TO.C,D2*%
X57750000Y-105250000D03*
%TD*%
%TO.C,D17*%
X67800000Y-119400000D03*
%TD*%
%TO.C,D1*%
X59500000Y-103750000D03*
%TD*%
%TO.C,D16*%
X66500000Y-121000000D03*
%TD*%
%TO.C,D0*%
X57000000Y-103250000D03*
%TD*%
%TO.C,TP49*%
X63250000Y-121000000D03*
%TD*%
%TO.C,TP48*%
X61200000Y-121000000D03*
%TD*%
%TO.C,TP47*%
X63200000Y-119000000D03*
%TD*%
%TO.C,TP46*%
X65250000Y-119400000D03*
%TD*%
%TO.C,TP45*%
X71750000Y-84500000D03*
%TD*%
%TO.C,TP44*%
X65800000Y-94200000D03*
%TD*%
%TO.C,TP43*%
X97750000Y-104000000D03*
%TD*%
%TO.C,TP42*%
X92600000Y-102600000D03*
%TD*%
%TO.C,TP41*%
X97750000Y-102000000D03*
%TD*%
%TO.C,TP40*%
X90600000Y-101800000D03*
%TD*%
%TO.C,TP39*%
X96000000Y-100200000D03*
%TD*%
%TO.C,LSC*%
X93400000Y-99800000D03*
%TD*%
%TO.C,TP37*%
X91400000Y-98800000D03*
%TD*%
%TO.C,TP36*%
X87600000Y-94600000D03*
%TD*%
%TO.C,TP35*%
X95000000Y-98000000D03*
%TD*%
%TO.C,TP34*%
X92600000Y-97000000D03*
%TD*%
%TO.C,~CE*%
X67000000Y-125500000D03*
%TD*%
%TO.C,TP32*%
X97750000Y-94500000D03*
%TD*%
%TO.C,TP31*%
X91800000Y-95000000D03*
%TD*%
%TO.C,TP30*%
X97600000Y-96600000D03*
%TD*%
%TO.C,TP29*%
X96800000Y-92400000D03*
%TD*%
%TO.C,TP28*%
X94000000Y-89500000D03*
%TD*%
%TO.C,TP27*%
X83500000Y-93250000D03*
%TD*%
%TO.C,TP26*%
X56200000Y-94250000D03*
%TD*%
%TO.C,A16*%
X86600000Y-96800000D03*
%TD*%
%TO.C,A15*%
X82600000Y-98600000D03*
%TD*%
%TO.C,A14*%
X83750000Y-95250000D03*
%TD*%
%TO.C,A13*%
X84400000Y-97200000D03*
%TD*%
%TO.C,A12*%
X57400000Y-97200000D03*
%TD*%
%TO.C,A11*%
X62000000Y-97500000D03*
%TD*%
%TO.C,A10*%
X56500000Y-99500000D03*
%TD*%
%TO.C,A9*%
X58750000Y-99500000D03*
%TD*%
%TO.C,A8*%
X58000000Y-101500000D03*
%TD*%
%TO.C,A7*%
X60750000Y-99750000D03*
%TD*%
%TO.C,A6*%
X88000000Y-98200000D03*
%TD*%
%TO.C,A5*%
X69500000Y-99250000D03*
%TD*%
%TO.C,A4*%
X67500000Y-100000000D03*
%TD*%
%TO.C,A3*%
X85600000Y-99600000D03*
%TD*%
%TO.C,A2*%
X85000000Y-101600000D03*
%TD*%
%TO.C,A1*%
X85250000Y-103750000D03*
%TD*%
%TO.C,A0*%
X87250000Y-103000000D03*
%TD*%
%TO.C,HSC*%
X60500000Y-114500000D03*
%TD*%
%TO.C,TP7*%
X97750000Y-99000000D03*
%TD*%
%TO.C,CS_MEM*%
X87200000Y-141400000D03*
%TD*%
%TO.C,CS_DAC*%
X87800000Y-136800000D03*
%TD*%
%TO.C,MISO*%
X86800000Y-144000000D03*
%TD*%
%TO.C,MOSI*%
X85200000Y-141400000D03*
%TD*%
%TO.C,TP2*%
X67600000Y-85400000D03*
%TD*%
%TO.C,SCK*%
X84600000Y-144000000D03*
%TD*%
%TO.C,RBIAS1*%
G36*
G01*
X61700000Y-83781250D02*
X61700000Y-83218750D01*
G75*
G02*
X61943750Y-82975000I243750J0D01*
G01*
X62431250Y-82975000D01*
G75*
G02*
X62675000Y-83218750I0J-243750D01*
G01*
X62675000Y-83781250D01*
G75*
G02*
X62431250Y-84025000I-243750J0D01*
G01*
X61943750Y-84025000D01*
G75*
G02*
X61700000Y-83781250I0J243750D01*
G01*
G37*
G36*
G01*
X60125000Y-83781250D02*
X60125000Y-83218750D01*
G75*
G02*
X60368750Y-82975000I243750J0D01*
G01*
X60856250Y-82975000D01*
G75*
G02*
X61100000Y-83218750I0J-243750D01*
G01*
X61100000Y-83781250D01*
G75*
G02*
X60856250Y-84025000I-243750J0D01*
G01*
X60368750Y-84025000D01*
G75*
G02*
X60125000Y-83781250I0J243750D01*
G01*
G37*
%TD*%
%TO.C,R20*%
G36*
G01*
X63218750Y-126012500D02*
X63781250Y-126012500D01*
G75*
G02*
X64025000Y-126256250I0J-243750D01*
G01*
X64025000Y-126743750D01*
G75*
G02*
X63781250Y-126987500I-243750J0D01*
G01*
X63218750Y-126987500D01*
G75*
G02*
X62975000Y-126743750I0J243750D01*
G01*
X62975000Y-126256250D01*
G75*
G02*
X63218750Y-126012500I243750J0D01*
G01*
G37*
G36*
G01*
X63218750Y-124437500D02*
X63781250Y-124437500D01*
G75*
G02*
X64025000Y-124681250I0J-243750D01*
G01*
X64025000Y-125168750D01*
G75*
G02*
X63781250Y-125412500I-243750J0D01*
G01*
X63218750Y-125412500D01*
G75*
G02*
X62975000Y-125168750I0J243750D01*
G01*
X62975000Y-124681250D01*
G75*
G02*
X63218750Y-124437500I243750J0D01*
G01*
G37*
%TD*%
%TO.C,R19*%
G36*
G01*
X67712500Y-83781250D02*
X67712500Y-83218750D01*
G75*
G02*
X67956250Y-82975000I243750J0D01*
G01*
X68443750Y-82975000D01*
G75*
G02*
X68687500Y-83218750I0J-243750D01*
G01*
X68687500Y-83781250D01*
G75*
G02*
X68443750Y-84025000I-243750J0D01*
G01*
X67956250Y-84025000D01*
G75*
G02*
X67712500Y-83781250I0J243750D01*
G01*
G37*
G36*
G01*
X66137500Y-83781250D02*
X66137500Y-83218750D01*
G75*
G02*
X66381250Y-82975000I243750J0D01*
G01*
X66868750Y-82975000D01*
G75*
G02*
X67112500Y-83218750I0J-243750D01*
G01*
X67112500Y-83781250D01*
G75*
G02*
X66868750Y-84025000I-243750J0D01*
G01*
X66381250Y-84025000D01*
G75*
G02*
X66137500Y-83781250I0J243750D01*
G01*
G37*
%TD*%
%TO.C,R15*%
G36*
G01*
X64718750Y-126012500D02*
X65281250Y-126012500D01*
G75*
G02*
X65525000Y-126256250I0J-243750D01*
G01*
X65525000Y-126743750D01*
G75*
G02*
X65281250Y-126987500I-243750J0D01*
G01*
X64718750Y-126987500D01*
G75*
G02*
X64475000Y-126743750I0J243750D01*
G01*
X64475000Y-126256250D01*
G75*
G02*
X64718750Y-126012500I243750J0D01*
G01*
G37*
G36*
G01*
X64718750Y-124437500D02*
X65281250Y-124437500D01*
G75*
G02*
X65525000Y-124681250I0J-243750D01*
G01*
X65525000Y-125168750D01*
G75*
G02*
X65281250Y-125412500I-243750J0D01*
G01*
X64718750Y-125412500D01*
G75*
G02*
X64475000Y-125168750I0J243750D01*
G01*
X64475000Y-124681250D01*
G75*
G02*
X64718750Y-124437500I243750J0D01*
G01*
G37*
%TD*%
%TO.C,R14*%
G36*
G01*
X61318750Y-117312500D02*
X61881250Y-117312500D01*
G75*
G02*
X62125000Y-117556250I0J-243750D01*
G01*
X62125000Y-118043750D01*
G75*
G02*
X61881250Y-118287500I-243750J0D01*
G01*
X61318750Y-118287500D01*
G75*
G02*
X61075000Y-118043750I0J243750D01*
G01*
X61075000Y-117556250D01*
G75*
G02*
X61318750Y-117312500I243750J0D01*
G01*
G37*
G36*
G01*
X61318750Y-115737500D02*
X61881250Y-115737500D01*
G75*
G02*
X62125000Y-115981250I0J-243750D01*
G01*
X62125000Y-116468750D01*
G75*
G02*
X61881250Y-116712500I-243750J0D01*
G01*
X61318750Y-116712500D01*
G75*
G02*
X61075000Y-116468750I0J243750D01*
G01*
X61075000Y-115981250D01*
G75*
G02*
X61318750Y-115737500I243750J0D01*
G01*
G37*
%TD*%
%TO.C,R13*%
G36*
G01*
X66218750Y-91912500D02*
X66781250Y-91912500D01*
G75*
G02*
X67025000Y-92156250I0J-243750D01*
G01*
X67025000Y-92643750D01*
G75*
G02*
X66781250Y-92887500I-243750J0D01*
G01*
X66218750Y-92887500D01*
G75*
G02*
X65975000Y-92643750I0J243750D01*
G01*
X65975000Y-92156250D01*
G75*
G02*
X66218750Y-91912500I243750J0D01*
G01*
G37*
G36*
G01*
X66218750Y-90337500D02*
X66781250Y-90337500D01*
G75*
G02*
X67025000Y-90581250I0J-243750D01*
G01*
X67025000Y-91068750D01*
G75*
G02*
X66781250Y-91312500I-243750J0D01*
G01*
X66218750Y-91312500D01*
G75*
G02*
X65975000Y-91068750I0J243750D01*
G01*
X65975000Y-90581250D01*
G75*
G02*
X66218750Y-90337500I243750J0D01*
G01*
G37*
%TD*%
D17*
%TO.C,J3*%
X75400000Y-153450000D03*
X75400000Y-157450000D03*
%TD*%
D18*
%TO.C,J2*%
X93200000Y-154000000D03*
X88800000Y-154000000D03*
%TD*%
%TO.C,C49*%
G36*
G01*
X64087500Y-83218750D02*
X64087500Y-83781250D01*
G75*
G02*
X63843750Y-84025000I-243750J0D01*
G01*
X63356250Y-84025000D01*
G75*
G02*
X63112500Y-83781250I0J243750D01*
G01*
X63112500Y-83218750D01*
G75*
G02*
X63356250Y-82975000I243750J0D01*
G01*
X63843750Y-82975000D01*
G75*
G02*
X64087500Y-83218750I0J-243750D01*
G01*
G37*
G36*
G01*
X65662500Y-83218750D02*
X65662500Y-83781250D01*
G75*
G02*
X65418750Y-84025000I-243750J0D01*
G01*
X64931250Y-84025000D01*
G75*
G02*
X64687500Y-83781250I0J243750D01*
G01*
X64687500Y-83218750D01*
G75*
G02*
X64931250Y-82975000I243750J0D01*
G01*
X65418750Y-82975000D01*
G75*
G02*
X65662500Y-83218750I0J-243750D01*
G01*
G37*
%TD*%
%TO.C,C48*%
G36*
G01*
X61512500Y-92781250D02*
X61512500Y-92218750D01*
G75*
G02*
X61756250Y-91975000I243750J0D01*
G01*
X62243750Y-91975000D01*
G75*
G02*
X62487500Y-92218750I0J-243750D01*
G01*
X62487500Y-92781250D01*
G75*
G02*
X62243750Y-93025000I-243750J0D01*
G01*
X61756250Y-93025000D01*
G75*
G02*
X61512500Y-92781250I0J243750D01*
G01*
G37*
G36*
G01*
X59937500Y-92781250D02*
X59937500Y-92218750D01*
G75*
G02*
X60181250Y-91975000I243750J0D01*
G01*
X60668750Y-91975000D01*
G75*
G02*
X60912500Y-92218750I0J-243750D01*
G01*
X60912500Y-92781250D01*
G75*
G02*
X60668750Y-93025000I-243750J0D01*
G01*
X60181250Y-93025000D01*
G75*
G02*
X59937500Y-92781250I0J243750D01*
G01*
G37*
%TD*%
%TO.C,C47*%
G36*
G01*
X66218750Y-88912500D02*
X66781250Y-88912500D01*
G75*
G02*
X67025000Y-89156250I0J-243750D01*
G01*
X67025000Y-89643750D01*
G75*
G02*
X66781250Y-89887500I-243750J0D01*
G01*
X66218750Y-89887500D01*
G75*
G02*
X65975000Y-89643750I0J243750D01*
G01*
X65975000Y-89156250D01*
G75*
G02*
X66218750Y-88912500I243750J0D01*
G01*
G37*
G36*
G01*
X66218750Y-87337500D02*
X66781250Y-87337500D01*
G75*
G02*
X67025000Y-87581250I0J-243750D01*
G01*
X67025000Y-88068750D01*
G75*
G02*
X66781250Y-88312500I-243750J0D01*
G01*
X66218750Y-88312500D01*
G75*
G02*
X65975000Y-88068750I0J243750D01*
G01*
X65975000Y-87581250D01*
G75*
G02*
X66218750Y-87337500I243750J0D01*
G01*
G37*
%TD*%
%TO.C,C46*%
G36*
G01*
X64500000Y-92681250D02*
X64500000Y-92118750D01*
G75*
G02*
X64743750Y-91875000I243750J0D01*
G01*
X65231250Y-91875000D01*
G75*
G02*
X65475000Y-92118750I0J-243750D01*
G01*
X65475000Y-92681250D01*
G75*
G02*
X65231250Y-92925000I-243750J0D01*
G01*
X64743750Y-92925000D01*
G75*
G02*
X64500000Y-92681250I0J243750D01*
G01*
G37*
G36*
G01*
X62925000Y-92681250D02*
X62925000Y-92118750D01*
G75*
G02*
X63168750Y-91875000I243750J0D01*
G01*
X63656250Y-91875000D01*
G75*
G02*
X63900000Y-92118750I0J-243750D01*
G01*
X63900000Y-92681250D01*
G75*
G02*
X63656250Y-92925000I-243750J0D01*
G01*
X63168750Y-92925000D01*
G75*
G02*
X62925000Y-92681250I0J243750D01*
G01*
G37*
%TD*%
%TO.C,C45*%
G36*
G01*
X86237500Y-107718750D02*
X86237500Y-108281250D01*
G75*
G02*
X85993750Y-108525000I-243750J0D01*
G01*
X85506250Y-108525000D01*
G75*
G02*
X85262500Y-108281250I0J243750D01*
G01*
X85262500Y-107718750D01*
G75*
G02*
X85506250Y-107475000I243750J0D01*
G01*
X85993750Y-107475000D01*
G75*
G02*
X86237500Y-107718750I0J-243750D01*
G01*
G37*
G36*
G01*
X87812500Y-107718750D02*
X87812500Y-108281250D01*
G75*
G02*
X87568750Y-108525000I-243750J0D01*
G01*
X87081250Y-108525000D01*
G75*
G02*
X86837500Y-108281250I0J243750D01*
G01*
X86837500Y-107718750D01*
G75*
G02*
X87081250Y-107475000I243750J0D01*
G01*
X87568750Y-107475000D01*
G75*
G02*
X87812500Y-107718750I0J-243750D01*
G01*
G37*
%TD*%
%TO.C,C44*%
G36*
G01*
X82718750Y-102012500D02*
X83281250Y-102012500D01*
G75*
G02*
X83525000Y-102256250I0J-243750D01*
G01*
X83525000Y-102743750D01*
G75*
G02*
X83281250Y-102987500I-243750J0D01*
G01*
X82718750Y-102987500D01*
G75*
G02*
X82475000Y-102743750I0J243750D01*
G01*
X82475000Y-102256250D01*
G75*
G02*
X82718750Y-102012500I243750J0D01*
G01*
G37*
G36*
G01*
X82718750Y-100437500D02*
X83281250Y-100437500D01*
G75*
G02*
X83525000Y-100681250I0J-243750D01*
G01*
X83525000Y-101168750D01*
G75*
G02*
X83281250Y-101412500I-243750J0D01*
G01*
X82718750Y-101412500D01*
G75*
G02*
X82475000Y-101168750I0J243750D01*
G01*
X82475000Y-100681250D01*
G75*
G02*
X82718750Y-100437500I243750J0D01*
G01*
G37*
%TD*%
%TO.C,C43*%
G36*
G01*
X81218750Y-95262500D02*
X81781250Y-95262500D01*
G75*
G02*
X82025000Y-95506250I0J-243750D01*
G01*
X82025000Y-95993750D01*
G75*
G02*
X81781250Y-96237500I-243750J0D01*
G01*
X81218750Y-96237500D01*
G75*
G02*
X80975000Y-95993750I0J243750D01*
G01*
X80975000Y-95506250D01*
G75*
G02*
X81218750Y-95262500I243750J0D01*
G01*
G37*
G36*
G01*
X81218750Y-93687500D02*
X81781250Y-93687500D01*
G75*
G02*
X82025000Y-93931250I0J-243750D01*
G01*
X82025000Y-94418750D01*
G75*
G02*
X81781250Y-94662500I-243750J0D01*
G01*
X81218750Y-94662500D01*
G75*
G02*
X80975000Y-94418750I0J243750D01*
G01*
X80975000Y-93931250D01*
G75*
G02*
X81218750Y-93687500I243750J0D01*
G01*
G37*
%TD*%
%TO.C,C42*%
G36*
G01*
X90762500Y-93031250D02*
X90762500Y-92468750D01*
G75*
G02*
X91006250Y-92225000I243750J0D01*
G01*
X91493750Y-92225000D01*
G75*
G02*
X91737500Y-92468750I0J-243750D01*
G01*
X91737500Y-93031250D01*
G75*
G02*
X91493750Y-93275000I-243750J0D01*
G01*
X91006250Y-93275000D01*
G75*
G02*
X90762500Y-93031250I0J243750D01*
G01*
G37*
G36*
G01*
X89187500Y-93031250D02*
X89187500Y-92468750D01*
G75*
G02*
X89431250Y-92225000I243750J0D01*
G01*
X89918750Y-92225000D01*
G75*
G02*
X90162500Y-92468750I0J-243750D01*
G01*
X90162500Y-93031250D01*
G75*
G02*
X89918750Y-93275000I-243750J0D01*
G01*
X89431250Y-93275000D01*
G75*
G02*
X89187500Y-93031250I0J243750D01*
G01*
G37*
%TD*%
%TO.C,C41*%
G36*
G01*
X68281250Y-88237500D02*
X67718750Y-88237500D01*
G75*
G02*
X67475000Y-87993750I0J243750D01*
G01*
X67475000Y-87506250D01*
G75*
G02*
X67718750Y-87262500I243750J0D01*
G01*
X68281250Y-87262500D01*
G75*
G02*
X68525000Y-87506250I0J-243750D01*
G01*
X68525000Y-87993750D01*
G75*
G02*
X68281250Y-88237500I-243750J0D01*
G01*
G37*
G36*
G01*
X68281250Y-89812500D02*
X67718750Y-89812500D01*
G75*
G02*
X67475000Y-89568750I0J243750D01*
G01*
X67475000Y-89081250D01*
G75*
G02*
X67718750Y-88837500I243750J0D01*
G01*
X68281250Y-88837500D01*
G75*
G02*
X68525000Y-89081250I0J-243750D01*
G01*
X68525000Y-89568750D01*
G75*
G02*
X68281250Y-89812500I-243750J0D01*
G01*
G37*
%TD*%
%TO.C,C40*%
G36*
G01*
X94218750Y-95762500D02*
X94781250Y-95762500D01*
G75*
G02*
X95025000Y-96006250I0J-243750D01*
G01*
X95025000Y-96493750D01*
G75*
G02*
X94781250Y-96737500I-243750J0D01*
G01*
X94218750Y-96737500D01*
G75*
G02*
X93975000Y-96493750I0J243750D01*
G01*
X93975000Y-96006250D01*
G75*
G02*
X94218750Y-95762500I243750J0D01*
G01*
G37*
G36*
G01*
X94218750Y-94187500D02*
X94781250Y-94187500D01*
G75*
G02*
X95025000Y-94431250I0J-243750D01*
G01*
X95025000Y-94918750D01*
G75*
G02*
X94781250Y-95162500I-243750J0D01*
G01*
X94218750Y-95162500D01*
G75*
G02*
X93975000Y-94918750I0J243750D01*
G01*
X93975000Y-94431250D01*
G75*
G02*
X94218750Y-94187500I243750J0D01*
G01*
G37*
%TD*%
%TO.C,C38*%
G36*
G01*
X56031250Y-91312500D02*
X55468750Y-91312500D01*
G75*
G02*
X55225000Y-91068750I0J243750D01*
G01*
X55225000Y-90581250D01*
G75*
G02*
X55468750Y-90337500I243750J0D01*
G01*
X56031250Y-90337500D01*
G75*
G02*
X56275000Y-90581250I0J-243750D01*
G01*
X56275000Y-91068750D01*
G75*
G02*
X56031250Y-91312500I-243750J0D01*
G01*
G37*
G36*
G01*
X56031250Y-92887500D02*
X55468750Y-92887500D01*
G75*
G02*
X55225000Y-92643750I0J243750D01*
G01*
X55225000Y-92156250D01*
G75*
G02*
X55468750Y-91912500I243750J0D01*
G01*
X56031250Y-91912500D01*
G75*
G02*
X56275000Y-92156250I0J-243750D01*
G01*
X56275000Y-92643750D01*
G75*
G02*
X56031250Y-92887500I-243750J0D01*
G01*
G37*
%TD*%
%TO.C,C37*%
G36*
G01*
X94218750Y-102762500D02*
X94781250Y-102762500D01*
G75*
G02*
X95025000Y-103006250I0J-243750D01*
G01*
X95025000Y-103493750D01*
G75*
G02*
X94781250Y-103737500I-243750J0D01*
G01*
X94218750Y-103737500D01*
G75*
G02*
X93975000Y-103493750I0J243750D01*
G01*
X93975000Y-103006250D01*
G75*
G02*
X94218750Y-102762500I243750J0D01*
G01*
G37*
G36*
G01*
X94218750Y-101187500D02*
X94781250Y-101187500D01*
G75*
G02*
X95025000Y-101431250I0J-243750D01*
G01*
X95025000Y-101918750D01*
G75*
G02*
X94781250Y-102162500I-243750J0D01*
G01*
X94218750Y-102162500D01*
G75*
G02*
X93975000Y-101918750I0J243750D01*
G01*
X93975000Y-101431250D01*
G75*
G02*
X94218750Y-101187500I243750J0D01*
G01*
G37*
%TD*%
%TO.C,C34*%
G36*
G01*
X87762500Y-93031250D02*
X87762500Y-92468750D01*
G75*
G02*
X88006250Y-92225000I243750J0D01*
G01*
X88493750Y-92225000D01*
G75*
G02*
X88737500Y-92468750I0J-243750D01*
G01*
X88737500Y-93031250D01*
G75*
G02*
X88493750Y-93275000I-243750J0D01*
G01*
X88006250Y-93275000D01*
G75*
G02*
X87762500Y-93031250I0J243750D01*
G01*
G37*
G36*
G01*
X86187500Y-93031250D02*
X86187500Y-92468750D01*
G75*
G02*
X86431250Y-92225000I243750J0D01*
G01*
X86918750Y-92225000D01*
G75*
G02*
X87162500Y-92468750I0J-243750D01*
G01*
X87162500Y-93031250D01*
G75*
G02*
X86918750Y-93275000I-243750J0D01*
G01*
X86431250Y-93275000D01*
G75*
G02*
X86187500Y-93031250I0J243750D01*
G01*
G37*
%TD*%
%TO.C,C33*%
G36*
G01*
X56281250Y-87450000D02*
X55718750Y-87450000D01*
G75*
G02*
X55475000Y-87206250I0J243750D01*
G01*
X55475000Y-86718750D01*
G75*
G02*
X55718750Y-86475000I243750J0D01*
G01*
X56281250Y-86475000D01*
G75*
G02*
X56525000Y-86718750I0J-243750D01*
G01*
X56525000Y-87206250D01*
G75*
G02*
X56281250Y-87450000I-243750J0D01*
G01*
G37*
G36*
G01*
X56281250Y-89025000D02*
X55718750Y-89025000D01*
G75*
G02*
X55475000Y-88781250I0J243750D01*
G01*
X55475000Y-88293750D01*
G75*
G02*
X55718750Y-88050000I243750J0D01*
G01*
X56281250Y-88050000D01*
G75*
G02*
X56525000Y-88293750I0J-243750D01*
G01*
X56525000Y-88781250D01*
G75*
G02*
X56281250Y-89025000I-243750J0D01*
G01*
G37*
%TD*%
%TO.C,C31*%
G36*
G01*
X87837500Y-105531250D02*
X87837500Y-104968750D01*
G75*
G02*
X88081250Y-104725000I243750J0D01*
G01*
X88568750Y-104725000D01*
G75*
G02*
X88812500Y-104968750I0J-243750D01*
G01*
X88812500Y-105531250D01*
G75*
G02*
X88568750Y-105775000I-243750J0D01*
G01*
X88081250Y-105775000D01*
G75*
G02*
X87837500Y-105531250I0J243750D01*
G01*
G37*
G36*
G01*
X86262500Y-105531250D02*
X86262500Y-104968750D01*
G75*
G02*
X86506250Y-104725000I243750J0D01*
G01*
X86993750Y-104725000D01*
G75*
G02*
X87237500Y-104968750I0J-243750D01*
G01*
X87237500Y-105531250D01*
G75*
G02*
X86993750Y-105775000I-243750J0D01*
G01*
X86506250Y-105775000D01*
G75*
G02*
X86262500Y-105531250I0J243750D01*
G01*
G37*
%TD*%
%TO.C,C29*%
G36*
G01*
X57718750Y-93512500D02*
X58281250Y-93512500D01*
G75*
G02*
X58525000Y-93756250I0J-243750D01*
G01*
X58525000Y-94243750D01*
G75*
G02*
X58281250Y-94487500I-243750J0D01*
G01*
X57718750Y-94487500D01*
G75*
G02*
X57475000Y-94243750I0J243750D01*
G01*
X57475000Y-93756250D01*
G75*
G02*
X57718750Y-93512500I243750J0D01*
G01*
G37*
G36*
G01*
X57718750Y-91937500D02*
X58281250Y-91937500D01*
G75*
G02*
X58525000Y-92181250I0J-243750D01*
G01*
X58525000Y-92668750D01*
G75*
G02*
X58281250Y-92912500I-243750J0D01*
G01*
X57718750Y-92912500D01*
G75*
G02*
X57475000Y-92668750I0J243750D01*
G01*
X57475000Y-92181250D01*
G75*
G02*
X57718750Y-91937500I243750J0D01*
G01*
G37*
%TD*%
%TO.C,C28*%
G36*
G01*
X68718750Y-112087500D02*
X69281250Y-112087500D01*
G75*
G02*
X69525000Y-112331250I0J-243750D01*
G01*
X69525000Y-112818750D01*
G75*
G02*
X69281250Y-113062500I-243750J0D01*
G01*
X68718750Y-113062500D01*
G75*
G02*
X68475000Y-112818750I0J243750D01*
G01*
X68475000Y-112331250D01*
G75*
G02*
X68718750Y-112087500I243750J0D01*
G01*
G37*
G36*
G01*
X68718750Y-110512500D02*
X69281250Y-110512500D01*
G75*
G02*
X69525000Y-110756250I0J-243750D01*
G01*
X69525000Y-111243750D01*
G75*
G02*
X69281250Y-111487500I-243750J0D01*
G01*
X68718750Y-111487500D01*
G75*
G02*
X68475000Y-111243750I0J243750D01*
G01*
X68475000Y-110756250D01*
G75*
G02*
X68718750Y-110512500I243750J0D01*
G01*
G37*
%TD*%
%TO.C,C27*%
G36*
G01*
X55281250Y-111912500D02*
X54718750Y-111912500D01*
G75*
G02*
X54475000Y-111668750I0J243750D01*
G01*
X54475000Y-111181250D01*
G75*
G02*
X54718750Y-110937500I243750J0D01*
G01*
X55281250Y-110937500D01*
G75*
G02*
X55525000Y-111181250I0J-243750D01*
G01*
X55525000Y-111668750D01*
G75*
G02*
X55281250Y-111912500I-243750J0D01*
G01*
G37*
G36*
G01*
X55281250Y-113487500D02*
X54718750Y-113487500D01*
G75*
G02*
X54475000Y-113243750I0J243750D01*
G01*
X54475000Y-112756250D01*
G75*
G02*
X54718750Y-112512500I243750J0D01*
G01*
X55281250Y-112512500D01*
G75*
G02*
X55525000Y-112756250I0J-243750D01*
G01*
X55525000Y-113243750D01*
G75*
G02*
X55281250Y-113487500I-243750J0D01*
G01*
G37*
%TD*%
%TO.C,C25*%
G36*
G01*
X69518750Y-119512500D02*
X70081250Y-119512500D01*
G75*
G02*
X70325000Y-119756250I0J-243750D01*
G01*
X70325000Y-120243750D01*
G75*
G02*
X70081250Y-120487500I-243750J0D01*
G01*
X69518750Y-120487500D01*
G75*
G02*
X69275000Y-120243750I0J243750D01*
G01*
X69275000Y-119756250D01*
G75*
G02*
X69518750Y-119512500I243750J0D01*
G01*
G37*
G36*
G01*
X69518750Y-117937500D02*
X70081250Y-117937500D01*
G75*
G02*
X70325000Y-118181250I0J-243750D01*
G01*
X70325000Y-118668750D01*
G75*
G02*
X70081250Y-118912500I-243750J0D01*
G01*
X69518750Y-118912500D01*
G75*
G02*
X69275000Y-118668750I0J243750D01*
G01*
X69275000Y-118181250D01*
G75*
G02*
X69518750Y-117937500I243750J0D01*
G01*
G37*
%TD*%
%TO.C,C24*%
G36*
G01*
X56800000Y-78781250D02*
X56800000Y-78218750D01*
G75*
G02*
X57043750Y-77975000I243750J0D01*
G01*
X57531250Y-77975000D01*
G75*
G02*
X57775000Y-78218750I0J-243750D01*
G01*
X57775000Y-78781250D01*
G75*
G02*
X57531250Y-79025000I-243750J0D01*
G01*
X57043750Y-79025000D01*
G75*
G02*
X56800000Y-78781250I0J243750D01*
G01*
G37*
G36*
G01*
X55225000Y-78781250D02*
X55225000Y-78218750D01*
G75*
G02*
X55468750Y-77975000I243750J0D01*
G01*
X55956250Y-77975000D01*
G75*
G02*
X56200000Y-78218750I0J-243750D01*
G01*
X56200000Y-78781250D01*
G75*
G02*
X55956250Y-79025000I-243750J0D01*
G01*
X55468750Y-79025000D01*
G75*
G02*
X55225000Y-78781250I0J243750D01*
G01*
G37*
%TD*%
%TO.C,C23*%
G36*
G01*
X69281250Y-114987500D02*
X68718750Y-114987500D01*
G75*
G02*
X68475000Y-114743750I0J243750D01*
G01*
X68475000Y-114256250D01*
G75*
G02*
X68718750Y-114012500I243750J0D01*
G01*
X69281250Y-114012500D01*
G75*
G02*
X69525000Y-114256250I0J-243750D01*
G01*
X69525000Y-114743750D01*
G75*
G02*
X69281250Y-114987500I-243750J0D01*
G01*
G37*
G36*
G01*
X69281250Y-116562500D02*
X68718750Y-116562500D01*
G75*
G02*
X68475000Y-116318750I0J243750D01*
G01*
X68475000Y-115831250D01*
G75*
G02*
X68718750Y-115587500I243750J0D01*
G01*
X69281250Y-115587500D01*
G75*
G02*
X69525000Y-115831250I0J-243750D01*
G01*
X69525000Y-116318750D01*
G75*
G02*
X69281250Y-116562500I-243750J0D01*
G01*
G37*
%TD*%
%TO.C,C22*%
G36*
G01*
X58012500Y-82281250D02*
X58012500Y-81718750D01*
G75*
G02*
X58256250Y-81475000I243750J0D01*
G01*
X58743750Y-81475000D01*
G75*
G02*
X58987500Y-81718750I0J-243750D01*
G01*
X58987500Y-82281250D01*
G75*
G02*
X58743750Y-82525000I-243750J0D01*
G01*
X58256250Y-82525000D01*
G75*
G02*
X58012500Y-82281250I0J243750D01*
G01*
G37*
G36*
G01*
X56437500Y-82281250D02*
X56437500Y-81718750D01*
G75*
G02*
X56681250Y-81475000I243750J0D01*
G01*
X57168750Y-81475000D01*
G75*
G02*
X57412500Y-81718750I0J-243750D01*
G01*
X57412500Y-82281250D01*
G75*
G02*
X57168750Y-82525000I-243750J0D01*
G01*
X56681250Y-82525000D01*
G75*
G02*
X56437500Y-82281250I0J243750D01*
G01*
G37*
%TD*%
%TO.C,C21*%
G36*
G01*
X68718750Y-109012500D02*
X69281250Y-109012500D01*
G75*
G02*
X69525000Y-109256250I0J-243750D01*
G01*
X69525000Y-109743750D01*
G75*
G02*
X69281250Y-109987500I-243750J0D01*
G01*
X68718750Y-109987500D01*
G75*
G02*
X68475000Y-109743750I0J243750D01*
G01*
X68475000Y-109256250D01*
G75*
G02*
X68718750Y-109012500I243750J0D01*
G01*
G37*
G36*
G01*
X68718750Y-107437500D02*
X69281250Y-107437500D01*
G75*
G02*
X69525000Y-107681250I0J-243750D01*
G01*
X69525000Y-108168750D01*
G75*
G02*
X69281250Y-108412500I-243750J0D01*
G01*
X68718750Y-108412500D01*
G75*
G02*
X68475000Y-108168750I0J243750D01*
G01*
X68475000Y-107681250D01*
G75*
G02*
X68718750Y-107437500I243750J0D01*
G01*
G37*
%TD*%
%TO.C,C20*%
G36*
G01*
X61012500Y-82281250D02*
X61012500Y-81718750D01*
G75*
G02*
X61256250Y-81475000I243750J0D01*
G01*
X61743750Y-81475000D01*
G75*
G02*
X61987500Y-81718750I0J-243750D01*
G01*
X61987500Y-82281250D01*
G75*
G02*
X61743750Y-82525000I-243750J0D01*
G01*
X61256250Y-82525000D01*
G75*
G02*
X61012500Y-82281250I0J243750D01*
G01*
G37*
G36*
G01*
X59437500Y-82281250D02*
X59437500Y-81718750D01*
G75*
G02*
X59681250Y-81475000I243750J0D01*
G01*
X60168750Y-81475000D01*
G75*
G02*
X60412500Y-81718750I0J-243750D01*
G01*
X60412500Y-82281250D01*
G75*
G02*
X60168750Y-82525000I-243750J0D01*
G01*
X59681250Y-82525000D01*
G75*
G02*
X59437500Y-82281250I0J243750D01*
G01*
G37*
%TD*%
%TO.C,C19*%
G36*
G01*
X69281250Y-104412500D02*
X68718750Y-104412500D01*
G75*
G02*
X68475000Y-104168750I0J243750D01*
G01*
X68475000Y-103681250D01*
G75*
G02*
X68718750Y-103437500I243750J0D01*
G01*
X69281250Y-103437500D01*
G75*
G02*
X69525000Y-103681250I0J-243750D01*
G01*
X69525000Y-104168750D01*
G75*
G02*
X69281250Y-104412500I-243750J0D01*
G01*
G37*
G36*
G01*
X69281250Y-105987500D02*
X68718750Y-105987500D01*
G75*
G02*
X68475000Y-105743750I0J243750D01*
G01*
X68475000Y-105256250D01*
G75*
G02*
X68718750Y-105012500I243750J0D01*
G01*
X69281250Y-105012500D01*
G75*
G02*
X69525000Y-105256250I0J-243750D01*
G01*
X69525000Y-105743750D01*
G75*
G02*
X69281250Y-105987500I-243750J0D01*
G01*
G37*
%TD*%
%TO.C,C18*%
G36*
G01*
X64012500Y-82281250D02*
X64012500Y-81718750D01*
G75*
G02*
X64256250Y-81475000I243750J0D01*
G01*
X64743750Y-81475000D01*
G75*
G02*
X64987500Y-81718750I0J-243750D01*
G01*
X64987500Y-82281250D01*
G75*
G02*
X64743750Y-82525000I-243750J0D01*
G01*
X64256250Y-82525000D01*
G75*
G02*
X64012500Y-82281250I0J243750D01*
G01*
G37*
G36*
G01*
X62437500Y-82281250D02*
X62437500Y-81718750D01*
G75*
G02*
X62681250Y-81475000I243750J0D01*
G01*
X63168750Y-81475000D01*
G75*
G02*
X63412500Y-81718750I0J-243750D01*
G01*
X63412500Y-82281250D01*
G75*
G02*
X63168750Y-82525000I-243750J0D01*
G01*
X62681250Y-82525000D01*
G75*
G02*
X62437500Y-82281250I0J243750D01*
G01*
G37*
%TD*%
%TO.C,C17*%
G36*
G01*
X61737500Y-102468750D02*
X61737500Y-103031250D01*
G75*
G02*
X61493750Y-103275000I-243750J0D01*
G01*
X61006250Y-103275000D01*
G75*
G02*
X60762500Y-103031250I0J243750D01*
G01*
X60762500Y-102468750D01*
G75*
G02*
X61006250Y-102225000I243750J0D01*
G01*
X61493750Y-102225000D01*
G75*
G02*
X61737500Y-102468750I0J-243750D01*
G01*
G37*
G36*
G01*
X63312500Y-102468750D02*
X63312500Y-103031250D01*
G75*
G02*
X63068750Y-103275000I-243750J0D01*
G01*
X62581250Y-103275000D01*
G75*
G02*
X62337500Y-103031250I0J243750D01*
G01*
X62337500Y-102468750D01*
G75*
G02*
X62581250Y-102225000I243750J0D01*
G01*
X63068750Y-102225000D01*
G75*
G02*
X63312500Y-102468750I0J-243750D01*
G01*
G37*
%TD*%
%TO.C,C16*%
G36*
G01*
X67087500Y-82281250D02*
X67087500Y-81718750D01*
G75*
G02*
X67331250Y-81475000I243750J0D01*
G01*
X67818750Y-81475000D01*
G75*
G02*
X68062500Y-81718750I0J-243750D01*
G01*
X68062500Y-82281250D01*
G75*
G02*
X67818750Y-82525000I-243750J0D01*
G01*
X67331250Y-82525000D01*
G75*
G02*
X67087500Y-82281250I0J243750D01*
G01*
G37*
G36*
G01*
X65512500Y-82281250D02*
X65512500Y-81718750D01*
G75*
G02*
X65756250Y-81475000I243750J0D01*
G01*
X66243750Y-81475000D01*
G75*
G02*
X66487500Y-81718750I0J-243750D01*
G01*
X66487500Y-82281250D01*
G75*
G02*
X66243750Y-82525000I-243750J0D01*
G01*
X65756250Y-82525000D01*
G75*
G02*
X65512500Y-82281250I0J243750D01*
G01*
G37*
%TD*%
%TO.C,C15*%
G36*
G01*
X55281250Y-104662500D02*
X54718750Y-104662500D01*
G75*
G02*
X54475000Y-104418750I0J243750D01*
G01*
X54475000Y-103931250D01*
G75*
G02*
X54718750Y-103687500I243750J0D01*
G01*
X55281250Y-103687500D01*
G75*
G02*
X55525000Y-103931250I0J-243750D01*
G01*
X55525000Y-104418750D01*
G75*
G02*
X55281250Y-104662500I-243750J0D01*
G01*
G37*
G36*
G01*
X55281250Y-106237500D02*
X54718750Y-106237500D01*
G75*
G02*
X54475000Y-105993750I0J243750D01*
G01*
X54475000Y-105506250D01*
G75*
G02*
X54718750Y-105262500I243750J0D01*
G01*
X55281250Y-105262500D01*
G75*
G02*
X55525000Y-105506250I0J-243750D01*
G01*
X55525000Y-105993750D01*
G75*
G02*
X55281250Y-106237500I-243750J0D01*
G01*
G37*
%TD*%
%TO.C,C14*%
G36*
G01*
X68281250Y-91700000D02*
X67718750Y-91700000D01*
G75*
G02*
X67475000Y-91456250I0J243750D01*
G01*
X67475000Y-90968750D01*
G75*
G02*
X67718750Y-90725000I243750J0D01*
G01*
X68281250Y-90725000D01*
G75*
G02*
X68525000Y-90968750I0J-243750D01*
G01*
X68525000Y-91456250D01*
G75*
G02*
X68281250Y-91700000I-243750J0D01*
G01*
G37*
G36*
G01*
X68281250Y-93275000D02*
X67718750Y-93275000D01*
G75*
G02*
X67475000Y-93031250I0J243750D01*
G01*
X67475000Y-92543750D01*
G75*
G02*
X67718750Y-92300000I243750J0D01*
G01*
X68281250Y-92300000D01*
G75*
G02*
X68525000Y-92543750I0J-243750D01*
G01*
X68525000Y-93031250D01*
G75*
G02*
X68281250Y-93275000I-243750J0D01*
G01*
G37*
%TD*%
%TO.C,C13*%
G36*
G01*
X54718750Y-109087500D02*
X55281250Y-109087500D01*
G75*
G02*
X55525000Y-109331250I0J-243750D01*
G01*
X55525000Y-109818750D01*
G75*
G02*
X55281250Y-110062500I-243750J0D01*
G01*
X54718750Y-110062500D01*
G75*
G02*
X54475000Y-109818750I0J243750D01*
G01*
X54475000Y-109331250D01*
G75*
G02*
X54718750Y-109087500I243750J0D01*
G01*
G37*
G36*
G01*
X54718750Y-107512500D02*
X55281250Y-107512500D01*
G75*
G02*
X55525000Y-107756250I0J-243750D01*
G01*
X55525000Y-108243750D01*
G75*
G02*
X55281250Y-108487500I-243750J0D01*
G01*
X54718750Y-108487500D01*
G75*
G02*
X54475000Y-108243750I0J243750D01*
G01*
X54475000Y-107756250D01*
G75*
G02*
X54718750Y-107512500I243750J0D01*
G01*
G37*
%TD*%
%TO.C,C12*%
G36*
G01*
X63512500Y-94281250D02*
X63512500Y-93718750D01*
G75*
G02*
X63756250Y-93475000I243750J0D01*
G01*
X64243750Y-93475000D01*
G75*
G02*
X64487500Y-93718750I0J-243750D01*
G01*
X64487500Y-94281250D01*
G75*
G02*
X64243750Y-94525000I-243750J0D01*
G01*
X63756250Y-94525000D01*
G75*
G02*
X63512500Y-94281250I0J243750D01*
G01*
G37*
G36*
G01*
X61937500Y-94281250D02*
X61937500Y-93718750D01*
G75*
G02*
X62181250Y-93475000I243750J0D01*
G01*
X62668750Y-93475000D01*
G75*
G02*
X62912500Y-93718750I0J-243750D01*
G01*
X62912500Y-94281250D01*
G75*
G02*
X62668750Y-94525000I-243750J0D01*
G01*
X62181250Y-94525000D01*
G75*
G02*
X61937500Y-94281250I0J243750D01*
G01*
G37*
%TD*%
%TO.C,C11*%
G36*
G01*
X55281250Y-114987500D02*
X54718750Y-114987500D01*
G75*
G02*
X54475000Y-114743750I0J243750D01*
G01*
X54475000Y-114256250D01*
G75*
G02*
X54718750Y-114012500I243750J0D01*
G01*
X55281250Y-114012500D01*
G75*
G02*
X55525000Y-114256250I0J-243750D01*
G01*
X55525000Y-114743750D01*
G75*
G02*
X55281250Y-114987500I-243750J0D01*
G01*
G37*
G36*
G01*
X55281250Y-116562500D02*
X54718750Y-116562500D01*
G75*
G02*
X54475000Y-116318750I0J243750D01*
G01*
X54475000Y-115831250D01*
G75*
G02*
X54718750Y-115587500I243750J0D01*
G01*
X55281250Y-115587500D01*
G75*
G02*
X55525000Y-115831250I0J-243750D01*
G01*
X55525000Y-116318750D01*
G75*
G02*
X55281250Y-116562500I-243750J0D01*
G01*
G37*
%TD*%
%TO.C,C10*%
G36*
G01*
X60512500Y-94281250D02*
X60512500Y-93718750D01*
G75*
G02*
X60756250Y-93475000I243750J0D01*
G01*
X61243750Y-93475000D01*
G75*
G02*
X61487500Y-93718750I0J-243750D01*
G01*
X61487500Y-94281250D01*
G75*
G02*
X61243750Y-94525000I-243750J0D01*
G01*
X60756250Y-94525000D01*
G75*
G02*
X60512500Y-94281250I0J243750D01*
G01*
G37*
G36*
G01*
X58937500Y-94281250D02*
X58937500Y-93718750D01*
G75*
G02*
X59181250Y-93475000I243750J0D01*
G01*
X59668750Y-93475000D01*
G75*
G02*
X59912500Y-93718750I0J-243750D01*
G01*
X59912500Y-94281250D01*
G75*
G02*
X59668750Y-94525000I-243750J0D01*
G01*
X59181250Y-94525000D01*
G75*
G02*
X58937500Y-94281250I0J243750D01*
G01*
G37*
%TD*%
%TO.C,C9*%
G36*
G01*
X54718750Y-119512500D02*
X55281250Y-119512500D01*
G75*
G02*
X55525000Y-119756250I0J-243750D01*
G01*
X55525000Y-120243750D01*
G75*
G02*
X55281250Y-120487500I-243750J0D01*
G01*
X54718750Y-120487500D01*
G75*
G02*
X54475000Y-120243750I0J243750D01*
G01*
X54475000Y-119756250D01*
G75*
G02*
X54718750Y-119512500I243750J0D01*
G01*
G37*
G36*
G01*
X54718750Y-117937500D02*
X55281250Y-117937500D01*
G75*
G02*
X55525000Y-118181250I0J-243750D01*
G01*
X55525000Y-118668750D01*
G75*
G02*
X55281250Y-118912500I-243750J0D01*
G01*
X54718750Y-118912500D01*
G75*
G02*
X54475000Y-118668750I0J243750D01*
G01*
X54475000Y-118181250D01*
G75*
G02*
X54718750Y-117937500I243750J0D01*
G01*
G37*
%TD*%
D19*
G36*
X109873000Y-159873000D02*
G01*
X79127000Y-159873000D01*
X79127000Y-155127000D01*
X100000000Y-155127000D01*
X100024776Y-155124560D01*
X100048601Y-155117333D01*
X100070557Y-155105597D01*
X100089803Y-155089803D01*
X105089803Y-150089803D01*
X105105597Y-150070557D01*
X105117333Y-150048601D01*
X105124560Y-150024776D01*
X105127000Y-150000000D01*
X105127000Y-145000000D01*
X105124560Y-144975224D01*
X105117333Y-144951399D01*
X105105597Y-144929443D01*
X105089803Y-144910197D01*
X95089803Y-134910197D01*
X95070557Y-134894403D01*
X95048601Y-134882667D01*
X95024776Y-134875440D01*
X95000000Y-134873000D01*
X50500000Y-134873000D01*
X50475224Y-134875440D01*
X50451399Y-134882667D01*
X50429443Y-134894403D01*
X50410197Y-134910197D01*
X45660197Y-139660197D01*
X45644403Y-139679443D01*
X45632667Y-139701399D01*
X45625440Y-139725224D01*
X45623000Y-139750000D01*
X45623000Y-149750000D01*
X45625440Y-149774776D01*
X45632667Y-149798601D01*
X45644403Y-149820557D01*
X45655825Y-149835206D01*
X50405825Y-155085206D01*
X50424257Y-155101941D01*
X50445601Y-155114759D01*
X50469034Y-155123167D01*
X50500000Y-155127000D01*
X73123000Y-155127000D01*
X73123000Y-159873000D01*
X40127000Y-159873000D01*
X40127000Y-87500000D01*
X42373000Y-87500000D01*
X42373000Y-112500000D01*
X42375440Y-112524776D01*
X42382667Y-112548601D01*
X42394403Y-112570557D01*
X42410197Y-112589803D01*
X59910197Y-130089803D01*
X59929443Y-130105597D01*
X59951399Y-130117333D01*
X59975224Y-130124560D01*
X60000000Y-130127000D01*
X85000000Y-130127000D01*
X85024776Y-130124560D01*
X85048601Y-130117333D01*
X85070557Y-130105597D01*
X85089803Y-130089803D01*
X105089803Y-110089803D01*
X105105597Y-110070557D01*
X105117333Y-110048601D01*
X105124560Y-110024776D01*
X105127000Y-110000000D01*
X105127000Y-90000000D01*
X105124560Y-89975224D01*
X105117333Y-89951399D01*
X105105597Y-89929443D01*
X105089803Y-89910197D01*
X95089803Y-79910197D01*
X95070557Y-79894403D01*
X95048601Y-79882667D01*
X95024776Y-79875440D01*
X95000000Y-79873000D01*
X65052606Y-79873000D01*
X60089803Y-74910197D01*
X60070557Y-74894403D01*
X60048601Y-74882667D01*
X60024776Y-74875440D01*
X60000000Y-74873000D01*
X55000000Y-74873000D01*
X54975224Y-74875440D01*
X54951399Y-74882667D01*
X54929443Y-74894403D01*
X54910197Y-74910197D01*
X42410197Y-87410197D01*
X42394403Y-87429443D01*
X42382667Y-87451399D01*
X42375440Y-87475224D01*
X42373000Y-87500000D01*
X40127000Y-87500000D01*
X40127000Y-60127000D01*
X109873000Y-60127000D01*
X109873000Y-159873000D01*
G37*
X109873000Y-159873000D02*
X79127000Y-159873000D01*
X79127000Y-155127000D01*
X100000000Y-155127000D01*
X100024776Y-155124560D01*
X100048601Y-155117333D01*
X100070557Y-155105597D01*
X100089803Y-155089803D01*
X105089803Y-150089803D01*
X105105597Y-150070557D01*
X105117333Y-150048601D01*
X105124560Y-150024776D01*
X105127000Y-150000000D01*
X105127000Y-145000000D01*
X105124560Y-144975224D01*
X105117333Y-144951399D01*
X105105597Y-144929443D01*
X105089803Y-144910197D01*
X95089803Y-134910197D01*
X95070557Y-134894403D01*
X95048601Y-134882667D01*
X95024776Y-134875440D01*
X95000000Y-134873000D01*
X50500000Y-134873000D01*
X50475224Y-134875440D01*
X50451399Y-134882667D01*
X50429443Y-134894403D01*
X50410197Y-134910197D01*
X45660197Y-139660197D01*
X45644403Y-139679443D01*
X45632667Y-139701399D01*
X45625440Y-139725224D01*
X45623000Y-139750000D01*
X45623000Y-149750000D01*
X45625440Y-149774776D01*
X45632667Y-149798601D01*
X45644403Y-149820557D01*
X45655825Y-149835206D01*
X50405825Y-155085206D01*
X50424257Y-155101941D01*
X50445601Y-155114759D01*
X50469034Y-155123167D01*
X50500000Y-155127000D01*
X73123000Y-155127000D01*
X73123000Y-159873000D01*
X40127000Y-159873000D01*
X40127000Y-87500000D01*
X42373000Y-87500000D01*
X42373000Y-112500000D01*
X42375440Y-112524776D01*
X42382667Y-112548601D01*
X42394403Y-112570557D01*
X42410197Y-112589803D01*
X59910197Y-130089803D01*
X59929443Y-130105597D01*
X59951399Y-130117333D01*
X59975224Y-130124560D01*
X60000000Y-130127000D01*
X85000000Y-130127000D01*
X85024776Y-130124560D01*
X85048601Y-130117333D01*
X85070557Y-130105597D01*
X85089803Y-130089803D01*
X105089803Y-110089803D01*
X105105597Y-110070557D01*
X105117333Y-110048601D01*
X105124560Y-110024776D01*
X105127000Y-110000000D01*
X105127000Y-90000000D01*
X105124560Y-89975224D01*
X105117333Y-89951399D01*
X105105597Y-89929443D01*
X105089803Y-89910197D01*
X95089803Y-79910197D01*
X95070557Y-79894403D01*
X95048601Y-79882667D01*
X95024776Y-79875440D01*
X95000000Y-79873000D01*
X65052606Y-79873000D01*
X60089803Y-74910197D01*
X60070557Y-74894403D01*
X60048601Y-74882667D01*
X60024776Y-74875440D01*
X60000000Y-74873000D01*
X55000000Y-74873000D01*
X54975224Y-74875440D01*
X54951399Y-74882667D01*
X54929443Y-74894403D01*
X54910197Y-74910197D01*
X42410197Y-87410197D01*
X42394403Y-87429443D01*
X42382667Y-87451399D01*
X42375440Y-87475224D01*
X42373000Y-87500000D01*
X40127000Y-87500000D01*
X40127000Y-60127000D01*
X109873000Y-60127000D01*
X109873000Y-159873000D01*
M02*
