%TF.GenerationSoftware,KiCad,Pcbnew,(5.1.6)-1*%
%TF.CreationDate,2020-12-14T06:54:31-07:00*%
%TF.ProjectId,DDS,4444532e-6b69-4636-9164-5f7063625858,rev?*%
%TF.SameCoordinates,Original*%
%TF.FileFunction,Paste,Top*%
%TF.FilePolarity,Positive*%
%FSLAX46Y46*%
G04 Gerber Fmt 4.6, Leading zero omitted, Abs format (unit mm)*
G04 Created by KiCad (PCBNEW (5.1.6)-1) date 2020-12-14 06:54:31*
%MOMM*%
%LPD*%
G01*
G04 APERTURE LIST*
%ADD10C,0.100000*%
%ADD11C,0.150000*%
%ADD12C,0.300000*%
%ADD13C,0.400000*%
%ADD14R,0.500000X2.500000*%
%ADD15R,2.000000X2.500000*%
%ADD16R,2.000000X1.500000*%
%ADD17R,2.000000X3.800000*%
%ADD18R,0.800000X0.300000*%
%ADD19R,1.270000X3.600000*%
%ADD20R,1.350000X4.200000*%
%ADD21R,7.875000X2.000000*%
%ADD22R,1.100000X0.750000*%
%ADD23R,0.680000X0.750000*%
%ADD24R,1.650000X2.540000*%
%ADD25R,2.500000X2.000000*%
G04 APERTURE END LIST*
D10*
D11*
X177002200Y-166007200D02*
X177002200Y-198007200D01*
X285002200Y-198007200D01*
X285002200Y-166007200D01*
X177002200Y-166007200D01*
D10*
D11*
X10000000Y-10000000D02*
X10000000Y-200007200D01*
X287002200Y-200007200D01*
X287002200Y-10000000D01*
X10000000Y-10000000D01*
D10*
D11*
X12000000Y-12000000D02*
X12000000Y-198007200D01*
X285002200Y-198007200D01*
X285002200Y-12000000D01*
X12000000Y-12000000D01*
D10*
D11*
X60000000Y-12000000D02*
X60000000Y-10000000D01*
D10*
D11*
X110000000Y-12000000D02*
X110000000Y-10000000D01*
D10*
D11*
X160000000Y-12000000D02*
X160000000Y-10000000D01*
D10*
D11*
X210000000Y-12000000D02*
X210000000Y-10000000D01*
D10*
D11*
X260000000Y-12000000D02*
X260000000Y-10000000D01*
D10*
D11*
X36065476Y-11588095D02*
X35322619Y-11588095D01*
X35694047Y-11588095D02*
X35694047Y-10288095D01*
X35570238Y-10473809D01*
X35446428Y-10597619D01*
X35322619Y-10659523D01*
D10*
D11*
X85322619Y-10411904D02*
X85384523Y-10350000D01*
X85508333Y-10288095D01*
X85817857Y-10288095D01*
X85941666Y-10350000D01*
X86003571Y-10411904D01*
X86065476Y-10535714D01*
X86065476Y-10659523D01*
X86003571Y-10845238D01*
X85260714Y-11588095D01*
X86065476Y-11588095D01*
D10*
D11*
X135260714Y-10288095D02*
X136065476Y-10288095D01*
X135632142Y-10783333D01*
X135817857Y-10783333D01*
X135941666Y-10845238D01*
X136003571Y-10907142D01*
X136065476Y-11030952D01*
X136065476Y-11340476D01*
X136003571Y-11464285D01*
X135941666Y-11526190D01*
X135817857Y-11588095D01*
X135446428Y-11588095D01*
X135322619Y-11526190D01*
X135260714Y-11464285D01*
D10*
D11*
X185941666Y-10721428D02*
X185941666Y-11588095D01*
X185632142Y-10226190D02*
X185322619Y-11154761D01*
X186127380Y-11154761D01*
D10*
D11*
X236003571Y-10288095D02*
X235384523Y-10288095D01*
X235322619Y-10907142D01*
X235384523Y-10845238D01*
X235508333Y-10783333D01*
X235817857Y-10783333D01*
X235941666Y-10845238D01*
X236003571Y-10907142D01*
X236065476Y-11030952D01*
X236065476Y-11340476D01*
X236003571Y-11464285D01*
X235941666Y-11526190D01*
X235817857Y-11588095D01*
X235508333Y-11588095D01*
X235384523Y-11526190D01*
X235322619Y-11464285D01*
D10*
D11*
X285941666Y-10288095D02*
X285694047Y-10288095D01*
X285570238Y-10350000D01*
X285508333Y-10411904D01*
X285384523Y-10597619D01*
X285322619Y-10845238D01*
X285322619Y-11340476D01*
X285384523Y-11464285D01*
X285446428Y-11526190D01*
X285570238Y-11588095D01*
X285817857Y-11588095D01*
X285941666Y-11526190D01*
X286003571Y-11464285D01*
X286065476Y-11340476D01*
X286065476Y-11030952D01*
X286003571Y-10907142D01*
X285941666Y-10845238D01*
X285817857Y-10783333D01*
X285570238Y-10783333D01*
X285446428Y-10845238D01*
X285384523Y-10907142D01*
X285322619Y-11030952D01*
D10*
D11*
X60000000Y-198007200D02*
X60000000Y-200007200D01*
D10*
D11*
X110000000Y-198007200D02*
X110000000Y-200007200D01*
D10*
D11*
X160000000Y-198007200D02*
X160000000Y-200007200D01*
D10*
D11*
X210000000Y-198007200D02*
X210000000Y-200007200D01*
D10*
D11*
X260000000Y-198007200D02*
X260000000Y-200007200D01*
D10*
D11*
X36065476Y-199595295D02*
X35322619Y-199595295D01*
X35694047Y-199595295D02*
X35694047Y-198295295D01*
X35570238Y-198481009D01*
X35446428Y-198604819D01*
X35322619Y-198666723D01*
D10*
D11*
X85322619Y-198419104D02*
X85384523Y-198357200D01*
X85508333Y-198295295D01*
X85817857Y-198295295D01*
X85941666Y-198357200D01*
X86003571Y-198419104D01*
X86065476Y-198542914D01*
X86065476Y-198666723D01*
X86003571Y-198852438D01*
X85260714Y-199595295D01*
X86065476Y-199595295D01*
D10*
D11*
X135260714Y-198295295D02*
X136065476Y-198295295D01*
X135632142Y-198790533D01*
X135817857Y-198790533D01*
X135941666Y-198852438D01*
X136003571Y-198914342D01*
X136065476Y-199038152D01*
X136065476Y-199347676D01*
X136003571Y-199471485D01*
X135941666Y-199533390D01*
X135817857Y-199595295D01*
X135446428Y-199595295D01*
X135322619Y-199533390D01*
X135260714Y-199471485D01*
D10*
D11*
X185941666Y-198728628D02*
X185941666Y-199595295D01*
X185632142Y-198233390D02*
X185322619Y-199161961D01*
X186127380Y-199161961D01*
D10*
D11*
X236003571Y-198295295D02*
X235384523Y-198295295D01*
X235322619Y-198914342D01*
X235384523Y-198852438D01*
X235508333Y-198790533D01*
X235817857Y-198790533D01*
X235941666Y-198852438D01*
X236003571Y-198914342D01*
X236065476Y-199038152D01*
X236065476Y-199347676D01*
X236003571Y-199471485D01*
X235941666Y-199533390D01*
X235817857Y-199595295D01*
X235508333Y-199595295D01*
X235384523Y-199533390D01*
X235322619Y-199471485D01*
D10*
D11*
X285941666Y-198295295D02*
X285694047Y-198295295D01*
X285570238Y-198357200D01*
X285508333Y-198419104D01*
X285384523Y-198604819D01*
X285322619Y-198852438D01*
X285322619Y-199347676D01*
X285384523Y-199471485D01*
X285446428Y-199533390D01*
X285570238Y-199595295D01*
X285817857Y-199595295D01*
X285941666Y-199533390D01*
X286003571Y-199471485D01*
X286065476Y-199347676D01*
X286065476Y-199038152D01*
X286003571Y-198914342D01*
X285941666Y-198852438D01*
X285817857Y-198790533D01*
X285570238Y-198790533D01*
X285446428Y-198852438D01*
X285384523Y-198914342D01*
X285322619Y-199038152D01*
D10*
D11*
X10000000Y-60000000D02*
X12000000Y-60000000D01*
D10*
D11*
X10000000Y-110000000D02*
X12000000Y-110000000D01*
D10*
D11*
X10000000Y-160000000D02*
X12000000Y-160000000D01*
D10*
D11*
X10690476Y-35216666D02*
X11309523Y-35216666D01*
X10566666Y-35588095D02*
X11000000Y-34288095D01*
X11433333Y-35588095D01*
D10*
D11*
X11092857Y-84907142D02*
X11278571Y-84969047D01*
X11340476Y-85030952D01*
X11402380Y-85154761D01*
X11402380Y-85340476D01*
X11340476Y-85464285D01*
X11278571Y-85526190D01*
X11154761Y-85588095D01*
X10659523Y-85588095D01*
X10659523Y-84288095D01*
X11092857Y-84288095D01*
X11216666Y-84350000D01*
X11278571Y-84411904D01*
X11340476Y-84535714D01*
X11340476Y-84659523D01*
X11278571Y-84783333D01*
X11216666Y-84845238D01*
X11092857Y-84907142D01*
X10659523Y-84907142D01*
D10*
D11*
X11402380Y-135464285D02*
X11340476Y-135526190D01*
X11154761Y-135588095D01*
X11030952Y-135588095D01*
X10845238Y-135526190D01*
X10721428Y-135402380D01*
X10659523Y-135278571D01*
X10597619Y-135030952D01*
X10597619Y-134845238D01*
X10659523Y-134597619D01*
X10721428Y-134473809D01*
X10845238Y-134350000D01*
X11030952Y-134288095D01*
X11154761Y-134288095D01*
X11340476Y-134350000D01*
X11402380Y-134411904D01*
D10*
D11*
X10659523Y-185588095D02*
X10659523Y-184288095D01*
X10969047Y-184288095D01*
X11154761Y-184350000D01*
X11278571Y-184473809D01*
X11340476Y-184597619D01*
X11402380Y-184845238D01*
X11402380Y-185030952D01*
X11340476Y-185278571D01*
X11278571Y-185402380D01*
X11154761Y-185526190D01*
X10969047Y-185588095D01*
X10659523Y-185588095D01*
D10*
D11*
X287002200Y-60000000D02*
X285002200Y-60000000D01*
D10*
D11*
X287002200Y-110000000D02*
X285002200Y-110000000D01*
D10*
D11*
X287002200Y-160000000D02*
X285002200Y-160000000D01*
D10*
D11*
X285692676Y-35216666D02*
X286311723Y-35216666D01*
X285568866Y-35588095D02*
X286002200Y-34288095D01*
X286435533Y-35588095D01*
D10*
D11*
X286095057Y-84907142D02*
X286280771Y-84969047D01*
X286342676Y-85030952D01*
X286404580Y-85154761D01*
X286404580Y-85340476D01*
X286342676Y-85464285D01*
X286280771Y-85526190D01*
X286156961Y-85588095D01*
X285661723Y-85588095D01*
X285661723Y-84288095D01*
X286095057Y-84288095D01*
X286218866Y-84350000D01*
X286280771Y-84411904D01*
X286342676Y-84535714D01*
X286342676Y-84659523D01*
X286280771Y-84783333D01*
X286218866Y-84845238D01*
X286095057Y-84907142D01*
X285661723Y-84907142D01*
D10*
D11*
X286404580Y-135464285D02*
X286342676Y-135526190D01*
X286156961Y-135588095D01*
X286033152Y-135588095D01*
X285847438Y-135526190D01*
X285723628Y-135402380D01*
X285661723Y-135278571D01*
X285599819Y-135030952D01*
X285599819Y-134845238D01*
X285661723Y-134597619D01*
X285723628Y-134473809D01*
X285847438Y-134350000D01*
X286033152Y-134288095D01*
X286156961Y-134288095D01*
X286342676Y-134350000D01*
X286404580Y-134411904D01*
D10*
D11*
X285661723Y-185588095D02*
X285661723Y-184288095D01*
X285971247Y-184288095D01*
X286156961Y-184350000D01*
X286280771Y-184473809D01*
X286342676Y-184597619D01*
X286404580Y-184845238D01*
X286404580Y-185030952D01*
X286342676Y-185278571D01*
X286280771Y-185402380D01*
X286156961Y-185526190D01*
X285971247Y-185588095D01*
X285661723Y-185588095D01*
D10*
D11*
X200434342Y-193785771D02*
X200434342Y-192285771D01*
X200791485Y-192285771D01*
X201005771Y-192357200D01*
X201148628Y-192500057D01*
X201220057Y-192642914D01*
X201291485Y-192928628D01*
X201291485Y-193142914D01*
X201220057Y-193428628D01*
X201148628Y-193571485D01*
X201005771Y-193714342D01*
X200791485Y-193785771D01*
X200434342Y-193785771D01*
X202577200Y-193785771D02*
X202577200Y-193000057D01*
X202505771Y-192857200D01*
X202362914Y-192785771D01*
X202077200Y-192785771D01*
X201934342Y-192857200D01*
X202577200Y-193714342D02*
X202434342Y-193785771D01*
X202077200Y-193785771D01*
X201934342Y-193714342D01*
X201862914Y-193571485D01*
X201862914Y-193428628D01*
X201934342Y-193285771D01*
X202077200Y-193214342D01*
X202434342Y-193214342D01*
X202577200Y-193142914D01*
X203077200Y-192785771D02*
X203648628Y-192785771D01*
X203291485Y-192285771D02*
X203291485Y-193571485D01*
X203362914Y-193714342D01*
X203505771Y-193785771D01*
X203648628Y-193785771D01*
X204720057Y-193714342D02*
X204577200Y-193785771D01*
X204291485Y-193785771D01*
X204148628Y-193714342D01*
X204077200Y-193571485D01*
X204077200Y-193000057D01*
X204148628Y-192857200D01*
X204291485Y-192785771D01*
X204577200Y-192785771D01*
X204720057Y-192857200D01*
X204791485Y-193000057D01*
X204791485Y-193142914D01*
X204077200Y-193285771D01*
X205434342Y-193642914D02*
X205505771Y-193714342D01*
X205434342Y-193785771D01*
X205362914Y-193714342D01*
X205434342Y-193642914D01*
X205434342Y-193785771D01*
X205434342Y-192857200D02*
X205505771Y-192928628D01*
X205434342Y-193000057D01*
X205362914Y-192928628D01*
X205434342Y-192857200D01*
X205434342Y-193000057D01*
D10*
D11*
X177002200Y-194507200D02*
X285002200Y-194507200D01*
D10*
D11*
X178434342Y-196585771D02*
X178434342Y-195085771D01*
X179291485Y-196585771D02*
X178648628Y-195728628D01*
X179291485Y-195085771D02*
X178434342Y-195942914D01*
X179934342Y-196585771D02*
X179934342Y-195585771D01*
X179934342Y-195085771D02*
X179862914Y-195157200D01*
X179934342Y-195228628D01*
X180005771Y-195157200D01*
X179934342Y-195085771D01*
X179934342Y-195228628D01*
X181505771Y-196442914D02*
X181434342Y-196514342D01*
X181220057Y-196585771D01*
X181077200Y-196585771D01*
X180862914Y-196514342D01*
X180720057Y-196371485D01*
X180648628Y-196228628D01*
X180577200Y-195942914D01*
X180577200Y-195728628D01*
X180648628Y-195442914D01*
X180720057Y-195300057D01*
X180862914Y-195157200D01*
X181077200Y-195085771D01*
X181220057Y-195085771D01*
X181434342Y-195157200D01*
X181505771Y-195228628D01*
X182791485Y-196585771D02*
X182791485Y-195800057D01*
X182720057Y-195657200D01*
X182577200Y-195585771D01*
X182291485Y-195585771D01*
X182148628Y-195657200D01*
X182791485Y-196514342D02*
X182648628Y-196585771D01*
X182291485Y-196585771D01*
X182148628Y-196514342D01*
X182077200Y-196371485D01*
X182077200Y-196228628D01*
X182148628Y-196085771D01*
X182291485Y-196014342D01*
X182648628Y-196014342D01*
X182791485Y-195942914D01*
X184148628Y-196585771D02*
X184148628Y-195085771D01*
X184148628Y-196514342D02*
X184005771Y-196585771D01*
X183720057Y-196585771D01*
X183577200Y-196514342D01*
X183505771Y-196442914D01*
X183434342Y-196300057D01*
X183434342Y-195871485D01*
X183505771Y-195728628D01*
X183577200Y-195657200D01*
X183720057Y-195585771D01*
X184005771Y-195585771D01*
X184148628Y-195657200D01*
X186005771Y-195800057D02*
X186505771Y-195800057D01*
X186720057Y-196585771D02*
X186005771Y-196585771D01*
X186005771Y-195085771D01*
X186720057Y-195085771D01*
X187362914Y-196442914D02*
X187434342Y-196514342D01*
X187362914Y-196585771D01*
X187291485Y-196514342D01*
X187362914Y-196442914D01*
X187362914Y-196585771D01*
X188077200Y-196585771D02*
X188077200Y-195085771D01*
X188434342Y-195085771D01*
X188648628Y-195157200D01*
X188791485Y-195300057D01*
X188862914Y-195442914D01*
X188934342Y-195728628D01*
X188934342Y-195942914D01*
X188862914Y-196228628D01*
X188791485Y-196371485D01*
X188648628Y-196514342D01*
X188434342Y-196585771D01*
X188077200Y-196585771D01*
X189577200Y-196442914D02*
X189648628Y-196514342D01*
X189577200Y-196585771D01*
X189505771Y-196514342D01*
X189577200Y-196442914D01*
X189577200Y-196585771D01*
X190220057Y-196157200D02*
X190934342Y-196157200D01*
X190077200Y-196585771D02*
X190577200Y-195085771D01*
X191077200Y-196585771D01*
X191577200Y-196442914D02*
X191648628Y-196514342D01*
X191577200Y-196585771D01*
X191505771Y-196514342D01*
X191577200Y-196442914D01*
X191577200Y-196585771D01*
X194577200Y-196585771D02*
X194577200Y-195085771D01*
X194720057Y-196014342D02*
X195148628Y-196585771D01*
X195148628Y-195585771D02*
X194577200Y-196157200D01*
X195791485Y-196585771D02*
X195791485Y-195585771D01*
X195791485Y-195085771D02*
X195720057Y-195157200D01*
X195791485Y-195228628D01*
X195862914Y-195157200D01*
X195791485Y-195085771D01*
X195791485Y-195228628D01*
X197148628Y-196514342D02*
X197005771Y-196585771D01*
X196720057Y-196585771D01*
X196577200Y-196514342D01*
X196505771Y-196442914D01*
X196434342Y-196300057D01*
X196434342Y-195871485D01*
X196505771Y-195728628D01*
X196577200Y-195657200D01*
X196720057Y-195585771D01*
X197005771Y-195585771D01*
X197148628Y-195657200D01*
X198434342Y-196585771D02*
X198434342Y-195800057D01*
X198362914Y-195657200D01*
X198220057Y-195585771D01*
X197934342Y-195585771D01*
X197791485Y-195657200D01*
X198434342Y-196514342D02*
X198291485Y-196585771D01*
X197934342Y-196585771D01*
X197791485Y-196514342D01*
X197720057Y-196371485D01*
X197720057Y-196228628D01*
X197791485Y-196085771D01*
X197934342Y-196014342D01*
X198291485Y-196014342D01*
X198434342Y-195942914D01*
X199791485Y-196585771D02*
X199791485Y-195085771D01*
X199791485Y-196514342D02*
X199648628Y-196585771D01*
X199362914Y-196585771D01*
X199220057Y-196514342D01*
X199148628Y-196442914D01*
X199077200Y-196300057D01*
X199077200Y-195871485D01*
X199148628Y-195728628D01*
X199220057Y-195657200D01*
X199362914Y-195585771D01*
X199648628Y-195585771D01*
X199791485Y-195657200D01*
X202077200Y-197157200D02*
X202005771Y-197085771D01*
X201862914Y-196871485D01*
X201791485Y-196728628D01*
X201720057Y-196514342D01*
X201648628Y-196157200D01*
X201648628Y-195871485D01*
X201720057Y-195514342D01*
X201791485Y-195300057D01*
X201862914Y-195157200D01*
X202005771Y-194942914D01*
X202077200Y-194871485D01*
X203362914Y-195085771D02*
X202648628Y-195085771D01*
X202577200Y-195800057D01*
X202648628Y-195728628D01*
X202791485Y-195657200D01*
X203148628Y-195657200D01*
X203291485Y-195728628D01*
X203362914Y-195800057D01*
X203434342Y-195942914D01*
X203434342Y-196300057D01*
X203362914Y-196442914D01*
X203291485Y-196514342D01*
X203148628Y-196585771D01*
X202791485Y-196585771D01*
X202648628Y-196514342D01*
X202577200Y-196442914D01*
X204077200Y-196442914D02*
X204148628Y-196514342D01*
X204077200Y-196585771D01*
X204005771Y-196514342D01*
X204077200Y-196442914D01*
X204077200Y-196585771D01*
X205577200Y-196585771D02*
X204720057Y-196585771D01*
X205148628Y-196585771D02*
X205148628Y-195085771D01*
X205005771Y-195300057D01*
X204862914Y-195442914D01*
X204720057Y-195514342D01*
X206220057Y-196442914D02*
X206291485Y-196514342D01*
X206220057Y-196585771D01*
X206148628Y-196514342D01*
X206220057Y-196442914D01*
X206220057Y-196585771D01*
X207577200Y-195085771D02*
X207291485Y-195085771D01*
X207148628Y-195157200D01*
X207077200Y-195228628D01*
X206934342Y-195442914D01*
X206862914Y-195728628D01*
X206862914Y-196300057D01*
X206934342Y-196442914D01*
X207005771Y-196514342D01*
X207148628Y-196585771D01*
X207434342Y-196585771D01*
X207577200Y-196514342D01*
X207648628Y-196442914D01*
X207720057Y-196300057D01*
X207720057Y-195942914D01*
X207648628Y-195800057D01*
X207577200Y-195728628D01*
X207434342Y-195657200D01*
X207148628Y-195657200D01*
X207005771Y-195728628D01*
X206934342Y-195800057D01*
X206862914Y-195942914D01*
X208220057Y-197157200D02*
X208291485Y-197085771D01*
X208434342Y-196871485D01*
X208505771Y-196728628D01*
X208577200Y-196514342D01*
X208648628Y-196157200D01*
X208648628Y-195871485D01*
X208577200Y-195514342D01*
X208505771Y-195300057D01*
X208434342Y-195157200D01*
X208291485Y-194942914D01*
X208220057Y-194871485D01*
X209362914Y-196014342D02*
X210505771Y-196014342D01*
X212005771Y-196585771D02*
X211148628Y-196585771D01*
X211577200Y-196585771D02*
X211577200Y-195085771D01*
X211434342Y-195300057D01*
X211291485Y-195442914D01*
X211148628Y-195514342D01*
D10*
D11*
X177002200Y-191507200D02*
X285002200Y-191507200D01*
D10*
D12*
X264411485Y-193785771D02*
X263911485Y-193071485D01*
X263554342Y-193785771D02*
X263554342Y-192285771D01*
X264125771Y-192285771D01*
X264268628Y-192357200D01*
X264340057Y-192428628D01*
X264411485Y-192571485D01*
X264411485Y-192785771D01*
X264340057Y-192928628D01*
X264268628Y-193000057D01*
X264125771Y-193071485D01*
X263554342Y-193071485D01*
X265625771Y-193714342D02*
X265482914Y-193785771D01*
X265197200Y-193785771D01*
X265054342Y-193714342D01*
X264982914Y-193571485D01*
X264982914Y-193000057D01*
X265054342Y-192857200D01*
X265197200Y-192785771D01*
X265482914Y-192785771D01*
X265625771Y-192857200D01*
X265697200Y-193000057D01*
X265697200Y-193142914D01*
X264982914Y-193285771D01*
X266197200Y-192785771D02*
X266554342Y-193785771D01*
X266911485Y-192785771D01*
X267482914Y-193642914D02*
X267554342Y-193714342D01*
X267482914Y-193785771D01*
X267411485Y-193714342D01*
X267482914Y-193642914D01*
X267482914Y-193785771D01*
X267482914Y-192857200D02*
X267554342Y-192928628D01*
X267482914Y-193000057D01*
X267411485Y-192928628D01*
X267482914Y-192857200D01*
X267482914Y-193000057D01*
D10*
D11*
X178362914Y-193714342D02*
X178577200Y-193785771D01*
X178934342Y-193785771D01*
X179077200Y-193714342D01*
X179148628Y-193642914D01*
X179220057Y-193500057D01*
X179220057Y-193357200D01*
X179148628Y-193214342D01*
X179077200Y-193142914D01*
X178934342Y-193071485D01*
X178648628Y-193000057D01*
X178505771Y-192928628D01*
X178434342Y-192857200D01*
X178362914Y-192714342D01*
X178362914Y-192571485D01*
X178434342Y-192428628D01*
X178505771Y-192357200D01*
X178648628Y-192285771D01*
X179005771Y-192285771D01*
X179220057Y-192357200D01*
X179862914Y-193785771D02*
X179862914Y-192785771D01*
X179862914Y-192285771D02*
X179791485Y-192357200D01*
X179862914Y-192428628D01*
X179934342Y-192357200D01*
X179862914Y-192285771D01*
X179862914Y-192428628D01*
X180434342Y-192785771D02*
X181220057Y-192785771D01*
X180434342Y-193785771D01*
X181220057Y-193785771D01*
X182362914Y-193714342D02*
X182220057Y-193785771D01*
X181934342Y-193785771D01*
X181791485Y-193714342D01*
X181720057Y-193571485D01*
X181720057Y-193000057D01*
X181791485Y-192857200D01*
X181934342Y-192785771D01*
X182220057Y-192785771D01*
X182362914Y-192857200D01*
X182434342Y-193000057D01*
X182434342Y-193142914D01*
X181720057Y-193285771D01*
X183077200Y-193642914D02*
X183148628Y-193714342D01*
X183077200Y-193785771D01*
X183005771Y-193714342D01*
X183077200Y-193642914D01*
X183077200Y-193785771D01*
X183077200Y-192857200D02*
X183148628Y-192928628D01*
X183077200Y-193000057D01*
X183005771Y-192928628D01*
X183077200Y-192857200D01*
X183077200Y-193000057D01*
X184862914Y-193357200D02*
X185577200Y-193357200D01*
X184720057Y-193785771D02*
X185220057Y-192285771D01*
X185720057Y-193785771D01*
X186862914Y-192785771D02*
X186862914Y-193785771D01*
X186505771Y-192214342D02*
X186148628Y-193285771D01*
X187077200Y-193285771D01*
D10*
D11*
X263434342Y-196585771D02*
X263434342Y-195085771D01*
X264791485Y-196585771D02*
X264791485Y-195085771D01*
X264791485Y-196514342D02*
X264648628Y-196585771D01*
X264362914Y-196585771D01*
X264220057Y-196514342D01*
X264148628Y-196442914D01*
X264077200Y-196300057D01*
X264077200Y-195871485D01*
X264148628Y-195728628D01*
X264220057Y-195657200D01*
X264362914Y-195585771D01*
X264648628Y-195585771D01*
X264791485Y-195657200D01*
X265505771Y-196442914D02*
X265577200Y-196514342D01*
X265505771Y-196585771D01*
X265434342Y-196514342D01*
X265505771Y-196442914D01*
X265505771Y-196585771D01*
X265505771Y-195657200D02*
X265577200Y-195728628D01*
X265505771Y-195800057D01*
X265434342Y-195728628D01*
X265505771Y-195657200D01*
X265505771Y-195800057D01*
X268148628Y-196585771D02*
X267291485Y-196585771D01*
X267720057Y-196585771D02*
X267720057Y-195085771D01*
X267577200Y-195300057D01*
X267434342Y-195442914D01*
X267291485Y-195514342D01*
X269862914Y-195014342D02*
X268577200Y-196942914D01*
X271148628Y-196585771D02*
X270291485Y-196585771D01*
X270720057Y-196585771D02*
X270720057Y-195085771D01*
X270577200Y-195300057D01*
X270434342Y-195442914D01*
X270291485Y-195514342D01*
D10*
D11*
X177002200Y-187507200D02*
X285002200Y-187507200D01*
D10*
D13*
X178714580Y-188211961D02*
X179857438Y-188211961D01*
X179036009Y-190211961D02*
X179286009Y-188211961D01*
X180274104Y-190211961D02*
X180440771Y-188878628D01*
X180524104Y-188211961D02*
X180416961Y-188307200D01*
X180500295Y-188402438D01*
X180607438Y-188307200D01*
X180524104Y-188211961D01*
X180500295Y-188402438D01*
X181107438Y-188878628D02*
X181869342Y-188878628D01*
X181476485Y-188211961D02*
X181262200Y-189926247D01*
X181333628Y-190116723D01*
X181512200Y-190211961D01*
X181702676Y-190211961D01*
X182655057Y-190211961D02*
X182476485Y-190116723D01*
X182405057Y-189926247D01*
X182619342Y-188211961D01*
X184190771Y-190116723D02*
X183988390Y-190211961D01*
X183607438Y-190211961D01*
X183428866Y-190116723D01*
X183357438Y-189926247D01*
X183452676Y-189164342D01*
X183571723Y-188973866D01*
X183774104Y-188878628D01*
X184155057Y-188878628D01*
X184333628Y-188973866D01*
X184405057Y-189164342D01*
X184381247Y-189354819D01*
X183405057Y-189545295D01*
X185155057Y-190021485D02*
X185238390Y-190116723D01*
X185131247Y-190211961D01*
X185047914Y-190116723D01*
X185155057Y-190021485D01*
X185131247Y-190211961D01*
X185286009Y-188973866D02*
X185369342Y-189069104D01*
X185262200Y-189164342D01*
X185178866Y-189069104D01*
X185286009Y-188973866D01*
X185262200Y-189164342D01*
D10*
D11*
X178934342Y-185600057D02*
X178434342Y-185600057D01*
X178434342Y-186385771D02*
X178434342Y-184885771D01*
X179148628Y-184885771D01*
X179720057Y-186385771D02*
X179720057Y-185385771D01*
X179720057Y-184885771D02*
X179648628Y-184957200D01*
X179720057Y-185028628D01*
X179791485Y-184957200D01*
X179720057Y-184885771D01*
X179720057Y-185028628D01*
X180648628Y-186385771D02*
X180505771Y-186314342D01*
X180434342Y-186171485D01*
X180434342Y-184885771D01*
X181791485Y-186314342D02*
X181648628Y-186385771D01*
X181362914Y-186385771D01*
X181220057Y-186314342D01*
X181148628Y-186171485D01*
X181148628Y-185600057D01*
X181220057Y-185457200D01*
X181362914Y-185385771D01*
X181648628Y-185385771D01*
X181791485Y-185457200D01*
X181862914Y-185600057D01*
X181862914Y-185742914D01*
X181148628Y-185885771D01*
X182505771Y-186242914D02*
X182577200Y-186314342D01*
X182505771Y-186385771D01*
X182434342Y-186314342D01*
X182505771Y-186242914D01*
X182505771Y-186385771D01*
X182505771Y-185457200D02*
X182577200Y-185528628D01*
X182505771Y-185600057D01*
X182434342Y-185528628D01*
X182505771Y-185457200D01*
X182505771Y-185600057D01*
X184362914Y-186385771D02*
X184362914Y-184885771D01*
X184720057Y-184885771D01*
X184934342Y-184957200D01*
X185077200Y-185100057D01*
X185148628Y-185242914D01*
X185220057Y-185528628D01*
X185220057Y-185742914D01*
X185148628Y-186028628D01*
X185077200Y-186171485D01*
X184934342Y-186314342D01*
X184720057Y-186385771D01*
X184362914Y-186385771D01*
X185862914Y-186385771D02*
X185862914Y-184885771D01*
X186220057Y-184885771D01*
X186434342Y-184957200D01*
X186577200Y-185100057D01*
X186648628Y-185242914D01*
X186720057Y-185528628D01*
X186720057Y-185742914D01*
X186648628Y-186028628D01*
X186577200Y-186171485D01*
X186434342Y-186314342D01*
X186220057Y-186385771D01*
X185862914Y-186385771D01*
X187291485Y-186314342D02*
X187505771Y-186385771D01*
X187862914Y-186385771D01*
X188005771Y-186314342D01*
X188077200Y-186242914D01*
X188148628Y-186100057D01*
X188148628Y-185957200D01*
X188077200Y-185814342D01*
X188005771Y-185742914D01*
X187862914Y-185671485D01*
X187577200Y-185600057D01*
X187434342Y-185528628D01*
X187362914Y-185457200D01*
X187291485Y-185314342D01*
X187291485Y-185171485D01*
X187362914Y-185028628D01*
X187434342Y-184957200D01*
X187577200Y-184885771D01*
X187934342Y-184885771D01*
X188148628Y-184957200D01*
X188791485Y-186242914D02*
X188862914Y-186314342D01*
X188791485Y-186385771D01*
X188720057Y-186314342D01*
X188791485Y-186242914D01*
X188791485Y-186385771D01*
X189505771Y-186385771D02*
X189505771Y-184885771D01*
X189648628Y-185814342D02*
X190077200Y-186385771D01*
X190077200Y-185385771D02*
X189505771Y-185957200D01*
X190720057Y-186385771D02*
X190720057Y-185385771D01*
X190720057Y-184885771D02*
X190648628Y-184957200D01*
X190720057Y-185028628D01*
X190791485Y-184957200D01*
X190720057Y-184885771D01*
X190720057Y-185028628D01*
X192077200Y-186314342D02*
X191934342Y-186385771D01*
X191648628Y-186385771D01*
X191505771Y-186314342D01*
X191434342Y-186242914D01*
X191362914Y-186100057D01*
X191362914Y-185671485D01*
X191434342Y-185528628D01*
X191505771Y-185457200D01*
X191648628Y-185385771D01*
X191934342Y-185385771D01*
X192077200Y-185457200D01*
X193362914Y-186385771D02*
X193362914Y-185600057D01*
X193291485Y-185457200D01*
X193148628Y-185385771D01*
X192862914Y-185385771D01*
X192720057Y-185457200D01*
X193362914Y-186314342D02*
X193220057Y-186385771D01*
X192862914Y-186385771D01*
X192720057Y-186314342D01*
X192648628Y-186171485D01*
X192648628Y-186028628D01*
X192720057Y-185885771D01*
X192862914Y-185814342D01*
X193220057Y-185814342D01*
X193362914Y-185742914D01*
X194720057Y-186385771D02*
X194720057Y-184885771D01*
X194720057Y-186314342D02*
X194577200Y-186385771D01*
X194291485Y-186385771D01*
X194148628Y-186314342D01*
X194077200Y-186242914D01*
X194005771Y-186100057D01*
X194005771Y-185671485D01*
X194077200Y-185528628D01*
X194148628Y-185457200D01*
X194291485Y-185385771D01*
X194577200Y-185385771D01*
X194720057Y-185457200D01*
X195077200Y-186528628D02*
X196220057Y-186528628D01*
X196577200Y-185385771D02*
X196577200Y-186885771D01*
X196577200Y-185457200D02*
X196720057Y-185385771D01*
X197005771Y-185385771D01*
X197148628Y-185457200D01*
X197220057Y-185528628D01*
X197291485Y-185671485D01*
X197291485Y-186100057D01*
X197220057Y-186242914D01*
X197148628Y-186314342D01*
X197005771Y-186385771D01*
X196720057Y-186385771D01*
X196577200Y-186314342D01*
X198577200Y-186314342D02*
X198434342Y-186385771D01*
X198148628Y-186385771D01*
X198005771Y-186314342D01*
X197934342Y-186242914D01*
X197862914Y-186100057D01*
X197862914Y-185671485D01*
X197934342Y-185528628D01*
X198005771Y-185457200D01*
X198148628Y-185385771D01*
X198434342Y-185385771D01*
X198577200Y-185457200D01*
X199220057Y-186385771D02*
X199220057Y-184885771D01*
X199220057Y-185457200D02*
X199362914Y-185385771D01*
X199648628Y-185385771D01*
X199791485Y-185457200D01*
X199862914Y-185528628D01*
X199934342Y-185671485D01*
X199934342Y-186100057D01*
X199862914Y-186242914D01*
X199791485Y-186314342D01*
X199648628Y-186385771D01*
X199362914Y-186385771D01*
X199220057Y-186314342D01*
D10*
D11*
X177002200Y-181507200D02*
X285002200Y-181507200D01*
D10*
D11*
X178362914Y-183614342D02*
X178577200Y-183685771D01*
X178934342Y-183685771D01*
X179077200Y-183614342D01*
X179148628Y-183542914D01*
X179220057Y-183400057D01*
X179220057Y-183257200D01*
X179148628Y-183114342D01*
X179077200Y-183042914D01*
X178934342Y-182971485D01*
X178648628Y-182900057D01*
X178505771Y-182828628D01*
X178434342Y-182757200D01*
X178362914Y-182614342D01*
X178362914Y-182471485D01*
X178434342Y-182328628D01*
X178505771Y-182257200D01*
X178648628Y-182185771D01*
X179005771Y-182185771D01*
X179220057Y-182257200D01*
X179862914Y-183685771D02*
X179862914Y-182185771D01*
X180505771Y-183685771D02*
X180505771Y-182900057D01*
X180434342Y-182757200D01*
X180291485Y-182685771D01*
X180077200Y-182685771D01*
X179934342Y-182757200D01*
X179862914Y-182828628D01*
X181791485Y-183614342D02*
X181648628Y-183685771D01*
X181362914Y-183685771D01*
X181220057Y-183614342D01*
X181148628Y-183471485D01*
X181148628Y-182900057D01*
X181220057Y-182757200D01*
X181362914Y-182685771D01*
X181648628Y-182685771D01*
X181791485Y-182757200D01*
X181862914Y-182900057D01*
X181862914Y-183042914D01*
X181148628Y-183185771D01*
X183077200Y-183614342D02*
X182934342Y-183685771D01*
X182648628Y-183685771D01*
X182505771Y-183614342D01*
X182434342Y-183471485D01*
X182434342Y-182900057D01*
X182505771Y-182757200D01*
X182648628Y-182685771D01*
X182934342Y-182685771D01*
X183077200Y-182757200D01*
X183148628Y-182900057D01*
X183148628Y-183042914D01*
X182434342Y-183185771D01*
X183577200Y-182685771D02*
X184148628Y-182685771D01*
X183791485Y-182185771D02*
X183791485Y-183471485D01*
X183862914Y-183614342D01*
X184005771Y-183685771D01*
X184148628Y-183685771D01*
X184648628Y-183542914D02*
X184720057Y-183614342D01*
X184648628Y-183685771D01*
X184577200Y-183614342D01*
X184648628Y-183542914D01*
X184648628Y-183685771D01*
X184648628Y-182757200D02*
X184720057Y-182828628D01*
X184648628Y-182900057D01*
X184577200Y-182828628D01*
X184648628Y-182757200D01*
X184648628Y-182900057D01*
D10*
D11*
X197002200Y-191507200D02*
X197002200Y-194507200D01*
D10*
D11*
X261002200Y-191507200D02*
X261002200Y-198007200D01*
D14*
%TO.C,J2*%
X152000000Y-128250000D03*
X151200000Y-128250000D03*
X150400000Y-128250000D03*
X149600000Y-128250000D03*
X148800000Y-128250000D03*
D15*
X154800000Y-128250000D03*
X146000000Y-128250000D03*
X154800000Y-133750000D03*
X146000000Y-133750000D03*
%TD*%
%TO.C,U3*%
G36*
G01*
X147525000Y-120250000D02*
X147775000Y-120250000D01*
G75*
G02*
X147900000Y-120375000I0J-125000D01*
G01*
X147900000Y-122025000D01*
G75*
G02*
X147775000Y-122150000I-125000J0D01*
G01*
X147525000Y-122150000D01*
G75*
G02*
X147400000Y-122025000I0J125000D01*
G01*
X147400000Y-120375000D01*
G75*
G02*
X147525000Y-120250000I125000J0D01*
G01*
G37*
G36*
G01*
X146875000Y-120250000D02*
X147125000Y-120250000D01*
G75*
G02*
X147250000Y-120375000I0J-125000D01*
G01*
X147250000Y-122025000D01*
G75*
G02*
X147125000Y-122150000I-125000J0D01*
G01*
X146875000Y-122150000D01*
G75*
G02*
X146750000Y-122025000I0J125000D01*
G01*
X146750000Y-120375000D01*
G75*
G02*
X146875000Y-120250000I125000J0D01*
G01*
G37*
G36*
G01*
X146225000Y-120250000D02*
X146475000Y-120250000D01*
G75*
G02*
X146600000Y-120375000I0J-125000D01*
G01*
X146600000Y-122025000D01*
G75*
G02*
X146475000Y-122150000I-125000J0D01*
G01*
X146225000Y-122150000D01*
G75*
G02*
X146100000Y-122025000I0J125000D01*
G01*
X146100000Y-120375000D01*
G75*
G02*
X146225000Y-120250000I125000J0D01*
G01*
G37*
G36*
G01*
X145575000Y-120250000D02*
X145825000Y-120250000D01*
G75*
G02*
X145950000Y-120375000I0J-125000D01*
G01*
X145950000Y-122025000D01*
G75*
G02*
X145825000Y-122150000I-125000J0D01*
G01*
X145575000Y-122150000D01*
G75*
G02*
X145450000Y-122025000I0J125000D01*
G01*
X145450000Y-120375000D01*
G75*
G02*
X145575000Y-120250000I125000J0D01*
G01*
G37*
G36*
G01*
X144925000Y-120250000D02*
X145175000Y-120250000D01*
G75*
G02*
X145300000Y-120375000I0J-125000D01*
G01*
X145300000Y-122025000D01*
G75*
G02*
X145175000Y-122150000I-125000J0D01*
G01*
X144925000Y-122150000D01*
G75*
G02*
X144800000Y-122025000I0J125000D01*
G01*
X144800000Y-120375000D01*
G75*
G02*
X144925000Y-120250000I125000J0D01*
G01*
G37*
G36*
G01*
X144275000Y-120250000D02*
X144525000Y-120250000D01*
G75*
G02*
X144650000Y-120375000I0J-125000D01*
G01*
X144650000Y-122025000D01*
G75*
G02*
X144525000Y-122150000I-125000J0D01*
G01*
X144275000Y-122150000D01*
G75*
G02*
X144150000Y-122025000I0J125000D01*
G01*
X144150000Y-120375000D01*
G75*
G02*
X144275000Y-120250000I125000J0D01*
G01*
G37*
G36*
G01*
X143625000Y-120250000D02*
X143875000Y-120250000D01*
G75*
G02*
X144000000Y-120375000I0J-125000D01*
G01*
X144000000Y-122025000D01*
G75*
G02*
X143875000Y-122150000I-125000J0D01*
G01*
X143625000Y-122150000D01*
G75*
G02*
X143500000Y-122025000I0J125000D01*
G01*
X143500000Y-120375000D01*
G75*
G02*
X143625000Y-120250000I125000J0D01*
G01*
G37*
G36*
G01*
X142975000Y-120250000D02*
X143225000Y-120250000D01*
G75*
G02*
X143350000Y-120375000I0J-125000D01*
G01*
X143350000Y-122025000D01*
G75*
G02*
X143225000Y-122150000I-125000J0D01*
G01*
X142975000Y-122150000D01*
G75*
G02*
X142850000Y-122025000I0J125000D01*
G01*
X142850000Y-120375000D01*
G75*
G02*
X142975000Y-120250000I125000J0D01*
G01*
G37*
G36*
G01*
X142325000Y-120250000D02*
X142575000Y-120250000D01*
G75*
G02*
X142700000Y-120375000I0J-125000D01*
G01*
X142700000Y-122025000D01*
G75*
G02*
X142575000Y-122150000I-125000J0D01*
G01*
X142325000Y-122150000D01*
G75*
G02*
X142200000Y-122025000I0J125000D01*
G01*
X142200000Y-120375000D01*
G75*
G02*
X142325000Y-120250000I125000J0D01*
G01*
G37*
G36*
G01*
X141675000Y-120250000D02*
X141925000Y-120250000D01*
G75*
G02*
X142050000Y-120375000I0J-125000D01*
G01*
X142050000Y-122025000D01*
G75*
G02*
X141925000Y-122150000I-125000J0D01*
G01*
X141675000Y-122150000D01*
G75*
G02*
X141550000Y-122025000I0J125000D01*
G01*
X141550000Y-120375000D01*
G75*
G02*
X141675000Y-120250000I125000J0D01*
G01*
G37*
G36*
G01*
X141675000Y-113250000D02*
X141925000Y-113250000D01*
G75*
G02*
X142050000Y-113375000I0J-125000D01*
G01*
X142050000Y-115025000D01*
G75*
G02*
X141925000Y-115150000I-125000J0D01*
G01*
X141675000Y-115150000D01*
G75*
G02*
X141550000Y-115025000I0J125000D01*
G01*
X141550000Y-113375000D01*
G75*
G02*
X141675000Y-113250000I125000J0D01*
G01*
G37*
G36*
G01*
X142325000Y-113250000D02*
X142575000Y-113250000D01*
G75*
G02*
X142700000Y-113375000I0J-125000D01*
G01*
X142700000Y-115025000D01*
G75*
G02*
X142575000Y-115150000I-125000J0D01*
G01*
X142325000Y-115150000D01*
G75*
G02*
X142200000Y-115025000I0J125000D01*
G01*
X142200000Y-113375000D01*
G75*
G02*
X142325000Y-113250000I125000J0D01*
G01*
G37*
G36*
G01*
X142975000Y-113250000D02*
X143225000Y-113250000D01*
G75*
G02*
X143350000Y-113375000I0J-125000D01*
G01*
X143350000Y-115025000D01*
G75*
G02*
X143225000Y-115150000I-125000J0D01*
G01*
X142975000Y-115150000D01*
G75*
G02*
X142850000Y-115025000I0J125000D01*
G01*
X142850000Y-113375000D01*
G75*
G02*
X142975000Y-113250000I125000J0D01*
G01*
G37*
G36*
G01*
X143625000Y-113250000D02*
X143875000Y-113250000D01*
G75*
G02*
X144000000Y-113375000I0J-125000D01*
G01*
X144000000Y-115025000D01*
G75*
G02*
X143875000Y-115150000I-125000J0D01*
G01*
X143625000Y-115150000D01*
G75*
G02*
X143500000Y-115025000I0J125000D01*
G01*
X143500000Y-113375000D01*
G75*
G02*
X143625000Y-113250000I125000J0D01*
G01*
G37*
G36*
G01*
X144275000Y-113250000D02*
X144525000Y-113250000D01*
G75*
G02*
X144650000Y-113375000I0J-125000D01*
G01*
X144650000Y-115025000D01*
G75*
G02*
X144525000Y-115150000I-125000J0D01*
G01*
X144275000Y-115150000D01*
G75*
G02*
X144150000Y-115025000I0J125000D01*
G01*
X144150000Y-113375000D01*
G75*
G02*
X144275000Y-113250000I125000J0D01*
G01*
G37*
G36*
G01*
X144925000Y-113250000D02*
X145175000Y-113250000D01*
G75*
G02*
X145300000Y-113375000I0J-125000D01*
G01*
X145300000Y-115025000D01*
G75*
G02*
X145175000Y-115150000I-125000J0D01*
G01*
X144925000Y-115150000D01*
G75*
G02*
X144800000Y-115025000I0J125000D01*
G01*
X144800000Y-113375000D01*
G75*
G02*
X144925000Y-113250000I125000J0D01*
G01*
G37*
G36*
G01*
X145575000Y-113250000D02*
X145825000Y-113250000D01*
G75*
G02*
X145950000Y-113375000I0J-125000D01*
G01*
X145950000Y-115025000D01*
G75*
G02*
X145825000Y-115150000I-125000J0D01*
G01*
X145575000Y-115150000D01*
G75*
G02*
X145450000Y-115025000I0J125000D01*
G01*
X145450000Y-113375000D01*
G75*
G02*
X145575000Y-113250000I125000J0D01*
G01*
G37*
G36*
G01*
X146225000Y-113250000D02*
X146475000Y-113250000D01*
G75*
G02*
X146600000Y-113375000I0J-125000D01*
G01*
X146600000Y-115025000D01*
G75*
G02*
X146475000Y-115150000I-125000J0D01*
G01*
X146225000Y-115150000D01*
G75*
G02*
X146100000Y-115025000I0J125000D01*
G01*
X146100000Y-113375000D01*
G75*
G02*
X146225000Y-113250000I125000J0D01*
G01*
G37*
G36*
G01*
X146875000Y-113250000D02*
X147125000Y-113250000D01*
G75*
G02*
X147250000Y-113375000I0J-125000D01*
G01*
X147250000Y-115025000D01*
G75*
G02*
X147125000Y-115150000I-125000J0D01*
G01*
X146875000Y-115150000D01*
G75*
G02*
X146750000Y-115025000I0J125000D01*
G01*
X146750000Y-113375000D01*
G75*
G02*
X146875000Y-113250000I125000J0D01*
G01*
G37*
G36*
G01*
X147525000Y-113250000D02*
X147775000Y-113250000D01*
G75*
G02*
X147900000Y-113375000I0J-125000D01*
G01*
X147900000Y-115025000D01*
G75*
G02*
X147775000Y-115150000I-125000J0D01*
G01*
X147525000Y-115150000D01*
G75*
G02*
X147400000Y-115025000I0J125000D01*
G01*
X147400000Y-113375000D01*
G75*
G02*
X147525000Y-113250000I125000J0D01*
G01*
G37*
%TD*%
%TO.C,C26*%
G36*
G01*
X148756250Y-87362500D02*
X148243750Y-87362500D01*
G75*
G02*
X148025000Y-87143750I0J218750D01*
G01*
X148025000Y-86706250D01*
G75*
G02*
X148243750Y-86487500I218750J0D01*
G01*
X148756250Y-86487500D01*
G75*
G02*
X148975000Y-86706250I0J-218750D01*
G01*
X148975000Y-87143750D01*
G75*
G02*
X148756250Y-87362500I-218750J0D01*
G01*
G37*
G36*
G01*
X148756250Y-88937500D02*
X148243750Y-88937500D01*
G75*
G02*
X148025000Y-88718750I0J218750D01*
G01*
X148025000Y-88281250D01*
G75*
G02*
X148243750Y-88062500I218750J0D01*
G01*
X148756250Y-88062500D01*
G75*
G02*
X148975000Y-88281250I0J-218750D01*
G01*
X148975000Y-88718750D01*
G75*
G02*
X148756250Y-88937500I-218750J0D01*
G01*
G37*
%TD*%
D16*
%TO.C,U2*%
X146080000Y-88780000D03*
X146080000Y-84180000D03*
X146080000Y-86480000D03*
D17*
X139780000Y-86480000D03*
%TD*%
D18*
%TO.C,RN6*%
X190600000Y-102500000D03*
X190600000Y-104000000D03*
X190600000Y-103500000D03*
X190600000Y-104500000D03*
X190600000Y-103000000D03*
X190600000Y-106000000D03*
X190600000Y-105500000D03*
X190600000Y-105000000D03*
X189000000Y-102500000D03*
X189000000Y-103000000D03*
X189000000Y-103500000D03*
X189000000Y-104000000D03*
X189000000Y-106000000D03*
X189000000Y-105500000D03*
X189000000Y-105000000D03*
X189000000Y-104500000D03*
%TD*%
%TO.C,RN5*%
X190600000Y-92500000D03*
X190600000Y-94000000D03*
X190600000Y-93500000D03*
X190600000Y-94500000D03*
X190600000Y-93000000D03*
X190600000Y-96000000D03*
X190600000Y-95500000D03*
X190600000Y-95000000D03*
X189000000Y-92500000D03*
X189000000Y-93000000D03*
X189000000Y-93500000D03*
X189000000Y-94000000D03*
X189000000Y-96000000D03*
X189000000Y-95500000D03*
X189000000Y-95000000D03*
X189000000Y-94500000D03*
%TD*%
%TO.C,RN4*%
X167200000Y-95650000D03*
X167200000Y-94150000D03*
X167200000Y-94650000D03*
X167200000Y-93650000D03*
X167200000Y-95150000D03*
X167200000Y-92150000D03*
X167200000Y-92650000D03*
X167200000Y-93150000D03*
X168800000Y-95650000D03*
X168800000Y-95150000D03*
X168800000Y-94650000D03*
X168800000Y-94150000D03*
X168800000Y-92150000D03*
X168800000Y-92650000D03*
X168800000Y-93150000D03*
X168800000Y-93650000D03*
%TD*%
%TO.C,RN3*%
X167000000Y-106000000D03*
X167000000Y-104500000D03*
X167000000Y-105000000D03*
X167000000Y-104000000D03*
X167000000Y-105500000D03*
X167000000Y-102500000D03*
X167000000Y-103000000D03*
X167000000Y-103500000D03*
X168600000Y-106000000D03*
X168600000Y-105500000D03*
X168600000Y-105000000D03*
X168600000Y-104500000D03*
X168600000Y-102500000D03*
X168600000Y-103000000D03*
X168600000Y-103500000D03*
X168600000Y-104000000D03*
%TD*%
%TO.C,R22*%
G36*
G01*
X167737500Y-116956250D02*
X167737500Y-116443750D01*
G75*
G02*
X167956250Y-116225000I218750J0D01*
G01*
X168393750Y-116225000D01*
G75*
G02*
X168612500Y-116443750I0J-218750D01*
G01*
X168612500Y-116956250D01*
G75*
G02*
X168393750Y-117175000I-218750J0D01*
G01*
X167956250Y-117175000D01*
G75*
G02*
X167737500Y-116956250I0J218750D01*
G01*
G37*
G36*
G01*
X166162500Y-116956250D02*
X166162500Y-116443750D01*
G75*
G02*
X166381250Y-116225000I218750J0D01*
G01*
X166818750Y-116225000D01*
G75*
G02*
X167037500Y-116443750I0J-218750D01*
G01*
X167037500Y-116956250D01*
G75*
G02*
X166818750Y-117175000I-218750J0D01*
G01*
X166381250Y-117175000D01*
G75*
G02*
X166162500Y-116956250I0J218750D01*
G01*
G37*
%TD*%
%TO.C,C6*%
G36*
G01*
X151800000Y-77500000D02*
X151800000Y-76400000D01*
G75*
G02*
X152050000Y-76150000I250000J0D01*
G01*
X155050000Y-76150000D01*
G75*
G02*
X155300000Y-76400000I0J-250000D01*
G01*
X155300000Y-77500000D01*
G75*
G02*
X155050000Y-77750000I-250000J0D01*
G01*
X152050000Y-77750000D01*
G75*
G02*
X151800000Y-77500000I0J250000D01*
G01*
G37*
G36*
G01*
X146400000Y-77500000D02*
X146400000Y-76400000D01*
G75*
G02*
X146650000Y-76150000I250000J0D01*
G01*
X149650000Y-76150000D01*
G75*
G02*
X149900000Y-76400000I0J-250000D01*
G01*
X149900000Y-77500000D01*
G75*
G02*
X149650000Y-77750000I-250000J0D01*
G01*
X146650000Y-77750000D01*
G75*
G02*
X146400000Y-77500000I0J250000D01*
G01*
G37*
%TD*%
D19*
%TO.C,J6*%
X144000000Y-45200000D03*
D20*
X141175000Y-45400000D03*
X146825000Y-45400000D03*
%TD*%
D19*
%TO.C,J5*%
X192000000Y-45200000D03*
D20*
X189175000Y-45400000D03*
X194825000Y-45400000D03*
%TD*%
D19*
%TO.C,J4*%
X168000000Y-45200000D03*
D20*
X165175000Y-45400000D03*
X170825000Y-45400000D03*
%TD*%
D21*
%TO.C,Y1*%
X143125000Y-108000000D03*
X155000000Y-108000000D03*
%TD*%
D10*
%TO.C,U6*%
G36*
X177814141Y-77000104D02*
G01*
X177807476Y-77022074D01*
X177796654Y-77042321D01*
X177782089Y-77060068D01*
X177685068Y-77157089D01*
X177667321Y-77171654D01*
X177647074Y-77182476D01*
X177625104Y-77189141D01*
X177602256Y-77191391D01*
X177022744Y-77191391D01*
X176999896Y-77189141D01*
X176977926Y-77182476D01*
X176957679Y-77171654D01*
X176939932Y-77157089D01*
X176842911Y-77060068D01*
X176828346Y-77042321D01*
X176817524Y-77022074D01*
X176810859Y-77000104D01*
X176808609Y-76977256D01*
X176808609Y-76397744D01*
X176810859Y-76374896D01*
X176817524Y-76352926D01*
X176828346Y-76332679D01*
X176842911Y-76314932D01*
X176939932Y-76217911D01*
X176957679Y-76203346D01*
X176977926Y-76192524D01*
X176999896Y-76185859D01*
X177022744Y-76183609D01*
X177602256Y-76183609D01*
X177625104Y-76185859D01*
X177647074Y-76192524D01*
X177667321Y-76203346D01*
X177685068Y-76217911D01*
X177782089Y-76314932D01*
X177796654Y-76332679D01*
X177807476Y-76352926D01*
X177814141Y-76374896D01*
X177816391Y-76397744D01*
X177816391Y-76977256D01*
X177814141Y-77000104D01*
G37*
G36*
X178939141Y-77000104D02*
G01*
X178932476Y-77022074D01*
X178921654Y-77042321D01*
X178907089Y-77060068D01*
X178810068Y-77157089D01*
X178792321Y-77171654D01*
X178772074Y-77182476D01*
X178750104Y-77189141D01*
X178727256Y-77191391D01*
X178147744Y-77191391D01*
X178124896Y-77189141D01*
X178102926Y-77182476D01*
X178082679Y-77171654D01*
X178064932Y-77157089D01*
X177967911Y-77060068D01*
X177953346Y-77042321D01*
X177942524Y-77022074D01*
X177935859Y-77000104D01*
X177933609Y-76977256D01*
X177933609Y-76397744D01*
X177935859Y-76374896D01*
X177942524Y-76352926D01*
X177953346Y-76332679D01*
X177967911Y-76314932D01*
X178064932Y-76217911D01*
X178082679Y-76203346D01*
X178102926Y-76192524D01*
X178124896Y-76185859D01*
X178147744Y-76183609D01*
X178727256Y-76183609D01*
X178750104Y-76185859D01*
X178772074Y-76192524D01*
X178792321Y-76203346D01*
X178810068Y-76217911D01*
X178907089Y-76314932D01*
X178921654Y-76332679D01*
X178932476Y-76352926D01*
X178939141Y-76374896D01*
X178941391Y-76397744D01*
X178941391Y-76977256D01*
X178939141Y-77000104D01*
G37*
G36*
X180064141Y-77000104D02*
G01*
X180057476Y-77022074D01*
X180046654Y-77042321D01*
X180032089Y-77060068D01*
X179935068Y-77157089D01*
X179917321Y-77171654D01*
X179897074Y-77182476D01*
X179875104Y-77189141D01*
X179852256Y-77191391D01*
X179272744Y-77191391D01*
X179249896Y-77189141D01*
X179227926Y-77182476D01*
X179207679Y-77171654D01*
X179189932Y-77157089D01*
X179092911Y-77060068D01*
X179078346Y-77042321D01*
X179067524Y-77022074D01*
X179060859Y-77000104D01*
X179058609Y-76977256D01*
X179058609Y-76397744D01*
X179060859Y-76374896D01*
X179067524Y-76352926D01*
X179078346Y-76332679D01*
X179092911Y-76314932D01*
X179189932Y-76217911D01*
X179207679Y-76203346D01*
X179227926Y-76192524D01*
X179249896Y-76185859D01*
X179272744Y-76183609D01*
X179852256Y-76183609D01*
X179875104Y-76185859D01*
X179897074Y-76192524D01*
X179917321Y-76203346D01*
X179935068Y-76217911D01*
X180032089Y-76314932D01*
X180046654Y-76332679D01*
X180057476Y-76352926D01*
X180064141Y-76374896D01*
X180066391Y-76397744D01*
X180066391Y-76977256D01*
X180064141Y-77000104D01*
G37*
G36*
X181189141Y-77000104D02*
G01*
X181182476Y-77022074D01*
X181171654Y-77042321D01*
X181157089Y-77060068D01*
X181060068Y-77157089D01*
X181042321Y-77171654D01*
X181022074Y-77182476D01*
X181000104Y-77189141D01*
X180977256Y-77191391D01*
X180397744Y-77191391D01*
X180374896Y-77189141D01*
X180352926Y-77182476D01*
X180332679Y-77171654D01*
X180314932Y-77157089D01*
X180217911Y-77060068D01*
X180203346Y-77042321D01*
X180192524Y-77022074D01*
X180185859Y-77000104D01*
X180183609Y-76977256D01*
X180183609Y-76397744D01*
X180185859Y-76374896D01*
X180192524Y-76352926D01*
X180203346Y-76332679D01*
X180217911Y-76314932D01*
X180314932Y-76217911D01*
X180332679Y-76203346D01*
X180352926Y-76192524D01*
X180374896Y-76185859D01*
X180397744Y-76183609D01*
X180977256Y-76183609D01*
X181000104Y-76185859D01*
X181022074Y-76192524D01*
X181042321Y-76203346D01*
X181060068Y-76217911D01*
X181157089Y-76314932D01*
X181171654Y-76332679D01*
X181182476Y-76352926D01*
X181189141Y-76374896D01*
X181191391Y-76397744D01*
X181191391Y-76977256D01*
X181189141Y-77000104D01*
G37*
G36*
X177814141Y-75875104D02*
G01*
X177807476Y-75897074D01*
X177796654Y-75917321D01*
X177782089Y-75935068D01*
X177685068Y-76032089D01*
X177667321Y-76046654D01*
X177647074Y-76057476D01*
X177625104Y-76064141D01*
X177602256Y-76066391D01*
X177022744Y-76066391D01*
X176999896Y-76064141D01*
X176977926Y-76057476D01*
X176957679Y-76046654D01*
X176939932Y-76032089D01*
X176842911Y-75935068D01*
X176828346Y-75917321D01*
X176817524Y-75897074D01*
X176810859Y-75875104D01*
X176808609Y-75852256D01*
X176808609Y-75272744D01*
X176810859Y-75249896D01*
X176817524Y-75227926D01*
X176828346Y-75207679D01*
X176842911Y-75189932D01*
X176939932Y-75092911D01*
X176957679Y-75078346D01*
X176977926Y-75067524D01*
X176999896Y-75060859D01*
X177022744Y-75058609D01*
X177602256Y-75058609D01*
X177625104Y-75060859D01*
X177647074Y-75067524D01*
X177667321Y-75078346D01*
X177685068Y-75092911D01*
X177782089Y-75189932D01*
X177796654Y-75207679D01*
X177807476Y-75227926D01*
X177814141Y-75249896D01*
X177816391Y-75272744D01*
X177816391Y-75852256D01*
X177814141Y-75875104D01*
G37*
G36*
X178939141Y-75875104D02*
G01*
X178932476Y-75897074D01*
X178921654Y-75917321D01*
X178907089Y-75935068D01*
X178810068Y-76032089D01*
X178792321Y-76046654D01*
X178772074Y-76057476D01*
X178750104Y-76064141D01*
X178727256Y-76066391D01*
X178147744Y-76066391D01*
X178124896Y-76064141D01*
X178102926Y-76057476D01*
X178082679Y-76046654D01*
X178064932Y-76032089D01*
X177967911Y-75935068D01*
X177953346Y-75917321D01*
X177942524Y-75897074D01*
X177935859Y-75875104D01*
X177933609Y-75852256D01*
X177933609Y-75272744D01*
X177935859Y-75249896D01*
X177942524Y-75227926D01*
X177953346Y-75207679D01*
X177967911Y-75189932D01*
X178064932Y-75092911D01*
X178082679Y-75078346D01*
X178102926Y-75067524D01*
X178124896Y-75060859D01*
X178147744Y-75058609D01*
X178727256Y-75058609D01*
X178750104Y-75060859D01*
X178772074Y-75067524D01*
X178792321Y-75078346D01*
X178810068Y-75092911D01*
X178907089Y-75189932D01*
X178921654Y-75207679D01*
X178932476Y-75227926D01*
X178939141Y-75249896D01*
X178941391Y-75272744D01*
X178941391Y-75852256D01*
X178939141Y-75875104D01*
G37*
G36*
X180064141Y-75875104D02*
G01*
X180057476Y-75897074D01*
X180046654Y-75917321D01*
X180032089Y-75935068D01*
X179935068Y-76032089D01*
X179917321Y-76046654D01*
X179897074Y-76057476D01*
X179875104Y-76064141D01*
X179852256Y-76066391D01*
X179272744Y-76066391D01*
X179249896Y-76064141D01*
X179227926Y-76057476D01*
X179207679Y-76046654D01*
X179189932Y-76032089D01*
X179092911Y-75935068D01*
X179078346Y-75917321D01*
X179067524Y-75897074D01*
X179060859Y-75875104D01*
X179058609Y-75852256D01*
X179058609Y-75272744D01*
X179060859Y-75249896D01*
X179067524Y-75227926D01*
X179078346Y-75207679D01*
X179092911Y-75189932D01*
X179189932Y-75092911D01*
X179207679Y-75078346D01*
X179227926Y-75067524D01*
X179249896Y-75060859D01*
X179272744Y-75058609D01*
X179852256Y-75058609D01*
X179875104Y-75060859D01*
X179897074Y-75067524D01*
X179917321Y-75078346D01*
X179935068Y-75092911D01*
X180032089Y-75189932D01*
X180046654Y-75207679D01*
X180057476Y-75227926D01*
X180064141Y-75249896D01*
X180066391Y-75272744D01*
X180066391Y-75852256D01*
X180064141Y-75875104D01*
G37*
G36*
X181189141Y-75875104D02*
G01*
X181182476Y-75897074D01*
X181171654Y-75917321D01*
X181157089Y-75935068D01*
X181060068Y-76032089D01*
X181042321Y-76046654D01*
X181022074Y-76057476D01*
X181000104Y-76064141D01*
X180977256Y-76066391D01*
X180397744Y-76066391D01*
X180374896Y-76064141D01*
X180352926Y-76057476D01*
X180332679Y-76046654D01*
X180314932Y-76032089D01*
X180217911Y-75935068D01*
X180203346Y-75917321D01*
X180192524Y-75897074D01*
X180185859Y-75875104D01*
X180183609Y-75852256D01*
X180183609Y-75272744D01*
X180185859Y-75249896D01*
X180192524Y-75227926D01*
X180203346Y-75207679D01*
X180217911Y-75189932D01*
X180314932Y-75092911D01*
X180332679Y-75078346D01*
X180352926Y-75067524D01*
X180374896Y-75060859D01*
X180397744Y-75058609D01*
X180977256Y-75058609D01*
X181000104Y-75060859D01*
X181022074Y-75067524D01*
X181042321Y-75078346D01*
X181060068Y-75092911D01*
X181157089Y-75189932D01*
X181171654Y-75207679D01*
X181182476Y-75227926D01*
X181189141Y-75249896D01*
X181191391Y-75272744D01*
X181191391Y-75852256D01*
X181189141Y-75875104D01*
G37*
G36*
X177814141Y-74750104D02*
G01*
X177807476Y-74772074D01*
X177796654Y-74792321D01*
X177782089Y-74810068D01*
X177685068Y-74907089D01*
X177667321Y-74921654D01*
X177647074Y-74932476D01*
X177625104Y-74939141D01*
X177602256Y-74941391D01*
X177022744Y-74941391D01*
X176999896Y-74939141D01*
X176977926Y-74932476D01*
X176957679Y-74921654D01*
X176939932Y-74907089D01*
X176842911Y-74810068D01*
X176828346Y-74792321D01*
X176817524Y-74772074D01*
X176810859Y-74750104D01*
X176808609Y-74727256D01*
X176808609Y-74147744D01*
X176810859Y-74124896D01*
X176817524Y-74102926D01*
X176828346Y-74082679D01*
X176842911Y-74064932D01*
X176939932Y-73967911D01*
X176957679Y-73953346D01*
X176977926Y-73942524D01*
X176999896Y-73935859D01*
X177022744Y-73933609D01*
X177602256Y-73933609D01*
X177625104Y-73935859D01*
X177647074Y-73942524D01*
X177667321Y-73953346D01*
X177685068Y-73967911D01*
X177782089Y-74064932D01*
X177796654Y-74082679D01*
X177807476Y-74102926D01*
X177814141Y-74124896D01*
X177816391Y-74147744D01*
X177816391Y-74727256D01*
X177814141Y-74750104D01*
G37*
G36*
X178939141Y-74750104D02*
G01*
X178932476Y-74772074D01*
X178921654Y-74792321D01*
X178907089Y-74810068D01*
X178810068Y-74907089D01*
X178792321Y-74921654D01*
X178772074Y-74932476D01*
X178750104Y-74939141D01*
X178727256Y-74941391D01*
X178147744Y-74941391D01*
X178124896Y-74939141D01*
X178102926Y-74932476D01*
X178082679Y-74921654D01*
X178064932Y-74907089D01*
X177967911Y-74810068D01*
X177953346Y-74792321D01*
X177942524Y-74772074D01*
X177935859Y-74750104D01*
X177933609Y-74727256D01*
X177933609Y-74147744D01*
X177935859Y-74124896D01*
X177942524Y-74102926D01*
X177953346Y-74082679D01*
X177967911Y-74064932D01*
X178064932Y-73967911D01*
X178082679Y-73953346D01*
X178102926Y-73942524D01*
X178124896Y-73935859D01*
X178147744Y-73933609D01*
X178727256Y-73933609D01*
X178750104Y-73935859D01*
X178772074Y-73942524D01*
X178792321Y-73953346D01*
X178810068Y-73967911D01*
X178907089Y-74064932D01*
X178921654Y-74082679D01*
X178932476Y-74102926D01*
X178939141Y-74124896D01*
X178941391Y-74147744D01*
X178941391Y-74727256D01*
X178939141Y-74750104D01*
G37*
G36*
X180064141Y-74750104D02*
G01*
X180057476Y-74772074D01*
X180046654Y-74792321D01*
X180032089Y-74810068D01*
X179935068Y-74907089D01*
X179917321Y-74921654D01*
X179897074Y-74932476D01*
X179875104Y-74939141D01*
X179852256Y-74941391D01*
X179272744Y-74941391D01*
X179249896Y-74939141D01*
X179227926Y-74932476D01*
X179207679Y-74921654D01*
X179189932Y-74907089D01*
X179092911Y-74810068D01*
X179078346Y-74792321D01*
X179067524Y-74772074D01*
X179060859Y-74750104D01*
X179058609Y-74727256D01*
X179058609Y-74147744D01*
X179060859Y-74124896D01*
X179067524Y-74102926D01*
X179078346Y-74082679D01*
X179092911Y-74064932D01*
X179189932Y-73967911D01*
X179207679Y-73953346D01*
X179227926Y-73942524D01*
X179249896Y-73935859D01*
X179272744Y-73933609D01*
X179852256Y-73933609D01*
X179875104Y-73935859D01*
X179897074Y-73942524D01*
X179917321Y-73953346D01*
X179935068Y-73967911D01*
X180032089Y-74064932D01*
X180046654Y-74082679D01*
X180057476Y-74102926D01*
X180064141Y-74124896D01*
X180066391Y-74147744D01*
X180066391Y-74727256D01*
X180064141Y-74750104D01*
G37*
G36*
X181189141Y-74750104D02*
G01*
X181182476Y-74772074D01*
X181171654Y-74792321D01*
X181157089Y-74810068D01*
X181060068Y-74907089D01*
X181042321Y-74921654D01*
X181022074Y-74932476D01*
X181000104Y-74939141D01*
X180977256Y-74941391D01*
X180397744Y-74941391D01*
X180374896Y-74939141D01*
X180352926Y-74932476D01*
X180332679Y-74921654D01*
X180314932Y-74907089D01*
X180217911Y-74810068D01*
X180203346Y-74792321D01*
X180192524Y-74772074D01*
X180185859Y-74750104D01*
X180183609Y-74727256D01*
X180183609Y-74147744D01*
X180185859Y-74124896D01*
X180192524Y-74102926D01*
X180203346Y-74082679D01*
X180217911Y-74064932D01*
X180314932Y-73967911D01*
X180332679Y-73953346D01*
X180352926Y-73942524D01*
X180374896Y-73935859D01*
X180397744Y-73933609D01*
X180977256Y-73933609D01*
X181000104Y-73935859D01*
X181022074Y-73942524D01*
X181042321Y-73953346D01*
X181060068Y-73967911D01*
X181157089Y-74064932D01*
X181171654Y-74082679D01*
X181182476Y-74102926D01*
X181189141Y-74124896D01*
X181191391Y-74147744D01*
X181191391Y-74727256D01*
X181189141Y-74750104D01*
G37*
G36*
X177814141Y-73625104D02*
G01*
X177807476Y-73647074D01*
X177796654Y-73667321D01*
X177782089Y-73685068D01*
X177685068Y-73782089D01*
X177667321Y-73796654D01*
X177647074Y-73807476D01*
X177625104Y-73814141D01*
X177602256Y-73816391D01*
X177022744Y-73816391D01*
X176999896Y-73814141D01*
X176977926Y-73807476D01*
X176957679Y-73796654D01*
X176939932Y-73782089D01*
X176842911Y-73685068D01*
X176828346Y-73667321D01*
X176817524Y-73647074D01*
X176810859Y-73625104D01*
X176808609Y-73602256D01*
X176808609Y-73022744D01*
X176810859Y-72999896D01*
X176817524Y-72977926D01*
X176828346Y-72957679D01*
X176842911Y-72939932D01*
X176939932Y-72842911D01*
X176957679Y-72828346D01*
X176977926Y-72817524D01*
X176999896Y-72810859D01*
X177022744Y-72808609D01*
X177602256Y-72808609D01*
X177625104Y-72810859D01*
X177647074Y-72817524D01*
X177667321Y-72828346D01*
X177685068Y-72842911D01*
X177782089Y-72939932D01*
X177796654Y-72957679D01*
X177807476Y-72977926D01*
X177814141Y-72999896D01*
X177816391Y-73022744D01*
X177816391Y-73602256D01*
X177814141Y-73625104D01*
G37*
G36*
X178939141Y-73625104D02*
G01*
X178932476Y-73647074D01*
X178921654Y-73667321D01*
X178907089Y-73685068D01*
X178810068Y-73782089D01*
X178792321Y-73796654D01*
X178772074Y-73807476D01*
X178750104Y-73814141D01*
X178727256Y-73816391D01*
X178147744Y-73816391D01*
X178124896Y-73814141D01*
X178102926Y-73807476D01*
X178082679Y-73796654D01*
X178064932Y-73782089D01*
X177967911Y-73685068D01*
X177953346Y-73667321D01*
X177942524Y-73647074D01*
X177935859Y-73625104D01*
X177933609Y-73602256D01*
X177933609Y-73022744D01*
X177935859Y-72999896D01*
X177942524Y-72977926D01*
X177953346Y-72957679D01*
X177967911Y-72939932D01*
X178064932Y-72842911D01*
X178082679Y-72828346D01*
X178102926Y-72817524D01*
X178124896Y-72810859D01*
X178147744Y-72808609D01*
X178727256Y-72808609D01*
X178750104Y-72810859D01*
X178772074Y-72817524D01*
X178792321Y-72828346D01*
X178810068Y-72842911D01*
X178907089Y-72939932D01*
X178921654Y-72957679D01*
X178932476Y-72977926D01*
X178939141Y-72999896D01*
X178941391Y-73022744D01*
X178941391Y-73602256D01*
X178939141Y-73625104D01*
G37*
G36*
X180064141Y-73625104D02*
G01*
X180057476Y-73647074D01*
X180046654Y-73667321D01*
X180032089Y-73685068D01*
X179935068Y-73782089D01*
X179917321Y-73796654D01*
X179897074Y-73807476D01*
X179875104Y-73814141D01*
X179852256Y-73816391D01*
X179272744Y-73816391D01*
X179249896Y-73814141D01*
X179227926Y-73807476D01*
X179207679Y-73796654D01*
X179189932Y-73782089D01*
X179092911Y-73685068D01*
X179078346Y-73667321D01*
X179067524Y-73647074D01*
X179060859Y-73625104D01*
X179058609Y-73602256D01*
X179058609Y-73022744D01*
X179060859Y-72999896D01*
X179067524Y-72977926D01*
X179078346Y-72957679D01*
X179092911Y-72939932D01*
X179189932Y-72842911D01*
X179207679Y-72828346D01*
X179227926Y-72817524D01*
X179249896Y-72810859D01*
X179272744Y-72808609D01*
X179852256Y-72808609D01*
X179875104Y-72810859D01*
X179897074Y-72817524D01*
X179917321Y-72828346D01*
X179935068Y-72842911D01*
X180032089Y-72939932D01*
X180046654Y-72957679D01*
X180057476Y-72977926D01*
X180064141Y-72999896D01*
X180066391Y-73022744D01*
X180066391Y-73602256D01*
X180064141Y-73625104D01*
G37*
G36*
X181189141Y-73625104D02*
G01*
X181182476Y-73647074D01*
X181171654Y-73667321D01*
X181157089Y-73685068D01*
X181060068Y-73782089D01*
X181042321Y-73796654D01*
X181022074Y-73807476D01*
X181000104Y-73814141D01*
X180977256Y-73816391D01*
X180397744Y-73816391D01*
X180374896Y-73814141D01*
X180352926Y-73807476D01*
X180332679Y-73796654D01*
X180314932Y-73782089D01*
X180217911Y-73685068D01*
X180203346Y-73667321D01*
X180192524Y-73647074D01*
X180185859Y-73625104D01*
X180183609Y-73602256D01*
X180183609Y-73022744D01*
X180185859Y-72999896D01*
X180192524Y-72977926D01*
X180203346Y-72957679D01*
X180217911Y-72939932D01*
X180314932Y-72842911D01*
X180332679Y-72828346D01*
X180352926Y-72817524D01*
X180374896Y-72810859D01*
X180397744Y-72808609D01*
X180977256Y-72808609D01*
X181000104Y-72810859D01*
X181022074Y-72817524D01*
X181042321Y-72828346D01*
X181060068Y-72842911D01*
X181157089Y-72939932D01*
X181171654Y-72957679D01*
X181182476Y-72977926D01*
X181189141Y-72999896D01*
X181191391Y-73022744D01*
X181191391Y-73602256D01*
X181189141Y-73625104D01*
G37*
G36*
G01*
X186000000Y-68850000D02*
X187325000Y-68850000D01*
G75*
G02*
X187400000Y-68925000I0J-75000D01*
G01*
X187400000Y-69075000D01*
G75*
G02*
X187325000Y-69150000I-75000J0D01*
G01*
X186000000Y-69150000D01*
G75*
G02*
X185925000Y-69075000I0J75000D01*
G01*
X185925000Y-68925000D01*
G75*
G02*
X186000000Y-68850000I75000J0D01*
G01*
G37*
G36*
G01*
X186000000Y-69350000D02*
X187325000Y-69350000D01*
G75*
G02*
X187400000Y-69425000I0J-75000D01*
G01*
X187400000Y-69575000D01*
G75*
G02*
X187325000Y-69650000I-75000J0D01*
G01*
X186000000Y-69650000D01*
G75*
G02*
X185925000Y-69575000I0J75000D01*
G01*
X185925000Y-69425000D01*
G75*
G02*
X186000000Y-69350000I75000J0D01*
G01*
G37*
G36*
G01*
X186000000Y-69850000D02*
X187325000Y-69850000D01*
G75*
G02*
X187400000Y-69925000I0J-75000D01*
G01*
X187400000Y-70075000D01*
G75*
G02*
X187325000Y-70150000I-75000J0D01*
G01*
X186000000Y-70150000D01*
G75*
G02*
X185925000Y-70075000I0J75000D01*
G01*
X185925000Y-69925000D01*
G75*
G02*
X186000000Y-69850000I75000J0D01*
G01*
G37*
G36*
G01*
X186000000Y-70350000D02*
X187325000Y-70350000D01*
G75*
G02*
X187400000Y-70425000I0J-75000D01*
G01*
X187400000Y-70575000D01*
G75*
G02*
X187325000Y-70650000I-75000J0D01*
G01*
X186000000Y-70650000D01*
G75*
G02*
X185925000Y-70575000I0J75000D01*
G01*
X185925000Y-70425000D01*
G75*
G02*
X186000000Y-70350000I75000J0D01*
G01*
G37*
G36*
G01*
X186000000Y-70850000D02*
X187325000Y-70850000D01*
G75*
G02*
X187400000Y-70925000I0J-75000D01*
G01*
X187400000Y-71075000D01*
G75*
G02*
X187325000Y-71150000I-75000J0D01*
G01*
X186000000Y-71150000D01*
G75*
G02*
X185925000Y-71075000I0J75000D01*
G01*
X185925000Y-70925000D01*
G75*
G02*
X186000000Y-70850000I75000J0D01*
G01*
G37*
G36*
G01*
X186000000Y-71350000D02*
X187325000Y-71350000D01*
G75*
G02*
X187400000Y-71425000I0J-75000D01*
G01*
X187400000Y-71575000D01*
G75*
G02*
X187325000Y-71650000I-75000J0D01*
G01*
X186000000Y-71650000D01*
G75*
G02*
X185925000Y-71575000I0J75000D01*
G01*
X185925000Y-71425000D01*
G75*
G02*
X186000000Y-71350000I75000J0D01*
G01*
G37*
G36*
G01*
X186000000Y-71850000D02*
X187325000Y-71850000D01*
G75*
G02*
X187400000Y-71925000I0J-75000D01*
G01*
X187400000Y-72075000D01*
G75*
G02*
X187325000Y-72150000I-75000J0D01*
G01*
X186000000Y-72150000D01*
G75*
G02*
X185925000Y-72075000I0J75000D01*
G01*
X185925000Y-71925000D01*
G75*
G02*
X186000000Y-71850000I75000J0D01*
G01*
G37*
G36*
G01*
X186000000Y-72350000D02*
X187325000Y-72350000D01*
G75*
G02*
X187400000Y-72425000I0J-75000D01*
G01*
X187400000Y-72575000D01*
G75*
G02*
X187325000Y-72650000I-75000J0D01*
G01*
X186000000Y-72650000D01*
G75*
G02*
X185925000Y-72575000I0J75000D01*
G01*
X185925000Y-72425000D01*
G75*
G02*
X186000000Y-72350000I75000J0D01*
G01*
G37*
G36*
G01*
X186000000Y-72850000D02*
X187325000Y-72850000D01*
G75*
G02*
X187400000Y-72925000I0J-75000D01*
G01*
X187400000Y-73075000D01*
G75*
G02*
X187325000Y-73150000I-75000J0D01*
G01*
X186000000Y-73150000D01*
G75*
G02*
X185925000Y-73075000I0J75000D01*
G01*
X185925000Y-72925000D01*
G75*
G02*
X186000000Y-72850000I75000J0D01*
G01*
G37*
G36*
G01*
X186000000Y-73350000D02*
X187325000Y-73350000D01*
G75*
G02*
X187400000Y-73425000I0J-75000D01*
G01*
X187400000Y-73575000D01*
G75*
G02*
X187325000Y-73650000I-75000J0D01*
G01*
X186000000Y-73650000D01*
G75*
G02*
X185925000Y-73575000I0J75000D01*
G01*
X185925000Y-73425000D01*
G75*
G02*
X186000000Y-73350000I75000J0D01*
G01*
G37*
G36*
G01*
X186000000Y-73850000D02*
X187325000Y-73850000D01*
G75*
G02*
X187400000Y-73925000I0J-75000D01*
G01*
X187400000Y-74075000D01*
G75*
G02*
X187325000Y-74150000I-75000J0D01*
G01*
X186000000Y-74150000D01*
G75*
G02*
X185925000Y-74075000I0J75000D01*
G01*
X185925000Y-73925000D01*
G75*
G02*
X186000000Y-73850000I75000J0D01*
G01*
G37*
G36*
G01*
X186000000Y-74350000D02*
X187325000Y-74350000D01*
G75*
G02*
X187400000Y-74425000I0J-75000D01*
G01*
X187400000Y-74575000D01*
G75*
G02*
X187325000Y-74650000I-75000J0D01*
G01*
X186000000Y-74650000D01*
G75*
G02*
X185925000Y-74575000I0J75000D01*
G01*
X185925000Y-74425000D01*
G75*
G02*
X186000000Y-74350000I75000J0D01*
G01*
G37*
G36*
G01*
X186000000Y-74850000D02*
X187325000Y-74850000D01*
G75*
G02*
X187400000Y-74925000I0J-75000D01*
G01*
X187400000Y-75075000D01*
G75*
G02*
X187325000Y-75150000I-75000J0D01*
G01*
X186000000Y-75150000D01*
G75*
G02*
X185925000Y-75075000I0J75000D01*
G01*
X185925000Y-74925000D01*
G75*
G02*
X186000000Y-74850000I75000J0D01*
G01*
G37*
G36*
G01*
X186000000Y-75350000D02*
X187325000Y-75350000D01*
G75*
G02*
X187400000Y-75425000I0J-75000D01*
G01*
X187400000Y-75575000D01*
G75*
G02*
X187325000Y-75650000I-75000J0D01*
G01*
X186000000Y-75650000D01*
G75*
G02*
X185925000Y-75575000I0J75000D01*
G01*
X185925000Y-75425000D01*
G75*
G02*
X186000000Y-75350000I75000J0D01*
G01*
G37*
G36*
G01*
X186000000Y-75850000D02*
X187325000Y-75850000D01*
G75*
G02*
X187400000Y-75925000I0J-75000D01*
G01*
X187400000Y-76075000D01*
G75*
G02*
X187325000Y-76150000I-75000J0D01*
G01*
X186000000Y-76150000D01*
G75*
G02*
X185925000Y-76075000I0J75000D01*
G01*
X185925000Y-75925000D01*
G75*
G02*
X186000000Y-75850000I75000J0D01*
G01*
G37*
G36*
G01*
X186000000Y-76350000D02*
X187325000Y-76350000D01*
G75*
G02*
X187400000Y-76425000I0J-75000D01*
G01*
X187400000Y-76575000D01*
G75*
G02*
X187325000Y-76650000I-75000J0D01*
G01*
X186000000Y-76650000D01*
G75*
G02*
X185925000Y-76575000I0J75000D01*
G01*
X185925000Y-76425000D01*
G75*
G02*
X186000000Y-76350000I75000J0D01*
G01*
G37*
G36*
G01*
X186000000Y-76850000D02*
X187325000Y-76850000D01*
G75*
G02*
X187400000Y-76925000I0J-75000D01*
G01*
X187400000Y-77075000D01*
G75*
G02*
X187325000Y-77150000I-75000J0D01*
G01*
X186000000Y-77150000D01*
G75*
G02*
X185925000Y-77075000I0J75000D01*
G01*
X185925000Y-76925000D01*
G75*
G02*
X186000000Y-76850000I75000J0D01*
G01*
G37*
G36*
G01*
X186000000Y-77350000D02*
X187325000Y-77350000D01*
G75*
G02*
X187400000Y-77425000I0J-75000D01*
G01*
X187400000Y-77575000D01*
G75*
G02*
X187325000Y-77650000I-75000J0D01*
G01*
X186000000Y-77650000D01*
G75*
G02*
X185925000Y-77575000I0J75000D01*
G01*
X185925000Y-77425000D01*
G75*
G02*
X186000000Y-77350000I75000J0D01*
G01*
G37*
G36*
G01*
X186000000Y-77850000D02*
X187325000Y-77850000D01*
G75*
G02*
X187400000Y-77925000I0J-75000D01*
G01*
X187400000Y-78075000D01*
G75*
G02*
X187325000Y-78150000I-75000J0D01*
G01*
X186000000Y-78150000D01*
G75*
G02*
X185925000Y-78075000I0J75000D01*
G01*
X185925000Y-77925000D01*
G75*
G02*
X186000000Y-77850000I75000J0D01*
G01*
G37*
G36*
G01*
X186000000Y-78350000D02*
X187325000Y-78350000D01*
G75*
G02*
X187400000Y-78425000I0J-75000D01*
G01*
X187400000Y-78575000D01*
G75*
G02*
X187325000Y-78650000I-75000J0D01*
G01*
X186000000Y-78650000D01*
G75*
G02*
X185925000Y-78575000I0J75000D01*
G01*
X185925000Y-78425000D01*
G75*
G02*
X186000000Y-78350000I75000J0D01*
G01*
G37*
G36*
G01*
X186000000Y-78850000D02*
X187325000Y-78850000D01*
G75*
G02*
X187400000Y-78925000I0J-75000D01*
G01*
X187400000Y-79075000D01*
G75*
G02*
X187325000Y-79150000I-75000J0D01*
G01*
X186000000Y-79150000D01*
G75*
G02*
X185925000Y-79075000I0J75000D01*
G01*
X185925000Y-78925000D01*
G75*
G02*
X186000000Y-78850000I75000J0D01*
G01*
G37*
G36*
G01*
X186000000Y-79350000D02*
X187325000Y-79350000D01*
G75*
G02*
X187400000Y-79425000I0J-75000D01*
G01*
X187400000Y-79575000D01*
G75*
G02*
X187325000Y-79650000I-75000J0D01*
G01*
X186000000Y-79650000D01*
G75*
G02*
X185925000Y-79575000I0J75000D01*
G01*
X185925000Y-79425000D01*
G75*
G02*
X186000000Y-79350000I75000J0D01*
G01*
G37*
G36*
G01*
X186000000Y-79850000D02*
X187325000Y-79850000D01*
G75*
G02*
X187400000Y-79925000I0J-75000D01*
G01*
X187400000Y-80075000D01*
G75*
G02*
X187325000Y-80150000I-75000J0D01*
G01*
X186000000Y-80150000D01*
G75*
G02*
X185925000Y-80075000I0J75000D01*
G01*
X185925000Y-79925000D01*
G75*
G02*
X186000000Y-79850000I75000J0D01*
G01*
G37*
G36*
G01*
X186000000Y-80350000D02*
X187325000Y-80350000D01*
G75*
G02*
X187400000Y-80425000I0J-75000D01*
G01*
X187400000Y-80575000D01*
G75*
G02*
X187325000Y-80650000I-75000J0D01*
G01*
X186000000Y-80650000D01*
G75*
G02*
X185925000Y-80575000I0J75000D01*
G01*
X185925000Y-80425000D01*
G75*
G02*
X186000000Y-80350000I75000J0D01*
G01*
G37*
G36*
G01*
X186000000Y-80850000D02*
X187325000Y-80850000D01*
G75*
G02*
X187400000Y-80925000I0J-75000D01*
G01*
X187400000Y-81075000D01*
G75*
G02*
X187325000Y-81150000I-75000J0D01*
G01*
X186000000Y-81150000D01*
G75*
G02*
X185925000Y-81075000I0J75000D01*
G01*
X185925000Y-80925000D01*
G75*
G02*
X186000000Y-80850000I75000J0D01*
G01*
G37*
G36*
G01*
X184925000Y-81925000D02*
X185075000Y-81925000D01*
G75*
G02*
X185150000Y-82000000I0J-75000D01*
G01*
X185150000Y-83325000D01*
G75*
G02*
X185075000Y-83400000I-75000J0D01*
G01*
X184925000Y-83400000D01*
G75*
G02*
X184850000Y-83325000I0J75000D01*
G01*
X184850000Y-82000000D01*
G75*
G02*
X184925000Y-81925000I75000J0D01*
G01*
G37*
G36*
G01*
X184425000Y-81925000D02*
X184575000Y-81925000D01*
G75*
G02*
X184650000Y-82000000I0J-75000D01*
G01*
X184650000Y-83325000D01*
G75*
G02*
X184575000Y-83400000I-75000J0D01*
G01*
X184425000Y-83400000D01*
G75*
G02*
X184350000Y-83325000I0J75000D01*
G01*
X184350000Y-82000000D01*
G75*
G02*
X184425000Y-81925000I75000J0D01*
G01*
G37*
G36*
G01*
X183925000Y-81925000D02*
X184075000Y-81925000D01*
G75*
G02*
X184150000Y-82000000I0J-75000D01*
G01*
X184150000Y-83325000D01*
G75*
G02*
X184075000Y-83400000I-75000J0D01*
G01*
X183925000Y-83400000D01*
G75*
G02*
X183850000Y-83325000I0J75000D01*
G01*
X183850000Y-82000000D01*
G75*
G02*
X183925000Y-81925000I75000J0D01*
G01*
G37*
G36*
G01*
X183425000Y-81925000D02*
X183575000Y-81925000D01*
G75*
G02*
X183650000Y-82000000I0J-75000D01*
G01*
X183650000Y-83325000D01*
G75*
G02*
X183575000Y-83400000I-75000J0D01*
G01*
X183425000Y-83400000D01*
G75*
G02*
X183350000Y-83325000I0J75000D01*
G01*
X183350000Y-82000000D01*
G75*
G02*
X183425000Y-81925000I75000J0D01*
G01*
G37*
G36*
G01*
X182925000Y-81925000D02*
X183075000Y-81925000D01*
G75*
G02*
X183150000Y-82000000I0J-75000D01*
G01*
X183150000Y-83325000D01*
G75*
G02*
X183075000Y-83400000I-75000J0D01*
G01*
X182925000Y-83400000D01*
G75*
G02*
X182850000Y-83325000I0J75000D01*
G01*
X182850000Y-82000000D01*
G75*
G02*
X182925000Y-81925000I75000J0D01*
G01*
G37*
G36*
G01*
X182425000Y-81925000D02*
X182575000Y-81925000D01*
G75*
G02*
X182650000Y-82000000I0J-75000D01*
G01*
X182650000Y-83325000D01*
G75*
G02*
X182575000Y-83400000I-75000J0D01*
G01*
X182425000Y-83400000D01*
G75*
G02*
X182350000Y-83325000I0J75000D01*
G01*
X182350000Y-82000000D01*
G75*
G02*
X182425000Y-81925000I75000J0D01*
G01*
G37*
G36*
G01*
X181925000Y-81925000D02*
X182075000Y-81925000D01*
G75*
G02*
X182150000Y-82000000I0J-75000D01*
G01*
X182150000Y-83325000D01*
G75*
G02*
X182075000Y-83400000I-75000J0D01*
G01*
X181925000Y-83400000D01*
G75*
G02*
X181850000Y-83325000I0J75000D01*
G01*
X181850000Y-82000000D01*
G75*
G02*
X181925000Y-81925000I75000J0D01*
G01*
G37*
G36*
G01*
X181425000Y-81925000D02*
X181575000Y-81925000D01*
G75*
G02*
X181650000Y-82000000I0J-75000D01*
G01*
X181650000Y-83325000D01*
G75*
G02*
X181575000Y-83400000I-75000J0D01*
G01*
X181425000Y-83400000D01*
G75*
G02*
X181350000Y-83325000I0J75000D01*
G01*
X181350000Y-82000000D01*
G75*
G02*
X181425000Y-81925000I75000J0D01*
G01*
G37*
G36*
G01*
X180925000Y-81925000D02*
X181075000Y-81925000D01*
G75*
G02*
X181150000Y-82000000I0J-75000D01*
G01*
X181150000Y-83325000D01*
G75*
G02*
X181075000Y-83400000I-75000J0D01*
G01*
X180925000Y-83400000D01*
G75*
G02*
X180850000Y-83325000I0J75000D01*
G01*
X180850000Y-82000000D01*
G75*
G02*
X180925000Y-81925000I75000J0D01*
G01*
G37*
G36*
G01*
X180425000Y-81925000D02*
X180575000Y-81925000D01*
G75*
G02*
X180650000Y-82000000I0J-75000D01*
G01*
X180650000Y-83325000D01*
G75*
G02*
X180575000Y-83400000I-75000J0D01*
G01*
X180425000Y-83400000D01*
G75*
G02*
X180350000Y-83325000I0J75000D01*
G01*
X180350000Y-82000000D01*
G75*
G02*
X180425000Y-81925000I75000J0D01*
G01*
G37*
G36*
G01*
X179925000Y-81925000D02*
X180075000Y-81925000D01*
G75*
G02*
X180150000Y-82000000I0J-75000D01*
G01*
X180150000Y-83325000D01*
G75*
G02*
X180075000Y-83400000I-75000J0D01*
G01*
X179925000Y-83400000D01*
G75*
G02*
X179850000Y-83325000I0J75000D01*
G01*
X179850000Y-82000000D01*
G75*
G02*
X179925000Y-81925000I75000J0D01*
G01*
G37*
G36*
G01*
X179425000Y-81925000D02*
X179575000Y-81925000D01*
G75*
G02*
X179650000Y-82000000I0J-75000D01*
G01*
X179650000Y-83325000D01*
G75*
G02*
X179575000Y-83400000I-75000J0D01*
G01*
X179425000Y-83400000D01*
G75*
G02*
X179350000Y-83325000I0J75000D01*
G01*
X179350000Y-82000000D01*
G75*
G02*
X179425000Y-81925000I75000J0D01*
G01*
G37*
G36*
G01*
X178925000Y-81925000D02*
X179075000Y-81925000D01*
G75*
G02*
X179150000Y-82000000I0J-75000D01*
G01*
X179150000Y-83325000D01*
G75*
G02*
X179075000Y-83400000I-75000J0D01*
G01*
X178925000Y-83400000D01*
G75*
G02*
X178850000Y-83325000I0J75000D01*
G01*
X178850000Y-82000000D01*
G75*
G02*
X178925000Y-81925000I75000J0D01*
G01*
G37*
G36*
G01*
X178425000Y-81925000D02*
X178575000Y-81925000D01*
G75*
G02*
X178650000Y-82000000I0J-75000D01*
G01*
X178650000Y-83325000D01*
G75*
G02*
X178575000Y-83400000I-75000J0D01*
G01*
X178425000Y-83400000D01*
G75*
G02*
X178350000Y-83325000I0J75000D01*
G01*
X178350000Y-82000000D01*
G75*
G02*
X178425000Y-81925000I75000J0D01*
G01*
G37*
G36*
G01*
X177925000Y-81925000D02*
X178075000Y-81925000D01*
G75*
G02*
X178150000Y-82000000I0J-75000D01*
G01*
X178150000Y-83325000D01*
G75*
G02*
X178075000Y-83400000I-75000J0D01*
G01*
X177925000Y-83400000D01*
G75*
G02*
X177850000Y-83325000I0J75000D01*
G01*
X177850000Y-82000000D01*
G75*
G02*
X177925000Y-81925000I75000J0D01*
G01*
G37*
G36*
G01*
X177425000Y-81925000D02*
X177575000Y-81925000D01*
G75*
G02*
X177650000Y-82000000I0J-75000D01*
G01*
X177650000Y-83325000D01*
G75*
G02*
X177575000Y-83400000I-75000J0D01*
G01*
X177425000Y-83400000D01*
G75*
G02*
X177350000Y-83325000I0J75000D01*
G01*
X177350000Y-82000000D01*
G75*
G02*
X177425000Y-81925000I75000J0D01*
G01*
G37*
G36*
G01*
X176925000Y-81925000D02*
X177075000Y-81925000D01*
G75*
G02*
X177150000Y-82000000I0J-75000D01*
G01*
X177150000Y-83325000D01*
G75*
G02*
X177075000Y-83400000I-75000J0D01*
G01*
X176925000Y-83400000D01*
G75*
G02*
X176850000Y-83325000I0J75000D01*
G01*
X176850000Y-82000000D01*
G75*
G02*
X176925000Y-81925000I75000J0D01*
G01*
G37*
G36*
G01*
X176425000Y-81925000D02*
X176575000Y-81925000D01*
G75*
G02*
X176650000Y-82000000I0J-75000D01*
G01*
X176650000Y-83325000D01*
G75*
G02*
X176575000Y-83400000I-75000J0D01*
G01*
X176425000Y-83400000D01*
G75*
G02*
X176350000Y-83325000I0J75000D01*
G01*
X176350000Y-82000000D01*
G75*
G02*
X176425000Y-81925000I75000J0D01*
G01*
G37*
G36*
G01*
X175925000Y-81925000D02*
X176075000Y-81925000D01*
G75*
G02*
X176150000Y-82000000I0J-75000D01*
G01*
X176150000Y-83325000D01*
G75*
G02*
X176075000Y-83400000I-75000J0D01*
G01*
X175925000Y-83400000D01*
G75*
G02*
X175850000Y-83325000I0J75000D01*
G01*
X175850000Y-82000000D01*
G75*
G02*
X175925000Y-81925000I75000J0D01*
G01*
G37*
G36*
G01*
X175425000Y-81925000D02*
X175575000Y-81925000D01*
G75*
G02*
X175650000Y-82000000I0J-75000D01*
G01*
X175650000Y-83325000D01*
G75*
G02*
X175575000Y-83400000I-75000J0D01*
G01*
X175425000Y-83400000D01*
G75*
G02*
X175350000Y-83325000I0J75000D01*
G01*
X175350000Y-82000000D01*
G75*
G02*
X175425000Y-81925000I75000J0D01*
G01*
G37*
G36*
G01*
X174925000Y-81925000D02*
X175075000Y-81925000D01*
G75*
G02*
X175150000Y-82000000I0J-75000D01*
G01*
X175150000Y-83325000D01*
G75*
G02*
X175075000Y-83400000I-75000J0D01*
G01*
X174925000Y-83400000D01*
G75*
G02*
X174850000Y-83325000I0J75000D01*
G01*
X174850000Y-82000000D01*
G75*
G02*
X174925000Y-81925000I75000J0D01*
G01*
G37*
G36*
G01*
X174425000Y-81925000D02*
X174575000Y-81925000D01*
G75*
G02*
X174650000Y-82000000I0J-75000D01*
G01*
X174650000Y-83325000D01*
G75*
G02*
X174575000Y-83400000I-75000J0D01*
G01*
X174425000Y-83400000D01*
G75*
G02*
X174350000Y-83325000I0J75000D01*
G01*
X174350000Y-82000000D01*
G75*
G02*
X174425000Y-81925000I75000J0D01*
G01*
G37*
G36*
G01*
X173925000Y-81925000D02*
X174075000Y-81925000D01*
G75*
G02*
X174150000Y-82000000I0J-75000D01*
G01*
X174150000Y-83325000D01*
G75*
G02*
X174075000Y-83400000I-75000J0D01*
G01*
X173925000Y-83400000D01*
G75*
G02*
X173850000Y-83325000I0J75000D01*
G01*
X173850000Y-82000000D01*
G75*
G02*
X173925000Y-81925000I75000J0D01*
G01*
G37*
G36*
G01*
X173425000Y-81925000D02*
X173575000Y-81925000D01*
G75*
G02*
X173650000Y-82000000I0J-75000D01*
G01*
X173650000Y-83325000D01*
G75*
G02*
X173575000Y-83400000I-75000J0D01*
G01*
X173425000Y-83400000D01*
G75*
G02*
X173350000Y-83325000I0J75000D01*
G01*
X173350000Y-82000000D01*
G75*
G02*
X173425000Y-81925000I75000J0D01*
G01*
G37*
G36*
G01*
X172925000Y-81925000D02*
X173075000Y-81925000D01*
G75*
G02*
X173150000Y-82000000I0J-75000D01*
G01*
X173150000Y-83325000D01*
G75*
G02*
X173075000Y-83400000I-75000J0D01*
G01*
X172925000Y-83400000D01*
G75*
G02*
X172850000Y-83325000I0J75000D01*
G01*
X172850000Y-82000000D01*
G75*
G02*
X172925000Y-81925000I75000J0D01*
G01*
G37*
G36*
G01*
X170675000Y-80850000D02*
X172000000Y-80850000D01*
G75*
G02*
X172075000Y-80925000I0J-75000D01*
G01*
X172075000Y-81075000D01*
G75*
G02*
X172000000Y-81150000I-75000J0D01*
G01*
X170675000Y-81150000D01*
G75*
G02*
X170600000Y-81075000I0J75000D01*
G01*
X170600000Y-80925000D01*
G75*
G02*
X170675000Y-80850000I75000J0D01*
G01*
G37*
G36*
G01*
X170675000Y-80350000D02*
X172000000Y-80350000D01*
G75*
G02*
X172075000Y-80425000I0J-75000D01*
G01*
X172075000Y-80575000D01*
G75*
G02*
X172000000Y-80650000I-75000J0D01*
G01*
X170675000Y-80650000D01*
G75*
G02*
X170600000Y-80575000I0J75000D01*
G01*
X170600000Y-80425000D01*
G75*
G02*
X170675000Y-80350000I75000J0D01*
G01*
G37*
G36*
G01*
X170675000Y-79850000D02*
X172000000Y-79850000D01*
G75*
G02*
X172075000Y-79925000I0J-75000D01*
G01*
X172075000Y-80075000D01*
G75*
G02*
X172000000Y-80150000I-75000J0D01*
G01*
X170675000Y-80150000D01*
G75*
G02*
X170600000Y-80075000I0J75000D01*
G01*
X170600000Y-79925000D01*
G75*
G02*
X170675000Y-79850000I75000J0D01*
G01*
G37*
G36*
G01*
X170675000Y-79350000D02*
X172000000Y-79350000D01*
G75*
G02*
X172075000Y-79425000I0J-75000D01*
G01*
X172075000Y-79575000D01*
G75*
G02*
X172000000Y-79650000I-75000J0D01*
G01*
X170675000Y-79650000D01*
G75*
G02*
X170600000Y-79575000I0J75000D01*
G01*
X170600000Y-79425000D01*
G75*
G02*
X170675000Y-79350000I75000J0D01*
G01*
G37*
G36*
G01*
X170675000Y-78850000D02*
X172000000Y-78850000D01*
G75*
G02*
X172075000Y-78925000I0J-75000D01*
G01*
X172075000Y-79075000D01*
G75*
G02*
X172000000Y-79150000I-75000J0D01*
G01*
X170675000Y-79150000D01*
G75*
G02*
X170600000Y-79075000I0J75000D01*
G01*
X170600000Y-78925000D01*
G75*
G02*
X170675000Y-78850000I75000J0D01*
G01*
G37*
G36*
G01*
X170675000Y-78350000D02*
X172000000Y-78350000D01*
G75*
G02*
X172075000Y-78425000I0J-75000D01*
G01*
X172075000Y-78575000D01*
G75*
G02*
X172000000Y-78650000I-75000J0D01*
G01*
X170675000Y-78650000D01*
G75*
G02*
X170600000Y-78575000I0J75000D01*
G01*
X170600000Y-78425000D01*
G75*
G02*
X170675000Y-78350000I75000J0D01*
G01*
G37*
G36*
G01*
X170675000Y-77850000D02*
X172000000Y-77850000D01*
G75*
G02*
X172075000Y-77925000I0J-75000D01*
G01*
X172075000Y-78075000D01*
G75*
G02*
X172000000Y-78150000I-75000J0D01*
G01*
X170675000Y-78150000D01*
G75*
G02*
X170600000Y-78075000I0J75000D01*
G01*
X170600000Y-77925000D01*
G75*
G02*
X170675000Y-77850000I75000J0D01*
G01*
G37*
G36*
G01*
X170675000Y-77350000D02*
X172000000Y-77350000D01*
G75*
G02*
X172075000Y-77425000I0J-75000D01*
G01*
X172075000Y-77575000D01*
G75*
G02*
X172000000Y-77650000I-75000J0D01*
G01*
X170675000Y-77650000D01*
G75*
G02*
X170600000Y-77575000I0J75000D01*
G01*
X170600000Y-77425000D01*
G75*
G02*
X170675000Y-77350000I75000J0D01*
G01*
G37*
G36*
G01*
X170675000Y-76850000D02*
X172000000Y-76850000D01*
G75*
G02*
X172075000Y-76925000I0J-75000D01*
G01*
X172075000Y-77075000D01*
G75*
G02*
X172000000Y-77150000I-75000J0D01*
G01*
X170675000Y-77150000D01*
G75*
G02*
X170600000Y-77075000I0J75000D01*
G01*
X170600000Y-76925000D01*
G75*
G02*
X170675000Y-76850000I75000J0D01*
G01*
G37*
G36*
G01*
X170675000Y-76350000D02*
X172000000Y-76350000D01*
G75*
G02*
X172075000Y-76425000I0J-75000D01*
G01*
X172075000Y-76575000D01*
G75*
G02*
X172000000Y-76650000I-75000J0D01*
G01*
X170675000Y-76650000D01*
G75*
G02*
X170600000Y-76575000I0J75000D01*
G01*
X170600000Y-76425000D01*
G75*
G02*
X170675000Y-76350000I75000J0D01*
G01*
G37*
G36*
G01*
X170675000Y-75850000D02*
X172000000Y-75850000D01*
G75*
G02*
X172075000Y-75925000I0J-75000D01*
G01*
X172075000Y-76075000D01*
G75*
G02*
X172000000Y-76150000I-75000J0D01*
G01*
X170675000Y-76150000D01*
G75*
G02*
X170600000Y-76075000I0J75000D01*
G01*
X170600000Y-75925000D01*
G75*
G02*
X170675000Y-75850000I75000J0D01*
G01*
G37*
G36*
G01*
X170675000Y-75350000D02*
X172000000Y-75350000D01*
G75*
G02*
X172075000Y-75425000I0J-75000D01*
G01*
X172075000Y-75575000D01*
G75*
G02*
X172000000Y-75650000I-75000J0D01*
G01*
X170675000Y-75650000D01*
G75*
G02*
X170600000Y-75575000I0J75000D01*
G01*
X170600000Y-75425000D01*
G75*
G02*
X170675000Y-75350000I75000J0D01*
G01*
G37*
G36*
G01*
X170675000Y-74850000D02*
X172000000Y-74850000D01*
G75*
G02*
X172075000Y-74925000I0J-75000D01*
G01*
X172075000Y-75075000D01*
G75*
G02*
X172000000Y-75150000I-75000J0D01*
G01*
X170675000Y-75150000D01*
G75*
G02*
X170600000Y-75075000I0J75000D01*
G01*
X170600000Y-74925000D01*
G75*
G02*
X170675000Y-74850000I75000J0D01*
G01*
G37*
G36*
G01*
X170675000Y-74350000D02*
X172000000Y-74350000D01*
G75*
G02*
X172075000Y-74425000I0J-75000D01*
G01*
X172075000Y-74575000D01*
G75*
G02*
X172000000Y-74650000I-75000J0D01*
G01*
X170675000Y-74650000D01*
G75*
G02*
X170600000Y-74575000I0J75000D01*
G01*
X170600000Y-74425000D01*
G75*
G02*
X170675000Y-74350000I75000J0D01*
G01*
G37*
G36*
G01*
X170675000Y-73850000D02*
X172000000Y-73850000D01*
G75*
G02*
X172075000Y-73925000I0J-75000D01*
G01*
X172075000Y-74075000D01*
G75*
G02*
X172000000Y-74150000I-75000J0D01*
G01*
X170675000Y-74150000D01*
G75*
G02*
X170600000Y-74075000I0J75000D01*
G01*
X170600000Y-73925000D01*
G75*
G02*
X170675000Y-73850000I75000J0D01*
G01*
G37*
G36*
G01*
X170675000Y-73350000D02*
X172000000Y-73350000D01*
G75*
G02*
X172075000Y-73425000I0J-75000D01*
G01*
X172075000Y-73575000D01*
G75*
G02*
X172000000Y-73650000I-75000J0D01*
G01*
X170675000Y-73650000D01*
G75*
G02*
X170600000Y-73575000I0J75000D01*
G01*
X170600000Y-73425000D01*
G75*
G02*
X170675000Y-73350000I75000J0D01*
G01*
G37*
G36*
G01*
X170675000Y-72850000D02*
X172000000Y-72850000D01*
G75*
G02*
X172075000Y-72925000I0J-75000D01*
G01*
X172075000Y-73075000D01*
G75*
G02*
X172000000Y-73150000I-75000J0D01*
G01*
X170675000Y-73150000D01*
G75*
G02*
X170600000Y-73075000I0J75000D01*
G01*
X170600000Y-72925000D01*
G75*
G02*
X170675000Y-72850000I75000J0D01*
G01*
G37*
G36*
G01*
X170675000Y-72350000D02*
X172000000Y-72350000D01*
G75*
G02*
X172075000Y-72425000I0J-75000D01*
G01*
X172075000Y-72575000D01*
G75*
G02*
X172000000Y-72650000I-75000J0D01*
G01*
X170675000Y-72650000D01*
G75*
G02*
X170600000Y-72575000I0J75000D01*
G01*
X170600000Y-72425000D01*
G75*
G02*
X170675000Y-72350000I75000J0D01*
G01*
G37*
G36*
G01*
X170675000Y-71850000D02*
X172000000Y-71850000D01*
G75*
G02*
X172075000Y-71925000I0J-75000D01*
G01*
X172075000Y-72075000D01*
G75*
G02*
X172000000Y-72150000I-75000J0D01*
G01*
X170675000Y-72150000D01*
G75*
G02*
X170600000Y-72075000I0J75000D01*
G01*
X170600000Y-71925000D01*
G75*
G02*
X170675000Y-71850000I75000J0D01*
G01*
G37*
G36*
G01*
X170675000Y-71350000D02*
X172000000Y-71350000D01*
G75*
G02*
X172075000Y-71425000I0J-75000D01*
G01*
X172075000Y-71575000D01*
G75*
G02*
X172000000Y-71650000I-75000J0D01*
G01*
X170675000Y-71650000D01*
G75*
G02*
X170600000Y-71575000I0J75000D01*
G01*
X170600000Y-71425000D01*
G75*
G02*
X170675000Y-71350000I75000J0D01*
G01*
G37*
G36*
G01*
X170675000Y-70850000D02*
X172000000Y-70850000D01*
G75*
G02*
X172075000Y-70925000I0J-75000D01*
G01*
X172075000Y-71075000D01*
G75*
G02*
X172000000Y-71150000I-75000J0D01*
G01*
X170675000Y-71150000D01*
G75*
G02*
X170600000Y-71075000I0J75000D01*
G01*
X170600000Y-70925000D01*
G75*
G02*
X170675000Y-70850000I75000J0D01*
G01*
G37*
G36*
G01*
X170675000Y-70350000D02*
X172000000Y-70350000D01*
G75*
G02*
X172075000Y-70425000I0J-75000D01*
G01*
X172075000Y-70575000D01*
G75*
G02*
X172000000Y-70650000I-75000J0D01*
G01*
X170675000Y-70650000D01*
G75*
G02*
X170600000Y-70575000I0J75000D01*
G01*
X170600000Y-70425000D01*
G75*
G02*
X170675000Y-70350000I75000J0D01*
G01*
G37*
G36*
G01*
X170675000Y-69850000D02*
X172000000Y-69850000D01*
G75*
G02*
X172075000Y-69925000I0J-75000D01*
G01*
X172075000Y-70075000D01*
G75*
G02*
X172000000Y-70150000I-75000J0D01*
G01*
X170675000Y-70150000D01*
G75*
G02*
X170600000Y-70075000I0J75000D01*
G01*
X170600000Y-69925000D01*
G75*
G02*
X170675000Y-69850000I75000J0D01*
G01*
G37*
G36*
G01*
X170675000Y-69350000D02*
X172000000Y-69350000D01*
G75*
G02*
X172075000Y-69425000I0J-75000D01*
G01*
X172075000Y-69575000D01*
G75*
G02*
X172000000Y-69650000I-75000J0D01*
G01*
X170675000Y-69650000D01*
G75*
G02*
X170600000Y-69575000I0J75000D01*
G01*
X170600000Y-69425000D01*
G75*
G02*
X170675000Y-69350000I75000J0D01*
G01*
G37*
G36*
G01*
X170675000Y-68850000D02*
X172000000Y-68850000D01*
G75*
G02*
X172075000Y-68925000I0J-75000D01*
G01*
X172075000Y-69075000D01*
G75*
G02*
X172000000Y-69150000I-75000J0D01*
G01*
X170675000Y-69150000D01*
G75*
G02*
X170600000Y-69075000I0J75000D01*
G01*
X170600000Y-68925000D01*
G75*
G02*
X170675000Y-68850000I75000J0D01*
G01*
G37*
G36*
G01*
X172925000Y-66600000D02*
X173075000Y-66600000D01*
G75*
G02*
X173150000Y-66675000I0J-75000D01*
G01*
X173150000Y-68000000D01*
G75*
G02*
X173075000Y-68075000I-75000J0D01*
G01*
X172925000Y-68075000D01*
G75*
G02*
X172850000Y-68000000I0J75000D01*
G01*
X172850000Y-66675000D01*
G75*
G02*
X172925000Y-66600000I75000J0D01*
G01*
G37*
G36*
G01*
X173425000Y-66600000D02*
X173575000Y-66600000D01*
G75*
G02*
X173650000Y-66675000I0J-75000D01*
G01*
X173650000Y-68000000D01*
G75*
G02*
X173575000Y-68075000I-75000J0D01*
G01*
X173425000Y-68075000D01*
G75*
G02*
X173350000Y-68000000I0J75000D01*
G01*
X173350000Y-66675000D01*
G75*
G02*
X173425000Y-66600000I75000J0D01*
G01*
G37*
G36*
G01*
X173925000Y-66600000D02*
X174075000Y-66600000D01*
G75*
G02*
X174150000Y-66675000I0J-75000D01*
G01*
X174150000Y-68000000D01*
G75*
G02*
X174075000Y-68075000I-75000J0D01*
G01*
X173925000Y-68075000D01*
G75*
G02*
X173850000Y-68000000I0J75000D01*
G01*
X173850000Y-66675000D01*
G75*
G02*
X173925000Y-66600000I75000J0D01*
G01*
G37*
G36*
G01*
X174425000Y-66600000D02*
X174575000Y-66600000D01*
G75*
G02*
X174650000Y-66675000I0J-75000D01*
G01*
X174650000Y-68000000D01*
G75*
G02*
X174575000Y-68075000I-75000J0D01*
G01*
X174425000Y-68075000D01*
G75*
G02*
X174350000Y-68000000I0J75000D01*
G01*
X174350000Y-66675000D01*
G75*
G02*
X174425000Y-66600000I75000J0D01*
G01*
G37*
G36*
G01*
X174925000Y-66600000D02*
X175075000Y-66600000D01*
G75*
G02*
X175150000Y-66675000I0J-75000D01*
G01*
X175150000Y-68000000D01*
G75*
G02*
X175075000Y-68075000I-75000J0D01*
G01*
X174925000Y-68075000D01*
G75*
G02*
X174850000Y-68000000I0J75000D01*
G01*
X174850000Y-66675000D01*
G75*
G02*
X174925000Y-66600000I75000J0D01*
G01*
G37*
G36*
G01*
X175425000Y-66600000D02*
X175575000Y-66600000D01*
G75*
G02*
X175650000Y-66675000I0J-75000D01*
G01*
X175650000Y-68000000D01*
G75*
G02*
X175575000Y-68075000I-75000J0D01*
G01*
X175425000Y-68075000D01*
G75*
G02*
X175350000Y-68000000I0J75000D01*
G01*
X175350000Y-66675000D01*
G75*
G02*
X175425000Y-66600000I75000J0D01*
G01*
G37*
G36*
G01*
X175925000Y-66600000D02*
X176075000Y-66600000D01*
G75*
G02*
X176150000Y-66675000I0J-75000D01*
G01*
X176150000Y-68000000D01*
G75*
G02*
X176075000Y-68075000I-75000J0D01*
G01*
X175925000Y-68075000D01*
G75*
G02*
X175850000Y-68000000I0J75000D01*
G01*
X175850000Y-66675000D01*
G75*
G02*
X175925000Y-66600000I75000J0D01*
G01*
G37*
G36*
G01*
X176425000Y-66600000D02*
X176575000Y-66600000D01*
G75*
G02*
X176650000Y-66675000I0J-75000D01*
G01*
X176650000Y-68000000D01*
G75*
G02*
X176575000Y-68075000I-75000J0D01*
G01*
X176425000Y-68075000D01*
G75*
G02*
X176350000Y-68000000I0J75000D01*
G01*
X176350000Y-66675000D01*
G75*
G02*
X176425000Y-66600000I75000J0D01*
G01*
G37*
G36*
G01*
X176925000Y-66600000D02*
X177075000Y-66600000D01*
G75*
G02*
X177150000Y-66675000I0J-75000D01*
G01*
X177150000Y-68000000D01*
G75*
G02*
X177075000Y-68075000I-75000J0D01*
G01*
X176925000Y-68075000D01*
G75*
G02*
X176850000Y-68000000I0J75000D01*
G01*
X176850000Y-66675000D01*
G75*
G02*
X176925000Y-66600000I75000J0D01*
G01*
G37*
G36*
G01*
X177425000Y-66600000D02*
X177575000Y-66600000D01*
G75*
G02*
X177650000Y-66675000I0J-75000D01*
G01*
X177650000Y-68000000D01*
G75*
G02*
X177575000Y-68075000I-75000J0D01*
G01*
X177425000Y-68075000D01*
G75*
G02*
X177350000Y-68000000I0J75000D01*
G01*
X177350000Y-66675000D01*
G75*
G02*
X177425000Y-66600000I75000J0D01*
G01*
G37*
G36*
G01*
X177925000Y-66600000D02*
X178075000Y-66600000D01*
G75*
G02*
X178150000Y-66675000I0J-75000D01*
G01*
X178150000Y-68000000D01*
G75*
G02*
X178075000Y-68075000I-75000J0D01*
G01*
X177925000Y-68075000D01*
G75*
G02*
X177850000Y-68000000I0J75000D01*
G01*
X177850000Y-66675000D01*
G75*
G02*
X177925000Y-66600000I75000J0D01*
G01*
G37*
G36*
G01*
X178425000Y-66600000D02*
X178575000Y-66600000D01*
G75*
G02*
X178650000Y-66675000I0J-75000D01*
G01*
X178650000Y-68000000D01*
G75*
G02*
X178575000Y-68075000I-75000J0D01*
G01*
X178425000Y-68075000D01*
G75*
G02*
X178350000Y-68000000I0J75000D01*
G01*
X178350000Y-66675000D01*
G75*
G02*
X178425000Y-66600000I75000J0D01*
G01*
G37*
G36*
G01*
X178925000Y-66600000D02*
X179075000Y-66600000D01*
G75*
G02*
X179150000Y-66675000I0J-75000D01*
G01*
X179150000Y-68000000D01*
G75*
G02*
X179075000Y-68075000I-75000J0D01*
G01*
X178925000Y-68075000D01*
G75*
G02*
X178850000Y-68000000I0J75000D01*
G01*
X178850000Y-66675000D01*
G75*
G02*
X178925000Y-66600000I75000J0D01*
G01*
G37*
G36*
G01*
X179425000Y-66600000D02*
X179575000Y-66600000D01*
G75*
G02*
X179650000Y-66675000I0J-75000D01*
G01*
X179650000Y-68000000D01*
G75*
G02*
X179575000Y-68075000I-75000J0D01*
G01*
X179425000Y-68075000D01*
G75*
G02*
X179350000Y-68000000I0J75000D01*
G01*
X179350000Y-66675000D01*
G75*
G02*
X179425000Y-66600000I75000J0D01*
G01*
G37*
G36*
G01*
X179925000Y-66600000D02*
X180075000Y-66600000D01*
G75*
G02*
X180150000Y-66675000I0J-75000D01*
G01*
X180150000Y-68000000D01*
G75*
G02*
X180075000Y-68075000I-75000J0D01*
G01*
X179925000Y-68075000D01*
G75*
G02*
X179850000Y-68000000I0J75000D01*
G01*
X179850000Y-66675000D01*
G75*
G02*
X179925000Y-66600000I75000J0D01*
G01*
G37*
G36*
G01*
X180425000Y-66600000D02*
X180575000Y-66600000D01*
G75*
G02*
X180650000Y-66675000I0J-75000D01*
G01*
X180650000Y-68000000D01*
G75*
G02*
X180575000Y-68075000I-75000J0D01*
G01*
X180425000Y-68075000D01*
G75*
G02*
X180350000Y-68000000I0J75000D01*
G01*
X180350000Y-66675000D01*
G75*
G02*
X180425000Y-66600000I75000J0D01*
G01*
G37*
G36*
G01*
X180925000Y-66600000D02*
X181075000Y-66600000D01*
G75*
G02*
X181150000Y-66675000I0J-75000D01*
G01*
X181150000Y-68000000D01*
G75*
G02*
X181075000Y-68075000I-75000J0D01*
G01*
X180925000Y-68075000D01*
G75*
G02*
X180850000Y-68000000I0J75000D01*
G01*
X180850000Y-66675000D01*
G75*
G02*
X180925000Y-66600000I75000J0D01*
G01*
G37*
G36*
G01*
X181425000Y-66600000D02*
X181575000Y-66600000D01*
G75*
G02*
X181650000Y-66675000I0J-75000D01*
G01*
X181650000Y-68000000D01*
G75*
G02*
X181575000Y-68075000I-75000J0D01*
G01*
X181425000Y-68075000D01*
G75*
G02*
X181350000Y-68000000I0J75000D01*
G01*
X181350000Y-66675000D01*
G75*
G02*
X181425000Y-66600000I75000J0D01*
G01*
G37*
G36*
G01*
X181925000Y-66600000D02*
X182075000Y-66600000D01*
G75*
G02*
X182150000Y-66675000I0J-75000D01*
G01*
X182150000Y-68000000D01*
G75*
G02*
X182075000Y-68075000I-75000J0D01*
G01*
X181925000Y-68075000D01*
G75*
G02*
X181850000Y-68000000I0J75000D01*
G01*
X181850000Y-66675000D01*
G75*
G02*
X181925000Y-66600000I75000J0D01*
G01*
G37*
G36*
G01*
X182425000Y-66600000D02*
X182575000Y-66600000D01*
G75*
G02*
X182650000Y-66675000I0J-75000D01*
G01*
X182650000Y-68000000D01*
G75*
G02*
X182575000Y-68075000I-75000J0D01*
G01*
X182425000Y-68075000D01*
G75*
G02*
X182350000Y-68000000I0J75000D01*
G01*
X182350000Y-66675000D01*
G75*
G02*
X182425000Y-66600000I75000J0D01*
G01*
G37*
G36*
G01*
X182925000Y-66600000D02*
X183075000Y-66600000D01*
G75*
G02*
X183150000Y-66675000I0J-75000D01*
G01*
X183150000Y-68000000D01*
G75*
G02*
X183075000Y-68075000I-75000J0D01*
G01*
X182925000Y-68075000D01*
G75*
G02*
X182850000Y-68000000I0J75000D01*
G01*
X182850000Y-66675000D01*
G75*
G02*
X182925000Y-66600000I75000J0D01*
G01*
G37*
G36*
G01*
X183425000Y-66600000D02*
X183575000Y-66600000D01*
G75*
G02*
X183650000Y-66675000I0J-75000D01*
G01*
X183650000Y-68000000D01*
G75*
G02*
X183575000Y-68075000I-75000J0D01*
G01*
X183425000Y-68075000D01*
G75*
G02*
X183350000Y-68000000I0J75000D01*
G01*
X183350000Y-66675000D01*
G75*
G02*
X183425000Y-66600000I75000J0D01*
G01*
G37*
G36*
G01*
X183925000Y-66600000D02*
X184075000Y-66600000D01*
G75*
G02*
X184150000Y-66675000I0J-75000D01*
G01*
X184150000Y-68000000D01*
G75*
G02*
X184075000Y-68075000I-75000J0D01*
G01*
X183925000Y-68075000D01*
G75*
G02*
X183850000Y-68000000I0J75000D01*
G01*
X183850000Y-66675000D01*
G75*
G02*
X183925000Y-66600000I75000J0D01*
G01*
G37*
G36*
G01*
X184425000Y-66600000D02*
X184575000Y-66600000D01*
G75*
G02*
X184650000Y-66675000I0J-75000D01*
G01*
X184650000Y-68000000D01*
G75*
G02*
X184575000Y-68075000I-75000J0D01*
G01*
X184425000Y-68075000D01*
G75*
G02*
X184350000Y-68000000I0J75000D01*
G01*
X184350000Y-66675000D01*
G75*
G02*
X184425000Y-66600000I75000J0D01*
G01*
G37*
G36*
G01*
X184925000Y-66600000D02*
X185075000Y-66600000D01*
G75*
G02*
X185150000Y-66675000I0J-75000D01*
G01*
X185150000Y-68000000D01*
G75*
G02*
X185075000Y-68075000I-75000J0D01*
G01*
X184925000Y-68075000D01*
G75*
G02*
X184850000Y-68000000I0J75000D01*
G01*
X184850000Y-66675000D01*
G75*
G02*
X184925000Y-66600000I75000J0D01*
G01*
G37*
%TD*%
%TO.C,U5*%
G36*
G01*
X172625000Y-88650000D02*
X172625000Y-87100000D01*
G75*
G02*
X172725000Y-87000000I100000J0D01*
G01*
X172925000Y-87000000D01*
G75*
G02*
X173025000Y-87100000I0J-100000D01*
G01*
X173025000Y-88650000D01*
G75*
G02*
X172925000Y-88750000I-100000J0D01*
G01*
X172725000Y-88750000D01*
G75*
G02*
X172625000Y-88650000I0J100000D01*
G01*
G37*
G36*
G01*
X173275000Y-88650000D02*
X173275000Y-87100000D01*
G75*
G02*
X173375000Y-87000000I100000J0D01*
G01*
X173575000Y-87000000D01*
G75*
G02*
X173675000Y-87100000I0J-100000D01*
G01*
X173675000Y-88650000D01*
G75*
G02*
X173575000Y-88750000I-100000J0D01*
G01*
X173375000Y-88750000D01*
G75*
G02*
X173275000Y-88650000I0J100000D01*
G01*
G37*
G36*
G01*
X173925000Y-88650000D02*
X173925000Y-87100000D01*
G75*
G02*
X174025000Y-87000000I100000J0D01*
G01*
X174225000Y-87000000D01*
G75*
G02*
X174325000Y-87100000I0J-100000D01*
G01*
X174325000Y-88650000D01*
G75*
G02*
X174225000Y-88750000I-100000J0D01*
G01*
X174025000Y-88750000D01*
G75*
G02*
X173925000Y-88650000I0J100000D01*
G01*
G37*
G36*
G01*
X174575000Y-88650000D02*
X174575000Y-87100000D01*
G75*
G02*
X174675000Y-87000000I100000J0D01*
G01*
X174875000Y-87000000D01*
G75*
G02*
X174975000Y-87100000I0J-100000D01*
G01*
X174975000Y-88650000D01*
G75*
G02*
X174875000Y-88750000I-100000J0D01*
G01*
X174675000Y-88750000D01*
G75*
G02*
X174575000Y-88650000I0J100000D01*
G01*
G37*
G36*
G01*
X175225000Y-88650000D02*
X175225000Y-87100000D01*
G75*
G02*
X175325000Y-87000000I100000J0D01*
G01*
X175525000Y-87000000D01*
G75*
G02*
X175625000Y-87100000I0J-100000D01*
G01*
X175625000Y-88650000D01*
G75*
G02*
X175525000Y-88750000I-100000J0D01*
G01*
X175325000Y-88750000D01*
G75*
G02*
X175225000Y-88650000I0J100000D01*
G01*
G37*
G36*
G01*
X175875000Y-88650000D02*
X175875000Y-87100000D01*
G75*
G02*
X175975000Y-87000000I100000J0D01*
G01*
X176175000Y-87000000D01*
G75*
G02*
X176275000Y-87100000I0J-100000D01*
G01*
X176275000Y-88650000D01*
G75*
G02*
X176175000Y-88750000I-100000J0D01*
G01*
X175975000Y-88750000D01*
G75*
G02*
X175875000Y-88650000I0J100000D01*
G01*
G37*
G36*
G01*
X176525000Y-88650000D02*
X176525000Y-87100000D01*
G75*
G02*
X176625000Y-87000000I100000J0D01*
G01*
X176825000Y-87000000D01*
G75*
G02*
X176925000Y-87100000I0J-100000D01*
G01*
X176925000Y-88650000D01*
G75*
G02*
X176825000Y-88750000I-100000J0D01*
G01*
X176625000Y-88750000D01*
G75*
G02*
X176525000Y-88650000I0J100000D01*
G01*
G37*
G36*
G01*
X177175000Y-88650000D02*
X177175000Y-87100000D01*
G75*
G02*
X177275000Y-87000000I100000J0D01*
G01*
X177475000Y-87000000D01*
G75*
G02*
X177575000Y-87100000I0J-100000D01*
G01*
X177575000Y-88650000D01*
G75*
G02*
X177475000Y-88750000I-100000J0D01*
G01*
X177275000Y-88750000D01*
G75*
G02*
X177175000Y-88650000I0J100000D01*
G01*
G37*
G36*
G01*
X177825000Y-88650000D02*
X177825000Y-87100000D01*
G75*
G02*
X177925000Y-87000000I100000J0D01*
G01*
X178125000Y-87000000D01*
G75*
G02*
X178225000Y-87100000I0J-100000D01*
G01*
X178225000Y-88650000D01*
G75*
G02*
X178125000Y-88750000I-100000J0D01*
G01*
X177925000Y-88750000D01*
G75*
G02*
X177825000Y-88650000I0J100000D01*
G01*
G37*
G36*
G01*
X178475000Y-88650000D02*
X178475000Y-87100000D01*
G75*
G02*
X178575000Y-87000000I100000J0D01*
G01*
X178775000Y-87000000D01*
G75*
G02*
X178875000Y-87100000I0J-100000D01*
G01*
X178875000Y-88650000D01*
G75*
G02*
X178775000Y-88750000I-100000J0D01*
G01*
X178575000Y-88750000D01*
G75*
G02*
X178475000Y-88650000I0J100000D01*
G01*
G37*
G36*
G01*
X179125000Y-88650000D02*
X179125000Y-87100000D01*
G75*
G02*
X179225000Y-87000000I100000J0D01*
G01*
X179425000Y-87000000D01*
G75*
G02*
X179525000Y-87100000I0J-100000D01*
G01*
X179525000Y-88650000D01*
G75*
G02*
X179425000Y-88750000I-100000J0D01*
G01*
X179225000Y-88750000D01*
G75*
G02*
X179125000Y-88650000I0J100000D01*
G01*
G37*
G36*
G01*
X179775000Y-88650000D02*
X179775000Y-87100000D01*
G75*
G02*
X179875000Y-87000000I100000J0D01*
G01*
X180075000Y-87000000D01*
G75*
G02*
X180175000Y-87100000I0J-100000D01*
G01*
X180175000Y-88650000D01*
G75*
G02*
X180075000Y-88750000I-100000J0D01*
G01*
X179875000Y-88750000D01*
G75*
G02*
X179775000Y-88650000I0J100000D01*
G01*
G37*
G36*
G01*
X180425000Y-88650000D02*
X180425000Y-87100000D01*
G75*
G02*
X180525000Y-87000000I100000J0D01*
G01*
X180725000Y-87000000D01*
G75*
G02*
X180825000Y-87100000I0J-100000D01*
G01*
X180825000Y-88650000D01*
G75*
G02*
X180725000Y-88750000I-100000J0D01*
G01*
X180525000Y-88750000D01*
G75*
G02*
X180425000Y-88650000I0J100000D01*
G01*
G37*
G36*
G01*
X181075000Y-88650000D02*
X181075000Y-87100000D01*
G75*
G02*
X181175000Y-87000000I100000J0D01*
G01*
X181375000Y-87000000D01*
G75*
G02*
X181475000Y-87100000I0J-100000D01*
G01*
X181475000Y-88650000D01*
G75*
G02*
X181375000Y-88750000I-100000J0D01*
G01*
X181175000Y-88750000D01*
G75*
G02*
X181075000Y-88650000I0J100000D01*
G01*
G37*
G36*
G01*
X181725000Y-88650000D02*
X181725000Y-87100000D01*
G75*
G02*
X181825000Y-87000000I100000J0D01*
G01*
X182025000Y-87000000D01*
G75*
G02*
X182125000Y-87100000I0J-100000D01*
G01*
X182125000Y-88650000D01*
G75*
G02*
X182025000Y-88750000I-100000J0D01*
G01*
X181825000Y-88750000D01*
G75*
G02*
X181725000Y-88650000I0J100000D01*
G01*
G37*
G36*
G01*
X182375000Y-88650000D02*
X182375000Y-87100000D01*
G75*
G02*
X182475000Y-87000000I100000J0D01*
G01*
X182675000Y-87000000D01*
G75*
G02*
X182775000Y-87100000I0J-100000D01*
G01*
X182775000Y-88650000D01*
G75*
G02*
X182675000Y-88750000I-100000J0D01*
G01*
X182475000Y-88750000D01*
G75*
G02*
X182375000Y-88650000I0J100000D01*
G01*
G37*
G36*
G01*
X183025000Y-88650000D02*
X183025000Y-87100000D01*
G75*
G02*
X183125000Y-87000000I100000J0D01*
G01*
X183325000Y-87000000D01*
G75*
G02*
X183425000Y-87100000I0J-100000D01*
G01*
X183425000Y-88650000D01*
G75*
G02*
X183325000Y-88750000I-100000J0D01*
G01*
X183125000Y-88750000D01*
G75*
G02*
X183025000Y-88650000I0J100000D01*
G01*
G37*
G36*
G01*
X183675000Y-88650000D02*
X183675000Y-87100000D01*
G75*
G02*
X183775000Y-87000000I100000J0D01*
G01*
X183975000Y-87000000D01*
G75*
G02*
X184075000Y-87100000I0J-100000D01*
G01*
X184075000Y-88650000D01*
G75*
G02*
X183975000Y-88750000I-100000J0D01*
G01*
X183775000Y-88750000D01*
G75*
G02*
X183675000Y-88650000I0J100000D01*
G01*
G37*
G36*
G01*
X184325000Y-88650000D02*
X184325000Y-87100000D01*
G75*
G02*
X184425000Y-87000000I100000J0D01*
G01*
X184625000Y-87000000D01*
G75*
G02*
X184725000Y-87100000I0J-100000D01*
G01*
X184725000Y-88650000D01*
G75*
G02*
X184625000Y-88750000I-100000J0D01*
G01*
X184425000Y-88750000D01*
G75*
G02*
X184325000Y-88650000I0J100000D01*
G01*
G37*
G36*
G01*
X184975000Y-88650000D02*
X184975000Y-87100000D01*
G75*
G02*
X185075000Y-87000000I100000J0D01*
G01*
X185275000Y-87000000D01*
G75*
G02*
X185375000Y-87100000I0J-100000D01*
G01*
X185375000Y-88650000D01*
G75*
G02*
X185275000Y-88750000I-100000J0D01*
G01*
X185075000Y-88750000D01*
G75*
G02*
X184975000Y-88650000I0J100000D01*
G01*
G37*
G36*
G01*
X186250000Y-89675000D02*
X186250000Y-89475000D01*
G75*
G02*
X186350000Y-89375000I100000J0D01*
G01*
X187900000Y-89375000D01*
G75*
G02*
X188000000Y-89475000I0J-100000D01*
G01*
X188000000Y-89675000D01*
G75*
G02*
X187900000Y-89775000I-100000J0D01*
G01*
X186350000Y-89775000D01*
G75*
G02*
X186250000Y-89675000I0J100000D01*
G01*
G37*
G36*
G01*
X186250000Y-90325000D02*
X186250000Y-90125000D01*
G75*
G02*
X186350000Y-90025000I100000J0D01*
G01*
X187900000Y-90025000D01*
G75*
G02*
X188000000Y-90125000I0J-100000D01*
G01*
X188000000Y-90325000D01*
G75*
G02*
X187900000Y-90425000I-100000J0D01*
G01*
X186350000Y-90425000D01*
G75*
G02*
X186250000Y-90325000I0J100000D01*
G01*
G37*
G36*
G01*
X186250000Y-90975000D02*
X186250000Y-90775000D01*
G75*
G02*
X186350000Y-90675000I100000J0D01*
G01*
X187900000Y-90675000D01*
G75*
G02*
X188000000Y-90775000I0J-100000D01*
G01*
X188000000Y-90975000D01*
G75*
G02*
X187900000Y-91075000I-100000J0D01*
G01*
X186350000Y-91075000D01*
G75*
G02*
X186250000Y-90975000I0J100000D01*
G01*
G37*
G36*
G01*
X186250000Y-91625000D02*
X186250000Y-91425000D01*
G75*
G02*
X186350000Y-91325000I100000J0D01*
G01*
X187900000Y-91325000D01*
G75*
G02*
X188000000Y-91425000I0J-100000D01*
G01*
X188000000Y-91625000D01*
G75*
G02*
X187900000Y-91725000I-100000J0D01*
G01*
X186350000Y-91725000D01*
G75*
G02*
X186250000Y-91625000I0J100000D01*
G01*
G37*
G36*
G01*
X186250000Y-92275000D02*
X186250000Y-92075000D01*
G75*
G02*
X186350000Y-91975000I100000J0D01*
G01*
X187900000Y-91975000D01*
G75*
G02*
X188000000Y-92075000I0J-100000D01*
G01*
X188000000Y-92275000D01*
G75*
G02*
X187900000Y-92375000I-100000J0D01*
G01*
X186350000Y-92375000D01*
G75*
G02*
X186250000Y-92275000I0J100000D01*
G01*
G37*
G36*
G01*
X186250000Y-92925000D02*
X186250000Y-92725000D01*
G75*
G02*
X186350000Y-92625000I100000J0D01*
G01*
X187900000Y-92625000D01*
G75*
G02*
X188000000Y-92725000I0J-100000D01*
G01*
X188000000Y-92925000D01*
G75*
G02*
X187900000Y-93025000I-100000J0D01*
G01*
X186350000Y-93025000D01*
G75*
G02*
X186250000Y-92925000I0J100000D01*
G01*
G37*
G36*
G01*
X186250000Y-93575000D02*
X186250000Y-93375000D01*
G75*
G02*
X186350000Y-93275000I100000J0D01*
G01*
X187900000Y-93275000D01*
G75*
G02*
X188000000Y-93375000I0J-100000D01*
G01*
X188000000Y-93575000D01*
G75*
G02*
X187900000Y-93675000I-100000J0D01*
G01*
X186350000Y-93675000D01*
G75*
G02*
X186250000Y-93575000I0J100000D01*
G01*
G37*
G36*
G01*
X186250000Y-94225000D02*
X186250000Y-94025000D01*
G75*
G02*
X186350000Y-93925000I100000J0D01*
G01*
X187900000Y-93925000D01*
G75*
G02*
X188000000Y-94025000I0J-100000D01*
G01*
X188000000Y-94225000D01*
G75*
G02*
X187900000Y-94325000I-100000J0D01*
G01*
X186350000Y-94325000D01*
G75*
G02*
X186250000Y-94225000I0J100000D01*
G01*
G37*
G36*
G01*
X186250000Y-94875000D02*
X186250000Y-94675000D01*
G75*
G02*
X186350000Y-94575000I100000J0D01*
G01*
X187900000Y-94575000D01*
G75*
G02*
X188000000Y-94675000I0J-100000D01*
G01*
X188000000Y-94875000D01*
G75*
G02*
X187900000Y-94975000I-100000J0D01*
G01*
X186350000Y-94975000D01*
G75*
G02*
X186250000Y-94875000I0J100000D01*
G01*
G37*
G36*
G01*
X186250000Y-95525000D02*
X186250000Y-95325000D01*
G75*
G02*
X186350000Y-95225000I100000J0D01*
G01*
X187900000Y-95225000D01*
G75*
G02*
X188000000Y-95325000I0J-100000D01*
G01*
X188000000Y-95525000D01*
G75*
G02*
X187900000Y-95625000I-100000J0D01*
G01*
X186350000Y-95625000D01*
G75*
G02*
X186250000Y-95525000I0J100000D01*
G01*
G37*
G36*
G01*
X186250000Y-96175000D02*
X186250000Y-95975000D01*
G75*
G02*
X186350000Y-95875000I100000J0D01*
G01*
X187900000Y-95875000D01*
G75*
G02*
X188000000Y-95975000I0J-100000D01*
G01*
X188000000Y-96175000D01*
G75*
G02*
X187900000Y-96275000I-100000J0D01*
G01*
X186350000Y-96275000D01*
G75*
G02*
X186250000Y-96175000I0J100000D01*
G01*
G37*
G36*
G01*
X186250000Y-96825000D02*
X186250000Y-96625000D01*
G75*
G02*
X186350000Y-96525000I100000J0D01*
G01*
X187900000Y-96525000D01*
G75*
G02*
X188000000Y-96625000I0J-100000D01*
G01*
X188000000Y-96825000D01*
G75*
G02*
X187900000Y-96925000I-100000J0D01*
G01*
X186350000Y-96925000D01*
G75*
G02*
X186250000Y-96825000I0J100000D01*
G01*
G37*
G36*
G01*
X186250000Y-97475000D02*
X186250000Y-97275000D01*
G75*
G02*
X186350000Y-97175000I100000J0D01*
G01*
X187900000Y-97175000D01*
G75*
G02*
X188000000Y-97275000I0J-100000D01*
G01*
X188000000Y-97475000D01*
G75*
G02*
X187900000Y-97575000I-100000J0D01*
G01*
X186350000Y-97575000D01*
G75*
G02*
X186250000Y-97475000I0J100000D01*
G01*
G37*
G36*
G01*
X186250000Y-98125000D02*
X186250000Y-97925000D01*
G75*
G02*
X186350000Y-97825000I100000J0D01*
G01*
X187900000Y-97825000D01*
G75*
G02*
X188000000Y-97925000I0J-100000D01*
G01*
X188000000Y-98125000D01*
G75*
G02*
X187900000Y-98225000I-100000J0D01*
G01*
X186350000Y-98225000D01*
G75*
G02*
X186250000Y-98125000I0J100000D01*
G01*
G37*
G36*
G01*
X186250000Y-98775000D02*
X186250000Y-98575000D01*
G75*
G02*
X186350000Y-98475000I100000J0D01*
G01*
X187900000Y-98475000D01*
G75*
G02*
X188000000Y-98575000I0J-100000D01*
G01*
X188000000Y-98775000D01*
G75*
G02*
X187900000Y-98875000I-100000J0D01*
G01*
X186350000Y-98875000D01*
G75*
G02*
X186250000Y-98775000I0J100000D01*
G01*
G37*
G36*
G01*
X186250000Y-99425000D02*
X186250000Y-99225000D01*
G75*
G02*
X186350000Y-99125000I100000J0D01*
G01*
X187900000Y-99125000D01*
G75*
G02*
X188000000Y-99225000I0J-100000D01*
G01*
X188000000Y-99425000D01*
G75*
G02*
X187900000Y-99525000I-100000J0D01*
G01*
X186350000Y-99525000D01*
G75*
G02*
X186250000Y-99425000I0J100000D01*
G01*
G37*
G36*
G01*
X186250000Y-100075000D02*
X186250000Y-99875000D01*
G75*
G02*
X186350000Y-99775000I100000J0D01*
G01*
X187900000Y-99775000D01*
G75*
G02*
X188000000Y-99875000I0J-100000D01*
G01*
X188000000Y-100075000D01*
G75*
G02*
X187900000Y-100175000I-100000J0D01*
G01*
X186350000Y-100175000D01*
G75*
G02*
X186250000Y-100075000I0J100000D01*
G01*
G37*
G36*
G01*
X186250000Y-100725000D02*
X186250000Y-100525000D01*
G75*
G02*
X186350000Y-100425000I100000J0D01*
G01*
X187900000Y-100425000D01*
G75*
G02*
X188000000Y-100525000I0J-100000D01*
G01*
X188000000Y-100725000D01*
G75*
G02*
X187900000Y-100825000I-100000J0D01*
G01*
X186350000Y-100825000D01*
G75*
G02*
X186250000Y-100725000I0J100000D01*
G01*
G37*
G36*
G01*
X186250000Y-101375000D02*
X186250000Y-101175000D01*
G75*
G02*
X186350000Y-101075000I100000J0D01*
G01*
X187900000Y-101075000D01*
G75*
G02*
X188000000Y-101175000I0J-100000D01*
G01*
X188000000Y-101375000D01*
G75*
G02*
X187900000Y-101475000I-100000J0D01*
G01*
X186350000Y-101475000D01*
G75*
G02*
X186250000Y-101375000I0J100000D01*
G01*
G37*
G36*
G01*
X186250000Y-102025000D02*
X186250000Y-101825000D01*
G75*
G02*
X186350000Y-101725000I100000J0D01*
G01*
X187900000Y-101725000D01*
G75*
G02*
X188000000Y-101825000I0J-100000D01*
G01*
X188000000Y-102025000D01*
G75*
G02*
X187900000Y-102125000I-100000J0D01*
G01*
X186350000Y-102125000D01*
G75*
G02*
X186250000Y-102025000I0J100000D01*
G01*
G37*
G36*
G01*
X186250000Y-102675000D02*
X186250000Y-102475000D01*
G75*
G02*
X186350000Y-102375000I100000J0D01*
G01*
X187900000Y-102375000D01*
G75*
G02*
X188000000Y-102475000I0J-100000D01*
G01*
X188000000Y-102675000D01*
G75*
G02*
X187900000Y-102775000I-100000J0D01*
G01*
X186350000Y-102775000D01*
G75*
G02*
X186250000Y-102675000I0J100000D01*
G01*
G37*
G36*
G01*
X186250000Y-103325000D02*
X186250000Y-103125000D01*
G75*
G02*
X186350000Y-103025000I100000J0D01*
G01*
X187900000Y-103025000D01*
G75*
G02*
X188000000Y-103125000I0J-100000D01*
G01*
X188000000Y-103325000D01*
G75*
G02*
X187900000Y-103425000I-100000J0D01*
G01*
X186350000Y-103425000D01*
G75*
G02*
X186250000Y-103325000I0J100000D01*
G01*
G37*
G36*
G01*
X186250000Y-103975000D02*
X186250000Y-103775000D01*
G75*
G02*
X186350000Y-103675000I100000J0D01*
G01*
X187900000Y-103675000D01*
G75*
G02*
X188000000Y-103775000I0J-100000D01*
G01*
X188000000Y-103975000D01*
G75*
G02*
X187900000Y-104075000I-100000J0D01*
G01*
X186350000Y-104075000D01*
G75*
G02*
X186250000Y-103975000I0J100000D01*
G01*
G37*
G36*
G01*
X186250000Y-104625000D02*
X186250000Y-104425000D01*
G75*
G02*
X186350000Y-104325000I100000J0D01*
G01*
X187900000Y-104325000D01*
G75*
G02*
X188000000Y-104425000I0J-100000D01*
G01*
X188000000Y-104625000D01*
G75*
G02*
X187900000Y-104725000I-100000J0D01*
G01*
X186350000Y-104725000D01*
G75*
G02*
X186250000Y-104625000I0J100000D01*
G01*
G37*
G36*
G01*
X186250000Y-105275000D02*
X186250000Y-105075000D01*
G75*
G02*
X186350000Y-104975000I100000J0D01*
G01*
X187900000Y-104975000D01*
G75*
G02*
X188000000Y-105075000I0J-100000D01*
G01*
X188000000Y-105275000D01*
G75*
G02*
X187900000Y-105375000I-100000J0D01*
G01*
X186350000Y-105375000D01*
G75*
G02*
X186250000Y-105275000I0J100000D01*
G01*
G37*
G36*
G01*
X186250000Y-105925000D02*
X186250000Y-105725000D01*
G75*
G02*
X186350000Y-105625000I100000J0D01*
G01*
X187900000Y-105625000D01*
G75*
G02*
X188000000Y-105725000I0J-100000D01*
G01*
X188000000Y-105925000D01*
G75*
G02*
X187900000Y-106025000I-100000J0D01*
G01*
X186350000Y-106025000D01*
G75*
G02*
X186250000Y-105925000I0J100000D01*
G01*
G37*
G36*
G01*
X186250000Y-106575000D02*
X186250000Y-106375000D01*
G75*
G02*
X186350000Y-106275000I100000J0D01*
G01*
X187900000Y-106275000D01*
G75*
G02*
X188000000Y-106375000I0J-100000D01*
G01*
X188000000Y-106575000D01*
G75*
G02*
X187900000Y-106675000I-100000J0D01*
G01*
X186350000Y-106675000D01*
G75*
G02*
X186250000Y-106575000I0J100000D01*
G01*
G37*
G36*
G01*
X186250000Y-107225000D02*
X186250000Y-107025000D01*
G75*
G02*
X186350000Y-106925000I100000J0D01*
G01*
X187900000Y-106925000D01*
G75*
G02*
X188000000Y-107025000I0J-100000D01*
G01*
X188000000Y-107225000D01*
G75*
G02*
X187900000Y-107325000I-100000J0D01*
G01*
X186350000Y-107325000D01*
G75*
G02*
X186250000Y-107225000I0J100000D01*
G01*
G37*
G36*
G01*
X186250000Y-107875000D02*
X186250000Y-107675000D01*
G75*
G02*
X186350000Y-107575000I100000J0D01*
G01*
X187900000Y-107575000D01*
G75*
G02*
X188000000Y-107675000I0J-100000D01*
G01*
X188000000Y-107875000D01*
G75*
G02*
X187900000Y-107975000I-100000J0D01*
G01*
X186350000Y-107975000D01*
G75*
G02*
X186250000Y-107875000I0J100000D01*
G01*
G37*
G36*
G01*
X186250000Y-108525000D02*
X186250000Y-108325000D01*
G75*
G02*
X186350000Y-108225000I100000J0D01*
G01*
X187900000Y-108225000D01*
G75*
G02*
X188000000Y-108325000I0J-100000D01*
G01*
X188000000Y-108525000D01*
G75*
G02*
X187900000Y-108625000I-100000J0D01*
G01*
X186350000Y-108625000D01*
G75*
G02*
X186250000Y-108525000I0J100000D01*
G01*
G37*
G36*
G01*
X184975000Y-110900000D02*
X184975000Y-109350000D01*
G75*
G02*
X185075000Y-109250000I100000J0D01*
G01*
X185275000Y-109250000D01*
G75*
G02*
X185375000Y-109350000I0J-100000D01*
G01*
X185375000Y-110900000D01*
G75*
G02*
X185275000Y-111000000I-100000J0D01*
G01*
X185075000Y-111000000D01*
G75*
G02*
X184975000Y-110900000I0J100000D01*
G01*
G37*
G36*
G01*
X184325000Y-110900000D02*
X184325000Y-109350000D01*
G75*
G02*
X184425000Y-109250000I100000J0D01*
G01*
X184625000Y-109250000D01*
G75*
G02*
X184725000Y-109350000I0J-100000D01*
G01*
X184725000Y-110900000D01*
G75*
G02*
X184625000Y-111000000I-100000J0D01*
G01*
X184425000Y-111000000D01*
G75*
G02*
X184325000Y-110900000I0J100000D01*
G01*
G37*
G36*
G01*
X183675000Y-110900000D02*
X183675000Y-109350000D01*
G75*
G02*
X183775000Y-109250000I100000J0D01*
G01*
X183975000Y-109250000D01*
G75*
G02*
X184075000Y-109350000I0J-100000D01*
G01*
X184075000Y-110900000D01*
G75*
G02*
X183975000Y-111000000I-100000J0D01*
G01*
X183775000Y-111000000D01*
G75*
G02*
X183675000Y-110900000I0J100000D01*
G01*
G37*
G36*
G01*
X183025000Y-110900000D02*
X183025000Y-109350000D01*
G75*
G02*
X183125000Y-109250000I100000J0D01*
G01*
X183325000Y-109250000D01*
G75*
G02*
X183425000Y-109350000I0J-100000D01*
G01*
X183425000Y-110900000D01*
G75*
G02*
X183325000Y-111000000I-100000J0D01*
G01*
X183125000Y-111000000D01*
G75*
G02*
X183025000Y-110900000I0J100000D01*
G01*
G37*
G36*
G01*
X182375000Y-110900000D02*
X182375000Y-109350000D01*
G75*
G02*
X182475000Y-109250000I100000J0D01*
G01*
X182675000Y-109250000D01*
G75*
G02*
X182775000Y-109350000I0J-100000D01*
G01*
X182775000Y-110900000D01*
G75*
G02*
X182675000Y-111000000I-100000J0D01*
G01*
X182475000Y-111000000D01*
G75*
G02*
X182375000Y-110900000I0J100000D01*
G01*
G37*
G36*
G01*
X181725000Y-110900000D02*
X181725000Y-109350000D01*
G75*
G02*
X181825000Y-109250000I100000J0D01*
G01*
X182025000Y-109250000D01*
G75*
G02*
X182125000Y-109350000I0J-100000D01*
G01*
X182125000Y-110900000D01*
G75*
G02*
X182025000Y-111000000I-100000J0D01*
G01*
X181825000Y-111000000D01*
G75*
G02*
X181725000Y-110900000I0J100000D01*
G01*
G37*
G36*
G01*
X181075000Y-110900000D02*
X181075000Y-109350000D01*
G75*
G02*
X181175000Y-109250000I100000J0D01*
G01*
X181375000Y-109250000D01*
G75*
G02*
X181475000Y-109350000I0J-100000D01*
G01*
X181475000Y-110900000D01*
G75*
G02*
X181375000Y-111000000I-100000J0D01*
G01*
X181175000Y-111000000D01*
G75*
G02*
X181075000Y-110900000I0J100000D01*
G01*
G37*
G36*
G01*
X180425000Y-110900000D02*
X180425000Y-109350000D01*
G75*
G02*
X180525000Y-109250000I100000J0D01*
G01*
X180725000Y-109250000D01*
G75*
G02*
X180825000Y-109350000I0J-100000D01*
G01*
X180825000Y-110900000D01*
G75*
G02*
X180725000Y-111000000I-100000J0D01*
G01*
X180525000Y-111000000D01*
G75*
G02*
X180425000Y-110900000I0J100000D01*
G01*
G37*
G36*
G01*
X179775000Y-110900000D02*
X179775000Y-109350000D01*
G75*
G02*
X179875000Y-109250000I100000J0D01*
G01*
X180075000Y-109250000D01*
G75*
G02*
X180175000Y-109350000I0J-100000D01*
G01*
X180175000Y-110900000D01*
G75*
G02*
X180075000Y-111000000I-100000J0D01*
G01*
X179875000Y-111000000D01*
G75*
G02*
X179775000Y-110900000I0J100000D01*
G01*
G37*
G36*
G01*
X179125000Y-110900000D02*
X179125000Y-109350000D01*
G75*
G02*
X179225000Y-109250000I100000J0D01*
G01*
X179425000Y-109250000D01*
G75*
G02*
X179525000Y-109350000I0J-100000D01*
G01*
X179525000Y-110900000D01*
G75*
G02*
X179425000Y-111000000I-100000J0D01*
G01*
X179225000Y-111000000D01*
G75*
G02*
X179125000Y-110900000I0J100000D01*
G01*
G37*
G36*
G01*
X178475000Y-110900000D02*
X178475000Y-109350000D01*
G75*
G02*
X178575000Y-109250000I100000J0D01*
G01*
X178775000Y-109250000D01*
G75*
G02*
X178875000Y-109350000I0J-100000D01*
G01*
X178875000Y-110900000D01*
G75*
G02*
X178775000Y-111000000I-100000J0D01*
G01*
X178575000Y-111000000D01*
G75*
G02*
X178475000Y-110900000I0J100000D01*
G01*
G37*
G36*
G01*
X177825000Y-110900000D02*
X177825000Y-109350000D01*
G75*
G02*
X177925000Y-109250000I100000J0D01*
G01*
X178125000Y-109250000D01*
G75*
G02*
X178225000Y-109350000I0J-100000D01*
G01*
X178225000Y-110900000D01*
G75*
G02*
X178125000Y-111000000I-100000J0D01*
G01*
X177925000Y-111000000D01*
G75*
G02*
X177825000Y-110900000I0J100000D01*
G01*
G37*
G36*
G01*
X177175000Y-110900000D02*
X177175000Y-109350000D01*
G75*
G02*
X177275000Y-109250000I100000J0D01*
G01*
X177475000Y-109250000D01*
G75*
G02*
X177575000Y-109350000I0J-100000D01*
G01*
X177575000Y-110900000D01*
G75*
G02*
X177475000Y-111000000I-100000J0D01*
G01*
X177275000Y-111000000D01*
G75*
G02*
X177175000Y-110900000I0J100000D01*
G01*
G37*
G36*
G01*
X176525000Y-110900000D02*
X176525000Y-109350000D01*
G75*
G02*
X176625000Y-109250000I100000J0D01*
G01*
X176825000Y-109250000D01*
G75*
G02*
X176925000Y-109350000I0J-100000D01*
G01*
X176925000Y-110900000D01*
G75*
G02*
X176825000Y-111000000I-100000J0D01*
G01*
X176625000Y-111000000D01*
G75*
G02*
X176525000Y-110900000I0J100000D01*
G01*
G37*
G36*
G01*
X175875000Y-110900000D02*
X175875000Y-109350000D01*
G75*
G02*
X175975000Y-109250000I100000J0D01*
G01*
X176175000Y-109250000D01*
G75*
G02*
X176275000Y-109350000I0J-100000D01*
G01*
X176275000Y-110900000D01*
G75*
G02*
X176175000Y-111000000I-100000J0D01*
G01*
X175975000Y-111000000D01*
G75*
G02*
X175875000Y-110900000I0J100000D01*
G01*
G37*
G36*
G01*
X175225000Y-110900000D02*
X175225000Y-109350000D01*
G75*
G02*
X175325000Y-109250000I100000J0D01*
G01*
X175525000Y-109250000D01*
G75*
G02*
X175625000Y-109350000I0J-100000D01*
G01*
X175625000Y-110900000D01*
G75*
G02*
X175525000Y-111000000I-100000J0D01*
G01*
X175325000Y-111000000D01*
G75*
G02*
X175225000Y-110900000I0J100000D01*
G01*
G37*
G36*
G01*
X174575000Y-110900000D02*
X174575000Y-109350000D01*
G75*
G02*
X174675000Y-109250000I100000J0D01*
G01*
X174875000Y-109250000D01*
G75*
G02*
X174975000Y-109350000I0J-100000D01*
G01*
X174975000Y-110900000D01*
G75*
G02*
X174875000Y-111000000I-100000J0D01*
G01*
X174675000Y-111000000D01*
G75*
G02*
X174575000Y-110900000I0J100000D01*
G01*
G37*
G36*
G01*
X173925000Y-110900000D02*
X173925000Y-109350000D01*
G75*
G02*
X174025000Y-109250000I100000J0D01*
G01*
X174225000Y-109250000D01*
G75*
G02*
X174325000Y-109350000I0J-100000D01*
G01*
X174325000Y-110900000D01*
G75*
G02*
X174225000Y-111000000I-100000J0D01*
G01*
X174025000Y-111000000D01*
G75*
G02*
X173925000Y-110900000I0J100000D01*
G01*
G37*
G36*
G01*
X173275000Y-110900000D02*
X173275000Y-109350000D01*
G75*
G02*
X173375000Y-109250000I100000J0D01*
G01*
X173575000Y-109250000D01*
G75*
G02*
X173675000Y-109350000I0J-100000D01*
G01*
X173675000Y-110900000D01*
G75*
G02*
X173575000Y-111000000I-100000J0D01*
G01*
X173375000Y-111000000D01*
G75*
G02*
X173275000Y-110900000I0J100000D01*
G01*
G37*
G36*
G01*
X172625000Y-110900000D02*
X172625000Y-109350000D01*
G75*
G02*
X172725000Y-109250000I100000J0D01*
G01*
X172925000Y-109250000D01*
G75*
G02*
X173025000Y-109350000I0J-100000D01*
G01*
X173025000Y-110900000D01*
G75*
G02*
X172925000Y-111000000I-100000J0D01*
G01*
X172725000Y-111000000D01*
G75*
G02*
X172625000Y-110900000I0J100000D01*
G01*
G37*
G36*
G01*
X170000000Y-108525000D02*
X170000000Y-108325000D01*
G75*
G02*
X170100000Y-108225000I100000J0D01*
G01*
X171650000Y-108225000D01*
G75*
G02*
X171750000Y-108325000I0J-100000D01*
G01*
X171750000Y-108525000D01*
G75*
G02*
X171650000Y-108625000I-100000J0D01*
G01*
X170100000Y-108625000D01*
G75*
G02*
X170000000Y-108525000I0J100000D01*
G01*
G37*
G36*
G01*
X170000000Y-107875000D02*
X170000000Y-107675000D01*
G75*
G02*
X170100000Y-107575000I100000J0D01*
G01*
X171650000Y-107575000D01*
G75*
G02*
X171750000Y-107675000I0J-100000D01*
G01*
X171750000Y-107875000D01*
G75*
G02*
X171650000Y-107975000I-100000J0D01*
G01*
X170100000Y-107975000D01*
G75*
G02*
X170000000Y-107875000I0J100000D01*
G01*
G37*
G36*
G01*
X170000000Y-107225000D02*
X170000000Y-107025000D01*
G75*
G02*
X170100000Y-106925000I100000J0D01*
G01*
X171650000Y-106925000D01*
G75*
G02*
X171750000Y-107025000I0J-100000D01*
G01*
X171750000Y-107225000D01*
G75*
G02*
X171650000Y-107325000I-100000J0D01*
G01*
X170100000Y-107325000D01*
G75*
G02*
X170000000Y-107225000I0J100000D01*
G01*
G37*
G36*
G01*
X170000000Y-106575000D02*
X170000000Y-106375000D01*
G75*
G02*
X170100000Y-106275000I100000J0D01*
G01*
X171650000Y-106275000D01*
G75*
G02*
X171750000Y-106375000I0J-100000D01*
G01*
X171750000Y-106575000D01*
G75*
G02*
X171650000Y-106675000I-100000J0D01*
G01*
X170100000Y-106675000D01*
G75*
G02*
X170000000Y-106575000I0J100000D01*
G01*
G37*
G36*
G01*
X170000000Y-105925000D02*
X170000000Y-105725000D01*
G75*
G02*
X170100000Y-105625000I100000J0D01*
G01*
X171650000Y-105625000D01*
G75*
G02*
X171750000Y-105725000I0J-100000D01*
G01*
X171750000Y-105925000D01*
G75*
G02*
X171650000Y-106025000I-100000J0D01*
G01*
X170100000Y-106025000D01*
G75*
G02*
X170000000Y-105925000I0J100000D01*
G01*
G37*
G36*
G01*
X170000000Y-105275000D02*
X170000000Y-105075000D01*
G75*
G02*
X170100000Y-104975000I100000J0D01*
G01*
X171650000Y-104975000D01*
G75*
G02*
X171750000Y-105075000I0J-100000D01*
G01*
X171750000Y-105275000D01*
G75*
G02*
X171650000Y-105375000I-100000J0D01*
G01*
X170100000Y-105375000D01*
G75*
G02*
X170000000Y-105275000I0J100000D01*
G01*
G37*
G36*
G01*
X170000000Y-104625000D02*
X170000000Y-104425000D01*
G75*
G02*
X170100000Y-104325000I100000J0D01*
G01*
X171650000Y-104325000D01*
G75*
G02*
X171750000Y-104425000I0J-100000D01*
G01*
X171750000Y-104625000D01*
G75*
G02*
X171650000Y-104725000I-100000J0D01*
G01*
X170100000Y-104725000D01*
G75*
G02*
X170000000Y-104625000I0J100000D01*
G01*
G37*
G36*
G01*
X170000000Y-103975000D02*
X170000000Y-103775000D01*
G75*
G02*
X170100000Y-103675000I100000J0D01*
G01*
X171650000Y-103675000D01*
G75*
G02*
X171750000Y-103775000I0J-100000D01*
G01*
X171750000Y-103975000D01*
G75*
G02*
X171650000Y-104075000I-100000J0D01*
G01*
X170100000Y-104075000D01*
G75*
G02*
X170000000Y-103975000I0J100000D01*
G01*
G37*
G36*
G01*
X170000000Y-103325000D02*
X170000000Y-103125000D01*
G75*
G02*
X170100000Y-103025000I100000J0D01*
G01*
X171650000Y-103025000D01*
G75*
G02*
X171750000Y-103125000I0J-100000D01*
G01*
X171750000Y-103325000D01*
G75*
G02*
X171650000Y-103425000I-100000J0D01*
G01*
X170100000Y-103425000D01*
G75*
G02*
X170000000Y-103325000I0J100000D01*
G01*
G37*
G36*
G01*
X170000000Y-102675000D02*
X170000000Y-102475000D01*
G75*
G02*
X170100000Y-102375000I100000J0D01*
G01*
X171650000Y-102375000D01*
G75*
G02*
X171750000Y-102475000I0J-100000D01*
G01*
X171750000Y-102675000D01*
G75*
G02*
X171650000Y-102775000I-100000J0D01*
G01*
X170100000Y-102775000D01*
G75*
G02*
X170000000Y-102675000I0J100000D01*
G01*
G37*
G36*
G01*
X170000000Y-102025000D02*
X170000000Y-101825000D01*
G75*
G02*
X170100000Y-101725000I100000J0D01*
G01*
X171650000Y-101725000D01*
G75*
G02*
X171750000Y-101825000I0J-100000D01*
G01*
X171750000Y-102025000D01*
G75*
G02*
X171650000Y-102125000I-100000J0D01*
G01*
X170100000Y-102125000D01*
G75*
G02*
X170000000Y-102025000I0J100000D01*
G01*
G37*
G36*
G01*
X170000000Y-101375000D02*
X170000000Y-101175000D01*
G75*
G02*
X170100000Y-101075000I100000J0D01*
G01*
X171650000Y-101075000D01*
G75*
G02*
X171750000Y-101175000I0J-100000D01*
G01*
X171750000Y-101375000D01*
G75*
G02*
X171650000Y-101475000I-100000J0D01*
G01*
X170100000Y-101475000D01*
G75*
G02*
X170000000Y-101375000I0J100000D01*
G01*
G37*
G36*
G01*
X170000000Y-100725000D02*
X170000000Y-100525000D01*
G75*
G02*
X170100000Y-100425000I100000J0D01*
G01*
X171650000Y-100425000D01*
G75*
G02*
X171750000Y-100525000I0J-100000D01*
G01*
X171750000Y-100725000D01*
G75*
G02*
X171650000Y-100825000I-100000J0D01*
G01*
X170100000Y-100825000D01*
G75*
G02*
X170000000Y-100725000I0J100000D01*
G01*
G37*
G36*
G01*
X170000000Y-100075000D02*
X170000000Y-99875000D01*
G75*
G02*
X170100000Y-99775000I100000J0D01*
G01*
X171650000Y-99775000D01*
G75*
G02*
X171750000Y-99875000I0J-100000D01*
G01*
X171750000Y-100075000D01*
G75*
G02*
X171650000Y-100175000I-100000J0D01*
G01*
X170100000Y-100175000D01*
G75*
G02*
X170000000Y-100075000I0J100000D01*
G01*
G37*
G36*
G01*
X170000000Y-99425000D02*
X170000000Y-99225000D01*
G75*
G02*
X170100000Y-99125000I100000J0D01*
G01*
X171650000Y-99125000D01*
G75*
G02*
X171750000Y-99225000I0J-100000D01*
G01*
X171750000Y-99425000D01*
G75*
G02*
X171650000Y-99525000I-100000J0D01*
G01*
X170100000Y-99525000D01*
G75*
G02*
X170000000Y-99425000I0J100000D01*
G01*
G37*
G36*
G01*
X170000000Y-98775000D02*
X170000000Y-98575000D01*
G75*
G02*
X170100000Y-98475000I100000J0D01*
G01*
X171650000Y-98475000D01*
G75*
G02*
X171750000Y-98575000I0J-100000D01*
G01*
X171750000Y-98775000D01*
G75*
G02*
X171650000Y-98875000I-100000J0D01*
G01*
X170100000Y-98875000D01*
G75*
G02*
X170000000Y-98775000I0J100000D01*
G01*
G37*
G36*
G01*
X170000000Y-98125000D02*
X170000000Y-97925000D01*
G75*
G02*
X170100000Y-97825000I100000J0D01*
G01*
X171650000Y-97825000D01*
G75*
G02*
X171750000Y-97925000I0J-100000D01*
G01*
X171750000Y-98125000D01*
G75*
G02*
X171650000Y-98225000I-100000J0D01*
G01*
X170100000Y-98225000D01*
G75*
G02*
X170000000Y-98125000I0J100000D01*
G01*
G37*
G36*
G01*
X170000000Y-97475000D02*
X170000000Y-97275000D01*
G75*
G02*
X170100000Y-97175000I100000J0D01*
G01*
X171650000Y-97175000D01*
G75*
G02*
X171750000Y-97275000I0J-100000D01*
G01*
X171750000Y-97475000D01*
G75*
G02*
X171650000Y-97575000I-100000J0D01*
G01*
X170100000Y-97575000D01*
G75*
G02*
X170000000Y-97475000I0J100000D01*
G01*
G37*
G36*
G01*
X170000000Y-96825000D02*
X170000000Y-96625000D01*
G75*
G02*
X170100000Y-96525000I100000J0D01*
G01*
X171650000Y-96525000D01*
G75*
G02*
X171750000Y-96625000I0J-100000D01*
G01*
X171750000Y-96825000D01*
G75*
G02*
X171650000Y-96925000I-100000J0D01*
G01*
X170100000Y-96925000D01*
G75*
G02*
X170000000Y-96825000I0J100000D01*
G01*
G37*
G36*
G01*
X170000000Y-96175000D02*
X170000000Y-95975000D01*
G75*
G02*
X170100000Y-95875000I100000J0D01*
G01*
X171650000Y-95875000D01*
G75*
G02*
X171750000Y-95975000I0J-100000D01*
G01*
X171750000Y-96175000D01*
G75*
G02*
X171650000Y-96275000I-100000J0D01*
G01*
X170100000Y-96275000D01*
G75*
G02*
X170000000Y-96175000I0J100000D01*
G01*
G37*
G36*
G01*
X170000000Y-95525000D02*
X170000000Y-95325000D01*
G75*
G02*
X170100000Y-95225000I100000J0D01*
G01*
X171650000Y-95225000D01*
G75*
G02*
X171750000Y-95325000I0J-100000D01*
G01*
X171750000Y-95525000D01*
G75*
G02*
X171650000Y-95625000I-100000J0D01*
G01*
X170100000Y-95625000D01*
G75*
G02*
X170000000Y-95525000I0J100000D01*
G01*
G37*
G36*
G01*
X170000000Y-94875000D02*
X170000000Y-94675000D01*
G75*
G02*
X170100000Y-94575000I100000J0D01*
G01*
X171650000Y-94575000D01*
G75*
G02*
X171750000Y-94675000I0J-100000D01*
G01*
X171750000Y-94875000D01*
G75*
G02*
X171650000Y-94975000I-100000J0D01*
G01*
X170100000Y-94975000D01*
G75*
G02*
X170000000Y-94875000I0J100000D01*
G01*
G37*
G36*
G01*
X170000000Y-94225000D02*
X170000000Y-94025000D01*
G75*
G02*
X170100000Y-93925000I100000J0D01*
G01*
X171650000Y-93925000D01*
G75*
G02*
X171750000Y-94025000I0J-100000D01*
G01*
X171750000Y-94225000D01*
G75*
G02*
X171650000Y-94325000I-100000J0D01*
G01*
X170100000Y-94325000D01*
G75*
G02*
X170000000Y-94225000I0J100000D01*
G01*
G37*
G36*
G01*
X170000000Y-93575000D02*
X170000000Y-93375000D01*
G75*
G02*
X170100000Y-93275000I100000J0D01*
G01*
X171650000Y-93275000D01*
G75*
G02*
X171750000Y-93375000I0J-100000D01*
G01*
X171750000Y-93575000D01*
G75*
G02*
X171650000Y-93675000I-100000J0D01*
G01*
X170100000Y-93675000D01*
G75*
G02*
X170000000Y-93575000I0J100000D01*
G01*
G37*
G36*
G01*
X170000000Y-92925000D02*
X170000000Y-92725000D01*
G75*
G02*
X170100000Y-92625000I100000J0D01*
G01*
X171650000Y-92625000D01*
G75*
G02*
X171750000Y-92725000I0J-100000D01*
G01*
X171750000Y-92925000D01*
G75*
G02*
X171650000Y-93025000I-100000J0D01*
G01*
X170100000Y-93025000D01*
G75*
G02*
X170000000Y-92925000I0J100000D01*
G01*
G37*
G36*
G01*
X170000000Y-92275000D02*
X170000000Y-92075000D01*
G75*
G02*
X170100000Y-91975000I100000J0D01*
G01*
X171650000Y-91975000D01*
G75*
G02*
X171750000Y-92075000I0J-100000D01*
G01*
X171750000Y-92275000D01*
G75*
G02*
X171650000Y-92375000I-100000J0D01*
G01*
X170100000Y-92375000D01*
G75*
G02*
X170000000Y-92275000I0J100000D01*
G01*
G37*
G36*
G01*
X170000000Y-91625000D02*
X170000000Y-91425000D01*
G75*
G02*
X170100000Y-91325000I100000J0D01*
G01*
X171650000Y-91325000D01*
G75*
G02*
X171750000Y-91425000I0J-100000D01*
G01*
X171750000Y-91625000D01*
G75*
G02*
X171650000Y-91725000I-100000J0D01*
G01*
X170100000Y-91725000D01*
G75*
G02*
X170000000Y-91625000I0J100000D01*
G01*
G37*
G36*
G01*
X170000000Y-90975000D02*
X170000000Y-90775000D01*
G75*
G02*
X170100000Y-90675000I100000J0D01*
G01*
X171650000Y-90675000D01*
G75*
G02*
X171750000Y-90775000I0J-100000D01*
G01*
X171750000Y-90975000D01*
G75*
G02*
X171650000Y-91075000I-100000J0D01*
G01*
X170100000Y-91075000D01*
G75*
G02*
X170000000Y-90975000I0J100000D01*
G01*
G37*
G36*
G01*
X170000000Y-90325000D02*
X170000000Y-90125000D01*
G75*
G02*
X170100000Y-90025000I100000J0D01*
G01*
X171650000Y-90025000D01*
G75*
G02*
X171750000Y-90125000I0J-100000D01*
G01*
X171750000Y-90325000D01*
G75*
G02*
X171650000Y-90425000I-100000J0D01*
G01*
X170100000Y-90425000D01*
G75*
G02*
X170000000Y-90325000I0J100000D01*
G01*
G37*
G36*
G01*
X170000000Y-89675000D02*
X170000000Y-89475000D01*
G75*
G02*
X170100000Y-89375000I100000J0D01*
G01*
X171650000Y-89375000D01*
G75*
G02*
X171750000Y-89475000I0J-100000D01*
G01*
X171750000Y-89675000D01*
G75*
G02*
X171650000Y-89775000I-100000J0D01*
G01*
X170100000Y-89775000D01*
G75*
G02*
X170000000Y-89675000I0J100000D01*
G01*
G37*
%TD*%
D22*
%TO.C,U4*%
X168100000Y-121010000D03*
X166500000Y-118450000D03*
X168100000Y-118450000D03*
D23*
X168310000Y-119730000D03*
X166290000Y-119730000D03*
D22*
X166500000Y-121010000D03*
%TD*%
%TO.C,U1*%
G36*
G01*
X172850000Y-114500000D02*
X172850000Y-113175000D01*
G75*
G02*
X172925000Y-113100000I75000J0D01*
G01*
X173075000Y-113100000D01*
G75*
G02*
X173150000Y-113175000I0J-75000D01*
G01*
X173150000Y-114500000D01*
G75*
G02*
X173075000Y-114575000I-75000J0D01*
G01*
X172925000Y-114575000D01*
G75*
G02*
X172850000Y-114500000I0J75000D01*
G01*
G37*
G36*
G01*
X173350000Y-114500000D02*
X173350000Y-113175000D01*
G75*
G02*
X173425000Y-113100000I75000J0D01*
G01*
X173575000Y-113100000D01*
G75*
G02*
X173650000Y-113175000I0J-75000D01*
G01*
X173650000Y-114500000D01*
G75*
G02*
X173575000Y-114575000I-75000J0D01*
G01*
X173425000Y-114575000D01*
G75*
G02*
X173350000Y-114500000I0J75000D01*
G01*
G37*
G36*
G01*
X173850000Y-114500000D02*
X173850000Y-113175000D01*
G75*
G02*
X173925000Y-113100000I75000J0D01*
G01*
X174075000Y-113100000D01*
G75*
G02*
X174150000Y-113175000I0J-75000D01*
G01*
X174150000Y-114500000D01*
G75*
G02*
X174075000Y-114575000I-75000J0D01*
G01*
X173925000Y-114575000D01*
G75*
G02*
X173850000Y-114500000I0J75000D01*
G01*
G37*
G36*
G01*
X174350000Y-114500000D02*
X174350000Y-113175000D01*
G75*
G02*
X174425000Y-113100000I75000J0D01*
G01*
X174575000Y-113100000D01*
G75*
G02*
X174650000Y-113175000I0J-75000D01*
G01*
X174650000Y-114500000D01*
G75*
G02*
X174575000Y-114575000I-75000J0D01*
G01*
X174425000Y-114575000D01*
G75*
G02*
X174350000Y-114500000I0J75000D01*
G01*
G37*
G36*
G01*
X174850000Y-114500000D02*
X174850000Y-113175000D01*
G75*
G02*
X174925000Y-113100000I75000J0D01*
G01*
X175075000Y-113100000D01*
G75*
G02*
X175150000Y-113175000I0J-75000D01*
G01*
X175150000Y-114500000D01*
G75*
G02*
X175075000Y-114575000I-75000J0D01*
G01*
X174925000Y-114575000D01*
G75*
G02*
X174850000Y-114500000I0J75000D01*
G01*
G37*
G36*
G01*
X175350000Y-114500000D02*
X175350000Y-113175000D01*
G75*
G02*
X175425000Y-113100000I75000J0D01*
G01*
X175575000Y-113100000D01*
G75*
G02*
X175650000Y-113175000I0J-75000D01*
G01*
X175650000Y-114500000D01*
G75*
G02*
X175575000Y-114575000I-75000J0D01*
G01*
X175425000Y-114575000D01*
G75*
G02*
X175350000Y-114500000I0J75000D01*
G01*
G37*
G36*
G01*
X175850000Y-114500000D02*
X175850000Y-113175000D01*
G75*
G02*
X175925000Y-113100000I75000J0D01*
G01*
X176075000Y-113100000D01*
G75*
G02*
X176150000Y-113175000I0J-75000D01*
G01*
X176150000Y-114500000D01*
G75*
G02*
X176075000Y-114575000I-75000J0D01*
G01*
X175925000Y-114575000D01*
G75*
G02*
X175850000Y-114500000I0J75000D01*
G01*
G37*
G36*
G01*
X176350000Y-114500000D02*
X176350000Y-113175000D01*
G75*
G02*
X176425000Y-113100000I75000J0D01*
G01*
X176575000Y-113100000D01*
G75*
G02*
X176650000Y-113175000I0J-75000D01*
G01*
X176650000Y-114500000D01*
G75*
G02*
X176575000Y-114575000I-75000J0D01*
G01*
X176425000Y-114575000D01*
G75*
G02*
X176350000Y-114500000I0J75000D01*
G01*
G37*
G36*
G01*
X176850000Y-114500000D02*
X176850000Y-113175000D01*
G75*
G02*
X176925000Y-113100000I75000J0D01*
G01*
X177075000Y-113100000D01*
G75*
G02*
X177150000Y-113175000I0J-75000D01*
G01*
X177150000Y-114500000D01*
G75*
G02*
X177075000Y-114575000I-75000J0D01*
G01*
X176925000Y-114575000D01*
G75*
G02*
X176850000Y-114500000I0J75000D01*
G01*
G37*
G36*
G01*
X177350000Y-114500000D02*
X177350000Y-113175000D01*
G75*
G02*
X177425000Y-113100000I75000J0D01*
G01*
X177575000Y-113100000D01*
G75*
G02*
X177650000Y-113175000I0J-75000D01*
G01*
X177650000Y-114500000D01*
G75*
G02*
X177575000Y-114575000I-75000J0D01*
G01*
X177425000Y-114575000D01*
G75*
G02*
X177350000Y-114500000I0J75000D01*
G01*
G37*
G36*
G01*
X177850000Y-114500000D02*
X177850000Y-113175000D01*
G75*
G02*
X177925000Y-113100000I75000J0D01*
G01*
X178075000Y-113100000D01*
G75*
G02*
X178150000Y-113175000I0J-75000D01*
G01*
X178150000Y-114500000D01*
G75*
G02*
X178075000Y-114575000I-75000J0D01*
G01*
X177925000Y-114575000D01*
G75*
G02*
X177850000Y-114500000I0J75000D01*
G01*
G37*
G36*
G01*
X178350000Y-114500000D02*
X178350000Y-113175000D01*
G75*
G02*
X178425000Y-113100000I75000J0D01*
G01*
X178575000Y-113100000D01*
G75*
G02*
X178650000Y-113175000I0J-75000D01*
G01*
X178650000Y-114500000D01*
G75*
G02*
X178575000Y-114575000I-75000J0D01*
G01*
X178425000Y-114575000D01*
G75*
G02*
X178350000Y-114500000I0J75000D01*
G01*
G37*
G36*
G01*
X178850000Y-114500000D02*
X178850000Y-113175000D01*
G75*
G02*
X178925000Y-113100000I75000J0D01*
G01*
X179075000Y-113100000D01*
G75*
G02*
X179150000Y-113175000I0J-75000D01*
G01*
X179150000Y-114500000D01*
G75*
G02*
X179075000Y-114575000I-75000J0D01*
G01*
X178925000Y-114575000D01*
G75*
G02*
X178850000Y-114500000I0J75000D01*
G01*
G37*
G36*
G01*
X179350000Y-114500000D02*
X179350000Y-113175000D01*
G75*
G02*
X179425000Y-113100000I75000J0D01*
G01*
X179575000Y-113100000D01*
G75*
G02*
X179650000Y-113175000I0J-75000D01*
G01*
X179650000Y-114500000D01*
G75*
G02*
X179575000Y-114575000I-75000J0D01*
G01*
X179425000Y-114575000D01*
G75*
G02*
X179350000Y-114500000I0J75000D01*
G01*
G37*
G36*
G01*
X179850000Y-114500000D02*
X179850000Y-113175000D01*
G75*
G02*
X179925000Y-113100000I75000J0D01*
G01*
X180075000Y-113100000D01*
G75*
G02*
X180150000Y-113175000I0J-75000D01*
G01*
X180150000Y-114500000D01*
G75*
G02*
X180075000Y-114575000I-75000J0D01*
G01*
X179925000Y-114575000D01*
G75*
G02*
X179850000Y-114500000I0J75000D01*
G01*
G37*
G36*
G01*
X180350000Y-114500000D02*
X180350000Y-113175000D01*
G75*
G02*
X180425000Y-113100000I75000J0D01*
G01*
X180575000Y-113100000D01*
G75*
G02*
X180650000Y-113175000I0J-75000D01*
G01*
X180650000Y-114500000D01*
G75*
G02*
X180575000Y-114575000I-75000J0D01*
G01*
X180425000Y-114575000D01*
G75*
G02*
X180350000Y-114500000I0J75000D01*
G01*
G37*
G36*
G01*
X180850000Y-114500000D02*
X180850000Y-113175000D01*
G75*
G02*
X180925000Y-113100000I75000J0D01*
G01*
X181075000Y-113100000D01*
G75*
G02*
X181150000Y-113175000I0J-75000D01*
G01*
X181150000Y-114500000D01*
G75*
G02*
X181075000Y-114575000I-75000J0D01*
G01*
X180925000Y-114575000D01*
G75*
G02*
X180850000Y-114500000I0J75000D01*
G01*
G37*
G36*
G01*
X181350000Y-114500000D02*
X181350000Y-113175000D01*
G75*
G02*
X181425000Y-113100000I75000J0D01*
G01*
X181575000Y-113100000D01*
G75*
G02*
X181650000Y-113175000I0J-75000D01*
G01*
X181650000Y-114500000D01*
G75*
G02*
X181575000Y-114575000I-75000J0D01*
G01*
X181425000Y-114575000D01*
G75*
G02*
X181350000Y-114500000I0J75000D01*
G01*
G37*
G36*
G01*
X181850000Y-114500000D02*
X181850000Y-113175000D01*
G75*
G02*
X181925000Y-113100000I75000J0D01*
G01*
X182075000Y-113100000D01*
G75*
G02*
X182150000Y-113175000I0J-75000D01*
G01*
X182150000Y-114500000D01*
G75*
G02*
X182075000Y-114575000I-75000J0D01*
G01*
X181925000Y-114575000D01*
G75*
G02*
X181850000Y-114500000I0J75000D01*
G01*
G37*
G36*
G01*
X182350000Y-114500000D02*
X182350000Y-113175000D01*
G75*
G02*
X182425000Y-113100000I75000J0D01*
G01*
X182575000Y-113100000D01*
G75*
G02*
X182650000Y-113175000I0J-75000D01*
G01*
X182650000Y-114500000D01*
G75*
G02*
X182575000Y-114575000I-75000J0D01*
G01*
X182425000Y-114575000D01*
G75*
G02*
X182350000Y-114500000I0J75000D01*
G01*
G37*
G36*
G01*
X182850000Y-114500000D02*
X182850000Y-113175000D01*
G75*
G02*
X182925000Y-113100000I75000J0D01*
G01*
X183075000Y-113100000D01*
G75*
G02*
X183150000Y-113175000I0J-75000D01*
G01*
X183150000Y-114500000D01*
G75*
G02*
X183075000Y-114575000I-75000J0D01*
G01*
X182925000Y-114575000D01*
G75*
G02*
X182850000Y-114500000I0J75000D01*
G01*
G37*
G36*
G01*
X183350000Y-114500000D02*
X183350000Y-113175000D01*
G75*
G02*
X183425000Y-113100000I75000J0D01*
G01*
X183575000Y-113100000D01*
G75*
G02*
X183650000Y-113175000I0J-75000D01*
G01*
X183650000Y-114500000D01*
G75*
G02*
X183575000Y-114575000I-75000J0D01*
G01*
X183425000Y-114575000D01*
G75*
G02*
X183350000Y-114500000I0J75000D01*
G01*
G37*
G36*
G01*
X183850000Y-114500000D02*
X183850000Y-113175000D01*
G75*
G02*
X183925000Y-113100000I75000J0D01*
G01*
X184075000Y-113100000D01*
G75*
G02*
X184150000Y-113175000I0J-75000D01*
G01*
X184150000Y-114500000D01*
G75*
G02*
X184075000Y-114575000I-75000J0D01*
G01*
X183925000Y-114575000D01*
G75*
G02*
X183850000Y-114500000I0J75000D01*
G01*
G37*
G36*
G01*
X184350000Y-114500000D02*
X184350000Y-113175000D01*
G75*
G02*
X184425000Y-113100000I75000J0D01*
G01*
X184575000Y-113100000D01*
G75*
G02*
X184650000Y-113175000I0J-75000D01*
G01*
X184650000Y-114500000D01*
G75*
G02*
X184575000Y-114575000I-75000J0D01*
G01*
X184425000Y-114575000D01*
G75*
G02*
X184350000Y-114500000I0J75000D01*
G01*
G37*
G36*
G01*
X184850000Y-114500000D02*
X184850000Y-113175000D01*
G75*
G02*
X184925000Y-113100000I75000J0D01*
G01*
X185075000Y-113100000D01*
G75*
G02*
X185150000Y-113175000I0J-75000D01*
G01*
X185150000Y-114500000D01*
G75*
G02*
X185075000Y-114575000I-75000J0D01*
G01*
X184925000Y-114575000D01*
G75*
G02*
X184850000Y-114500000I0J75000D01*
G01*
G37*
G36*
G01*
X185925000Y-115575000D02*
X185925000Y-115425000D01*
G75*
G02*
X186000000Y-115350000I75000J0D01*
G01*
X187325000Y-115350000D01*
G75*
G02*
X187400000Y-115425000I0J-75000D01*
G01*
X187400000Y-115575000D01*
G75*
G02*
X187325000Y-115650000I-75000J0D01*
G01*
X186000000Y-115650000D01*
G75*
G02*
X185925000Y-115575000I0J75000D01*
G01*
G37*
G36*
G01*
X185925000Y-116075000D02*
X185925000Y-115925000D01*
G75*
G02*
X186000000Y-115850000I75000J0D01*
G01*
X187325000Y-115850000D01*
G75*
G02*
X187400000Y-115925000I0J-75000D01*
G01*
X187400000Y-116075000D01*
G75*
G02*
X187325000Y-116150000I-75000J0D01*
G01*
X186000000Y-116150000D01*
G75*
G02*
X185925000Y-116075000I0J75000D01*
G01*
G37*
G36*
G01*
X185925000Y-116575000D02*
X185925000Y-116425000D01*
G75*
G02*
X186000000Y-116350000I75000J0D01*
G01*
X187325000Y-116350000D01*
G75*
G02*
X187400000Y-116425000I0J-75000D01*
G01*
X187400000Y-116575000D01*
G75*
G02*
X187325000Y-116650000I-75000J0D01*
G01*
X186000000Y-116650000D01*
G75*
G02*
X185925000Y-116575000I0J75000D01*
G01*
G37*
G36*
G01*
X185925000Y-117075000D02*
X185925000Y-116925000D01*
G75*
G02*
X186000000Y-116850000I75000J0D01*
G01*
X187325000Y-116850000D01*
G75*
G02*
X187400000Y-116925000I0J-75000D01*
G01*
X187400000Y-117075000D01*
G75*
G02*
X187325000Y-117150000I-75000J0D01*
G01*
X186000000Y-117150000D01*
G75*
G02*
X185925000Y-117075000I0J75000D01*
G01*
G37*
G36*
G01*
X185925000Y-117575000D02*
X185925000Y-117425000D01*
G75*
G02*
X186000000Y-117350000I75000J0D01*
G01*
X187325000Y-117350000D01*
G75*
G02*
X187400000Y-117425000I0J-75000D01*
G01*
X187400000Y-117575000D01*
G75*
G02*
X187325000Y-117650000I-75000J0D01*
G01*
X186000000Y-117650000D01*
G75*
G02*
X185925000Y-117575000I0J75000D01*
G01*
G37*
G36*
G01*
X185925000Y-118075000D02*
X185925000Y-117925000D01*
G75*
G02*
X186000000Y-117850000I75000J0D01*
G01*
X187325000Y-117850000D01*
G75*
G02*
X187400000Y-117925000I0J-75000D01*
G01*
X187400000Y-118075000D01*
G75*
G02*
X187325000Y-118150000I-75000J0D01*
G01*
X186000000Y-118150000D01*
G75*
G02*
X185925000Y-118075000I0J75000D01*
G01*
G37*
G36*
G01*
X185925000Y-118575000D02*
X185925000Y-118425000D01*
G75*
G02*
X186000000Y-118350000I75000J0D01*
G01*
X187325000Y-118350000D01*
G75*
G02*
X187400000Y-118425000I0J-75000D01*
G01*
X187400000Y-118575000D01*
G75*
G02*
X187325000Y-118650000I-75000J0D01*
G01*
X186000000Y-118650000D01*
G75*
G02*
X185925000Y-118575000I0J75000D01*
G01*
G37*
G36*
G01*
X185925000Y-119075000D02*
X185925000Y-118925000D01*
G75*
G02*
X186000000Y-118850000I75000J0D01*
G01*
X187325000Y-118850000D01*
G75*
G02*
X187400000Y-118925000I0J-75000D01*
G01*
X187400000Y-119075000D01*
G75*
G02*
X187325000Y-119150000I-75000J0D01*
G01*
X186000000Y-119150000D01*
G75*
G02*
X185925000Y-119075000I0J75000D01*
G01*
G37*
G36*
G01*
X185925000Y-119575000D02*
X185925000Y-119425000D01*
G75*
G02*
X186000000Y-119350000I75000J0D01*
G01*
X187325000Y-119350000D01*
G75*
G02*
X187400000Y-119425000I0J-75000D01*
G01*
X187400000Y-119575000D01*
G75*
G02*
X187325000Y-119650000I-75000J0D01*
G01*
X186000000Y-119650000D01*
G75*
G02*
X185925000Y-119575000I0J75000D01*
G01*
G37*
G36*
G01*
X185925000Y-120075000D02*
X185925000Y-119925000D01*
G75*
G02*
X186000000Y-119850000I75000J0D01*
G01*
X187325000Y-119850000D01*
G75*
G02*
X187400000Y-119925000I0J-75000D01*
G01*
X187400000Y-120075000D01*
G75*
G02*
X187325000Y-120150000I-75000J0D01*
G01*
X186000000Y-120150000D01*
G75*
G02*
X185925000Y-120075000I0J75000D01*
G01*
G37*
G36*
G01*
X185925000Y-120575000D02*
X185925000Y-120425000D01*
G75*
G02*
X186000000Y-120350000I75000J0D01*
G01*
X187325000Y-120350000D01*
G75*
G02*
X187400000Y-120425000I0J-75000D01*
G01*
X187400000Y-120575000D01*
G75*
G02*
X187325000Y-120650000I-75000J0D01*
G01*
X186000000Y-120650000D01*
G75*
G02*
X185925000Y-120575000I0J75000D01*
G01*
G37*
G36*
G01*
X185925000Y-121075000D02*
X185925000Y-120925000D01*
G75*
G02*
X186000000Y-120850000I75000J0D01*
G01*
X187325000Y-120850000D01*
G75*
G02*
X187400000Y-120925000I0J-75000D01*
G01*
X187400000Y-121075000D01*
G75*
G02*
X187325000Y-121150000I-75000J0D01*
G01*
X186000000Y-121150000D01*
G75*
G02*
X185925000Y-121075000I0J75000D01*
G01*
G37*
G36*
G01*
X185925000Y-121575000D02*
X185925000Y-121425000D01*
G75*
G02*
X186000000Y-121350000I75000J0D01*
G01*
X187325000Y-121350000D01*
G75*
G02*
X187400000Y-121425000I0J-75000D01*
G01*
X187400000Y-121575000D01*
G75*
G02*
X187325000Y-121650000I-75000J0D01*
G01*
X186000000Y-121650000D01*
G75*
G02*
X185925000Y-121575000I0J75000D01*
G01*
G37*
G36*
G01*
X185925000Y-122075000D02*
X185925000Y-121925000D01*
G75*
G02*
X186000000Y-121850000I75000J0D01*
G01*
X187325000Y-121850000D01*
G75*
G02*
X187400000Y-121925000I0J-75000D01*
G01*
X187400000Y-122075000D01*
G75*
G02*
X187325000Y-122150000I-75000J0D01*
G01*
X186000000Y-122150000D01*
G75*
G02*
X185925000Y-122075000I0J75000D01*
G01*
G37*
G36*
G01*
X185925000Y-122575000D02*
X185925000Y-122425000D01*
G75*
G02*
X186000000Y-122350000I75000J0D01*
G01*
X187325000Y-122350000D01*
G75*
G02*
X187400000Y-122425000I0J-75000D01*
G01*
X187400000Y-122575000D01*
G75*
G02*
X187325000Y-122650000I-75000J0D01*
G01*
X186000000Y-122650000D01*
G75*
G02*
X185925000Y-122575000I0J75000D01*
G01*
G37*
G36*
G01*
X185925000Y-123075000D02*
X185925000Y-122925000D01*
G75*
G02*
X186000000Y-122850000I75000J0D01*
G01*
X187325000Y-122850000D01*
G75*
G02*
X187400000Y-122925000I0J-75000D01*
G01*
X187400000Y-123075000D01*
G75*
G02*
X187325000Y-123150000I-75000J0D01*
G01*
X186000000Y-123150000D01*
G75*
G02*
X185925000Y-123075000I0J75000D01*
G01*
G37*
G36*
G01*
X185925000Y-123575000D02*
X185925000Y-123425000D01*
G75*
G02*
X186000000Y-123350000I75000J0D01*
G01*
X187325000Y-123350000D01*
G75*
G02*
X187400000Y-123425000I0J-75000D01*
G01*
X187400000Y-123575000D01*
G75*
G02*
X187325000Y-123650000I-75000J0D01*
G01*
X186000000Y-123650000D01*
G75*
G02*
X185925000Y-123575000I0J75000D01*
G01*
G37*
G36*
G01*
X185925000Y-124075000D02*
X185925000Y-123925000D01*
G75*
G02*
X186000000Y-123850000I75000J0D01*
G01*
X187325000Y-123850000D01*
G75*
G02*
X187400000Y-123925000I0J-75000D01*
G01*
X187400000Y-124075000D01*
G75*
G02*
X187325000Y-124150000I-75000J0D01*
G01*
X186000000Y-124150000D01*
G75*
G02*
X185925000Y-124075000I0J75000D01*
G01*
G37*
G36*
G01*
X185925000Y-124575000D02*
X185925000Y-124425000D01*
G75*
G02*
X186000000Y-124350000I75000J0D01*
G01*
X187325000Y-124350000D01*
G75*
G02*
X187400000Y-124425000I0J-75000D01*
G01*
X187400000Y-124575000D01*
G75*
G02*
X187325000Y-124650000I-75000J0D01*
G01*
X186000000Y-124650000D01*
G75*
G02*
X185925000Y-124575000I0J75000D01*
G01*
G37*
G36*
G01*
X185925000Y-125075000D02*
X185925000Y-124925000D01*
G75*
G02*
X186000000Y-124850000I75000J0D01*
G01*
X187325000Y-124850000D01*
G75*
G02*
X187400000Y-124925000I0J-75000D01*
G01*
X187400000Y-125075000D01*
G75*
G02*
X187325000Y-125150000I-75000J0D01*
G01*
X186000000Y-125150000D01*
G75*
G02*
X185925000Y-125075000I0J75000D01*
G01*
G37*
G36*
G01*
X185925000Y-125575000D02*
X185925000Y-125425000D01*
G75*
G02*
X186000000Y-125350000I75000J0D01*
G01*
X187325000Y-125350000D01*
G75*
G02*
X187400000Y-125425000I0J-75000D01*
G01*
X187400000Y-125575000D01*
G75*
G02*
X187325000Y-125650000I-75000J0D01*
G01*
X186000000Y-125650000D01*
G75*
G02*
X185925000Y-125575000I0J75000D01*
G01*
G37*
G36*
G01*
X185925000Y-126075000D02*
X185925000Y-125925000D01*
G75*
G02*
X186000000Y-125850000I75000J0D01*
G01*
X187325000Y-125850000D01*
G75*
G02*
X187400000Y-125925000I0J-75000D01*
G01*
X187400000Y-126075000D01*
G75*
G02*
X187325000Y-126150000I-75000J0D01*
G01*
X186000000Y-126150000D01*
G75*
G02*
X185925000Y-126075000I0J75000D01*
G01*
G37*
G36*
G01*
X185925000Y-126575000D02*
X185925000Y-126425000D01*
G75*
G02*
X186000000Y-126350000I75000J0D01*
G01*
X187325000Y-126350000D01*
G75*
G02*
X187400000Y-126425000I0J-75000D01*
G01*
X187400000Y-126575000D01*
G75*
G02*
X187325000Y-126650000I-75000J0D01*
G01*
X186000000Y-126650000D01*
G75*
G02*
X185925000Y-126575000I0J75000D01*
G01*
G37*
G36*
G01*
X185925000Y-127075000D02*
X185925000Y-126925000D01*
G75*
G02*
X186000000Y-126850000I75000J0D01*
G01*
X187325000Y-126850000D01*
G75*
G02*
X187400000Y-126925000I0J-75000D01*
G01*
X187400000Y-127075000D01*
G75*
G02*
X187325000Y-127150000I-75000J0D01*
G01*
X186000000Y-127150000D01*
G75*
G02*
X185925000Y-127075000I0J75000D01*
G01*
G37*
G36*
G01*
X185925000Y-127575000D02*
X185925000Y-127425000D01*
G75*
G02*
X186000000Y-127350000I75000J0D01*
G01*
X187325000Y-127350000D01*
G75*
G02*
X187400000Y-127425000I0J-75000D01*
G01*
X187400000Y-127575000D01*
G75*
G02*
X187325000Y-127650000I-75000J0D01*
G01*
X186000000Y-127650000D01*
G75*
G02*
X185925000Y-127575000I0J75000D01*
G01*
G37*
G36*
G01*
X184850000Y-129825000D02*
X184850000Y-128500000D01*
G75*
G02*
X184925000Y-128425000I75000J0D01*
G01*
X185075000Y-128425000D01*
G75*
G02*
X185150000Y-128500000I0J-75000D01*
G01*
X185150000Y-129825000D01*
G75*
G02*
X185075000Y-129900000I-75000J0D01*
G01*
X184925000Y-129900000D01*
G75*
G02*
X184850000Y-129825000I0J75000D01*
G01*
G37*
G36*
G01*
X184350000Y-129825000D02*
X184350000Y-128500000D01*
G75*
G02*
X184425000Y-128425000I75000J0D01*
G01*
X184575000Y-128425000D01*
G75*
G02*
X184650000Y-128500000I0J-75000D01*
G01*
X184650000Y-129825000D01*
G75*
G02*
X184575000Y-129900000I-75000J0D01*
G01*
X184425000Y-129900000D01*
G75*
G02*
X184350000Y-129825000I0J75000D01*
G01*
G37*
G36*
G01*
X183850000Y-129825000D02*
X183850000Y-128500000D01*
G75*
G02*
X183925000Y-128425000I75000J0D01*
G01*
X184075000Y-128425000D01*
G75*
G02*
X184150000Y-128500000I0J-75000D01*
G01*
X184150000Y-129825000D01*
G75*
G02*
X184075000Y-129900000I-75000J0D01*
G01*
X183925000Y-129900000D01*
G75*
G02*
X183850000Y-129825000I0J75000D01*
G01*
G37*
G36*
G01*
X183350000Y-129825000D02*
X183350000Y-128500000D01*
G75*
G02*
X183425000Y-128425000I75000J0D01*
G01*
X183575000Y-128425000D01*
G75*
G02*
X183650000Y-128500000I0J-75000D01*
G01*
X183650000Y-129825000D01*
G75*
G02*
X183575000Y-129900000I-75000J0D01*
G01*
X183425000Y-129900000D01*
G75*
G02*
X183350000Y-129825000I0J75000D01*
G01*
G37*
G36*
G01*
X182850000Y-129825000D02*
X182850000Y-128500000D01*
G75*
G02*
X182925000Y-128425000I75000J0D01*
G01*
X183075000Y-128425000D01*
G75*
G02*
X183150000Y-128500000I0J-75000D01*
G01*
X183150000Y-129825000D01*
G75*
G02*
X183075000Y-129900000I-75000J0D01*
G01*
X182925000Y-129900000D01*
G75*
G02*
X182850000Y-129825000I0J75000D01*
G01*
G37*
G36*
G01*
X182350000Y-129825000D02*
X182350000Y-128500000D01*
G75*
G02*
X182425000Y-128425000I75000J0D01*
G01*
X182575000Y-128425000D01*
G75*
G02*
X182650000Y-128500000I0J-75000D01*
G01*
X182650000Y-129825000D01*
G75*
G02*
X182575000Y-129900000I-75000J0D01*
G01*
X182425000Y-129900000D01*
G75*
G02*
X182350000Y-129825000I0J75000D01*
G01*
G37*
G36*
G01*
X181850000Y-129825000D02*
X181850000Y-128500000D01*
G75*
G02*
X181925000Y-128425000I75000J0D01*
G01*
X182075000Y-128425000D01*
G75*
G02*
X182150000Y-128500000I0J-75000D01*
G01*
X182150000Y-129825000D01*
G75*
G02*
X182075000Y-129900000I-75000J0D01*
G01*
X181925000Y-129900000D01*
G75*
G02*
X181850000Y-129825000I0J75000D01*
G01*
G37*
G36*
G01*
X181350000Y-129825000D02*
X181350000Y-128500000D01*
G75*
G02*
X181425000Y-128425000I75000J0D01*
G01*
X181575000Y-128425000D01*
G75*
G02*
X181650000Y-128500000I0J-75000D01*
G01*
X181650000Y-129825000D01*
G75*
G02*
X181575000Y-129900000I-75000J0D01*
G01*
X181425000Y-129900000D01*
G75*
G02*
X181350000Y-129825000I0J75000D01*
G01*
G37*
G36*
G01*
X180850000Y-129825000D02*
X180850000Y-128500000D01*
G75*
G02*
X180925000Y-128425000I75000J0D01*
G01*
X181075000Y-128425000D01*
G75*
G02*
X181150000Y-128500000I0J-75000D01*
G01*
X181150000Y-129825000D01*
G75*
G02*
X181075000Y-129900000I-75000J0D01*
G01*
X180925000Y-129900000D01*
G75*
G02*
X180850000Y-129825000I0J75000D01*
G01*
G37*
G36*
G01*
X180350000Y-129825000D02*
X180350000Y-128500000D01*
G75*
G02*
X180425000Y-128425000I75000J0D01*
G01*
X180575000Y-128425000D01*
G75*
G02*
X180650000Y-128500000I0J-75000D01*
G01*
X180650000Y-129825000D01*
G75*
G02*
X180575000Y-129900000I-75000J0D01*
G01*
X180425000Y-129900000D01*
G75*
G02*
X180350000Y-129825000I0J75000D01*
G01*
G37*
G36*
G01*
X179850000Y-129825000D02*
X179850000Y-128500000D01*
G75*
G02*
X179925000Y-128425000I75000J0D01*
G01*
X180075000Y-128425000D01*
G75*
G02*
X180150000Y-128500000I0J-75000D01*
G01*
X180150000Y-129825000D01*
G75*
G02*
X180075000Y-129900000I-75000J0D01*
G01*
X179925000Y-129900000D01*
G75*
G02*
X179850000Y-129825000I0J75000D01*
G01*
G37*
G36*
G01*
X179350000Y-129825000D02*
X179350000Y-128500000D01*
G75*
G02*
X179425000Y-128425000I75000J0D01*
G01*
X179575000Y-128425000D01*
G75*
G02*
X179650000Y-128500000I0J-75000D01*
G01*
X179650000Y-129825000D01*
G75*
G02*
X179575000Y-129900000I-75000J0D01*
G01*
X179425000Y-129900000D01*
G75*
G02*
X179350000Y-129825000I0J75000D01*
G01*
G37*
G36*
G01*
X178850000Y-129825000D02*
X178850000Y-128500000D01*
G75*
G02*
X178925000Y-128425000I75000J0D01*
G01*
X179075000Y-128425000D01*
G75*
G02*
X179150000Y-128500000I0J-75000D01*
G01*
X179150000Y-129825000D01*
G75*
G02*
X179075000Y-129900000I-75000J0D01*
G01*
X178925000Y-129900000D01*
G75*
G02*
X178850000Y-129825000I0J75000D01*
G01*
G37*
G36*
G01*
X178350000Y-129825000D02*
X178350000Y-128500000D01*
G75*
G02*
X178425000Y-128425000I75000J0D01*
G01*
X178575000Y-128425000D01*
G75*
G02*
X178650000Y-128500000I0J-75000D01*
G01*
X178650000Y-129825000D01*
G75*
G02*
X178575000Y-129900000I-75000J0D01*
G01*
X178425000Y-129900000D01*
G75*
G02*
X178350000Y-129825000I0J75000D01*
G01*
G37*
G36*
G01*
X177850000Y-129825000D02*
X177850000Y-128500000D01*
G75*
G02*
X177925000Y-128425000I75000J0D01*
G01*
X178075000Y-128425000D01*
G75*
G02*
X178150000Y-128500000I0J-75000D01*
G01*
X178150000Y-129825000D01*
G75*
G02*
X178075000Y-129900000I-75000J0D01*
G01*
X177925000Y-129900000D01*
G75*
G02*
X177850000Y-129825000I0J75000D01*
G01*
G37*
G36*
G01*
X177350000Y-129825000D02*
X177350000Y-128500000D01*
G75*
G02*
X177425000Y-128425000I75000J0D01*
G01*
X177575000Y-128425000D01*
G75*
G02*
X177650000Y-128500000I0J-75000D01*
G01*
X177650000Y-129825000D01*
G75*
G02*
X177575000Y-129900000I-75000J0D01*
G01*
X177425000Y-129900000D01*
G75*
G02*
X177350000Y-129825000I0J75000D01*
G01*
G37*
G36*
G01*
X176850000Y-129825000D02*
X176850000Y-128500000D01*
G75*
G02*
X176925000Y-128425000I75000J0D01*
G01*
X177075000Y-128425000D01*
G75*
G02*
X177150000Y-128500000I0J-75000D01*
G01*
X177150000Y-129825000D01*
G75*
G02*
X177075000Y-129900000I-75000J0D01*
G01*
X176925000Y-129900000D01*
G75*
G02*
X176850000Y-129825000I0J75000D01*
G01*
G37*
G36*
G01*
X176350000Y-129825000D02*
X176350000Y-128500000D01*
G75*
G02*
X176425000Y-128425000I75000J0D01*
G01*
X176575000Y-128425000D01*
G75*
G02*
X176650000Y-128500000I0J-75000D01*
G01*
X176650000Y-129825000D01*
G75*
G02*
X176575000Y-129900000I-75000J0D01*
G01*
X176425000Y-129900000D01*
G75*
G02*
X176350000Y-129825000I0J75000D01*
G01*
G37*
G36*
G01*
X175850000Y-129825000D02*
X175850000Y-128500000D01*
G75*
G02*
X175925000Y-128425000I75000J0D01*
G01*
X176075000Y-128425000D01*
G75*
G02*
X176150000Y-128500000I0J-75000D01*
G01*
X176150000Y-129825000D01*
G75*
G02*
X176075000Y-129900000I-75000J0D01*
G01*
X175925000Y-129900000D01*
G75*
G02*
X175850000Y-129825000I0J75000D01*
G01*
G37*
G36*
G01*
X175350000Y-129825000D02*
X175350000Y-128500000D01*
G75*
G02*
X175425000Y-128425000I75000J0D01*
G01*
X175575000Y-128425000D01*
G75*
G02*
X175650000Y-128500000I0J-75000D01*
G01*
X175650000Y-129825000D01*
G75*
G02*
X175575000Y-129900000I-75000J0D01*
G01*
X175425000Y-129900000D01*
G75*
G02*
X175350000Y-129825000I0J75000D01*
G01*
G37*
G36*
G01*
X174850000Y-129825000D02*
X174850000Y-128500000D01*
G75*
G02*
X174925000Y-128425000I75000J0D01*
G01*
X175075000Y-128425000D01*
G75*
G02*
X175150000Y-128500000I0J-75000D01*
G01*
X175150000Y-129825000D01*
G75*
G02*
X175075000Y-129900000I-75000J0D01*
G01*
X174925000Y-129900000D01*
G75*
G02*
X174850000Y-129825000I0J75000D01*
G01*
G37*
G36*
G01*
X174350000Y-129825000D02*
X174350000Y-128500000D01*
G75*
G02*
X174425000Y-128425000I75000J0D01*
G01*
X174575000Y-128425000D01*
G75*
G02*
X174650000Y-128500000I0J-75000D01*
G01*
X174650000Y-129825000D01*
G75*
G02*
X174575000Y-129900000I-75000J0D01*
G01*
X174425000Y-129900000D01*
G75*
G02*
X174350000Y-129825000I0J75000D01*
G01*
G37*
G36*
G01*
X173850000Y-129825000D02*
X173850000Y-128500000D01*
G75*
G02*
X173925000Y-128425000I75000J0D01*
G01*
X174075000Y-128425000D01*
G75*
G02*
X174150000Y-128500000I0J-75000D01*
G01*
X174150000Y-129825000D01*
G75*
G02*
X174075000Y-129900000I-75000J0D01*
G01*
X173925000Y-129900000D01*
G75*
G02*
X173850000Y-129825000I0J75000D01*
G01*
G37*
G36*
G01*
X173350000Y-129825000D02*
X173350000Y-128500000D01*
G75*
G02*
X173425000Y-128425000I75000J0D01*
G01*
X173575000Y-128425000D01*
G75*
G02*
X173650000Y-128500000I0J-75000D01*
G01*
X173650000Y-129825000D01*
G75*
G02*
X173575000Y-129900000I-75000J0D01*
G01*
X173425000Y-129900000D01*
G75*
G02*
X173350000Y-129825000I0J75000D01*
G01*
G37*
G36*
G01*
X172850000Y-129825000D02*
X172850000Y-128500000D01*
G75*
G02*
X172925000Y-128425000I75000J0D01*
G01*
X173075000Y-128425000D01*
G75*
G02*
X173150000Y-128500000I0J-75000D01*
G01*
X173150000Y-129825000D01*
G75*
G02*
X173075000Y-129900000I-75000J0D01*
G01*
X172925000Y-129900000D01*
G75*
G02*
X172850000Y-129825000I0J75000D01*
G01*
G37*
G36*
G01*
X170600000Y-127575000D02*
X170600000Y-127425000D01*
G75*
G02*
X170675000Y-127350000I75000J0D01*
G01*
X172000000Y-127350000D01*
G75*
G02*
X172075000Y-127425000I0J-75000D01*
G01*
X172075000Y-127575000D01*
G75*
G02*
X172000000Y-127650000I-75000J0D01*
G01*
X170675000Y-127650000D01*
G75*
G02*
X170600000Y-127575000I0J75000D01*
G01*
G37*
G36*
G01*
X170600000Y-127075000D02*
X170600000Y-126925000D01*
G75*
G02*
X170675000Y-126850000I75000J0D01*
G01*
X172000000Y-126850000D01*
G75*
G02*
X172075000Y-126925000I0J-75000D01*
G01*
X172075000Y-127075000D01*
G75*
G02*
X172000000Y-127150000I-75000J0D01*
G01*
X170675000Y-127150000D01*
G75*
G02*
X170600000Y-127075000I0J75000D01*
G01*
G37*
G36*
G01*
X170600000Y-126575000D02*
X170600000Y-126425000D01*
G75*
G02*
X170675000Y-126350000I75000J0D01*
G01*
X172000000Y-126350000D01*
G75*
G02*
X172075000Y-126425000I0J-75000D01*
G01*
X172075000Y-126575000D01*
G75*
G02*
X172000000Y-126650000I-75000J0D01*
G01*
X170675000Y-126650000D01*
G75*
G02*
X170600000Y-126575000I0J75000D01*
G01*
G37*
G36*
G01*
X170600000Y-126075000D02*
X170600000Y-125925000D01*
G75*
G02*
X170675000Y-125850000I75000J0D01*
G01*
X172000000Y-125850000D01*
G75*
G02*
X172075000Y-125925000I0J-75000D01*
G01*
X172075000Y-126075000D01*
G75*
G02*
X172000000Y-126150000I-75000J0D01*
G01*
X170675000Y-126150000D01*
G75*
G02*
X170600000Y-126075000I0J75000D01*
G01*
G37*
G36*
G01*
X170600000Y-125575000D02*
X170600000Y-125425000D01*
G75*
G02*
X170675000Y-125350000I75000J0D01*
G01*
X172000000Y-125350000D01*
G75*
G02*
X172075000Y-125425000I0J-75000D01*
G01*
X172075000Y-125575000D01*
G75*
G02*
X172000000Y-125650000I-75000J0D01*
G01*
X170675000Y-125650000D01*
G75*
G02*
X170600000Y-125575000I0J75000D01*
G01*
G37*
G36*
G01*
X170600000Y-125075000D02*
X170600000Y-124925000D01*
G75*
G02*
X170675000Y-124850000I75000J0D01*
G01*
X172000000Y-124850000D01*
G75*
G02*
X172075000Y-124925000I0J-75000D01*
G01*
X172075000Y-125075000D01*
G75*
G02*
X172000000Y-125150000I-75000J0D01*
G01*
X170675000Y-125150000D01*
G75*
G02*
X170600000Y-125075000I0J75000D01*
G01*
G37*
G36*
G01*
X170600000Y-124575000D02*
X170600000Y-124425000D01*
G75*
G02*
X170675000Y-124350000I75000J0D01*
G01*
X172000000Y-124350000D01*
G75*
G02*
X172075000Y-124425000I0J-75000D01*
G01*
X172075000Y-124575000D01*
G75*
G02*
X172000000Y-124650000I-75000J0D01*
G01*
X170675000Y-124650000D01*
G75*
G02*
X170600000Y-124575000I0J75000D01*
G01*
G37*
G36*
G01*
X170600000Y-124075000D02*
X170600000Y-123925000D01*
G75*
G02*
X170675000Y-123850000I75000J0D01*
G01*
X172000000Y-123850000D01*
G75*
G02*
X172075000Y-123925000I0J-75000D01*
G01*
X172075000Y-124075000D01*
G75*
G02*
X172000000Y-124150000I-75000J0D01*
G01*
X170675000Y-124150000D01*
G75*
G02*
X170600000Y-124075000I0J75000D01*
G01*
G37*
G36*
G01*
X170600000Y-123575000D02*
X170600000Y-123425000D01*
G75*
G02*
X170675000Y-123350000I75000J0D01*
G01*
X172000000Y-123350000D01*
G75*
G02*
X172075000Y-123425000I0J-75000D01*
G01*
X172075000Y-123575000D01*
G75*
G02*
X172000000Y-123650000I-75000J0D01*
G01*
X170675000Y-123650000D01*
G75*
G02*
X170600000Y-123575000I0J75000D01*
G01*
G37*
G36*
G01*
X170600000Y-123075000D02*
X170600000Y-122925000D01*
G75*
G02*
X170675000Y-122850000I75000J0D01*
G01*
X172000000Y-122850000D01*
G75*
G02*
X172075000Y-122925000I0J-75000D01*
G01*
X172075000Y-123075000D01*
G75*
G02*
X172000000Y-123150000I-75000J0D01*
G01*
X170675000Y-123150000D01*
G75*
G02*
X170600000Y-123075000I0J75000D01*
G01*
G37*
G36*
G01*
X170600000Y-122575000D02*
X170600000Y-122425000D01*
G75*
G02*
X170675000Y-122350000I75000J0D01*
G01*
X172000000Y-122350000D01*
G75*
G02*
X172075000Y-122425000I0J-75000D01*
G01*
X172075000Y-122575000D01*
G75*
G02*
X172000000Y-122650000I-75000J0D01*
G01*
X170675000Y-122650000D01*
G75*
G02*
X170600000Y-122575000I0J75000D01*
G01*
G37*
G36*
G01*
X170600000Y-122075000D02*
X170600000Y-121925000D01*
G75*
G02*
X170675000Y-121850000I75000J0D01*
G01*
X172000000Y-121850000D01*
G75*
G02*
X172075000Y-121925000I0J-75000D01*
G01*
X172075000Y-122075000D01*
G75*
G02*
X172000000Y-122150000I-75000J0D01*
G01*
X170675000Y-122150000D01*
G75*
G02*
X170600000Y-122075000I0J75000D01*
G01*
G37*
G36*
G01*
X170600000Y-121575000D02*
X170600000Y-121425000D01*
G75*
G02*
X170675000Y-121350000I75000J0D01*
G01*
X172000000Y-121350000D01*
G75*
G02*
X172075000Y-121425000I0J-75000D01*
G01*
X172075000Y-121575000D01*
G75*
G02*
X172000000Y-121650000I-75000J0D01*
G01*
X170675000Y-121650000D01*
G75*
G02*
X170600000Y-121575000I0J75000D01*
G01*
G37*
G36*
G01*
X170600000Y-121075000D02*
X170600000Y-120925000D01*
G75*
G02*
X170675000Y-120850000I75000J0D01*
G01*
X172000000Y-120850000D01*
G75*
G02*
X172075000Y-120925000I0J-75000D01*
G01*
X172075000Y-121075000D01*
G75*
G02*
X172000000Y-121150000I-75000J0D01*
G01*
X170675000Y-121150000D01*
G75*
G02*
X170600000Y-121075000I0J75000D01*
G01*
G37*
G36*
G01*
X170600000Y-120575000D02*
X170600000Y-120425000D01*
G75*
G02*
X170675000Y-120350000I75000J0D01*
G01*
X172000000Y-120350000D01*
G75*
G02*
X172075000Y-120425000I0J-75000D01*
G01*
X172075000Y-120575000D01*
G75*
G02*
X172000000Y-120650000I-75000J0D01*
G01*
X170675000Y-120650000D01*
G75*
G02*
X170600000Y-120575000I0J75000D01*
G01*
G37*
G36*
G01*
X170600000Y-120075000D02*
X170600000Y-119925000D01*
G75*
G02*
X170675000Y-119850000I75000J0D01*
G01*
X172000000Y-119850000D01*
G75*
G02*
X172075000Y-119925000I0J-75000D01*
G01*
X172075000Y-120075000D01*
G75*
G02*
X172000000Y-120150000I-75000J0D01*
G01*
X170675000Y-120150000D01*
G75*
G02*
X170600000Y-120075000I0J75000D01*
G01*
G37*
G36*
G01*
X170600000Y-119575000D02*
X170600000Y-119425000D01*
G75*
G02*
X170675000Y-119350000I75000J0D01*
G01*
X172000000Y-119350000D01*
G75*
G02*
X172075000Y-119425000I0J-75000D01*
G01*
X172075000Y-119575000D01*
G75*
G02*
X172000000Y-119650000I-75000J0D01*
G01*
X170675000Y-119650000D01*
G75*
G02*
X170600000Y-119575000I0J75000D01*
G01*
G37*
G36*
G01*
X170600000Y-119075000D02*
X170600000Y-118925000D01*
G75*
G02*
X170675000Y-118850000I75000J0D01*
G01*
X172000000Y-118850000D01*
G75*
G02*
X172075000Y-118925000I0J-75000D01*
G01*
X172075000Y-119075000D01*
G75*
G02*
X172000000Y-119150000I-75000J0D01*
G01*
X170675000Y-119150000D01*
G75*
G02*
X170600000Y-119075000I0J75000D01*
G01*
G37*
G36*
G01*
X170600000Y-118575000D02*
X170600000Y-118425000D01*
G75*
G02*
X170675000Y-118350000I75000J0D01*
G01*
X172000000Y-118350000D01*
G75*
G02*
X172075000Y-118425000I0J-75000D01*
G01*
X172075000Y-118575000D01*
G75*
G02*
X172000000Y-118650000I-75000J0D01*
G01*
X170675000Y-118650000D01*
G75*
G02*
X170600000Y-118575000I0J75000D01*
G01*
G37*
G36*
G01*
X170600000Y-118075000D02*
X170600000Y-117925000D01*
G75*
G02*
X170675000Y-117850000I75000J0D01*
G01*
X172000000Y-117850000D01*
G75*
G02*
X172075000Y-117925000I0J-75000D01*
G01*
X172075000Y-118075000D01*
G75*
G02*
X172000000Y-118150000I-75000J0D01*
G01*
X170675000Y-118150000D01*
G75*
G02*
X170600000Y-118075000I0J75000D01*
G01*
G37*
G36*
G01*
X170600000Y-117575000D02*
X170600000Y-117425000D01*
G75*
G02*
X170675000Y-117350000I75000J0D01*
G01*
X172000000Y-117350000D01*
G75*
G02*
X172075000Y-117425000I0J-75000D01*
G01*
X172075000Y-117575000D01*
G75*
G02*
X172000000Y-117650000I-75000J0D01*
G01*
X170675000Y-117650000D01*
G75*
G02*
X170600000Y-117575000I0J75000D01*
G01*
G37*
G36*
G01*
X170600000Y-117075000D02*
X170600000Y-116925000D01*
G75*
G02*
X170675000Y-116850000I75000J0D01*
G01*
X172000000Y-116850000D01*
G75*
G02*
X172075000Y-116925000I0J-75000D01*
G01*
X172075000Y-117075000D01*
G75*
G02*
X172000000Y-117150000I-75000J0D01*
G01*
X170675000Y-117150000D01*
G75*
G02*
X170600000Y-117075000I0J75000D01*
G01*
G37*
G36*
G01*
X170600000Y-116575000D02*
X170600000Y-116425000D01*
G75*
G02*
X170675000Y-116350000I75000J0D01*
G01*
X172000000Y-116350000D01*
G75*
G02*
X172075000Y-116425000I0J-75000D01*
G01*
X172075000Y-116575000D01*
G75*
G02*
X172000000Y-116650000I-75000J0D01*
G01*
X170675000Y-116650000D01*
G75*
G02*
X170600000Y-116575000I0J75000D01*
G01*
G37*
G36*
G01*
X170600000Y-116075000D02*
X170600000Y-115925000D01*
G75*
G02*
X170675000Y-115850000I75000J0D01*
G01*
X172000000Y-115850000D01*
G75*
G02*
X172075000Y-115925000I0J-75000D01*
G01*
X172075000Y-116075000D01*
G75*
G02*
X172000000Y-116150000I-75000J0D01*
G01*
X170675000Y-116150000D01*
G75*
G02*
X170600000Y-116075000I0J75000D01*
G01*
G37*
G36*
G01*
X170600000Y-115575000D02*
X170600000Y-115425000D01*
G75*
G02*
X170675000Y-115350000I75000J0D01*
G01*
X172000000Y-115350000D01*
G75*
G02*
X172075000Y-115425000I0J-75000D01*
G01*
X172075000Y-115575000D01*
G75*
G02*
X172000000Y-115650000I-75000J0D01*
G01*
X170675000Y-115650000D01*
G75*
G02*
X170600000Y-115575000I0J75000D01*
G01*
G37*
%TD*%
D24*
%TO.C,TR2*%
X194040000Y-56540000D03*
X191500000Y-56540000D03*
X188960000Y-56540000D03*
X188960000Y-51460000D03*
X191500000Y-51460000D03*
X194040000Y-51460000D03*
%TD*%
%TO.C,TR1*%
X169040000Y-56540000D03*
X166500000Y-56540000D03*
X163960000Y-56540000D03*
X163960000Y-51460000D03*
X166500000Y-51460000D03*
X169040000Y-51460000D03*
%TD*%
%TO.C,R17*%
G36*
G01*
X179062500Y-84756250D02*
X179062500Y-84243750D01*
G75*
G02*
X179281250Y-84025000I218750J0D01*
G01*
X179718750Y-84025000D01*
G75*
G02*
X179937500Y-84243750I0J-218750D01*
G01*
X179937500Y-84756250D01*
G75*
G02*
X179718750Y-84975000I-218750J0D01*
G01*
X179281250Y-84975000D01*
G75*
G02*
X179062500Y-84756250I0J218750D01*
G01*
G37*
G36*
G01*
X177487500Y-84756250D02*
X177487500Y-84243750D01*
G75*
G02*
X177706250Y-84025000I218750J0D01*
G01*
X178143750Y-84025000D01*
G75*
G02*
X178362500Y-84243750I0J-218750D01*
G01*
X178362500Y-84756250D01*
G75*
G02*
X178143750Y-84975000I-218750J0D01*
G01*
X177706250Y-84975000D01*
G75*
G02*
X177487500Y-84756250I0J218750D01*
G01*
G37*
%TD*%
%TO.C,R11*%
G36*
G01*
X160187500Y-56243750D02*
X160187500Y-56756250D01*
G75*
G02*
X159968750Y-56975000I-218750J0D01*
G01*
X159531250Y-56975000D01*
G75*
G02*
X159312500Y-56756250I0J218750D01*
G01*
X159312500Y-56243750D01*
G75*
G02*
X159531250Y-56025000I218750J0D01*
G01*
X159968750Y-56025000D01*
G75*
G02*
X160187500Y-56243750I0J-218750D01*
G01*
G37*
G36*
G01*
X161762500Y-56243750D02*
X161762500Y-56756250D01*
G75*
G02*
X161543750Y-56975000I-218750J0D01*
G01*
X161106250Y-56975000D01*
G75*
G02*
X160887500Y-56756250I0J218750D01*
G01*
X160887500Y-56243750D01*
G75*
G02*
X161106250Y-56025000I218750J0D01*
G01*
X161543750Y-56025000D01*
G75*
G02*
X161762500Y-56243750I0J-218750D01*
G01*
G37*
%TD*%
%TO.C,R10*%
G36*
G01*
X172006250Y-55400000D02*
X171493750Y-55400000D01*
G75*
G02*
X171275000Y-55181250I0J218750D01*
G01*
X171275000Y-54743750D01*
G75*
G02*
X171493750Y-54525000I218750J0D01*
G01*
X172006250Y-54525000D01*
G75*
G02*
X172225000Y-54743750I0J-218750D01*
G01*
X172225000Y-55181250D01*
G75*
G02*
X172006250Y-55400000I-218750J0D01*
G01*
G37*
G36*
G01*
X172006250Y-56975000D02*
X171493750Y-56975000D01*
G75*
G02*
X171275000Y-56756250I0J218750D01*
G01*
X171275000Y-56318750D01*
G75*
G02*
X171493750Y-56100000I218750J0D01*
G01*
X172006250Y-56100000D01*
G75*
G02*
X172225000Y-56318750I0J-218750D01*
G01*
X172225000Y-56756250D01*
G75*
G02*
X172006250Y-56975000I-218750J0D01*
G01*
G37*
%TD*%
%TO.C,R9*%
G36*
G01*
X196493750Y-57562500D02*
X197006250Y-57562500D01*
G75*
G02*
X197225000Y-57781250I0J-218750D01*
G01*
X197225000Y-58218750D01*
G75*
G02*
X197006250Y-58437500I-218750J0D01*
G01*
X196493750Y-58437500D01*
G75*
G02*
X196275000Y-58218750I0J218750D01*
G01*
X196275000Y-57781250D01*
G75*
G02*
X196493750Y-57562500I218750J0D01*
G01*
G37*
G36*
G01*
X196493750Y-55987500D02*
X197006250Y-55987500D01*
G75*
G02*
X197225000Y-56206250I0J-218750D01*
G01*
X197225000Y-56643750D01*
G75*
G02*
X197006250Y-56862500I-218750J0D01*
G01*
X196493750Y-56862500D01*
G75*
G02*
X196275000Y-56643750I0J218750D01*
G01*
X196275000Y-56206250D01*
G75*
G02*
X196493750Y-55987500I218750J0D01*
G01*
G37*
%TD*%
%TO.C,R8*%
G36*
G01*
X185187500Y-56243750D02*
X185187500Y-56756250D01*
G75*
G02*
X184968750Y-56975000I-218750J0D01*
G01*
X184531250Y-56975000D01*
G75*
G02*
X184312500Y-56756250I0J218750D01*
G01*
X184312500Y-56243750D01*
G75*
G02*
X184531250Y-56025000I218750J0D01*
G01*
X184968750Y-56025000D01*
G75*
G02*
X185187500Y-56243750I0J-218750D01*
G01*
G37*
G36*
G01*
X186762500Y-56243750D02*
X186762500Y-56756250D01*
G75*
G02*
X186543750Y-56975000I-218750J0D01*
G01*
X186106250Y-56975000D01*
G75*
G02*
X185887500Y-56756250I0J218750D01*
G01*
X185887500Y-56243750D01*
G75*
G02*
X186106250Y-56025000I218750J0D01*
G01*
X186543750Y-56025000D01*
G75*
G02*
X186762500Y-56243750I0J-218750D01*
G01*
G37*
%TD*%
%TO.C,R7*%
G36*
G01*
X140943750Y-71500000D02*
X141456250Y-71500000D01*
G75*
G02*
X141675000Y-71718750I0J-218750D01*
G01*
X141675000Y-72156250D01*
G75*
G02*
X141456250Y-72375000I-218750J0D01*
G01*
X140943750Y-72375000D01*
G75*
G02*
X140725000Y-72156250I0J218750D01*
G01*
X140725000Y-71718750D01*
G75*
G02*
X140943750Y-71500000I218750J0D01*
G01*
G37*
G36*
G01*
X140943750Y-69925000D02*
X141456250Y-69925000D01*
G75*
G02*
X141675000Y-70143750I0J-218750D01*
G01*
X141675000Y-70581250D01*
G75*
G02*
X141456250Y-70800000I-218750J0D01*
G01*
X140943750Y-70800000D01*
G75*
G02*
X140725000Y-70581250I0J218750D01*
G01*
X140725000Y-70143750D01*
G75*
G02*
X140943750Y-69925000I218750J0D01*
G01*
G37*
%TD*%
%TO.C,R6*%
G36*
G01*
X140943750Y-75500000D02*
X141456250Y-75500000D01*
G75*
G02*
X141675000Y-75718750I0J-218750D01*
G01*
X141675000Y-76156250D01*
G75*
G02*
X141456250Y-76375000I-218750J0D01*
G01*
X140943750Y-76375000D01*
G75*
G02*
X140725000Y-76156250I0J218750D01*
G01*
X140725000Y-75718750D01*
G75*
G02*
X140943750Y-75500000I218750J0D01*
G01*
G37*
G36*
G01*
X140943750Y-73925000D02*
X141456250Y-73925000D01*
G75*
G02*
X141675000Y-74143750I0J-218750D01*
G01*
X141675000Y-74581250D01*
G75*
G02*
X141456250Y-74800000I-218750J0D01*
G01*
X140943750Y-74800000D01*
G75*
G02*
X140725000Y-74581250I0J218750D01*
G01*
X140725000Y-74143750D01*
G75*
G02*
X140943750Y-73925000I218750J0D01*
G01*
G37*
%TD*%
%TO.C,R5*%
G36*
G01*
X140943750Y-79500000D02*
X141456250Y-79500000D01*
G75*
G02*
X141675000Y-79718750I0J-218750D01*
G01*
X141675000Y-80156250D01*
G75*
G02*
X141456250Y-80375000I-218750J0D01*
G01*
X140943750Y-80375000D01*
G75*
G02*
X140725000Y-80156250I0J218750D01*
G01*
X140725000Y-79718750D01*
G75*
G02*
X140943750Y-79500000I218750J0D01*
G01*
G37*
G36*
G01*
X140943750Y-77925000D02*
X141456250Y-77925000D01*
G75*
G02*
X141675000Y-78143750I0J-218750D01*
G01*
X141675000Y-78581250D01*
G75*
G02*
X141456250Y-78800000I-218750J0D01*
G01*
X140943750Y-78800000D01*
G75*
G02*
X140725000Y-78581250I0J218750D01*
G01*
X140725000Y-78143750D01*
G75*
G02*
X140943750Y-77925000I218750J0D01*
G01*
G37*
%TD*%
%TO.C,R1*%
G36*
G01*
X182437500Y-130743750D02*
X182437500Y-131256250D01*
G75*
G02*
X182218750Y-131475000I-218750J0D01*
G01*
X181781250Y-131475000D01*
G75*
G02*
X181562500Y-131256250I0J218750D01*
G01*
X181562500Y-130743750D01*
G75*
G02*
X181781250Y-130525000I218750J0D01*
G01*
X182218750Y-130525000D01*
G75*
G02*
X182437500Y-130743750I0J-218750D01*
G01*
G37*
G36*
G01*
X184012500Y-130743750D02*
X184012500Y-131256250D01*
G75*
G02*
X183793750Y-131475000I-218750J0D01*
G01*
X183356250Y-131475000D01*
G75*
G02*
X183137500Y-131256250I0J218750D01*
G01*
X183137500Y-130743750D01*
G75*
G02*
X183356250Y-130525000I218750J0D01*
G01*
X183793750Y-130525000D01*
G75*
G02*
X184012500Y-130743750I0J-218750D01*
G01*
G37*
%TD*%
D15*
%TO.C,J3*%
X144800000Y-97000000D03*
D25*
X143250000Y-94000000D03*
X143250000Y-101600000D03*
X137250000Y-101600000D03*
X137250000Y-94000000D03*
%TD*%
%TO.C,D3*%
G36*
G01*
X136656250Y-70700000D02*
X135743750Y-70700000D01*
G75*
G02*
X135500000Y-70456250I0J243750D01*
G01*
X135500000Y-69968750D01*
G75*
G02*
X135743750Y-69725000I243750J0D01*
G01*
X136656250Y-69725000D01*
G75*
G02*
X136900000Y-69968750I0J-243750D01*
G01*
X136900000Y-70456250D01*
G75*
G02*
X136656250Y-70700000I-243750J0D01*
G01*
G37*
G36*
G01*
X136656250Y-72575000D02*
X135743750Y-72575000D01*
G75*
G02*
X135500000Y-72331250I0J243750D01*
G01*
X135500000Y-71843750D01*
G75*
G02*
X135743750Y-71600000I243750J0D01*
G01*
X136656250Y-71600000D01*
G75*
G02*
X136900000Y-71843750I0J-243750D01*
G01*
X136900000Y-72331250D01*
G75*
G02*
X136656250Y-72575000I-243750J0D01*
G01*
G37*
%TD*%
%TO.C,D2*%
G36*
G01*
X136656250Y-74700000D02*
X135743750Y-74700000D01*
G75*
G02*
X135500000Y-74456250I0J243750D01*
G01*
X135500000Y-73968750D01*
G75*
G02*
X135743750Y-73725000I243750J0D01*
G01*
X136656250Y-73725000D01*
G75*
G02*
X136900000Y-73968750I0J-243750D01*
G01*
X136900000Y-74456250D01*
G75*
G02*
X136656250Y-74700000I-243750J0D01*
G01*
G37*
G36*
G01*
X136656250Y-76575000D02*
X135743750Y-76575000D01*
G75*
G02*
X135500000Y-76331250I0J243750D01*
G01*
X135500000Y-75843750D01*
G75*
G02*
X135743750Y-75600000I243750J0D01*
G01*
X136656250Y-75600000D01*
G75*
G02*
X136900000Y-75843750I0J-243750D01*
G01*
X136900000Y-76331250D01*
G75*
G02*
X136656250Y-76575000I-243750J0D01*
G01*
G37*
%TD*%
%TO.C,D1*%
G36*
G01*
X136656250Y-78700000D02*
X135743750Y-78700000D01*
G75*
G02*
X135500000Y-78456250I0J243750D01*
G01*
X135500000Y-77968750D01*
G75*
G02*
X135743750Y-77725000I243750J0D01*
G01*
X136656250Y-77725000D01*
G75*
G02*
X136900000Y-77968750I0J-243750D01*
G01*
X136900000Y-78456250D01*
G75*
G02*
X136656250Y-78700000I-243750J0D01*
G01*
G37*
G36*
G01*
X136656250Y-80575000D02*
X135743750Y-80575000D01*
G75*
G02*
X135500000Y-80331250I0J243750D01*
G01*
X135500000Y-79843750D01*
G75*
G02*
X135743750Y-79600000I243750J0D01*
G01*
X136656250Y-79600000D01*
G75*
G02*
X136900000Y-79843750I0J-243750D01*
G01*
X136900000Y-80331250D01*
G75*
G02*
X136656250Y-80575000I-243750J0D01*
G01*
G37*
%TD*%
%TO.C,C39*%
G36*
G01*
X188756250Y-68862500D02*
X188243750Y-68862500D01*
G75*
G02*
X188025000Y-68643750I0J218750D01*
G01*
X188025000Y-68206250D01*
G75*
G02*
X188243750Y-67987500I218750J0D01*
G01*
X188756250Y-67987500D01*
G75*
G02*
X188975000Y-68206250I0J-218750D01*
G01*
X188975000Y-68643750D01*
G75*
G02*
X188756250Y-68862500I-218750J0D01*
G01*
G37*
G36*
G01*
X188756250Y-70437500D02*
X188243750Y-70437500D01*
G75*
G02*
X188025000Y-70218750I0J218750D01*
G01*
X188025000Y-69781250D01*
G75*
G02*
X188243750Y-69562500I218750J0D01*
G01*
X188756250Y-69562500D01*
G75*
G02*
X188975000Y-69781250I0J-218750D01*
G01*
X188975000Y-70218750D01*
G75*
G02*
X188756250Y-70437500I-218750J0D01*
G01*
G37*
%TD*%
%TO.C,C35*%
G36*
G01*
X169756250Y-68437500D02*
X169243750Y-68437500D01*
G75*
G02*
X169025000Y-68218750I0J218750D01*
G01*
X169025000Y-67781250D01*
G75*
G02*
X169243750Y-67562500I218750J0D01*
G01*
X169756250Y-67562500D01*
G75*
G02*
X169975000Y-67781250I0J-218750D01*
G01*
X169975000Y-68218750D01*
G75*
G02*
X169756250Y-68437500I-218750J0D01*
G01*
G37*
G36*
G01*
X169756250Y-70012500D02*
X169243750Y-70012500D01*
G75*
G02*
X169025000Y-69793750I0J218750D01*
G01*
X169025000Y-69356250D01*
G75*
G02*
X169243750Y-69137500I218750J0D01*
G01*
X169756250Y-69137500D01*
G75*
G02*
X169975000Y-69356250I0J-218750D01*
G01*
X169975000Y-69793750D01*
G75*
G02*
X169756250Y-70012500I-218750J0D01*
G01*
G37*
%TD*%
%TO.C,C8*%
G36*
G01*
X177962500Y-85743750D02*
X177962500Y-86256250D01*
G75*
G02*
X177743750Y-86475000I-218750J0D01*
G01*
X177306250Y-86475000D01*
G75*
G02*
X177087500Y-86256250I0J218750D01*
G01*
X177087500Y-85743750D01*
G75*
G02*
X177306250Y-85525000I218750J0D01*
G01*
X177743750Y-85525000D01*
G75*
G02*
X177962500Y-85743750I0J-218750D01*
G01*
G37*
G36*
G01*
X179537500Y-85743750D02*
X179537500Y-86256250D01*
G75*
G02*
X179318750Y-86475000I-218750J0D01*
G01*
X178881250Y-86475000D01*
G75*
G02*
X178662500Y-86256250I0J218750D01*
G01*
X178662500Y-85743750D01*
G75*
G02*
X178881250Y-85525000I218750J0D01*
G01*
X179318750Y-85525000D01*
G75*
G02*
X179537500Y-85743750I0J-218750D01*
G01*
G37*
%TD*%
%TO.C,C7*%
G36*
G01*
X149750000Y-113943750D02*
X149750000Y-114456250D01*
G75*
G02*
X149531250Y-114675000I-218750J0D01*
G01*
X149093750Y-114675000D01*
G75*
G02*
X148875000Y-114456250I0J218750D01*
G01*
X148875000Y-113943750D01*
G75*
G02*
X149093750Y-113725000I218750J0D01*
G01*
X149531250Y-113725000D01*
G75*
G02*
X149750000Y-113943750I0J-218750D01*
G01*
G37*
G36*
G01*
X151325000Y-113943750D02*
X151325000Y-114456250D01*
G75*
G02*
X151106250Y-114675000I-218750J0D01*
G01*
X150668750Y-114675000D01*
G75*
G02*
X150450000Y-114456250I0J218750D01*
G01*
X150450000Y-113943750D01*
G75*
G02*
X150668750Y-113725000I218750J0D01*
G01*
X151106250Y-113725000D01*
G75*
G02*
X151325000Y-113943750I0J-218750D01*
G01*
G37*
%TD*%
%TO.C,C5*%
G36*
G01*
X151850000Y-94200000D02*
X151850000Y-93100000D01*
G75*
G02*
X152100000Y-92850000I250000J0D01*
G01*
X155100000Y-92850000D01*
G75*
G02*
X155350000Y-93100000I0J-250000D01*
G01*
X155350000Y-94200000D01*
G75*
G02*
X155100000Y-94450000I-250000J0D01*
G01*
X152100000Y-94450000D01*
G75*
G02*
X151850000Y-94200000I0J250000D01*
G01*
G37*
G36*
G01*
X146450000Y-94200000D02*
X146450000Y-93100000D01*
G75*
G02*
X146700000Y-92850000I250000J0D01*
G01*
X149700000Y-92850000D01*
G75*
G02*
X149950000Y-93100000I0J-250000D01*
G01*
X149950000Y-94200000D01*
G75*
G02*
X149700000Y-94450000I-250000J0D01*
G01*
X146700000Y-94450000D01*
G75*
G02*
X146450000Y-94200000I0J250000D01*
G01*
G37*
%TD*%
%TO.C,C4*%
G36*
G01*
X151850000Y-101700000D02*
X151850000Y-100600000D01*
G75*
G02*
X152100000Y-100350000I250000J0D01*
G01*
X155100000Y-100350000D01*
G75*
G02*
X155350000Y-100600000I0J-250000D01*
G01*
X155350000Y-101700000D01*
G75*
G02*
X155100000Y-101950000I-250000J0D01*
G01*
X152100000Y-101950000D01*
G75*
G02*
X151850000Y-101700000I0J250000D01*
G01*
G37*
G36*
G01*
X146450000Y-101700000D02*
X146450000Y-100600000D01*
G75*
G02*
X146700000Y-100350000I250000J0D01*
G01*
X149700000Y-100350000D01*
G75*
G02*
X149950000Y-100600000I0J-250000D01*
G01*
X149950000Y-101700000D01*
G75*
G02*
X149700000Y-101950000I-250000J0D01*
G01*
X146700000Y-101950000D01*
G75*
G02*
X146450000Y-101700000I0J250000D01*
G01*
G37*
%TD*%
%TO.C,C3*%
G36*
G01*
X142187500Y-104243750D02*
X142187500Y-104756250D01*
G75*
G02*
X141968750Y-104975000I-218750J0D01*
G01*
X141531250Y-104975000D01*
G75*
G02*
X141312500Y-104756250I0J218750D01*
G01*
X141312500Y-104243750D01*
G75*
G02*
X141531250Y-104025000I218750J0D01*
G01*
X141968750Y-104025000D01*
G75*
G02*
X142187500Y-104243750I0J-218750D01*
G01*
G37*
G36*
G01*
X143762500Y-104243750D02*
X143762500Y-104756250D01*
G75*
G02*
X143543750Y-104975000I-218750J0D01*
G01*
X143106250Y-104975000D01*
G75*
G02*
X142887500Y-104756250I0J218750D01*
G01*
X142887500Y-104243750D01*
G75*
G02*
X143106250Y-104025000I218750J0D01*
G01*
X143543750Y-104025000D01*
G75*
G02*
X143762500Y-104243750I0J-218750D01*
G01*
G37*
%TD*%
%TO.C,C2*%
G36*
G01*
X152243750Y-112562500D02*
X152756250Y-112562500D01*
G75*
G02*
X152975000Y-112781250I0J-218750D01*
G01*
X152975000Y-113218750D01*
G75*
G02*
X152756250Y-113437500I-218750J0D01*
G01*
X152243750Y-113437500D01*
G75*
G02*
X152025000Y-113218750I0J218750D01*
G01*
X152025000Y-112781250D01*
G75*
G02*
X152243750Y-112562500I218750J0D01*
G01*
G37*
G36*
G01*
X152243750Y-110987500D02*
X152756250Y-110987500D01*
G75*
G02*
X152975000Y-111206250I0J-218750D01*
G01*
X152975000Y-111643750D01*
G75*
G02*
X152756250Y-111862500I-218750J0D01*
G01*
X152243750Y-111862500D01*
G75*
G02*
X152025000Y-111643750I0J218750D01*
G01*
X152025000Y-111206250D01*
G75*
G02*
X152243750Y-110987500I218750J0D01*
G01*
G37*
%TD*%
%TO.C,C1*%
G36*
G01*
X148687500Y-83993750D02*
X148687500Y-84506250D01*
G75*
G02*
X148468750Y-84725000I-218750J0D01*
G01*
X148031250Y-84725000D01*
G75*
G02*
X147812500Y-84506250I0J218750D01*
G01*
X147812500Y-83993750D01*
G75*
G02*
X148031250Y-83775000I218750J0D01*
G01*
X148468750Y-83775000D01*
G75*
G02*
X148687500Y-83993750I0J-218750D01*
G01*
G37*
G36*
G01*
X150262500Y-83993750D02*
X150262500Y-84506250D01*
G75*
G02*
X150043750Y-84725000I-218750J0D01*
G01*
X149606250Y-84725000D01*
G75*
G02*
X149387500Y-84506250I0J218750D01*
G01*
X149387500Y-83993750D01*
G75*
G02*
X149606250Y-83775000I218750J0D01*
G01*
X150043750Y-83775000D01*
G75*
G02*
X150262500Y-83993750I0J-218750D01*
G01*
G37*
%TD*%
M02*
