M48
; DRILL file {KiCad (5.1.6)-1} date 12/14/20 06:54:27
; FORMAT={-:-/ absolute / inch / decimal}
; #@! TF.CreationDate,2020-12-14T06:54:27-07:00
; #@! TF.GenerationSoftware,Kicad,Pcbnew,(5.1.6)-1
FMAT,2
INCH
T1C0.0079
T2C0.0118
T3C0.0197
T4C0.0394
T5C0.0354
T6C0.0551
T7C0.1260
%
G90
G05
T1
X6.9587Y-2.8642
X6.9587Y-2.9085
X6.9587Y-2.9528
X6.9587Y-2.997
X6.9587Y-3.0413
X7.003Y-2.8642
X7.003Y-2.9085
X7.003Y-2.9528
X7.003Y-2.997
X7.003Y-3.0413
X7.0472Y-2.8642
X7.0472Y-2.9085
X7.0472Y-2.9528
X7.0472Y-2.997
X7.0472Y-3.0413
X7.0915Y-2.8642
X7.0915Y-2.9085
X7.0915Y-2.9528
X7.0915Y-2.997
X7.0915Y-3.0413
X7.1358Y-2.8642
X7.1358Y-2.9085
X7.1358Y-2.9528
X7.1358Y-2.997
X7.1358Y-3.0413
T2
X5.4626Y-3.6024
X5.4705Y-2.1319
X5.5118Y-2.3622
X5.5118Y-4.872
X5.5118Y-5.1181
X5.5591Y-2.8322
X5.5591Y-3.1471
X5.561Y-4.0433
X5.561Y-4.6457
X5.5729Y-4.8524
X5.6025Y-4.9166
X5.6033Y-4.5659
X5.6171Y-4.8327
X5.6221Y-4.628
X5.6594Y-3.9449
X5.6594Y-4.5669
X5.6605Y-4.6978
X5.6693Y-1.7795
X5.689Y-4.6063
X5.6896Y-4.687
X5.7087Y-1.9685
X5.7087Y-2.1654
X5.7087Y-2.3622
X5.7087Y-2.5591
X5.7087Y-2.7559
X5.7087Y-4.3996
X5.7352Y-4.5748
X5.8312Y-4.6446
X5.8327Y-3.0295
X5.8339Y-3.3142
X5.9055Y-1.7717
X5.9055Y-1.9685
X5.9055Y-2.1654
X5.9055Y-2.3622
X5.9055Y-2.5591
X5.9055Y-2.7559
X5.9055Y-4.9213
X6.1024Y-1.7717
X6.1024Y-1.9685
X6.1024Y-2.1654
X6.1024Y-2.3622
X6.1024Y-2.5591
X6.1024Y-4.7244
X6.1024Y-4.9213
X6.1024Y-5.1181
X6.1634Y-3.5062
X6.2008Y-5.187
X6.2795Y-1.998
X6.2795Y-2.2933
X6.2894Y-2.2244
X6.2992Y-2.5591
X6.2992Y-2.9528
X6.2992Y-3.1496
X6.2992Y-3.3465
X6.2992Y-3.5433
X6.2992Y-3.7402
X6.2992Y-3.937
X6.2992Y-4.5276
X6.2992Y-4.7244
X6.2992Y-4.9213
X6.2992Y-5.1181
X6.3169Y-2.8051
X6.378Y-2.0965
X6.4961Y-2.3622
X6.4961Y-2.5591
X6.4961Y-2.9528
X6.5132Y-4.1679
X6.5281Y-4.1287
X6.5288Y-4.1514
X6.5299Y-4.0567
X6.5315Y-4.0866
X6.5418Y-4.1106
X6.5539Y-4.056
X6.5611Y-3.7657
X6.5631Y-3.6472
X6.565Y-3.687
X6.565Y-3.7264
X6.5866Y-3.626
X6.5984Y-4.0354
X6.6028Y-3.7061
X6.6062Y-3.6696
X6.6062Y-3.7484
X6.6732Y-2.6772
X6.6738Y-4.9243
X6.6754Y-2.7824
X6.6782Y-4.8908
X6.6808Y-4.5861
X6.685Y-4.6604
X6.6891Y-4.6199
X6.6929Y-2.3622
X6.6929Y-2.5591
X6.6969Y-4.685
X6.6969Y-4.9409
X6.6969Y-2.8583
X6.6973Y-4.9039
X6.7008Y-4.5753
X6.7013Y-4.8704
X6.7016Y-4.6449
X6.7016Y-4.8476
X6.7089Y-4.6088
X6.7274Y-4.2687
X6.7334Y-5.0435
X6.7598Y-5.0906
X6.7618Y-2.1654
X6.7638Y-3.6063
X6.7677Y-5.1299
X6.7761Y-3.6896
X6.7835Y-3.5472
X6.7874Y-4.2354
X6.7874Y-3.7608
X6.7913Y-3.0315
X6.7939Y-3.8246
X6.7953Y-3.8986
X6.7953Y-3.9606
X6.7953Y-4.0197
X6.7953Y-4.0817
X6.7953Y-4.1772
X6.811Y-2.7923
X6.811Y-2.8543
X6.811Y-2.9119
X6.811Y-2.9739
X6.8209Y-4.7736
X6.8278Y-2.7165
X6.8301Y-4.6514
X6.8396Y-4.7175
X6.8425Y-5.0157
X6.8661Y-3.7008
X6.8701Y-1.8012
X6.8701Y-2.2933
X6.8701Y-3.129
X6.8701Y-3.189
X6.875Y-3.5633
X6.8799Y-5.0394
X6.8898Y-2.7165
X6.8996Y-4.5374
X6.9016Y-3.7047
X6.9016Y-4.811
X6.9094Y-3.56
X6.9193Y-5.1378
X6.9235Y-3.1731
X6.939Y-5.0394
X6.939Y-3.1565
X6.9459Y-2.7165
X6.9587Y-3.3661
X6.9587Y-4.439
X6.9587Y-4.5276
X6.9685Y-1.8996
X6.9685Y-2.0965
X6.9685Y-2.1949
X6.9685Y-3.56
X6.9872Y-3.8849
X6.998Y-3.1594
X7.0079Y-2.7165
X7.0276Y-3.56
X7.0349Y-2.7756
X7.0384Y-4.2854
X7.0443Y-3.1794
X7.0591Y-4.8425
X7.064Y-2.7165
X7.0669Y-1.8012
X7.0669Y-1.998
X7.0669Y-2.2933
X7.0669Y-3.8701
X7.0689Y-3.6102
X7.0768Y-3.3661
X7.0866Y-2.3622
X7.0866Y-2.5591
X7.0896Y-4.6042
X7.0906Y-2.7756
X7.1004Y-4.2854
X7.126Y-2.7165
X7.126Y-3.1594
X7.126Y-5.1476
X7.129Y-3.5856
X7.1358Y-4.5571
X7.1427Y-5.0098
X7.1452Y-3.126
X7.1496Y-3.5276
X7.1654Y-1.8996
X7.1654Y-2.0965
X7.1654Y-3.189
X7.1654Y-3.6457
X7.1829Y-4.5212
X7.185Y-2.7165
X7.185Y-4.5965
X7.189Y-3.3425
X7.2018Y-3.5433
X7.2047Y-4.5276
X7.2047Y-5.0098
X7.2264Y-3.187
X7.2274Y-4.5276
X7.2343Y-3.5925
X7.2372Y-4.7872
X7.247Y-2.7165
X7.248Y-2.8504
X7.2539Y-3.061
X7.2549Y-4.5276
X7.2608Y-4.8561
X7.2638Y-1.8012
X7.2638Y-2.2933
X7.2638Y-2.9429
X7.2638Y-3.0049
X7.2638Y-3.1412
X7.2638Y-4.4483
X7.2717Y-2.7756
X7.2731Y-4.28
X7.2736Y-2.2244
X7.2804Y-4.9242
X7.2805Y-4.4213
X7.2835Y-2.3622
X7.2835Y-2.5591
X7.2876Y-4.465
X7.2933Y-2.8642
X7.2933Y-4.7343
X7.2983Y-4.7684
X7.3Y-4.8322
X7.301Y-4.871
X7.3031Y-4.9409
X7.3031Y-5.187
X7.313Y-3.622
X7.315Y-4.0138
X7.315Y-4.0728
X7.315Y-4.2008
X7.3199Y-3.7972
X7.3199Y-3.8661
X7.3248Y-3.6004
X7.3248Y-3.7579
X7.3524Y-3.4469
X7.3622Y-1.8996
X7.3671Y-3.5266
X7.3671Y-4.1663
X7.3671Y-4.2687
X7.3858Y-4.8228
X7.3911Y-4.6429
X7.393Y-4.8979
X7.3937Y-2.9606
X7.3937Y-3.0886
X7.3937Y-4.5669
X7.3976Y-4.7244
X7.3977Y-4.6061
X7.4016Y-4.685
X7.4016Y-4.9409
X7.4065Y-3.9154
X7.4094Y-4.878
X7.4109Y-4.9118
X7.4136Y-4.6459
X7.4173Y-4.5748
X7.4202Y-4.6088
X7.4213Y-2.6939
X7.4213Y-4.7047
X7.4409Y-2.8583
X7.4409Y-5.1801
X7.4606Y-2.2933
X7.4606Y-2.7559
X7.4685Y-5.1752
X7.4803Y-2.3622
X7.4803Y-2.5591
X7.4803Y-3.7598
X7.4823Y-3.7204
X7.4823Y-4.0552
X7.4833Y-3.681
X7.4843Y-4.0945
X7.4843Y-4.1339
X7.5039Y-3.6378
X7.5039Y-4.0354
X7.5078Y-3.7953
X7.5098Y-4.9213
X7.5232Y-4.1535
X7.524Y-4.0753
X7.5243Y-3.6621
X7.5243Y-3.7409
X7.5248Y-4.1149
X7.5249Y-3.6998
X7.5295Y-2.7717
X7.5295Y-2.8642
X7.6772Y-2.3622
X7.6772Y-2.5591
X7.6772Y-2.7559
X7.6772Y-2.9528
X7.6772Y-3.1299
X7.6772Y-4.7244
X7.6772Y-4.9213
X7.6772Y-5.1181
X7.6772Y-5.315
X7.7067Y-3.4843
X7.7461Y-2.2835
X7.8543Y-1.8012
X7.8543Y-1.998
X7.8543Y-2.2933
X7.874Y-2.9528
X7.874Y-3.1496
X7.874Y-3.3465
X7.874Y-3.3465
X7.874Y-3.5433
X7.874Y-3.7402
X7.874Y-3.937
X7.874Y-4.1339
X7.874Y-4.3307
X7.874Y-4.5276
X7.874Y-4.7244
X7.874Y-5.1181
T3
X5.3622Y-2.8445
X5.3622Y-2.9921
X5.3622Y-3.1555
X5.7599Y-4.6762
X5.8346Y-3.687
X5.8346Y-3.9823
X5.876Y-4.5059
X5.935Y-4.4961
X6.0217Y-3.6673
X6.0413Y-3.9921
X6.061Y-3.6969
X6.0807Y-3.9724
X6.4961Y-1.7815
X6.5551Y-2.2244
X6.7224Y-1.7815
X7.4508Y-1.7815
X7.5394Y-2.2244
X7.6378Y-2.0276
X7.6708Y-1.7879
T4
X6.6705Y-5.3071
X6.7705Y-5.3071
X6.8705Y-5.3071
X6.9705Y-5.3071
X7.0705Y-5.3071
X7.1705Y-5.3071
X7.2705Y-5.3071
X7.3705Y-5.3071
X7.4705Y-5.3071
X6.4469Y-4.7181
X6.4469Y-4.8181
X6.4469Y-4.9181
X6.4469Y-5.0181
X6.4469Y-5.1181
T5
X5.8346Y-5.1516
X6.0079Y-5.1516
T6
X5.4134Y-3.8268
X5.5709Y-3.8268
T7
X5.4528Y-5.2559
X5.4528Y-2.5591
X7.7756Y-2.5591
X7.7756Y-5.2559
T0
M30
