M48
; DRILL file {KiCad (5.1.6)-1} date 10/26/20 13:42:28
; FORMAT={-:-/ absolute / inch / decimal}
; #@! TF.CreationDate,2020-10-26T13:42:28-06:00
; #@! TF.GenerationSoftware,Kicad,Pcbnew,(5.1.6)-1
FMAT,2
INCH
T1C0.0079
T2C0.0118
T3C0.0197
T4C0.0256
T5C0.0354
T6C0.0551
T7C0.1260
%
G90
G05
T1
X2.3524Y-3.376
X2.3524Y-3.4203
X2.3524Y-3.4646
X2.3524Y-3.5089
X2.3524Y-3.5531
X2.3967Y-3.376
X2.3967Y-3.4203
X2.3967Y-3.4646
X2.3967Y-3.5089
X2.3967Y-3.5531
X2.4409Y-3.376
X2.4409Y-3.4203
X2.4409Y-3.4646
X2.4409Y-3.5089
X2.4409Y-3.5531
X2.4852Y-3.376
X2.4852Y-3.4203
X2.4852Y-3.4646
X2.4852Y-3.5089
X2.4852Y-3.5531
X2.5295Y-3.376
X2.5295Y-3.4203
X2.5295Y-3.4646
X2.5295Y-3.5089
X2.5295Y-3.5531
T2
X1.6732Y-2.6575
X1.6732Y-2.8543
X1.6732Y-3.0512
X1.6732Y-3.248
X1.6732Y-3.4449
X1.6732Y-3.6417
X1.6732Y-3.8386
X1.6732Y-4.0354
X1.6732Y-4.2323
X1.6732Y-4.4291
X1.6732Y-4.626
X1.6732Y-4.8228
X1.6732Y-5.0197
X1.6732Y-5.2165
X1.6732Y-5.4134
X1.6732Y-5.6102
X1.6732Y-5.8071
X1.6732Y-6.0039
X1.7717Y-2.7559
X1.7717Y-2.9528
X1.7717Y-3.1496
X1.7717Y-3.3465
X1.7717Y-3.7402
X1.7717Y-3.937
X1.7717Y-4.9213
X1.7717Y-5.1181
X1.7717Y-5.315
X1.7717Y-5.5118
X1.7717Y-5.7087
X1.7717Y-5.9055
X1.7815Y-2.8839
X1.7835Y-4.3602
X1.7867Y-4.1206
X1.8012Y-4.1437
X1.8187Y-4.1142
X1.847Y-4.1052
X1.8474Y-4.0029
X1.8701Y-2.6575
X1.8701Y-3.0512
X1.8701Y-3.248
X1.8701Y-4.8228
X1.8701Y-5.0197
X1.8701Y-5.2165
X1.8701Y-5.4134
X1.8701Y-5.8071
X1.8701Y-6.0039
X1.8701Y-6.2008
X1.9587Y-4.5768
X1.9606Y-5.5197
X1.9606Y-5.5197
X1.9606Y-5.5197
X1.9606Y-5.5197
X1.9685Y-3.1496
X1.9685Y-4.9213
X1.9685Y-5.1181
X1.9685Y-5.315
X1.9685Y-5.9055
X1.9685Y-6.1024
X1.9803Y-5.5394
X2.001Y-4.3237
X2.0374Y-3.7795
X2.0664Y-3.3656
X2.0669Y-3.0512
X2.0669Y-3.189
X2.0669Y-3.251
X2.0669Y-3.3071
X2.0669Y-5.2165
X2.0669Y-5.4134
X2.0679Y-3.9319
X2.0984Y-3.622
X2.1436Y-4.0137
X2.1457Y-2.687
X2.1692Y-4.1044
X2.1752Y-4.1437
X2.1753Y-4.4682
X2.1821Y-5.5935
X2.185Y-3.2776
X2.185Y-5.561
X2.185Y-5.6299
X2.185Y-5.6594
X2.1861Y-3.5102
X2.187Y-3.9896
X2.1919Y-4.2505
X2.1919Y-4.314
X2.1919Y-4.3868
X2.1919Y-4.5479
X2.1919Y-4.6624
X2.1919Y-4.7295
X2.1921Y-4.521
X2.1934Y-3.0906
X2.1937Y-3.6458
X2.1949Y-3.3661
X2.1949Y-3.5827
X2.2047Y-3.3071
X2.2047Y-3.3366
X2.2047Y-3.4237
X2.2146Y-5.561
X2.2146Y-5.5906
X2.2146Y-5.6299
X2.2146Y-5.6594
X2.2244Y-4.0059
X2.2293Y-4.4931
X2.2307Y-4.7669
X2.2343Y-4.2224
X2.2343Y-4.3012
X2.2343Y-4.3898
X2.2343Y-4.6457
X2.2411Y-3.2283
X2.2432Y-4.5707
X2.2441Y-4.065
X2.2503Y-4.784
X2.2503Y-3.9265
X2.2539Y-2.8248
X2.2554Y-3.0906
X2.2589Y-4.7335
X2.2638Y-2.4606
X2.2736Y-4.1437
X2.2835Y-3.6417
X2.2835Y-3.7008
X2.2883Y-4.6653
X2.3002Y-3.9715
X2.3005Y-4.2592
X2.3031Y-3.2283
X2.3081Y-4.4676
X2.3081Y-4.5177
X2.313Y-4.3406
X2.313Y-3.9173
X2.3188Y-4.6023
X2.3195Y-5.0463
X2.3228Y-6.0236
X2.3235Y-4.0138
X2.3396Y-3.7008
X2.3425Y-4.0846
X2.3455Y-4.7853
X2.3514Y-3.9715
X2.353Y-4.8856
X2.3593Y-3.2165
X2.3622Y-2.5591
X2.3622Y-2.7559
X2.3622Y-2.9528
X2.3622Y-5.1181
X2.3622Y-5.315
X2.364Y-3.8226
X2.3695Y-4.794
X2.3789Y-3.6417
X2.3819Y-4.1929
X2.3917Y-3.2874
X2.4016Y-3.7008
X2.4114Y-4.0453
X2.4213Y-3.2283
X2.4272Y-4.7301
X2.4311Y-4.6358
X2.4326Y-4.5162
X2.4326Y-4.9818
X2.4409Y-3.6417
X2.4478Y-4.7609
X2.4508Y-3.2874
X2.4577Y-3.7008
X2.4606Y-2.4606
X2.4606Y-2.6575
X2.4606Y-2.8543
X2.4606Y-3.0512
X2.4606Y-5.2165
X2.4607Y-3.2283
X2.4611Y-4.7941
X2.4734Y-4.0453
X2.4832Y-4.9126
X2.4961Y-4.5591
X2.4961Y-4.685
X2.5069Y-3.2874
X2.5081Y-4.7649
X2.5167Y-3.8386
X2.5171Y-4.0722
X2.5197Y-3.7008
X2.5197Y-4.9803
X2.5394Y-3.2283
X2.5492Y-4.4882
X2.5512Y-4.6142
X2.5591Y-2.5591
X2.5591Y-2.7559
X2.5591Y-2.9528
X2.5591Y-4.9183
X2.5591Y-4.9803
X2.5591Y-5.1181
X2.5591Y-5.315
X2.562Y-3.6417
X2.5689Y-4.6929
X2.5747Y-4.2578
X2.5787Y-3.8386
X2.5787Y-4.1929
X2.5787Y-4.3701
X2.5886Y-4.3209
X2.5906Y-3.7087
X2.598Y-4.1128
X2.5984Y-3.2283
X2.5984Y-4.9803
X2.618Y-3.9229
X2.6181Y-3.2874
X2.6181Y-4.7638
X2.6181Y-4.5374
X2.6475Y-4.9359
X2.6476Y-4.6161
X2.6485Y-4.3119
X2.6503Y-4.2382
X2.6574Y-4.1631
X2.6575Y-2.4606
X2.6575Y-3.0512
X2.6575Y-4.065
X2.6575Y-5.2165
X2.6604Y-3.2283
X2.6614Y-3.3622
X2.6693Y-4.7008
X2.6715Y-3.5232
X2.6751Y-3.6467
X2.6758Y-3.5924
X2.6772Y-3.2874
X2.6772Y-3.4547
X2.6818Y-4.9753
X2.687Y-3.9603
X2.6895Y-4.2315
X2.6974Y-3.3662
X2.6997Y-4.7312
X2.7025Y-4.6604
X2.7039Y-4.312
X2.706Y-4.0973
X2.7061Y-4.1391
X2.7062Y-4.4321
X2.7067Y-4.5079
X2.7067Y-4.5699
X2.7181Y-3.9406
X2.7206Y-4.3741
X2.7352Y-3.8998
X2.7559Y-2.5591
X2.7559Y-2.9528
X2.7559Y-5.1181
X2.7559Y-5.315
X2.7657Y-2.8839
X2.7678Y-3.9257
X2.7838Y-3.4284
X2.7854Y-3.9665
X2.7874Y-3.5234
X2.7892Y-3.4979
X2.7898Y-3.6516
X2.7927Y-3.5754
X2.7948Y-3.6054
X2.7953Y-3.4055
X2.8019Y-3.5445
X2.803Y-3.9883
X2.815Y-3.1959
X2.815Y-3.2579
X2.8268Y-3.2921
X2.8543Y-3.0512
X2.8543Y-5.2165
X2.8701Y-3.3071
X2.9325Y-3.5931
X2.9331Y-3.3268
X2.9429Y-4.4291
X2.9528Y-2.9528
X2.9528Y-4.9213
X2.9528Y-5.1181
X2.9528Y-5.315
X2.9932Y-4.3063
X3.0146Y-4.2924
X3.0315Y-3.6122
X3.0393Y-4.2857
X3.0512Y-3.0512
X3.0512Y-5.2165
X3.0651Y-4.2866
X3.0732Y-4.5102
X3.0748Y-4.2629
X3.1014Y-4.275
X3.1141Y-4.2528
X3.1171Y-3.7108
X3.1496Y-4.9213
X3.1496Y-5.1181
X3.1496Y-5.315
X3.1496Y-5.9055
X3.1496Y-6.1024
X3.1629Y-4.1405
X3.189Y-3.6122
X3.2006Y-4.0354
X3.2054Y-4.2328
X3.2078Y-3.9453
X3.2084Y-3.8891
X3.2086Y-4.0746
X3.2095Y-3.9118
X3.2114Y-3.8663
X3.212Y-3.7091
X3.2121Y-4.1141
X3.2126Y-3.9675
X3.2185Y-4.1929
X3.2256Y-3.8451
X3.2261Y-3.9318
X3.2283Y-4.0354
X3.2286Y-4.0943
X3.2298Y-3.7566
X3.2382Y-2.9429
X3.2382Y-3.6713
X3.248Y-2.4606
X3.248Y-2.6575
X3.248Y-3.0512
X3.248Y-4.2421
X3.248Y-5.8071
X3.248Y-6.0039
X3.248Y-6.2008
X3.252Y-3.8819
X3.2579Y-4.4291
X3.2646Y-3.8043
X3.2677Y-3.3366
X3.2677Y-3.9734
X3.2677Y-4.0354
X3.2677Y-3.8268
X3.2768Y-4.1512
X3.2776Y-4.124
X3.2795Y-5.4137
X3.3011Y-4.1432
X3.3102Y-3.5426
X3.3267Y-4.144
X3.3307Y-5.6693
X3.3366Y-3.2382
X3.3366Y-3.3033
X3.3465Y-2.5591
X3.3465Y-2.7559
X3.3465Y-2.9528
X3.3465Y-6.1024
X3.3514Y-3.5464
X3.3522Y-4.1415
X3.3543Y-5.5669
X3.3681Y-5.3937
X3.3723Y-3.5315
X3.3777Y-4.1438
X3.3858Y-5.6102
X3.386Y-3.5099
X3.3885Y-4.2644
X3.4035Y-4.9373
X3.4055Y-5.4528
X3.4094Y-3.811
X3.4104Y-3.5022
X3.4116Y-4.1385
X3.4124Y-3.6516
X3.4154Y-3.4449
X3.4154Y-4.3701
X3.4154Y-5.8465
X3.4173Y-5.6693
X3.4195Y-4.2334
X3.4252Y-3.5335
X3.4331Y-5.5669
X3.435Y-3.3071
X3.4449Y-2.4606
X3.4449Y-2.6575
X3.4449Y-2.8543
X3.4449Y-3.0512
X3.4449Y-3.4646
X3.4449Y-5.0197
X3.4449Y-5.2165
X3.4567Y-5.3858
X3.4648Y-3.6416
X3.4774Y-4.1437
X3.502Y-4.0628
X3.502Y-4.1117
X3.5138Y-3.3268
X3.523Y-4.2421
X3.5256Y-3.9171
X3.5305Y-3.6516
X3.5335Y-3.7205
X3.5354Y-3.8819
X3.5433Y-2.5591
X3.5433Y-2.7559
X3.5433Y-2.9528
X3.5433Y-3.1496
X3.5433Y-4.9213
X3.5433Y-5.1181
X3.5433Y-5.315
X3.5445Y-4.1602
X3.5476Y-3.4884
X3.5484Y-3.4615
X3.563Y-3.2677
X3.5633Y-4.1428
X3.5669Y-4.0079
X3.5888Y-4.1421
X3.5925Y-3.6516
X3.5987Y-4.2483
X3.6063Y-3.8819
X3.6122Y-4.1142
X3.6132Y-3.4568
X3.6142Y-3.7402
X3.6417Y-4.1328
X3.6417Y-2.4606
X3.6417Y-2.6575
X3.6417Y-2.8543
X3.6417Y-3.0512
X3.6417Y-3.248
X3.6417Y-3.4547
X3.6417Y-4.8228
X3.6417Y-5.0197
X3.6417Y-5.2165
X3.6535Y-3.493
X3.6591Y-4.043
X3.6614Y-3.5433
X3.6614Y-3.8091
X3.6692Y-4.1475
X3.6772Y-3.9291
X3.7008Y-3.8583
X3.7028Y-3.5236
X3.7106Y-3.6909
X3.7125Y-3.7441
X3.7204Y-4.263
X3.7205Y-3.7894
X3.7205Y-4.003
X3.7205Y-4.065
X3.7244Y-3.9134
X3.7402Y-2.5591
X3.7402Y-2.7559
X3.7402Y-2.9528
X3.7402Y-3.1496
X3.7402Y-4.7244
X3.7402Y-4.9213
X3.7931Y-4.1576
X3.811Y-3.6378
X3.811Y-3.685
X3.8131Y-4.0592
X3.8268Y-3.9528
X3.8386Y-2.6575
X3.8386Y-2.8543
X3.8386Y-3.0512
X3.8386Y-3.248
X3.8386Y-4.626
X3.8386Y-4.8228
X3.8386Y-6.2008
X3.8388Y-4.0167
X3.8433Y-3.527
X3.8438Y-3.5594
X3.8484Y-3.7205
X3.8484Y-3.8976
X3.8484Y-4.0945
X3.8583Y-3.5827
X3.8683Y-3.5213
X3.8866Y-3.8484
X3.8976Y-3.7894
X3.9094Y-3.8701
X3.9272Y-4.2717
X3.937Y-2.7559
X3.937Y-2.9528
X3.937Y-3.1496
X3.937Y-3.3465
X3.937Y-4.5276
X3.937Y-4.7244
X3.937Y-6.1024
X4.0354Y-2.6575
X4.0354Y-2.8543
X4.0354Y-3.0512
X4.0354Y-3.248
X4.0354Y-3.4449
X4.0354Y-3.6417
X4.0354Y-3.8386
X4.0354Y-4.0354
X4.0354Y-4.2323
X4.0354Y-4.4291
X4.0354Y-4.626
X4.0354Y-4.8228
X4.0354Y-5.0197
X4.0354Y-5.2165
X4.0354Y-5.4134
X4.0354Y-5.6102
X4.0354Y-6.0039
X4.0354Y-6.2008
X4.1339Y-2.7559
X4.1339Y-2.9528
X4.1339Y-3.1496
X4.1339Y-3.3465
X4.1339Y-3.5433
X4.1339Y-3.7402
X4.1339Y-3.937
X4.1339Y-4.1339
X4.1339Y-4.3307
X4.1339Y-4.5276
X4.1339Y-4.9213
X4.1339Y-5.1181
X4.1339Y-5.315
X4.1339Y-5.5118
X4.1339Y-5.7087
X4.1339Y-5.9055
X4.2323Y-2.8543
X4.2323Y-3.0512
X4.2323Y-3.248
X4.2323Y-3.4449
X4.2323Y-3.6417
X4.2323Y-3.8386
X4.2323Y-4.0354
X4.2323Y-4.2323
X4.2323Y-4.4291
X4.2323Y-4.626
X4.2323Y-5.0197
X4.2323Y-5.2165
X4.2323Y-5.4134
X4.2323Y-5.6102
X4.2323Y-5.8071
X4.2323Y-6.0039
T3
X1.8012Y-3.7205
X1.8898Y-2.4409
X1.9587Y-5.7283
X1.9685Y-5.7776
X2.0472Y-2.8839
X2.0571Y-3.6811
X2.1161Y-2.4409
X2.126Y-6.2205
X2.3228Y-6.2205
X2.3917Y-5.4331
X2.4449Y-5.5177
X2.5197Y-6.2205
X2.7461Y-5.5217
X2.7613Y-4.9858
X2.7657Y-5.7087
X2.7756Y-5.4823
X2.8376Y-5.9774
X2.8445Y-2.4409
X2.9724Y-5.9055
X3.0315Y-2.8839
X3.0512Y-5.4626
X3.061Y-5.7087
X3.0645Y-2.4473
X3.0709Y-4.7244
X3.0709Y-5.502
X3.0821Y-3.4785
X3.1299Y-2.687
X3.1496Y-5.9744
X3.2283Y-3.4744
X3.5039Y-5.689
X3.622Y-5.502
X3.6516Y-5.876
X3.6811Y-5.4921
X3.7894Y-2.4508
X3.8878Y-4.9606
X3.8976Y-5.8465
X4.0059Y-2.4508
T4
X3.5236Y-4.4882
X3.559Y-4.4528
X3.5943Y-4.4175
X3.6297Y-4.3821
X3.665Y-4.3468
T5
X3.4961Y-6.063
X3.6693Y-6.063
T6
X2.9685Y-6.0413
X2.9685Y-6.1988
T7
X1.6929Y-2.4803
X4.2126Y-2.4803
X1.6929Y-6.1811
X1.6929Y-4.7244
X4.2126Y-6.1811
X4.2126Y-4.7244
T0
M30
